%TF.GenerationSoftware,KiCad,Pcbnew,7.0.10*%
%TF.CreationDate,2024-04-26T10:30:09+01:00*%
%TF.ProjectId,front,66726f6e-742e-46b6-9963-61645f706362,rev?*%
%TF.SameCoordinates,Original*%
%TF.FileFunction,Copper,L2,Bot*%
%TF.FilePolarity,Positive*%
%FSLAX46Y46*%
G04 Gerber Fmt 4.6, Leading zero omitted, Abs format (unit mm)*
G04 Created by KiCad (PCBNEW 7.0.10) date 2024-04-26 10:30:09*
%MOMM*%
%LPD*%
G01*
G04 APERTURE LIST*
%TA.AperFunction,ComponentPad*%
%ADD10C,5.500000*%
%TD*%
G04 APERTURE END LIST*
D10*
%TO.P,H2,1,1*%
%TO.N,GND*%
X257000000Y-95400000D03*
%TD*%
%TO.P,H1,1,1*%
%TO.N,GND*%
X33000000Y-95400000D03*
%TD*%
%TA.AperFunction,Conductor*%
%TO.N,GND*%
G36*
X262542539Y-76020185D02*
G01*
X262588294Y-76072989D01*
X262599500Y-76124500D01*
X262599500Y-98875500D01*
X262579815Y-98942539D01*
X262527011Y-98988294D01*
X262475500Y-98999500D01*
X27524500Y-98999500D01*
X27457461Y-98979815D01*
X27411706Y-98927011D01*
X27400500Y-98875500D01*
X27400500Y-95400002D01*
X29745227Y-95400002D01*
X29764306Y-95751900D01*
X29764308Y-95751917D01*
X29821319Y-96099667D01*
X29821325Y-96099693D01*
X29915600Y-96439243D01*
X29915602Y-96439250D01*
X30046043Y-96766634D01*
X30046052Y-96766652D01*
X30211124Y-97078011D01*
X30408896Y-97369702D01*
X30531914Y-97514532D01*
X31702266Y-96344180D01*
X31865130Y-96534870D01*
X32055819Y-96697733D01*
X30882625Y-97870926D01*
X30882625Y-97870928D01*
X30892900Y-97880660D01*
X31173460Y-98093938D01*
X31173464Y-98093941D01*
X31475445Y-98275635D01*
X31795273Y-98423603D01*
X32129256Y-98536136D01*
X32473437Y-98611896D01*
X32823788Y-98649999D01*
X32823795Y-98650000D01*
X33176205Y-98650000D01*
X33176211Y-98649999D01*
X33526562Y-98611896D01*
X33870743Y-98536136D01*
X34204726Y-98423603D01*
X34524554Y-98275635D01*
X34826535Y-98093941D01*
X34826539Y-98093938D01*
X35107093Y-97880665D01*
X35107105Y-97880654D01*
X35117373Y-97870927D01*
X35117373Y-97870926D01*
X33944180Y-96697733D01*
X34134870Y-96534870D01*
X34297733Y-96344180D01*
X35468084Y-97514532D01*
X35468085Y-97514531D01*
X35591102Y-97369704D01*
X35788875Y-97078011D01*
X35953947Y-96766652D01*
X35953956Y-96766634D01*
X36084397Y-96439250D01*
X36084399Y-96439243D01*
X36178674Y-96099693D01*
X36178680Y-96099667D01*
X36235691Y-95751917D01*
X36235693Y-95751900D01*
X36254773Y-95400002D01*
X253745227Y-95400002D01*
X253764306Y-95751900D01*
X253764308Y-95751917D01*
X253821319Y-96099667D01*
X253821325Y-96099693D01*
X253915600Y-96439243D01*
X253915602Y-96439250D01*
X254046043Y-96766634D01*
X254046052Y-96766652D01*
X254211124Y-97078011D01*
X254408896Y-97369702D01*
X254531914Y-97514532D01*
X255702266Y-96344180D01*
X255865130Y-96534870D01*
X256055819Y-96697733D01*
X254882625Y-97870926D01*
X254882625Y-97870928D01*
X254892900Y-97880660D01*
X255173460Y-98093938D01*
X255173464Y-98093941D01*
X255475445Y-98275635D01*
X255795273Y-98423603D01*
X256129256Y-98536136D01*
X256473437Y-98611896D01*
X256823788Y-98649999D01*
X256823795Y-98650000D01*
X257176205Y-98650000D01*
X257176211Y-98649999D01*
X257526562Y-98611896D01*
X257870743Y-98536136D01*
X258204726Y-98423603D01*
X258524554Y-98275635D01*
X258826535Y-98093941D01*
X258826539Y-98093938D01*
X259107093Y-97880665D01*
X259107105Y-97880654D01*
X259117373Y-97870927D01*
X259117373Y-97870926D01*
X257944180Y-96697733D01*
X258134870Y-96534870D01*
X258297733Y-96344181D01*
X259468084Y-97514532D01*
X259468085Y-97514531D01*
X259591102Y-97369704D01*
X259788875Y-97078011D01*
X259953947Y-96766652D01*
X259953956Y-96766634D01*
X260084397Y-96439250D01*
X260084399Y-96439243D01*
X260178674Y-96099693D01*
X260178680Y-96099667D01*
X260235691Y-95751917D01*
X260235693Y-95751900D01*
X260254773Y-95400002D01*
X260254773Y-95399997D01*
X260235693Y-95048099D01*
X260235691Y-95048082D01*
X260178680Y-94700332D01*
X260178674Y-94700306D01*
X260084399Y-94360756D01*
X260084397Y-94360749D01*
X259953956Y-94033365D01*
X259953947Y-94033347D01*
X259788875Y-93721988D01*
X259591099Y-93430291D01*
X259468085Y-93285467D01*
X259468084Y-93285466D01*
X258297732Y-94455818D01*
X258134870Y-94265130D01*
X257944180Y-94102266D01*
X259117374Y-92929073D01*
X259117373Y-92929072D01*
X259107099Y-92919340D01*
X259107087Y-92919330D01*
X258826539Y-92706061D01*
X258826535Y-92706058D01*
X258524554Y-92524364D01*
X258204726Y-92376396D01*
X257870743Y-92263863D01*
X257526562Y-92188103D01*
X257176211Y-92150000D01*
X256823788Y-92150000D01*
X256473437Y-92188103D01*
X256129256Y-92263863D01*
X255795273Y-92376396D01*
X255475445Y-92524364D01*
X255173464Y-92706058D01*
X255173460Y-92706061D01*
X254892906Y-92919334D01*
X254882625Y-92929071D01*
X254882625Y-92929073D01*
X256055819Y-94102266D01*
X255865130Y-94265130D01*
X255702266Y-94455818D01*
X254531914Y-93285466D01*
X254531913Y-93285466D01*
X254408896Y-93430296D01*
X254211124Y-93721988D01*
X254046052Y-94033347D01*
X254046043Y-94033365D01*
X253915602Y-94360749D01*
X253915600Y-94360756D01*
X253821325Y-94700306D01*
X253821319Y-94700332D01*
X253764308Y-95048082D01*
X253764306Y-95048099D01*
X253745227Y-95399997D01*
X253745227Y-95400002D01*
X36254773Y-95400002D01*
X36254773Y-95399997D01*
X36235693Y-95048099D01*
X36235691Y-95048082D01*
X36178680Y-94700332D01*
X36178674Y-94700306D01*
X36084399Y-94360756D01*
X36084397Y-94360749D01*
X35953956Y-94033365D01*
X35953947Y-94033347D01*
X35788875Y-93721988D01*
X35591099Y-93430291D01*
X35468085Y-93285467D01*
X35468084Y-93285466D01*
X34297732Y-94455818D01*
X34134870Y-94265130D01*
X33944180Y-94102266D01*
X35117374Y-92929073D01*
X35117373Y-92929072D01*
X35107099Y-92919340D01*
X35107087Y-92919330D01*
X34826539Y-92706061D01*
X34826535Y-92706058D01*
X34524554Y-92524364D01*
X34204726Y-92376396D01*
X33870743Y-92263863D01*
X33526562Y-92188103D01*
X33176211Y-92150000D01*
X32823788Y-92150000D01*
X32473437Y-92188103D01*
X32129256Y-92263863D01*
X31795273Y-92376396D01*
X31475445Y-92524364D01*
X31173464Y-92706058D01*
X31173460Y-92706061D01*
X30892906Y-92919334D01*
X30882625Y-92929071D01*
X30882625Y-92929073D01*
X32055819Y-94102266D01*
X31865130Y-94265130D01*
X31702266Y-94455818D01*
X30531914Y-93285466D01*
X30531913Y-93285466D01*
X30408896Y-93430296D01*
X30211124Y-93721988D01*
X30046052Y-94033347D01*
X30046043Y-94033365D01*
X29915602Y-94360749D01*
X29915600Y-94360756D01*
X29821325Y-94700306D01*
X29821319Y-94700332D01*
X29764308Y-95048082D01*
X29764306Y-95048099D01*
X29745227Y-95399997D01*
X29745227Y-95400002D01*
X27400500Y-95400002D01*
X27400500Y-76124500D01*
X27420185Y-76057461D01*
X27472989Y-76011706D01*
X27524500Y-76000500D01*
X262475500Y-76000500D01*
X262542539Y-76020185D01*
G37*
%TD.AperFunction*%
%TD*%
M02*
