%TF.GenerationSoftware,KiCad,Pcbnew,7.0.10*%
%TF.CreationDate,2024-04-26T10:18:49+01:00*%
%TF.ProjectId,back,6261636b-2e6b-4696-9361-645f70636258,rev?*%
%TF.SameCoordinates,Original*%
%TF.FileFunction,Legend,Bot*%
%TF.FilePolarity,Positive*%
%FSLAX46Y46*%
G04 Gerber Fmt 4.6, Leading zero omitted, Abs format (unit mm)*
G04 Created by KiCad (PCBNEW 7.0.10) date 2024-04-26 10:18:49*
%MOMM*%
%LPD*%
G01*
G04 APERTURE LIST*
%ADD10C,0.150000*%
G04 APERTURE END LIST*
D10*
X259277506Y-113869819D02*
X259277506Y-114584104D01*
X259277506Y-114584104D02*
X259325125Y-114726961D01*
X259325125Y-114726961D02*
X259420363Y-114822200D01*
X259420363Y-114822200D02*
X259563220Y-114869819D01*
X259563220Y-114869819D02*
X259658458Y-114869819D01*
X258325125Y-114869819D02*
X258801315Y-114869819D01*
X258801315Y-114869819D02*
X258801315Y-113869819D01*
X257420363Y-114774580D02*
X257467982Y-114822200D01*
X257467982Y-114822200D02*
X257610839Y-114869819D01*
X257610839Y-114869819D02*
X257706077Y-114869819D01*
X257706077Y-114869819D02*
X257848934Y-114822200D01*
X257848934Y-114822200D02*
X257944172Y-114726961D01*
X257944172Y-114726961D02*
X257991791Y-114631723D01*
X257991791Y-114631723D02*
X258039410Y-114441247D01*
X258039410Y-114441247D02*
X258039410Y-114298390D01*
X258039410Y-114298390D02*
X257991791Y-114107914D01*
X257991791Y-114107914D02*
X257944172Y-114012676D01*
X257944172Y-114012676D02*
X257848934Y-113917438D01*
X257848934Y-113917438D02*
X257706077Y-113869819D01*
X257706077Y-113869819D02*
X257610839Y-113869819D01*
X257610839Y-113869819D02*
X257467982Y-113917438D01*
X257467982Y-113917438D02*
X257420363Y-113965057D01*
X256706077Y-113869819D02*
X256706077Y-114584104D01*
X256706077Y-114584104D02*
X256753696Y-114726961D01*
X256753696Y-114726961D02*
X256848934Y-114822200D01*
X256848934Y-114822200D02*
X256991791Y-114869819D01*
X256991791Y-114869819D02*
X257087029Y-114869819D01*
X255753696Y-114869819D02*
X256229886Y-114869819D01*
X256229886Y-114869819D02*
X256229886Y-113869819D01*
X254848934Y-114774580D02*
X254896553Y-114822200D01*
X254896553Y-114822200D02*
X255039410Y-114869819D01*
X255039410Y-114869819D02*
X255134648Y-114869819D01*
X255134648Y-114869819D02*
X255277505Y-114822200D01*
X255277505Y-114822200D02*
X255372743Y-114726961D01*
X255372743Y-114726961D02*
X255420362Y-114631723D01*
X255420362Y-114631723D02*
X255467981Y-114441247D01*
X255467981Y-114441247D02*
X255467981Y-114298390D01*
X255467981Y-114298390D02*
X255420362Y-114107914D01*
X255420362Y-114107914D02*
X255372743Y-114012676D01*
X255372743Y-114012676D02*
X255277505Y-113917438D01*
X255277505Y-113917438D02*
X255134648Y-113869819D01*
X255134648Y-113869819D02*
X255039410Y-113869819D01*
X255039410Y-113869819D02*
X254896553Y-113917438D01*
X254896553Y-113917438D02*
X254848934Y-113965057D01*
X254134648Y-113869819D02*
X254134648Y-114584104D01*
X254134648Y-114584104D02*
X254182267Y-114726961D01*
X254182267Y-114726961D02*
X254277505Y-114822200D01*
X254277505Y-114822200D02*
X254420362Y-114869819D01*
X254420362Y-114869819D02*
X254515600Y-114869819D01*
X253182267Y-114869819D02*
X253658457Y-114869819D01*
X253658457Y-114869819D02*
X253658457Y-113869819D01*
X252277505Y-114774580D02*
X252325124Y-114822200D01*
X252325124Y-114822200D02*
X252467981Y-114869819D01*
X252467981Y-114869819D02*
X252563219Y-114869819D01*
X252563219Y-114869819D02*
X252706076Y-114822200D01*
X252706076Y-114822200D02*
X252801314Y-114726961D01*
X252801314Y-114726961D02*
X252848933Y-114631723D01*
X252848933Y-114631723D02*
X252896552Y-114441247D01*
X252896552Y-114441247D02*
X252896552Y-114298390D01*
X252896552Y-114298390D02*
X252848933Y-114107914D01*
X252848933Y-114107914D02*
X252801314Y-114012676D01*
X252801314Y-114012676D02*
X252706076Y-113917438D01*
X252706076Y-113917438D02*
X252563219Y-113869819D01*
X252563219Y-113869819D02*
X252467981Y-113869819D01*
X252467981Y-113869819D02*
X252325124Y-113917438D01*
X252325124Y-113917438D02*
X252277505Y-113965057D01*
X251563219Y-113869819D02*
X251563219Y-114584104D01*
X251563219Y-114584104D02*
X251610838Y-114726961D01*
X251610838Y-114726961D02*
X251706076Y-114822200D01*
X251706076Y-114822200D02*
X251848933Y-114869819D01*
X251848933Y-114869819D02*
X251944171Y-114869819D01*
X250610838Y-114869819D02*
X251087028Y-114869819D01*
X251087028Y-114869819D02*
X251087028Y-113869819D01*
X249706076Y-114774580D02*
X249753695Y-114822200D01*
X249753695Y-114822200D02*
X249896552Y-114869819D01*
X249896552Y-114869819D02*
X249991790Y-114869819D01*
X249991790Y-114869819D02*
X250134647Y-114822200D01*
X250134647Y-114822200D02*
X250229885Y-114726961D01*
X250229885Y-114726961D02*
X250277504Y-114631723D01*
X250277504Y-114631723D02*
X250325123Y-114441247D01*
X250325123Y-114441247D02*
X250325123Y-114298390D01*
X250325123Y-114298390D02*
X250277504Y-114107914D01*
X250277504Y-114107914D02*
X250229885Y-114012676D01*
X250229885Y-114012676D02*
X250134647Y-113917438D01*
X250134647Y-113917438D02*
X249991790Y-113869819D01*
X249991790Y-113869819D02*
X249896552Y-113869819D01*
X249896552Y-113869819D02*
X249753695Y-113917438D01*
X249753695Y-113917438D02*
X249706076Y-113965057D01*
M02*
