%TF.GenerationSoftware,KiCad,Pcbnew,7.0.10*%
%TF.CreationDate,2024-04-26T12:54:52+01:00*%
%TF.ProjectId,back,6261636b-2e6b-4696-9361-645f70636258,rev?*%
%TF.SameCoordinates,Original*%
%TF.FileFunction,Copper,L2,Bot*%
%TF.FilePolarity,Positive*%
%FSLAX46Y46*%
G04 Gerber Fmt 4.6, Leading zero omitted, Abs format (unit mm)*
G04 Created by KiCad (PCBNEW 7.0.10) date 2024-04-26 12:54:52*
%MOMM*%
%LPD*%
G01*
G04 APERTURE LIST*
%TA.AperFunction,ComponentPad*%
%ADD10C,4.000000*%
%TD*%
G04 APERTURE END LIST*
D10*
%TO.P,H2,1,1*%
%TO.N,GND*%
X256600000Y-89500000D03*
%TD*%
%TO.P,H1,1,1*%
%TO.N,GND*%
X32600000Y-89500000D03*
%TD*%
%TA.AperFunction,Conductor*%
%TO.N,GND*%
G36*
X30969730Y-87520185D02*
G01*
X30990372Y-87536819D01*
X31655819Y-88202266D01*
X31465130Y-88365130D01*
X31302266Y-88555818D01*
X30664286Y-87917838D01*
X30664285Y-87917838D01*
X30573459Y-88027629D01*
X30573457Y-88027632D01*
X30404903Y-88293232D01*
X30404900Y-88293238D01*
X30270965Y-88577862D01*
X30270963Y-88577867D01*
X30173755Y-88877041D01*
X30114808Y-89186050D01*
X30114807Y-89186057D01*
X30095057Y-89499994D01*
X30095057Y-89500005D01*
X30114807Y-89813942D01*
X30114808Y-89813949D01*
X30173755Y-90122958D01*
X30270963Y-90422132D01*
X30270965Y-90422137D01*
X30404900Y-90706761D01*
X30404903Y-90706767D01*
X30573457Y-90972367D01*
X30573460Y-90972371D01*
X30664286Y-91082160D01*
X31302266Y-90444180D01*
X31465130Y-90634870D01*
X31655818Y-90797732D01*
X31014971Y-91438579D01*
X31014972Y-91438581D01*
X31257772Y-91614985D01*
X31257790Y-91614996D01*
X31533447Y-91766540D01*
X31533455Y-91766544D01*
X31825926Y-91882340D01*
X32130620Y-91960573D01*
X32130629Y-91960575D01*
X32442701Y-91999999D01*
X32442715Y-92000000D01*
X32757285Y-92000000D01*
X32757298Y-91999999D01*
X33069370Y-91960575D01*
X33069379Y-91960573D01*
X33374073Y-91882340D01*
X33666544Y-91766544D01*
X33666552Y-91766540D01*
X33942209Y-91614996D01*
X33942219Y-91614990D01*
X34185026Y-91438579D01*
X34185027Y-91438579D01*
X33544180Y-90797733D01*
X33734870Y-90634870D01*
X33897733Y-90444181D01*
X34535712Y-91082160D01*
X34626544Y-90972364D01*
X34795096Y-90706767D01*
X34795099Y-90706761D01*
X34929034Y-90422137D01*
X34929036Y-90422132D01*
X35026244Y-90122958D01*
X35085191Y-89813949D01*
X35085192Y-89813942D01*
X35104943Y-89500005D01*
X35104943Y-89499994D01*
X35085192Y-89186057D01*
X35085191Y-89186050D01*
X35026244Y-88877041D01*
X34929036Y-88577867D01*
X34929034Y-88577862D01*
X34795099Y-88293238D01*
X34795096Y-88293232D01*
X34626542Y-88027632D01*
X34626539Y-88027628D01*
X34535712Y-87917838D01*
X33897732Y-88555818D01*
X33734870Y-88365130D01*
X33544180Y-88202266D01*
X34209628Y-87536819D01*
X34270951Y-87503334D01*
X34297309Y-87500500D01*
X254902691Y-87500500D01*
X254969730Y-87520185D01*
X254990372Y-87536819D01*
X255655819Y-88202266D01*
X255465130Y-88365130D01*
X255302266Y-88555818D01*
X254664286Y-87917838D01*
X254664285Y-87917838D01*
X254573459Y-88027629D01*
X254573457Y-88027632D01*
X254404903Y-88293232D01*
X254404900Y-88293238D01*
X254270965Y-88577862D01*
X254270963Y-88577867D01*
X254173755Y-88877041D01*
X254114808Y-89186050D01*
X254114807Y-89186057D01*
X254095057Y-89499994D01*
X254095057Y-89500005D01*
X254114807Y-89813942D01*
X254114808Y-89813949D01*
X254173755Y-90122958D01*
X254270963Y-90422132D01*
X254270965Y-90422137D01*
X254404900Y-90706761D01*
X254404903Y-90706767D01*
X254573457Y-90972367D01*
X254573460Y-90972371D01*
X254664286Y-91082160D01*
X255302266Y-90444180D01*
X255465130Y-90634870D01*
X255655818Y-90797732D01*
X255014971Y-91438579D01*
X255014972Y-91438581D01*
X255257772Y-91614985D01*
X255257790Y-91614996D01*
X255533447Y-91766540D01*
X255533455Y-91766544D01*
X255825926Y-91882340D01*
X256130620Y-91960573D01*
X256130629Y-91960575D01*
X256442701Y-91999999D01*
X256442715Y-92000000D01*
X256757285Y-92000000D01*
X256757298Y-91999999D01*
X257069370Y-91960575D01*
X257069379Y-91960573D01*
X257374073Y-91882340D01*
X257666544Y-91766544D01*
X257666552Y-91766540D01*
X257942209Y-91614996D01*
X257942219Y-91614990D01*
X258185026Y-91438579D01*
X258185027Y-91438579D01*
X257544180Y-90797733D01*
X257734870Y-90634870D01*
X257897733Y-90444181D01*
X258535712Y-91082160D01*
X258626544Y-90972364D01*
X258795096Y-90706767D01*
X258795099Y-90706761D01*
X258929034Y-90422137D01*
X258929036Y-90422132D01*
X259026244Y-90122958D01*
X259085191Y-89813949D01*
X259085192Y-89813942D01*
X259104943Y-89500005D01*
X259104943Y-89499994D01*
X259085192Y-89186057D01*
X259085191Y-89186050D01*
X259026244Y-88877041D01*
X258929036Y-88577867D01*
X258929034Y-88577862D01*
X258795099Y-88293238D01*
X258795096Y-88293232D01*
X258626542Y-88027632D01*
X258626539Y-88027628D01*
X258535712Y-87917838D01*
X257897732Y-88555818D01*
X257734870Y-88365130D01*
X257544180Y-88202266D01*
X258209628Y-87536819D01*
X258270951Y-87503334D01*
X258297309Y-87500500D01*
X262075500Y-87500500D01*
X262142539Y-87520185D01*
X262188294Y-87572989D01*
X262199500Y-87624500D01*
X262199500Y-116875500D01*
X262179815Y-116942539D01*
X262127011Y-116988294D01*
X262075500Y-116999500D01*
X27124500Y-116999500D01*
X27057461Y-116979815D01*
X27011706Y-116927011D01*
X27000500Y-116875500D01*
X27000500Y-108850936D01*
X28095631Y-108850936D01*
X28106719Y-108923325D01*
X28107513Y-108929553D01*
X28114925Y-109002437D01*
X28114926Y-109002440D01*
X28119749Y-109017814D01*
X28124003Y-109036147D01*
X28126442Y-109052064D01*
X28126443Y-109052068D01*
X28151882Y-109120760D01*
X28153911Y-109126696D01*
X28175841Y-109196588D01*
X28175842Y-109196589D01*
X28175843Y-109196592D01*
X28183657Y-109210670D01*
X28191517Y-109227777D01*
X28197111Y-109242881D01*
X28197113Y-109242884D01*
X28197114Y-109242887D01*
X28213198Y-109268692D01*
X28235864Y-109305057D01*
X28239050Y-109310469D01*
X28274592Y-109374503D01*
X28274593Y-109374504D01*
X28285078Y-109386718D01*
X28296222Y-109401894D01*
X28304745Y-109415567D01*
X28304746Y-109415568D01*
X28304748Y-109415571D01*
X28355246Y-109468695D01*
X28359421Y-109473317D01*
X28374279Y-109490625D01*
X28407132Y-109528894D01*
X28407133Y-109528895D01*
X28419869Y-109538753D01*
X28433844Y-109551379D01*
X28444940Y-109563052D01*
X28505051Y-109604891D01*
X28510115Y-109608609D01*
X28518270Y-109614921D01*
X28568042Y-109653448D01*
X28582515Y-109660547D01*
X28598726Y-109670090D01*
X28611951Y-109679295D01*
X28679264Y-109708181D01*
X28684954Y-109710795D01*
X28696267Y-109716345D01*
X28750724Y-109743058D01*
X28750726Y-109743058D01*
X28750729Y-109743060D01*
X28766316Y-109747095D01*
X28784128Y-109753182D01*
X28798942Y-109759540D01*
X28870700Y-109774285D01*
X28876779Y-109775695D01*
X28947711Y-109794062D01*
X28947715Y-109794063D01*
X28963807Y-109794879D01*
X28982480Y-109797257D01*
X28991413Y-109799093D01*
X28998258Y-109800500D01*
X28998259Y-109800500D01*
X29071500Y-109800500D01*
X29077778Y-109800658D01*
X29150936Y-109804369D01*
X29166857Y-109801930D01*
X29185633Y-109800500D01*
X38271500Y-109800500D01*
X38277778Y-109800658D01*
X38350936Y-109804369D01*
X38423339Y-109793276D01*
X38429557Y-109792484D01*
X38502438Y-109785074D01*
X38517811Y-109780250D01*
X38536149Y-109775995D01*
X38540473Y-109775332D01*
X38552071Y-109773556D01*
X38620789Y-109748105D01*
X38626672Y-109746094D01*
X38696588Y-109724159D01*
X38710670Y-109716341D01*
X38727782Y-109708479D01*
X38742887Y-109702886D01*
X38805073Y-109664123D01*
X38810421Y-109660975D01*
X38874502Y-109625409D01*
X38886724Y-109614915D01*
X38901898Y-109603773D01*
X38915571Y-109595252D01*
X38968690Y-109544757D01*
X38973294Y-109540597D01*
X39028895Y-109492866D01*
X39038750Y-109480133D01*
X39051374Y-109466161D01*
X39055810Y-109461942D01*
X39063053Y-109455059D01*
X39104926Y-109394895D01*
X39108577Y-109389923D01*
X39153448Y-109331958D01*
X39160549Y-109317479D01*
X39170092Y-109301269D01*
X39179295Y-109288049D01*
X39208186Y-109220722D01*
X39210791Y-109215054D01*
X39243060Y-109149271D01*
X39247098Y-109133672D01*
X39253191Y-109115851D01*
X39259538Y-109101062D01*
X39259540Y-109101058D01*
X39274288Y-109029287D01*
X39275692Y-109023231D01*
X39294063Y-108952285D01*
X39294879Y-108936193D01*
X39297258Y-108917516D01*
X39300500Y-108901742D01*
X39300500Y-108828499D01*
X39300659Y-108822219D01*
X39304369Y-108749064D01*
X39301930Y-108733142D01*
X39300500Y-108714366D01*
X39300500Y-97628499D01*
X39300659Y-97622219D01*
X39302065Y-97594495D01*
X39304369Y-97549064D01*
X39293277Y-97476664D01*
X39292484Y-97470436D01*
X39291756Y-97463281D01*
X39285074Y-97397562D01*
X39280766Y-97383832D01*
X39280251Y-97382189D01*
X39275994Y-97363849D01*
X39273556Y-97347929D01*
X39248100Y-97279197D01*
X39246098Y-97273338D01*
X39224159Y-97203412D01*
X39216339Y-97189324D01*
X39208482Y-97172225D01*
X39202886Y-97157113D01*
X39164129Y-97094934D01*
X39160951Y-97089534D01*
X39153686Y-97076445D01*
X39125409Y-97025498D01*
X39114921Y-97013281D01*
X39103773Y-96998100D01*
X39103489Y-96997645D01*
X39095252Y-96984429D01*
X39044787Y-96931340D01*
X39040577Y-96926680D01*
X38992873Y-96871112D01*
X38992868Y-96871108D01*
X38992866Y-96871105D01*
X38980126Y-96861243D01*
X38966155Y-96848620D01*
X38955063Y-96836951D01*
X38955062Y-96836950D01*
X38955059Y-96836947D01*
X38894936Y-96795100D01*
X38889874Y-96791382D01*
X38831960Y-96746553D01*
X38831957Y-96746551D01*
X38817496Y-96739458D01*
X38801270Y-96729906D01*
X38788051Y-96720706D01*
X38788049Y-96720705D01*
X38720720Y-96691811D01*
X38715061Y-96689211D01*
X38649271Y-96656940D01*
X38649269Y-96656939D01*
X38633680Y-96652903D01*
X38615864Y-96646813D01*
X38601061Y-96640461D01*
X38601059Y-96640460D01*
X38601058Y-96640460D01*
X38529306Y-96625714D01*
X38523195Y-96624297D01*
X38516544Y-96622575D01*
X38452285Y-96605937D01*
X38452284Y-96605936D01*
X38452281Y-96605936D01*
X38436189Y-96605119D01*
X38417523Y-96602742D01*
X38401743Y-96599500D01*
X38401741Y-96599500D01*
X38328500Y-96599500D01*
X38322221Y-96599341D01*
X38249064Y-96595631D01*
X38249060Y-96595631D01*
X38233143Y-96598070D01*
X38214367Y-96599500D01*
X29128500Y-96599500D01*
X29122221Y-96599341D01*
X29091787Y-96597797D01*
X29049065Y-96595631D01*
X29049058Y-96595631D01*
X28976676Y-96606719D01*
X28970448Y-96607513D01*
X28897566Y-96614925D01*
X28897557Y-96614927D01*
X28882187Y-96619749D01*
X28863858Y-96624003D01*
X28847929Y-96626444D01*
X28847926Y-96626445D01*
X28779245Y-96651880D01*
X28773305Y-96653911D01*
X28703412Y-96675840D01*
X28689322Y-96683661D01*
X28672220Y-96691518D01*
X28657118Y-96697111D01*
X28657108Y-96697116D01*
X28594959Y-96735854D01*
X28589546Y-96739040D01*
X28525506Y-96774585D01*
X28525499Y-96774590D01*
X28513278Y-96785081D01*
X28498114Y-96796216D01*
X28484430Y-96804746D01*
X28484427Y-96804749D01*
X28431338Y-96855213D01*
X28426679Y-96859422D01*
X28371109Y-96907129D01*
X28371102Y-96907136D01*
X28361243Y-96919872D01*
X28348631Y-96933832D01*
X28336949Y-96944938D01*
X28336948Y-96944939D01*
X28295111Y-97005046D01*
X28291396Y-97010106D01*
X28246550Y-97068043D01*
X28239452Y-97082513D01*
X28229907Y-97098728D01*
X28220706Y-97111948D01*
X28220705Y-97111949D01*
X28191818Y-97179262D01*
X28189197Y-97184965D01*
X28156939Y-97250729D01*
X28156938Y-97250733D01*
X28152901Y-97266324D01*
X28146815Y-97284129D01*
X28140461Y-97298937D01*
X28125716Y-97370687D01*
X28124296Y-97376805D01*
X28105936Y-97447716D01*
X28105119Y-97463811D01*
X28102743Y-97482474D01*
X28099500Y-97498260D01*
X28099500Y-97571499D01*
X28099341Y-97577779D01*
X28095631Y-97650935D01*
X28095631Y-97650936D01*
X28098070Y-97666857D01*
X28099500Y-97685633D01*
X28099500Y-108771499D01*
X28099341Y-108777779D01*
X28095631Y-108850935D01*
X28095631Y-108850936D01*
X27000500Y-108850936D01*
X27000500Y-93715023D01*
X40497936Y-93715023D01*
X40499483Y-93807381D01*
X40499500Y-93809457D01*
X40499500Y-93892707D01*
X40500029Y-93898415D01*
X40499909Y-93898426D01*
X40501225Y-93911439D01*
X40501343Y-93918471D01*
X40501344Y-93918483D01*
X40519249Y-93998771D01*
X40520110Y-94002972D01*
X40533569Y-94074966D01*
X40533572Y-94074975D01*
X40536503Y-94082541D01*
X40541902Y-94100340D01*
X43452768Y-107152287D01*
X43598312Y-107804890D01*
X43611378Y-107863474D01*
X43613451Y-107875553D01*
X43617908Y-107912346D01*
X43617908Y-107912348D01*
X43631249Y-107954671D01*
X43634007Y-107964939D01*
X43634536Y-107967308D01*
X43634538Y-107967314D01*
X43634538Y-107967317D01*
X43646820Y-108004286D01*
X43647393Y-108006055D01*
X43690328Y-108142081D01*
X43690329Y-108142083D01*
X43690332Y-108142092D01*
X43773491Y-108328117D01*
X43811279Y-108412648D01*
X43962483Y-108667529D01*
X44141940Y-108903366D01*
X44237147Y-109002437D01*
X44347287Y-109117048D01*
X44347292Y-109117052D01*
X44347294Y-109117054D01*
X44358976Y-109126700D01*
X44575804Y-109305746D01*
X44724103Y-109401894D01*
X44824466Y-109466964D01*
X44824468Y-109466965D01*
X45089988Y-109598571D01*
X45089993Y-109598574D01*
X45089996Y-109598575D01*
X45089998Y-109598576D01*
X45206783Y-109640561D01*
X45368881Y-109698838D01*
X45647234Y-109764036D01*
X45657425Y-109766423D01*
X45951822Y-109800441D01*
X45991554Y-109800456D01*
X45992394Y-109800500D01*
X45998259Y-109800500D01*
X88151254Y-109800500D01*
X88204265Y-109794063D01*
X88451551Y-109764037D01*
X88745266Y-109691643D01*
X88745269Y-109691641D01*
X88745272Y-109691641D01*
X88919910Y-109625409D01*
X89028113Y-109584373D01*
X89295967Y-109443792D01*
X89544924Y-109271950D01*
X89771352Y-109071352D01*
X89966624Y-108850936D01*
X132295631Y-108850936D01*
X132306719Y-108923325D01*
X132307513Y-108929553D01*
X132314925Y-109002437D01*
X132314926Y-109002440D01*
X132319749Y-109017814D01*
X132324003Y-109036147D01*
X132326442Y-109052064D01*
X132326443Y-109052068D01*
X132351882Y-109120760D01*
X132353911Y-109126696D01*
X132375841Y-109196588D01*
X132375842Y-109196589D01*
X132375843Y-109196592D01*
X132383657Y-109210670D01*
X132391517Y-109227777D01*
X132397111Y-109242881D01*
X132397113Y-109242884D01*
X132397114Y-109242887D01*
X132413198Y-109268692D01*
X132435864Y-109305057D01*
X132439050Y-109310469D01*
X132474592Y-109374503D01*
X132474593Y-109374504D01*
X132485078Y-109386718D01*
X132496222Y-109401894D01*
X132504745Y-109415567D01*
X132504746Y-109415568D01*
X132504748Y-109415571D01*
X132555246Y-109468695D01*
X132559421Y-109473317D01*
X132574279Y-109490625D01*
X132607132Y-109528894D01*
X132607133Y-109528895D01*
X132619869Y-109538753D01*
X132633844Y-109551379D01*
X132644940Y-109563052D01*
X132705051Y-109604891D01*
X132710115Y-109608609D01*
X132718270Y-109614921D01*
X132768042Y-109653448D01*
X132782515Y-109660547D01*
X132798726Y-109670090D01*
X132811951Y-109679295D01*
X132879264Y-109708181D01*
X132884954Y-109710795D01*
X132896267Y-109716345D01*
X132950724Y-109743058D01*
X132950726Y-109743058D01*
X132950729Y-109743060D01*
X132966316Y-109747095D01*
X132984128Y-109753182D01*
X132998942Y-109759540D01*
X133070700Y-109774285D01*
X133076779Y-109775695D01*
X133147711Y-109794062D01*
X133147715Y-109794063D01*
X133163807Y-109794879D01*
X133182480Y-109797257D01*
X133191413Y-109799093D01*
X133198258Y-109800500D01*
X133198259Y-109800500D01*
X133271500Y-109800500D01*
X133277778Y-109800658D01*
X133350936Y-109804369D01*
X133366857Y-109801930D01*
X133385633Y-109800500D01*
X195271500Y-109800500D01*
X195277778Y-109800658D01*
X195350936Y-109804369D01*
X195423339Y-109793276D01*
X195429557Y-109792484D01*
X195502438Y-109785074D01*
X195517811Y-109780250D01*
X195536149Y-109775995D01*
X195540473Y-109775332D01*
X195552071Y-109773556D01*
X195620789Y-109748105D01*
X195626672Y-109746094D01*
X195696588Y-109724159D01*
X195710670Y-109716341D01*
X195727782Y-109708479D01*
X195742887Y-109702886D01*
X195805073Y-109664123D01*
X195810421Y-109660975D01*
X195874502Y-109625409D01*
X195886724Y-109614915D01*
X195901898Y-109603773D01*
X195915571Y-109595252D01*
X195968690Y-109544757D01*
X195973294Y-109540597D01*
X196028895Y-109492866D01*
X196038750Y-109480133D01*
X196051374Y-109466161D01*
X196055810Y-109461942D01*
X196063053Y-109455059D01*
X196104926Y-109394895D01*
X196108577Y-109389923D01*
X196153448Y-109331958D01*
X196160549Y-109317479D01*
X196170092Y-109301269D01*
X196179295Y-109288049D01*
X196208186Y-109220722D01*
X196210782Y-109215071D01*
X196239269Y-109156998D01*
X196286464Y-109105482D01*
X196354022Y-109087658D01*
X196420492Y-109109189D01*
X196464769Y-109163238D01*
X196468906Y-109174487D01*
X196475839Y-109196582D01*
X196475843Y-109196592D01*
X196483657Y-109210670D01*
X196491517Y-109227777D01*
X196497111Y-109242881D01*
X196497113Y-109242884D01*
X196497114Y-109242887D01*
X196513198Y-109268692D01*
X196535864Y-109305057D01*
X196539050Y-109310469D01*
X196574592Y-109374503D01*
X196574593Y-109374504D01*
X196585078Y-109386718D01*
X196596222Y-109401894D01*
X196604745Y-109415567D01*
X196604746Y-109415568D01*
X196604748Y-109415571D01*
X196655246Y-109468695D01*
X196659421Y-109473317D01*
X196674279Y-109490625D01*
X196707132Y-109528894D01*
X196707133Y-109528895D01*
X196719869Y-109538753D01*
X196733844Y-109551379D01*
X196744940Y-109563052D01*
X196805051Y-109604891D01*
X196810115Y-109608609D01*
X196818270Y-109614921D01*
X196868042Y-109653448D01*
X196882515Y-109660547D01*
X196898726Y-109670090D01*
X196911951Y-109679295D01*
X196979264Y-109708181D01*
X196984954Y-109710795D01*
X196996267Y-109716345D01*
X197050724Y-109743058D01*
X197050726Y-109743058D01*
X197050729Y-109743060D01*
X197066316Y-109747095D01*
X197084128Y-109753182D01*
X197098942Y-109759540D01*
X197170700Y-109774285D01*
X197176779Y-109775695D01*
X197247711Y-109794062D01*
X197247715Y-109794063D01*
X197263807Y-109794879D01*
X197282480Y-109797257D01*
X197291413Y-109799093D01*
X197298258Y-109800500D01*
X197298259Y-109800500D01*
X197371500Y-109800500D01*
X197377778Y-109800658D01*
X197450936Y-109804369D01*
X197466857Y-109801930D01*
X197485633Y-109800500D01*
X259371500Y-109800500D01*
X259377778Y-109800658D01*
X259450936Y-109804369D01*
X259523339Y-109793276D01*
X259529557Y-109792484D01*
X259602438Y-109785074D01*
X259617811Y-109780250D01*
X259636149Y-109775995D01*
X259640473Y-109775332D01*
X259652071Y-109773556D01*
X259720789Y-109748105D01*
X259726672Y-109746094D01*
X259796588Y-109724159D01*
X259810670Y-109716341D01*
X259827782Y-109708479D01*
X259842887Y-109702886D01*
X259905073Y-109664123D01*
X259910421Y-109660975D01*
X259974502Y-109625409D01*
X259986724Y-109614915D01*
X260001898Y-109603773D01*
X260015571Y-109595252D01*
X260068690Y-109544757D01*
X260073294Y-109540597D01*
X260128895Y-109492866D01*
X260138750Y-109480133D01*
X260151374Y-109466161D01*
X260155810Y-109461942D01*
X260163053Y-109455059D01*
X260204926Y-109394895D01*
X260208577Y-109389923D01*
X260253448Y-109331958D01*
X260260549Y-109317479D01*
X260270092Y-109301269D01*
X260279295Y-109288049D01*
X260308186Y-109220722D01*
X260310791Y-109215054D01*
X260343060Y-109149271D01*
X260347098Y-109133672D01*
X260353191Y-109115851D01*
X260359538Y-109101062D01*
X260359540Y-109101058D01*
X260374288Y-109029287D01*
X260375692Y-109023231D01*
X260394063Y-108952285D01*
X260394879Y-108936193D01*
X260397258Y-108917516D01*
X260400500Y-108901742D01*
X260400500Y-108828499D01*
X260400659Y-108822219D01*
X260404369Y-108749064D01*
X260401930Y-108733142D01*
X260400500Y-108714366D01*
X260400500Y-93828499D01*
X260400659Y-93822219D01*
X260401360Y-93808396D01*
X260404369Y-93749064D01*
X260393277Y-93676664D01*
X260392484Y-93670436D01*
X260390278Y-93648745D01*
X260385074Y-93597562D01*
X260384248Y-93594930D01*
X260380251Y-93582189D01*
X260375994Y-93563849D01*
X260373556Y-93547929D01*
X260348100Y-93479197D01*
X260346098Y-93473338D01*
X260324159Y-93403412D01*
X260316339Y-93389324D01*
X260308482Y-93372225D01*
X260302886Y-93357113D01*
X260264129Y-93294934D01*
X260260951Y-93289534D01*
X260257054Y-93282513D01*
X260225409Y-93225498D01*
X260214921Y-93213281D01*
X260203773Y-93198100D01*
X260203489Y-93197645D01*
X260195252Y-93184429D01*
X260144787Y-93131340D01*
X260140577Y-93126680D01*
X260092873Y-93071112D01*
X260092868Y-93071108D01*
X260092866Y-93071105D01*
X260080126Y-93061243D01*
X260066155Y-93048620D01*
X260055063Y-93036951D01*
X260055062Y-93036950D01*
X260055059Y-93036947D01*
X259994936Y-92995100D01*
X259989874Y-92991382D01*
X259931960Y-92946553D01*
X259931957Y-92946551D01*
X259917496Y-92939458D01*
X259901270Y-92929906D01*
X259888051Y-92920706D01*
X259888049Y-92920705D01*
X259820720Y-92891811D01*
X259815061Y-92889211D01*
X259749271Y-92856940D01*
X259749269Y-92856939D01*
X259733680Y-92852903D01*
X259715864Y-92846813D01*
X259701061Y-92840461D01*
X259701059Y-92840460D01*
X259701058Y-92840460D01*
X259629306Y-92825714D01*
X259623195Y-92824297D01*
X259616544Y-92822575D01*
X259552285Y-92805937D01*
X259552284Y-92805936D01*
X259552281Y-92805936D01*
X259536189Y-92805119D01*
X259517523Y-92802742D01*
X259501743Y-92799500D01*
X259501741Y-92799500D01*
X259428500Y-92799500D01*
X259422221Y-92799341D01*
X259349064Y-92795631D01*
X259349060Y-92795631D01*
X259333143Y-92798070D01*
X259314367Y-92799500D01*
X197428500Y-92799500D01*
X197422221Y-92799341D01*
X197391787Y-92797797D01*
X197349065Y-92795631D01*
X197349058Y-92795631D01*
X197276676Y-92806719D01*
X197270448Y-92807513D01*
X197197566Y-92814925D01*
X197197557Y-92814927D01*
X197182187Y-92819749D01*
X197163858Y-92824003D01*
X197147929Y-92826444D01*
X197147926Y-92826445D01*
X197079245Y-92851880D01*
X197073305Y-92853911D01*
X197003412Y-92875840D01*
X196989322Y-92883661D01*
X196972220Y-92891518D01*
X196957118Y-92897111D01*
X196957108Y-92897116D01*
X196894959Y-92935854D01*
X196889546Y-92939040D01*
X196825506Y-92974585D01*
X196825499Y-92974590D01*
X196813278Y-92985081D01*
X196798114Y-92996216D01*
X196784430Y-93004746D01*
X196784427Y-93004749D01*
X196731338Y-93055213D01*
X196726679Y-93059422D01*
X196671109Y-93107129D01*
X196671102Y-93107136D01*
X196661243Y-93119872D01*
X196648631Y-93133832D01*
X196636949Y-93144938D01*
X196636948Y-93144939D01*
X196595111Y-93205046D01*
X196591396Y-93210106D01*
X196546550Y-93268043D01*
X196539452Y-93282513D01*
X196529907Y-93298728D01*
X196520706Y-93311948D01*
X196520705Y-93311949D01*
X196491818Y-93379262D01*
X196489197Y-93384965D01*
X196460734Y-93442994D01*
X196413538Y-93494515D01*
X196345981Y-93512341D01*
X196279511Y-93490812D01*
X196235231Y-93436765D01*
X196231091Y-93425507D01*
X196226061Y-93409475D01*
X196224159Y-93403412D01*
X196216339Y-93389324D01*
X196208482Y-93372225D01*
X196202886Y-93357113D01*
X196164129Y-93294934D01*
X196160951Y-93289534D01*
X196157054Y-93282513D01*
X196125409Y-93225498D01*
X196114921Y-93213281D01*
X196103773Y-93198100D01*
X196103489Y-93197645D01*
X196095252Y-93184429D01*
X196044787Y-93131340D01*
X196040577Y-93126680D01*
X195992873Y-93071112D01*
X195992868Y-93071108D01*
X195992866Y-93071105D01*
X195980126Y-93061243D01*
X195966155Y-93048620D01*
X195955063Y-93036951D01*
X195955062Y-93036950D01*
X195955059Y-93036947D01*
X195894936Y-92995100D01*
X195889874Y-92991382D01*
X195831960Y-92946553D01*
X195831957Y-92946551D01*
X195817496Y-92939458D01*
X195801270Y-92929906D01*
X195788051Y-92920706D01*
X195788049Y-92920705D01*
X195720720Y-92891811D01*
X195715061Y-92889211D01*
X195649271Y-92856940D01*
X195649269Y-92856939D01*
X195633680Y-92852903D01*
X195615864Y-92846813D01*
X195601061Y-92840461D01*
X195601059Y-92840460D01*
X195601058Y-92840460D01*
X195529306Y-92825714D01*
X195523195Y-92824297D01*
X195516544Y-92822575D01*
X195452285Y-92805937D01*
X195452284Y-92805936D01*
X195452281Y-92805936D01*
X195436189Y-92805119D01*
X195417523Y-92802742D01*
X195401743Y-92799500D01*
X195401741Y-92799500D01*
X195328500Y-92799500D01*
X195322221Y-92799341D01*
X195249064Y-92795631D01*
X195249060Y-92795631D01*
X195233143Y-92798070D01*
X195214367Y-92799500D01*
X133328500Y-92799500D01*
X133322221Y-92799341D01*
X133291787Y-92797797D01*
X133249065Y-92795631D01*
X133249058Y-92795631D01*
X133176676Y-92806719D01*
X133170448Y-92807513D01*
X133097566Y-92814925D01*
X133097557Y-92814927D01*
X133082187Y-92819749D01*
X133063858Y-92824003D01*
X133047929Y-92826444D01*
X133047926Y-92826445D01*
X132979245Y-92851880D01*
X132973305Y-92853911D01*
X132903412Y-92875840D01*
X132889322Y-92883661D01*
X132872220Y-92891518D01*
X132857118Y-92897111D01*
X132857108Y-92897116D01*
X132794959Y-92935854D01*
X132789546Y-92939040D01*
X132725506Y-92974585D01*
X132725499Y-92974590D01*
X132713278Y-92985081D01*
X132698114Y-92996216D01*
X132684430Y-93004746D01*
X132684427Y-93004749D01*
X132631338Y-93055213D01*
X132626679Y-93059422D01*
X132571109Y-93107129D01*
X132571102Y-93107136D01*
X132561243Y-93119872D01*
X132548631Y-93133832D01*
X132536949Y-93144938D01*
X132536948Y-93144939D01*
X132495111Y-93205046D01*
X132491396Y-93210106D01*
X132446550Y-93268043D01*
X132439452Y-93282513D01*
X132429907Y-93298728D01*
X132420706Y-93311948D01*
X132420705Y-93311949D01*
X132391818Y-93379262D01*
X132389197Y-93384965D01*
X132356939Y-93450729D01*
X132356938Y-93450733D01*
X132352901Y-93466324D01*
X132346815Y-93484129D01*
X132340461Y-93498937D01*
X132325716Y-93570687D01*
X132324296Y-93576805D01*
X132305936Y-93647716D01*
X132305119Y-93663811D01*
X132302743Y-93682474D01*
X132299500Y-93698260D01*
X132299500Y-93771499D01*
X132299341Y-93777779D01*
X132295631Y-93850935D01*
X132295631Y-93850936D01*
X132298070Y-93866857D01*
X132299500Y-93885633D01*
X132299500Y-108771499D01*
X132299341Y-108777779D01*
X132295631Y-108850935D01*
X132295631Y-108850936D01*
X89966624Y-108850936D01*
X89971950Y-108844924D01*
X90143792Y-108595967D01*
X90284373Y-108328113D01*
X90391643Y-108045266D01*
X90464037Y-107751551D01*
X90500500Y-107451252D01*
X90500500Y-107300000D01*
X90500500Y-107207290D01*
X90500500Y-105003369D01*
X90520185Y-104936330D01*
X90572989Y-104890575D01*
X90642147Y-104880631D01*
X90705703Y-104909656D01*
X90707773Y-104911491D01*
X90753233Y-104952694D01*
X90763776Y-104962249D01*
X91091325Y-105205176D01*
X91441109Y-105414828D01*
X91809757Y-105589186D01*
X92193721Y-105726570D01*
X92589301Y-105825658D01*
X92992689Y-105885495D01*
X93400000Y-105905505D01*
X93807311Y-105885495D01*
X94210699Y-105825658D01*
X94606279Y-105726570D01*
X94990243Y-105589186D01*
X95358891Y-105414828D01*
X95708675Y-105205176D01*
X96036224Y-104962249D01*
X96338386Y-104688386D01*
X96612249Y-104386224D01*
X96855176Y-104058675D01*
X97064828Y-103708891D01*
X97239186Y-103340243D01*
X97376570Y-102956279D01*
X97475658Y-102560699D01*
X97480953Y-102525000D01*
X99269904Y-102525000D01*
X99288271Y-102887191D01*
X99343188Y-103245663D01*
X99434092Y-103596757D01*
X99560039Y-103936823D01*
X99560042Y-103936830D01*
X99560043Y-103936832D01*
X99560045Y-103936836D01*
X99719754Y-104262427D01*
X99742029Y-104298163D01*
X99911588Y-104570195D01*
X99911590Y-104570198D01*
X99911591Y-104570199D01*
X100133567Y-104856969D01*
X100133573Y-104856976D01*
X100364584Y-105100000D01*
X100383432Y-105119828D01*
X100658599Y-105356051D01*
X100658602Y-105356053D01*
X100956258Y-105563228D01*
X101273347Y-105739226D01*
X101606614Y-105882243D01*
X101762621Y-105931190D01*
X101820693Y-105970040D01*
X101848542Y-106034120D01*
X101849500Y-106049503D01*
X101849500Y-106971498D01*
X101849341Y-106977778D01*
X101845631Y-107050934D01*
X101845631Y-107050935D01*
X101856719Y-107123324D01*
X101857513Y-107129552D01*
X101864925Y-107202436D01*
X101864926Y-107202439D01*
X101869749Y-107217813D01*
X101874003Y-107236146D01*
X101876442Y-107252063D01*
X101876443Y-107252067D01*
X101901882Y-107320759D01*
X101903911Y-107326695D01*
X101925841Y-107396587D01*
X101925842Y-107396588D01*
X101925843Y-107396591D01*
X101933657Y-107410669D01*
X101941517Y-107427776D01*
X101947111Y-107442880D01*
X101947113Y-107442883D01*
X101947114Y-107442886D01*
X101952329Y-107451252D01*
X101985864Y-107505056D01*
X101989050Y-107510468D01*
X102000978Y-107531959D01*
X102024592Y-107574502D01*
X102024593Y-107574503D01*
X102035078Y-107586717D01*
X102046222Y-107601893D01*
X102054745Y-107615566D01*
X102054746Y-107615567D01*
X102054748Y-107615570D01*
X102105246Y-107668694D01*
X102109421Y-107673316D01*
X102115275Y-107680135D01*
X102157132Y-107728893D01*
X102157133Y-107728894D01*
X102169869Y-107738752D01*
X102183842Y-107751376D01*
X102184008Y-107751551D01*
X102194940Y-107763051D01*
X102255051Y-107804890D01*
X102260115Y-107808608D01*
X102318042Y-107853447D01*
X102332515Y-107860546D01*
X102348726Y-107870089D01*
X102361951Y-107879294D01*
X102429264Y-107908180D01*
X102434954Y-107910794D01*
X102446269Y-107916345D01*
X102500724Y-107943057D01*
X102500726Y-107943057D01*
X102500729Y-107943059D01*
X102516316Y-107947094D01*
X102534128Y-107953181D01*
X102548942Y-107959539D01*
X102620700Y-107974284D01*
X102626779Y-107975694D01*
X102697711Y-107994061D01*
X102697715Y-107994062D01*
X102713807Y-107994878D01*
X102732480Y-107997256D01*
X102741413Y-107999092D01*
X102748258Y-108000499D01*
X102748259Y-108000499D01*
X102821500Y-108000499D01*
X102827778Y-108000657D01*
X102900936Y-108004368D01*
X102916857Y-108001929D01*
X102935633Y-108000499D01*
X127821497Y-108000499D01*
X127827778Y-108000658D01*
X127900936Y-108004369D01*
X127973339Y-107993276D01*
X127979557Y-107992484D01*
X128052438Y-107985074D01*
X128067811Y-107980250D01*
X128086149Y-107975995D01*
X128090473Y-107975332D01*
X128102071Y-107973556D01*
X128170789Y-107948105D01*
X128176672Y-107946094D01*
X128246588Y-107924159D01*
X128260670Y-107916341D01*
X128277782Y-107908479D01*
X128292887Y-107902886D01*
X128355073Y-107864123D01*
X128360421Y-107860975D01*
X128424502Y-107825409D01*
X128436724Y-107814915D01*
X128451898Y-107803773D01*
X128465571Y-107795252D01*
X128518690Y-107744757D01*
X128523294Y-107740597D01*
X128578895Y-107692866D01*
X128588750Y-107680133D01*
X128601374Y-107666161D01*
X128605810Y-107661942D01*
X128613053Y-107655059D01*
X128654926Y-107594895D01*
X128658577Y-107589923D01*
X128703448Y-107531958D01*
X128710549Y-107517479D01*
X128720092Y-107501269D01*
X128729295Y-107488049D01*
X128758186Y-107420722D01*
X128760791Y-107415054D01*
X128793060Y-107349271D01*
X128797098Y-107333672D01*
X128803191Y-107315851D01*
X128809538Y-107301062D01*
X128809540Y-107301058D01*
X128824288Y-107229287D01*
X128825692Y-107223231D01*
X128844063Y-107152285D01*
X128844879Y-107136193D01*
X128847258Y-107117516D01*
X128850500Y-107101742D01*
X128850500Y-107028499D01*
X128850659Y-107022219D01*
X128854369Y-106949064D01*
X128851930Y-106933142D01*
X128850500Y-106914366D01*
X128850500Y-106049502D01*
X128870185Y-105982463D01*
X128922989Y-105936708D01*
X128937371Y-105931191D01*
X129093386Y-105882242D01*
X129426653Y-105739226D01*
X129743741Y-105563227D01*
X130041398Y-105356052D01*
X130316567Y-105119827D01*
X130566426Y-104856975D01*
X130788411Y-104570194D01*
X130980244Y-104262427D01*
X131139956Y-103936831D01*
X131265909Y-103596748D01*
X131356810Y-103245668D01*
X131411727Y-102887192D01*
X131430095Y-102525000D01*
X131411727Y-102162808D01*
X131356810Y-101804332D01*
X131265909Y-101453252D01*
X131265905Y-101453242D01*
X131139959Y-101113177D01*
X131139958Y-101113176D01*
X131139956Y-101113169D01*
X130980244Y-100787573D01*
X130788411Y-100479806D01*
X130566426Y-100193025D01*
X130316567Y-99930173D01*
X130154577Y-99791109D01*
X130041400Y-99693949D01*
X129743742Y-99486774D01*
X129743741Y-99486773D01*
X129426653Y-99310774D01*
X129426654Y-99310774D01*
X129426648Y-99310771D01*
X129093377Y-99167754D01*
X128937379Y-99118810D01*
X128879307Y-99079959D01*
X128851458Y-99015880D01*
X128850500Y-99000497D01*
X128850500Y-98078499D01*
X128850659Y-98072219D01*
X128854369Y-97999064D01*
X128843277Y-97926664D01*
X128842484Y-97920436D01*
X128841505Y-97910813D01*
X128835074Y-97847562D01*
X128834248Y-97844930D01*
X128830251Y-97832189D01*
X128825994Y-97813849D01*
X128823556Y-97797929D01*
X128798100Y-97729197D01*
X128796098Y-97723338D01*
X128774159Y-97653412D01*
X128766339Y-97639324D01*
X128758480Y-97622219D01*
X128752886Y-97607113D01*
X128714129Y-97544934D01*
X128710951Y-97539534D01*
X128707054Y-97532513D01*
X128675409Y-97475498D01*
X128664921Y-97463281D01*
X128653773Y-97448100D01*
X128653489Y-97447645D01*
X128645252Y-97434429D01*
X128594787Y-97381340D01*
X128590577Y-97376680D01*
X128542873Y-97321112D01*
X128542868Y-97321108D01*
X128542866Y-97321105D01*
X128530126Y-97311243D01*
X128516155Y-97298620D01*
X128505063Y-97286951D01*
X128505062Y-97286950D01*
X128505059Y-97286947D01*
X128444936Y-97245100D01*
X128439874Y-97241382D01*
X128381960Y-97196553D01*
X128381957Y-97196551D01*
X128367496Y-97189458D01*
X128351270Y-97179906D01*
X128338051Y-97170706D01*
X128338049Y-97170705D01*
X128270720Y-97141811D01*
X128265061Y-97139211D01*
X128199271Y-97106940D01*
X128199269Y-97106939D01*
X128183680Y-97102903D01*
X128165864Y-97096813D01*
X128151061Y-97090461D01*
X128151059Y-97090460D01*
X128151058Y-97090460D01*
X128079306Y-97075714D01*
X128073195Y-97074297D01*
X128066544Y-97072575D01*
X128002285Y-97055937D01*
X128002284Y-97055936D01*
X128002281Y-97055936D01*
X127986189Y-97055119D01*
X127967523Y-97052742D01*
X127951743Y-97049500D01*
X127951741Y-97049500D01*
X127878500Y-97049500D01*
X127872221Y-97049341D01*
X127799064Y-97045631D01*
X127799060Y-97045631D01*
X127783143Y-97048070D01*
X127764367Y-97049500D01*
X102878500Y-97049500D01*
X102872221Y-97049341D01*
X102841787Y-97047797D01*
X102799065Y-97045631D01*
X102799058Y-97045631D01*
X102726676Y-97056719D01*
X102720448Y-97057513D01*
X102647566Y-97064925D01*
X102647557Y-97064927D01*
X102632187Y-97069749D01*
X102613858Y-97074003D01*
X102597929Y-97076444D01*
X102597926Y-97076445D01*
X102529245Y-97101880D01*
X102523305Y-97103911D01*
X102453412Y-97125840D01*
X102439322Y-97133661D01*
X102422220Y-97141518D01*
X102407118Y-97147111D01*
X102407108Y-97147116D01*
X102344959Y-97185854D01*
X102339546Y-97189040D01*
X102275506Y-97224585D01*
X102275499Y-97224590D01*
X102263278Y-97235081D01*
X102248114Y-97246216D01*
X102234430Y-97254746D01*
X102234427Y-97254749D01*
X102181338Y-97305213D01*
X102176679Y-97309422D01*
X102121109Y-97357129D01*
X102121102Y-97357136D01*
X102111243Y-97369872D01*
X102098631Y-97383832D01*
X102086949Y-97394938D01*
X102086948Y-97394939D01*
X102045111Y-97455046D01*
X102041396Y-97460106D01*
X101996550Y-97518043D01*
X101989452Y-97532513D01*
X101979907Y-97548728D01*
X101970706Y-97561948D01*
X101970705Y-97561949D01*
X101941818Y-97629262D01*
X101939197Y-97634965D01*
X101906939Y-97700729D01*
X101906938Y-97700733D01*
X101902901Y-97716324D01*
X101896815Y-97734129D01*
X101890461Y-97748937D01*
X101875716Y-97820687D01*
X101874296Y-97826805D01*
X101855936Y-97897716D01*
X101855119Y-97913811D01*
X101852743Y-97932474D01*
X101849500Y-97948260D01*
X101849500Y-98021499D01*
X101849341Y-98027779D01*
X101845631Y-98100935D01*
X101845631Y-98100936D01*
X101848070Y-98116857D01*
X101849500Y-98135633D01*
X101849500Y-99000496D01*
X101829815Y-99067535D01*
X101777011Y-99113290D01*
X101762621Y-99118809D01*
X101606629Y-99167751D01*
X101606608Y-99167759D01*
X101273347Y-99310773D01*
X100956262Y-99486769D01*
X100956257Y-99486772D01*
X100658599Y-99693948D01*
X100383432Y-99930171D01*
X100133568Y-100193029D01*
X99911591Y-100479800D01*
X99719754Y-100787572D01*
X99560045Y-101113163D01*
X99560039Y-101113176D01*
X99434092Y-101453242D01*
X99343188Y-101804336D01*
X99288271Y-102162808D01*
X99269904Y-102525000D01*
X97480953Y-102525000D01*
X97535495Y-102157311D01*
X97555505Y-101750000D01*
X97535495Y-101342689D01*
X97475658Y-100939301D01*
X97376570Y-100543721D01*
X97239186Y-100159757D01*
X97064828Y-99791109D01*
X96855176Y-99441325D01*
X96612249Y-99113776D01*
X96611809Y-99113290D01*
X96338386Y-98811613D01*
X96036229Y-98537755D01*
X95980778Y-98496630D01*
X95708675Y-98294824D01*
X95358891Y-98085172D01*
X94990243Y-97910814D01*
X94990241Y-97910813D01*
X94606279Y-97773430D01*
X94210695Y-97674341D01*
X93807320Y-97614506D01*
X93807316Y-97614505D01*
X93807311Y-97614505D01*
X93400000Y-97594495D01*
X92992689Y-97614505D01*
X92992683Y-97614505D01*
X92992679Y-97614506D01*
X92589304Y-97674341D01*
X92193720Y-97773430D01*
X91809758Y-97910813D01*
X91809756Y-97910814D01*
X91441105Y-98085174D01*
X91091327Y-98294822D01*
X90763771Y-98537755D01*
X90707772Y-98588509D01*
X90644880Y-98618944D01*
X90575517Y-98610545D01*
X90521706Y-98565979D01*
X90500531Y-98499395D01*
X90500500Y-98496630D01*
X90500500Y-93648745D01*
X90492235Y-93580680D01*
X90464037Y-93348449D01*
X90391643Y-93054734D01*
X90391642Y-93054731D01*
X90391641Y-93054727D01*
X90284371Y-92771882D01*
X90143793Y-92504035D01*
X90143787Y-92504026D01*
X89971952Y-92255078D01*
X89971947Y-92255072D01*
X89771353Y-92028648D01*
X89771351Y-92028646D01*
X89544927Y-91828052D01*
X89544921Y-91828047D01*
X89295973Y-91656212D01*
X89295964Y-91656206D01*
X89028117Y-91515628D01*
X88745272Y-91408358D01*
X88629820Y-91379902D01*
X88451551Y-91335963D01*
X88271371Y-91314085D01*
X88151254Y-91299500D01*
X88151252Y-91299500D01*
X88101741Y-91299500D01*
X43092710Y-91299500D01*
X43000000Y-91299500D01*
X42848748Y-91299500D01*
X42848746Y-91299500D01*
X42698598Y-91317731D01*
X42548449Y-91335963D01*
X42429602Y-91365255D01*
X42254727Y-91408358D01*
X41971882Y-91515628D01*
X41704035Y-91656206D01*
X41704026Y-91656212D01*
X41455078Y-91828047D01*
X41455072Y-91828052D01*
X41228648Y-92028646D01*
X41228646Y-92028648D01*
X41028052Y-92255072D01*
X41028047Y-92255078D01*
X40856212Y-92504026D01*
X40856206Y-92504035D01*
X40715628Y-92771882D01*
X40608358Y-93054727D01*
X40571045Y-93206114D01*
X40535963Y-93348449D01*
X40524483Y-93442994D01*
X40499500Y-93648745D01*
X40499500Y-93695154D01*
X40498233Y-93708746D01*
X40498467Y-93708766D01*
X40497936Y-93715023D01*
X27000500Y-93715023D01*
X27000500Y-87624500D01*
X27020185Y-87557461D01*
X27072989Y-87511706D01*
X27124500Y-87500500D01*
X30902691Y-87500500D01*
X30969730Y-87520185D01*
G37*
%TD.AperFunction*%
%TD*%
M02*
