%TF.GenerationSoftware,KiCad,Pcbnew,7.0.10*%
%TF.CreationDate,2024-05-18T10:47:54+01:00*%
%TF.ProjectId,back,6261636b-2e6b-4696-9361-645f70636258,rev?*%
%TF.SameCoordinates,Original*%
%TF.FileFunction,Legend,Top*%
%TF.FilePolarity,Positive*%
%FSLAX46Y46*%
G04 Gerber Fmt 4.6, Leading zero omitted, Abs format (unit mm)*
G04 Created by KiCad (PCBNEW 7.0.10) date 2024-05-18 10:47:54*
%MOMM*%
%LPD*%
G01*
G04 APERTURE LIST*
%ADD10C,0.300000*%
%ADD11C,0.150000*%
G04 APERTURE END LIST*
D10*
X93726000Y-111400000D02*
X93726000Y-110800000D01*
X64000000Y-110200000D02*
X63700000Y-109700000D01*
X94226000Y-111700000D02*
X94226000Y-110500000D01*
X93326000Y-112100000D02*
X92326000Y-111500000D01*
X92026000Y-111500000D01*
X92026000Y-110600000D01*
X92326000Y-110600000D01*
X93326000Y-110000000D01*
X93326000Y-112100000D01*
X114089000Y-110300000D02*
X114089000Y-111900000D01*
X62900000Y-110200000D02*
X65100000Y-110200000D01*
X226822000Y-110176000D02*
X229870000Y-110176000D01*
X229870000Y-111827000D01*
X226822000Y-111827000D01*
X226822000Y-110176000D01*
X62900000Y-110200000D02*
X62900000Y-111800000D01*
X163311000Y-110376000D02*
X163311000Y-111773000D01*
X116889000Y-110084000D02*
X116889000Y-112116000D01*
X62900000Y-111800000D02*
X65100000Y-111800000D01*
X65100000Y-110200000D02*
X65100000Y-111800000D01*
X114089000Y-111900000D02*
X116289000Y-111900000D01*
X229235000Y-110303000D02*
X229235000Y-111700000D01*
X64000000Y-110200000D02*
X64300000Y-109700000D01*
X114089000Y-110300000D02*
X116289000Y-110300000D01*
X113489000Y-110084000D02*
X113489000Y-112116000D01*
X162676000Y-110249000D02*
X165724000Y-110249000D01*
X165724000Y-111900000D01*
X162676000Y-111900000D01*
X162676000Y-110249000D01*
X116289000Y-110300000D02*
X116289000Y-111900000D01*
X94726000Y-111900000D02*
X94726000Y-110300000D01*
D11*
X63309523Y-113654819D02*
X62976190Y-113178628D01*
X62738095Y-113654819D02*
X62738095Y-112654819D01*
X62738095Y-112654819D02*
X63119047Y-112654819D01*
X63119047Y-112654819D02*
X63214285Y-112702438D01*
X63214285Y-112702438D02*
X63261904Y-112750057D01*
X63261904Y-112750057D02*
X63309523Y-112845295D01*
X63309523Y-112845295D02*
X63309523Y-112988152D01*
X63309523Y-112988152D02*
X63261904Y-113083390D01*
X63261904Y-113083390D02*
X63214285Y-113131009D01*
X63214285Y-113131009D02*
X63119047Y-113178628D01*
X63119047Y-113178628D02*
X62738095Y-113178628D01*
X64261904Y-112702438D02*
X64166666Y-112654819D01*
X64166666Y-112654819D02*
X64023809Y-112654819D01*
X64023809Y-112654819D02*
X63880952Y-112702438D01*
X63880952Y-112702438D02*
X63785714Y-112797676D01*
X63785714Y-112797676D02*
X63738095Y-112892914D01*
X63738095Y-112892914D02*
X63690476Y-113083390D01*
X63690476Y-113083390D02*
X63690476Y-113226247D01*
X63690476Y-113226247D02*
X63738095Y-113416723D01*
X63738095Y-113416723D02*
X63785714Y-113511961D01*
X63785714Y-113511961D02*
X63880952Y-113607200D01*
X63880952Y-113607200D02*
X64023809Y-113654819D01*
X64023809Y-113654819D02*
X64119047Y-113654819D01*
X64119047Y-113654819D02*
X64261904Y-113607200D01*
X64261904Y-113607200D02*
X64309523Y-113559580D01*
X64309523Y-113559580D02*
X64309523Y-113226247D01*
X64309523Y-113226247D02*
X64119047Y-113226247D01*
X65071428Y-113131009D02*
X65214285Y-113178628D01*
X65214285Y-113178628D02*
X65261904Y-113226247D01*
X65261904Y-113226247D02*
X65309523Y-113321485D01*
X65309523Y-113321485D02*
X65309523Y-113464342D01*
X65309523Y-113464342D02*
X65261904Y-113559580D01*
X65261904Y-113559580D02*
X65214285Y-113607200D01*
X65214285Y-113607200D02*
X65119047Y-113654819D01*
X65119047Y-113654819D02*
X64738095Y-113654819D01*
X64738095Y-113654819D02*
X64738095Y-112654819D01*
X64738095Y-112654819D02*
X65071428Y-112654819D01*
X65071428Y-112654819D02*
X65166666Y-112702438D01*
X65166666Y-112702438D02*
X65214285Y-112750057D01*
X65214285Y-112750057D02*
X65261904Y-112845295D01*
X65261904Y-112845295D02*
X65261904Y-112940533D01*
X65261904Y-112940533D02*
X65214285Y-113035771D01*
X65214285Y-113035771D02*
X65166666Y-113083390D01*
X65166666Y-113083390D02*
X65071428Y-113131009D01*
X65071428Y-113131009D02*
X64738095Y-113131009D01*
X161847619Y-113607200D02*
X161990476Y-113654819D01*
X161990476Y-113654819D02*
X162228571Y-113654819D01*
X162228571Y-113654819D02*
X162323809Y-113607200D01*
X162323809Y-113607200D02*
X162371428Y-113559580D01*
X162371428Y-113559580D02*
X162419047Y-113464342D01*
X162419047Y-113464342D02*
X162419047Y-113369104D01*
X162419047Y-113369104D02*
X162371428Y-113273866D01*
X162371428Y-113273866D02*
X162323809Y-113226247D01*
X162323809Y-113226247D02*
X162228571Y-113178628D01*
X162228571Y-113178628D02*
X162038095Y-113131009D01*
X162038095Y-113131009D02*
X161942857Y-113083390D01*
X161942857Y-113083390D02*
X161895238Y-113035771D01*
X161895238Y-113035771D02*
X161847619Y-112940533D01*
X161847619Y-112940533D02*
X161847619Y-112845295D01*
X161847619Y-112845295D02*
X161895238Y-112750057D01*
X161895238Y-112750057D02*
X161942857Y-112702438D01*
X161942857Y-112702438D02*
X162038095Y-112654819D01*
X162038095Y-112654819D02*
X162276190Y-112654819D01*
X162276190Y-112654819D02*
X162419047Y-112702438D01*
X163323809Y-113654819D02*
X162847619Y-113654819D01*
X162847619Y-113654819D02*
X162847619Y-112654819D01*
X163847619Y-112654819D02*
X164038095Y-112654819D01*
X164038095Y-112654819D02*
X164133333Y-112702438D01*
X164133333Y-112702438D02*
X164228571Y-112797676D01*
X164228571Y-112797676D02*
X164276190Y-112988152D01*
X164276190Y-112988152D02*
X164276190Y-113321485D01*
X164276190Y-113321485D02*
X164228571Y-113511961D01*
X164228571Y-113511961D02*
X164133333Y-113607200D01*
X164133333Y-113607200D02*
X164038095Y-113654819D01*
X164038095Y-113654819D02*
X163847619Y-113654819D01*
X163847619Y-113654819D02*
X163752381Y-113607200D01*
X163752381Y-113607200D02*
X163657143Y-113511961D01*
X163657143Y-113511961D02*
X163609524Y-113321485D01*
X163609524Y-113321485D02*
X163609524Y-112988152D01*
X163609524Y-112988152D02*
X163657143Y-112797676D01*
X163657143Y-112797676D02*
X163752381Y-112702438D01*
X163752381Y-112702438D02*
X163847619Y-112654819D01*
X164561905Y-112654819D02*
X165133333Y-112654819D01*
X164847619Y-113654819D02*
X164847619Y-112654819D01*
X166180953Y-112750057D02*
X166228572Y-112702438D01*
X166228572Y-112702438D02*
X166323810Y-112654819D01*
X166323810Y-112654819D02*
X166561905Y-112654819D01*
X166561905Y-112654819D02*
X166657143Y-112702438D01*
X166657143Y-112702438D02*
X166704762Y-112750057D01*
X166704762Y-112750057D02*
X166752381Y-112845295D01*
X166752381Y-112845295D02*
X166752381Y-112940533D01*
X166752381Y-112940533D02*
X166704762Y-113083390D01*
X166704762Y-113083390D02*
X166133334Y-113654819D01*
X166133334Y-113654819D02*
X166752381Y-113654819D01*
X33557142Y-112654819D02*
X33080952Y-112654819D01*
X33080952Y-112654819D02*
X33033333Y-113131009D01*
X33033333Y-113131009D02*
X33080952Y-113083390D01*
X33080952Y-113083390D02*
X33176190Y-113035771D01*
X33176190Y-113035771D02*
X33414285Y-113035771D01*
X33414285Y-113035771D02*
X33509523Y-113083390D01*
X33509523Y-113083390D02*
X33557142Y-113131009D01*
X33557142Y-113131009D02*
X33604761Y-113226247D01*
X33604761Y-113226247D02*
X33604761Y-113464342D01*
X33604761Y-113464342D02*
X33557142Y-113559580D01*
X33557142Y-113559580D02*
X33509523Y-113607200D01*
X33509523Y-113607200D02*
X33414285Y-113654819D01*
X33414285Y-113654819D02*
X33176190Y-113654819D01*
X33176190Y-113654819D02*
X33080952Y-113607200D01*
X33080952Y-113607200D02*
X33033333Y-113559580D01*
X33938095Y-112988152D02*
X34176190Y-113654819D01*
X34176190Y-113654819D02*
X34414285Y-112988152D01*
X225847619Y-113607200D02*
X225990476Y-113654819D01*
X225990476Y-113654819D02*
X226228571Y-113654819D01*
X226228571Y-113654819D02*
X226323809Y-113607200D01*
X226323809Y-113607200D02*
X226371428Y-113559580D01*
X226371428Y-113559580D02*
X226419047Y-113464342D01*
X226419047Y-113464342D02*
X226419047Y-113369104D01*
X226419047Y-113369104D02*
X226371428Y-113273866D01*
X226371428Y-113273866D02*
X226323809Y-113226247D01*
X226323809Y-113226247D02*
X226228571Y-113178628D01*
X226228571Y-113178628D02*
X226038095Y-113131009D01*
X226038095Y-113131009D02*
X225942857Y-113083390D01*
X225942857Y-113083390D02*
X225895238Y-113035771D01*
X225895238Y-113035771D02*
X225847619Y-112940533D01*
X225847619Y-112940533D02*
X225847619Y-112845295D01*
X225847619Y-112845295D02*
X225895238Y-112750057D01*
X225895238Y-112750057D02*
X225942857Y-112702438D01*
X225942857Y-112702438D02*
X226038095Y-112654819D01*
X226038095Y-112654819D02*
X226276190Y-112654819D01*
X226276190Y-112654819D02*
X226419047Y-112702438D01*
X227323809Y-113654819D02*
X226847619Y-113654819D01*
X226847619Y-113654819D02*
X226847619Y-112654819D01*
X227847619Y-112654819D02*
X228038095Y-112654819D01*
X228038095Y-112654819D02*
X228133333Y-112702438D01*
X228133333Y-112702438D02*
X228228571Y-112797676D01*
X228228571Y-112797676D02*
X228276190Y-112988152D01*
X228276190Y-112988152D02*
X228276190Y-113321485D01*
X228276190Y-113321485D02*
X228228571Y-113511961D01*
X228228571Y-113511961D02*
X228133333Y-113607200D01*
X228133333Y-113607200D02*
X228038095Y-113654819D01*
X228038095Y-113654819D02*
X227847619Y-113654819D01*
X227847619Y-113654819D02*
X227752381Y-113607200D01*
X227752381Y-113607200D02*
X227657143Y-113511961D01*
X227657143Y-113511961D02*
X227609524Y-113321485D01*
X227609524Y-113321485D02*
X227609524Y-112988152D01*
X227609524Y-112988152D02*
X227657143Y-112797676D01*
X227657143Y-112797676D02*
X227752381Y-112702438D01*
X227752381Y-112702438D02*
X227847619Y-112654819D01*
X228561905Y-112654819D02*
X229133333Y-112654819D01*
X228847619Y-113654819D02*
X228847619Y-112654819D01*
X230752381Y-113654819D02*
X230180953Y-113654819D01*
X230466667Y-113654819D02*
X230466667Y-112654819D01*
X230466667Y-112654819D02*
X230371429Y-112797676D01*
X230371429Y-112797676D02*
X230276191Y-112892914D01*
X230276191Y-112892914D02*
X230180953Y-112940533D01*
X92495238Y-113654819D02*
X92019048Y-113654819D01*
X92019048Y-113654819D02*
X92019048Y-112654819D01*
X92828572Y-113654819D02*
X92828572Y-112654819D01*
X93304762Y-113654819D02*
X93304762Y-112654819D01*
X93304762Y-112654819D02*
X93876190Y-113654819D01*
X93876190Y-113654819D02*
X93876190Y-112654819D01*
X94352381Y-113131009D02*
X94685714Y-113131009D01*
X94828571Y-113654819D02*
X94352381Y-113654819D01*
X94352381Y-113654819D02*
X94352381Y-112654819D01*
X94352381Y-112654819D02*
X94828571Y-112654819D01*
X113938095Y-112654819D02*
X114271428Y-113654819D01*
X114271428Y-113654819D02*
X114604761Y-112654819D01*
X115461904Y-112702438D02*
X115366666Y-112654819D01*
X115366666Y-112654819D02*
X115223809Y-112654819D01*
X115223809Y-112654819D02*
X115080952Y-112702438D01*
X115080952Y-112702438D02*
X114985714Y-112797676D01*
X114985714Y-112797676D02*
X114938095Y-112892914D01*
X114938095Y-112892914D02*
X114890476Y-113083390D01*
X114890476Y-113083390D02*
X114890476Y-113226247D01*
X114890476Y-113226247D02*
X114938095Y-113416723D01*
X114938095Y-113416723D02*
X114985714Y-113511961D01*
X114985714Y-113511961D02*
X115080952Y-113607200D01*
X115080952Y-113607200D02*
X115223809Y-113654819D01*
X115223809Y-113654819D02*
X115319047Y-113654819D01*
X115319047Y-113654819D02*
X115461904Y-113607200D01*
X115461904Y-113607200D02*
X115509523Y-113559580D01*
X115509523Y-113559580D02*
X115509523Y-113226247D01*
X115509523Y-113226247D02*
X115319047Y-113226247D01*
X115890476Y-113369104D02*
X116366666Y-113369104D01*
X115795238Y-113654819D02*
X116128571Y-112654819D01*
X116128571Y-112654819D02*
X116461904Y-113654819D01*
%TO.C,REF\u002A\u002A*%
G36*
X30887500Y-111212500D02*
G01*
X29762500Y-111212500D01*
X29762500Y-110987500D01*
X30887500Y-110987500D01*
X30887500Y-111212500D01*
G37*
G36*
X32649999Y-111212500D02*
G01*
X31375000Y-111212500D01*
X31375000Y-110987500D01*
X32649999Y-110987500D01*
X32649999Y-111212500D01*
G37*
G36*
X35987500Y-111212500D02*
G01*
X34037499Y-111212500D01*
X34037499Y-110987500D01*
X35987500Y-110987500D01*
X35987500Y-111212500D01*
G37*
G36*
X37187500Y-111662500D02*
G01*
X36962500Y-111662500D01*
X36962500Y-110537500D01*
X37187500Y-110537500D01*
X37187500Y-111662500D01*
G37*
G36*
X37637500Y-111212500D02*
G01*
X36512500Y-111212500D01*
X36512500Y-110987500D01*
X37637500Y-110987500D01*
X37637500Y-111212500D01*
G37*
G36*
X33726886Y-110575661D02*
G01*
X33754090Y-110577625D01*
X33780830Y-110580862D01*
X33807080Y-110585345D01*
X33832808Y-110591043D01*
X33857987Y-110597930D01*
X33882586Y-110605974D01*
X33906578Y-110615148D01*
X33929932Y-110625424D01*
X33952620Y-110636771D01*
X33974612Y-110649161D01*
X33995880Y-110662565D01*
X34016395Y-110676955D01*
X34036126Y-110692302D01*
X34055046Y-110708577D01*
X34073124Y-110725750D01*
X34090333Y-110743794D01*
X34106642Y-110762678D01*
X34122023Y-110782376D01*
X34136447Y-110802856D01*
X34149884Y-110824092D01*
X34162305Y-110846054D01*
X34173681Y-110868712D01*
X34183984Y-110892039D01*
X34193183Y-110916005D01*
X34201251Y-110940582D01*
X34208157Y-110965741D01*
X34213872Y-110991452D01*
X34218369Y-111017688D01*
X34221616Y-111044418D01*
X34223586Y-111071615D01*
X34224249Y-111099250D01*
X34223586Y-111126887D01*
X34221616Y-111154090D01*
X34218369Y-111180831D01*
X34213872Y-111207080D01*
X34208157Y-111232808D01*
X34201251Y-111257987D01*
X34193183Y-111282587D01*
X34183984Y-111306578D01*
X34173681Y-111329932D01*
X34162305Y-111352620D01*
X34149884Y-111374613D01*
X34136447Y-111395881D01*
X34122023Y-111416395D01*
X34106642Y-111436127D01*
X34090333Y-111455046D01*
X34073124Y-111473125D01*
X34055046Y-111490333D01*
X34036126Y-111506643D01*
X34016395Y-111522024D01*
X33995880Y-111536447D01*
X33974612Y-111549884D01*
X33952620Y-111562305D01*
X33929932Y-111573682D01*
X33906578Y-111583984D01*
X33882586Y-111593184D01*
X33857987Y-111601251D01*
X33832808Y-111608157D01*
X33807080Y-111613873D01*
X33780830Y-111618369D01*
X33754090Y-111621617D01*
X33726886Y-111623587D01*
X33699250Y-111624250D01*
X33671615Y-111623587D01*
X33644418Y-111621617D01*
X33617687Y-111618369D01*
X33591452Y-111613873D01*
X33565740Y-111608157D01*
X33540582Y-111601251D01*
X33516005Y-111593184D01*
X33492039Y-111583984D01*
X33468712Y-111573682D01*
X33446053Y-111562305D01*
X33424092Y-111549884D01*
X33402856Y-111536447D01*
X33382375Y-111522024D01*
X33362678Y-111506643D01*
X33343793Y-111490333D01*
X33325750Y-111473125D01*
X33308576Y-111455046D01*
X33292302Y-111436127D01*
X33276955Y-111416395D01*
X33262565Y-111395881D01*
X33249160Y-111374613D01*
X33236770Y-111352620D01*
X33225423Y-111329932D01*
X33215148Y-111306578D01*
X33205974Y-111282587D01*
X33197929Y-111257987D01*
X33191043Y-111232808D01*
X33185344Y-111207080D01*
X33180862Y-111180831D01*
X33177624Y-111154090D01*
X33175660Y-111126887D01*
X33174999Y-111099250D01*
X33175660Y-111071615D01*
X33177624Y-111044418D01*
X33180862Y-111017688D01*
X33185344Y-110991452D01*
X33191043Y-110965741D01*
X33197929Y-110940582D01*
X33205974Y-110916005D01*
X33215148Y-110892039D01*
X33225423Y-110868712D01*
X33236770Y-110846054D01*
X33249160Y-110824092D01*
X33262565Y-110802856D01*
X33276955Y-110782376D01*
X33292302Y-110762678D01*
X33308576Y-110743794D01*
X33325750Y-110725750D01*
X33343793Y-110708577D01*
X33362678Y-110692302D01*
X33382375Y-110676955D01*
X33402856Y-110662565D01*
X33424092Y-110649161D01*
X33446053Y-110636771D01*
X33468712Y-110625424D01*
X33492039Y-110615148D01*
X33516005Y-110605974D01*
X33540582Y-110597930D01*
X33565740Y-110591043D01*
X33591452Y-110585345D01*
X33617687Y-110580862D01*
X33644418Y-110577625D01*
X33671615Y-110575661D01*
X33699250Y-110575000D01*
X33726886Y-110575661D01*
G37*
G36*
X33775750Y-109978750D02*
G01*
X33831249Y-109984000D01*
X33886750Y-109992250D01*
X33941500Y-110002750D01*
X33995500Y-110015500D01*
X34048750Y-110032000D01*
X34101249Y-110051500D01*
X34152999Y-110072500D01*
X34204000Y-110095750D01*
X34252750Y-110122000D01*
X34300750Y-110150500D01*
X34347250Y-110182000D01*
X34392250Y-110215000D01*
X34435000Y-110250250D01*
X34476249Y-110287750D01*
X34516000Y-110327500D01*
X34553500Y-110368750D01*
X34588749Y-110411500D01*
X34621749Y-110456500D01*
X34420749Y-110596750D01*
X34395999Y-110561500D01*
X34368250Y-110527750D01*
X34339000Y-110495500D01*
X34308249Y-110464000D01*
X34275249Y-110434750D01*
X34241500Y-110407000D01*
X34206249Y-110381500D01*
X34170250Y-110356750D01*
X34132750Y-110334250D01*
X34093749Y-110314000D01*
X34054750Y-110294500D01*
X34014250Y-110278000D01*
X33973000Y-110263750D01*
X33931000Y-110251000D01*
X33888250Y-110240500D01*
X33845500Y-110232250D01*
X33801999Y-110226250D01*
X33758500Y-110222500D01*
X33714999Y-110220250D01*
X33671500Y-110221000D01*
X33627250Y-110223250D01*
X33583749Y-110227750D01*
X33541000Y-110234500D01*
X33498250Y-110243500D01*
X33455500Y-110254750D01*
X33414250Y-110268250D01*
X33373000Y-110283250D01*
X33333249Y-110299750D01*
X33293500Y-110318500D01*
X33255249Y-110340250D01*
X33217749Y-110362750D01*
X33181749Y-110387500D01*
X33147250Y-110414500D01*
X33114250Y-110442250D01*
X33082000Y-110472250D01*
X33051999Y-110503750D01*
X33022750Y-110536750D01*
X32995000Y-110571250D01*
X32969500Y-110606500D01*
X32946249Y-110643250D01*
X32924499Y-110681500D01*
X32904250Y-110720500D01*
X32886250Y-110760250D01*
X32870500Y-110800750D01*
X32857000Y-110842750D01*
X32845000Y-110884750D01*
X32835250Y-110927500D01*
X32827750Y-110970250D01*
X32822500Y-111013750D01*
X32818749Y-111057250D01*
X32818000Y-111100750D01*
X32818749Y-111145000D01*
X32822500Y-111188500D01*
X32827750Y-111232000D01*
X32835250Y-111274750D01*
X32845000Y-111317500D01*
X32857000Y-111359500D01*
X32870500Y-111400750D01*
X32886999Y-111442000D01*
X32904250Y-111481750D01*
X32924499Y-111520750D01*
X32946249Y-111558250D01*
X32969500Y-111595000D01*
X32995000Y-111631000D01*
X33022000Y-111664750D01*
X33050499Y-111697750D01*
X33081249Y-111729250D01*
X33112750Y-111759250D01*
X33146500Y-111787750D01*
X33181000Y-111814000D01*
X33217000Y-111838750D01*
X33254500Y-111862000D01*
X33292749Y-111883000D01*
X33331749Y-111901750D01*
X33372250Y-111919750D01*
X33412750Y-111935500D01*
X33454750Y-111948250D01*
X33496749Y-111959500D01*
X33539499Y-111968500D01*
X33583000Y-111975250D01*
X33626499Y-111979750D01*
X33670000Y-111982000D01*
X33714250Y-111982750D01*
X33757749Y-111980500D01*
X33801250Y-111976750D01*
X33844749Y-111970750D01*
X33887499Y-111962500D01*
X33929500Y-111952000D01*
X33971500Y-111939250D01*
X34012749Y-111925000D01*
X34053249Y-111907750D01*
X34092999Y-111890500D01*
X34131249Y-111869500D01*
X34169500Y-111847000D01*
X34205499Y-111823000D01*
X34240749Y-111796750D01*
X34274500Y-111769000D01*
X34306750Y-111739750D01*
X34337499Y-111709000D01*
X34366749Y-111676750D01*
X34394500Y-111642250D01*
X34421500Y-111607750D01*
X34620250Y-111746500D01*
X34586499Y-111791500D01*
X34551249Y-111835000D01*
X34513749Y-111876250D01*
X34474750Y-111916000D01*
X34433499Y-111952750D01*
X34390000Y-111988750D01*
X34344999Y-112021750D01*
X34298500Y-112052500D01*
X34251249Y-112081000D01*
X34201750Y-112107250D01*
X34151500Y-112131250D01*
X34099750Y-112152250D01*
X34047250Y-112170250D01*
X33993249Y-112186000D01*
X33939250Y-112198750D01*
X33884500Y-112209250D01*
X33829000Y-112217500D01*
X33773499Y-112222750D01*
X33718000Y-112225000D01*
X33662499Y-112224250D01*
X33606249Y-112221250D01*
X33551499Y-112215250D01*
X33496000Y-112206250D01*
X33441250Y-112195000D01*
X33387250Y-112180750D01*
X33334000Y-112163500D01*
X33282249Y-112144000D01*
X33230500Y-112122250D01*
X33181000Y-112097500D01*
X33131500Y-112070500D01*
X33084249Y-112041250D01*
X33038499Y-112009750D01*
X32994249Y-111976000D01*
X32951499Y-111939250D01*
X32911000Y-111901750D01*
X32872000Y-111861250D01*
X32835250Y-111819250D01*
X32800750Y-111775750D01*
X32768500Y-111730000D01*
X32738499Y-111683500D01*
X32711500Y-111634750D01*
X32686000Y-111585250D01*
X32662750Y-111534250D01*
X32642500Y-111482500D01*
X32625250Y-111428500D01*
X32610250Y-111375250D01*
X32597500Y-111320500D01*
X32588499Y-111265750D01*
X32581000Y-111210250D01*
X32577250Y-111154750D01*
X32575750Y-111099250D01*
X32577250Y-111043000D01*
X32581000Y-110987500D01*
X32588499Y-110932000D01*
X32598250Y-110877250D01*
X32610250Y-110823250D01*
X32625250Y-110769250D01*
X32643249Y-110716750D01*
X32663499Y-110665000D01*
X32686000Y-110614000D01*
X32711500Y-110564500D01*
X32739999Y-110516500D01*
X32770000Y-110469250D01*
X32802250Y-110423500D01*
X32837499Y-110380000D01*
X32874250Y-110338000D01*
X32912499Y-110298250D01*
X32953750Y-110260000D01*
X32995749Y-110224000D01*
X33040750Y-110190250D01*
X33086499Y-110158750D01*
X33133749Y-110129500D01*
X33182500Y-110102500D01*
X33232749Y-110077750D01*
X33283749Y-110056000D01*
X33336250Y-110036500D01*
X33389499Y-110020750D01*
X33443500Y-110006500D01*
X33498250Y-109995250D01*
X33552999Y-109986250D01*
X33608500Y-109980250D01*
X33664750Y-109977250D01*
X33720249Y-109976500D01*
X33775750Y-109978750D01*
G37*
G36*
X30384316Y-109976418D02*
G01*
X30442691Y-109980630D01*
X30500063Y-109987576D01*
X30556372Y-109997192D01*
X30611554Y-110009418D01*
X30665548Y-110024191D01*
X30718293Y-110041450D01*
X30769726Y-110061133D01*
X30819786Y-110083178D01*
X30868411Y-110107523D01*
X30915539Y-110134106D01*
X30961108Y-110162866D01*
X31005057Y-110193741D01*
X31047323Y-110226669D01*
X31087846Y-110261589D01*
X31126562Y-110298437D01*
X31163411Y-110337154D01*
X31198330Y-110377676D01*
X31231258Y-110419943D01*
X31262133Y-110463892D01*
X31290894Y-110509461D01*
X31317477Y-110556589D01*
X31341822Y-110605214D01*
X31363867Y-110655273D01*
X31383549Y-110706707D01*
X31400808Y-110759451D01*
X31415581Y-110813446D01*
X31427807Y-110868628D01*
X31437424Y-110924936D01*
X31444369Y-110982309D01*
X31448582Y-111040684D01*
X31450000Y-111100000D01*
X31448582Y-111159316D01*
X31444369Y-111217691D01*
X31437424Y-111275064D01*
X31427807Y-111331372D01*
X31415581Y-111386554D01*
X31400808Y-111440549D01*
X31383549Y-111493293D01*
X31363867Y-111544727D01*
X31341822Y-111594786D01*
X31317477Y-111643411D01*
X31290894Y-111690539D01*
X31262133Y-111736108D01*
X31231258Y-111780057D01*
X31198330Y-111822324D01*
X31163411Y-111862846D01*
X31126562Y-111901563D01*
X31087846Y-111938411D01*
X31047323Y-111973331D01*
X31005057Y-112006259D01*
X30961108Y-112037134D01*
X30915539Y-112065894D01*
X30868411Y-112092477D01*
X30819786Y-112116822D01*
X30769726Y-112138867D01*
X30718293Y-112158550D01*
X30665548Y-112175809D01*
X30611554Y-112190582D01*
X30556372Y-112202808D01*
X30500063Y-112212424D01*
X30442691Y-112219370D01*
X30384316Y-112223582D01*
X30325000Y-112225000D01*
X30265684Y-112223582D01*
X30207309Y-112219370D01*
X30149936Y-112212424D01*
X30093628Y-112202808D01*
X30038445Y-112190582D01*
X29984451Y-112175809D01*
X29931706Y-112158550D01*
X29880273Y-112138867D01*
X29830213Y-112116822D01*
X29781588Y-112092477D01*
X29734461Y-112065894D01*
X29688891Y-112037134D01*
X29644943Y-112006259D01*
X29602676Y-111973331D01*
X29562154Y-111938411D01*
X29523437Y-111901563D01*
X29486588Y-111862846D01*
X29451669Y-111822324D01*
X29418741Y-111780057D01*
X29387866Y-111736108D01*
X29359106Y-111690539D01*
X29332522Y-111643411D01*
X29308177Y-111594786D01*
X29286133Y-111544727D01*
X29266450Y-111493293D01*
X29249191Y-111440549D01*
X29234418Y-111386554D01*
X29222192Y-111331372D01*
X29212576Y-111275064D01*
X29205630Y-111217691D01*
X29201418Y-111159316D01*
X29200000Y-111100000D01*
X29200018Y-111099250D01*
X29446750Y-111099250D01*
X29447856Y-111145516D01*
X29451141Y-111191049D01*
X29456559Y-111235800D01*
X29464060Y-111279720D01*
X29473596Y-111322762D01*
X29485119Y-111364878D01*
X29498581Y-111406019D01*
X29513933Y-111446137D01*
X29531128Y-111485183D01*
X29550117Y-111523111D01*
X29570852Y-111559870D01*
X29593285Y-111595414D01*
X29617368Y-111629694D01*
X29643052Y-111662662D01*
X29670289Y-111694270D01*
X29699031Y-111724469D01*
X29729230Y-111753211D01*
X29760837Y-111780448D01*
X29793805Y-111806132D01*
X29828085Y-111830214D01*
X29863629Y-111852647D01*
X29900389Y-111873382D01*
X29938316Y-111892371D01*
X29977363Y-111909566D01*
X30017481Y-111924919D01*
X30058622Y-111938381D01*
X30100737Y-111949904D01*
X30143779Y-111959440D01*
X30187700Y-111966941D01*
X30232451Y-111972358D01*
X30277983Y-111975644D01*
X30324250Y-111976750D01*
X30370516Y-111975644D01*
X30416049Y-111972358D01*
X30460799Y-111966941D01*
X30504720Y-111959440D01*
X30547762Y-111949904D01*
X30589878Y-111938381D01*
X30631018Y-111924919D01*
X30671136Y-111909566D01*
X30710183Y-111892371D01*
X30748110Y-111873382D01*
X30784870Y-111852647D01*
X30820414Y-111830214D01*
X30854694Y-111806132D01*
X30887662Y-111780448D01*
X30919270Y-111753211D01*
X30949468Y-111724469D01*
X30978210Y-111694270D01*
X31005448Y-111662662D01*
X31031131Y-111629694D01*
X31055214Y-111595414D01*
X31077647Y-111559870D01*
X31098382Y-111523111D01*
X31117371Y-111485183D01*
X31134566Y-111446137D01*
X31149919Y-111406019D01*
X31163380Y-111364878D01*
X31174903Y-111322762D01*
X31184440Y-111279720D01*
X31191940Y-111235800D01*
X31197358Y-111191049D01*
X31200644Y-111145516D01*
X31201750Y-111099250D01*
X31200644Y-111052984D01*
X31197358Y-111007451D01*
X31191940Y-110962700D01*
X31184440Y-110918780D01*
X31174903Y-110875738D01*
X31163380Y-110833622D01*
X31149919Y-110792481D01*
X31134566Y-110752363D01*
X31117371Y-110713317D01*
X31098382Y-110675389D01*
X31077647Y-110638629D01*
X31055214Y-110603085D01*
X31031131Y-110568805D01*
X31005448Y-110535838D01*
X30978210Y-110504230D01*
X30949468Y-110474031D01*
X30919270Y-110445289D01*
X30887662Y-110418052D01*
X30854694Y-110392368D01*
X30820414Y-110368286D01*
X30784870Y-110345853D01*
X30748110Y-110325118D01*
X30710183Y-110306128D01*
X30671136Y-110288934D01*
X30631018Y-110273581D01*
X30589878Y-110260119D01*
X30547762Y-110248596D01*
X30504720Y-110239060D01*
X30460799Y-110231559D01*
X30416049Y-110226142D01*
X30370516Y-110222856D01*
X30324250Y-110221750D01*
X30277983Y-110222856D01*
X30232451Y-110226142D01*
X30187700Y-110231559D01*
X30143779Y-110239060D01*
X30100737Y-110248596D01*
X30058622Y-110260119D01*
X30017481Y-110273581D01*
X29977363Y-110288934D01*
X29938316Y-110306128D01*
X29900389Y-110325118D01*
X29863629Y-110345853D01*
X29828085Y-110368286D01*
X29793805Y-110392368D01*
X29760837Y-110418052D01*
X29729230Y-110445289D01*
X29699031Y-110474031D01*
X29670289Y-110504230D01*
X29643052Y-110535838D01*
X29617368Y-110568805D01*
X29593285Y-110603085D01*
X29570852Y-110638629D01*
X29550117Y-110675389D01*
X29531128Y-110713317D01*
X29513933Y-110752363D01*
X29498581Y-110792481D01*
X29485119Y-110833622D01*
X29473596Y-110875738D01*
X29464060Y-110918780D01*
X29456559Y-110962700D01*
X29451141Y-111007451D01*
X29447856Y-111052984D01*
X29446750Y-111099250D01*
X29200018Y-111099250D01*
X29201418Y-111040684D01*
X29205630Y-110982309D01*
X29212576Y-110924936D01*
X29222192Y-110868628D01*
X29234418Y-110813446D01*
X29249191Y-110759451D01*
X29266450Y-110706707D01*
X29286133Y-110655273D01*
X29308177Y-110605214D01*
X29332522Y-110556589D01*
X29359106Y-110509461D01*
X29387866Y-110463892D01*
X29418741Y-110419943D01*
X29451669Y-110377676D01*
X29486588Y-110337154D01*
X29523437Y-110298437D01*
X29562154Y-110261589D01*
X29602676Y-110226669D01*
X29644943Y-110193741D01*
X29688891Y-110162866D01*
X29734461Y-110134106D01*
X29781588Y-110107523D01*
X29830213Y-110083178D01*
X29880273Y-110061133D01*
X29931706Y-110041450D01*
X29984451Y-110024191D01*
X30038445Y-110009418D01*
X30093628Y-109997192D01*
X30149936Y-109987576D01*
X30207309Y-109980630D01*
X30265684Y-109976418D01*
X30325000Y-109975000D01*
X30384316Y-109976418D01*
G37*
G36*
X37134316Y-109976418D02*
G01*
X37192691Y-109980630D01*
X37250064Y-109987576D01*
X37306372Y-109997192D01*
X37361554Y-110009418D01*
X37415549Y-110024191D01*
X37468293Y-110041450D01*
X37519727Y-110061133D01*
X37569786Y-110083178D01*
X37618411Y-110107523D01*
X37665539Y-110134106D01*
X37711108Y-110162866D01*
X37755057Y-110193741D01*
X37797324Y-110226669D01*
X37837846Y-110261589D01*
X37876563Y-110298437D01*
X37913411Y-110337154D01*
X37948331Y-110377676D01*
X37981259Y-110419943D01*
X38012134Y-110463892D01*
X38040894Y-110509461D01*
X38067477Y-110556589D01*
X38091822Y-110605214D01*
X38113867Y-110655273D01*
X38133550Y-110706707D01*
X38150809Y-110759451D01*
X38165582Y-110813446D01*
X38177808Y-110868628D01*
X38187424Y-110924936D01*
X38194370Y-110982309D01*
X38198582Y-111040684D01*
X38200000Y-111100000D01*
X38198582Y-111159316D01*
X38194370Y-111217691D01*
X38187424Y-111275064D01*
X38177808Y-111331372D01*
X38165582Y-111386554D01*
X38150809Y-111440549D01*
X38133550Y-111493293D01*
X38113867Y-111544727D01*
X38091822Y-111594786D01*
X38067477Y-111643411D01*
X38040894Y-111690539D01*
X38012134Y-111736108D01*
X37981259Y-111780057D01*
X37948331Y-111822324D01*
X37913411Y-111862846D01*
X37876563Y-111901563D01*
X37837846Y-111938411D01*
X37797324Y-111973331D01*
X37755057Y-112006259D01*
X37711108Y-112037134D01*
X37665539Y-112065894D01*
X37618411Y-112092477D01*
X37569786Y-112116822D01*
X37519727Y-112138867D01*
X37468293Y-112158550D01*
X37415549Y-112175809D01*
X37361554Y-112190582D01*
X37306372Y-112202808D01*
X37250064Y-112212424D01*
X37192691Y-112219370D01*
X37134316Y-112223582D01*
X37075000Y-112225000D01*
X37015684Y-112223582D01*
X36957309Y-112219370D01*
X36899936Y-112212424D01*
X36843628Y-112202808D01*
X36788446Y-112190582D01*
X36734451Y-112175809D01*
X36681707Y-112158550D01*
X36630273Y-112138867D01*
X36580214Y-112116822D01*
X36531589Y-112092477D01*
X36484461Y-112065894D01*
X36438892Y-112037134D01*
X36394943Y-112006259D01*
X36352676Y-111973331D01*
X36312154Y-111938411D01*
X36273437Y-111901563D01*
X36236589Y-111862846D01*
X36201669Y-111822324D01*
X36168741Y-111780057D01*
X36137866Y-111736108D01*
X36109106Y-111690539D01*
X36082523Y-111643411D01*
X36058178Y-111594786D01*
X36036133Y-111544727D01*
X36016450Y-111493293D01*
X35999191Y-111440549D01*
X35984418Y-111386554D01*
X35972192Y-111331372D01*
X35962576Y-111275064D01*
X35955630Y-111217691D01*
X35951418Y-111159316D01*
X35950000Y-111100000D01*
X35950018Y-111099250D01*
X36196750Y-111099250D01*
X36197856Y-111145516D01*
X36201142Y-111191049D01*
X36206559Y-111235800D01*
X36214060Y-111279720D01*
X36223596Y-111322762D01*
X36235119Y-111364878D01*
X36248581Y-111406019D01*
X36263934Y-111446137D01*
X36281129Y-111485183D01*
X36300118Y-111523111D01*
X36320853Y-111559870D01*
X36343286Y-111595414D01*
X36367368Y-111629694D01*
X36393052Y-111662662D01*
X36420289Y-111694270D01*
X36449031Y-111724469D01*
X36479230Y-111753211D01*
X36510838Y-111780448D01*
X36543805Y-111806132D01*
X36578085Y-111830214D01*
X36613629Y-111852647D01*
X36650389Y-111873382D01*
X36688317Y-111892371D01*
X36727363Y-111909566D01*
X36767481Y-111924919D01*
X36808622Y-111938381D01*
X36850738Y-111949904D01*
X36893780Y-111959440D01*
X36937700Y-111966941D01*
X36982451Y-111972358D01*
X37027983Y-111975644D01*
X37074250Y-111976750D01*
X37120516Y-111975644D01*
X37166049Y-111972358D01*
X37210799Y-111966941D01*
X37254720Y-111959440D01*
X37297762Y-111949904D01*
X37339878Y-111938381D01*
X37381019Y-111924919D01*
X37421136Y-111909566D01*
X37460183Y-111892371D01*
X37498110Y-111873382D01*
X37534870Y-111852647D01*
X37570414Y-111830214D01*
X37604694Y-111806132D01*
X37637662Y-111780448D01*
X37669270Y-111753211D01*
X37699468Y-111724469D01*
X37728210Y-111694270D01*
X37755448Y-111662662D01*
X37781131Y-111629694D01*
X37805214Y-111595414D01*
X37827647Y-111559870D01*
X37848382Y-111523111D01*
X37867371Y-111485183D01*
X37884566Y-111446137D01*
X37899919Y-111406019D01*
X37913380Y-111364878D01*
X37924903Y-111322762D01*
X37934440Y-111279720D01*
X37941940Y-111235800D01*
X37947358Y-111191049D01*
X37950644Y-111145516D01*
X37951750Y-111099250D01*
X37950644Y-111052984D01*
X37947358Y-111007451D01*
X37941940Y-110962700D01*
X37934440Y-110918780D01*
X37924903Y-110875738D01*
X37913380Y-110833622D01*
X37899919Y-110792481D01*
X37884566Y-110752363D01*
X37867371Y-110713317D01*
X37848382Y-110675389D01*
X37827647Y-110638629D01*
X37805214Y-110603085D01*
X37781131Y-110568805D01*
X37755448Y-110535838D01*
X37728210Y-110504230D01*
X37699468Y-110474031D01*
X37669270Y-110445289D01*
X37637662Y-110418052D01*
X37604694Y-110392368D01*
X37570414Y-110368286D01*
X37534870Y-110345853D01*
X37498110Y-110325118D01*
X37460183Y-110306128D01*
X37421136Y-110288934D01*
X37381019Y-110273581D01*
X37339878Y-110260119D01*
X37297762Y-110248596D01*
X37254720Y-110239060D01*
X37210799Y-110231559D01*
X37166049Y-110226142D01*
X37120516Y-110222856D01*
X37074250Y-110221750D01*
X37027983Y-110222856D01*
X36982451Y-110226142D01*
X36937700Y-110231559D01*
X36893780Y-110239060D01*
X36850738Y-110248596D01*
X36808622Y-110260119D01*
X36767481Y-110273581D01*
X36727363Y-110288934D01*
X36688317Y-110306128D01*
X36650389Y-110325118D01*
X36613629Y-110345853D01*
X36578085Y-110368286D01*
X36543805Y-110392368D01*
X36510838Y-110418052D01*
X36479230Y-110445289D01*
X36449031Y-110474031D01*
X36420289Y-110504230D01*
X36393052Y-110535838D01*
X36367368Y-110568805D01*
X36343286Y-110603085D01*
X36320853Y-110638629D01*
X36300118Y-110675389D01*
X36281129Y-110713317D01*
X36263934Y-110752363D01*
X36248581Y-110792481D01*
X36235119Y-110833622D01*
X36223596Y-110875738D01*
X36214060Y-110918780D01*
X36206559Y-110962700D01*
X36201142Y-111007451D01*
X36197856Y-111052984D01*
X36196750Y-111099250D01*
X35950018Y-111099250D01*
X35951418Y-111040684D01*
X35955630Y-110982309D01*
X35962576Y-110924936D01*
X35972192Y-110868628D01*
X35984418Y-110813446D01*
X35999191Y-110759451D01*
X36016450Y-110706707D01*
X36036133Y-110655273D01*
X36058178Y-110605214D01*
X36082523Y-110556589D01*
X36109106Y-110509461D01*
X36137866Y-110463892D01*
X36168741Y-110419943D01*
X36201669Y-110377676D01*
X36236589Y-110337154D01*
X36273437Y-110298437D01*
X36312154Y-110261589D01*
X36352676Y-110226669D01*
X36394943Y-110193741D01*
X36438892Y-110162866D01*
X36484461Y-110134106D01*
X36531589Y-110107523D01*
X36580214Y-110083178D01*
X36630273Y-110061133D01*
X36681707Y-110041450D01*
X36734451Y-110024191D01*
X36788446Y-110009418D01*
X36843628Y-109997192D01*
X36899936Y-109987576D01*
X36957309Y-109980630D01*
X37015684Y-109976418D01*
X37075000Y-109975000D01*
X37134316Y-109976418D01*
G37*
%TD*%
M02*
