%TF.GenerationSoftware,KiCad,Pcbnew,7.0.10*%
%TF.CreationDate,2024-04-26T10:18:49+01:00*%
%TF.ProjectId,back,6261636b-2e6b-4696-9361-645f70636258,rev?*%
%TF.SameCoordinates,Original*%
%TF.FileFunction,Legend,Top*%
%TF.FilePolarity,Positive*%
%FSLAX46Y46*%
G04 Gerber Fmt 4.6, Leading zero omitted, Abs format (unit mm)*
G04 Created by KiCad (PCBNEW 7.0.10) date 2024-04-26 10:18:49*
%MOMM*%
%LPD*%
G01*
G04 APERTURE LIST*
%ADD10C,0.400000*%
%ADD11C,0.150000*%
G04 APERTURE END LIST*
D10*
X112501190Y-110254438D02*
X113167856Y-112254438D01*
X113167856Y-112254438D02*
X113834523Y-110254438D01*
X115548809Y-110349676D02*
X115358333Y-110254438D01*
X115358333Y-110254438D02*
X115072619Y-110254438D01*
X115072619Y-110254438D02*
X114786904Y-110349676D01*
X114786904Y-110349676D02*
X114596428Y-110540152D01*
X114596428Y-110540152D02*
X114501190Y-110730628D01*
X114501190Y-110730628D02*
X114405952Y-111111580D01*
X114405952Y-111111580D02*
X114405952Y-111397295D01*
X114405952Y-111397295D02*
X114501190Y-111778247D01*
X114501190Y-111778247D02*
X114596428Y-111968723D01*
X114596428Y-111968723D02*
X114786904Y-112159200D01*
X114786904Y-112159200D02*
X115072619Y-112254438D01*
X115072619Y-112254438D02*
X115263095Y-112254438D01*
X115263095Y-112254438D02*
X115548809Y-112159200D01*
X115548809Y-112159200D02*
X115644047Y-112063961D01*
X115644047Y-112063961D02*
X115644047Y-111397295D01*
X115644047Y-111397295D02*
X115263095Y-111397295D01*
X116405952Y-111683009D02*
X117358333Y-111683009D01*
X116215476Y-112254438D02*
X116882142Y-110254438D01*
X116882142Y-110254438D02*
X117548809Y-112254438D01*
X33644047Y-110254438D02*
X32691666Y-110254438D01*
X32691666Y-110254438D02*
X32596428Y-111206819D01*
X32596428Y-111206819D02*
X32691666Y-111111580D01*
X32691666Y-111111580D02*
X32882142Y-111016342D01*
X32882142Y-111016342D02*
X33358333Y-111016342D01*
X33358333Y-111016342D02*
X33548809Y-111111580D01*
X33548809Y-111111580D02*
X33644047Y-111206819D01*
X33644047Y-111206819D02*
X33739285Y-111397295D01*
X33739285Y-111397295D02*
X33739285Y-111873485D01*
X33739285Y-111873485D02*
X33644047Y-112063961D01*
X33644047Y-112063961D02*
X33548809Y-112159200D01*
X33548809Y-112159200D02*
X33358333Y-112254438D01*
X33358333Y-112254438D02*
X32882142Y-112254438D01*
X32882142Y-112254438D02*
X32691666Y-112159200D01*
X32691666Y-112159200D02*
X32596428Y-112063961D01*
X34310714Y-110254438D02*
X34977380Y-112254438D01*
X34977380Y-112254438D02*
X35644047Y-110254438D01*
X59834523Y-112159200D02*
X60120237Y-112254438D01*
X60120237Y-112254438D02*
X60596428Y-112254438D01*
X60596428Y-112254438D02*
X60786904Y-112159200D01*
X60786904Y-112159200D02*
X60882142Y-112063961D01*
X60882142Y-112063961D02*
X60977380Y-111873485D01*
X60977380Y-111873485D02*
X60977380Y-111683009D01*
X60977380Y-111683009D02*
X60882142Y-111492533D01*
X60882142Y-111492533D02*
X60786904Y-111397295D01*
X60786904Y-111397295D02*
X60596428Y-111302057D01*
X60596428Y-111302057D02*
X60215475Y-111206819D01*
X60215475Y-111206819D02*
X60024999Y-111111580D01*
X60024999Y-111111580D02*
X59929761Y-111016342D01*
X59929761Y-111016342D02*
X59834523Y-110825866D01*
X59834523Y-110825866D02*
X59834523Y-110635390D01*
X59834523Y-110635390D02*
X59929761Y-110444914D01*
X59929761Y-110444914D02*
X60024999Y-110349676D01*
X60024999Y-110349676D02*
X60215475Y-110254438D01*
X60215475Y-110254438D02*
X60691666Y-110254438D01*
X60691666Y-110254438D02*
X60977380Y-110349676D01*
X62977380Y-112063961D02*
X62882142Y-112159200D01*
X62882142Y-112159200D02*
X62596428Y-112254438D01*
X62596428Y-112254438D02*
X62405952Y-112254438D01*
X62405952Y-112254438D02*
X62120237Y-112159200D01*
X62120237Y-112159200D02*
X61929761Y-111968723D01*
X61929761Y-111968723D02*
X61834523Y-111778247D01*
X61834523Y-111778247D02*
X61739285Y-111397295D01*
X61739285Y-111397295D02*
X61739285Y-111111580D01*
X61739285Y-111111580D02*
X61834523Y-110730628D01*
X61834523Y-110730628D02*
X61929761Y-110540152D01*
X61929761Y-110540152D02*
X62120237Y-110349676D01*
X62120237Y-110349676D02*
X62405952Y-110254438D01*
X62405952Y-110254438D02*
X62596428Y-110254438D01*
X62596428Y-110254438D02*
X62882142Y-110349676D01*
X62882142Y-110349676D02*
X62977380Y-110444914D01*
X63739285Y-111683009D02*
X64691666Y-111683009D01*
X63548809Y-112254438D02*
X64215475Y-110254438D01*
X64215475Y-110254438D02*
X64882142Y-112254438D01*
X66691666Y-112254438D02*
X66024999Y-111302057D01*
X65548809Y-112254438D02*
X65548809Y-110254438D01*
X65548809Y-110254438D02*
X66310714Y-110254438D01*
X66310714Y-110254438D02*
X66501190Y-110349676D01*
X66501190Y-110349676D02*
X66596428Y-110444914D01*
X66596428Y-110444914D02*
X66691666Y-110635390D01*
X66691666Y-110635390D02*
X66691666Y-110921104D01*
X66691666Y-110921104D02*
X66596428Y-111111580D01*
X66596428Y-111111580D02*
X66501190Y-111206819D01*
X66501190Y-111206819D02*
X66310714Y-111302057D01*
X66310714Y-111302057D02*
X65548809Y-111302057D01*
X67263095Y-110254438D02*
X68405952Y-110254438D01*
X67834523Y-112254438D02*
X67834523Y-110254438D01*
X155929761Y-112063961D02*
X155834523Y-112159200D01*
X155834523Y-112159200D02*
X155548809Y-112254438D01*
X155548809Y-112254438D02*
X155358333Y-112254438D01*
X155358333Y-112254438D02*
X155072618Y-112159200D01*
X155072618Y-112159200D02*
X154882142Y-111968723D01*
X154882142Y-111968723D02*
X154786904Y-111778247D01*
X154786904Y-111778247D02*
X154691666Y-111397295D01*
X154691666Y-111397295D02*
X154691666Y-111111580D01*
X154691666Y-111111580D02*
X154786904Y-110730628D01*
X154786904Y-110730628D02*
X154882142Y-110540152D01*
X154882142Y-110540152D02*
X155072618Y-110349676D01*
X155072618Y-110349676D02*
X155358333Y-110254438D01*
X155358333Y-110254438D02*
X155548809Y-110254438D01*
X155548809Y-110254438D02*
X155834523Y-110349676D01*
X155834523Y-110349676D02*
X155929761Y-110444914D01*
X156691666Y-111683009D02*
X157644047Y-111683009D01*
X156501190Y-112254438D02*
X157167856Y-110254438D01*
X157167856Y-110254438D02*
X157834523Y-112254438D01*
X159644047Y-112254438D02*
X158977380Y-111302057D01*
X158501190Y-112254438D02*
X158501190Y-110254438D01*
X158501190Y-110254438D02*
X159263095Y-110254438D01*
X159263095Y-110254438D02*
X159453571Y-110349676D01*
X159453571Y-110349676D02*
X159548809Y-110444914D01*
X159548809Y-110444914D02*
X159644047Y-110635390D01*
X159644047Y-110635390D02*
X159644047Y-110921104D01*
X159644047Y-110921104D02*
X159548809Y-111111580D01*
X159548809Y-111111580D02*
X159453571Y-111206819D01*
X159453571Y-111206819D02*
X159263095Y-111302057D01*
X159263095Y-111302057D02*
X158501190Y-111302057D01*
X160215476Y-110254438D02*
X161358333Y-110254438D01*
X160786904Y-112254438D02*
X160786904Y-110254438D01*
X163167857Y-112254438D02*
X162501190Y-111302057D01*
X162025000Y-112254438D02*
X162025000Y-110254438D01*
X162025000Y-110254438D02*
X162786905Y-110254438D01*
X162786905Y-110254438D02*
X162977381Y-110349676D01*
X162977381Y-110349676D02*
X163072619Y-110444914D01*
X163072619Y-110444914D02*
X163167857Y-110635390D01*
X163167857Y-110635390D02*
X163167857Y-110921104D01*
X163167857Y-110921104D02*
X163072619Y-111111580D01*
X163072619Y-111111580D02*
X162977381Y-111206819D01*
X162977381Y-111206819D02*
X162786905Y-111302057D01*
X162786905Y-111302057D02*
X162025000Y-111302057D01*
X164025000Y-112254438D02*
X164025000Y-110254438D01*
X164977381Y-112254438D02*
X164977381Y-110254438D01*
X164977381Y-110254438D02*
X165453571Y-110254438D01*
X165453571Y-110254438D02*
X165739286Y-110349676D01*
X165739286Y-110349676D02*
X165929762Y-110540152D01*
X165929762Y-110540152D02*
X166025000Y-110730628D01*
X166025000Y-110730628D02*
X166120238Y-111111580D01*
X166120238Y-111111580D02*
X166120238Y-111397295D01*
X166120238Y-111397295D02*
X166025000Y-111778247D01*
X166025000Y-111778247D02*
X165929762Y-111968723D01*
X165929762Y-111968723D02*
X165739286Y-112159200D01*
X165739286Y-112159200D02*
X165453571Y-112254438D01*
X165453571Y-112254438D02*
X164977381Y-112254438D01*
X168025000Y-110349676D02*
X167834524Y-110254438D01*
X167834524Y-110254438D02*
X167548810Y-110254438D01*
X167548810Y-110254438D02*
X167263095Y-110349676D01*
X167263095Y-110349676D02*
X167072619Y-110540152D01*
X167072619Y-110540152D02*
X166977381Y-110730628D01*
X166977381Y-110730628D02*
X166882143Y-111111580D01*
X166882143Y-111111580D02*
X166882143Y-111397295D01*
X166882143Y-111397295D02*
X166977381Y-111778247D01*
X166977381Y-111778247D02*
X167072619Y-111968723D01*
X167072619Y-111968723D02*
X167263095Y-112159200D01*
X167263095Y-112159200D02*
X167548810Y-112254438D01*
X167548810Y-112254438D02*
X167739286Y-112254438D01*
X167739286Y-112254438D02*
X168025000Y-112159200D01*
X168025000Y-112159200D02*
X168120238Y-112063961D01*
X168120238Y-112063961D02*
X168120238Y-111397295D01*
X168120238Y-111397295D02*
X167739286Y-111397295D01*
X168977381Y-111206819D02*
X169644048Y-111206819D01*
X169929762Y-112254438D02*
X168977381Y-112254438D01*
X168977381Y-112254438D02*
X168977381Y-110254438D01*
X168977381Y-110254438D02*
X169929762Y-110254438D01*
X172215477Y-110444914D02*
X172310715Y-110349676D01*
X172310715Y-110349676D02*
X172501191Y-110254438D01*
X172501191Y-110254438D02*
X172977382Y-110254438D01*
X172977382Y-110254438D02*
X173167858Y-110349676D01*
X173167858Y-110349676D02*
X173263096Y-110444914D01*
X173263096Y-110444914D02*
X173358334Y-110635390D01*
X173358334Y-110635390D02*
X173358334Y-110825866D01*
X173358334Y-110825866D02*
X173263096Y-111111580D01*
X173263096Y-111111580D02*
X172120239Y-112254438D01*
X172120239Y-112254438D02*
X173358334Y-112254438D01*
X219929761Y-112063961D02*
X219834523Y-112159200D01*
X219834523Y-112159200D02*
X219548809Y-112254438D01*
X219548809Y-112254438D02*
X219358333Y-112254438D01*
X219358333Y-112254438D02*
X219072618Y-112159200D01*
X219072618Y-112159200D02*
X218882142Y-111968723D01*
X218882142Y-111968723D02*
X218786904Y-111778247D01*
X218786904Y-111778247D02*
X218691666Y-111397295D01*
X218691666Y-111397295D02*
X218691666Y-111111580D01*
X218691666Y-111111580D02*
X218786904Y-110730628D01*
X218786904Y-110730628D02*
X218882142Y-110540152D01*
X218882142Y-110540152D02*
X219072618Y-110349676D01*
X219072618Y-110349676D02*
X219358333Y-110254438D01*
X219358333Y-110254438D02*
X219548809Y-110254438D01*
X219548809Y-110254438D02*
X219834523Y-110349676D01*
X219834523Y-110349676D02*
X219929761Y-110444914D01*
X220691666Y-111683009D02*
X221644047Y-111683009D01*
X220501190Y-112254438D02*
X221167856Y-110254438D01*
X221167856Y-110254438D02*
X221834523Y-112254438D01*
X223644047Y-112254438D02*
X222977380Y-111302057D01*
X222501190Y-112254438D02*
X222501190Y-110254438D01*
X222501190Y-110254438D02*
X223263095Y-110254438D01*
X223263095Y-110254438D02*
X223453571Y-110349676D01*
X223453571Y-110349676D02*
X223548809Y-110444914D01*
X223548809Y-110444914D02*
X223644047Y-110635390D01*
X223644047Y-110635390D02*
X223644047Y-110921104D01*
X223644047Y-110921104D02*
X223548809Y-111111580D01*
X223548809Y-111111580D02*
X223453571Y-111206819D01*
X223453571Y-111206819D02*
X223263095Y-111302057D01*
X223263095Y-111302057D02*
X222501190Y-111302057D01*
X224215476Y-110254438D02*
X225358333Y-110254438D01*
X224786904Y-112254438D02*
X224786904Y-110254438D01*
X227167857Y-112254438D02*
X226501190Y-111302057D01*
X226025000Y-112254438D02*
X226025000Y-110254438D01*
X226025000Y-110254438D02*
X226786905Y-110254438D01*
X226786905Y-110254438D02*
X226977381Y-110349676D01*
X226977381Y-110349676D02*
X227072619Y-110444914D01*
X227072619Y-110444914D02*
X227167857Y-110635390D01*
X227167857Y-110635390D02*
X227167857Y-110921104D01*
X227167857Y-110921104D02*
X227072619Y-111111580D01*
X227072619Y-111111580D02*
X226977381Y-111206819D01*
X226977381Y-111206819D02*
X226786905Y-111302057D01*
X226786905Y-111302057D02*
X226025000Y-111302057D01*
X228025000Y-112254438D02*
X228025000Y-110254438D01*
X228977381Y-112254438D02*
X228977381Y-110254438D01*
X228977381Y-110254438D02*
X229453571Y-110254438D01*
X229453571Y-110254438D02*
X229739286Y-110349676D01*
X229739286Y-110349676D02*
X229929762Y-110540152D01*
X229929762Y-110540152D02*
X230025000Y-110730628D01*
X230025000Y-110730628D02*
X230120238Y-111111580D01*
X230120238Y-111111580D02*
X230120238Y-111397295D01*
X230120238Y-111397295D02*
X230025000Y-111778247D01*
X230025000Y-111778247D02*
X229929762Y-111968723D01*
X229929762Y-111968723D02*
X229739286Y-112159200D01*
X229739286Y-112159200D02*
X229453571Y-112254438D01*
X229453571Y-112254438D02*
X228977381Y-112254438D01*
X232025000Y-110349676D02*
X231834524Y-110254438D01*
X231834524Y-110254438D02*
X231548810Y-110254438D01*
X231548810Y-110254438D02*
X231263095Y-110349676D01*
X231263095Y-110349676D02*
X231072619Y-110540152D01*
X231072619Y-110540152D02*
X230977381Y-110730628D01*
X230977381Y-110730628D02*
X230882143Y-111111580D01*
X230882143Y-111111580D02*
X230882143Y-111397295D01*
X230882143Y-111397295D02*
X230977381Y-111778247D01*
X230977381Y-111778247D02*
X231072619Y-111968723D01*
X231072619Y-111968723D02*
X231263095Y-112159200D01*
X231263095Y-112159200D02*
X231548810Y-112254438D01*
X231548810Y-112254438D02*
X231739286Y-112254438D01*
X231739286Y-112254438D02*
X232025000Y-112159200D01*
X232025000Y-112159200D02*
X232120238Y-112063961D01*
X232120238Y-112063961D02*
X232120238Y-111397295D01*
X232120238Y-111397295D02*
X231739286Y-111397295D01*
X232977381Y-111206819D02*
X233644048Y-111206819D01*
X233929762Y-112254438D02*
X232977381Y-112254438D01*
X232977381Y-112254438D02*
X232977381Y-110254438D01*
X232977381Y-110254438D02*
X233929762Y-110254438D01*
X237358334Y-112254438D02*
X236215477Y-112254438D01*
X236786905Y-112254438D02*
X236786905Y-110254438D01*
X236786905Y-110254438D02*
X236596429Y-110540152D01*
X236596429Y-110540152D02*
X236405953Y-110730628D01*
X236405953Y-110730628D02*
X236215477Y-110825866D01*
X90973809Y-111683009D02*
X91926190Y-111683009D01*
X90783333Y-112254438D02*
X91449999Y-110254438D01*
X91449999Y-110254438D02*
X92116666Y-112254438D01*
X92783333Y-110254438D02*
X92783333Y-111873485D01*
X92783333Y-111873485D02*
X92878571Y-112063961D01*
X92878571Y-112063961D02*
X92973809Y-112159200D01*
X92973809Y-112159200D02*
X93164285Y-112254438D01*
X93164285Y-112254438D02*
X93545238Y-112254438D01*
X93545238Y-112254438D02*
X93735714Y-112159200D01*
X93735714Y-112159200D02*
X93830952Y-112063961D01*
X93830952Y-112063961D02*
X93926190Y-111873485D01*
X93926190Y-111873485D02*
X93926190Y-110254438D01*
X94688095Y-110254438D02*
X96021428Y-112254438D01*
X96021428Y-110254438D02*
X94688095Y-112254438D01*
D11*
X255838095Y-85754819D02*
X255838095Y-84754819D01*
X255838095Y-85231009D02*
X256409523Y-85231009D01*
X256409523Y-85754819D02*
X256409523Y-84754819D01*
X256838095Y-84850057D02*
X256885714Y-84802438D01*
X256885714Y-84802438D02*
X256980952Y-84754819D01*
X256980952Y-84754819D02*
X257219047Y-84754819D01*
X257219047Y-84754819D02*
X257314285Y-84802438D01*
X257314285Y-84802438D02*
X257361904Y-84850057D01*
X257361904Y-84850057D02*
X257409523Y-84945295D01*
X257409523Y-84945295D02*
X257409523Y-85040533D01*
X257409523Y-85040533D02*
X257361904Y-85183390D01*
X257361904Y-85183390D02*
X256790476Y-85754819D01*
X256790476Y-85754819D02*
X257409523Y-85754819D01*
X31838095Y-85754819D02*
X31838095Y-84754819D01*
X31838095Y-85231009D02*
X32409523Y-85231009D01*
X32409523Y-85754819D02*
X32409523Y-84754819D01*
X33409523Y-85754819D02*
X32838095Y-85754819D01*
X33123809Y-85754819D02*
X33123809Y-84754819D01*
X33123809Y-84754819D02*
X33028571Y-84897676D01*
X33028571Y-84897676D02*
X32933333Y-84992914D01*
X32933333Y-84992914D02*
X32838095Y-85040533D01*
M02*
