%TF.GenerationSoftware,KiCad,Pcbnew,7.0.10*%
%TF.CreationDate,2024-05-18T10:40:10+01:00*%
%TF.ProjectId,v1c,7631632e-6b69-4636-9164-5f7063625858,rev?*%
%TF.SameCoordinates,Original*%
%TF.FileFunction,Soldermask,Top*%
%TF.FilePolarity,Negative*%
%FSLAX46Y46*%
G04 Gerber Fmt 4.6, Leading zero omitted, Abs format (unit mm)*
G04 Created by KiCad (PCBNEW 7.0.10) date 2024-05-18 10:40:10*
%MOMM*%
%LPD*%
G01*
G04 APERTURE LIST*
G04 Aperture macros list*
%AMRoundRect*
0 Rectangle with rounded corners*
0 $1 Rounding radius*
0 $2 $3 $4 $5 $6 $7 $8 $9 X,Y pos of 4 corners*
0 Add a 4 corners polygon primitive as box body*
4,1,4,$2,$3,$4,$5,$6,$7,$8,$9,$2,$3,0*
0 Add four circle primitives for the rounded corners*
1,1,$1+$1,$2,$3*
1,1,$1+$1,$4,$5*
1,1,$1+$1,$6,$7*
1,1,$1+$1,$8,$9*
0 Add four rect primitives between the rounded corners*
20,1,$1+$1,$2,$3,$4,$5,0*
20,1,$1+$1,$4,$5,$6,$7,0*
20,1,$1+$1,$6,$7,$8,$9,0*
20,1,$1+$1,$8,$9,$2,$3,0*%
G04 Aperture macros list end*
%ADD10C,1.600000*%
%ADD11R,1.600000X1.600000*%
%ADD12O,1.600000X1.600000*%
%ADD13R,1.422400X1.422400*%
%ADD14C,1.422400*%
%ADD15R,1.600000X2.400000*%
%ADD16O,1.600000X2.400000*%
%ADD17R,3.500000X3.500000*%
%ADD18RoundRect,0.750000X-1.000000X0.750000X-1.000000X-0.750000X1.000000X-0.750000X1.000000X0.750000X0*%
%ADD19RoundRect,0.875000X-0.875000X0.875000X-0.875000X-0.875000X0.875000X-0.875000X0.875000X0.875000X0*%
%ADD20C,4.000000*%
%ADD21C,1.400000*%
%ADD22O,1.400000X1.400000*%
%ADD23R,1.200000X1.200000*%
%ADD24C,1.200000*%
%ADD25R,1.500000X1.500000*%
%ADD26O,1.500000X1.500000*%
%ADD27C,5.500000*%
%ADD28C,2.100000*%
%ADD29C,1.750000*%
%ADD30R,1.700000X1.700000*%
%ADD31O,1.700000X1.700000*%
%ADD32O,2.000000X1.000000*%
%ADD33O,2.700000X2.000000*%
%ADD34R,2.000000X2.000000*%
%ADD35C,1.998980*%
%ADD36R,1.800000X1.800000*%
%ADD37C,1.800000*%
%ADD38C,1.700000*%
%ADD39O,2.700000X1.500000*%
%ADD40C,1.500000*%
G04 APERTURE END LIST*
D10*
%TO.C,Cd11*%
X101600000Y-126365000D03*
X101600000Y-128865000D03*
%TD*%
D11*
%TO.C,U20*%
X237633000Y-116325000D03*
D12*
X240173000Y-116325000D03*
X242713000Y-116325000D03*
X245253000Y-116325000D03*
X247793000Y-116325000D03*
X250333000Y-116325000D03*
X252873000Y-116325000D03*
X255413000Y-116325000D03*
X257953000Y-116325000D03*
X260493000Y-116325000D03*
X263033000Y-116325000D03*
X265573000Y-116325000D03*
X265573000Y-101085000D03*
X263033000Y-101085000D03*
X260493000Y-101085000D03*
X257953000Y-101085000D03*
X255413000Y-101085000D03*
X252873000Y-101085000D03*
X250333000Y-101085000D03*
X247793000Y-101085000D03*
X245253000Y-101085000D03*
X242713000Y-101085000D03*
X240173000Y-101085000D03*
X237633000Y-101085000D03*
%TD*%
D13*
%TO.C,U5*%
X108743000Y-89000000D03*
D14*
X106203000Y-91540000D03*
X108743000Y-91540000D03*
X106203000Y-94080000D03*
X108743000Y-96620000D03*
X108743000Y-94080000D03*
X111283000Y-96620000D03*
X111283000Y-94080000D03*
X113823000Y-96620000D03*
X113823000Y-94080000D03*
X116363000Y-96620000D03*
X116363000Y-94080000D03*
X118903000Y-96620000D03*
X121443000Y-94080000D03*
X118903000Y-94080000D03*
X121443000Y-91540000D03*
X118903000Y-91540000D03*
X121443000Y-89000000D03*
X118903000Y-89000000D03*
X121443000Y-86460000D03*
X118903000Y-83920000D03*
X118903000Y-86460000D03*
X116363000Y-83920000D03*
X116363000Y-86460000D03*
X113823000Y-83920000D03*
X113823000Y-86460000D03*
X111283000Y-83920000D03*
X111283000Y-86460000D03*
X108743000Y-83920000D03*
X106203000Y-86460000D03*
X108743000Y-86460000D03*
X106203000Y-89000000D03*
%TD*%
D10*
%TO.C,Cd4*%
X129540000Y-101600000D03*
X132040000Y-101600000D03*
%TD*%
%TO.C,C5*%
X243500000Y-63819000D03*
X243500000Y-61319000D03*
%TD*%
%TO.C,Cd28*%
X213528000Y-79612000D03*
X216028000Y-79612000D03*
%TD*%
D15*
%TO.C,U19*%
X240030000Y-76300000D03*
D16*
X242570000Y-76300000D03*
X245110000Y-76300000D03*
X247650000Y-76300000D03*
X250190000Y-76300000D03*
X252730000Y-76300000D03*
X255270000Y-76300000D03*
X257810000Y-76300000D03*
X257810000Y-68680000D03*
X255270000Y-68680000D03*
X252730000Y-68680000D03*
X250190000Y-68680000D03*
X247650000Y-68680000D03*
X245110000Y-68680000D03*
X242570000Y-68680000D03*
X240030000Y-68680000D03*
%TD*%
D17*
%TO.C,J3*%
X267857500Y-51300000D03*
D18*
X267857500Y-45300000D03*
D19*
X263157500Y-48300000D03*
%TD*%
D20*
%TO.C,J7*%
X198890000Y-51181000D03*
X173890000Y-51181000D03*
D11*
X182075000Y-52601000D03*
D10*
X184365000Y-52601000D03*
X186655000Y-52601000D03*
X188945000Y-52601000D03*
X191235000Y-52601000D03*
X180930000Y-50621000D03*
X183220000Y-50621000D03*
X185510000Y-50621000D03*
X187800000Y-50621000D03*
X190090000Y-50621000D03*
X182075000Y-48641000D03*
X184365000Y-48641000D03*
X186655000Y-48641000D03*
X188945000Y-48641000D03*
X191235000Y-48641000D03*
%TD*%
D21*
%TO.C,R25*%
X236007000Y-57270000D03*
D22*
X236007000Y-59170000D03*
%TD*%
D21*
%TO.C,R10*%
X93980000Y-78105000D03*
D22*
X101600000Y-78105000D03*
%TD*%
D15*
%TO.C,U18*%
X240030000Y-90407000D03*
D16*
X242570000Y-90407000D03*
X245110000Y-90407000D03*
X247650000Y-90407000D03*
X250190000Y-90407000D03*
X252730000Y-90407000D03*
X255270000Y-90407000D03*
X257810000Y-90407000D03*
X257810000Y-82787000D03*
X255270000Y-82787000D03*
X252730000Y-82787000D03*
X250190000Y-82787000D03*
X247650000Y-82787000D03*
X245110000Y-82787000D03*
X242570000Y-82787000D03*
X240030000Y-82787000D03*
%TD*%
D10*
%TO.C,Cd32*%
X210353000Y-127237000D03*
X210353000Y-129737000D03*
%TD*%
D21*
%TO.C,R7*%
X45720000Y-84455000D03*
D22*
X45720000Y-76835000D03*
%TD*%
D23*
%TO.C,C1*%
X51100000Y-69577400D03*
D24*
X51100000Y-71077400D03*
%TD*%
D21*
%TO.C,R11*%
X93980000Y-75565000D03*
D22*
X101600000Y-75565000D03*
%TD*%
D21*
%TO.C,R16*%
X195240000Y-64372000D03*
D22*
X195240000Y-56752000D03*
%TD*%
D21*
%TO.C,R24*%
X233721000Y-57270000D03*
D22*
X233721000Y-59170000D03*
%TD*%
D11*
%TO.C,RN2*%
X155098000Y-131047000D03*
D12*
X157638000Y-131047000D03*
X160178000Y-131047000D03*
X162718000Y-131047000D03*
X165258000Y-131047000D03*
X167798000Y-131047000D03*
X170338000Y-131047000D03*
X172878000Y-131047000D03*
X175418000Y-131047000D03*
%TD*%
D21*
%TO.C,R9*%
X93980000Y-80645000D03*
D22*
X101600000Y-80645000D03*
%TD*%
D25*
%TO.C,D4*%
X66208000Y-94852000D03*
D26*
X66208000Y-102472000D03*
%TD*%
D27*
%TO.C,H2*%
X45000000Y-135000000D03*
%TD*%
D15*
%TO.C,U3*%
X104775000Y-134222000D03*
D16*
X107315000Y-134222000D03*
X109855000Y-134222000D03*
X112395000Y-134222000D03*
X114935000Y-134222000D03*
X117475000Y-134222000D03*
X120015000Y-134222000D03*
X122555000Y-134222000D03*
X122555000Y-126602000D03*
X120015000Y-126602000D03*
X117475000Y-126602000D03*
X114935000Y-126602000D03*
X112395000Y-126602000D03*
X109855000Y-126602000D03*
X107315000Y-126602000D03*
X104775000Y-126602000D03*
%TD*%
D15*
%TO.C,U16*%
X213493000Y-134857000D03*
D16*
X216033000Y-134857000D03*
X218573000Y-134857000D03*
X221113000Y-134857000D03*
X223653000Y-134857000D03*
X226193000Y-134857000D03*
X228733000Y-134857000D03*
X231273000Y-134857000D03*
X231273000Y-127237000D03*
X228733000Y-127237000D03*
X226193000Y-127237000D03*
X223653000Y-127237000D03*
X221113000Y-127237000D03*
X218573000Y-127237000D03*
X216033000Y-127237000D03*
X213493000Y-127237000D03*
%TD*%
D21*
%TO.C,R39*%
X167808000Y-57387000D03*
D22*
X175428000Y-57387000D03*
%TD*%
D21*
%TO.C,R34*%
X248326000Y-57387000D03*
D22*
X248326000Y-59287000D03*
%TD*%
D10*
%TO.C,C3*%
X43180000Y-76855000D03*
X43180000Y-79355000D03*
%TD*%
D15*
%TO.C,U7*%
X160655000Y-76200000D03*
D16*
X163195000Y-76200000D03*
X165735000Y-76200000D03*
X168275000Y-76200000D03*
X170815000Y-76200000D03*
X173355000Y-76200000D03*
X175895000Y-76200000D03*
X178435000Y-76200000D03*
X178435000Y-68580000D03*
X175895000Y-68580000D03*
X173355000Y-68580000D03*
X170815000Y-68580000D03*
X168275000Y-68580000D03*
X165735000Y-68580000D03*
X163195000Y-68580000D03*
X160655000Y-68580000D03*
%TD*%
D21*
%TO.C,R2*%
X101600000Y-85725000D03*
D22*
X93980000Y-85725000D03*
%TD*%
D28*
%TO.C,SW1*%
X45466000Y-74422000D03*
X45466000Y-67412000D03*
D29*
X42976000Y-73172000D03*
X42976000Y-68672000D03*
%TD*%
D15*
%TO.C,U2*%
X44450000Y-101065000D03*
D16*
X46990000Y-101065000D03*
X49530000Y-101065000D03*
X52070000Y-101065000D03*
X54610000Y-101065000D03*
X57150000Y-101065000D03*
X59690000Y-101065000D03*
X59690000Y-93445000D03*
X57150000Y-93445000D03*
X54610000Y-93445000D03*
X52070000Y-93445000D03*
X49530000Y-93445000D03*
X46990000Y-93445000D03*
X44450000Y-93445000D03*
%TD*%
D21*
%TO.C,R22*%
X238293000Y-61202000D03*
D22*
X238293000Y-63102000D03*
%TD*%
D21*
%TO.C,R5*%
X50800000Y-76835000D03*
D22*
X50800000Y-84455000D03*
%TD*%
D30*
%TO.C,J2*%
X157638000Y-135255000D03*
D31*
X160178000Y-135255000D03*
X162718000Y-135255000D03*
X165258000Y-135255000D03*
X167798000Y-135255000D03*
X170338000Y-135255000D03*
X172878000Y-135255000D03*
X175418000Y-135255000D03*
%TD*%
D21*
%TO.C,R15*%
X191684000Y-64372000D03*
D22*
X191684000Y-56752000D03*
%TD*%
D21*
%TO.C,R6*%
X53340000Y-76835000D03*
D22*
X53340000Y-84455000D03*
%TD*%
D21*
%TO.C,R32*%
X252898000Y-57408000D03*
D22*
X252898000Y-59308000D03*
%TD*%
D32*
%TO.C,SW2*%
X272155000Y-80310000D03*
X272155000Y-67010000D03*
D33*
X262255000Y-78510000D03*
X262255000Y-73710000D03*
X262255000Y-69010000D03*
%TD*%
D21*
%TO.C,R38*%
X266700000Y-91440000D03*
D22*
X266700000Y-83820000D03*
%TD*%
D10*
%TO.C,Cd27*%
X42672000Y-90367000D03*
X42672000Y-87867000D03*
%TD*%
D21*
%TO.C,R21*%
X236007000Y-61202000D03*
D22*
X236007000Y-63102000D03*
%TD*%
D10*
%TO.C,Cd1*%
X180508000Y-115172000D03*
X178008000Y-115172000D03*
%TD*%
D21*
%TO.C,R3*%
X58166000Y-130412000D03*
D22*
X58166000Y-138032000D03*
%TD*%
D15*
%TO.C,U15*%
X184308000Y-76300000D03*
D16*
X186848000Y-76300000D03*
X189388000Y-76300000D03*
X191928000Y-76300000D03*
X194468000Y-76300000D03*
X197008000Y-76300000D03*
X199548000Y-76300000D03*
X202088000Y-76300000D03*
X204628000Y-76300000D03*
X207168000Y-76300000D03*
X207168000Y-68680000D03*
X204628000Y-68680000D03*
X202088000Y-68680000D03*
X199548000Y-68680000D03*
X197008000Y-68680000D03*
X194468000Y-68680000D03*
X191928000Y-68680000D03*
X189388000Y-68680000D03*
X186848000Y-68680000D03*
X184308000Y-68680000D03*
%TD*%
D10*
%TO.C,Cd15*%
X41910000Y-107315000D03*
X41910000Y-109815000D03*
%TD*%
%TO.C,Cd30*%
X213528000Y-65642000D03*
X216028000Y-65642000D03*
%TD*%
D15*
%TO.C,U17*%
X240813000Y-134710000D03*
D16*
X243353000Y-134710000D03*
X245893000Y-134710000D03*
X248433000Y-134710000D03*
X250973000Y-134710000D03*
X253513000Y-134710000D03*
X256053000Y-134710000D03*
X258593000Y-134710000D03*
X258593000Y-127090000D03*
X256053000Y-127090000D03*
X253513000Y-127090000D03*
X250973000Y-127090000D03*
X248433000Y-127090000D03*
X245893000Y-127090000D03*
X243353000Y-127090000D03*
X240813000Y-127090000D03*
%TD*%
D10*
%TO.C,C2*%
X43180000Y-84415000D03*
X43180000Y-81915000D03*
%TD*%
%TO.C,Cd9*%
X213528000Y-93582000D03*
X216028000Y-93582000D03*
%TD*%
%TO.C,Cd29*%
X160695000Y-65405000D03*
X163195000Y-65405000D03*
%TD*%
D21*
%TO.C,R1*%
X55880000Y-130412000D03*
D22*
X55880000Y-138032000D03*
%TD*%
D21*
%TO.C,R28*%
X252898000Y-61319000D03*
D22*
X252898000Y-63219000D03*
%TD*%
D10*
%TO.C,Cd19*%
X101600000Y-67945000D03*
X99100000Y-67945000D03*
%TD*%
D21*
%TO.C,R14*%
X189398000Y-64372000D03*
D22*
X189398000Y-56752000D03*
%TD*%
D10*
%TO.C,Cd2*%
X155595000Y-116205000D03*
X158095000Y-116205000D03*
%TD*%
D15*
%TO.C,U32*%
X129540000Y-112495000D03*
D16*
X132080000Y-112495000D03*
X134620000Y-112495000D03*
X137160000Y-112495000D03*
X139700000Y-112495000D03*
X142240000Y-112495000D03*
X144780000Y-112495000D03*
X147320000Y-112495000D03*
X149860000Y-112495000D03*
X152400000Y-112495000D03*
X152400000Y-104875000D03*
X149860000Y-104875000D03*
X147320000Y-104875000D03*
X144780000Y-104875000D03*
X142240000Y-104875000D03*
X139700000Y-104875000D03*
X137160000Y-104875000D03*
X134620000Y-104875000D03*
X132080000Y-104875000D03*
X129540000Y-104875000D03*
%TD*%
D11*
%TO.C,C7*%
X167045000Y-63102000D03*
D10*
X169545000Y-63102000D03*
%TD*%
%TO.C,Cd13*%
X42078000Y-115570000D03*
X42078000Y-113070000D03*
%TD*%
D21*
%TO.C,R4*%
X48260000Y-76835000D03*
D22*
X48260000Y-84455000D03*
%TD*%
D11*
%TO.C,C6*%
X269000000Y-97000000D03*
D10*
X271500000Y-97000000D03*
%TD*%
D25*
%TO.C,D1*%
X53594000Y-130412000D03*
D26*
X53594000Y-138032000D03*
%TD*%
D15*
%TO.C,U24*%
X213493000Y-90270000D03*
D16*
X216033000Y-90270000D03*
X218573000Y-90270000D03*
X221113000Y-90270000D03*
X223653000Y-90270000D03*
X226193000Y-90270000D03*
X228733000Y-90270000D03*
X231273000Y-90270000D03*
X231273000Y-82650000D03*
X228733000Y-82650000D03*
X226193000Y-82650000D03*
X223653000Y-82650000D03*
X221113000Y-82650000D03*
X218573000Y-82650000D03*
X216033000Y-82650000D03*
X213493000Y-82650000D03*
%TD*%
D15*
%TO.C,U14*%
X186838000Y-90260000D03*
D16*
X189378000Y-90260000D03*
X191918000Y-90260000D03*
X194458000Y-90260000D03*
X196998000Y-90260000D03*
X199538000Y-90260000D03*
X202078000Y-90260000D03*
X204618000Y-90260000D03*
X204618000Y-82640000D03*
X202078000Y-82640000D03*
X199538000Y-82640000D03*
X196998000Y-82640000D03*
X194458000Y-82640000D03*
X191918000Y-82640000D03*
X189378000Y-82640000D03*
X186838000Y-82640000D03*
%TD*%
D30*
%TO.C,J9*%
X101092000Y-100315000D03*
D31*
X101092000Y-97775000D03*
X101092000Y-95235000D03*
%TD*%
D34*
%TO.C,TP3*%
X116205000Y-65024000D03*
%TD*%
D21*
%TO.C,R36*%
X243754000Y-57387000D03*
D22*
X243754000Y-59287000D03*
%TD*%
D11*
%TO.C,RN1*%
X184288000Y-108685000D03*
D12*
X186828000Y-108685000D03*
X189368000Y-108685000D03*
X191908000Y-108685000D03*
X194448000Y-108685000D03*
X196988000Y-108685000D03*
X199528000Y-108685000D03*
X202068000Y-108685000D03*
X204608000Y-108685000D03*
%TD*%
D27*
%TO.C,H4*%
X269000000Y-135000000D03*
%TD*%
D21*
%TO.C,R29*%
X250612000Y-61319600D03*
D22*
X250612000Y-63219600D03*
%TD*%
D10*
%TO.C,Cd20*%
X237698000Y-97392000D03*
X240198000Y-97392000D03*
%TD*%
D21*
%TO.C,R44*%
X65000000Y-130429000D03*
D22*
X65000000Y-138049000D03*
%TD*%
D13*
%TO.C,U21*%
X246523000Y-107425000D03*
D14*
X243983000Y-109965000D03*
X246523000Y-109965000D03*
X243983000Y-112505000D03*
X246523000Y-115045000D03*
X246523000Y-112505000D03*
X249063000Y-115045000D03*
X249063000Y-112505000D03*
X251603000Y-115045000D03*
X251603000Y-112505000D03*
X254143000Y-115045000D03*
X256683000Y-112505000D03*
X254143000Y-112505000D03*
X256683000Y-109965000D03*
X254143000Y-109965000D03*
X256683000Y-107425000D03*
X254143000Y-107425000D03*
X256683000Y-104885000D03*
X254143000Y-102345000D03*
X254143000Y-104885000D03*
X251603000Y-102345000D03*
X251603000Y-104885000D03*
X249063000Y-102345000D03*
X249063000Y-104885000D03*
X246523000Y-102345000D03*
X243983000Y-104885000D03*
X246523000Y-104885000D03*
X243983000Y-107425000D03*
%TD*%
D27*
%TO.C,H3*%
X269030000Y-61000000D03*
%TD*%
D10*
%TO.C,C4*%
X240833000Y-63702000D03*
X240833000Y-61202000D03*
%TD*%
D21*
%TO.C,R37*%
X68748000Y-102472000D03*
D22*
X68748000Y-94852000D03*
%TD*%
D25*
%TO.C,D2*%
X271780000Y-83820000D03*
D26*
X271780000Y-91440000D03*
%TD*%
D15*
%TO.C,U23*%
X213493000Y-104875000D03*
D16*
X216033000Y-104875000D03*
X218573000Y-104875000D03*
X221113000Y-104875000D03*
X223653000Y-104875000D03*
X226193000Y-104875000D03*
X228733000Y-104875000D03*
X231273000Y-104875000D03*
X231273000Y-97255000D03*
X228733000Y-97255000D03*
X226193000Y-97255000D03*
X223653000Y-97255000D03*
X221113000Y-97255000D03*
X218573000Y-97255000D03*
X216033000Y-97255000D03*
X213493000Y-97255000D03*
%TD*%
D10*
%TO.C,Cd31*%
X101514000Y-89137000D03*
X101514000Y-91637000D03*
%TD*%
D21*
%TO.C,R41*%
X264160000Y-91440000D03*
D22*
X264160000Y-83820000D03*
%TD*%
D11*
%TO.C,C8*%
X52000000Y-63000000D03*
D10*
X52000000Y-60500000D03*
%TD*%
D15*
%TO.C,U28*%
X57293000Y-83290000D03*
D16*
X59833000Y-83290000D03*
X62373000Y-83290000D03*
X64913000Y-83290000D03*
X67453000Y-83290000D03*
X69993000Y-83290000D03*
X72533000Y-83290000D03*
X75073000Y-83290000D03*
X77613000Y-83290000D03*
X80153000Y-83290000D03*
X82693000Y-83290000D03*
X85233000Y-83290000D03*
X87773000Y-83290000D03*
X90313000Y-83290000D03*
X90313000Y-68050000D03*
X87773000Y-68050000D03*
X85233000Y-68050000D03*
X82693000Y-68050000D03*
X80153000Y-68050000D03*
X77613000Y-68050000D03*
X75073000Y-68050000D03*
X72533000Y-68050000D03*
X69993000Y-68050000D03*
X67453000Y-68050000D03*
X64913000Y-68050000D03*
X62373000Y-68050000D03*
X59833000Y-68050000D03*
X57293000Y-68050000D03*
%TD*%
D15*
%TO.C,U10*%
X104775000Y-76200000D03*
D16*
X107315000Y-76200000D03*
X109855000Y-76200000D03*
X112395000Y-76200000D03*
X114935000Y-76200000D03*
X117475000Y-76200000D03*
X120015000Y-76200000D03*
X122555000Y-76200000D03*
X122555000Y-68580000D03*
X120015000Y-68580000D03*
X117475000Y-68580000D03*
X114935000Y-68580000D03*
X112395000Y-68580000D03*
X109855000Y-68580000D03*
X107315000Y-68580000D03*
X104775000Y-68580000D03*
%TD*%
D10*
%TO.C,Cd25*%
X127422000Y-119383000D03*
X127422000Y-121883000D03*
%TD*%
D21*
%TO.C,R43*%
X62738000Y-130450000D03*
D22*
X62738000Y-138070000D03*
%TD*%
D35*
%TO.C,J4*%
X217513000Y-50559640D03*
X219418000Y-45479640D03*
X221323000Y-50559640D03*
X223228000Y-45479640D03*
X225133000Y-50559640D03*
X227038000Y-45479640D03*
X228943000Y-50559640D03*
X230848000Y-45479640D03*
X232753000Y-50559640D03*
X234658000Y-45479640D03*
X236563000Y-50559640D03*
X238468000Y-45479640D03*
X240373000Y-50559640D03*
X242278000Y-45479640D03*
X244183000Y-50559640D03*
X246088000Y-45479640D03*
X247993000Y-50559640D03*
X249898000Y-45479640D03*
X251803000Y-50559640D03*
X253708000Y-45479640D03*
X255613000Y-50559640D03*
%TD*%
D13*
%TO.C,U8*%
X164623000Y-102335000D03*
D14*
X162083000Y-104875000D03*
X164623000Y-104875000D03*
X162083000Y-107415000D03*
X164623000Y-109955000D03*
X164623000Y-107415000D03*
X167163000Y-109955000D03*
X167163000Y-107415000D03*
X169703000Y-109955000D03*
X169703000Y-107415000D03*
X172243000Y-109955000D03*
X172243000Y-107415000D03*
X174783000Y-109955000D03*
X177323000Y-107415000D03*
X174783000Y-107415000D03*
X177323000Y-104875000D03*
X174783000Y-104875000D03*
X177323000Y-102335000D03*
X174783000Y-102335000D03*
X177323000Y-99795000D03*
X174783000Y-97255000D03*
X174783000Y-99795000D03*
X172243000Y-97255000D03*
X172243000Y-99795000D03*
X169703000Y-97255000D03*
X169703000Y-99795000D03*
X167163000Y-97255000D03*
X167163000Y-99795000D03*
X164623000Y-97255000D03*
X162083000Y-99795000D03*
X164623000Y-99795000D03*
X162083000Y-102335000D03*
%TD*%
D15*
%TO.C,U22*%
X213518000Y-120125000D03*
D16*
X216058000Y-120125000D03*
X218598000Y-120125000D03*
X221138000Y-120125000D03*
X223678000Y-120125000D03*
X226218000Y-120125000D03*
X228758000Y-120125000D03*
X231298000Y-120125000D03*
X231298000Y-112505000D03*
X228758000Y-112505000D03*
X226218000Y-112505000D03*
X223678000Y-112505000D03*
X221138000Y-112505000D03*
X218598000Y-112505000D03*
X216058000Y-112505000D03*
X213518000Y-112505000D03*
%TD*%
D15*
%TO.C,U26*%
X46523000Y-115172000D03*
D16*
X49063000Y-115172000D03*
X51603000Y-115172000D03*
X54143000Y-115172000D03*
X56683000Y-115172000D03*
X59223000Y-115172000D03*
X61763000Y-115172000D03*
X61763000Y-107552000D03*
X59223000Y-107552000D03*
X56683000Y-107552000D03*
X54143000Y-107552000D03*
X51603000Y-107552000D03*
X49063000Y-107552000D03*
X46523000Y-107552000D03*
%TD*%
D13*
%TO.C,U1*%
X73818000Y-120750000D03*
D14*
X71278000Y-123290000D03*
X73818000Y-123290000D03*
X71278000Y-125830000D03*
X73818000Y-125830000D03*
X71278000Y-128370000D03*
X73818000Y-130910000D03*
X73818000Y-128370000D03*
X76358000Y-130910000D03*
X76358000Y-128370000D03*
X78898000Y-130910000D03*
X78898000Y-128370000D03*
X81438000Y-130910000D03*
X81438000Y-128370000D03*
X83978000Y-130910000D03*
X83978000Y-128370000D03*
X86518000Y-130910000D03*
X89058000Y-128370000D03*
X86518000Y-128370000D03*
X89058000Y-125830000D03*
X86518000Y-125830000D03*
X89058000Y-123290000D03*
X86518000Y-123290000D03*
X89058000Y-120750000D03*
X86518000Y-120750000D03*
X89058000Y-118210000D03*
X86518000Y-118210000D03*
X89058000Y-115670000D03*
X86518000Y-113130000D03*
X86518000Y-115670000D03*
X83978000Y-113130000D03*
X83978000Y-115670000D03*
X81438000Y-113130000D03*
X81438000Y-115670000D03*
X78898000Y-113130000D03*
X78898000Y-115670000D03*
X76358000Y-113130000D03*
X76358000Y-115670000D03*
X73818000Y-113130000D03*
X71278000Y-115670000D03*
X73818000Y-115670000D03*
X71278000Y-118210000D03*
X73818000Y-118210000D03*
X71278000Y-120750000D03*
%TD*%
D30*
%TO.C,J1*%
X134788000Y-135255000D03*
D31*
X137328000Y-135255000D03*
X139868000Y-135255000D03*
X142408000Y-135255000D03*
X144948000Y-135255000D03*
%TD*%
D36*
%TO.C,D3*%
X261030000Y-54225000D03*
D37*
X261030000Y-56765000D03*
%TD*%
D15*
%TO.C,U31*%
X155575000Y-127090000D03*
D16*
X158115000Y-127090000D03*
X160655000Y-127090000D03*
X163195000Y-127090000D03*
X165735000Y-127090000D03*
X168275000Y-127090000D03*
X170815000Y-127090000D03*
X173355000Y-127090000D03*
X175895000Y-127090000D03*
X178435000Y-127090000D03*
X178435000Y-119470000D03*
X175895000Y-119470000D03*
X173355000Y-119470000D03*
X170815000Y-119470000D03*
X168275000Y-119470000D03*
X165735000Y-119470000D03*
X163195000Y-119470000D03*
X160655000Y-119470000D03*
X158115000Y-119470000D03*
X155575000Y-119470000D03*
%TD*%
D21*
%TO.C,R35*%
X246040000Y-57387000D03*
D22*
X246040000Y-59287000D03*
%TD*%
D21*
%TO.C,R12*%
X93980000Y-73025000D03*
D22*
X101600000Y-73025000D03*
%TD*%
D21*
%TO.C,R17*%
X197526000Y-64372000D03*
D22*
X197526000Y-56752000D03*
%TD*%
D21*
%TO.C,R20*%
X233721000Y-61202000D03*
D22*
X233721000Y-63102000D03*
%TD*%
D13*
%TO.C,U29*%
X75723000Y-95487000D03*
D14*
X73183000Y-98027000D03*
X75723000Y-98027000D03*
X73183000Y-100567000D03*
X75723000Y-103107000D03*
X75723000Y-100567000D03*
X78263000Y-103107000D03*
X78263000Y-100567000D03*
X80803000Y-103107000D03*
X80803000Y-100567000D03*
X83343000Y-103107000D03*
X83343000Y-100567000D03*
X85883000Y-103107000D03*
X88423000Y-100567000D03*
X85883000Y-100567000D03*
X88423000Y-98027000D03*
X85883000Y-98027000D03*
X88423000Y-95487000D03*
X85883000Y-95487000D03*
X88423000Y-92947000D03*
X85883000Y-90407000D03*
X85883000Y-92947000D03*
X83343000Y-90407000D03*
X83343000Y-92947000D03*
X80803000Y-90407000D03*
X80803000Y-92947000D03*
X78263000Y-90407000D03*
X78263000Y-92947000D03*
X75723000Y-90407000D03*
X73183000Y-92947000D03*
X75723000Y-92947000D03*
X73183000Y-95487000D03*
%TD*%
D10*
%TO.C,Cd26*%
X184318000Y-93582000D03*
X186818000Y-93582000D03*
%TD*%
D15*
%TO.C,U30*%
X130958000Y-127090000D03*
D16*
X133498000Y-127090000D03*
X136038000Y-127090000D03*
X138578000Y-127090000D03*
X141118000Y-127090000D03*
X143658000Y-127090000D03*
X146198000Y-127090000D03*
X148738000Y-127090000D03*
X148738000Y-119470000D03*
X146198000Y-119470000D03*
X143658000Y-119470000D03*
X141118000Y-119470000D03*
X138578000Y-119470000D03*
X136038000Y-119470000D03*
X133498000Y-119470000D03*
X130958000Y-119470000D03*
%TD*%
D30*
%TO.C,J6*%
X110648000Y-54212000D03*
D31*
X110648000Y-49132000D03*
X113188000Y-54212000D03*
X113188000Y-49132000D03*
X115728000Y-54212000D03*
X115728000Y-49132000D03*
X118268000Y-54212000D03*
X118268000Y-49132000D03*
X120808000Y-54212000D03*
X120808000Y-49132000D03*
X123348000Y-54212000D03*
X123348000Y-49132000D03*
X125888000Y-54212000D03*
X125888000Y-49132000D03*
X128428000Y-54212000D03*
X128428000Y-49132000D03*
X130968000Y-54212000D03*
X130968000Y-49132000D03*
X133508000Y-54212000D03*
X133508000Y-49132000D03*
X136048000Y-54212000D03*
X136048000Y-49132000D03*
X138588000Y-54212000D03*
X138588000Y-49132000D03*
X141128000Y-54212000D03*
X141128000Y-49132000D03*
X143668000Y-54212000D03*
X143668000Y-49132000D03*
X146208000Y-54212000D03*
X146208000Y-49132000D03*
X148748000Y-54212000D03*
X148748000Y-49132000D03*
X151288000Y-54212000D03*
X151288000Y-49132000D03*
X153828000Y-54212000D03*
X153828000Y-49132000D03*
X156368000Y-54212000D03*
X156368000Y-49132000D03*
X158908000Y-54212000D03*
X158908000Y-49132000D03*
D38*
X161448000Y-54212000D03*
X161448000Y-49132000D03*
X163988000Y-54212000D03*
X163988000Y-49132000D03*
%TD*%
D10*
%TO.C,Cd16*%
X213528000Y-108822000D03*
X216028000Y-108822000D03*
%TD*%
D21*
%TO.C,R40*%
X269240000Y-83820000D03*
D22*
X269240000Y-91440000D03*
%TD*%
D10*
%TO.C,Cd14*%
X83820000Y-108187000D03*
X81320000Y-108187000D03*
%TD*%
D15*
%TO.C,U4*%
X104775000Y-120115000D03*
D16*
X107315000Y-120115000D03*
X109855000Y-120115000D03*
X112395000Y-120115000D03*
X114935000Y-120115000D03*
X117475000Y-120115000D03*
X120015000Y-120115000D03*
X122555000Y-120115000D03*
X122555000Y-112495000D03*
X120015000Y-112495000D03*
X117475000Y-112495000D03*
X114935000Y-112495000D03*
X112395000Y-112495000D03*
X109855000Y-112495000D03*
X107315000Y-112495000D03*
X104775000Y-112495000D03*
%TD*%
D10*
%TO.C,Cd10*%
X68748000Y-91677000D03*
X66248000Y-91677000D03*
%TD*%
%TO.C,Cd17*%
X186858000Y-79612000D03*
X189358000Y-79612000D03*
%TD*%
D21*
%TO.C,R13*%
X93980000Y-70485000D03*
D22*
X101600000Y-70485000D03*
%TD*%
D34*
%TO.C,TP1*%
X113030000Y-65024000D03*
%TD*%
D10*
%TO.C,Cd6*%
X157480000Y-102235000D03*
X157480000Y-104735000D03*
%TD*%
D21*
%TO.C,R33*%
X250612000Y-57387000D03*
D22*
X250612000Y-59287000D03*
%TD*%
D15*
%TO.C,U25*%
X213518000Y-76300000D03*
D16*
X216058000Y-76300000D03*
X218598000Y-76300000D03*
X221138000Y-76300000D03*
X223678000Y-76300000D03*
X226218000Y-76300000D03*
X228758000Y-76300000D03*
X231298000Y-76300000D03*
X231298000Y-68680000D03*
X228758000Y-68680000D03*
X226218000Y-68680000D03*
X223678000Y-68680000D03*
X221138000Y-68680000D03*
X218598000Y-68680000D03*
X216058000Y-68680000D03*
X213518000Y-68680000D03*
%TD*%
D15*
%TO.C,U12*%
X184308000Y-104875000D03*
D16*
X186848000Y-104875000D03*
X189388000Y-104875000D03*
X191928000Y-104875000D03*
X194468000Y-104875000D03*
X197008000Y-104875000D03*
X199548000Y-104875000D03*
X202088000Y-104875000D03*
X204628000Y-104875000D03*
X207168000Y-104875000D03*
X207168000Y-97255000D03*
X204628000Y-97255000D03*
X202088000Y-97255000D03*
X199548000Y-97255000D03*
X197008000Y-97255000D03*
X194468000Y-97255000D03*
X191928000Y-97255000D03*
X189388000Y-97255000D03*
X186848000Y-97255000D03*
X184308000Y-97255000D03*
%TD*%
D21*
%TO.C,R31*%
X246040000Y-61319600D03*
D22*
X246040000Y-63219600D03*
%TD*%
D39*
%TO.C,J8*%
X209264000Y-50800000D03*
X207264000Y-48900000D03*
X207264000Y-42700000D03*
X209264000Y-45200000D03*
X207264000Y-54500000D03*
%TD*%
D21*
%TO.C,R23*%
X231435000Y-57270000D03*
D22*
X231435000Y-59170000D03*
%TD*%
D30*
%TO.C,J5*%
X46523000Y-54212000D03*
D31*
X46523000Y-49132000D03*
X49063000Y-54212000D03*
X49063000Y-49132000D03*
X51603000Y-54212000D03*
X51603000Y-49132000D03*
X54143000Y-54212000D03*
X54143000Y-49132000D03*
X56683000Y-54212000D03*
X56683000Y-49132000D03*
X59223000Y-54212000D03*
X59223000Y-49132000D03*
X61763000Y-54212000D03*
X61763000Y-49132000D03*
X64303000Y-54212000D03*
X64303000Y-49132000D03*
X66843000Y-54212000D03*
X66843000Y-49132000D03*
X69383000Y-54212000D03*
X69383000Y-49132000D03*
X71923000Y-54212000D03*
X71923000Y-49132000D03*
X74463000Y-54212000D03*
X74463000Y-49132000D03*
X77003000Y-54212000D03*
X77003000Y-49132000D03*
X79543000Y-54212000D03*
X79543000Y-49132000D03*
X82083000Y-54212000D03*
X82083000Y-49132000D03*
X84623000Y-54212000D03*
X84623000Y-49132000D03*
X87163000Y-54212000D03*
X87163000Y-49132000D03*
X89703000Y-54212000D03*
X89703000Y-49132000D03*
X92243000Y-54212000D03*
X92243000Y-49132000D03*
X94783000Y-54212000D03*
X94783000Y-49132000D03*
D38*
X97323000Y-54212000D03*
X97323000Y-49132000D03*
X99863000Y-54212000D03*
X99863000Y-49132000D03*
%TD*%
D21*
%TO.C,R27*%
X240579000Y-57270000D03*
D22*
X240579000Y-59170000D03*
%TD*%
D15*
%TO.C,U27*%
X43983000Y-127237000D03*
D16*
X46523000Y-127237000D03*
X49063000Y-127237000D03*
X51603000Y-127237000D03*
X54143000Y-127237000D03*
X56683000Y-127237000D03*
X59223000Y-127237000D03*
X61763000Y-127237000D03*
X61763000Y-119617000D03*
X59223000Y-119617000D03*
X56683000Y-119617000D03*
X54143000Y-119617000D03*
X51603000Y-119617000D03*
X49063000Y-119617000D03*
X46523000Y-119617000D03*
X43983000Y-119617000D03*
%TD*%
D34*
%TO.C,TP4*%
X119380000Y-65024000D03*
%TD*%
D21*
%TO.C,R30*%
X248326000Y-61319600D03*
D22*
X248326000Y-63219600D03*
%TD*%
D10*
%TO.C,Cd23*%
X237023000Y-68817000D03*
X237023000Y-71317000D03*
%TD*%
D34*
%TO.C,TP2*%
X122555000Y-65024000D03*
%TD*%
D10*
%TO.C,Cd7*%
X129540000Y-86995000D03*
X132040000Y-86995000D03*
%TD*%
%TO.C,Cd8*%
X101600000Y-112395000D03*
X101600000Y-114895000D03*
%TD*%
D27*
%TO.C,H1*%
X45030000Y-61000000D03*
%TD*%
D10*
%TO.C,Cd22*%
X237658000Y-127237000D03*
X237658000Y-129737000D03*
%TD*%
D21*
%TO.C,R18*%
X200945000Y-64372000D03*
D22*
X200945000Y-56752000D03*
%TD*%
D10*
%TO.C,Cd3*%
X160655000Y-79375000D03*
X163155000Y-79375000D03*
%TD*%
%TO.C,Cd24*%
X237023000Y-82787000D03*
X237023000Y-85287000D03*
%TD*%
%TO.C,Cd5*%
X129032000Y-68620000D03*
X129032000Y-71120000D03*
%TD*%
D21*
%TO.C,R8*%
X93980000Y-83185000D03*
D22*
X101600000Y-83185000D03*
%TD*%
D21*
%TO.C,R42*%
X51435000Y-130412000D03*
D22*
X51435000Y-138032000D03*
%TD*%
D21*
%TO.C,R19*%
X231435000Y-61202000D03*
D22*
X231435000Y-63102000D03*
%TD*%
D40*
%TO.C,Y1*%
X47752000Y-88392000D03*
X52632000Y-88392000D03*
%TD*%
D15*
%TO.C,U9*%
X184308000Y-120115000D03*
D16*
X186848000Y-120115000D03*
X189388000Y-120115000D03*
X191928000Y-120115000D03*
X194468000Y-120115000D03*
X197008000Y-120115000D03*
X199548000Y-120115000D03*
X202088000Y-120115000D03*
X204628000Y-120115000D03*
X207168000Y-120115000D03*
X207168000Y-112495000D03*
X204628000Y-112495000D03*
X202088000Y-112495000D03*
X199548000Y-112495000D03*
X197008000Y-112495000D03*
X194468000Y-112495000D03*
X191928000Y-112495000D03*
X189388000Y-112495000D03*
X186848000Y-112495000D03*
X184308000Y-112495000D03*
%TD*%
D10*
%TO.C,Cd12*%
X184318000Y-65007000D03*
X186818000Y-65007000D03*
%TD*%
D15*
%TO.C,U13*%
X160655000Y-90260000D03*
D16*
X163195000Y-90260000D03*
X165735000Y-90260000D03*
X168275000Y-90260000D03*
X170815000Y-90260000D03*
X173355000Y-90260000D03*
X175895000Y-90260000D03*
X178435000Y-90260000D03*
X178435000Y-82640000D03*
X175895000Y-82640000D03*
X173355000Y-82640000D03*
X170815000Y-82640000D03*
X168275000Y-82640000D03*
X165735000Y-82640000D03*
X163195000Y-82640000D03*
X160655000Y-82640000D03*
%TD*%
D25*
%TO.C,D6*%
X60452000Y-138115000D03*
D26*
X60452000Y-130495000D03*
%TD*%
D25*
%TO.C,D5*%
X63668000Y-94852000D03*
D26*
X63668000Y-102472000D03*
%TD*%
D21*
%TO.C,R26*%
X238293000Y-57265000D03*
D22*
X238293000Y-59165000D03*
%TD*%
D10*
%TO.C,Cd18*%
X57318000Y-65007000D03*
X59818000Y-65007000D03*
%TD*%
D15*
%TO.C,U11*%
X132080000Y-76200000D03*
D16*
X134620000Y-76200000D03*
X137160000Y-76200000D03*
X139700000Y-76200000D03*
X142240000Y-76200000D03*
X144780000Y-76200000D03*
X147320000Y-76200000D03*
X149860000Y-76200000D03*
X149860000Y-68580000D03*
X147320000Y-68580000D03*
X144780000Y-68580000D03*
X142240000Y-68580000D03*
X139700000Y-68580000D03*
X137160000Y-68580000D03*
X134620000Y-68580000D03*
X132080000Y-68580000D03*
%TD*%
D15*
%TO.C,U6*%
X129540000Y-97790000D03*
D16*
X132080000Y-97790000D03*
X134620000Y-97790000D03*
X137160000Y-97790000D03*
X139700000Y-97790000D03*
X142240000Y-97790000D03*
X144780000Y-97790000D03*
X147320000Y-97790000D03*
X149860000Y-97790000D03*
X152400000Y-97790000D03*
X152400000Y-90170000D03*
X149860000Y-90170000D03*
X147320000Y-90170000D03*
X144780000Y-90170000D03*
X142240000Y-90170000D03*
X139700000Y-90170000D03*
X137160000Y-90170000D03*
X134620000Y-90170000D03*
X132080000Y-90170000D03*
X129540000Y-90170000D03*
%TD*%
M02*
