%TF.GenerationSoftware,KiCad,Pcbnew,7.0.10*%
%TF.CreationDate,2024-04-29T09:43:26+01:00*%
%TF.ProjectId,right,72696768-742e-46b6-9963-61645f706362,rev?*%
%TF.SameCoordinates,Original*%
%TF.FileFunction,Legend,Top*%
%TF.FilePolarity,Positive*%
%FSLAX46Y46*%
G04 Gerber Fmt 4.6, Leading zero omitted, Abs format (unit mm)*
G04 Created by KiCad (PCBNEW 7.0.10) date 2024-04-29 09:43:26*
%MOMM*%
%LPD*%
G01*
G04 APERTURE LIST*
%ADD10C,0.400000*%
%ADD11C,0.150000*%
G04 APERTURE END LIST*
D10*
X138352380Y-69104438D02*
X138733333Y-69104438D01*
X138733333Y-69104438D02*
X138923809Y-69199676D01*
X138923809Y-69199676D02*
X139114285Y-69390152D01*
X139114285Y-69390152D02*
X139209523Y-69771104D01*
X139209523Y-69771104D02*
X139209523Y-70437771D01*
X139209523Y-70437771D02*
X139114285Y-70818723D01*
X139114285Y-70818723D02*
X138923809Y-71009200D01*
X138923809Y-71009200D02*
X138733333Y-71104438D01*
X138733333Y-71104438D02*
X138352380Y-71104438D01*
X138352380Y-71104438D02*
X138161904Y-71009200D01*
X138161904Y-71009200D02*
X137971428Y-70818723D01*
X137971428Y-70818723D02*
X137876190Y-70437771D01*
X137876190Y-70437771D02*
X137876190Y-69771104D01*
X137876190Y-69771104D02*
X137971428Y-69390152D01*
X137971428Y-69390152D02*
X138161904Y-69199676D01*
X138161904Y-69199676D02*
X138352380Y-69104438D01*
X140066666Y-71104438D02*
X140066666Y-69104438D01*
X140066666Y-69104438D02*
X141209523Y-71104438D01*
X141209523Y-71104438D02*
X141209523Y-69104438D01*
X143590475Y-69009200D02*
X141876190Y-71580628D01*
X144638094Y-69104438D02*
X145019047Y-69104438D01*
X145019047Y-69104438D02*
X145209523Y-69199676D01*
X145209523Y-69199676D02*
X145399999Y-69390152D01*
X145399999Y-69390152D02*
X145495237Y-69771104D01*
X145495237Y-69771104D02*
X145495237Y-70437771D01*
X145495237Y-70437771D02*
X145399999Y-70818723D01*
X145399999Y-70818723D02*
X145209523Y-71009200D01*
X145209523Y-71009200D02*
X145019047Y-71104438D01*
X145019047Y-71104438D02*
X144638094Y-71104438D01*
X144638094Y-71104438D02*
X144447618Y-71009200D01*
X144447618Y-71009200D02*
X144257142Y-70818723D01*
X144257142Y-70818723D02*
X144161904Y-70437771D01*
X144161904Y-70437771D02*
X144161904Y-69771104D01*
X144161904Y-69771104D02*
X144257142Y-69390152D01*
X144257142Y-69390152D02*
X144447618Y-69199676D01*
X144447618Y-69199676D02*
X144638094Y-69104438D01*
X147019047Y-70056819D02*
X146352380Y-70056819D01*
X146352380Y-71104438D02*
X146352380Y-69104438D01*
X146352380Y-69104438D02*
X147304761Y-69104438D01*
X148733333Y-70056819D02*
X148066666Y-70056819D01*
X148066666Y-71104438D02*
X148066666Y-69104438D01*
X148066666Y-69104438D02*
X149019047Y-69104438D01*
D11*
X171288095Y-46704819D02*
X171288095Y-45704819D01*
X171288095Y-46181009D02*
X171859523Y-46181009D01*
X171859523Y-46704819D02*
X171859523Y-45704819D01*
X172240476Y-45704819D02*
X172859523Y-45704819D01*
X172859523Y-45704819D02*
X172526190Y-46085771D01*
X172526190Y-46085771D02*
X172669047Y-46085771D01*
X172669047Y-46085771D02*
X172764285Y-46133390D01*
X172764285Y-46133390D02*
X172811904Y-46181009D01*
X172811904Y-46181009D02*
X172859523Y-46276247D01*
X172859523Y-46276247D02*
X172859523Y-46514342D01*
X172859523Y-46514342D02*
X172811904Y-46609580D01*
X172811904Y-46609580D02*
X172764285Y-46657200D01*
X172764285Y-46657200D02*
X172669047Y-46704819D01*
X172669047Y-46704819D02*
X172383333Y-46704819D01*
X172383333Y-46704819D02*
X172288095Y-46657200D01*
X172288095Y-46657200D02*
X172240476Y-46609580D01*
M02*
