%TF.GenerationSoftware,KiCad,Pcbnew,7.0.10*%
%TF.CreationDate,2024-04-29T09:43:26+01:00*%
%TF.ProjectId,right,72696768-742e-46b6-9963-61645f706362,rev?*%
%TF.SameCoordinates,Original*%
%TF.FileFunction,Copper,L2,Bot*%
%TF.FilePolarity,Positive*%
%FSLAX46Y46*%
G04 Gerber Fmt 4.6, Leading zero omitted, Abs format (unit mm)*
G04 Created by KiCad (PCBNEW 7.0.10) date 2024-04-29 09:43:26*
%MOMM*%
%LPD*%
G01*
G04 APERTURE LIST*
%TA.AperFunction,ComponentPad*%
%ADD10C,5.500000*%
%TD*%
%TA.AperFunction,ComponentPad*%
%ADD11C,4.000000*%
%TD*%
G04 APERTURE END LIST*
D10*
%TO.P,H1,1,1*%
%TO.N,GND*%
X82000000Y-73900000D03*
%TD*%
D11*
%TO.P,H3,1,1*%
%TO.N,GND*%
X172050000Y-50000000D03*
%TD*%
D10*
%TO.P,H2,1,1*%
%TO.N,GND*%
X156000000Y-73900000D03*
%TD*%
%TA.AperFunction,Conductor*%
%TO.N,GND*%
G36*
X170419730Y-48020185D02*
G01*
X170440372Y-48036819D01*
X171105819Y-48702266D01*
X170915130Y-48865130D01*
X170752266Y-49055818D01*
X170114286Y-48417838D01*
X170114285Y-48417838D01*
X170023459Y-48527629D01*
X170023457Y-48527632D01*
X169854903Y-48793232D01*
X169854900Y-48793238D01*
X169720965Y-49077862D01*
X169720963Y-49077867D01*
X169623755Y-49377041D01*
X169564808Y-49686050D01*
X169564807Y-49686057D01*
X169545057Y-49999994D01*
X169545057Y-50000005D01*
X169564807Y-50313942D01*
X169564808Y-50313949D01*
X169623755Y-50622958D01*
X169720963Y-50922132D01*
X169720965Y-50922137D01*
X169854900Y-51206761D01*
X169854903Y-51206767D01*
X170023457Y-51472367D01*
X170023460Y-51472371D01*
X170114286Y-51582160D01*
X170752266Y-50944180D01*
X170915130Y-51134870D01*
X171105818Y-51297732D01*
X170464971Y-51938579D01*
X170464972Y-51938581D01*
X170707772Y-52114985D01*
X170707790Y-52114996D01*
X170983447Y-52266540D01*
X170983455Y-52266544D01*
X171275926Y-52382340D01*
X171580620Y-52460573D01*
X171580629Y-52460575D01*
X171892701Y-52499999D01*
X171892715Y-52500000D01*
X172207285Y-52500000D01*
X172207298Y-52499999D01*
X172519370Y-52460575D01*
X172519379Y-52460573D01*
X172824073Y-52382340D01*
X173116544Y-52266544D01*
X173116552Y-52266540D01*
X173392209Y-52114996D01*
X173392219Y-52114990D01*
X173635026Y-51938579D01*
X173635027Y-51938579D01*
X172994180Y-51297733D01*
X173184870Y-51134870D01*
X173347733Y-50944181D01*
X173985712Y-51582160D01*
X174076544Y-51472364D01*
X174245096Y-51206767D01*
X174245099Y-51206761D01*
X174379034Y-50922137D01*
X174379036Y-50922132D01*
X174476244Y-50622958D01*
X174535191Y-50313949D01*
X174535192Y-50313942D01*
X174554943Y-50000005D01*
X174554943Y-49999994D01*
X174535192Y-49686057D01*
X174535191Y-49686050D01*
X174476244Y-49377041D01*
X174379036Y-49077867D01*
X174379034Y-49077862D01*
X174245099Y-48793238D01*
X174245096Y-48793232D01*
X174076542Y-48527632D01*
X174076539Y-48527628D01*
X173985712Y-48417838D01*
X173347732Y-49055818D01*
X173184870Y-48865130D01*
X172994180Y-48702266D01*
X173659628Y-48036819D01*
X173720951Y-48003334D01*
X173747309Y-48000500D01*
X175875500Y-48000500D01*
X175942539Y-48020185D01*
X175988294Y-48072989D01*
X175999500Y-48124500D01*
X175999500Y-77375500D01*
X175979815Y-77442539D01*
X175927011Y-77488294D01*
X175875500Y-77499500D01*
X78124500Y-77499500D01*
X78057461Y-77479815D01*
X78011706Y-77427011D01*
X78000500Y-77375500D01*
X78000500Y-73900002D01*
X78745227Y-73900002D01*
X78764306Y-74251900D01*
X78764308Y-74251917D01*
X78821319Y-74599667D01*
X78821325Y-74599693D01*
X78915600Y-74939243D01*
X78915602Y-74939250D01*
X79046043Y-75266634D01*
X79046052Y-75266652D01*
X79211124Y-75578011D01*
X79408896Y-75869702D01*
X79531914Y-76014532D01*
X80702266Y-74844180D01*
X80865130Y-75034870D01*
X81055819Y-75197733D01*
X79882625Y-76370926D01*
X79882625Y-76370928D01*
X79892900Y-76380660D01*
X80173460Y-76593938D01*
X80173464Y-76593941D01*
X80475445Y-76775635D01*
X80795273Y-76923603D01*
X81129256Y-77036136D01*
X81473437Y-77111896D01*
X81823788Y-77149999D01*
X81823795Y-77150000D01*
X82176205Y-77150000D01*
X82176211Y-77149999D01*
X82526562Y-77111896D01*
X82870743Y-77036136D01*
X83204726Y-76923603D01*
X83524554Y-76775635D01*
X83826535Y-76593941D01*
X83826539Y-76593938D01*
X84107093Y-76380665D01*
X84107105Y-76380654D01*
X84117373Y-76370927D01*
X84117373Y-76370926D01*
X82944180Y-75197733D01*
X83134870Y-75034870D01*
X83297733Y-74844181D01*
X84468084Y-76014532D01*
X84468085Y-76014531D01*
X84591102Y-75869704D01*
X84788875Y-75578011D01*
X84953947Y-75266652D01*
X84953956Y-75266634D01*
X85084397Y-74939250D01*
X85084399Y-74939243D01*
X85178674Y-74599693D01*
X85178680Y-74599667D01*
X85235691Y-74251917D01*
X85235693Y-74251900D01*
X85254773Y-73900002D01*
X152745227Y-73900002D01*
X152764306Y-74251900D01*
X152764308Y-74251917D01*
X152821319Y-74599667D01*
X152821325Y-74599693D01*
X152915600Y-74939243D01*
X152915602Y-74939250D01*
X153046043Y-75266634D01*
X153046052Y-75266652D01*
X153211124Y-75578011D01*
X153408896Y-75869702D01*
X153531914Y-76014532D01*
X154702266Y-74844180D01*
X154865130Y-75034870D01*
X155055819Y-75197733D01*
X153882625Y-76370926D01*
X153882625Y-76370928D01*
X153892900Y-76380660D01*
X154173460Y-76593938D01*
X154173464Y-76593941D01*
X154475445Y-76775635D01*
X154795273Y-76923603D01*
X155129256Y-77036136D01*
X155473437Y-77111896D01*
X155823788Y-77149999D01*
X155823795Y-77150000D01*
X156176205Y-77150000D01*
X156176211Y-77149999D01*
X156526562Y-77111896D01*
X156870743Y-77036136D01*
X157204726Y-76923603D01*
X157524554Y-76775635D01*
X157826535Y-76593941D01*
X157826539Y-76593938D01*
X158107093Y-76380665D01*
X158107105Y-76380654D01*
X158117373Y-76370927D01*
X158117373Y-76370926D01*
X156944180Y-75197733D01*
X157134870Y-75034870D01*
X157297733Y-74844181D01*
X158468084Y-76014532D01*
X158468085Y-76014531D01*
X158591102Y-75869704D01*
X158788875Y-75578011D01*
X158953947Y-75266652D01*
X158953956Y-75266634D01*
X159084397Y-74939250D01*
X159084399Y-74939243D01*
X159178674Y-74599693D01*
X159178680Y-74599667D01*
X159235691Y-74251917D01*
X159235693Y-74251900D01*
X159254773Y-73900002D01*
X159254773Y-73899997D01*
X159235693Y-73548099D01*
X159235691Y-73548082D01*
X159178680Y-73200332D01*
X159178674Y-73200306D01*
X159084399Y-72860756D01*
X159084397Y-72860749D01*
X158953956Y-72533365D01*
X158953947Y-72533347D01*
X158788875Y-72221988D01*
X158591099Y-71930291D01*
X158468085Y-71785467D01*
X158468084Y-71785466D01*
X157297732Y-72955818D01*
X157134870Y-72765130D01*
X156944180Y-72602266D01*
X158117374Y-71429073D01*
X158117373Y-71429072D01*
X158107099Y-71419340D01*
X158107087Y-71419330D01*
X157826539Y-71206061D01*
X157826535Y-71206058D01*
X157524554Y-71024364D01*
X157204726Y-70876396D01*
X156870743Y-70763863D01*
X156526562Y-70688103D01*
X156176211Y-70650000D01*
X155823788Y-70650000D01*
X155473437Y-70688103D01*
X155129256Y-70763863D01*
X154795273Y-70876396D01*
X154475445Y-71024364D01*
X154173464Y-71206058D01*
X154173460Y-71206061D01*
X153892906Y-71419334D01*
X153882625Y-71429071D01*
X153882625Y-71429073D01*
X155055819Y-72602266D01*
X154865130Y-72765130D01*
X154702266Y-72955818D01*
X153531914Y-71785466D01*
X153531913Y-71785466D01*
X153408896Y-71930296D01*
X153211124Y-72221988D01*
X153046052Y-72533347D01*
X153046043Y-72533365D01*
X152915602Y-72860749D01*
X152915600Y-72860756D01*
X152821325Y-73200306D01*
X152821319Y-73200332D01*
X152764308Y-73548082D01*
X152764306Y-73548099D01*
X152745227Y-73899997D01*
X152745227Y-73900002D01*
X85254773Y-73900002D01*
X85254773Y-73899997D01*
X85235693Y-73548099D01*
X85235691Y-73548082D01*
X85178680Y-73200332D01*
X85178674Y-73200306D01*
X85084399Y-72860756D01*
X85084397Y-72860749D01*
X84953956Y-72533365D01*
X84953947Y-72533347D01*
X84788875Y-72221988D01*
X84591099Y-71930291D01*
X84468085Y-71785467D01*
X84468084Y-71785466D01*
X83297732Y-72955818D01*
X83134870Y-72765130D01*
X82944180Y-72602266D01*
X84117374Y-71429073D01*
X84117373Y-71429072D01*
X84107099Y-71419340D01*
X84107087Y-71419330D01*
X83826539Y-71206061D01*
X83826535Y-71206058D01*
X83524554Y-71024364D01*
X83204726Y-70876396D01*
X82870743Y-70763863D01*
X82526562Y-70688103D01*
X82176211Y-70650000D01*
X81823788Y-70650000D01*
X81473437Y-70688103D01*
X81129256Y-70763863D01*
X80795273Y-70876396D01*
X80475445Y-71024364D01*
X80173464Y-71206058D01*
X80173460Y-71206061D01*
X79892906Y-71419334D01*
X79882625Y-71429071D01*
X79882625Y-71429073D01*
X81055819Y-72602266D01*
X80865130Y-72765130D01*
X80702266Y-72955818D01*
X79531914Y-71785466D01*
X79531913Y-71785466D01*
X79408896Y-71930296D01*
X79211124Y-72221988D01*
X79046052Y-72533347D01*
X79046043Y-72533365D01*
X78915602Y-72860749D01*
X78915600Y-72860756D01*
X78821325Y-73200306D01*
X78821319Y-73200332D01*
X78764308Y-73548082D01*
X78764306Y-73548099D01*
X78745227Y-73899997D01*
X78745227Y-73900002D01*
X78000500Y-73900002D01*
X78000500Y-68250936D01*
X138995631Y-68250936D01*
X139006719Y-68323325D01*
X139007513Y-68329553D01*
X139014925Y-68402437D01*
X139014926Y-68402440D01*
X139019749Y-68417814D01*
X139024003Y-68436147D01*
X139026442Y-68452064D01*
X139026443Y-68452068D01*
X139051882Y-68520760D01*
X139053911Y-68526696D01*
X139075841Y-68596588D01*
X139075842Y-68596589D01*
X139075843Y-68596592D01*
X139083657Y-68610670D01*
X139091517Y-68627777D01*
X139097111Y-68642881D01*
X139097113Y-68642884D01*
X139097114Y-68642887D01*
X139113198Y-68668692D01*
X139135864Y-68705057D01*
X139139050Y-68710469D01*
X139174592Y-68774503D01*
X139174593Y-68774504D01*
X139185078Y-68786718D01*
X139196222Y-68801894D01*
X139204745Y-68815567D01*
X139204746Y-68815568D01*
X139204748Y-68815571D01*
X139255246Y-68868695D01*
X139259421Y-68873317D01*
X139274279Y-68890625D01*
X139307132Y-68928894D01*
X139307133Y-68928895D01*
X139319869Y-68938753D01*
X139333844Y-68951379D01*
X139344940Y-68963052D01*
X139405051Y-69004891D01*
X139410115Y-69008609D01*
X139418270Y-69014921D01*
X139468042Y-69053448D01*
X139482515Y-69060547D01*
X139498726Y-69070090D01*
X139511951Y-69079295D01*
X139579264Y-69108181D01*
X139584954Y-69110795D01*
X139596267Y-69116345D01*
X139650724Y-69143058D01*
X139650726Y-69143058D01*
X139650729Y-69143060D01*
X139666316Y-69147095D01*
X139684128Y-69153182D01*
X139698942Y-69159540D01*
X139770700Y-69174285D01*
X139776779Y-69175695D01*
X139847711Y-69194062D01*
X139847715Y-69194063D01*
X139863807Y-69194879D01*
X139882480Y-69197257D01*
X139891413Y-69199093D01*
X139898258Y-69200500D01*
X139898259Y-69200500D01*
X139971500Y-69200500D01*
X139977778Y-69200658D01*
X140050936Y-69204369D01*
X140066857Y-69201930D01*
X140085633Y-69200500D01*
X146571500Y-69200500D01*
X146577778Y-69200658D01*
X146650936Y-69204369D01*
X146723339Y-69193276D01*
X146729557Y-69192484D01*
X146802438Y-69185074D01*
X146817811Y-69180250D01*
X146836149Y-69175995D01*
X146840473Y-69175332D01*
X146852071Y-69173556D01*
X146920789Y-69148105D01*
X146926672Y-69146094D01*
X146996588Y-69124159D01*
X147010670Y-69116341D01*
X147027782Y-69108479D01*
X147042887Y-69102886D01*
X147105073Y-69064123D01*
X147110421Y-69060975D01*
X147174502Y-69025409D01*
X147186724Y-69014915D01*
X147201898Y-69003773D01*
X147215571Y-68995252D01*
X147268690Y-68944757D01*
X147273294Y-68940597D01*
X147328895Y-68892866D01*
X147338750Y-68880133D01*
X147351374Y-68866161D01*
X147355810Y-68861942D01*
X147363053Y-68855059D01*
X147404926Y-68794895D01*
X147408577Y-68789923D01*
X147453448Y-68731958D01*
X147460549Y-68717479D01*
X147470092Y-68701269D01*
X147479295Y-68688049D01*
X147508186Y-68620722D01*
X147510791Y-68615054D01*
X147543060Y-68549271D01*
X147547098Y-68533672D01*
X147553191Y-68515851D01*
X147559538Y-68501062D01*
X147559540Y-68501058D01*
X147574288Y-68429287D01*
X147575692Y-68423231D01*
X147594063Y-68352285D01*
X147594879Y-68336193D01*
X147597258Y-68317516D01*
X147600500Y-68301742D01*
X147600500Y-68228499D01*
X147600659Y-68222219D01*
X147604369Y-68149064D01*
X147601930Y-68133142D01*
X147600500Y-68114366D01*
X147600500Y-63828499D01*
X147600659Y-63822219D01*
X147604369Y-63749064D01*
X147593277Y-63676664D01*
X147592484Y-63670436D01*
X147585074Y-63597563D01*
X147585072Y-63597556D01*
X147580251Y-63582189D01*
X147575994Y-63563849D01*
X147573556Y-63547929D01*
X147548100Y-63479197D01*
X147546098Y-63473338D01*
X147524159Y-63403412D01*
X147516339Y-63389324D01*
X147508482Y-63372225D01*
X147502886Y-63357113D01*
X147464129Y-63294934D01*
X147460951Y-63289534D01*
X147457054Y-63282513D01*
X147425409Y-63225498D01*
X147414921Y-63213281D01*
X147403773Y-63198100D01*
X147403489Y-63197645D01*
X147395252Y-63184429D01*
X147344787Y-63131340D01*
X147340577Y-63126680D01*
X147292873Y-63071112D01*
X147292868Y-63071108D01*
X147292866Y-63071105D01*
X147280126Y-63061243D01*
X147266155Y-63048620D01*
X147255063Y-63036951D01*
X147255062Y-63036950D01*
X147255059Y-63036947D01*
X147194936Y-62995100D01*
X147189874Y-62991382D01*
X147131960Y-62946553D01*
X147131957Y-62946551D01*
X147117496Y-62939458D01*
X147101270Y-62929906D01*
X147088051Y-62920706D01*
X147088049Y-62920705D01*
X147020720Y-62891811D01*
X147015061Y-62889211D01*
X146949271Y-62856940D01*
X146949269Y-62856939D01*
X146933680Y-62852903D01*
X146915864Y-62846813D01*
X146901061Y-62840461D01*
X146901059Y-62840460D01*
X146901058Y-62840460D01*
X146829306Y-62825714D01*
X146823195Y-62824297D01*
X146816544Y-62822575D01*
X146752285Y-62805937D01*
X146752284Y-62805936D01*
X146752281Y-62805936D01*
X146736189Y-62805119D01*
X146717523Y-62802742D01*
X146701743Y-62799500D01*
X146701741Y-62799500D01*
X146628500Y-62799500D01*
X146622221Y-62799341D01*
X146549064Y-62795631D01*
X146549060Y-62795631D01*
X146533143Y-62798070D01*
X146514367Y-62799500D01*
X140028500Y-62799500D01*
X140022221Y-62799341D01*
X139991787Y-62797797D01*
X139949065Y-62795631D01*
X139949058Y-62795631D01*
X139876676Y-62806719D01*
X139870448Y-62807513D01*
X139797566Y-62814925D01*
X139797557Y-62814927D01*
X139782187Y-62819749D01*
X139763858Y-62824003D01*
X139747929Y-62826444D01*
X139747926Y-62826445D01*
X139679245Y-62851880D01*
X139673305Y-62853911D01*
X139603412Y-62875840D01*
X139589322Y-62883661D01*
X139572220Y-62891518D01*
X139557118Y-62897111D01*
X139557108Y-62897116D01*
X139494959Y-62935854D01*
X139489546Y-62939040D01*
X139425506Y-62974585D01*
X139425499Y-62974590D01*
X139413278Y-62985081D01*
X139398114Y-62996216D01*
X139384430Y-63004746D01*
X139384427Y-63004749D01*
X139331338Y-63055213D01*
X139326679Y-63059422D01*
X139271109Y-63107129D01*
X139271102Y-63107136D01*
X139261243Y-63119872D01*
X139248631Y-63133832D01*
X139236949Y-63144938D01*
X139236948Y-63144939D01*
X139195111Y-63205046D01*
X139191396Y-63210106D01*
X139146550Y-63268043D01*
X139139452Y-63282513D01*
X139129907Y-63298728D01*
X139120706Y-63311948D01*
X139120705Y-63311949D01*
X139091818Y-63379262D01*
X139089197Y-63384965D01*
X139056939Y-63450729D01*
X139056938Y-63450733D01*
X139052901Y-63466324D01*
X139046815Y-63484129D01*
X139040461Y-63498937D01*
X139025716Y-63570687D01*
X139024296Y-63576805D01*
X139005936Y-63647716D01*
X139005119Y-63663811D01*
X139002743Y-63682474D01*
X138999500Y-63698260D01*
X138999500Y-63771499D01*
X138999341Y-63777779D01*
X138995631Y-63850935D01*
X138995631Y-63850936D01*
X138998070Y-63866857D01*
X138999500Y-63885633D01*
X138999500Y-68171499D01*
X138999341Y-68177779D01*
X138995631Y-68250935D01*
X138995631Y-68250936D01*
X78000500Y-68250936D01*
X78000500Y-55039257D01*
X87244398Y-55039257D01*
X87250881Y-55110577D01*
X87251305Y-55117200D01*
X87253963Y-55188789D01*
X87258175Y-55206016D01*
X87261213Y-55224235D01*
X87400881Y-56760579D01*
X87401305Y-56767203D01*
X87403963Y-56838790D01*
X87421740Y-56911497D01*
X87423009Y-56917283D01*
X87437299Y-56990793D01*
X87442868Y-57004162D01*
X87448852Y-57022388D01*
X87452287Y-57036437D01*
X87452292Y-57036453D01*
X87484333Y-57104076D01*
X87486741Y-57109489D01*
X87515540Y-57178627D01*
X87523685Y-57190600D01*
X87533215Y-57207248D01*
X87539411Y-57220325D01*
X87539415Y-57220331D01*
X87584424Y-57280138D01*
X87587872Y-57284955D01*
X87629989Y-57346866D01*
X87629992Y-57346870D01*
X87640377Y-57356955D01*
X87653064Y-57371344D01*
X87661771Y-57382914D01*
X87703579Y-57419802D01*
X87717915Y-57432451D01*
X87722262Y-57436475D01*
X87775970Y-57488631D01*
X87775972Y-57488632D01*
X87775973Y-57488633D01*
X87788169Y-57496417D01*
X87803496Y-57507960D01*
X87814353Y-57517539D01*
X87879311Y-57554754D01*
X87884373Y-57557817D01*
X87947494Y-57598104D01*
X87961005Y-57603272D01*
X87978356Y-57611500D01*
X87990909Y-57618693D01*
X88062037Y-57642074D01*
X88067596Y-57644049D01*
X88137544Y-57670808D01*
X88151820Y-57673151D01*
X88170456Y-57677713D01*
X88184215Y-57682237D01*
X88258648Y-57690826D01*
X88264423Y-57691634D01*
X88338339Y-57703768D01*
X88352814Y-57703188D01*
X88371970Y-57703906D01*
X88386356Y-57705567D01*
X88460945Y-57699003D01*
X88466827Y-57698626D01*
X88541658Y-57695633D01*
X88555709Y-57692153D01*
X88574625Y-57688998D01*
X107210940Y-56049003D01*
X107216825Y-56048626D01*
X107291658Y-56045633D01*
X107361193Y-56028418D01*
X107367653Y-56027002D01*
X107390571Y-56022615D01*
X107438011Y-56013536D01*
X107454406Y-56006762D01*
X107471956Y-56000998D01*
X107489177Y-55996736D01*
X107553843Y-55965867D01*
X107559836Y-55963201D01*
X107626074Y-55935836D01*
X107640780Y-55925893D01*
X107656791Y-55916728D01*
X107672812Y-55909081D01*
X107729937Y-55865830D01*
X107735319Y-55861979D01*
X107794641Y-55821874D01*
X107794640Y-55821874D01*
X107794647Y-55821870D01*
X107807041Y-55809179D01*
X107820897Y-55796963D01*
X107835042Y-55786255D01*
X107882290Y-55732389D01*
X107886777Y-55727543D01*
X107936827Y-55676303D01*
X107946415Y-55661373D01*
X107957526Y-55646621D01*
X107969226Y-55633285D01*
X108004650Y-55571038D01*
X108008083Y-55565365D01*
X108046795Y-55505096D01*
X108053185Y-55488535D01*
X108061096Y-55471852D01*
X108069870Y-55456437D01*
X108092045Y-55388314D01*
X108094241Y-55382132D01*
X108120047Y-55315257D01*
X108122970Y-55297759D01*
X108127363Y-55279819D01*
X108132856Y-55262949D01*
X108140864Y-55191753D01*
X108141775Y-55185234D01*
X108153586Y-55114558D01*
X108152927Y-55096818D01*
X108153620Y-55078361D01*
X108155601Y-55060747D01*
X108155602Y-55060742D01*
X108149115Y-54989389D01*
X108148694Y-54982820D01*
X108146037Y-54911216D01*
X108146036Y-54911211D01*
X108146035Y-54911204D01*
X108141825Y-54893986D01*
X108138785Y-54875760D01*
X108132932Y-54811373D01*
X107999115Y-53339387D01*
X107998694Y-53332822D01*
X107996037Y-53261216D01*
X107978255Y-53188490D01*
X107976994Y-53182741D01*
X107962701Y-53109209D01*
X107961144Y-53105472D01*
X107957133Y-53095841D01*
X107951147Y-53077609D01*
X107947713Y-53063564D01*
X107947712Y-53063563D01*
X107947711Y-53063556D01*
X107947707Y-53063547D01*
X107915662Y-52995913D01*
X107913253Y-52990500D01*
X107884458Y-52921372D01*
X107884458Y-52921371D01*
X107876311Y-52909395D01*
X107866785Y-52892754D01*
X107860586Y-52879670D01*
X107860581Y-52879664D01*
X107860579Y-52879660D01*
X107815567Y-52819849D01*
X107812119Y-52815033D01*
X107770005Y-52753127D01*
X107770003Y-52753125D01*
X107759628Y-52743050D01*
X107746933Y-52728651D01*
X107738234Y-52717091D01*
X107738229Y-52717086D01*
X107727200Y-52707355D01*
X107682064Y-52667531D01*
X107677728Y-52663516D01*
X107624033Y-52611372D01*
X107624033Y-52611371D01*
X107611830Y-52603583D01*
X107596509Y-52592044D01*
X107585650Y-52582464D01*
X107585647Y-52582461D01*
X107520677Y-52545237D01*
X107515619Y-52542177D01*
X107484038Y-52522021D01*
X107452506Y-52501896D01*
X107452505Y-52501895D01*
X107452501Y-52501893D01*
X107452498Y-52501892D01*
X107438982Y-52496721D01*
X107421649Y-52488501D01*
X107409097Y-52481309D01*
X107409090Y-52481306D01*
X107337976Y-52457929D01*
X107332397Y-52455946D01*
X107262456Y-52429191D01*
X107248163Y-52426844D01*
X107229535Y-52422282D01*
X107215793Y-52417765D01*
X107215783Y-52417762D01*
X107141416Y-52409178D01*
X107135554Y-52408359D01*
X107061665Y-52396232D01*
X107061654Y-52396232D01*
X107047188Y-52396810D01*
X107028029Y-52396092D01*
X107013651Y-52394433D01*
X107013637Y-52394433D01*
X106939069Y-52400994D01*
X106933162Y-52401372D01*
X106858340Y-52404367D01*
X106844287Y-52407846D01*
X106825364Y-52411001D01*
X88189072Y-54050994D01*
X88183162Y-54051372D01*
X88108337Y-54054367D01*
X88038811Y-54071578D01*
X88032329Y-54073000D01*
X87961989Y-54086464D01*
X87961986Y-54086465D01*
X87945587Y-54093240D01*
X87928046Y-54098999D01*
X87910827Y-54103262D01*
X87910825Y-54103263D01*
X87910823Y-54103264D01*
X87851895Y-54131392D01*
X87846192Y-54134114D01*
X87840127Y-54136811D01*
X87773936Y-54164158D01*
X87773918Y-54164168D01*
X87759221Y-54174103D01*
X87743207Y-54183271D01*
X87727189Y-54190918D01*
X87670075Y-54234157D01*
X87664683Y-54238016D01*
X87605358Y-54278125D01*
X87605347Y-54278134D01*
X87592959Y-54290818D01*
X87579108Y-54303031D01*
X87564961Y-54313742D01*
X87564958Y-54313745D01*
X87517715Y-54367599D01*
X87513210Y-54372465D01*
X87463177Y-54423692D01*
X87463173Y-54423697D01*
X87453587Y-54438621D01*
X87442478Y-54453371D01*
X87430776Y-54466711D01*
X87395345Y-54528965D01*
X87391911Y-54534640D01*
X87353206Y-54594902D01*
X87353202Y-54594909D01*
X87346811Y-54611469D01*
X87338904Y-54628142D01*
X87330133Y-54643556D01*
X87330129Y-54643565D01*
X87307962Y-54711657D01*
X87305741Y-54717907D01*
X87279952Y-54784745D01*
X87279951Y-54784747D01*
X87277028Y-54802240D01*
X87272637Y-54820174D01*
X87267144Y-54837049D01*
X87267141Y-54837060D01*
X87259134Y-54908233D01*
X87258216Y-54914805D01*
X87246413Y-54985439D01*
X87247071Y-55003184D01*
X87246380Y-55021628D01*
X87244398Y-55039257D01*
X78000500Y-55039257D01*
X78000500Y-54546460D01*
X78020185Y-54479421D01*
X78072989Y-54433666D01*
X78114065Y-54422899D01*
X110527610Y-51686596D01*
X125294430Y-51686596D01*
X125300842Y-51759270D01*
X125301238Y-51765595D01*
X125303930Y-51838551D01*
X125307816Y-51854465D01*
X125310875Y-51872981D01*
X125450842Y-53459274D01*
X125451238Y-53465600D01*
X125453930Y-53538554D01*
X125471365Y-53609942D01*
X125472689Y-53616020D01*
X125486529Y-53688229D01*
X125486532Y-53688241D01*
X125492586Y-53702882D01*
X125498453Y-53720837D01*
X125502211Y-53736223D01*
X125502212Y-53736227D01*
X125533665Y-53802652D01*
X125536177Y-53808320D01*
X125550859Y-53843831D01*
X125564274Y-53876280D01*
X125573153Y-53889406D01*
X125582512Y-53905811D01*
X125589290Y-53920125D01*
X125589293Y-53920131D01*
X125621550Y-53963012D01*
X125625351Y-53968066D01*
X125633481Y-53978873D01*
X125637092Y-53983933D01*
X125678281Y-54044827D01*
X125689617Y-54055894D01*
X125702080Y-54070071D01*
X125703814Y-54072375D01*
X125711615Y-54082746D01*
X125766726Y-54131392D01*
X125771285Y-54135624D01*
X125823881Y-54186973D01*
X125823883Y-54186974D01*
X125837210Y-54195530D01*
X125852275Y-54206909D01*
X125864163Y-54217403D01*
X125927953Y-54253969D01*
X125933239Y-54257178D01*
X125995114Y-54296901D01*
X126009905Y-54302604D01*
X126026952Y-54310719D01*
X126040697Y-54318598D01*
X126040702Y-54318599D01*
X126040705Y-54318601D01*
X126110510Y-54341565D01*
X126116373Y-54343658D01*
X126184970Y-54370109D01*
X126200602Y-54372717D01*
X126218932Y-54377234D01*
X126233676Y-54382084D01*
X126233990Y-54382188D01*
X126280186Y-54387529D01*
X126307011Y-54390632D01*
X126313133Y-54391495D01*
X126385676Y-54403601D01*
X126401506Y-54403009D01*
X126420389Y-54403743D01*
X126436122Y-54405564D01*
X126509338Y-54399137D01*
X126515541Y-54398749D01*
X126589017Y-54396005D01*
X126604410Y-54392237D01*
X126623036Y-54389158D01*
X145309334Y-52749137D01*
X145315524Y-52748749D01*
X145389017Y-52746005D01*
X145459944Y-52728645D01*
X145466082Y-52727309D01*
X145537788Y-52713603D01*
X145552924Y-52707352D01*
X145570767Y-52701523D01*
X145586665Y-52697633D01*
X145652630Y-52666358D01*
X145658391Y-52663805D01*
X145725868Y-52635946D01*
X145739422Y-52626786D01*
X145755736Y-52617478D01*
X145770531Y-52610465D01*
X145828875Y-52566534D01*
X145833976Y-52562894D01*
X145894467Y-52522020D01*
X145905909Y-52510309D01*
X145919999Y-52497922D01*
X145933086Y-52488070D01*
X145939049Y-52481309D01*
X145939851Y-52480398D01*
X145981390Y-52433295D01*
X145985654Y-52428703D01*
X146036681Y-52376486D01*
X146045532Y-52362711D01*
X146056839Y-52347743D01*
X146067676Y-52335456D01*
X146103957Y-52272095D01*
X146107206Y-52266741D01*
X146146689Y-52205304D01*
X146152590Y-52190018D01*
X146160658Y-52173073D01*
X146168788Y-52158876D01*
X146191565Y-52089529D01*
X146193693Y-52083571D01*
X146219985Y-52015482D01*
X146222686Y-51999336D01*
X146227175Y-51981117D01*
X146232288Y-51965555D01*
X146240641Y-51893014D01*
X146241517Y-51886809D01*
X146253571Y-51814791D01*
X146252967Y-51798423D01*
X146253698Y-51779659D01*
X146255570Y-51763410D01*
X146249155Y-51690718D01*
X146248760Y-51684399D01*
X146248241Y-51670324D01*
X146246070Y-51611447D01*
X146242184Y-51595537D01*
X146239124Y-51577024D01*
X146099155Y-49990714D01*
X146098760Y-49984396D01*
X146096070Y-49911447D01*
X146078629Y-49840041D01*
X146077305Y-49833962D01*
X146063469Y-49761764D01*
X146057410Y-49747109D01*
X146051546Y-49729159D01*
X146047790Y-49713780D01*
X146047789Y-49713779D01*
X146047789Y-49713776D01*
X146016336Y-49647351D01*
X146013819Y-49641670D01*
X145985726Y-49573722D01*
X145985727Y-49573722D01*
X145976848Y-49560596D01*
X145967486Y-49544186D01*
X145960711Y-49529878D01*
X145960708Y-49529872D01*
X145960707Y-49529871D01*
X145960707Y-49529870D01*
X145916520Y-49471128D01*
X145912905Y-49466062D01*
X145891101Y-49433827D01*
X145871719Y-49405173D01*
X145860384Y-49394106D01*
X145847917Y-49379925D01*
X145838387Y-49367257D01*
X145838386Y-49367256D01*
X145783272Y-49318606D01*
X145778709Y-49314370D01*
X145726119Y-49263027D01*
X145712789Y-49254469D01*
X145697721Y-49243087D01*
X145685836Y-49232596D01*
X145657806Y-49216528D01*
X145622043Y-49196028D01*
X145616761Y-49192821D01*
X145554886Y-49153099D01*
X145554884Y-49153098D01*
X145540094Y-49147395D01*
X145523047Y-49139280D01*
X145509303Y-49131402D01*
X145439483Y-49108432D01*
X145433631Y-49106342D01*
X145365034Y-49079892D01*
X145365026Y-49079890D01*
X145349403Y-49077283D01*
X145331069Y-49072766D01*
X145322772Y-49070036D01*
X145316017Y-49067814D01*
X145316014Y-49067813D01*
X145316013Y-49067813D01*
X145294062Y-49065274D01*
X145242990Y-49059367D01*
X145236830Y-49058497D01*
X145164325Y-49046399D01*
X145164324Y-49046399D01*
X145163631Y-49046424D01*
X145148479Y-49046990D01*
X145129618Y-49046256D01*
X145123192Y-49045513D01*
X145113878Y-49044436D01*
X145113875Y-49044436D01*
X145113874Y-49044436D01*
X145040668Y-49050860D01*
X145034459Y-49051248D01*
X144960994Y-49053993D01*
X144960984Y-49053994D01*
X144960983Y-49053995D01*
X144946218Y-49057608D01*
X144945586Y-49057763D01*
X144926955Y-49060841D01*
X126240675Y-50700860D01*
X126234465Y-50701248D01*
X126160992Y-50703993D01*
X126160986Y-50703994D01*
X126090105Y-50721341D01*
X126083913Y-50722689D01*
X126012220Y-50736394D01*
X126012202Y-50736400D01*
X125997074Y-50742646D01*
X125979239Y-50748474D01*
X125963333Y-50752367D01*
X125963331Y-50752368D01*
X125897379Y-50783634D01*
X125891587Y-50786201D01*
X125824132Y-50814053D01*
X125824131Y-50814053D01*
X125810565Y-50823220D01*
X125794269Y-50832518D01*
X125779473Y-50839532D01*
X125779465Y-50839537D01*
X125721163Y-50883435D01*
X125716006Y-50887115D01*
X125655533Y-50927979D01*
X125644081Y-50939697D01*
X125629996Y-50952079D01*
X125616916Y-50961928D01*
X125568632Y-51016678D01*
X125564320Y-51021322D01*
X125513321Y-51073512D01*
X125513317Y-51073516D01*
X125504462Y-51087294D01*
X125493159Y-51102257D01*
X125482322Y-51114546D01*
X125446061Y-51177870D01*
X125442773Y-51183285D01*
X125403314Y-51244689D01*
X125403309Y-51244697D01*
X125397407Y-51259982D01*
X125389346Y-51276916D01*
X125381213Y-51291121D01*
X125381212Y-51291122D01*
X125358434Y-51360466D01*
X125356304Y-51366432D01*
X125330015Y-51434518D01*
X125327314Y-51450658D01*
X125322823Y-51468882D01*
X125317714Y-51484436D01*
X125317710Y-51484452D01*
X125309358Y-51556964D01*
X125308472Y-51563240D01*
X125296429Y-51635206D01*
X125297032Y-51651581D01*
X125296303Y-51670324D01*
X125294683Y-51684399D01*
X125294430Y-51686595D01*
X125294430Y-51686596D01*
X110527610Y-51686596D01*
X153333474Y-48072989D01*
X154186960Y-48000939D01*
X154197391Y-48000500D01*
X170352691Y-48000500D01*
X170419730Y-48020185D01*
G37*
%TD.AperFunction*%
%TD*%
M02*
