%TF.GenerationSoftware,KiCad,Pcbnew,7.0.10*%
%TF.CreationDate,2024-04-26T10:19:58+01:00*%
%TF.ProjectId,sides,73696465-732e-46b6-9963-61645f706362,rev?*%
%TF.SameCoordinates,Original*%
%TF.FileFunction,Profile,NP*%
%FSLAX46Y46*%
G04 Gerber Fmt 4.6, Leading zero omitted, Abs format (unit mm)*
G04 Created by KiCad (PCBNEW 7.0.10) date 2024-04-26 10:19:58*
%MOMM*%
%LPD*%
G01*
G04 APERTURE LIST*
%TA.AperFunction,Profile*%
%ADD10C,0.100000*%
%TD*%
G04 APERTURE END LIST*
D10*
X77000000Y-78050000D02*
G75*
G03*
X77450000Y-78500000I450000J0D01*
G01*
X77450000Y-78500000D02*
X176300000Y-78500000D01*
X139500000Y-63500000D02*
G75*
G03*
X139000000Y-64000000I0J-500000D01*
G01*
X177000000Y-47700000D02*
G75*
G03*
X176300000Y-47000000I-700000J0D01*
G01*
X77000000Y-78050000D02*
X77000000Y-54150000D01*
X176300000Y-78500000D02*
G75*
G03*
X177000000Y-77800000I0J700000D01*
G01*
X177000000Y-77800000D02*
X177000000Y-47700000D01*
X150000000Y-64000000D02*
G75*
G03*
X149500000Y-63500000I-500000J0D01*
G01*
X176300000Y-47000000D02*
X154150000Y-47000000D01*
X149600000Y-69300000D02*
X139500000Y-69300000D01*
X149600000Y-69300000D02*
G75*
G03*
X150000000Y-68900000I0J400000D01*
G01*
X139500000Y-63500000D02*
X149500000Y-63500000D01*
X139000000Y-68800000D02*
X139000000Y-64000000D01*
X77744975Y-53449957D02*
G75*
G03*
X77000001Y-54150000I25J-746443D01*
G01*
X150000000Y-64000000D02*
X150000000Y-68900000D01*
X145250000Y-51750000D02*
X126450000Y-53400000D01*
X126300000Y-51700000D01*
X145100000Y-50050000D01*
X145250000Y-51750000D01*
X77744975Y-53450000D02*
X154150000Y-47000000D01*
X107150000Y-55050000D02*
X88400000Y-56700000D01*
X88250000Y-55050000D01*
X107000000Y-53400000D01*
X107150000Y-55050000D01*
X139000000Y-68800000D02*
G75*
G03*
X139500000Y-69300000I500000J0D01*
G01*
M02*
