%TF.GenerationSoftware,KiCad,Pcbnew,7.0.10*%
%TF.CreationDate,2024-04-26T10:19:57+01:00*%
%TF.ProjectId,sides,73696465-732e-46b6-9963-61645f706362,rev?*%
%TF.SameCoordinates,Original*%
%TF.FileFunction,Legend,Top*%
%TF.FilePolarity,Positive*%
%FSLAX46Y46*%
G04 Gerber Fmt 4.6, Leading zero omitted, Abs format (unit mm)*
G04 Created by KiCad (PCBNEW 7.0.10) date 2024-04-26 10:19:57*
%MOMM*%
%LPD*%
G01*
G04 APERTURE LIST*
%ADD10C,0.250000*%
%ADD11C,0.400000*%
%ADD12C,0.150000*%
G04 APERTURE END LIST*
D10*
X137800000Y-68900000D02*
X137800000Y-63700000D01*
X151100000Y-69200000D02*
X151100000Y-63800000D01*
D11*
X134420299Y-65204438D02*
X134801252Y-65204438D01*
X134801252Y-65204438D02*
X134991728Y-65299676D01*
X134991728Y-65299676D02*
X135182204Y-65490152D01*
X135182204Y-65490152D02*
X135277442Y-65871104D01*
X135277442Y-65871104D02*
X135277442Y-66537771D01*
X135277442Y-66537771D02*
X135182204Y-66918723D01*
X135182204Y-66918723D02*
X134991728Y-67109200D01*
X134991728Y-67109200D02*
X134801252Y-67204438D01*
X134801252Y-67204438D02*
X134420299Y-67204438D01*
X134420299Y-67204438D02*
X134229823Y-67109200D01*
X134229823Y-67109200D02*
X134039347Y-66918723D01*
X134039347Y-66918723D02*
X133944109Y-66537771D01*
X133944109Y-66537771D02*
X133944109Y-65871104D01*
X133944109Y-65871104D02*
X134039347Y-65490152D01*
X134039347Y-65490152D02*
X134229823Y-65299676D01*
X134229823Y-65299676D02*
X134420299Y-65204438D01*
X136134585Y-67204438D02*
X136134585Y-65204438D01*
X136134585Y-65204438D02*
X137277442Y-67204438D01*
X137277442Y-67204438D02*
X137277442Y-65204438D01*
X152070175Y-65204438D02*
X152451128Y-65204438D01*
X152451128Y-65204438D02*
X152641604Y-65299676D01*
X152641604Y-65299676D02*
X152832080Y-65490152D01*
X152832080Y-65490152D02*
X152927318Y-65871104D01*
X152927318Y-65871104D02*
X152927318Y-66537771D01*
X152927318Y-66537771D02*
X152832080Y-66918723D01*
X152832080Y-66918723D02*
X152641604Y-67109200D01*
X152641604Y-67109200D02*
X152451128Y-67204438D01*
X152451128Y-67204438D02*
X152070175Y-67204438D01*
X152070175Y-67204438D02*
X151879699Y-67109200D01*
X151879699Y-67109200D02*
X151689223Y-66918723D01*
X151689223Y-66918723D02*
X151593985Y-66537771D01*
X151593985Y-66537771D02*
X151593985Y-65871104D01*
X151593985Y-65871104D02*
X151689223Y-65490152D01*
X151689223Y-65490152D02*
X151879699Y-65299676D01*
X151879699Y-65299676D02*
X152070175Y-65204438D01*
X154451128Y-66156819D02*
X153784461Y-66156819D01*
X153784461Y-67204438D02*
X153784461Y-65204438D01*
X153784461Y-65204438D02*
X154736842Y-65204438D01*
X156165414Y-66156819D02*
X155498747Y-66156819D01*
X155498747Y-67204438D02*
X155498747Y-65204438D01*
X155498747Y-65204438D02*
X156451128Y-65204438D01*
D12*
X171288095Y-46704819D02*
X171288095Y-45704819D01*
X171288095Y-46181009D02*
X171859523Y-46181009D01*
X171859523Y-46704819D02*
X171859523Y-45704819D01*
X172240476Y-45704819D02*
X172859523Y-45704819D01*
X172859523Y-45704819D02*
X172526190Y-46085771D01*
X172526190Y-46085771D02*
X172669047Y-46085771D01*
X172669047Y-46085771D02*
X172764285Y-46133390D01*
X172764285Y-46133390D02*
X172811904Y-46181009D01*
X172811904Y-46181009D02*
X172859523Y-46276247D01*
X172859523Y-46276247D02*
X172859523Y-46514342D01*
X172859523Y-46514342D02*
X172811904Y-46609580D01*
X172811904Y-46609580D02*
X172764285Y-46657200D01*
X172764285Y-46657200D02*
X172669047Y-46704819D01*
X172669047Y-46704819D02*
X172383333Y-46704819D01*
X172383333Y-46704819D02*
X172288095Y-46657200D01*
X172288095Y-46657200D02*
X172240476Y-46609580D01*
M02*
