M48
; DRILL file {KiCad 7.0.10} date dom 28 abr 2024 09:55:53
; FORMAT={-:-/ absolute / inch / decimal}
; #@! TF.CreationDate,2024-04-28T09:55:53+01:00
; #@! TF.GenerationSoftware,Kicad,Pcbnew,7.0.10
; #@! TF.FileFunction,Plated,1,2,PTH
FMAT,2
INCH
; #@! TA.AperFunction,Plated,PTH,ComponentDrill
T1C0.0118
; #@! TA.AperFunction,Plated,PTH,ViaDrill
T2C0.0157
; #@! TA.AperFunction,Plated,PTH,ComponentDrill
T3C0.0236
; #@! TA.AperFunction,Plated,PTH,ComponentDrill
T4C0.0276
; #@! TA.AperFunction,Plated,PTH,ComponentDrill
T5C0.0295
; #@! TA.AperFunction,Plated,PTH,ComponentDrill
T6C0.0315
; #@! TA.AperFunction,Plated,PTH,ComponentDrill
T7C0.0354
; #@! TA.AperFunction,Plated,PTH,ComponentDrill
T8C0.0390
; #@! TA.AperFunction,Plated,PTH,ComponentDrill
T9C0.0394
; #@! TA.AperFunction,Plated,PTH,ComponentDrill
T10C0.0472
; #@! TA.AperFunction,Plated,PTH,ComponentDrill
T11C0.0512
; #@! TA.AperFunction,Plated,PTH,ComponentDrill
T12C0.1260
%
G90
G05
T2
X1.62Y-1.8
X1.62Y-5.21
X1.64Y-3.68
X1.7037Y-2.1537
X1.725Y-3.9
X1.7458Y-3.7958
X1.77Y-4.9
X1.7798Y-5.0802
X1.81Y-3.88
X1.82Y-3.5
X1.84Y-3.4
X1.84Y-4.79
X1.85Y-5.46
X1.86Y-2.8
X1.8651Y-4.3693
X1.89Y-1.98
X1.9343Y-3.825
X1.94Y-1.62
X1.94Y-2.07
X1.96Y-5.17
X1.975Y-3.475
X1.975Y-4.4
X1.985Y-1.99
X2.035Y-2.07
X2.07Y-4.84
X2.0715Y-5.38
X2.075Y-3.825
X2.1Y-1.8
X2.1063Y-5.2854
X2.1236Y-4.1162
X2.13Y-2.07
X2.15Y-4.4
X2.2Y-3.46
X2.225Y-1.8
X2.235Y-2.07
X2.2441Y-3.7756
X2.245Y-4.84
X2.268Y-3.141
X2.275Y-4.325
X2.2781Y-3.0093
X2.321Y-3.194
X2.325Y-1.8
X2.33Y-2.07
X2.3352Y-3.0108
X2.339Y-3.114
X2.34Y-2.33
X2.3425Y-4.8335
X2.3465Y-3.7992
X2.35Y-2.88
X2.35Y-4.425
X2.35Y-5.2937
X2.36Y-2.76
X2.374Y-3.4764
X2.3868Y-3.0396
X2.408Y-3.177
X2.425Y-1.8
X2.44Y-2.235
X2.44Y-4.84
X2.445Y-1.99
X2.454Y-2.758
X2.46Y-3.44
X2.465Y-4.93
X2.4685Y-4.3307
X2.4816Y-2.9093
X2.4838Y-3.3441
X2.49Y-3.01
X2.4972Y-3.1972
X2.525Y-1.8
X2.5316Y-2.9593
X2.54Y-5.37
X2.545Y-1.99
X2.5566Y-3.8093
X2.5871Y-3.4563
X2.5948Y-3.3587
X2.598Y-3.044
X2.6066Y-2.9879
X2.615Y-5.18
X2.618Y-4.23
X2.625Y-1.8
X2.66Y-1.985
X2.66Y-2.34
X2.6708Y-3.0236
X2.676Y-2.754
X2.6772Y-2.0709
X2.69Y-2.45
X2.72Y-4.12
X2.725Y-1.8
X2.7283Y-3.9291
X2.735Y-5.325
X2.754Y-3.094
X2.758Y-2.754
X2.7602Y-4.9233
X2.7795Y-2.0709
X2.78Y-1.985
X2.78Y-2.4
X2.8066Y-3.0843
X2.8066Y-3.7343
X2.825Y-1.8
X2.8485Y-2.3917
X2.85Y-4.525
X2.854Y-2.756
X2.855Y-2.59
X2.861Y-4.076
X2.87Y-4.41
X2.88Y-1.98
X2.8858Y-4.1732
X2.925Y-1.8
X2.9297Y-3.563
X2.93Y-2.748
X2.9685Y-2.3228
X2.97Y-2.8
X2.975Y-4.65
X2.9764Y-2.0748
X2.98Y-1.98
X2.985Y-2.445
X3.025Y-1.8
X3.06Y-2.58
X3.075Y-4.95
X3.0787Y-2.2677
X3.08Y-1.98
X3.085Y-2.445
X3.1Y-4.75
X3.1Y-4.8539
X3.11Y-4.66
X3.12Y-3.17
X3.14Y-2.75
X3.15Y-2.83
X3.16Y-2.58
X3.16Y-5.105
X3.178Y-3.503
X3.18Y-1.985
X3.18Y-2.445
X3.1811Y-2.2756
X3.189Y-2.189
X3.23Y-4.75
X3.24Y-2.75
X3.26Y-2.58
X3.26Y-3.034
X3.265Y-2.821
X3.28Y-2.445
X3.2835Y-2.189
X3.285Y-1.985
X3.285Y-2.901
X3.29Y-4.95
X3.32Y-4.85
X3.338Y-2.751
X3.36Y-2.58
X3.36Y-2.92
X3.38Y-1.985
X3.38Y-2.445
X3.38Y-3.16
X3.3857Y-4.1357
X3.436Y-2.756
X3.44Y-2.98
X3.4564Y-2.2093
X3.46Y-3.08
X3.48Y-1.985
X3.49Y-2.445
X3.5Y-4.31
X3.5194Y-5.3306
X3.5316Y-2.2093
X3.54Y-3.0
X3.575Y-5.3788
X3.585Y-1.985
X3.6Y-5.025
X3.6123Y-3.7289
X3.65Y-3.7174
X3.6595Y-3.675
X3.66Y-2.66
X3.6641Y-3.925
X3.67Y-2.015
X3.675Y-4.675
X3.6766Y-2.5893
X3.6933Y-2.0807
X3.7Y-4.475
X3.7166Y-2.5211
X3.7193Y-2.5642
X3.725Y-4.8
X3.725Y-4.9
X3.7327Y-3.4077
X3.7343Y-3.4819
X3.75Y-5.3
X3.7605Y-3.4355
X3.7609Y-2.5103
X3.778Y-2.002
X3.79Y-3.24
X3.8022Y-2.5112
X3.8029Y-4.0843
X3.8224Y-2.4774
X3.8229Y-3.7611
X3.8287Y-3.825
X3.86Y-4.94
X3.86Y-5.08
X3.86Y-5.26
X3.8659Y-4.6999
X3.8682Y-3.6201
X3.88Y-3.34
X3.882Y-2.084
X3.9Y-2.68
X3.9Y-2.92
X3.9037Y-3.8343
X3.92Y-5.18
X3.925Y-4.9
X3.9566Y-5.3502
X3.98Y-4.865
X4.03Y-4.355
X4.04Y-3.9
X4.095Y-2.65
X4.1316Y-3.1843
X4.16Y-4.1032
X4.16Y-5.16
X4.1721Y-4.6471
X4.19Y-2.85
X4.2098Y-3.775
X4.22Y-2.95
X4.22Y-3.14
X4.2618Y-4.0551
X4.275Y-4.775
X4.2965Y-4.65
X4.3Y-3.94
X4.31Y-2.93
X4.32Y-4.08
X4.325Y-5.075
X4.3316Y-2.388
X4.34Y-2.84
X4.35Y-2.5129
X4.3549Y-3.1799
X4.375Y-4.775
X4.3965Y-4.65
X4.4Y-2.525
X4.425Y-2.875
X4.435Y-4.037
X4.45Y-2.55
X4.45Y-2.6
X4.4566Y-3.1593
X4.475Y-4.65
X4.48Y-4.0501
X4.5198Y-4.3148
X4.52Y-4.02
X4.525Y-2.875
X4.525Y-5.075
X4.57Y-2.9707
X4.57Y-3.94
X4.575Y-4.6493
X4.625Y-2.375
X4.625Y-5.075
X4.65Y-4.1
X4.654Y-3.9523
X4.675Y-2.4142
X4.6816Y-3.8843
X4.7Y-2.85
X4.7Y-2.96
X4.7112Y-4.1032
X4.72Y-4.34
X4.725Y-5.075
X4.75Y-2.45
X4.7692Y-3.9321
X4.775Y-2.525
X4.7786Y-4.0415
X4.7812Y-3.225
X4.8066Y-3.8343
X4.821Y-4.075
X4.86Y-5.22
X4.9Y-4.98
X4.9Y-5.1035
X4.92Y-4.32
X4.92Y-4.5
X4.95Y-2.45
X4.98Y-5.22
X5.0066Y-5.1093
X5.02Y-4.42
X5.0338Y-2.9593
X5.0472Y-3.4764
X5.06Y-4.52
X5.0889Y-3.2379
X5.1066Y-5.3593
X5.11Y-5.2
X5.12Y-2.7
X5.1816Y-4.5343
X5.2Y-2.94
X5.25Y-3.9
X5.2566Y-4.5629
X5.27Y-4.89
X5.2982Y-2.2268
X5.32Y-3.98
X5.325Y-1.875
X5.3316Y-5.1093
X5.35Y-3.475
X5.36Y-2.94
X5.36Y-5.2
X5.3827Y-2.2577
X5.42Y-3.74
X5.425Y-1.875
X5.425Y-2.625
X5.445Y-4.9
X5.46Y-5.2
X5.4843Y-3.475
X5.49Y-3.78
X5.5Y-2.9
X5.525Y-1.875
X5.535Y-4.86
X5.55Y-3.375
X5.5555Y-3.2488
X5.575Y-4.93
X5.6Y-2.925
X5.6Y-5.175
X5.62Y-4.52
X5.625Y-3.725
X5.65Y-1.875
X5.65Y-3.375
X5.65Y-4.915
X5.7Y-2.96
X5.7Y-5.175
X5.7066Y-4.6343
X5.7179Y-3.2203
X5.725Y-3.725
X5.725Y-4.325
X5.74Y-4.87
X5.7475Y-4.2225
X5.75Y-1.875
X5.775Y-3.375
X5.8Y-2.96
X5.8Y-5.175
X5.806Y-4.776
X5.8143Y-4.642
X5.8316Y-5.3593
X5.85Y-1.875
X5.85Y-4.25
X5.875Y-3.7
X5.875Y-4.35
X5.8893Y-4.89
X5.9Y-3.375
X5.9464Y-5.05
X5.95Y-1.875
X5.95Y-4.775
X5.95Y-5.3965
X5.986Y-5.148
X6.0Y-4.225
X6.0226Y-4.8387
X6.0334Y-4.9034
X6.05Y-1.875
X6.06Y-3.64
X6.0689Y-3.2733
X6.12Y-2.96
X6.12Y-5.3
X6.1342Y-3.2704
X6.1371Y-4.4879
X6.15Y-1.875
X6.1566Y-2.2629
X6.1566Y-2.3022
X6.1566Y-2.345
X6.1566Y-2.3843
X6.1566Y-2.4343
X6.1566Y-2.4843
X6.1566Y-2.5343
X6.1566Y-2.5843
X6.1662Y-3.2933
X6.1705Y-2.6654
X6.199Y-3.0903
X6.2Y-3.18
X6.2Y-3.52
X6.2Y-4.36
X6.2028Y-3.311
X6.22Y-2.78
X6.254Y-2.016
X6.26Y-2.32
X6.275Y-4.225
X6.28Y-4.82
X6.3228Y-3.3583
X6.325Y-2.85
X6.338Y-3.6598
X6.356Y-5.242
X6.38Y-4.52
X6.3928Y-2.5205
X6.4Y-2.22
X6.406Y-2.032
X6.425Y-2.85
X6.456Y-5.238
X6.5472Y-4.5157
X6.556Y-5.238
X6.5562Y-4.6039
X6.5864Y-4.4641
X6.656Y-5.24
X6.675Y-2.825
X6.6816Y-4.0343
X6.756Y-5.24
X6.76Y-4.12
X6.78Y-3.74
X6.8Y-4.52
X6.8346Y-3.0866
X6.862Y-5.242
X6.8976Y-4.4055
X6.925Y-2.85
X6.94Y-4.28
X6.9409Y-4.626
X7.0039Y-4.4173
X7.02Y-5.18
X7.0354Y-4.626
X7.06Y-3.94
X7.075Y-3.175
X7.1102Y-4.6614
X7.125Y-4.8539
X7.175Y-4.95
X7.18Y-4.26
X7.22Y-2.13
X7.25Y-2.825
X7.26Y-4.04
X7.275Y-3.175
X7.3Y-4.52
X7.31Y-2.13
X7.32Y-5.3
X7.37Y-4.86
X7.4Y-4.95
X7.4016Y-4.3346
X7.4055Y-4.2205
X7.45Y-3.97
X7.475Y-3.375
X7.5039Y-4.3307
X7.5079Y-4.2165
X7.55Y-3.425
X7.575Y-3.7
X7.6063Y-4.3268
X7.6102Y-4.2165
X7.6142Y-3.3858
X7.689Y-3.7638
X7.7047Y-4.2165
X7.7047Y-4.3228
X7.73Y-3.695
X7.7362Y-3.3307
X7.75Y-3.4
X7.75Y-4.575
X7.78Y-5.24
X7.8031Y-4.3228
X7.8062Y-4.9075
X7.8071Y-4.2165
X7.82Y-3.16
X7.86Y-3.44
X7.86Y-3.97
X7.8926Y-4.9426
X7.8976Y-3.7638
X7.9016Y-4.2165
X7.9055Y-4.3228
X7.9331Y-5.0118
X7.96Y-2.6
X7.96Y-3.16
X8.0Y-5.1
X8.0039Y-4.2165
X8.0039Y-4.3268
X8.025Y-4.625
X8.18Y-5.34
X8.22Y-2.76
X8.225Y-3.1129
X8.3Y-2.9058
X8.32Y-3.2
X8.32Y-3.54
X8.34Y-3.74
X8.34Y-4.02
X8.34Y-4.92
X8.36Y-4.36
X8.36Y-4.64
X8.4Y-2.8
X8.525Y-2.825
X8.54Y-2.925
X8.563Y-4.9449
X8.6339Y-4.5472
X8.675Y-2.825
X8.685Y-4.5039
X8.7283Y-4.5551
X8.74Y-5.12
X8.775Y-2.825
X8.7874Y-4.5
X8.814Y-5.188
X8.85Y-4.575
X8.88Y-5.12
X8.9Y-2.825
X8.98Y-4.84
X8.982Y-5.186
X8.99Y-4.58
X9.04Y-5.12
X9.054Y-4.06
X9.118Y-5.188
X9.125Y-2.825
X9.175Y-3.375
X9.19Y-3.76
X9.246Y-2.574
X9.2775Y-4.9701
X9.2835Y-5.1575
X9.3Y-3.05
X9.3Y-4.06
X9.3109Y-4.9493
X9.318Y-2.552
X9.3258Y-2.9492
X9.326Y-5.188
X9.35Y-3.61
X9.36Y-4.26
X9.36Y-4.88
X9.375Y-3.1346
X9.38Y-3.22
X9.398Y-2.546
X9.425Y-3.425
X9.46Y-4.15
X9.46Y-4.42
X9.475Y-4.925
X9.4781Y-2.8093
X9.5077Y-2.7834
X9.54Y-2.12
X9.54Y-3.4
X9.55Y-4.12
X9.55Y-4.875
X9.56Y-2.88
X9.58Y-3.86
X9.598Y-2.768
X9.6Y-4.64
X9.621Y-3.3488
X9.635Y-4.495
X9.64Y-3.48
X9.65Y-3.1
X9.68Y-2.88
X9.68Y-3.76
X9.7Y-4.64
X9.702Y-2.77
X9.72Y-3.4
X9.73Y-2.12
X9.7771Y-4.22
X9.78Y-2.88
X9.78Y-3.7
X9.8Y-4.64
X9.84Y-3.36
X9.86Y-3.84
X9.88Y-2.88
X9.88Y-4.34
X9.9Y-4.22
X9.9Y-4.625
X9.9134Y-3.9134
X9.92Y-4.72
X9.96Y-3.38
X9.975Y-3.1
X10.0Y-3.175
X10.02Y-4.72
X10.054Y-3.468
X10.08Y-2.86
X10.156Y-3.41
X10.18Y-3.69
X10.18Y-3.752
X10.18Y-3.82
X10.18Y-4.72
X10.2Y-2.55
X10.225Y-1.65
X10.26Y-4.1
X10.28Y-2.6
X10.28Y-4.32
X10.325Y-2.8
X10.325Y-3.0
X10.366Y-4.32
X10.44Y-4.83
X10.47Y-4.32
X10.55Y-3.2
T3
X2.0118Y-2.7393
X2.0118Y-2.7983
T4
X1.8Y-3.025
X1.8Y-3.325
X1.9Y-3.025
X1.9Y-3.325
X2.0Y-3.025
X2.0Y-3.325
X2.025Y-5.1343
X2.025Y-5.4343
X2.1Y-3.025
X2.1Y-3.325
X2.2Y-5.1343
X2.2Y-5.4343
X2.29Y-5.1343
X2.29Y-5.4343
X2.47Y-5.1358
X2.47Y-5.4358
X2.5591Y-5.135
X2.5591Y-5.435
X2.7066Y-3.7343
X2.7066Y-4.0343
X3.7027Y-3.2343
X3.7066Y-2.7343
X3.7066Y-2.8343
X3.7066Y-2.9343
X3.7066Y-3.0343
X3.7066Y-3.1343
X3.7066Y-3.3343
X4.0027Y-3.2343
X4.0066Y-2.7343
X4.0066Y-2.8343
X4.0066Y-2.9343
X4.0066Y-3.0343
X4.0066Y-3.1343
X4.0066Y-3.3343
X6.6066Y-2.2593
X6.9066Y-2.2593
X7.4566Y-2.2343
X7.4566Y-2.5343
X7.5466Y-2.2343
X7.5466Y-2.5343
X7.6866Y-2.2343
X7.6866Y-2.5343
X7.7766Y-2.2343
X7.7766Y-2.5343
X7.9112Y-2.2343
X7.9112Y-2.5343
X9.1116Y-2.2547
X9.1116Y-2.3295
X9.1116Y-2.4095
X9.1116Y-2.4843
X9.2016Y-2.2547
X9.2016Y-2.3295
X9.2016Y-2.4095
X9.2016Y-2.4843
X9.2916Y-2.2547
X9.2916Y-2.3295
X9.2916Y-2.4095
X9.2916Y-2.4843
X9.3816Y-2.2545
X9.3816Y-2.3293
X9.3816Y-2.4095
X9.3816Y-2.4843
X9.4716Y-2.2547
X9.4716Y-2.3295
X9.5966Y-2.2593
X9.5966Y-2.3341
X9.6866Y-2.2593
X9.6866Y-2.3341
X9.6866Y-2.4142
X9.6866Y-2.489
X9.7766Y-2.2593
X9.7766Y-2.3341
X9.7766Y-2.4142
X9.7766Y-2.489
X9.8666Y-2.2593
X9.8666Y-2.3341
X9.8666Y-2.4142
X9.8666Y-2.489
X9.9566Y-2.2602
X9.9566Y-2.335
X9.9566Y-2.4141
X9.9566Y-2.4889
X10.4Y-3.3
X10.4Y-3.6
X10.5Y-3.3
X10.5Y-3.6
X10.6Y-3.3
X10.6Y-3.6
T5
X2.11Y-5.1343
X2.11Y-5.4343
X2.38Y-5.1376
X2.38Y-5.4376
X2.5066Y-3.7343
X2.5066Y-4.0343
X2.6066Y-3.7343
X2.6066Y-4.0343
X10.7Y-3.3
X10.7Y-3.6
T6
X1.65Y-4.225
X1.65Y-4.3234
X1.6566Y-4.4516
X1.6566Y-4.55
X1.68Y-3.4593
X1.68Y-3.5578
X1.7Y-3.0258
X1.7Y-3.1242
X1.7Y-3.225
X1.7Y-3.3234
X1.7316Y-4.7093
X1.7316Y-5.0093
X1.75Y-3.6789
X1.75Y-3.9789
X1.8316Y-4.2343
X1.8316Y-4.5343
X1.8316Y-4.7093
X1.8316Y-5.0093
X1.85Y-3.6789
X1.85Y-3.9789
X1.88Y-3.48
X1.9316Y-4.2343
X1.9316Y-4.5343
X1.9316Y-4.7093
X1.9316Y-5.0093
X1.95Y-3.6789
X1.95Y-3.9789
X2.0316Y-4.2343
X2.0316Y-4.5343
X2.0316Y-4.7093
X2.0316Y-5.0093
X2.0472Y-2.3819
X2.0472Y-2.4803
X2.05Y-3.6789
X2.05Y-3.9789
X2.0721Y-3.48
X2.1316Y-4.2343
X2.1316Y-4.5343
X2.1316Y-4.7093
X2.1316Y-5.0093
X2.15Y-3.6789
X2.15Y-3.9789
X2.2316Y-4.2343
X2.2316Y-4.5343
X2.2316Y-4.7093
X2.2316Y-5.0093
X2.25Y-3.6789
X2.25Y-3.9789
X2.2556Y-2.6791
X2.2556Y-3.2791
X2.2566Y-2.5593
X2.3316Y-4.2343
X2.3316Y-4.5343
X2.3316Y-4.7093
X2.3316Y-5.0093
X2.35Y-3.6789
X2.35Y-3.9789
X2.355Y-2.5593
X2.3556Y-2.6791
X2.3556Y-3.2791
X2.4316Y-4.2343
X2.4316Y-4.5343
X2.4316Y-4.7093
X2.4316Y-5.0093
X2.4556Y-2.6791
X2.4556Y-3.2791
X2.5556Y-2.6791
X2.5556Y-3.2791
X2.6082Y-3.6093
X2.6556Y-2.6791
X2.6556Y-3.2791
X2.7066Y-3.6093
X2.7556Y-2.6791
X2.7556Y-3.2791
X2.8062Y-4.5539
X2.8062Y-4.6539
X2.8062Y-4.7539
X2.8062Y-4.8539
X2.8062Y-4.9539
X2.8062Y-5.0539
X2.8556Y-2.6791
X2.8556Y-3.2791
X2.8812Y-3.6593
X2.8812Y-3.7593
X2.8812Y-3.8593
X2.8812Y-3.9593
X2.9062Y-4.4539
X2.9062Y-4.5539
X2.9062Y-4.6539
X2.9062Y-4.7539
X2.9062Y-4.8539
X2.9062Y-4.9539
X2.9062Y-5.0539
X2.9062Y-5.1539
X2.9556Y-2.6791
X2.9556Y-3.2791
X2.9812Y-3.5593
X2.9812Y-3.6593
X2.9812Y-3.7593
X2.9812Y-3.8593
X2.9812Y-3.9593
X2.9812Y-4.0593
X3.0062Y-4.4539
X3.0062Y-4.5539
X3.0062Y-5.0539
X3.0062Y-5.1539
X3.0556Y-2.6791
X3.0556Y-3.2791
X3.0812Y-3.5593
X3.0812Y-3.6593
X3.0812Y-3.9593
X3.0812Y-4.0593
X3.1062Y-4.4539
X3.1062Y-4.5539
X3.1062Y-5.0539
X3.1062Y-5.1539
X3.1556Y-2.6791
X3.1556Y-3.2791
X3.1812Y-3.5593
X3.1812Y-3.6593
X3.1812Y-3.9593
X3.1812Y-4.0593
X3.2016Y-4.2593
X3.2062Y-4.4539
X3.2062Y-4.5539
X3.2062Y-5.0539
X3.2062Y-5.1539
X3.2556Y-2.6791
X3.2556Y-3.2791
X3.2812Y-3.5593
X3.2812Y-3.6593
X3.2812Y-3.9593
X3.2812Y-4.0593
X3.3Y-4.2593
X3.3062Y-4.4539
X3.3062Y-4.5539
X3.3062Y-5.0539
X3.3062Y-5.1539
X3.3556Y-2.6791
X3.3556Y-3.2791
X3.3812Y-3.5593
X3.3812Y-3.6593
X3.3812Y-3.7593
X3.3812Y-3.8593
X3.3812Y-3.9593
X3.3812Y-4.0593
X3.4062Y-4.4539
X3.4062Y-4.5539
X3.4062Y-4.6539
X3.4062Y-4.7539
X3.4062Y-4.8539
X3.4062Y-4.9539
X3.4062Y-5.0539
X3.4062Y-5.1539
X3.4556Y-2.6791
X3.4556Y-3.2791
X3.4812Y-3.6593
X3.4812Y-3.7593
X3.4812Y-3.8593
X3.4812Y-3.9593
X3.5062Y-4.5539
X3.5062Y-4.6539
X3.5062Y-4.7539
X3.5062Y-4.8539
X3.5062Y-4.9539
X3.5062Y-5.0539
X3.5556Y-2.6791
X3.5556Y-3.2791
X3.9966Y-3.5093
X3.9966Y-3.6078
X4.0Y-4.425
X4.0Y-4.5234
X4.0Y-4.975
X4.0Y-5.0734
X4.125Y-2.7593
X4.125Y-3.0593
X4.125Y-4.4289
X4.125Y-4.7289
X4.125Y-4.9843
X4.125Y-5.2843
X4.1566Y-2.6093
X4.1812Y-3.4039
X4.1812Y-3.5039
X4.1812Y-3.6039
X4.1812Y-3.7039
X4.225Y-2.7593
X4.225Y-3.0593
X4.225Y-4.4289
X4.225Y-4.7289
X4.225Y-4.9843
X4.225Y-5.2843
X4.255Y-2.6093
X4.2812Y-3.3039
X4.2812Y-3.4039
X4.2812Y-3.5039
X4.2812Y-3.6039
X4.2812Y-3.7039
X4.2812Y-3.8039
X4.325Y-2.7593
X4.325Y-3.0593
X4.325Y-4.4289
X4.325Y-4.7289
X4.325Y-4.9843
X4.325Y-5.2843
X4.3812Y-3.3039
X4.3812Y-3.4039
X4.3812Y-3.7039
X4.3812Y-3.8039
X4.425Y-2.7593
X4.425Y-3.0593
X4.425Y-4.4289
X4.425Y-4.7289
X4.425Y-4.9843
X4.425Y-5.2843
X4.4812Y-3.3039
X4.4812Y-3.4039
X4.4812Y-3.7039
X4.4812Y-3.8039
X4.525Y-2.7593
X4.525Y-3.0593
X4.525Y-4.4289
X4.525Y-4.7289
X4.525Y-4.9843
X4.525Y-5.2843
X4.5812Y-3.3039
X4.5812Y-3.4039
X4.5812Y-3.7039
X4.5812Y-3.8039
X4.625Y-2.7593
X4.625Y-3.0593
X4.625Y-4.4289
X4.625Y-4.7289
X4.625Y-4.9843
X4.625Y-5.2843
X4.6812Y-3.3039
X4.6812Y-3.4039
X4.6812Y-3.5039
X4.6812Y-3.6039
X4.6812Y-3.7039
X4.6812Y-3.8039
X4.725Y-2.7593
X4.725Y-3.0593
X4.725Y-4.4289
X4.725Y-4.7289
X4.725Y-4.9843
X4.725Y-5.2843
X4.7812Y-3.4039
X4.7812Y-3.5039
X4.7812Y-3.6039
X4.7812Y-3.7039
X4.825Y-2.7593
X4.825Y-3.0593
X4.825Y-4.4289
X4.825Y-4.7289
X4.825Y-4.9843
X4.825Y-5.2843
X5.0166Y-4.7001
X5.0166Y-4.7985
X5.1Y-3.425
X5.1Y-3.55
X5.1Y-3.85
X5.1Y-4.0
X5.1Y-4.1289
X5.1Y-4.4289
X5.1558Y-4.7035
X5.1558Y-5.0035
X5.1984Y-3.425
X5.1984Y-4.0
X5.2Y-2.625
X5.2Y-2.7539
X5.2Y-3.0539
X5.2Y-3.55
X5.2Y-3.85
X5.2Y-4.1289
X5.2Y-4.4289
X5.2558Y-4.7035
X5.2558Y-5.0035
X5.2984Y-2.625
X5.3Y-2.7539
X5.3Y-3.0539
X5.3Y-3.55
X5.3Y-3.85
X5.3Y-4.1289
X5.3Y-4.4289
X5.3558Y-4.7035
X5.3558Y-5.0035
X5.4Y-2.7539
X5.4Y-3.0539
X5.4Y-3.55
X5.4Y-3.85
X5.4Y-4.1289
X5.4Y-4.4289
X5.4558Y-4.7035
X5.4558Y-5.0035
X5.5Y-2.7539
X5.5Y-3.0539
X5.5Y-3.55
X5.5Y-3.85
X5.5Y-4.1289
X5.5Y-4.4289
X5.5558Y-4.7035
X5.5558Y-5.0035
X5.6Y-2.7539
X5.6Y-3.0539
X5.6Y-3.55
X5.6Y-3.85
X5.6Y-4.1289
X5.6Y-4.4289
X5.6558Y-4.7035
X5.6558Y-5.0035
X5.7Y-2.7539
X5.7Y-3.0539
X5.7Y-3.55
X5.7Y-3.85
X5.7Y-4.1289
X5.7Y-4.4289
X5.7558Y-4.7035
X5.7558Y-5.0035
X5.8Y-2.7539
X5.8Y-3.0539
X5.8Y-3.55
X5.8Y-3.85
X5.8Y-4.1289
X5.8Y-4.4289
X5.8558Y-4.7035
X5.8558Y-5.0035
X5.9Y-2.7539
X5.9Y-3.0539
X5.9Y-3.55
X5.9Y-3.85
X5.9Y-4.1289
X5.9Y-4.4289
X6.0Y-3.55
X6.0Y-3.85
X6.0Y-4.1289
X6.0Y-4.4289
X6.1062Y-5.1593
X6.125Y-4.7035
X6.125Y-5.0035
X6.1258Y-4.575
X6.2Y-4.025
X6.2Y-4.1234
X6.2062Y-5.1593
X6.2242Y-4.575
X6.225Y-4.7035
X6.225Y-5.0035
X6.3062Y-5.1593
X6.325Y-2.7
X6.325Y-3.0
X6.325Y-3.125
X6.325Y-3.2535
X6.325Y-3.5535
X6.325Y-4.7035
X6.325Y-5.0035
X6.3266Y-2.575
X6.3812Y-3.9289
X6.3812Y-4.0289
X6.3812Y-4.1289
X6.3812Y-4.2289
X6.4062Y-5.1593
X6.4234Y-3.125
X6.425Y-2.575
X6.425Y-2.7
X6.425Y-3.0
X6.425Y-3.2535
X6.425Y-3.5535
X6.425Y-4.7035
X6.425Y-5.0035
X6.4812Y-3.8289
X6.4812Y-3.9289
X6.4812Y-4.0289
X6.4812Y-4.1289
X6.4812Y-4.2289
X6.4812Y-4.3289
X6.5062Y-5.1593
X6.525Y-2.7
X6.525Y-3.0
X6.525Y-3.2535
X6.525Y-3.5535
X6.525Y-4.7035
X6.525Y-5.0035
X6.5766Y-2.4843
X6.5812Y-3.8289
X6.5812Y-3.9289
X6.5812Y-4.2289
X6.5812Y-4.3289
X6.6062Y-5.1593
X6.625Y-2.7
X6.625Y-3.0
X6.625Y-3.2535
X6.625Y-3.5535
X6.625Y-4.7035
X6.625Y-5.0035
X6.675Y-2.4843
X6.6812Y-3.8289
X6.6812Y-3.9289
X6.6812Y-4.2289
X6.6812Y-4.3289
X6.7062Y-5.1593
X6.725Y-2.7
X6.725Y-3.0
X6.725Y-3.2535
X6.725Y-3.5535
X6.725Y-4.7035
X6.725Y-5.0035
X6.7812Y-3.8289
X6.7812Y-3.9289
X6.7812Y-4.2289
X6.7812Y-4.3289
X6.8062Y-5.1593
X6.825Y-2.7
X6.825Y-3.0
X6.825Y-3.2535
X6.825Y-3.5535
X6.825Y-4.7035
X6.825Y-5.0035
X6.8812Y-3.8289
X6.8812Y-3.9289
X6.8812Y-4.0289
X6.8812Y-4.1289
X6.8812Y-4.2289
X6.8812Y-4.3289
X6.9062Y-5.1593
X6.925Y-2.7
X6.925Y-3.0
X6.925Y-3.2535
X6.925Y-3.5535
X6.925Y-4.7035
X6.925Y-5.0035
X6.9812Y-3.9289
X6.9812Y-4.0289
X6.9812Y-4.1289
X6.9812Y-4.2289
X7.0082Y-4.5343
X7.025Y-2.7
X7.025Y-3.0
X7.025Y-3.2535
X7.025Y-3.5535
X7.025Y-4.7035
X7.025Y-5.0035
X7.1066Y-4.5343
X7.2554Y-4.2789
X7.2562Y-2.7039
X7.2562Y-3.0039
X7.2562Y-3.8289
X7.2562Y-4.1289
X7.2562Y-4.4289
X7.2562Y-4.7289
X7.2566Y-2.5593
X7.2566Y-3.6843
X7.355Y-2.5593
X7.355Y-3.6843
X7.3554Y-4.2789
X7.3558Y-3.2535
X7.3558Y-3.5535
X7.3562Y-2.7039
X7.3562Y-3.0039
X7.3562Y-3.8289
X7.3562Y-4.1289
X7.3562Y-4.4289
X7.3562Y-4.7289
X7.3566Y-3.1343
X7.455Y-3.1343
X7.4554Y-4.2789
X7.4558Y-3.2535
X7.4558Y-3.5535
X7.4562Y-2.7039
X7.4562Y-3.0039
X7.4562Y-3.8289
X7.4562Y-4.1289
X7.4562Y-4.4289
X7.4562Y-4.7289
X7.5554Y-4.2789
X7.5558Y-3.2535
X7.5558Y-3.5535
X7.5562Y-2.7039
X7.5562Y-3.0039
X7.5562Y-3.8289
X7.5562Y-4.1289
X7.5562Y-4.4289
X7.5562Y-4.7289
X7.6554Y-4.2789
X7.6558Y-3.2535
X7.6558Y-3.5535
X7.6562Y-2.7039
X7.6562Y-3.0039
X7.6562Y-3.8289
X7.6562Y-4.1289
X7.6562Y-4.4289
X7.6562Y-4.7289
X7.7554Y-4.2789
X7.7558Y-3.2535
X7.7558Y-3.5535
X7.7562Y-2.7039
X7.7562Y-3.0039
X7.7562Y-3.8289
X7.7562Y-4.1289
X7.7562Y-4.4289
X7.7562Y-4.7289
X7.8554Y-4.2789
X7.8558Y-3.2535
X7.8558Y-3.5535
X7.8562Y-2.7039
X7.8562Y-3.0039
X7.8562Y-3.8289
X7.8562Y-4.1289
X7.8562Y-4.4289
X7.8562Y-4.7289
X7.9554Y-4.2789
X7.9558Y-3.2535
X7.9558Y-3.5535
X7.9562Y-2.7039
X7.9562Y-3.0039
X7.9562Y-3.8289
X7.9562Y-4.1289
X7.9562Y-4.4289
X7.9562Y-4.7289
X8.0554Y-4.2789
X8.0558Y-3.2535
X8.0558Y-3.5535
X8.0562Y-2.7039
X8.0562Y-3.0039
X8.0562Y-3.8289
X8.0562Y-4.1289
X8.0562Y-4.4289
X8.0562Y-4.7289
X8.1562Y-2.7039
X8.1562Y-3.0039
X8.1562Y-3.8289
X8.1562Y-4.1289
X8.1562Y-4.4289
X8.1562Y-4.7289
X8.2816Y-5.0093
X8.2816Y-5.1078
X8.4052Y-3.2539
X8.4052Y-3.5539
X8.4052Y-3.8289
X8.4052Y-4.1289
X8.4052Y-5.0093
X8.4052Y-5.3093
X8.4062Y-2.7039
X8.4062Y-3.0039
X8.4062Y-4.4293
X8.4062Y-4.7293
X8.4066Y-2.5843
X8.4066Y-3.1343
X8.4066Y-3.6843
X8.4066Y-4.2843
X8.505Y-2.5843
X8.505Y-3.1343
X8.505Y-3.6843
X8.505Y-4.2843
X8.5052Y-3.2539
X8.5052Y-3.5539
X8.5052Y-3.8289
X8.5052Y-4.1289
X8.5052Y-5.0093
X8.5052Y-5.3093
X8.5062Y-2.7039
X8.5062Y-3.0039
X8.5062Y-4.4293
X8.5062Y-4.7293
X8.6052Y-3.2539
X8.6052Y-3.5539
X8.6052Y-3.8289
X8.6052Y-4.1289
X8.6052Y-5.0093
X8.6052Y-5.3093
X8.6062Y-2.7039
X8.6062Y-3.0039
X8.6062Y-4.4293
X8.6062Y-4.7293
X8.7052Y-3.2539
X8.7052Y-3.5539
X8.7052Y-3.8289
X8.7052Y-4.1289
X8.7052Y-5.0093
X8.7052Y-5.3093
X8.7062Y-2.7039
X8.7062Y-3.0039
X8.7062Y-4.4293
X8.7062Y-4.7293
X8.8052Y-3.2539
X8.8052Y-3.5539
X8.8052Y-3.8289
X8.8052Y-4.1289
X8.8052Y-5.0093
X8.8052Y-5.3093
X8.8062Y-2.7039
X8.8062Y-3.0039
X8.8062Y-4.4293
X8.8062Y-4.7293
X8.9052Y-3.2539
X8.9052Y-3.5539
X8.9052Y-3.8289
X8.9052Y-4.1289
X8.9052Y-5.0093
X8.9052Y-5.3093
X8.9062Y-2.7039
X8.9062Y-3.0039
X8.9062Y-4.4293
X8.9062Y-4.7293
X9.0052Y-3.2539
X9.0052Y-3.5539
X9.0052Y-3.8289
X9.0052Y-4.1289
X9.0052Y-5.0093
X9.0052Y-5.3093
X9.0062Y-2.7039
X9.0062Y-3.0039
X9.0062Y-4.4293
X9.0062Y-4.7293
X9.1052Y-3.2539
X9.1052Y-3.5539
X9.1052Y-3.8289
X9.1052Y-4.1289
X9.1052Y-5.0093
X9.1052Y-5.3093
X9.1062Y-2.7039
X9.1062Y-3.0039
X9.1062Y-4.4293
X9.1062Y-4.7293
X9.3316Y-2.7093
X9.3316Y-2.8078
X9.3316Y-3.2593
X9.3316Y-3.3578
X9.3556Y-3.9797
X9.3556Y-4.5797
X9.3566Y-5.0093
X9.3566Y-5.1078
X9.3582Y-3.8343
X9.45Y-2.7039
X9.45Y-3.0039
X9.45Y-3.2593
X9.45Y-3.5593
X9.4556Y-3.9797
X9.4556Y-4.5797
X9.4566Y-3.8343
X9.4808Y-5.0035
X9.4808Y-5.3035
X9.4816Y-2.4095
X9.4816Y-2.508
X9.55Y-2.7039
X9.55Y-3.0039
X9.55Y-3.2593
X9.55Y-3.5593
X9.5556Y-3.9797
X9.5556Y-4.5797
X9.5808Y-5.0035
X9.5808Y-5.3035
X9.5866Y-2.4141
X9.5866Y-2.5126
X9.6056Y-4.1293
X9.6056Y-4.2293
X9.6056Y-4.3293
X9.6056Y-4.4293
X9.65Y-2.7039
X9.65Y-3.0039
X9.65Y-3.2593
X9.65Y-3.5593
X9.6556Y-3.9797
X9.6556Y-4.5797
X9.6808Y-5.0035
X9.6808Y-5.3035
X9.7056Y-4.0293
X9.7056Y-4.1293
X9.7056Y-4.2293
X9.7056Y-4.3293
X9.7056Y-4.4293
X9.7056Y-4.5293
X9.75Y-2.7039
X9.75Y-3.0039
X9.75Y-3.2593
X9.75Y-3.5593
X9.7556Y-3.9797
X9.7556Y-4.5797
X9.7808Y-5.0035
X9.7808Y-5.3035
X9.8056Y-4.0293
X9.8056Y-4.1293
X9.8056Y-4.4293
X9.8056Y-4.5293
X9.85Y-2.7039
X9.85Y-3.0039
X9.85Y-3.2593
X9.85Y-3.5593
X9.8556Y-3.9797
X9.8556Y-4.5797
X9.8808Y-5.0035
X9.8808Y-5.3035
X9.9056Y-4.0293
X9.9056Y-4.1293
X9.9056Y-4.4293
X9.9056Y-4.5293
X9.95Y-2.7039
X9.95Y-3.0039
X9.95Y-3.2593
X9.95Y-3.5593
X9.9556Y-3.9797
X9.9556Y-4.5797
X9.9808Y-5.0035
X9.9808Y-5.3035
X10.0056Y-4.0293
X10.0056Y-4.1293
X10.0056Y-4.2293
X10.0056Y-4.3293
X10.0056Y-4.4293
X10.0056Y-4.5293
X10.05Y-2.7039
X10.05Y-3.0039
X10.05Y-3.2593
X10.05Y-3.5593
X10.0556Y-3.9797
X10.0556Y-4.5797
X10.0808Y-5.0035
X10.0808Y-5.3035
X10.1056Y-4.1293
X10.1056Y-4.2293
X10.1056Y-4.3293
X10.1056Y-4.4293
X10.15Y-2.7039
X10.15Y-3.0039
X10.15Y-3.2593
X10.15Y-3.5593
X10.1556Y-3.9797
X10.1556Y-4.5797
X10.1808Y-5.0035
X10.1808Y-5.3035
X10.2556Y-3.9797
X10.2556Y-4.5797
X10.3556Y-3.9797
X10.3556Y-4.5797
X10.4556Y-3.9797
X10.4556Y-4.5797
X10.5906Y-3.8189
X10.689Y-3.8189
T7
X10.2768Y-2.1348
X10.2768Y-2.2348
T8
X1.692Y-2.7036
X1.692Y-2.8808
T9
X1.8316Y-1.9343
X1.8316Y-2.1343
X1.9316Y-1.9343
X1.9316Y-2.1343
X2.0316Y-1.9343
X2.0316Y-2.1343
X2.1316Y-1.9343
X2.1316Y-2.1343
X2.2316Y-1.9343
X2.2316Y-2.1343
X2.3316Y-1.9343
X2.3316Y-2.1343
X2.4316Y-1.9343
X2.4316Y-2.1343
X2.5316Y-1.9343
X2.5316Y-2.1343
X2.6316Y-1.9343
X2.6316Y-2.1343
X2.7316Y-1.9343
X2.7316Y-2.1343
X2.8316Y-1.9343
X2.8316Y-2.1343
X2.9316Y-1.9343
X2.9316Y-2.1343
X3.0316Y-1.9343
X3.0316Y-2.1343
X3.1316Y-1.9343
X3.1316Y-2.1343
X3.2316Y-1.9343
X3.2316Y-2.1343
X3.3316Y-1.9343
X3.3316Y-2.1343
X3.4316Y-1.9343
X3.4316Y-2.1343
X3.5316Y-1.9343
X3.5316Y-2.1343
X3.6316Y-1.9343
X3.6316Y-2.1343
X3.7316Y-1.9343
X3.7316Y-2.1343
X3.8316Y-1.9343
X3.8316Y-2.1343
X3.9316Y-1.9343
X3.9316Y-2.1343
X4.3562Y-1.9343
X4.3562Y-2.1343
X4.4562Y-1.9343
X4.4562Y-2.1343
X4.5562Y-1.9343
X4.5562Y-2.1343
X4.6562Y-1.9343
X4.6562Y-2.1343
X4.7562Y-1.9343
X4.7562Y-2.1343
X4.8562Y-1.9343
X4.8562Y-2.1343
X4.9562Y-1.9343
X4.9562Y-2.1343
X5.0562Y-1.9343
X5.0562Y-2.1343
X5.1562Y-1.9343
X5.1562Y-2.1343
X5.2562Y-1.9343
X5.2562Y-2.1343
X5.3066Y-5.325
X5.3562Y-1.9343
X5.3562Y-2.1343
X5.4066Y-5.325
X5.4562Y-1.9343
X5.4562Y-2.1343
X5.5066Y-5.325
X5.5562Y-1.9343
X5.5562Y-2.1343
X5.6066Y-5.325
X5.6562Y-1.9343
X5.6562Y-2.1343
X5.7066Y-5.325
X5.7562Y-1.9343
X5.7562Y-2.1343
X5.8562Y-1.9343
X5.8562Y-2.1343
X5.9562Y-1.9343
X5.9562Y-2.1343
X6.0562Y-1.9343
X6.0562Y-2.1343
X6.1562Y-1.9343
X6.1562Y-2.1343
X6.2062Y-5.325
X6.2562Y-1.9343
X6.2562Y-2.1343
X6.3062Y-5.325
X6.3562Y-1.9343
X6.3562Y-2.1343
X6.4062Y-5.325
X6.4562Y-1.9343
X6.4562Y-2.1343
X6.5062Y-5.325
X6.6062Y-5.325
X6.7062Y-5.325
X6.8062Y-5.325
X6.9062Y-5.325
X7.1232Y-1.993
X7.1683Y-1.915
X7.1683Y-2.0709
X7.2134Y-1.993
X7.2585Y-1.915
X7.2585Y-2.0709
X7.3035Y-1.993
X7.3486Y-1.915
X7.3486Y-2.0709
X7.3937Y-1.993
X7.4388Y-1.915
X7.4388Y-2.0709
X7.4839Y-1.993
X7.5289Y-1.915
X7.5289Y-2.0709
T10
X8.5635Y-1.9905
X8.6385Y-1.7905
X8.7135Y-1.9905
X8.7885Y-1.7905
X8.8635Y-1.9905
X8.9385Y-1.7905
X9.0135Y-1.9905
X9.0885Y-1.7905
X9.1635Y-1.9905
X9.2385Y-1.7905
X9.3135Y-1.9905
X9.3885Y-1.7905
X9.4635Y-1.9905
X9.5385Y-1.7905
X9.6135Y-1.9905
X9.6885Y-1.7905
X9.7635Y-1.9905
X9.8385Y-1.7905
X9.9135Y-1.9905
X9.9885Y-1.7905
X10.0635Y-1.9905
T11
X1.79Y-2.654
X1.79Y-2.93
T12
X1.7717Y-5.315
X1.7728Y-2.4016
X6.8461Y-2.015
X7.8303Y-2.015
X10.5906Y-5.315
X10.5917Y-2.4016
T1
G00X10.697Y-2.6382
M15
G01X10.7325Y-2.6382
M16
G05
G00X10.697Y-3.1618
M15
G01X10.7325Y-3.1618
M16
G05
T6
G00X8.1364Y-1.6811
M15
G01X8.1836Y-1.6811
M16
G05
G00X8.1364Y-1.9252
M15
G01X8.1836Y-1.9252
M16
G05
G00X8.1364Y-2.1457
M15
G01X8.1836Y-2.1457
M16
G05
G00X8.2151Y-1.7795
M15
G01X8.2624Y-1.7795
M16
G05
G00X8.2151Y-2.0
M15
G01X8.2624Y-2.0
M16
G05
G00X10.3132Y-3.0909
M15
G01X10.3368Y-3.0909
M16
G05
T7
G00X10.3152Y-2.7169
M15
G01X10.3348Y-2.7169
M16
G05
G00X10.3152Y-2.902
M15
G01X10.3348Y-2.902
M16
G05
T9
G00X10.3605Y-1.8622
M15
G01X10.3605Y-1.9409
M16
G05
G00X10.5849Y-1.7835
M15
G01X10.5062Y-1.7835
M16
G05
G00X10.5849Y-2.0197
M15
G01X10.5062Y-2.0197
M16
G05
M30
