%TF.GenerationSoftware,KiCad,Pcbnew,7.0.10*%
%TF.CreationDate,2024-04-26T10:19:10+01:00*%
%TF.ProjectId,bottom,626f7474-6f6d-42e6-9b69-6361645f7063,rev?*%
%TF.SameCoordinates,Original*%
%TF.FileFunction,Copper,L2,Bot*%
%TF.FilePolarity,Positive*%
%FSLAX46Y46*%
G04 Gerber Fmt 4.6, Leading zero omitted, Abs format (unit mm)*
G04 Created by KiCad (PCBNEW 7.0.10) date 2024-04-26 10:19:10*
%MOMM*%
%LPD*%
G01*
G04 APERTURE LIST*
%TA.AperFunction,ComponentPad*%
%ADD10C,5.500000*%
%TD*%
G04 APERTURE END LIST*
D10*
%TO.P,H4,1,1*%
%TO.N,GND*%
X267000000Y-65000000D03*
%TD*%
%TO.P,H1,1,1*%
%TO.N,GND*%
X43000000Y-65000000D03*
%TD*%
%TO.P,H3,1,1*%
%TO.N,GND*%
X267000000Y-139000000D03*
%TD*%
%TO.P,H2,1,1*%
%TO.N,GND*%
X43000000Y-139000000D03*
%TD*%
%TA.AperFunction,Conductor*%
%TO.N,GND*%
G36*
X270942539Y-45020185D02*
G01*
X270988294Y-45072989D01*
X270999500Y-45124500D01*
X270999500Y-142875500D01*
X270979815Y-142942539D01*
X270927011Y-142988294D01*
X270875500Y-142999500D01*
X39124500Y-142999500D01*
X39057461Y-142979815D01*
X39011706Y-142927011D01*
X39000500Y-142875500D01*
X39000500Y-139000002D01*
X39745227Y-139000002D01*
X39764306Y-139351900D01*
X39764308Y-139351917D01*
X39821319Y-139699667D01*
X39821325Y-139699693D01*
X39915600Y-140039243D01*
X39915602Y-140039250D01*
X40046043Y-140366634D01*
X40046052Y-140366652D01*
X40211124Y-140678011D01*
X40408896Y-140969702D01*
X40531914Y-141114532D01*
X41702266Y-139944180D01*
X41865130Y-140134870D01*
X42055819Y-140297733D01*
X40882625Y-141470926D01*
X40882625Y-141470928D01*
X40892900Y-141480660D01*
X41173460Y-141693938D01*
X41173464Y-141693941D01*
X41475445Y-141875635D01*
X41795273Y-142023603D01*
X42129256Y-142136136D01*
X42473437Y-142211896D01*
X42823788Y-142249999D01*
X42823795Y-142250000D01*
X43176205Y-142250000D01*
X43176211Y-142249999D01*
X43526562Y-142211896D01*
X43870743Y-142136136D01*
X44204726Y-142023603D01*
X44524554Y-141875635D01*
X44826535Y-141693941D01*
X44826539Y-141693938D01*
X45107093Y-141480665D01*
X45107105Y-141480654D01*
X45117373Y-141470927D01*
X45117373Y-141470926D01*
X43944180Y-140297733D01*
X44134870Y-140134870D01*
X44297733Y-139944180D01*
X45468084Y-141114532D01*
X45468085Y-141114531D01*
X45591102Y-140969704D01*
X45788875Y-140678011D01*
X45953947Y-140366652D01*
X45953956Y-140366634D01*
X46084397Y-140039250D01*
X46084399Y-140039243D01*
X46178674Y-139699693D01*
X46178680Y-139699667D01*
X46235691Y-139351917D01*
X46235693Y-139351900D01*
X46254773Y-139000002D01*
X263745227Y-139000002D01*
X263764306Y-139351900D01*
X263764308Y-139351917D01*
X263821319Y-139699667D01*
X263821325Y-139699693D01*
X263915600Y-140039243D01*
X263915602Y-140039250D01*
X264046043Y-140366634D01*
X264046052Y-140366652D01*
X264211124Y-140678011D01*
X264408896Y-140969702D01*
X264531914Y-141114532D01*
X265702266Y-139944180D01*
X265865130Y-140134870D01*
X266055819Y-140297733D01*
X264882625Y-141470926D01*
X264882625Y-141470928D01*
X264892900Y-141480660D01*
X265173460Y-141693938D01*
X265173464Y-141693941D01*
X265475445Y-141875635D01*
X265795273Y-142023603D01*
X266129256Y-142136136D01*
X266473437Y-142211896D01*
X266823788Y-142249999D01*
X266823795Y-142250000D01*
X267176205Y-142250000D01*
X267176211Y-142249999D01*
X267526562Y-142211896D01*
X267870743Y-142136136D01*
X268204726Y-142023603D01*
X268524554Y-141875635D01*
X268826535Y-141693941D01*
X268826539Y-141693938D01*
X269107093Y-141480665D01*
X269107105Y-141480654D01*
X269117373Y-141470927D01*
X269117373Y-141470926D01*
X267944180Y-140297733D01*
X268134870Y-140134870D01*
X268297733Y-139944181D01*
X269468084Y-141114532D01*
X269468085Y-141114531D01*
X269591102Y-140969704D01*
X269788875Y-140678011D01*
X269953947Y-140366652D01*
X269953956Y-140366634D01*
X270084397Y-140039250D01*
X270084399Y-140039243D01*
X270178674Y-139699693D01*
X270178680Y-139699667D01*
X270235691Y-139351917D01*
X270235693Y-139351900D01*
X270254773Y-139000002D01*
X270254773Y-138999997D01*
X270235693Y-138648099D01*
X270235691Y-138648082D01*
X270178680Y-138300332D01*
X270178674Y-138300306D01*
X270084399Y-137960756D01*
X270084397Y-137960749D01*
X269953956Y-137633365D01*
X269953947Y-137633347D01*
X269788875Y-137321988D01*
X269591099Y-137030291D01*
X269468085Y-136885467D01*
X269468084Y-136885466D01*
X268297732Y-138055818D01*
X268134870Y-137865130D01*
X267944180Y-137702266D01*
X269117374Y-136529073D01*
X269117373Y-136529072D01*
X269107099Y-136519340D01*
X269107087Y-136519330D01*
X268826539Y-136306061D01*
X268826535Y-136306058D01*
X268524554Y-136124364D01*
X268204726Y-135976396D01*
X267870743Y-135863863D01*
X267526562Y-135788103D01*
X267176211Y-135750000D01*
X266823788Y-135750000D01*
X266473437Y-135788103D01*
X266129256Y-135863863D01*
X265795273Y-135976396D01*
X265475445Y-136124364D01*
X265173464Y-136306058D01*
X265173460Y-136306061D01*
X264892906Y-136519334D01*
X264882625Y-136529071D01*
X264882625Y-136529073D01*
X266055819Y-137702266D01*
X265865130Y-137865130D01*
X265702266Y-138055818D01*
X264531914Y-136885466D01*
X264531913Y-136885466D01*
X264408896Y-137030296D01*
X264211124Y-137321988D01*
X264046052Y-137633347D01*
X264046043Y-137633365D01*
X263915602Y-137960749D01*
X263915600Y-137960756D01*
X263821325Y-138300306D01*
X263821319Y-138300332D01*
X263764308Y-138648082D01*
X263764306Y-138648099D01*
X263745227Y-138999997D01*
X263745227Y-139000002D01*
X46254773Y-139000002D01*
X46254773Y-138999997D01*
X46235693Y-138648099D01*
X46235691Y-138648082D01*
X46178680Y-138300332D01*
X46178674Y-138300306D01*
X46084399Y-137960756D01*
X46084397Y-137960749D01*
X45953956Y-137633365D01*
X45953947Y-137633347D01*
X45788875Y-137321988D01*
X45591099Y-137030291D01*
X45468085Y-136885467D01*
X45468084Y-136885466D01*
X44297732Y-138055818D01*
X44134870Y-137865130D01*
X43944180Y-137702266D01*
X45117374Y-136529073D01*
X45117373Y-136529072D01*
X45107099Y-136519340D01*
X45107087Y-136519330D01*
X44826539Y-136306061D01*
X44826535Y-136306058D01*
X44524554Y-136124364D01*
X44204726Y-135976396D01*
X43870743Y-135863863D01*
X43526562Y-135788103D01*
X43176211Y-135750000D01*
X42823788Y-135750000D01*
X42473437Y-135788103D01*
X42129256Y-135863863D01*
X41795273Y-135976396D01*
X41475445Y-136124364D01*
X41173464Y-136306058D01*
X41173460Y-136306061D01*
X40892906Y-136519334D01*
X40882625Y-136529071D01*
X40882625Y-136529073D01*
X42055819Y-137702266D01*
X41865130Y-137865130D01*
X41702266Y-138055818D01*
X40531914Y-136885466D01*
X40531913Y-136885466D01*
X40408896Y-137030296D01*
X40211124Y-137321988D01*
X40046052Y-137633347D01*
X40046043Y-137633365D01*
X39915602Y-137960749D01*
X39915600Y-137960756D01*
X39821325Y-138300306D01*
X39821319Y-138300332D01*
X39764308Y-138648082D01*
X39764306Y-138648099D01*
X39745227Y-138999997D01*
X39745227Y-139000002D01*
X39000500Y-139000002D01*
X39000500Y-65000002D01*
X39745227Y-65000002D01*
X39764306Y-65351900D01*
X39764308Y-65351917D01*
X39821319Y-65699667D01*
X39821325Y-65699693D01*
X39915600Y-66039243D01*
X39915602Y-66039250D01*
X40046043Y-66366634D01*
X40046052Y-66366652D01*
X40211124Y-66678011D01*
X40408896Y-66969702D01*
X40531914Y-67114532D01*
X41702266Y-65944180D01*
X41865130Y-66134870D01*
X42055819Y-66297733D01*
X40882625Y-67470926D01*
X40882625Y-67470928D01*
X40892900Y-67480660D01*
X41173460Y-67693938D01*
X41173464Y-67693941D01*
X41475445Y-67875635D01*
X41795273Y-68023603D01*
X42129256Y-68136136D01*
X42473437Y-68211896D01*
X42823788Y-68249999D01*
X42823795Y-68250000D01*
X43176205Y-68250000D01*
X43176211Y-68249999D01*
X43526562Y-68211896D01*
X43870743Y-68136136D01*
X44204726Y-68023603D01*
X44524554Y-67875635D01*
X44826535Y-67693941D01*
X44826539Y-67693938D01*
X45107093Y-67480665D01*
X45107105Y-67480654D01*
X45117373Y-67470927D01*
X45117373Y-67470926D01*
X43944180Y-66297733D01*
X44134870Y-66134870D01*
X44297733Y-65944180D01*
X45468084Y-67114532D01*
X45468085Y-67114531D01*
X45591102Y-66969704D01*
X45788875Y-66678011D01*
X45953947Y-66366652D01*
X45953956Y-66366634D01*
X46084397Y-66039250D01*
X46084399Y-66039243D01*
X46178674Y-65699693D01*
X46178680Y-65699667D01*
X46235691Y-65351917D01*
X46235693Y-65351900D01*
X46254773Y-65000002D01*
X263745227Y-65000002D01*
X263764306Y-65351900D01*
X263764308Y-65351917D01*
X263821319Y-65699667D01*
X263821325Y-65699693D01*
X263915600Y-66039243D01*
X263915602Y-66039250D01*
X264046043Y-66366634D01*
X264046052Y-66366652D01*
X264211124Y-66678011D01*
X264408896Y-66969702D01*
X264531914Y-67114532D01*
X265702266Y-65944180D01*
X265865130Y-66134870D01*
X266055819Y-66297733D01*
X264882625Y-67470926D01*
X264882625Y-67470928D01*
X264892900Y-67480660D01*
X265173460Y-67693938D01*
X265173464Y-67693941D01*
X265475445Y-67875635D01*
X265795273Y-68023603D01*
X266129256Y-68136136D01*
X266473437Y-68211896D01*
X266823788Y-68249999D01*
X266823795Y-68250000D01*
X267176205Y-68250000D01*
X267176211Y-68249999D01*
X267526562Y-68211896D01*
X267870743Y-68136136D01*
X268204726Y-68023603D01*
X268524554Y-67875635D01*
X268826535Y-67693941D01*
X268826539Y-67693938D01*
X269107093Y-67480665D01*
X269107105Y-67480654D01*
X269117373Y-67470927D01*
X269117373Y-67470926D01*
X267944180Y-66297733D01*
X268134870Y-66134870D01*
X268297733Y-65944181D01*
X269468084Y-67114532D01*
X269468085Y-67114531D01*
X269591102Y-66969704D01*
X269788875Y-66678011D01*
X269953947Y-66366652D01*
X269953956Y-66366634D01*
X270084397Y-66039250D01*
X270084399Y-66039243D01*
X270178674Y-65699693D01*
X270178680Y-65699667D01*
X270235691Y-65351917D01*
X270235693Y-65351900D01*
X270254773Y-65000002D01*
X270254773Y-64999997D01*
X270235693Y-64648099D01*
X270235691Y-64648082D01*
X270178680Y-64300332D01*
X270178674Y-64300306D01*
X270084399Y-63960756D01*
X270084397Y-63960749D01*
X269953956Y-63633365D01*
X269953947Y-63633347D01*
X269788875Y-63321988D01*
X269591099Y-63030291D01*
X269468085Y-62885467D01*
X269468084Y-62885466D01*
X268297732Y-64055818D01*
X268134870Y-63865130D01*
X267944180Y-63702266D01*
X269117374Y-62529073D01*
X269117373Y-62529072D01*
X269107099Y-62519340D01*
X269107087Y-62519330D01*
X268826539Y-62306061D01*
X268826535Y-62306058D01*
X268524554Y-62124364D01*
X268204726Y-61976396D01*
X267870743Y-61863863D01*
X267526562Y-61788103D01*
X267176211Y-61750000D01*
X266823788Y-61750000D01*
X266473437Y-61788103D01*
X266129256Y-61863863D01*
X265795273Y-61976396D01*
X265475445Y-62124364D01*
X265173464Y-62306058D01*
X265173460Y-62306061D01*
X264892906Y-62519334D01*
X264882625Y-62529071D01*
X264882625Y-62529073D01*
X266055819Y-63702266D01*
X265865130Y-63865130D01*
X265702266Y-64055818D01*
X264531914Y-62885466D01*
X264531913Y-62885466D01*
X264408896Y-63030296D01*
X264211124Y-63321988D01*
X264046052Y-63633347D01*
X264046043Y-63633365D01*
X263915602Y-63960749D01*
X263915600Y-63960756D01*
X263821325Y-64300306D01*
X263821319Y-64300332D01*
X263764308Y-64648082D01*
X263764306Y-64648099D01*
X263745227Y-64999997D01*
X263745227Y-65000002D01*
X46254773Y-65000002D01*
X46254773Y-64999997D01*
X46235693Y-64648099D01*
X46235691Y-64648082D01*
X46178680Y-64300332D01*
X46178674Y-64300306D01*
X46084399Y-63960756D01*
X46084397Y-63960749D01*
X45953956Y-63633365D01*
X45953947Y-63633347D01*
X45788875Y-63321988D01*
X45591099Y-63030291D01*
X45468085Y-62885467D01*
X45468084Y-62885466D01*
X44297732Y-64055818D01*
X44134870Y-63865130D01*
X43944180Y-63702266D01*
X45117374Y-62529073D01*
X45117373Y-62529072D01*
X45107099Y-62519340D01*
X45107087Y-62519330D01*
X44826539Y-62306061D01*
X44826535Y-62306058D01*
X44524554Y-62124364D01*
X44204726Y-61976396D01*
X43870743Y-61863863D01*
X43526562Y-61788103D01*
X43176211Y-61750000D01*
X42823788Y-61750000D01*
X42473437Y-61788103D01*
X42129256Y-61863863D01*
X41795273Y-61976396D01*
X41475445Y-62124364D01*
X41173464Y-62306058D01*
X41173460Y-62306061D01*
X40892906Y-62519334D01*
X40882625Y-62529071D01*
X40882625Y-62529073D01*
X42055819Y-63702266D01*
X41865130Y-63865130D01*
X41702266Y-64055818D01*
X40531914Y-62885466D01*
X40531913Y-62885466D01*
X40408896Y-63030296D01*
X40211124Y-63321988D01*
X40046052Y-63633347D01*
X40046043Y-63633365D01*
X39915602Y-63960749D01*
X39915600Y-63960756D01*
X39821325Y-64300306D01*
X39821319Y-64300332D01*
X39764308Y-64648082D01*
X39764306Y-64648099D01*
X39745227Y-64999997D01*
X39745227Y-65000002D01*
X39000500Y-65000002D01*
X39000500Y-45124500D01*
X39020185Y-45057461D01*
X39072989Y-45011706D01*
X39124500Y-45000500D01*
X270875500Y-45000500D01*
X270942539Y-45020185D01*
G37*
%TD.AperFunction*%
%TD*%
M02*
