%TF.GenerationSoftware,KiCad,Pcbnew,8.0.6*%
%TF.CreationDate,2025-01-18T12:45:17+00:00*%
%TF.ProjectId,v2b,7632622e-6b69-4636-9164-5f7063625858,rev?*%
%TF.SameCoordinates,Original*%
%TF.FileFunction,Soldermask,Bot*%
%TF.FilePolarity,Negative*%
%FSLAX46Y46*%
G04 Gerber Fmt 4.6, Leading zero omitted, Abs format (unit mm)*
G04 Created by KiCad (PCBNEW 8.0.6) date 2025-01-18 12:45:17*
%MOMM*%
%LPD*%
G01*
G04 APERTURE LIST*
G04 Aperture macros list*
%AMRoundRect*
0 Rectangle with rounded corners*
0 $1 Rounding radius*
0 $2 $3 $4 $5 $6 $7 $8 $9 X,Y pos of 4 corners*
0 Add a 4 corners polygon primitive as box body*
4,1,4,$2,$3,$4,$5,$6,$7,$8,$9,$2,$3,0*
0 Add four circle primitives for the rounded corners*
1,1,$1+$1,$2,$3*
1,1,$1+$1,$4,$5*
1,1,$1+$1,$6,$7*
1,1,$1+$1,$8,$9*
0 Add four rect primitives between the rounded corners*
20,1,$1+$1,$2,$3,$4,$5,0*
20,1,$1+$1,$4,$5,$6,$7,0*
20,1,$1+$1,$6,$7,$8,$9,0*
20,1,$1+$1,$8,$9,$2,$3,0*%
G04 Aperture macros list end*
%ADD10C,1.600000*%
%ADD11R,1.600000X1.600000*%
%ADD12O,1.600000X1.600000*%
%ADD13R,1.422400X1.422400*%
%ADD14C,1.422400*%
%ADD15R,1.600000X2.400000*%
%ADD16O,1.600000X2.400000*%
%ADD17R,3.500000X3.500000*%
%ADD18RoundRect,0.750000X-1.000000X0.750000X-1.000000X-0.750000X1.000000X-0.750000X1.000000X0.750000X0*%
%ADD19RoundRect,0.875000X-0.875000X0.875000X-0.875000X-0.875000X0.875000X-0.875000X0.875000X0.875000X0*%
%ADD20C,4.000000*%
%ADD21C,1.400000*%
%ADD22R,1.200000X1.200000*%
%ADD23C,1.200000*%
%ADD24R,1.500000X1.500000*%
%ADD25O,1.500000X1.500000*%
%ADD26C,5.500000*%
%ADD27C,2.100000*%
%ADD28C,1.750000*%
%ADD29R,1.700000X1.700000*%
%ADD30O,1.700000X1.700000*%
%ADD31O,2.000000X1.000000*%
%ADD32O,2.700000X2.000000*%
%ADD33C,1.998980*%
%ADD34C,2.200000*%
%ADD35R,1.800000X1.800000*%
%ADD36C,1.800000*%
%ADD37C,1.700000*%
%ADD38O,2.700000X1.500000*%
%ADD39C,1.500000*%
G04 APERTURE END LIST*
D10*
%TO.C,Cd11*%
X100965000Y-127020000D03*
X100965000Y-129520000D03*
%TD*%
D11*
%TO.C,U20*%
X241300000Y-127010000D03*
D12*
X243840000Y-127010000D03*
X246380000Y-127010000D03*
X248920000Y-127010000D03*
X251460000Y-127010000D03*
X254000000Y-127010000D03*
X256540000Y-127010000D03*
X259080000Y-127010000D03*
X261620000Y-127010000D03*
X264160000Y-127010000D03*
X266700000Y-127010000D03*
X269240000Y-127010000D03*
X269240000Y-111770000D03*
X266700000Y-111770000D03*
X264160000Y-111770000D03*
X261620000Y-111770000D03*
X259080000Y-111770000D03*
X256540000Y-111770000D03*
X254000000Y-111770000D03*
X251460000Y-111770000D03*
X248920000Y-111770000D03*
X246380000Y-111770000D03*
X243840000Y-111770000D03*
X241300000Y-111770000D03*
%TD*%
D13*
%TO.C,U5*%
X107950000Y-93980000D03*
D14*
X105410000Y-96520000D03*
X107950000Y-96520000D03*
X105410000Y-99060000D03*
X107950000Y-101600000D03*
X107950000Y-99060000D03*
X110490000Y-101600000D03*
X110490000Y-99060000D03*
X113030000Y-101600000D03*
X113030000Y-99060000D03*
X115570000Y-101600000D03*
X115570000Y-99060000D03*
X118110000Y-101600000D03*
X120650000Y-99060000D03*
X118110000Y-99060000D03*
X120650000Y-96520000D03*
X118110000Y-96520000D03*
X120650000Y-93980000D03*
X118110000Y-93980000D03*
X120650000Y-91440000D03*
X118110000Y-88900000D03*
X118110000Y-91440000D03*
X115570000Y-88900000D03*
X115570000Y-91440000D03*
X113030000Y-88900000D03*
X113030000Y-91440000D03*
X110490000Y-88900000D03*
X110490000Y-91440000D03*
X107950000Y-88900000D03*
X105410000Y-91440000D03*
X107950000Y-91440000D03*
X105410000Y-93980000D03*
%TD*%
D10*
%TO.C,Cd4*%
X125730000Y-97155000D03*
X125730000Y-99655000D03*
%TD*%
%TO.C,C5*%
X243840000Y-62825000D03*
X243840000Y-60325000D03*
%TD*%
%TO.C,Cd28*%
X212090000Y-82550000D03*
X212090000Y-85050000D03*
%TD*%
D15*
%TO.C,U19*%
X241300000Y-76200000D03*
D16*
X243840000Y-76200000D03*
X246380000Y-76200000D03*
X248920000Y-76200000D03*
X251460000Y-76200000D03*
X254000000Y-76200000D03*
X256540000Y-76200000D03*
X259080000Y-76200000D03*
X259080000Y-68580000D03*
X256540000Y-68580000D03*
X254000000Y-68580000D03*
X251460000Y-68580000D03*
X248920000Y-68580000D03*
X246380000Y-68580000D03*
X243840000Y-68580000D03*
X241300000Y-68580000D03*
%TD*%
D17*
%TO.C,J3*%
X267857500Y-51300000D03*
D18*
X267857500Y-45300000D03*
D19*
X263157500Y-48300000D03*
%TD*%
D20*
%TO.C,J7*%
X198890000Y-51181000D03*
X173890000Y-51181000D03*
D11*
X182075000Y-52601000D03*
D10*
X184365000Y-52601000D03*
X186655000Y-52601000D03*
X188945000Y-52601000D03*
X191235000Y-52601000D03*
X180930000Y-50621000D03*
X183220000Y-50621000D03*
X185510000Y-50621000D03*
X187800000Y-50621000D03*
X190090000Y-50621000D03*
X182075000Y-48641000D03*
X184365000Y-48641000D03*
X186655000Y-48641000D03*
X188945000Y-48641000D03*
X191235000Y-48641000D03*
%TD*%
D21*
%TO.C,R25*%
X236220000Y-55245000D03*
X236220000Y-57785000D03*
%TD*%
%TO.C,R10*%
X93980000Y-76200000D03*
X101600000Y-76200000D03*
%TD*%
D15*
%TO.C,U18*%
X241300000Y-90407000D03*
D16*
X243840000Y-90407000D03*
X246380000Y-90407000D03*
X248920000Y-90407000D03*
X251460000Y-90407000D03*
X254000000Y-90407000D03*
X256540000Y-90407000D03*
X259080000Y-90407000D03*
X259080000Y-82787000D03*
X256540000Y-82787000D03*
X254000000Y-82787000D03*
X251460000Y-82787000D03*
X248920000Y-82787000D03*
X246380000Y-82787000D03*
X243840000Y-82787000D03*
X241300000Y-82787000D03*
%TD*%
D10*
%TO.C,Cd32*%
X212090000Y-127000000D03*
X212090000Y-129500000D03*
%TD*%
D21*
%TO.C,R7*%
X54610000Y-102870000D03*
X62230000Y-102870000D03*
%TD*%
D22*
%TO.C,C1*%
X50570000Y-69850000D03*
D23*
X52070000Y-69850000D03*
%TD*%
D21*
%TO.C,R11*%
X93980000Y-73660000D03*
X101600000Y-73660000D03*
%TD*%
%TO.C,R16*%
X195240000Y-64372000D03*
X195240000Y-56752000D03*
%TD*%
%TO.C,R24*%
X233680000Y-55245000D03*
X233680000Y-57785000D03*
%TD*%
D11*
%TO.C,RN2*%
X179705000Y-118745000D03*
D12*
X177165000Y-118745000D03*
X174625000Y-118745000D03*
X172085000Y-118745000D03*
X169545000Y-118745000D03*
X167005000Y-118745000D03*
X164465000Y-118745000D03*
X161925000Y-118745000D03*
X159385000Y-118745000D03*
%TD*%
D21*
%TO.C,R9*%
X93980000Y-78740000D03*
X101600000Y-78740000D03*
%TD*%
D24*
%TO.C,D4*%
X53340000Y-84455000D03*
D25*
X53340000Y-76835000D03*
%TD*%
D26*
%TO.C,H2*%
X45000000Y-135000000D03*
%TD*%
D15*
%TO.C,U3*%
X104140000Y-134640000D03*
D16*
X106680000Y-134640000D03*
X109220000Y-134640000D03*
X111760000Y-134640000D03*
X114300000Y-134640000D03*
X116840000Y-134640000D03*
X119380000Y-134640000D03*
X121920000Y-134640000D03*
X121920000Y-127020000D03*
X119380000Y-127020000D03*
X116840000Y-127020000D03*
X114300000Y-127020000D03*
X111760000Y-127020000D03*
X109220000Y-127020000D03*
X106680000Y-127020000D03*
X104140000Y-127020000D03*
%TD*%
D15*
%TO.C,U16*%
X215900000Y-134620000D03*
D16*
X218440000Y-134620000D03*
X220980000Y-134620000D03*
X223520000Y-134620000D03*
X226060000Y-134620000D03*
X228600000Y-134620000D03*
X231140000Y-134620000D03*
X233680000Y-134620000D03*
X233680000Y-127000000D03*
X231140000Y-127000000D03*
X228600000Y-127000000D03*
X226060000Y-127000000D03*
X223520000Y-127000000D03*
X220980000Y-127000000D03*
X218440000Y-127000000D03*
X215900000Y-127000000D03*
%TD*%
D21*
%TO.C,R39*%
X167808000Y-57387000D03*
X175428000Y-57387000D03*
%TD*%
%TO.C,R34*%
X248920000Y-55295000D03*
X248920000Y-57835000D03*
%TD*%
D10*
%TO.C,C3*%
X62190000Y-100330000D03*
X59690000Y-100330000D03*
%TD*%
D15*
%TO.C,U7*%
X160655000Y-76200000D03*
D16*
X163195000Y-76200000D03*
X165735000Y-76200000D03*
X168275000Y-76200000D03*
X170815000Y-76200000D03*
X173355000Y-76200000D03*
X175895000Y-76200000D03*
X178435000Y-76200000D03*
X178435000Y-68580000D03*
X175895000Y-68580000D03*
X173355000Y-68580000D03*
X170815000Y-68580000D03*
X168275000Y-68580000D03*
X165735000Y-68580000D03*
X163195000Y-68580000D03*
X160655000Y-68580000D03*
%TD*%
D21*
%TO.C,R2*%
X101600000Y-83820000D03*
X93980000Y-83820000D03*
%TD*%
D27*
%TO.C,SW1*%
X45466000Y-74422000D03*
X45466000Y-67412000D03*
D28*
X42976000Y-73172000D03*
X42976000Y-68672000D03*
%TD*%
D15*
%TO.C,U2*%
X46990000Y-96520000D03*
D16*
X49530000Y-96520000D03*
X52070000Y-96520000D03*
X54610000Y-96520000D03*
X57150000Y-96520000D03*
X59690000Y-96520000D03*
X62230000Y-96520000D03*
X62230000Y-88900000D03*
X59690000Y-88900000D03*
X57150000Y-88900000D03*
X54610000Y-88900000D03*
X52070000Y-88900000D03*
X49530000Y-88900000D03*
X46990000Y-88900000D03*
%TD*%
D21*
%TO.C,R22*%
X238760000Y-60325000D03*
X238760000Y-62865000D03*
%TD*%
%TO.C,R5*%
X45720000Y-76835000D03*
X45720000Y-84455000D03*
%TD*%
D29*
%TO.C,J2*%
X159385000Y-125730000D03*
D30*
X161925000Y-125730000D03*
X164465000Y-125730000D03*
X167005000Y-125730000D03*
X169545000Y-125730000D03*
X172085000Y-125730000D03*
X174625000Y-125730000D03*
X177165000Y-125730000D03*
%TD*%
D21*
%TO.C,R15*%
X191684000Y-64372000D03*
X191684000Y-56752000D03*
%TD*%
%TO.C,R6*%
X48260000Y-76835000D03*
X48260000Y-84455000D03*
%TD*%
%TO.C,R32*%
X254000000Y-55295000D03*
X254000000Y-57835000D03*
%TD*%
D31*
%TO.C,SW2*%
X272155000Y-80310000D03*
X272155000Y-67010000D03*
D32*
X262255000Y-78510000D03*
X262255000Y-73710000D03*
X262255000Y-69010000D03*
%TD*%
D21*
%TO.C,R38*%
X266700000Y-91440000D03*
X266700000Y-83820000D03*
%TD*%
D10*
%TO.C,Cd27*%
X41910000Y-88900000D03*
X41910000Y-91400000D03*
%TD*%
D21*
%TO.C,R21*%
X236220000Y-60325000D03*
X236220000Y-62865000D03*
%TD*%
D10*
%TO.C,Cd1*%
X181610000Y-113030000D03*
X181610000Y-115530000D03*
%TD*%
D21*
%TO.C,R3*%
X58420000Y-130412000D03*
X58420000Y-138032000D03*
%TD*%
D15*
%TO.C,U15*%
X185420000Y-76200000D03*
D16*
X187960000Y-76200000D03*
X190500000Y-76200000D03*
X193040000Y-76200000D03*
X195580000Y-76200000D03*
X198120000Y-76200000D03*
X200660000Y-76200000D03*
X203200000Y-76200000D03*
X205740000Y-76200000D03*
X208280000Y-76200000D03*
X208280000Y-68580000D03*
X205740000Y-68580000D03*
X203200000Y-68580000D03*
X200660000Y-68580000D03*
X198120000Y-68580000D03*
X195580000Y-68580000D03*
X193040000Y-68580000D03*
X190500000Y-68580000D03*
X187960000Y-68580000D03*
X185420000Y-68580000D03*
%TD*%
D10*
%TO.C,Cd15*%
X41910000Y-119380000D03*
X41910000Y-121880000D03*
%TD*%
%TO.C,Cd30*%
X212090000Y-68580000D03*
X212090000Y-71080000D03*
%TD*%
D15*
%TO.C,U17*%
X241300000Y-104140000D03*
D16*
X243840000Y-104140000D03*
X246380000Y-104140000D03*
X248920000Y-104140000D03*
X251460000Y-104140000D03*
X254000000Y-104140000D03*
X256540000Y-104140000D03*
X259080000Y-104140000D03*
X259080000Y-96520000D03*
X256540000Y-96520000D03*
X254000000Y-96520000D03*
X251460000Y-96520000D03*
X248920000Y-96520000D03*
X246380000Y-96520000D03*
X243840000Y-96520000D03*
X241300000Y-96520000D03*
%TD*%
D10*
%TO.C,C2*%
X54610000Y-100330000D03*
X57110000Y-100330000D03*
%TD*%
%TO.C,Cd9*%
X212090000Y-96520000D03*
X212090000Y-99020000D03*
%TD*%
%TO.C,Cd29*%
X157480000Y-68580000D03*
X157480000Y-71080000D03*
%TD*%
D21*
%TO.C,R1*%
X55880000Y-130412000D03*
X55880000Y-138032000D03*
%TD*%
%TO.C,R28*%
X254000000Y-60375000D03*
X254000000Y-62915000D03*
%TD*%
D10*
%TO.C,Cd19*%
X104140000Y-68580000D03*
X104140000Y-71080000D03*
%TD*%
D21*
%TO.C,R14*%
X189398000Y-64372000D03*
X189398000Y-56752000D03*
%TD*%
D10*
%TO.C,Cd2*%
X181610000Y-127000000D03*
X181610000Y-129500000D03*
%TD*%
D15*
%TO.C,U32*%
X129540000Y-104775000D03*
D16*
X132080000Y-104775000D03*
X134620000Y-104775000D03*
X137160000Y-104775000D03*
X139700000Y-104775000D03*
X142240000Y-104775000D03*
X144780000Y-104775000D03*
X147320000Y-104775000D03*
X149860000Y-104775000D03*
X152400000Y-104775000D03*
X152400000Y-97155000D03*
X149860000Y-97155000D03*
X147320000Y-97155000D03*
X144780000Y-97155000D03*
X142240000Y-97155000D03*
X139700000Y-97155000D03*
X137160000Y-97155000D03*
X134620000Y-97155000D03*
X132080000Y-97155000D03*
X129540000Y-97155000D03*
%TD*%
D11*
%TO.C,C7*%
X167005000Y-64047380D03*
D10*
X167005000Y-60237380D03*
%TD*%
%TO.C,Cd13*%
X41910000Y-106680000D03*
X41910000Y-109180000D03*
%TD*%
D11*
%TO.C,C6*%
X269875000Y-97790000D03*
D10*
X269875000Y-93980000D03*
%TD*%
D24*
%TO.C,D1*%
X53340000Y-130412000D03*
D25*
X53340000Y-138032000D03*
%TD*%
D15*
%TO.C,U24*%
X215900000Y-90270000D03*
D16*
X218440000Y-90270000D03*
X220980000Y-90270000D03*
X223520000Y-90270000D03*
X226060000Y-90270000D03*
X228600000Y-90270000D03*
X231140000Y-90270000D03*
X233680000Y-90270000D03*
X233680000Y-82650000D03*
X231140000Y-82650000D03*
X228600000Y-82650000D03*
X226060000Y-82650000D03*
X223520000Y-82650000D03*
X220980000Y-82650000D03*
X218440000Y-82650000D03*
X215900000Y-82650000D03*
%TD*%
D15*
%TO.C,U14*%
X185420000Y-90170000D03*
D16*
X187960000Y-90170000D03*
X190500000Y-90170000D03*
X193040000Y-90170000D03*
X195580000Y-90170000D03*
X198120000Y-90170000D03*
X200660000Y-90170000D03*
X203200000Y-90170000D03*
X203200000Y-82550000D03*
X200660000Y-82550000D03*
X198120000Y-82550000D03*
X195580000Y-82550000D03*
X193040000Y-82550000D03*
X190500000Y-82550000D03*
X187960000Y-82550000D03*
X185420000Y-82550000D03*
%TD*%
D29*
%TO.C,J9*%
X100330000Y-97155000D03*
D30*
X100330000Y-99695000D03*
X100330000Y-102235000D03*
%TD*%
D21*
%TO.C,R36*%
X243840000Y-55295000D03*
X243840000Y-57835000D03*
%TD*%
D11*
%TO.C,RN1*%
X185420000Y-108685000D03*
D12*
X187960000Y-108685000D03*
X190500000Y-108685000D03*
X193040000Y-108685000D03*
X195580000Y-108685000D03*
X198120000Y-108685000D03*
X200660000Y-108685000D03*
X203200000Y-108685000D03*
X205740000Y-108685000D03*
%TD*%
D26*
%TO.C,H4*%
X269000000Y-135000000D03*
%TD*%
D21*
%TO.C,R29*%
X251460000Y-60375000D03*
X251460000Y-62915000D03*
%TD*%
D10*
%TO.C,Cd20*%
X238125000Y-111780000D03*
X238125000Y-114280000D03*
%TD*%
D21*
%TO.C,R44*%
X66040000Y-130429000D03*
X66040000Y-138049000D03*
%TD*%
D13*
%TO.C,U21*%
X250190000Y-118110000D03*
D14*
X247650000Y-120650000D03*
X250190000Y-120650000D03*
X247650000Y-123190000D03*
X250190000Y-125730000D03*
X250190000Y-123190000D03*
X252730000Y-125730000D03*
X252730000Y-123190000D03*
X255270000Y-125730000D03*
X255270000Y-123190000D03*
X257810000Y-125730000D03*
X260350000Y-123190000D03*
X257810000Y-123190000D03*
X260350000Y-120650000D03*
X257810000Y-120650000D03*
X260350000Y-118110000D03*
X257810000Y-118110000D03*
X260350000Y-115570000D03*
X257810000Y-113030000D03*
X257810000Y-115570000D03*
X255270000Y-113030000D03*
X255270000Y-115570000D03*
X252730000Y-113030000D03*
X252730000Y-115570000D03*
X250190000Y-113030000D03*
X247650000Y-115570000D03*
X250190000Y-115570000D03*
X247650000Y-118110000D03*
%TD*%
D26*
%TO.C,H3*%
X269030000Y-61000000D03*
%TD*%
D10*
%TO.C,C4*%
X241300000Y-62825000D03*
X241300000Y-60325000D03*
%TD*%
D21*
%TO.C,R37*%
X69850000Y-107950000D03*
X69850000Y-100330000D03*
%TD*%
D24*
%TO.C,D2*%
X60960000Y-138049000D03*
D25*
X60960000Y-130429000D03*
%TD*%
D15*
%TO.C,U23*%
X215900000Y-104140000D03*
D16*
X218440000Y-104140000D03*
X220980000Y-104140000D03*
X223520000Y-104140000D03*
X226060000Y-104140000D03*
X228600000Y-104140000D03*
X231140000Y-104140000D03*
X233680000Y-104140000D03*
X233680000Y-96520000D03*
X231140000Y-96520000D03*
X228600000Y-96520000D03*
X226060000Y-96520000D03*
X223520000Y-96520000D03*
X220980000Y-96520000D03*
X218440000Y-96520000D03*
X215900000Y-96520000D03*
%TD*%
D10*
%TO.C,Cd31*%
X100330000Y-93980000D03*
X100330000Y-91480000D03*
%TD*%
D21*
%TO.C,R41*%
X264160000Y-91440000D03*
X264160000Y-83820000D03*
%TD*%
D11*
%TO.C,C8*%
X52000000Y-63635000D03*
D10*
X52000000Y-59825000D03*
%TD*%
D15*
%TO.C,U28*%
X57150000Y-83820000D03*
D16*
X59690000Y-83820000D03*
X62230000Y-83820000D03*
X64770000Y-83820000D03*
X67310000Y-83820000D03*
X69850000Y-83820000D03*
X72390000Y-83820000D03*
X74930000Y-83820000D03*
X77470000Y-83820000D03*
X80010000Y-83820000D03*
X82550000Y-83820000D03*
X85090000Y-83820000D03*
X87630000Y-83820000D03*
X90170000Y-83820000D03*
X90170000Y-68580000D03*
X87630000Y-68580000D03*
X85090000Y-68580000D03*
X82550000Y-68580000D03*
X80010000Y-68580000D03*
X77470000Y-68580000D03*
X74930000Y-68580000D03*
X72390000Y-68580000D03*
X69850000Y-68580000D03*
X67310000Y-68580000D03*
X64770000Y-68580000D03*
X62230000Y-68580000D03*
X59690000Y-68580000D03*
X57150000Y-68580000D03*
%TD*%
D15*
%TO.C,U10*%
X107950000Y-76200000D03*
D16*
X110490000Y-76200000D03*
X113030000Y-76200000D03*
X115570000Y-76200000D03*
X118110000Y-76200000D03*
X120650000Y-76200000D03*
X123190000Y-76200000D03*
X125730000Y-76200000D03*
X125730000Y-68580000D03*
X123190000Y-68580000D03*
X120650000Y-68580000D03*
X118110000Y-68580000D03*
X115570000Y-68580000D03*
X113030000Y-68580000D03*
X110490000Y-68580000D03*
X107950000Y-68580000D03*
%TD*%
D10*
%TO.C,Cd25*%
X125730000Y-113030000D03*
X125730000Y-115530000D03*
%TD*%
D21*
%TO.C,R43*%
X63500000Y-130450000D03*
X63500000Y-138070000D03*
%TD*%
D33*
%TO.C,J4*%
X217513000Y-50559640D03*
X219418000Y-45479640D03*
X221323000Y-50559640D03*
X223228000Y-45479640D03*
X225133000Y-50559640D03*
X227038000Y-45479640D03*
X228943000Y-50559640D03*
X230848000Y-45479640D03*
X232753000Y-50559640D03*
X234658000Y-45479640D03*
X236563000Y-50559640D03*
X238468000Y-45479640D03*
X240373000Y-50559640D03*
X242278000Y-45479640D03*
X244183000Y-50559640D03*
X246088000Y-45479640D03*
X247993000Y-50559640D03*
X249898000Y-45479640D03*
X251803000Y-50559640D03*
X253708000Y-45479640D03*
X255613000Y-50559640D03*
%TD*%
D13*
%TO.C,U8*%
X164465000Y-102335000D03*
D14*
X161925000Y-104875000D03*
X164465000Y-104875000D03*
X161925000Y-107415000D03*
X164465000Y-109955000D03*
X164465000Y-107415000D03*
X167005000Y-109955000D03*
X167005000Y-107415000D03*
X169545000Y-109955000D03*
X169545000Y-107415000D03*
X172085000Y-109955000D03*
X172085000Y-107415000D03*
X174625000Y-109955000D03*
X177165000Y-107415000D03*
X174625000Y-107415000D03*
X177165000Y-104875000D03*
X174625000Y-104875000D03*
X177165000Y-102335000D03*
X174625000Y-102335000D03*
X177165000Y-99795000D03*
X174625000Y-97255000D03*
X174625000Y-99795000D03*
X172085000Y-97255000D03*
X172085000Y-99795000D03*
X169545000Y-97255000D03*
X169545000Y-99795000D03*
X167005000Y-97255000D03*
X167005000Y-99795000D03*
X164465000Y-97255000D03*
X161925000Y-99795000D03*
X164465000Y-99795000D03*
X161925000Y-102335000D03*
%TD*%
D15*
%TO.C,U22*%
X215900000Y-120650000D03*
D16*
X218440000Y-120650000D03*
X220980000Y-120650000D03*
X223520000Y-120650000D03*
X226060000Y-120650000D03*
X228600000Y-120650000D03*
X231140000Y-120650000D03*
X233680000Y-120650000D03*
X233680000Y-113030000D03*
X231140000Y-113030000D03*
X228600000Y-113030000D03*
X226060000Y-113030000D03*
X223520000Y-113030000D03*
X220980000Y-113030000D03*
X218440000Y-113030000D03*
X215900000Y-113030000D03*
%TD*%
D15*
%TO.C,U26*%
X46990000Y-114300000D03*
D16*
X49530000Y-114300000D03*
X52070000Y-114300000D03*
X54610000Y-114300000D03*
X57150000Y-114300000D03*
X59690000Y-114300000D03*
X62230000Y-114300000D03*
X62230000Y-106680000D03*
X59690000Y-106680000D03*
X57150000Y-106680000D03*
X54610000Y-106680000D03*
X52070000Y-106680000D03*
X49530000Y-106680000D03*
X46990000Y-106680000D03*
%TD*%
D13*
%TO.C,U1*%
X77470000Y-121920000D03*
D14*
X74930000Y-124460000D03*
X77470000Y-124460000D03*
X74930000Y-127000000D03*
X77470000Y-127000000D03*
X74930000Y-129540000D03*
X77470000Y-132080000D03*
X77470000Y-129540000D03*
X80010000Y-132080000D03*
X80010000Y-129540000D03*
X82550000Y-132080000D03*
X82550000Y-129540000D03*
X85090000Y-132080000D03*
X85090000Y-129540000D03*
X87630000Y-132080000D03*
X87630000Y-129540000D03*
X90170000Y-132080000D03*
X92710000Y-129540000D03*
X90170000Y-129540000D03*
X92710000Y-127000000D03*
X90170000Y-127000000D03*
X92710000Y-124460000D03*
X90170000Y-124460000D03*
X92710000Y-121920000D03*
X90170000Y-121920000D03*
X92710000Y-119380000D03*
X90170000Y-119380000D03*
X92710000Y-116840000D03*
X90170000Y-114300000D03*
X90170000Y-116840000D03*
X87630000Y-114300000D03*
X87630000Y-116840000D03*
X85090000Y-114300000D03*
X85090000Y-116840000D03*
X82550000Y-114300000D03*
X82550000Y-116840000D03*
X80010000Y-114300000D03*
X80010000Y-116840000D03*
X77470000Y-114300000D03*
X74930000Y-116840000D03*
X77470000Y-116840000D03*
X74930000Y-119380000D03*
X77470000Y-119380000D03*
X74930000Y-121920000D03*
%TD*%
D34*
%TO.C,H6*%
X155000000Y-120000000D03*
%TD*%
D30*
%TO.C,J1*%
X142240000Y-125730000D03*
X139700000Y-125730000D03*
X137160000Y-125730000D03*
X134620000Y-125730000D03*
X132080000Y-125730000D03*
D29*
X129540000Y-125730000D03*
%TD*%
D35*
%TO.C,D3*%
X261030000Y-54225000D03*
D36*
X261030000Y-56765000D03*
%TD*%
D16*
%TO.C,U31*%
X185420000Y-127000000D03*
X187960000Y-127000000D03*
X190500000Y-127000000D03*
X193040000Y-127000000D03*
X195580000Y-127000000D03*
X198120000Y-127000000D03*
X200660000Y-127000000D03*
X203200000Y-127000000D03*
X205740000Y-127000000D03*
X208280000Y-127000000D03*
X208280000Y-134620000D03*
X205740000Y-134620000D03*
X203200000Y-134620000D03*
X200660000Y-134620000D03*
X198120000Y-134620000D03*
X195580000Y-134620000D03*
X193040000Y-134620000D03*
X190500000Y-134620000D03*
X187960000Y-134620000D03*
D15*
X185420000Y-134620000D03*
%TD*%
D21*
%TO.C,R35*%
X246380000Y-55295000D03*
X246380000Y-57835000D03*
%TD*%
%TO.C,R12*%
X93980000Y-71120000D03*
X101600000Y-71120000D03*
%TD*%
%TO.C,R17*%
X197526000Y-64372000D03*
X197526000Y-56752000D03*
%TD*%
%TO.C,R20*%
X233721000Y-60325000D03*
X233721000Y-62865000D03*
%TD*%
D13*
%TO.C,U29*%
X77470000Y-97790000D03*
D14*
X74930000Y-100330000D03*
X77470000Y-100330000D03*
X74930000Y-102870000D03*
X77470000Y-105410000D03*
X77470000Y-102870000D03*
X80010000Y-105410000D03*
X80010000Y-102870000D03*
X82550000Y-105410000D03*
X82550000Y-102870000D03*
X85090000Y-105410000D03*
X85090000Y-102870000D03*
X87630000Y-105410000D03*
X90170000Y-102870000D03*
X87630000Y-102870000D03*
X90170000Y-100330000D03*
X87630000Y-100330000D03*
X90170000Y-97790000D03*
X87630000Y-97790000D03*
X90170000Y-95250000D03*
X87630000Y-92710000D03*
X87630000Y-95250000D03*
X85090000Y-92710000D03*
X85090000Y-95250000D03*
X82550000Y-92710000D03*
X82550000Y-95250000D03*
X80010000Y-92710000D03*
X80010000Y-95250000D03*
X77470000Y-92710000D03*
X74930000Y-95250000D03*
X77470000Y-95250000D03*
X74930000Y-97790000D03*
%TD*%
D10*
%TO.C,Cd26*%
X181610000Y-96520000D03*
X181610000Y-99020000D03*
%TD*%
D15*
%TO.C,U30*%
X129518000Y-120650000D03*
D16*
X132058000Y-120650000D03*
X134598000Y-120650000D03*
X137138000Y-120650000D03*
X139678000Y-120650000D03*
X142218000Y-120650000D03*
X144758000Y-120650000D03*
X147298000Y-120650000D03*
X147298000Y-113030000D03*
X144758000Y-113030000D03*
X142218000Y-113030000D03*
X139678000Y-113030000D03*
X137138000Y-113030000D03*
X134598000Y-113030000D03*
X132058000Y-113030000D03*
X129518000Y-113030000D03*
%TD*%
D29*
%TO.C,J6*%
X110648000Y-54610000D03*
D30*
X110648000Y-49530000D03*
X113188000Y-54610000D03*
X113188000Y-49530000D03*
X115728000Y-54610000D03*
X115728000Y-49530000D03*
X118268000Y-54610000D03*
X118268000Y-49530000D03*
X120808000Y-54610000D03*
X120808000Y-49530000D03*
X123348000Y-54610000D03*
X123348000Y-49530000D03*
X125888000Y-54610000D03*
X125888000Y-49530000D03*
X128428000Y-54610000D03*
X128428000Y-49530000D03*
X130968000Y-54610000D03*
X130968000Y-49530000D03*
X133508000Y-54610000D03*
X133508000Y-49530000D03*
X136048000Y-54610000D03*
X136048000Y-49530000D03*
X138588000Y-54610000D03*
X138588000Y-49530000D03*
X141128000Y-54610000D03*
X141128000Y-49530000D03*
X143668000Y-54610000D03*
X143668000Y-49530000D03*
X146208000Y-54610000D03*
X146208000Y-49530000D03*
X148748000Y-54610000D03*
X148748000Y-49530000D03*
X151288000Y-54610000D03*
X151288000Y-49530000D03*
X153828000Y-54610000D03*
X153828000Y-49530000D03*
X156368000Y-54610000D03*
X156368000Y-49530000D03*
X158908000Y-54610000D03*
X158908000Y-49530000D03*
D37*
X161448000Y-54610000D03*
X161448000Y-49530000D03*
X163988000Y-54610000D03*
X163988000Y-49530000D03*
%TD*%
D10*
%TO.C,Cd16*%
X212090000Y-113030000D03*
X212090000Y-115530000D03*
%TD*%
D21*
%TO.C,R40*%
X269240000Y-83820000D03*
X269240000Y-91440000D03*
%TD*%
D10*
%TO.C,Cd14*%
X85090000Y-109855000D03*
X87590000Y-109855000D03*
%TD*%
D15*
%TO.C,U4*%
X104140000Y-120650000D03*
D16*
X106680000Y-120650000D03*
X109220000Y-120650000D03*
X111760000Y-120650000D03*
X114300000Y-120650000D03*
X116840000Y-120650000D03*
X119380000Y-120650000D03*
X121920000Y-120650000D03*
X121920000Y-113030000D03*
X119380000Y-113030000D03*
X116840000Y-113030000D03*
X114300000Y-113030000D03*
X111760000Y-113030000D03*
X109220000Y-113030000D03*
X106680000Y-113030000D03*
X104140000Y-113030000D03*
%TD*%
D10*
%TO.C,Cd10*%
X69850000Y-97790000D03*
X69850000Y-95290000D03*
%TD*%
%TO.C,Cd17*%
X181610000Y-82550000D03*
X181610000Y-85050000D03*
%TD*%
D21*
%TO.C,R13*%
X93980000Y-68580000D03*
X101600000Y-68580000D03*
%TD*%
D10*
%TO.C,Cd6*%
X157480000Y-102235000D03*
X157480000Y-104735000D03*
%TD*%
D21*
%TO.C,R33*%
X251460000Y-55295000D03*
X251460000Y-57835000D03*
%TD*%
D15*
%TO.C,U25*%
X215900000Y-76200000D03*
D16*
X218440000Y-76200000D03*
X220980000Y-76200000D03*
X223520000Y-76200000D03*
X226060000Y-76200000D03*
X228600000Y-76200000D03*
X231140000Y-76200000D03*
X233680000Y-76200000D03*
X233680000Y-68580000D03*
X231140000Y-68580000D03*
X228600000Y-68580000D03*
X226060000Y-68580000D03*
X223520000Y-68580000D03*
X220980000Y-68580000D03*
X218440000Y-68580000D03*
X215900000Y-68580000D03*
%TD*%
D15*
%TO.C,U12*%
X185420000Y-104140000D03*
D16*
X187960000Y-104140000D03*
X190500000Y-104140000D03*
X193040000Y-104140000D03*
X195580000Y-104140000D03*
X198120000Y-104140000D03*
X200660000Y-104140000D03*
X203200000Y-104140000D03*
X205740000Y-104140000D03*
X208280000Y-104140000D03*
X208280000Y-96520000D03*
X205740000Y-96520000D03*
X203200000Y-96520000D03*
X200660000Y-96520000D03*
X198120000Y-96520000D03*
X195580000Y-96520000D03*
X193040000Y-96520000D03*
X190500000Y-96520000D03*
X187960000Y-96520000D03*
X185420000Y-96520000D03*
%TD*%
D21*
%TO.C,R31*%
X246380000Y-60375000D03*
X246380000Y-62915000D03*
%TD*%
D38*
%TO.C,J8*%
X209264000Y-50800000D03*
X207264000Y-48900000D03*
X207264000Y-42700000D03*
X209264000Y-45200000D03*
X207264000Y-54500000D03*
%TD*%
D21*
%TO.C,R23*%
X231140000Y-55245000D03*
X231140000Y-57785000D03*
%TD*%
D29*
%TO.C,J5*%
X46523000Y-54610000D03*
D30*
X46523000Y-49530000D03*
X49063000Y-54610000D03*
X49063000Y-49530000D03*
X51603000Y-54610000D03*
X51603000Y-49530000D03*
X54143000Y-54610000D03*
X54143000Y-49530000D03*
X56683000Y-54610000D03*
X56683000Y-49530000D03*
X59223000Y-54610000D03*
X59223000Y-49530000D03*
X61763000Y-54610000D03*
X61763000Y-49530000D03*
X64303000Y-54610000D03*
X64303000Y-49530000D03*
X66843000Y-54610000D03*
X66843000Y-49530000D03*
X69383000Y-54610000D03*
X69383000Y-49530000D03*
X71923000Y-54610000D03*
X71923000Y-49530000D03*
X74463000Y-54610000D03*
X74463000Y-49530000D03*
X77003000Y-54610000D03*
X77003000Y-49530000D03*
X79543000Y-54610000D03*
X79543000Y-49530000D03*
X82083000Y-54610000D03*
X82083000Y-49530000D03*
X84623000Y-54610000D03*
X84623000Y-49530000D03*
X87163000Y-54610000D03*
X87163000Y-49530000D03*
X89703000Y-54610000D03*
X89703000Y-49530000D03*
X92243000Y-54610000D03*
X92243000Y-49530000D03*
X94783000Y-54610000D03*
X94783000Y-49530000D03*
D37*
X97323000Y-54610000D03*
X97323000Y-49530000D03*
X99863000Y-54610000D03*
X99863000Y-49530000D03*
%TD*%
D21*
%TO.C,R27*%
X241300000Y-55245000D03*
X241300000Y-57785000D03*
%TD*%
D15*
%TO.C,U27*%
X45720000Y-127000000D03*
D16*
X48260000Y-127000000D03*
X50800000Y-127000000D03*
X53340000Y-127000000D03*
X55880000Y-127000000D03*
X58420000Y-127000000D03*
X60960000Y-127000000D03*
X63500000Y-127000000D03*
X63500000Y-119380000D03*
X60960000Y-119380000D03*
X58420000Y-119380000D03*
X55880000Y-119380000D03*
X53340000Y-119380000D03*
X50800000Y-119380000D03*
X48260000Y-119380000D03*
X45720000Y-119380000D03*
%TD*%
D21*
%TO.C,R30*%
X248920000Y-60375000D03*
X248920000Y-62915000D03*
%TD*%
D34*
%TO.C,H5*%
X155000000Y-77000000D03*
%TD*%
D10*
%TO.C,Cd23*%
X237490000Y-68580000D03*
X237490000Y-71080000D03*
%TD*%
%TO.C,Cd7*%
X125730000Y-82550000D03*
X125730000Y-85050000D03*
%TD*%
%TO.C,Cd8*%
X100965000Y-113030000D03*
X100965000Y-115530000D03*
%TD*%
D26*
%TO.C,H1*%
X45030000Y-61000000D03*
%TD*%
D10*
%TO.C,Cd22*%
X237510000Y-96520000D03*
X237510000Y-99020000D03*
%TD*%
D21*
%TO.C,R18*%
X200945000Y-64372000D03*
X200945000Y-56752000D03*
%TD*%
D10*
%TO.C,Cd3*%
X157480000Y-82550000D03*
X157480000Y-85050000D03*
%TD*%
%TO.C,Cd24*%
X237490000Y-82787000D03*
X237490000Y-85287000D03*
%TD*%
%TO.C,Cd5*%
X129645000Y-68580000D03*
X129645000Y-71080000D03*
%TD*%
D21*
%TO.C,R8*%
X93980000Y-81280000D03*
X101600000Y-81280000D03*
%TD*%
%TO.C,R42*%
X50800000Y-130412000D03*
X50800000Y-138032000D03*
%TD*%
%TO.C,R19*%
X231140000Y-60325000D03*
X231140000Y-62865000D03*
%TD*%
%TO.C,R4*%
X43180000Y-76835000D03*
X43180000Y-84455000D03*
%TD*%
D39*
%TO.C,Y1*%
X49530000Y-101600000D03*
X44650000Y-101600000D03*
%TD*%
D15*
%TO.C,U9*%
X185420000Y-120650000D03*
D16*
X187960000Y-120650000D03*
X190500000Y-120650000D03*
X193040000Y-120650000D03*
X195580000Y-120650000D03*
X198120000Y-120650000D03*
X200660000Y-120650000D03*
X203200000Y-120650000D03*
X205740000Y-120650000D03*
X208280000Y-120650000D03*
X208280000Y-113030000D03*
X205740000Y-113030000D03*
X203200000Y-113030000D03*
X200660000Y-113030000D03*
X198120000Y-113030000D03*
X195580000Y-113030000D03*
X193040000Y-113030000D03*
X190500000Y-113030000D03*
X187960000Y-113030000D03*
X185420000Y-113030000D03*
%TD*%
D10*
%TO.C,Cd12*%
X181610000Y-68580000D03*
X181610000Y-71080000D03*
%TD*%
D15*
%TO.C,U13*%
X160655000Y-90170000D03*
D16*
X163195000Y-90170000D03*
X165735000Y-90170000D03*
X168275000Y-90170000D03*
X170815000Y-90170000D03*
X173355000Y-90170000D03*
X175895000Y-90170000D03*
X178435000Y-90170000D03*
X178435000Y-82550000D03*
X175895000Y-82550000D03*
X173355000Y-82550000D03*
X170815000Y-82550000D03*
X168275000Y-82550000D03*
X165735000Y-82550000D03*
X163195000Y-82550000D03*
X160655000Y-82550000D03*
%TD*%
D24*
%TO.C,D6*%
X271780000Y-83820000D03*
D25*
X271780000Y-91440000D03*
%TD*%
D24*
%TO.C,D5*%
X50800000Y-84455000D03*
D25*
X50800000Y-76835000D03*
%TD*%
D21*
%TO.C,R26*%
X238760000Y-55240000D03*
X238760000Y-57780000D03*
%TD*%
D10*
%TO.C,Cd18*%
X57150000Y-64770000D03*
X59650000Y-64770000D03*
%TD*%
D15*
%TO.C,U11*%
X132693000Y-76200000D03*
D16*
X135233000Y-76200000D03*
X137773000Y-76200000D03*
X140313000Y-76200000D03*
X142853000Y-76200000D03*
X145393000Y-76200000D03*
X147933000Y-76200000D03*
X150473000Y-76200000D03*
X150473000Y-68580000D03*
X147933000Y-68580000D03*
X145393000Y-68580000D03*
X142853000Y-68580000D03*
X140313000Y-68580000D03*
X137773000Y-68580000D03*
X135233000Y-68580000D03*
X132693000Y-68580000D03*
%TD*%
D15*
%TO.C,U6*%
X129540000Y-90170000D03*
D16*
X132080000Y-90170000D03*
X134620000Y-90170000D03*
X137160000Y-90170000D03*
X139700000Y-90170000D03*
X142240000Y-90170000D03*
X144780000Y-90170000D03*
X147320000Y-90170000D03*
X149860000Y-90170000D03*
X152400000Y-90170000D03*
X152400000Y-82550000D03*
X149860000Y-82550000D03*
X147320000Y-82550000D03*
X144780000Y-82550000D03*
X142240000Y-82550000D03*
X139700000Y-82550000D03*
X137160000Y-82550000D03*
X134620000Y-82550000D03*
X132080000Y-82550000D03*
X129540000Y-82550000D03*
%TD*%
M02*
