M48
; DRILL file {KiCad 8.0.6} date 2025-01-18T12:45:13+0000
; FORMAT={-:-/ absolute / inch / decimal}
; #@! TF.CreationDate,2025-01-18T12:45:13+00:00
; #@! TF.GenerationSoftware,Kicad,Pcbnew,8.0.6
; #@! TF.FileFunction,Plated,1,2,PTH
FMAT,2
INCH
; #@! TA.AperFunction,Plated,PTH,ComponentDrill
T1C0.0118
; #@! TA.AperFunction,Plated,PTH,ViaDrill
T2C0.0157
; #@! TA.AperFunction,Plated,PTH,ComponentDrill
T3C0.0236
; #@! TA.AperFunction,Plated,PTH,ComponentDrill
T4C0.0295
; #@! TA.AperFunction,Plated,PTH,ComponentDrill
T5C0.0315
; #@! TA.AperFunction,Plated,PTH,ComponentDrill
T6C0.0354
; #@! TA.AperFunction,Plated,PTH,ComponentDrill
T7C0.0390
; #@! TA.AperFunction,Plated,PTH,ComponentDrill
T8C0.0394
; #@! TA.AperFunction,Plated,PTH,ComponentDrill
T9C0.0472
; #@! TA.AperFunction,Plated,PTH,ComponentDrill
T10C0.0472
; #@! TA.AperFunction,Plated,PTH,ComponentDrill
T11C0.0512
; #@! TA.AperFunction,Plated,PTH,ComponentDrill
T12C0.1260
%
G90
G05
T2
X1.76Y-3.89
X1.85Y-4.6
X1.85Y-5.1
X1.875Y-4.8
X1.9Y-4.35
X1.95Y-3.19
X1.95Y-3.4
X1.97Y-3.9
X2.0Y-3.6
X2.05Y-2.93
X2.05Y-4.8
X2.05Y-5.325
X2.05Y-5.375
X2.09Y-2.63
X2.1Y-3.2
X2.1Y-4.325
X2.1Y-4.425
X2.1Y-4.6
X2.1Y-5.225
X2.1285Y-2.775
X2.1285Y-2.95
X2.15Y-3.09
X2.1523Y-5.4017
X2.19Y-4.43
X2.2Y-2.9785
X2.2Y-4.3827
X2.2Y-4.9
X2.25Y-3.4
X2.25Y-5.4
X2.25Y-5.475
X2.26Y-2.81
X2.26Y-2.9
X2.2702Y-3.5798
X2.3Y-3.075
X2.325Y-4.9
X2.35Y-3.05
X2.35Y-4.3465
X2.45Y-2.9035
X2.45Y-4.3
X2.5Y-3.6285
X2.5Y-4.9
X2.5Y-5.375
X2.52Y-4.21
X2.525Y-4.1465
X2.5285Y-4.0795
X2.5287Y-5.1965
X2.5354Y-3.5649
X2.5465Y-4.5035
X2.5674Y-4.3556
X2.575Y-4.4035
X2.5925Y-3.5387
X2.6142Y-4.1381
X2.6143Y-4.5886
X2.625Y-5.375
X2.6377Y-3.4781
X2.6435Y-4.6465
X2.672Y-4.675
X2.6811Y-3.6276
X2.7Y-3.8
X2.7Y-5.425
X2.7006Y-4.809
X2.7083Y-4.11
X2.709Y-3.5998
X2.75Y-4.5
X2.766Y-3.602
X2.775Y-4.325
X2.7934Y-3.6316
X2.8Y-3.075
X2.8Y-3.5821
X2.8249Y-4.0537
X2.85Y-3.625
X2.8537Y-4.1
X2.869Y-3.5535
X2.8715Y-4.15
X2.875Y-2.2463
X2.8974Y-4.1868
X2.9Y-3.6035
X2.9Y-4.275
X2.9021Y-2.4729
X2.9112Y-3.4958
X2.9142Y-4.0122
X2.95Y-2.325
X2.9715Y-3.6189
X2.975Y-5.175
X2.9785Y-2.775
X2.9911Y-3.3839
X3.0Y-3.1535
X3.0Y-3.9807
X3.0Y-4.55
X3.0377Y-3.5999
X3.0833Y-2.3821
X3.1Y-3.1535
X3.1077Y-4.3577
X3.125Y-4.7
X3.125Y-4.8
X3.125Y-4.9
X3.15Y-2.5965
X3.15Y-5.025
X3.1715Y-2.4035
X3.2Y-4.375
X3.225Y-3.875
X3.25Y-2.55
X3.25Y-4.75
X3.275Y-4.875
X3.275Y-4.95
X3.275Y-5.025
X3.2897Y-3.8371
X3.3285Y-4.7
X3.35Y-2.5215
X3.425Y-4.725
X3.425Y-4.875
X3.425Y-5.0
X3.45Y-2.2925
X3.4533Y-2.4907
X3.4609Y-4.6969
X3.5Y-2.8189
X3.5Y-3.569
X3.5058Y-5.0266
X3.5144Y-2.325
X3.5285Y-3.4589
X3.5285Y-3.3665
X3.5285Y-3.4059
X3.5472Y-2.4278
X3.55Y-2.3535
X3.5566Y-4.1785
X3.575Y-2.4
X3.58Y-3.675
X3.6036Y-4.2654
X3.6069Y-2.95
X3.6256Y-4.3841
X3.6421Y-4.2575
X3.6547Y-5.3937
X3.6548Y-4.15
X3.664Y-2.3821
X3.7Y-2.425
X3.7Y-2.625
X3.7Y-4.1959
X3.7Y-4.3053
X3.7215Y-3.3785
X3.7256Y-3.5337
X3.7282Y-4.2707
X3.7352Y-4.2136
X3.7435Y-4.0534
X3.75Y-2.4555
X3.7508Y-4.8823
X3.7923Y-4.5423
X3.8Y-2.425
X3.811Y-4.289
X3.8183Y-4.0837
X3.825Y-2.264
X3.825Y-2.675
X3.825Y-2.825
X3.825Y-3.0
X3.825Y-3.275
X3.825Y-4.5
X3.836Y-4.0207
X3.8434Y-4.95
X3.8444Y-3.4233
X3.85Y-3.9
X3.875Y-3.675
X3.875Y-5.25
X3.8777Y-4.1623
X3.8827Y-4.5577
X3.8838Y-2.4317
X3.8857Y-3.4627
X3.8965Y-4.9
X3.9071Y-2.3821
X3.9151Y-2.4555
X3.925Y-3.2
X3.925Y-4.7039
X3.9423Y-3.2785
X3.95Y-2.675
X3.96Y-3.06
X3.9827Y-3.3827
X4.025Y-5.25
X4.0419Y-2.3911
X4.0465Y-3.825
X4.05Y-3.1715
X4.05Y-3.5592
X4.075Y-2.9
X4.0785Y-3.3
X4.1Y-1.625
X4.1329Y-2.4829
X4.15Y-4.625
X4.16Y-3.98
X4.16Y-4.13
X4.175Y-2.489
X4.175Y-2.675
X4.175Y-3.2
X4.2Y-5.4602
X4.25Y-5.1
X4.25Y-5.225
X4.3Y-2.5474
X4.3Y-2.85
X4.3Y-3.1285
X4.35Y-2.576
X4.35Y-3.81
X4.35Y-4.65
X4.35Y-5.25
X4.35Y-5.4823
X4.4Y-2.5189
X4.4Y-3.075
X4.43Y-3.68
X4.45Y-4.65
X4.5Y-2.4904
X4.5Y-3.075
X4.5Y-3.85
X4.55Y-4.1421
X4.55Y-4.65
X4.56Y-3.68
X4.56Y-3.81
X4.6Y-2.2
X4.6Y-2.4618
X4.6Y-3.0886
X4.6Y-3.45
X4.6377Y-4.1244
X4.65Y-4.65
X4.65Y-5.08
X4.675Y-2.85
X4.7Y-2.2
X4.7Y-3.075
X4.7Y-3.35
X4.7016Y-3.9965
X4.752Y-4.1067
X4.76Y-5.08
X4.775Y-2.85
X4.791Y-4.089
X4.8Y-2.2
X4.8Y-3.1063
X4.8Y-3.35
X4.8327Y-3.8827
X4.85Y-1.875
X4.8703Y-2.3157
X4.875Y-2.85
X4.875Y-4.025
X4.8825Y-3.0886
X4.9Y-2.2
X4.9Y-4.075
X4.925Y-4.625
X4.95Y-1.875
X4.95Y-5.05
X4.9656Y-2.3443
X4.9691Y-3.6984
X4.9704Y-3.7377
X4.9715Y-3.6535
X5.0Y-2.2
X5.0203Y-2.3679
X5.0215Y-5.1215
X5.025Y-4.675
X5.05Y-1.875
X5.0535Y-5.2
X5.1Y-2.2
X5.1Y-4.65
X5.1Y-5.025
X5.1Y-5.1
X5.1Y-5.2
X5.15Y-1.875
X5.15Y-2.3965
X5.2Y-2.2
X5.2Y-4.65
X5.2Y-5.025
X5.2Y-5.1
X5.2Y-5.2
X5.225Y-2.425
X5.25Y-1.875
X5.25Y-4.4008
X5.275Y-2.9
X5.3Y-2.2
X5.3Y-4.65
X5.3Y-5.025
X5.3Y-5.1
X5.3Y-5.2
X5.35Y-1.875
X5.3548Y-4.4
X5.375Y-2.9
X5.375Y-5.2
X5.4Y-2.05
X5.4Y-2.2
X5.4Y-4.65
X5.4Y-5.025
X5.4Y-5.1
X5.4Y-5.25
X5.45Y-1.875
X5.475Y-2.275
X5.475Y-3.1063
X5.4883Y-5.4037
X5.5Y-2.05
X5.5Y-4.65
X5.5Y-5.025
X5.5Y-5.1
X5.525Y-2.225
X5.525Y-2.325
X5.55Y-1.875
X5.55Y-4.375
X5.55Y-5.2
X5.55Y-5.375
X5.575Y-2.275
X5.575Y-2.375
X5.575Y-2.925
X5.6Y-2.05
X5.6Y-3.124
X5.625Y-2.225
X5.625Y-2.325
X5.625Y-2.425
X5.625Y-3.961
X5.625Y-5.025
X5.625Y-5.1
X5.65Y-1.875
X5.65Y-4.375
X5.65Y-4.65
X5.675Y-2.025
X5.675Y-2.275
X5.675Y-2.375
X5.675Y-2.475
X5.675Y-3.05
X5.6982Y-4.2732
X5.725Y-2.225
X5.725Y-2.325
X5.725Y-2.425
X5.725Y-2.525
X5.725Y-2.85
X5.741Y-2.0797
X5.75Y-1.875
X5.75Y-4.5429
X5.775Y-2.275
X5.775Y-2.375
X5.775Y-2.475
X5.775Y-2.575
X5.775Y-2.9
X5.8Y-4.3
X5.8Y-5.1
X5.825Y-2.075
X5.825Y-2.225
X5.825Y-2.325
X5.825Y-2.425
X5.825Y-2.525
X5.825Y-5.05
X5.85Y-1.875
X5.85Y-4.3476
X5.875Y-2.275
X5.875Y-2.375
X5.875Y-2.475
X5.875Y-3.124
X5.9Y-3.45
X5.925Y-2.225
X5.925Y-2.325
X5.925Y-2.425
X5.925Y-2.525
X5.925Y-2.8
X5.925Y-4.4
X5.95Y-1.875
X5.975Y-2.275
X5.975Y-2.375
X5.975Y-5.2
X6.0Y-3.45
X6.0Y-5.1
X6.0085Y-4.825
X6.025Y-2.225
X6.025Y-2.325
X6.05Y-1.875
X6.0698Y-5.0898
X6.075Y-2.275
X6.1Y-2.925
X6.1Y-4.5
X6.1052Y-4.9975
X6.125Y-2.225
X6.15Y-1.875
X6.2Y-3.625
X6.2Y-3.85
X6.2Y-4.875
X6.2235Y-2.475
X6.225Y-2.225
X6.225Y-2.2644
X6.225Y-2.3037
X6.225Y-2.3856
X6.225Y-2.425
X6.225Y-2.525
X6.2255Y-2.3458
X6.2396Y-2.0713
X6.2577Y-5.0173
X6.3Y-2.24
X6.325Y-4.75
X6.35Y-2.0535
X6.3577Y-5.0173
X6.375Y-5.325
X6.4Y-2.24
X6.425Y-3.125
X6.425Y-4.75
X6.4577Y-5.0173
X6.475Y-3.425
X6.475Y-4.5144
X6.525Y-2.1218
X6.525Y-4.5429
X6.525Y-4.75
X6.55Y-2.9
X6.5577Y-5.0173
X6.58Y-4.078
X6.6Y-3.425
X6.625Y-2.8
X6.625Y-4.5715
X6.625Y-4.75
X6.6611Y-5.0113
X6.675Y-4.4858
X6.6892Y-3.1142
X6.7Y-5.225
X6.725Y-4.4573
X6.725Y-4.75
X6.775Y-4.4287
X6.825Y-4.4002
X6.825Y-4.75
X6.85Y-2.525
X6.925Y-4.6
X6.925Y-4.75
X6.925Y-5.325
X6.928Y-4.362
X6.9857Y-2.8304
X7.02Y-4.594
X7.0715Y-2.9122
X7.1Y-2.975
X7.3285Y-2.8767
X7.375Y-4.6
X7.425Y-3.95
X7.45Y-4.825
X7.475Y-3.7
X7.475Y-4.6
X7.55Y-3.45
X7.55Y-4.825
X7.575Y-4.6
X7.65Y-4.825
X7.675Y-4.6
X7.68Y-3.41
X7.725Y-3.95
X7.75Y-4.825
X7.775Y-4.6
X7.84Y-3.41
X7.85Y-3.475
X7.85Y-4.375
X7.85Y-4.825
X7.875Y-4.6
X7.95Y-4.3523
X7.95Y-4.825
X7.975Y-4.6
X8.0Y-3.35
X8.05Y-4.3346
X8.05Y-4.825
X8.075Y-3.7
X8.075Y-3.95
X8.075Y-4.6
X8.1Y-3.325
X8.15Y-2.925
X8.15Y-3.15
X8.15Y-4.3169
X8.15Y-4.825
X8.25Y-2.65
X8.2715Y-2.875
X8.425Y-2.65
X8.425Y-4.925
X8.55Y-4.24
X8.56Y-3.64
X8.6Y-3.1
X8.6Y-4.24
X8.64Y-3.64
X8.7Y-2.88
X8.75Y-3.475
X8.8Y-3.6915
X8.875Y-2.475
X8.9046Y-2.5009
X8.92Y-3.6715
X8.9463Y-4.875
X8.975Y-3.1285
X9.05Y-3.4465
X9.0985Y-4.18
X9.1Y-3.95
X9.15Y-4.25
X9.2Y-4.0035
X9.2392Y-3.74
X9.2673Y-3.201
X9.2903Y-5.0693
X9.325Y-4.1
X9.325Y-4.75
X9.45Y-4.875
X9.5Y-3.36
X9.5Y-4.25
X9.52Y-4.56
X9.55Y-4.475
X9.6Y-2.86
X9.6Y-3.16
X9.6Y-3.925
X9.62Y-4.66
X9.64Y-3.42
X9.675Y-4.25
X9.75Y-4.475
X9.875Y-4.25
X9.94Y-3.42
X9.975Y-4.65
X10.05Y-4.2
X10.14Y-3.4
X10.225Y-4.325
X10.2891Y-3.48
X10.325Y-2.8
X10.325Y-5.175
X10.42Y-2.98
X10.425Y-4.325
X10.425Y-4.65
X10.4904Y-2.8366
X10.5515Y-2.84
X10.575Y-4.3
X10.6Y-4.525
X10.6085Y-2.84
T3
X1.9909Y-2.75
X2.05Y-2.75
T4
X2.0Y-3.025
X2.0Y-3.325
X2.1Y-3.025
X2.1Y-3.325
X2.1Y-5.1343
X2.1Y-5.4343
X2.4Y-5.135
X2.4Y-5.435
X10.7Y-3.3
X10.7Y-3.6
T5
X1.65Y-3.5
X1.65Y-3.5984
X1.65Y-4.2
X1.65Y-4.2984
X1.65Y-4.7
X1.65Y-4.7984
X1.7579Y-4.0
X1.8Y-4.7
X1.8Y-5.0
X1.85Y-3.5
X1.85Y-3.8
X1.85Y-4.2
X1.85Y-4.5
X1.9Y-4.7
X1.9Y-5.0
X1.95Y-3.5
X1.95Y-3.8
X1.95Y-4.0
X1.95Y-4.2
X1.95Y-4.5
X2.0Y-4.7
X2.0Y-5.0
X2.0472Y-2.3553
X2.0472Y-2.5053
X2.05Y-3.5
X2.05Y-3.8
X2.05Y-4.2
X2.05Y-4.5
X2.1Y-4.7
X2.1Y-5.0
X2.15Y-3.5
X2.15Y-3.8
X2.15Y-3.95
X2.15Y-4.2
X2.15Y-4.5
X2.2Y-4.7
X2.2Y-5.0
X2.2484Y-3.95
X2.25Y-2.55
X2.25Y-2.7
X2.25Y-3.3
X2.25Y-3.5
X2.25Y-3.8
X2.25Y-4.2
X2.25Y-4.5
X2.3Y-4.7
X2.3Y-5.0
X2.3484Y-2.55
X2.35Y-2.7
X2.35Y-3.3
X2.35Y-3.5
X2.35Y-3.8
X2.35Y-3.95
X2.35Y-4.2
X2.35Y-4.5
X2.4Y-4.7
X2.4Y-5.0
X2.4484Y-3.95
X2.45Y-2.7
X2.45Y-3.3
X2.45Y-3.5
X2.45Y-3.8
X2.45Y-4.2
X2.45Y-4.5
X2.5Y-4.7
X2.5Y-5.0
X2.55Y-2.7
X2.55Y-3.3
X2.65Y-2.7
X2.65Y-3.3
X2.75Y-2.7
X2.75Y-3.3
X2.75Y-3.7516
X2.75Y-3.85
X2.85Y-2.7
X2.85Y-3.3
X2.95Y-2.7
X2.95Y-3.3
X2.95Y-3.75
X2.95Y-3.85
X2.95Y-3.95
X2.95Y-4.05
X2.95Y-4.6
X2.95Y-4.7
X2.95Y-4.8
X2.95Y-4.9
X2.95Y-5.0
X2.95Y-5.1
X3.05Y-2.7
X3.05Y-3.3
X3.05Y-3.65
X3.05Y-3.75
X3.05Y-3.85
X3.05Y-3.95
X3.05Y-4.05
X3.05Y-4.15
X3.05Y-4.5
X3.05Y-4.6
X3.05Y-4.7
X3.05Y-4.8
X3.05Y-4.9
X3.05Y-5.0
X3.05Y-5.1
X3.05Y-5.2
X3.15Y-2.7
X3.15Y-3.3
X3.15Y-3.65
X3.15Y-3.75
X3.15Y-4.05
X3.15Y-4.15
X3.15Y-4.5
X3.15Y-4.6
X3.15Y-5.1
X3.15Y-5.2
X3.25Y-2.7
X3.25Y-3.3
X3.25Y-3.65
X3.25Y-3.75
X3.25Y-4.05
X3.25Y-4.15
X3.25Y-4.5
X3.25Y-4.6
X3.25Y-5.1
X3.25Y-5.2
X3.35Y-2.7
X3.35Y-3.3
X3.35Y-3.65
X3.35Y-3.75
X3.35Y-4.05
X3.35Y-4.15
X3.35Y-4.325
X3.35Y-4.5
X3.35Y-4.6
X3.35Y-5.1
X3.35Y-5.2
X3.4484Y-4.325
X3.45Y-2.7
X3.45Y-3.3
X3.45Y-3.65
X3.45Y-3.75
X3.45Y-3.85
X3.45Y-3.95
X3.45Y-4.05
X3.45Y-4.15
X3.45Y-4.5
X3.45Y-4.6
X3.45Y-5.1
X3.45Y-5.2
X3.55Y-2.7
X3.55Y-3.3
X3.55Y-3.75
X3.55Y-3.85
X3.55Y-3.95
X3.55Y-4.05
X3.55Y-4.5
X3.55Y-4.6
X3.55Y-4.7
X3.55Y-4.8
X3.55Y-4.9
X3.55Y-5.0
X3.55Y-5.1
X3.55Y-5.2
X3.65Y-4.6
X3.65Y-4.7
X3.65Y-4.8
X3.65Y-4.9
X3.65Y-5.0
X3.65Y-5.1
X3.95Y-3.6016
X3.95Y-3.7
X3.975Y-4.45
X3.975Y-4.5484
X3.975Y-5.0008
X3.975Y-5.0992
X4.1Y-2.7
X4.1Y-2.7984
X4.1Y-4.45
X4.1Y-4.75
X4.1Y-5.0008
X4.1Y-5.3008
X4.15Y-3.6
X4.15Y-3.7
X4.15Y-3.8
X4.15Y-3.9
X4.2Y-4.45
X4.2Y-4.75
X4.2Y-5.0008
X4.2Y-5.3008
X4.25Y-2.7
X4.25Y-3.0
X4.25Y-3.5
X4.25Y-3.6
X4.25Y-3.7
X4.25Y-3.8
X4.25Y-3.9
X4.25Y-4.0
X4.3Y-4.45
X4.3Y-4.75
X4.3Y-5.0008
X4.3Y-5.3008
X4.35Y-2.7
X4.35Y-3.0
X4.35Y-3.5
X4.35Y-3.6
X4.35Y-3.9
X4.35Y-4.0
X4.4Y-4.45
X4.4Y-4.75
X4.4Y-5.0008
X4.4Y-5.3008
X4.45Y-2.7
X4.45Y-3.0
X4.45Y-3.5
X4.45Y-3.6
X4.45Y-3.9
X4.45Y-4.0
X4.5Y-4.45
X4.5Y-4.75
X4.5Y-5.0008
X4.5Y-5.3008
X4.55Y-2.7
X4.55Y-3.0
X4.55Y-3.5
X4.55Y-3.6
X4.55Y-3.9
X4.55Y-4.0
X4.6Y-4.45
X4.6Y-4.75
X4.6Y-5.0008
X4.6Y-5.3008
X4.65Y-2.7
X4.65Y-3.0
X4.65Y-3.5
X4.65Y-3.6
X4.65Y-3.7
X4.65Y-3.8
X4.65Y-3.9
X4.65Y-4.0
X4.7Y-4.45
X4.7Y-4.75
X4.7Y-5.0008
X4.7Y-5.3008
X4.75Y-2.7
X4.75Y-3.0
X4.75Y-3.6
X4.75Y-3.7
X4.75Y-3.8
X4.75Y-3.9
X4.8Y-4.45
X4.8Y-4.75
X4.8Y-5.0008
X4.8Y-5.3008
X4.85Y-2.7
X4.85Y-3.0
X4.95Y-2.7
X4.95Y-3.0
X4.95Y-3.25
X4.95Y-3.3484
X4.95Y-3.825
X4.95Y-3.9234
X4.95Y-4.45
X4.95Y-4.5484
X5.0991Y-4.45
X5.0991Y-4.75
X5.1Y-3.25
X5.1Y-3.55
X5.1Y-3.825
X5.1Y-4.125
X5.1041Y-2.7
X5.1041Y-2.7984
X5.1991Y-4.45
X5.1991Y-4.75
X5.2Y-3.25
X5.2Y-3.55
X5.2Y-3.825
X5.2Y-4.125
X5.2241Y-2.7
X5.2241Y-3.0
X5.2991Y-4.45
X5.2991Y-4.75
X5.3Y-3.25
X5.3Y-3.55
X5.3Y-3.825
X5.3Y-4.125
X5.3241Y-2.7
X5.3241Y-3.0
X5.3991Y-4.45
X5.3991Y-4.75
X5.4Y-3.25
X5.4Y-3.55
X5.4Y-3.825
X5.4Y-4.125
X5.4241Y-2.7
X5.4241Y-3.0
X5.4991Y-4.45
X5.4991Y-4.75
X5.5Y-3.25
X5.5Y-3.55
X5.5Y-3.825
X5.5Y-4.125
X5.5241Y-2.7
X5.5241Y-3.0
X5.5991Y-4.45
X5.5991Y-4.75
X5.6Y-3.25
X5.6Y-3.55
X5.6Y-3.825
X5.6Y-4.125
X5.6241Y-2.7
X5.6241Y-3.0
X5.6991Y-4.45
X5.6991Y-4.75
X5.7Y-3.25
X5.7Y-3.55
X5.7Y-3.825
X5.7Y-4.125
X5.7241Y-2.7
X5.7241Y-3.0
X5.7991Y-4.45
X5.7991Y-4.75
X5.8Y-3.25
X5.8Y-3.55
X5.8Y-3.825
X5.8Y-4.125
X5.8241Y-2.7
X5.8241Y-3.0
X5.9Y-3.25
X5.9Y-3.55
X5.9Y-3.825
X5.9Y-4.125
X5.9241Y-2.7
X5.9241Y-3.0
X6.0Y-3.25
X6.0Y-3.55
X6.0Y-3.825
X6.0Y-4.125
X6.2Y-2.7
X6.2Y-2.7984
X6.2Y-3.25
X6.2Y-3.3484
X6.2Y-4.025
X6.2Y-4.1234
X6.275Y-4.675
X6.325Y-2.7
X6.325Y-3.0
X6.325Y-3.25
X6.325Y-3.55
X6.375Y-3.9289
X6.375Y-4.0289
X6.375Y-4.1289
X6.375Y-4.2289
X6.375Y-4.675
X6.425Y-2.7
X6.425Y-3.0
X6.425Y-3.25
X6.425Y-3.55
X6.475Y-3.8289
X6.475Y-3.9289
X6.475Y-4.0289
X6.475Y-4.1289
X6.475Y-4.2289
X6.475Y-4.3289
X6.475Y-4.675
X6.525Y-2.7
X6.525Y-3.0
X6.525Y-3.25
X6.525Y-3.55
X6.575Y-2.3716
X6.575Y-2.5216
X6.575Y-3.8289
X6.575Y-3.9289
X6.575Y-4.2289
X6.575Y-4.3289
X6.575Y-4.675
X6.625Y-2.7
X6.625Y-3.0
X6.625Y-3.25
X6.625Y-3.55
X6.675Y-3.8289
X6.675Y-3.9289
X6.675Y-4.2289
X6.675Y-4.3289
X6.675Y-4.675
X6.725Y-2.7
X6.725Y-3.0
X6.725Y-3.25
X6.725Y-3.55
X6.775Y-3.8289
X6.775Y-3.9289
X6.775Y-4.2289
X6.775Y-4.3289
X6.775Y-4.675
X6.825Y-2.7
X6.825Y-3.0
X6.825Y-3.25
X6.825Y-3.55
X6.875Y-3.8289
X6.875Y-3.9289
X6.875Y-4.0289
X6.875Y-4.1289
X6.875Y-4.2289
X6.875Y-4.3289
X6.875Y-4.675
X6.925Y-2.7
X6.925Y-3.0
X6.925Y-3.25
X6.925Y-3.55
X6.975Y-3.9289
X6.975Y-4.0289
X6.975Y-4.1289
X6.975Y-4.2289
X6.975Y-4.675
X7.025Y-2.7
X7.025Y-3.0
X7.025Y-3.25
X7.025Y-3.55
X7.075Y-4.675
X7.15Y-2.7
X7.15Y-2.7984
X7.15Y-3.25
X7.15Y-3.3484
X7.15Y-3.8
X7.15Y-3.8984
X7.15Y-4.45
X7.15Y-4.5484
X7.15Y-5.0
X7.15Y-5.0984
X7.3Y-2.7
X7.3Y-3.0
X7.3Y-3.25
X7.3Y-3.55
X7.3Y-3.8
X7.3Y-4.1
X7.3Y-4.2789
X7.3Y-4.45
X7.3Y-4.75
X7.3Y-5.0
X7.3Y-5.3
X7.4Y-2.7
X7.4Y-3.0
X7.4Y-3.25
X7.4Y-3.55
X7.4Y-3.8
X7.4Y-4.1
X7.4Y-4.2789
X7.4Y-4.45
X7.4Y-4.75
X7.4Y-5.0
X7.4Y-5.3
X7.5Y-2.7
X7.5Y-3.0
X7.5Y-3.25
X7.5Y-3.55
X7.5Y-3.8
X7.5Y-4.1
X7.5Y-4.2789
X7.5Y-4.45
X7.5Y-4.75
X7.5Y-5.0
X7.5Y-5.3
X7.6Y-2.7
X7.6Y-3.0
X7.6Y-3.25
X7.6Y-3.55
X7.6Y-3.8
X7.6Y-4.1
X7.6Y-4.2789
X7.6Y-4.45
X7.6Y-4.75
X7.6Y-5.0
X7.6Y-5.3
X7.7Y-2.7
X7.7Y-3.0
X7.7Y-3.25
X7.7Y-3.55
X7.7Y-3.8
X7.7Y-4.1
X7.7Y-4.2789
X7.7Y-4.45
X7.7Y-4.75
X7.7Y-5.0
X7.7Y-5.3
X7.8Y-2.7
X7.8Y-3.0
X7.8Y-3.25
X7.8Y-3.55
X7.8Y-3.8
X7.8Y-4.1
X7.8Y-4.2789
X7.8Y-4.45
X7.8Y-4.75
X7.8Y-5.0
X7.8Y-5.3
X7.9Y-2.7
X7.9Y-3.0
X7.9Y-3.25
X7.9Y-3.55
X7.9Y-3.8
X7.9Y-4.1
X7.9Y-4.2789
X7.9Y-4.45
X7.9Y-4.75
X7.9Y-5.0
X7.9Y-5.3
X8.0Y-2.7
X8.0Y-3.0
X8.0Y-3.25
X8.0Y-3.55
X8.0Y-3.8
X8.0Y-4.1
X8.0Y-4.2789
X8.0Y-4.45
X8.0Y-4.75
X8.0Y-5.0
X8.0Y-5.3
X8.1Y-2.7
X8.1Y-3.0
X8.1Y-3.8
X8.1Y-4.1
X8.1Y-4.2789
X8.1Y-4.45
X8.1Y-4.75
X8.1Y-5.0
X8.1Y-5.3
X8.2Y-2.7
X8.2Y-3.0
X8.2Y-3.8
X8.2Y-4.1
X8.2Y-4.45
X8.2Y-4.75
X8.2Y-5.0
X8.2Y-5.3
X8.35Y-2.7
X8.35Y-2.7984
X8.35Y-3.25
X8.35Y-3.3484
X8.35Y-3.8
X8.35Y-3.8984
X8.35Y-4.45
X8.35Y-4.5484
X8.35Y-5.0
X8.35Y-5.0984
X8.5Y-2.7
X8.5Y-3.0
X8.5Y-3.2539
X8.5Y-3.5539
X8.5Y-3.8
X8.5Y-4.1
X8.5Y-4.45
X8.5Y-4.75
X8.5Y-5.0
X8.5Y-5.3
X8.6Y-2.7
X8.6Y-3.0
X8.6Y-3.2539
X8.6Y-3.5539
X8.6Y-3.8
X8.6Y-4.1
X8.6Y-4.45
X8.6Y-4.75
X8.6Y-5.0
X8.6Y-5.3
X8.7Y-2.7
X8.7Y-3.0
X8.7Y-3.2539
X8.7Y-3.5539
X8.7Y-3.8
X8.7Y-4.1
X8.7Y-4.45
X8.7Y-4.75
X8.7Y-5.0
X8.7Y-5.3
X8.8Y-2.7
X8.8Y-3.0
X8.8Y-3.2539
X8.8Y-3.5539
X8.8Y-3.8
X8.8Y-4.1
X8.8Y-4.45
X8.8Y-4.75
X8.8Y-5.0
X8.8Y-5.3
X8.9Y-2.7
X8.9Y-3.0
X8.9Y-3.2539
X8.9Y-3.5539
X8.9Y-3.8
X8.9Y-4.1
X8.9Y-4.45
X8.9Y-4.75
X8.9Y-5.0
X8.9Y-5.3
X9.0Y-2.7
X9.0Y-3.0
X9.0Y-3.2539
X9.0Y-3.5539
X9.0Y-3.8
X9.0Y-4.1
X9.0Y-4.45
X9.0Y-4.75
X9.0Y-5.0
X9.0Y-5.3
X9.1Y-2.7
X9.1Y-3.0
X9.1Y-3.2539
X9.1Y-3.5539
X9.1Y-3.8
X9.1Y-4.1
X9.1Y-4.45
X9.1Y-4.75
X9.1Y-5.0
X9.1Y-5.3
X9.2Y-2.7
X9.2Y-3.0
X9.2Y-3.2539
X9.2Y-3.5539
X9.2Y-3.8
X9.2Y-4.1
X9.2Y-4.45
X9.2Y-4.75
X9.2Y-5.0
X9.2Y-5.3
X9.35Y-2.7
X9.35Y-2.7984
X9.35Y-3.2593
X9.35Y-3.3578
X9.3508Y-3.8
X9.3508Y-3.8984
X9.375Y-4.4008
X9.375Y-4.4992
X9.5Y-2.375
X9.5Y-2.4734
X9.5Y-2.7
X9.5Y-3.0
X9.5Y-3.2593
X9.5Y-3.5593
X9.5Y-3.8
X9.5Y-4.1
X9.5Y-4.4004
X9.5Y-5.0004
X9.6Y-2.375
X9.6Y-2.4734
X9.6Y-2.7
X9.6Y-3.0
X9.6Y-3.2593
X9.6Y-3.5593
X9.6Y-3.8
X9.6Y-4.1
X9.6Y-4.4004
X9.6Y-5.0004
X9.7Y-2.7
X9.7Y-3.0
X9.7Y-3.2593
X9.7Y-3.5593
X9.7Y-3.8
X9.7Y-4.1
X9.7Y-4.4004
X9.7Y-5.0004
X9.75Y-4.55
X9.75Y-4.65
X9.75Y-4.75
X9.75Y-4.85
X9.8Y-2.7
X9.8Y-3.0
X9.8Y-3.2593
X9.8Y-3.5593
X9.8Y-3.8
X9.8Y-4.1
X9.8Y-4.4004
X9.8Y-5.0004
X9.85Y-4.45
X9.85Y-4.55
X9.85Y-4.65
X9.85Y-4.75
X9.85Y-4.85
X9.85Y-4.95
X9.9Y-2.7
X9.9Y-3.0
X9.9Y-3.2593
X9.9Y-3.5593
X9.9Y-3.8
X9.9Y-4.1
X9.9Y-4.4004
X9.9Y-5.0004
X9.95Y-4.45
X9.95Y-4.55
X9.95Y-4.85
X9.95Y-4.95
X10.0Y-2.7
X10.0Y-3.0
X10.0Y-3.2593
X10.0Y-3.5593
X10.0Y-3.8
X10.0Y-4.1
X10.0Y-4.4004
X10.0Y-5.0004
X10.05Y-4.45
X10.05Y-4.55
X10.05Y-4.85
X10.05Y-4.95
X10.1Y-2.7
X10.1Y-3.0
X10.1Y-3.2593
X10.1Y-3.5593
X10.1Y-3.8
X10.1Y-4.1
X10.1Y-4.4004
X10.1Y-5.0004
X10.15Y-4.45
X10.15Y-4.55
X10.15Y-4.65
X10.15Y-4.75
X10.15Y-4.85
X10.15Y-4.95
X10.2Y-2.7
X10.2Y-3.0
X10.2Y-3.2593
X10.2Y-3.5593
X10.2Y-3.8
X10.2Y-4.1
X10.2Y-4.4004
X10.2Y-5.0004
X10.25Y-4.55
X10.25Y-4.65
X10.25Y-4.75
X10.25Y-4.85
X10.3Y-4.4004
X10.3Y-5.0004
X10.4Y-4.4004
X10.4Y-5.0004
X10.5Y-4.4004
X10.5Y-5.0004
X10.6Y-4.4004
X10.6Y-5.0004
X10.625Y-3.7
X10.625Y-3.85
T6
X1.7Y-3.025
X1.7Y-3.325
X1.8Y-3.025
X1.8Y-3.325
X1.9Y-3.025
X1.9Y-3.325
X2.0Y-5.1343
X2.0Y-5.4343
X2.15Y-4.05
X2.2Y-5.1343
X2.2Y-5.4343
X2.3Y-5.1343
X2.3Y-5.4343
X2.45Y-4.05
X2.5Y-5.1358
X2.5Y-5.4358
X2.6Y-5.135
X2.6Y-5.435
X2.75Y-3.95
X2.75Y-4.25
X3.7Y-2.7
X3.7Y-2.8
X3.7Y-2.9
X3.7Y-3.0
X3.7Y-3.1
X3.7Y-3.2
X3.7Y-3.3
X4.0Y-2.7
X4.0Y-2.8
X4.0Y-2.9
X4.0Y-3.0
X4.0Y-3.1
X4.0Y-3.2
X4.0Y-3.3
X6.6066Y-2.2593
X6.9066Y-2.2593
X7.4566Y-2.2343
X7.4566Y-2.5343
X7.5466Y-2.2343
X7.5466Y-2.5343
X7.6866Y-2.2343
X7.6866Y-2.5343
X7.7766Y-2.2343
X7.7766Y-2.5343
X7.9112Y-2.2343
X7.9112Y-2.5343
X9.1Y-2.175
X9.1Y-2.275
X9.1Y-2.375
X9.1Y-2.475
X9.2Y-2.175
X9.2Y-2.275
X9.2016Y-2.375
X9.2016Y-2.475
X9.3Y-2.175
X9.3Y-2.275
X9.3Y-2.375
X9.3Y-2.475
X9.4Y-2.1748
X9.4Y-2.2748
X9.4Y-2.375
X9.4Y-2.475
X9.5Y-2.175
X9.5Y-2.275
X9.6Y-2.177
X9.6Y-2.277
X9.7Y-2.177
X9.7Y-2.277
X9.7Y-2.377
X9.7Y-2.477
X9.8Y-2.177
X9.8Y-2.277
X9.8Y-2.377
X9.8Y-2.477
X9.9Y-2.177
X9.9Y-2.277
X9.9Y-2.377
X9.9Y-2.477
X10.0Y-2.177
X10.0Y-2.277
X10.0Y-2.377
X10.0Y-2.477
X10.2768Y-2.1348
X10.2768Y-2.2348
X10.4Y-3.3
X10.4Y-3.6
X10.5Y-3.3
X10.5Y-3.6
X10.6Y-3.3
X10.6Y-3.6
T7
X1.692Y-2.7036
X1.692Y-2.8808
T8
X1.8316Y-1.95
X1.8316Y-2.15
X1.9316Y-1.95
X1.9316Y-2.15
X2.0316Y-1.95
X2.0316Y-2.15
X2.1316Y-1.95
X2.1316Y-2.15
X2.2316Y-1.95
X2.2316Y-2.15
X2.3316Y-1.95
X2.3316Y-2.15
X2.4316Y-1.95
X2.4316Y-2.15
X2.5316Y-1.95
X2.5316Y-2.15
X2.6316Y-1.95
X2.6316Y-2.15
X2.7316Y-1.95
X2.7316Y-2.15
X2.8316Y-1.95
X2.8316Y-2.15
X2.9316Y-1.95
X2.9316Y-2.15
X3.0316Y-1.95
X3.0316Y-2.15
X3.1316Y-1.95
X3.1316Y-2.15
X3.2316Y-1.95
X3.2316Y-2.15
X3.3316Y-1.95
X3.3316Y-2.15
X3.4316Y-1.95
X3.4316Y-2.15
X3.5316Y-1.95
X3.5316Y-2.15
X3.6316Y-1.95
X3.6316Y-2.15
X3.7316Y-1.95
X3.7316Y-2.15
X3.8316Y-1.95
X3.8316Y-2.15
X3.9316Y-1.95
X3.9316Y-2.15
X3.95Y-3.825
X3.95Y-3.925
X3.95Y-4.025
X4.3562Y-1.95
X4.3562Y-2.15
X4.4562Y-1.95
X4.4562Y-2.15
X4.5562Y-1.95
X4.5562Y-2.15
X4.6562Y-1.95
X4.6562Y-2.15
X4.7562Y-1.95
X4.7562Y-2.15
X4.8562Y-1.95
X4.8562Y-2.15
X4.9562Y-1.95
X4.9562Y-2.15
X5.0562Y-1.95
X5.0562Y-2.15
X5.1Y-4.95
X5.1562Y-1.95
X5.1562Y-2.15
X5.2Y-4.95
X5.2562Y-1.95
X5.2562Y-2.15
X5.3Y-4.95
X5.3562Y-1.95
X5.3562Y-2.15
X5.4Y-4.95
X5.4562Y-1.95
X5.4562Y-2.15
X5.5Y-4.95
X5.5562Y-1.95
X5.5562Y-2.15
X5.6Y-4.95
X5.6562Y-1.95
X5.6562Y-2.15
X5.7562Y-1.95
X5.7562Y-2.15
X5.8562Y-1.95
X5.8562Y-2.15
X5.9562Y-1.95
X5.9562Y-2.15
X6.0562Y-1.95
X6.0562Y-2.15
X6.1562Y-1.95
X6.1562Y-2.15
X6.2562Y-1.95
X6.2562Y-2.15
X6.275Y-4.95
X6.3562Y-1.95
X6.3562Y-2.15
X6.375Y-4.95
X6.4562Y-1.95
X6.4562Y-2.15
X6.475Y-4.95
X6.575Y-4.95
X6.675Y-4.95
X6.775Y-4.95
X6.875Y-4.95
X6.975Y-4.95
X7.1232Y-1.993
X7.1683Y-1.915
X7.1683Y-2.0709
X7.2134Y-1.993
X7.2585Y-1.915
X7.2585Y-2.0709
X7.3035Y-1.993
X7.3486Y-1.915
X7.3486Y-2.0709
X7.3937Y-1.993
X7.4388Y-1.915
X7.4388Y-2.0709
X7.4839Y-1.993
X7.5289Y-1.915
X7.5289Y-2.0709
T9
X8.5635Y-1.9905
X8.6385Y-1.7905
X8.7135Y-1.9905
X8.7885Y-1.7905
X8.8635Y-1.9905
X8.9385Y-1.7905
X9.0135Y-1.9905
X9.0885Y-1.7905
X9.1635Y-1.9905
X9.2385Y-1.7905
X9.3135Y-1.9905
X9.3885Y-1.7905
X9.4635Y-1.9905
X9.5385Y-1.7905
X9.6135Y-1.9905
X9.6885Y-1.7905
X9.7635Y-1.9905
X9.8385Y-1.7905
X9.9135Y-1.9905
X9.9885Y-1.7905
X10.0635Y-1.9905
T11
X1.79Y-2.654
X1.79Y-2.93
T12
X1.7717Y-5.315
X1.7728Y-2.4016
X6.8461Y-2.015
X7.8303Y-2.015
X10.5906Y-5.315
X10.5917Y-2.4016
T1
G00X10.697Y-2.6382
M15
G01X10.7325Y-2.6382
M16
G05
G00X10.697Y-3.1618
M15
G01X10.7325Y-3.1618
M16
G05
T5
G00X8.1364Y-1.6811
M15
G01X8.1836Y-1.6811
M16
G05
G00X8.1364Y-1.9252
M15
G01X8.1836Y-1.9252
M16
G05
G00X8.1364Y-2.1457
M15
G01X8.1836Y-2.1457
M16
G05
G00X8.2151Y-1.7795
M15
G01X8.2624Y-1.7795
M16
G05
G00X8.2151Y-2.0
M15
G01X8.2624Y-2.0
M16
G05
T8
G00X10.3605Y-1.8622
M15
G01X10.3605Y-1.9409
M16
G05
G00X10.5849Y-1.7835
M15
G01X10.5062Y-1.7835
M16
G05
G00X10.5849Y-2.0197
M15
G01X10.5062Y-2.0197
M16
G05
T10
G00X10.3112Y-2.7169
M15
G01X10.3388Y-2.7169
M16
G05
G00X10.3112Y-2.902
M15
G01X10.3388Y-2.902
M16
G05
G00X10.3112Y-3.0909
M15
G01X10.3388Y-3.0909
M16
G05
M30
