%TF.GenerationSoftware,KiCad,Pcbnew,7.0.10*%
%TF.CreationDate,2024-04-29T09:43:38+01:00*%
%TF.ProjectId,left,6c656674-2e6b-4696-9361-645f70636258,rev?*%
%TF.SameCoordinates,Original*%
%TF.FileFunction,Legend,Bot*%
%TF.FilePolarity,Positive*%
%FSLAX46Y46*%
G04 Gerber Fmt 4.6, Leading zero omitted, Abs format (unit mm)*
G04 Created by KiCad (PCBNEW 7.0.10) date 2024-04-29 09:43:38*
%MOMM*%
%LPD*%
G01*
G04 APERTURE LIST*
%ADD10C,0.400000*%
G04 APERTURE END LIST*
D10*
X149004762Y-71154438D02*
X149671429Y-70202057D01*
X150147619Y-71154438D02*
X150147619Y-69154438D01*
X150147619Y-69154438D02*
X149385714Y-69154438D01*
X149385714Y-69154438D02*
X149195238Y-69249676D01*
X149195238Y-69249676D02*
X149100000Y-69344914D01*
X149100000Y-69344914D02*
X149004762Y-69535390D01*
X149004762Y-69535390D02*
X149004762Y-69821104D01*
X149004762Y-69821104D02*
X149100000Y-70011580D01*
X149100000Y-70011580D02*
X149195238Y-70106819D01*
X149195238Y-70106819D02*
X149385714Y-70202057D01*
X149385714Y-70202057D02*
X150147619Y-70202057D01*
X148147619Y-70106819D02*
X147480952Y-70106819D01*
X147195238Y-71154438D02*
X148147619Y-71154438D01*
X148147619Y-71154438D02*
X148147619Y-69154438D01*
X148147619Y-69154438D02*
X147195238Y-69154438D01*
X146433333Y-71059200D02*
X146147619Y-71154438D01*
X146147619Y-71154438D02*
X145671428Y-71154438D01*
X145671428Y-71154438D02*
X145480952Y-71059200D01*
X145480952Y-71059200D02*
X145385714Y-70963961D01*
X145385714Y-70963961D02*
X145290476Y-70773485D01*
X145290476Y-70773485D02*
X145290476Y-70583009D01*
X145290476Y-70583009D02*
X145385714Y-70392533D01*
X145385714Y-70392533D02*
X145480952Y-70297295D01*
X145480952Y-70297295D02*
X145671428Y-70202057D01*
X145671428Y-70202057D02*
X146052381Y-70106819D01*
X146052381Y-70106819D02*
X146242857Y-70011580D01*
X146242857Y-70011580D02*
X146338095Y-69916342D01*
X146338095Y-69916342D02*
X146433333Y-69725866D01*
X146433333Y-69725866D02*
X146433333Y-69535390D01*
X146433333Y-69535390D02*
X146338095Y-69344914D01*
X146338095Y-69344914D02*
X146242857Y-69249676D01*
X146242857Y-69249676D02*
X146052381Y-69154438D01*
X146052381Y-69154438D02*
X145576190Y-69154438D01*
X145576190Y-69154438D02*
X145290476Y-69249676D01*
X144433333Y-70106819D02*
X143766666Y-70106819D01*
X143480952Y-71154438D02*
X144433333Y-71154438D01*
X144433333Y-71154438D02*
X144433333Y-69154438D01*
X144433333Y-69154438D02*
X143480952Y-69154438D01*
X142909523Y-69154438D02*
X141766666Y-69154438D01*
X142338095Y-71154438D02*
X142338095Y-69154438D01*
M02*
