%TF.GenerationSoftware,KiCad,Pcbnew,7.0.10*%
%TF.CreationDate,2024-04-29T09:43:38+01:00*%
%TF.ProjectId,left,6c656674-2e6b-4696-9361-645f70636258,rev?*%
%TF.SameCoordinates,Original*%
%TF.FileFunction,Legend,Top*%
%TF.FilePolarity,Positive*%
%FSLAX46Y46*%
G04 Gerber Fmt 4.6, Leading zero omitted, Abs format (unit mm)*
G04 Created by KiCad (PCBNEW 7.0.10) date 2024-04-29 09:43:38*
%MOMM*%
%LPD*%
G01*
G04 APERTURE LIST*
%ADD10C,0.150000*%
G04 APERTURE END LIST*
D10*
X160422493Y-74969819D02*
X160422493Y-75684104D01*
X160422493Y-75684104D02*
X160374874Y-75826961D01*
X160374874Y-75826961D02*
X160279636Y-75922200D01*
X160279636Y-75922200D02*
X160136779Y-75969819D01*
X160136779Y-75969819D02*
X160041541Y-75969819D01*
X161374874Y-75969819D02*
X160898684Y-75969819D01*
X160898684Y-75969819D02*
X160898684Y-74969819D01*
X162279636Y-75874580D02*
X162232017Y-75922200D01*
X162232017Y-75922200D02*
X162089160Y-75969819D01*
X162089160Y-75969819D02*
X161993922Y-75969819D01*
X161993922Y-75969819D02*
X161851065Y-75922200D01*
X161851065Y-75922200D02*
X161755827Y-75826961D01*
X161755827Y-75826961D02*
X161708208Y-75731723D01*
X161708208Y-75731723D02*
X161660589Y-75541247D01*
X161660589Y-75541247D02*
X161660589Y-75398390D01*
X161660589Y-75398390D02*
X161708208Y-75207914D01*
X161708208Y-75207914D02*
X161755827Y-75112676D01*
X161755827Y-75112676D02*
X161851065Y-75017438D01*
X161851065Y-75017438D02*
X161993922Y-74969819D01*
X161993922Y-74969819D02*
X162089160Y-74969819D01*
X162089160Y-74969819D02*
X162232017Y-75017438D01*
X162232017Y-75017438D02*
X162279636Y-75065057D01*
X162993922Y-74969819D02*
X162993922Y-75684104D01*
X162993922Y-75684104D02*
X162946303Y-75826961D01*
X162946303Y-75826961D02*
X162851065Y-75922200D01*
X162851065Y-75922200D02*
X162708208Y-75969819D01*
X162708208Y-75969819D02*
X162612970Y-75969819D01*
X163946303Y-75969819D02*
X163470113Y-75969819D01*
X163470113Y-75969819D02*
X163470113Y-74969819D01*
X164851065Y-75874580D02*
X164803446Y-75922200D01*
X164803446Y-75922200D02*
X164660589Y-75969819D01*
X164660589Y-75969819D02*
X164565351Y-75969819D01*
X164565351Y-75969819D02*
X164422494Y-75922200D01*
X164422494Y-75922200D02*
X164327256Y-75826961D01*
X164327256Y-75826961D02*
X164279637Y-75731723D01*
X164279637Y-75731723D02*
X164232018Y-75541247D01*
X164232018Y-75541247D02*
X164232018Y-75398390D01*
X164232018Y-75398390D02*
X164279637Y-75207914D01*
X164279637Y-75207914D02*
X164327256Y-75112676D01*
X164327256Y-75112676D02*
X164422494Y-75017438D01*
X164422494Y-75017438D02*
X164565351Y-74969819D01*
X164565351Y-74969819D02*
X164660589Y-74969819D01*
X164660589Y-74969819D02*
X164803446Y-75017438D01*
X164803446Y-75017438D02*
X164851065Y-75065057D01*
X165565351Y-74969819D02*
X165565351Y-75684104D01*
X165565351Y-75684104D02*
X165517732Y-75826961D01*
X165517732Y-75826961D02*
X165422494Y-75922200D01*
X165422494Y-75922200D02*
X165279637Y-75969819D01*
X165279637Y-75969819D02*
X165184399Y-75969819D01*
X166517732Y-75969819D02*
X166041542Y-75969819D01*
X166041542Y-75969819D02*
X166041542Y-74969819D01*
X167422494Y-75874580D02*
X167374875Y-75922200D01*
X167374875Y-75922200D02*
X167232018Y-75969819D01*
X167232018Y-75969819D02*
X167136780Y-75969819D01*
X167136780Y-75969819D02*
X166993923Y-75922200D01*
X166993923Y-75922200D02*
X166898685Y-75826961D01*
X166898685Y-75826961D02*
X166851066Y-75731723D01*
X166851066Y-75731723D02*
X166803447Y-75541247D01*
X166803447Y-75541247D02*
X166803447Y-75398390D01*
X166803447Y-75398390D02*
X166851066Y-75207914D01*
X166851066Y-75207914D02*
X166898685Y-75112676D01*
X166898685Y-75112676D02*
X166993923Y-75017438D01*
X166993923Y-75017438D02*
X167136780Y-74969819D01*
X167136780Y-74969819D02*
X167232018Y-74969819D01*
X167232018Y-74969819D02*
X167374875Y-75017438D01*
X167374875Y-75017438D02*
X167422494Y-75065057D01*
X168136780Y-74969819D02*
X168136780Y-75684104D01*
X168136780Y-75684104D02*
X168089161Y-75826961D01*
X168089161Y-75826961D02*
X167993923Y-75922200D01*
X167993923Y-75922200D02*
X167851066Y-75969819D01*
X167851066Y-75969819D02*
X167755828Y-75969819D01*
X169089161Y-75969819D02*
X168612971Y-75969819D01*
X168612971Y-75969819D02*
X168612971Y-74969819D01*
X169993923Y-75874580D02*
X169946304Y-75922200D01*
X169946304Y-75922200D02*
X169803447Y-75969819D01*
X169803447Y-75969819D02*
X169708209Y-75969819D01*
X169708209Y-75969819D02*
X169565352Y-75922200D01*
X169565352Y-75922200D02*
X169470114Y-75826961D01*
X169470114Y-75826961D02*
X169422495Y-75731723D01*
X169422495Y-75731723D02*
X169374876Y-75541247D01*
X169374876Y-75541247D02*
X169374876Y-75398390D01*
X169374876Y-75398390D02*
X169422495Y-75207914D01*
X169422495Y-75207914D02*
X169470114Y-75112676D01*
X169470114Y-75112676D02*
X169565352Y-75017438D01*
X169565352Y-75017438D02*
X169708209Y-74969819D01*
X169708209Y-74969819D02*
X169803447Y-74969819D01*
X169803447Y-74969819D02*
X169946304Y-75017438D01*
X169946304Y-75017438D02*
X169993923Y-75065057D01*
X171288095Y-46704819D02*
X171288095Y-45704819D01*
X171288095Y-46181009D02*
X171859523Y-46181009D01*
X171859523Y-46704819D02*
X171859523Y-45704819D01*
X172240476Y-45704819D02*
X172859523Y-45704819D01*
X172859523Y-45704819D02*
X172526190Y-46085771D01*
X172526190Y-46085771D02*
X172669047Y-46085771D01*
X172669047Y-46085771D02*
X172764285Y-46133390D01*
X172764285Y-46133390D02*
X172811904Y-46181009D01*
X172811904Y-46181009D02*
X172859523Y-46276247D01*
X172859523Y-46276247D02*
X172859523Y-46514342D01*
X172859523Y-46514342D02*
X172811904Y-46609580D01*
X172811904Y-46609580D02*
X172764285Y-46657200D01*
X172764285Y-46657200D02*
X172669047Y-46704819D01*
X172669047Y-46704819D02*
X172383333Y-46704819D01*
X172383333Y-46704819D02*
X172288095Y-46657200D01*
X172288095Y-46657200D02*
X172240476Y-46609580D01*
M02*
