%TF.GenerationSoftware,KiCad,Pcbnew,7.0.10*%
%TF.CreationDate,2024-04-25T18:19:19+01:00*%
%TF.ProjectId,keyboard,6b657962-6f61-4726-942e-6b696361645f,rev?*%
%TF.SameCoordinates,Original*%
%TF.FileFunction,Legend,Top*%
%TF.FilePolarity,Positive*%
%FSLAX46Y46*%
G04 Gerber Fmt 4.6, Leading zero omitted, Abs format (unit mm)*
G04 Created by KiCad (PCBNEW 7.0.10) date 2024-04-25 18:19:19*
%MOMM*%
%LPD*%
G01*
G04 APERTURE LIST*
%ADD10C,0.150000*%
G04 APERTURE END LIST*
D10*
X95565476Y-58652200D02*
X95708333Y-58699819D01*
X95708333Y-58699819D02*
X95946428Y-58699819D01*
X95946428Y-58699819D02*
X96041666Y-58652200D01*
X96041666Y-58652200D02*
X96089285Y-58604580D01*
X96089285Y-58604580D02*
X96136904Y-58509342D01*
X96136904Y-58509342D02*
X96136904Y-58414104D01*
X96136904Y-58414104D02*
X96089285Y-58318866D01*
X96089285Y-58318866D02*
X96041666Y-58271247D01*
X96041666Y-58271247D02*
X95946428Y-58223628D01*
X95946428Y-58223628D02*
X95755952Y-58176009D01*
X95755952Y-58176009D02*
X95660714Y-58128390D01*
X95660714Y-58128390D02*
X95613095Y-58080771D01*
X95613095Y-58080771D02*
X95565476Y-57985533D01*
X95565476Y-57985533D02*
X95565476Y-57890295D01*
X95565476Y-57890295D02*
X95613095Y-57795057D01*
X95613095Y-57795057D02*
X95660714Y-57747438D01*
X95660714Y-57747438D02*
X95755952Y-57699819D01*
X95755952Y-57699819D02*
X95994047Y-57699819D01*
X95994047Y-57699819D02*
X96136904Y-57747438D01*
X96470238Y-57699819D02*
X96708333Y-58699819D01*
X96708333Y-58699819D02*
X96898809Y-57985533D01*
X96898809Y-57985533D02*
X97089285Y-58699819D01*
X97089285Y-58699819D02*
X97327381Y-57699819D01*
X98232142Y-58699819D02*
X97660714Y-58699819D01*
X97946428Y-58699819D02*
X97946428Y-57699819D01*
X97946428Y-57699819D02*
X97851190Y-57842676D01*
X97851190Y-57842676D02*
X97755952Y-57937914D01*
X97755952Y-57937914D02*
X97660714Y-57985533D01*
X98708333Y-58699819D02*
X98898809Y-58699819D01*
X98898809Y-58699819D02*
X98994047Y-58652200D01*
X98994047Y-58652200D02*
X99041666Y-58604580D01*
X99041666Y-58604580D02*
X99136904Y-58461723D01*
X99136904Y-58461723D02*
X99184523Y-58271247D01*
X99184523Y-58271247D02*
X99184523Y-57890295D01*
X99184523Y-57890295D02*
X99136904Y-57795057D01*
X99136904Y-57795057D02*
X99089285Y-57747438D01*
X99089285Y-57747438D02*
X98994047Y-57699819D01*
X98994047Y-57699819D02*
X98803571Y-57699819D01*
X98803571Y-57699819D02*
X98708333Y-57747438D01*
X98708333Y-57747438D02*
X98660714Y-57795057D01*
X98660714Y-57795057D02*
X98613095Y-57890295D01*
X98613095Y-57890295D02*
X98613095Y-58128390D01*
X98613095Y-58128390D02*
X98660714Y-58223628D01*
X98660714Y-58223628D02*
X98708333Y-58271247D01*
X98708333Y-58271247D02*
X98803571Y-58318866D01*
X98803571Y-58318866D02*
X98994047Y-58318866D01*
X98994047Y-58318866D02*
X99089285Y-58271247D01*
X99089285Y-58271247D02*
X99136904Y-58223628D01*
X99136904Y-58223628D02*
X99184523Y-58128390D01*
X138315476Y-77652200D02*
X138458333Y-77699819D01*
X138458333Y-77699819D02*
X138696428Y-77699819D01*
X138696428Y-77699819D02*
X138791666Y-77652200D01*
X138791666Y-77652200D02*
X138839285Y-77604580D01*
X138839285Y-77604580D02*
X138886904Y-77509342D01*
X138886904Y-77509342D02*
X138886904Y-77414104D01*
X138886904Y-77414104D02*
X138839285Y-77318866D01*
X138839285Y-77318866D02*
X138791666Y-77271247D01*
X138791666Y-77271247D02*
X138696428Y-77223628D01*
X138696428Y-77223628D02*
X138505952Y-77176009D01*
X138505952Y-77176009D02*
X138410714Y-77128390D01*
X138410714Y-77128390D02*
X138363095Y-77080771D01*
X138363095Y-77080771D02*
X138315476Y-76985533D01*
X138315476Y-76985533D02*
X138315476Y-76890295D01*
X138315476Y-76890295D02*
X138363095Y-76795057D01*
X138363095Y-76795057D02*
X138410714Y-76747438D01*
X138410714Y-76747438D02*
X138505952Y-76699819D01*
X138505952Y-76699819D02*
X138744047Y-76699819D01*
X138744047Y-76699819D02*
X138886904Y-76747438D01*
X139220238Y-76699819D02*
X139458333Y-77699819D01*
X139458333Y-77699819D02*
X139648809Y-76985533D01*
X139648809Y-76985533D02*
X139839285Y-77699819D01*
X139839285Y-77699819D02*
X140077381Y-76699819D01*
X140410714Y-76795057D02*
X140458333Y-76747438D01*
X140458333Y-76747438D02*
X140553571Y-76699819D01*
X140553571Y-76699819D02*
X140791666Y-76699819D01*
X140791666Y-76699819D02*
X140886904Y-76747438D01*
X140886904Y-76747438D02*
X140934523Y-76795057D01*
X140934523Y-76795057D02*
X140982142Y-76890295D01*
X140982142Y-76890295D02*
X140982142Y-76985533D01*
X140982142Y-76985533D02*
X140934523Y-77128390D01*
X140934523Y-77128390D02*
X140363095Y-77699819D01*
X140363095Y-77699819D02*
X140982142Y-77699819D01*
X141553571Y-77128390D02*
X141458333Y-77080771D01*
X141458333Y-77080771D02*
X141410714Y-77033152D01*
X141410714Y-77033152D02*
X141363095Y-76937914D01*
X141363095Y-76937914D02*
X141363095Y-76890295D01*
X141363095Y-76890295D02*
X141410714Y-76795057D01*
X141410714Y-76795057D02*
X141458333Y-76747438D01*
X141458333Y-76747438D02*
X141553571Y-76699819D01*
X141553571Y-76699819D02*
X141744047Y-76699819D01*
X141744047Y-76699819D02*
X141839285Y-76747438D01*
X141839285Y-76747438D02*
X141886904Y-76795057D01*
X141886904Y-76795057D02*
X141934523Y-76890295D01*
X141934523Y-76890295D02*
X141934523Y-76937914D01*
X141934523Y-76937914D02*
X141886904Y-77033152D01*
X141886904Y-77033152D02*
X141839285Y-77080771D01*
X141839285Y-77080771D02*
X141744047Y-77128390D01*
X141744047Y-77128390D02*
X141553571Y-77128390D01*
X141553571Y-77128390D02*
X141458333Y-77176009D01*
X141458333Y-77176009D02*
X141410714Y-77223628D01*
X141410714Y-77223628D02*
X141363095Y-77318866D01*
X141363095Y-77318866D02*
X141363095Y-77509342D01*
X141363095Y-77509342D02*
X141410714Y-77604580D01*
X141410714Y-77604580D02*
X141458333Y-77652200D01*
X141458333Y-77652200D02*
X141553571Y-77699819D01*
X141553571Y-77699819D02*
X141744047Y-77699819D01*
X141744047Y-77699819D02*
X141839285Y-77652200D01*
X141839285Y-77652200D02*
X141886904Y-77604580D01*
X141886904Y-77604580D02*
X141934523Y-77509342D01*
X141934523Y-77509342D02*
X141934523Y-77318866D01*
X141934523Y-77318866D02*
X141886904Y-77223628D01*
X141886904Y-77223628D02*
X141839285Y-77176009D01*
X141839285Y-77176009D02*
X141744047Y-77128390D01*
X40940476Y-77652200D02*
X41083333Y-77699819D01*
X41083333Y-77699819D02*
X41321428Y-77699819D01*
X41321428Y-77699819D02*
X41416666Y-77652200D01*
X41416666Y-77652200D02*
X41464285Y-77604580D01*
X41464285Y-77604580D02*
X41511904Y-77509342D01*
X41511904Y-77509342D02*
X41511904Y-77414104D01*
X41511904Y-77414104D02*
X41464285Y-77318866D01*
X41464285Y-77318866D02*
X41416666Y-77271247D01*
X41416666Y-77271247D02*
X41321428Y-77223628D01*
X41321428Y-77223628D02*
X41130952Y-77176009D01*
X41130952Y-77176009D02*
X41035714Y-77128390D01*
X41035714Y-77128390D02*
X40988095Y-77080771D01*
X40988095Y-77080771D02*
X40940476Y-76985533D01*
X40940476Y-76985533D02*
X40940476Y-76890295D01*
X40940476Y-76890295D02*
X40988095Y-76795057D01*
X40988095Y-76795057D02*
X41035714Y-76747438D01*
X41035714Y-76747438D02*
X41130952Y-76699819D01*
X41130952Y-76699819D02*
X41369047Y-76699819D01*
X41369047Y-76699819D02*
X41511904Y-76747438D01*
X41845238Y-76699819D02*
X42083333Y-77699819D01*
X42083333Y-77699819D02*
X42273809Y-76985533D01*
X42273809Y-76985533D02*
X42464285Y-77699819D01*
X42464285Y-77699819D02*
X42702381Y-76699819D01*
X43607142Y-77699819D02*
X43035714Y-77699819D01*
X43321428Y-77699819D02*
X43321428Y-76699819D01*
X43321428Y-76699819D02*
X43226190Y-76842676D01*
X43226190Y-76842676D02*
X43130952Y-76937914D01*
X43130952Y-76937914D02*
X43035714Y-76985533D01*
X43940476Y-76699819D02*
X44607142Y-76699819D01*
X44607142Y-76699819D02*
X44178571Y-77699819D01*
X36666667Y-58652200D02*
X36809524Y-58699819D01*
X36809524Y-58699819D02*
X37047619Y-58699819D01*
X37047619Y-58699819D02*
X37142857Y-58652200D01*
X37142857Y-58652200D02*
X37190476Y-58604580D01*
X37190476Y-58604580D02*
X37238095Y-58509342D01*
X37238095Y-58509342D02*
X37238095Y-58414104D01*
X37238095Y-58414104D02*
X37190476Y-58318866D01*
X37190476Y-58318866D02*
X37142857Y-58271247D01*
X37142857Y-58271247D02*
X37047619Y-58223628D01*
X37047619Y-58223628D02*
X36857143Y-58176009D01*
X36857143Y-58176009D02*
X36761905Y-58128390D01*
X36761905Y-58128390D02*
X36714286Y-58080771D01*
X36714286Y-58080771D02*
X36666667Y-57985533D01*
X36666667Y-57985533D02*
X36666667Y-57890295D01*
X36666667Y-57890295D02*
X36714286Y-57795057D01*
X36714286Y-57795057D02*
X36761905Y-57747438D01*
X36761905Y-57747438D02*
X36857143Y-57699819D01*
X36857143Y-57699819D02*
X37095238Y-57699819D01*
X37095238Y-57699819D02*
X37238095Y-57747438D01*
X37571429Y-57699819D02*
X37809524Y-58699819D01*
X37809524Y-58699819D02*
X38000000Y-57985533D01*
X38000000Y-57985533D02*
X38190476Y-58699819D01*
X38190476Y-58699819D02*
X38428572Y-57699819D01*
X38857143Y-58699819D02*
X39047619Y-58699819D01*
X39047619Y-58699819D02*
X39142857Y-58652200D01*
X39142857Y-58652200D02*
X39190476Y-58604580D01*
X39190476Y-58604580D02*
X39285714Y-58461723D01*
X39285714Y-58461723D02*
X39333333Y-58271247D01*
X39333333Y-58271247D02*
X39333333Y-57890295D01*
X39333333Y-57890295D02*
X39285714Y-57795057D01*
X39285714Y-57795057D02*
X39238095Y-57747438D01*
X39238095Y-57747438D02*
X39142857Y-57699819D01*
X39142857Y-57699819D02*
X38952381Y-57699819D01*
X38952381Y-57699819D02*
X38857143Y-57747438D01*
X38857143Y-57747438D02*
X38809524Y-57795057D01*
X38809524Y-57795057D02*
X38761905Y-57890295D01*
X38761905Y-57890295D02*
X38761905Y-58128390D01*
X38761905Y-58128390D02*
X38809524Y-58223628D01*
X38809524Y-58223628D02*
X38857143Y-58271247D01*
X38857143Y-58271247D02*
X38952381Y-58318866D01*
X38952381Y-58318866D02*
X39142857Y-58318866D01*
X39142857Y-58318866D02*
X39238095Y-58271247D01*
X39238095Y-58271247D02*
X39285714Y-58223628D01*
X39285714Y-58223628D02*
X39333333Y-58128390D01*
X190565476Y-58652200D02*
X190708333Y-58699819D01*
X190708333Y-58699819D02*
X190946428Y-58699819D01*
X190946428Y-58699819D02*
X191041666Y-58652200D01*
X191041666Y-58652200D02*
X191089285Y-58604580D01*
X191089285Y-58604580D02*
X191136904Y-58509342D01*
X191136904Y-58509342D02*
X191136904Y-58414104D01*
X191136904Y-58414104D02*
X191089285Y-58318866D01*
X191089285Y-58318866D02*
X191041666Y-58271247D01*
X191041666Y-58271247D02*
X190946428Y-58223628D01*
X190946428Y-58223628D02*
X190755952Y-58176009D01*
X190755952Y-58176009D02*
X190660714Y-58128390D01*
X190660714Y-58128390D02*
X190613095Y-58080771D01*
X190613095Y-58080771D02*
X190565476Y-57985533D01*
X190565476Y-57985533D02*
X190565476Y-57890295D01*
X190565476Y-57890295D02*
X190613095Y-57795057D01*
X190613095Y-57795057D02*
X190660714Y-57747438D01*
X190660714Y-57747438D02*
X190755952Y-57699819D01*
X190755952Y-57699819D02*
X190994047Y-57699819D01*
X190994047Y-57699819D02*
X191136904Y-57747438D01*
X191470238Y-57699819D02*
X191708333Y-58699819D01*
X191708333Y-58699819D02*
X191898809Y-57985533D01*
X191898809Y-57985533D02*
X192089285Y-58699819D01*
X192089285Y-58699819D02*
X192327381Y-57699819D01*
X193232142Y-58699819D02*
X192660714Y-58699819D01*
X192946428Y-58699819D02*
X192946428Y-57699819D01*
X192946428Y-57699819D02*
X192851190Y-57842676D01*
X192851190Y-57842676D02*
X192755952Y-57937914D01*
X192755952Y-57937914D02*
X192660714Y-57985533D01*
X194136904Y-57699819D02*
X193660714Y-57699819D01*
X193660714Y-57699819D02*
X193613095Y-58176009D01*
X193613095Y-58176009D02*
X193660714Y-58128390D01*
X193660714Y-58128390D02*
X193755952Y-58080771D01*
X193755952Y-58080771D02*
X193994047Y-58080771D01*
X193994047Y-58080771D02*
X194089285Y-58128390D01*
X194089285Y-58128390D02*
X194136904Y-58176009D01*
X194136904Y-58176009D02*
X194184523Y-58271247D01*
X194184523Y-58271247D02*
X194184523Y-58509342D01*
X194184523Y-58509342D02*
X194136904Y-58604580D01*
X194136904Y-58604580D02*
X194089285Y-58652200D01*
X194089285Y-58652200D02*
X193994047Y-58699819D01*
X193994047Y-58699819D02*
X193755952Y-58699819D01*
X193755952Y-58699819D02*
X193660714Y-58652200D01*
X193660714Y-58652200D02*
X193613095Y-58604580D01*
X228565476Y-77652200D02*
X228708333Y-77699819D01*
X228708333Y-77699819D02*
X228946428Y-77699819D01*
X228946428Y-77699819D02*
X229041666Y-77652200D01*
X229041666Y-77652200D02*
X229089285Y-77604580D01*
X229089285Y-77604580D02*
X229136904Y-77509342D01*
X229136904Y-77509342D02*
X229136904Y-77414104D01*
X229136904Y-77414104D02*
X229089285Y-77318866D01*
X229089285Y-77318866D02*
X229041666Y-77271247D01*
X229041666Y-77271247D02*
X228946428Y-77223628D01*
X228946428Y-77223628D02*
X228755952Y-77176009D01*
X228755952Y-77176009D02*
X228660714Y-77128390D01*
X228660714Y-77128390D02*
X228613095Y-77080771D01*
X228613095Y-77080771D02*
X228565476Y-76985533D01*
X228565476Y-76985533D02*
X228565476Y-76890295D01*
X228565476Y-76890295D02*
X228613095Y-76795057D01*
X228613095Y-76795057D02*
X228660714Y-76747438D01*
X228660714Y-76747438D02*
X228755952Y-76699819D01*
X228755952Y-76699819D02*
X228994047Y-76699819D01*
X228994047Y-76699819D02*
X229136904Y-76747438D01*
X229470238Y-76699819D02*
X229708333Y-77699819D01*
X229708333Y-77699819D02*
X229898809Y-76985533D01*
X229898809Y-76985533D02*
X230089285Y-77699819D01*
X230089285Y-77699819D02*
X230327381Y-76699819D01*
X230613095Y-76699819D02*
X231232142Y-76699819D01*
X231232142Y-76699819D02*
X230898809Y-77080771D01*
X230898809Y-77080771D02*
X231041666Y-77080771D01*
X231041666Y-77080771D02*
X231136904Y-77128390D01*
X231136904Y-77128390D02*
X231184523Y-77176009D01*
X231184523Y-77176009D02*
X231232142Y-77271247D01*
X231232142Y-77271247D02*
X231232142Y-77509342D01*
X231232142Y-77509342D02*
X231184523Y-77604580D01*
X231184523Y-77604580D02*
X231136904Y-77652200D01*
X231136904Y-77652200D02*
X231041666Y-77699819D01*
X231041666Y-77699819D02*
X230755952Y-77699819D01*
X230755952Y-77699819D02*
X230660714Y-77652200D01*
X230660714Y-77652200D02*
X230613095Y-77604580D01*
X231565476Y-76699819D02*
X232232142Y-76699819D01*
X232232142Y-76699819D02*
X231803571Y-77699819D01*
X119315476Y-77652200D02*
X119458333Y-77699819D01*
X119458333Y-77699819D02*
X119696428Y-77699819D01*
X119696428Y-77699819D02*
X119791666Y-77652200D01*
X119791666Y-77652200D02*
X119839285Y-77604580D01*
X119839285Y-77604580D02*
X119886904Y-77509342D01*
X119886904Y-77509342D02*
X119886904Y-77414104D01*
X119886904Y-77414104D02*
X119839285Y-77318866D01*
X119839285Y-77318866D02*
X119791666Y-77271247D01*
X119791666Y-77271247D02*
X119696428Y-77223628D01*
X119696428Y-77223628D02*
X119505952Y-77176009D01*
X119505952Y-77176009D02*
X119410714Y-77128390D01*
X119410714Y-77128390D02*
X119363095Y-77080771D01*
X119363095Y-77080771D02*
X119315476Y-76985533D01*
X119315476Y-76985533D02*
X119315476Y-76890295D01*
X119315476Y-76890295D02*
X119363095Y-76795057D01*
X119363095Y-76795057D02*
X119410714Y-76747438D01*
X119410714Y-76747438D02*
X119505952Y-76699819D01*
X119505952Y-76699819D02*
X119744047Y-76699819D01*
X119744047Y-76699819D02*
X119886904Y-76747438D01*
X120220238Y-76699819D02*
X120458333Y-77699819D01*
X120458333Y-77699819D02*
X120648809Y-76985533D01*
X120648809Y-76985533D02*
X120839285Y-77699819D01*
X120839285Y-77699819D02*
X121077381Y-76699819D01*
X121410714Y-76795057D02*
X121458333Y-76747438D01*
X121458333Y-76747438D02*
X121553571Y-76699819D01*
X121553571Y-76699819D02*
X121791666Y-76699819D01*
X121791666Y-76699819D02*
X121886904Y-76747438D01*
X121886904Y-76747438D02*
X121934523Y-76795057D01*
X121934523Y-76795057D02*
X121982142Y-76890295D01*
X121982142Y-76890295D02*
X121982142Y-76985533D01*
X121982142Y-76985533D02*
X121934523Y-77128390D01*
X121934523Y-77128390D02*
X121363095Y-77699819D01*
X121363095Y-77699819D02*
X121982142Y-77699819D01*
X122601190Y-76699819D02*
X122696428Y-76699819D01*
X122696428Y-76699819D02*
X122791666Y-76747438D01*
X122791666Y-76747438D02*
X122839285Y-76795057D01*
X122839285Y-76795057D02*
X122886904Y-76890295D01*
X122886904Y-76890295D02*
X122934523Y-77080771D01*
X122934523Y-77080771D02*
X122934523Y-77318866D01*
X122934523Y-77318866D02*
X122886904Y-77509342D01*
X122886904Y-77509342D02*
X122839285Y-77604580D01*
X122839285Y-77604580D02*
X122791666Y-77652200D01*
X122791666Y-77652200D02*
X122696428Y-77699819D01*
X122696428Y-77699819D02*
X122601190Y-77699819D01*
X122601190Y-77699819D02*
X122505952Y-77652200D01*
X122505952Y-77652200D02*
X122458333Y-77604580D01*
X122458333Y-77604580D02*
X122410714Y-77509342D01*
X122410714Y-77509342D02*
X122363095Y-77318866D01*
X122363095Y-77318866D02*
X122363095Y-77080771D01*
X122363095Y-77080771D02*
X122410714Y-76890295D01*
X122410714Y-76890295D02*
X122458333Y-76795057D01*
X122458333Y-76795057D02*
X122505952Y-76747438D01*
X122505952Y-76747438D02*
X122601190Y-76699819D01*
X114565476Y-58652200D02*
X114708333Y-58699819D01*
X114708333Y-58699819D02*
X114946428Y-58699819D01*
X114946428Y-58699819D02*
X115041666Y-58652200D01*
X115041666Y-58652200D02*
X115089285Y-58604580D01*
X115089285Y-58604580D02*
X115136904Y-58509342D01*
X115136904Y-58509342D02*
X115136904Y-58414104D01*
X115136904Y-58414104D02*
X115089285Y-58318866D01*
X115089285Y-58318866D02*
X115041666Y-58271247D01*
X115041666Y-58271247D02*
X114946428Y-58223628D01*
X114946428Y-58223628D02*
X114755952Y-58176009D01*
X114755952Y-58176009D02*
X114660714Y-58128390D01*
X114660714Y-58128390D02*
X114613095Y-58080771D01*
X114613095Y-58080771D02*
X114565476Y-57985533D01*
X114565476Y-57985533D02*
X114565476Y-57890295D01*
X114565476Y-57890295D02*
X114613095Y-57795057D01*
X114613095Y-57795057D02*
X114660714Y-57747438D01*
X114660714Y-57747438D02*
X114755952Y-57699819D01*
X114755952Y-57699819D02*
X114994047Y-57699819D01*
X114994047Y-57699819D02*
X115136904Y-57747438D01*
X115470238Y-57699819D02*
X115708333Y-58699819D01*
X115708333Y-58699819D02*
X115898809Y-57985533D01*
X115898809Y-57985533D02*
X116089285Y-58699819D01*
X116089285Y-58699819D02*
X116327381Y-57699819D01*
X116660714Y-57795057D02*
X116708333Y-57747438D01*
X116708333Y-57747438D02*
X116803571Y-57699819D01*
X116803571Y-57699819D02*
X117041666Y-57699819D01*
X117041666Y-57699819D02*
X117136904Y-57747438D01*
X117136904Y-57747438D02*
X117184523Y-57795057D01*
X117184523Y-57795057D02*
X117232142Y-57890295D01*
X117232142Y-57890295D02*
X117232142Y-57985533D01*
X117232142Y-57985533D02*
X117184523Y-58128390D01*
X117184523Y-58128390D02*
X116613095Y-58699819D01*
X116613095Y-58699819D02*
X117232142Y-58699819D01*
X117565476Y-57699819D02*
X118232142Y-57699819D01*
X118232142Y-57699819D02*
X117803571Y-58699819D01*
X64690476Y-96652200D02*
X64833333Y-96699819D01*
X64833333Y-96699819D02*
X65071428Y-96699819D01*
X65071428Y-96699819D02*
X65166666Y-96652200D01*
X65166666Y-96652200D02*
X65214285Y-96604580D01*
X65214285Y-96604580D02*
X65261904Y-96509342D01*
X65261904Y-96509342D02*
X65261904Y-96414104D01*
X65261904Y-96414104D02*
X65214285Y-96318866D01*
X65214285Y-96318866D02*
X65166666Y-96271247D01*
X65166666Y-96271247D02*
X65071428Y-96223628D01*
X65071428Y-96223628D02*
X64880952Y-96176009D01*
X64880952Y-96176009D02*
X64785714Y-96128390D01*
X64785714Y-96128390D02*
X64738095Y-96080771D01*
X64738095Y-96080771D02*
X64690476Y-95985533D01*
X64690476Y-95985533D02*
X64690476Y-95890295D01*
X64690476Y-95890295D02*
X64738095Y-95795057D01*
X64738095Y-95795057D02*
X64785714Y-95747438D01*
X64785714Y-95747438D02*
X64880952Y-95699819D01*
X64880952Y-95699819D02*
X65119047Y-95699819D01*
X65119047Y-95699819D02*
X65261904Y-95747438D01*
X65595238Y-95699819D02*
X65833333Y-96699819D01*
X65833333Y-96699819D02*
X66023809Y-95985533D01*
X66023809Y-95985533D02*
X66214285Y-96699819D01*
X66214285Y-96699819D02*
X66452381Y-95699819D01*
X66785714Y-95795057D02*
X66833333Y-95747438D01*
X66833333Y-95747438D02*
X66928571Y-95699819D01*
X66928571Y-95699819D02*
X67166666Y-95699819D01*
X67166666Y-95699819D02*
X67261904Y-95747438D01*
X67261904Y-95747438D02*
X67309523Y-95795057D01*
X67309523Y-95795057D02*
X67357142Y-95890295D01*
X67357142Y-95890295D02*
X67357142Y-95985533D01*
X67357142Y-95985533D02*
X67309523Y-96128390D01*
X67309523Y-96128390D02*
X66738095Y-96699819D01*
X66738095Y-96699819D02*
X67357142Y-96699819D01*
X68261904Y-95699819D02*
X67785714Y-95699819D01*
X67785714Y-95699819D02*
X67738095Y-96176009D01*
X67738095Y-96176009D02*
X67785714Y-96128390D01*
X67785714Y-96128390D02*
X67880952Y-96080771D01*
X67880952Y-96080771D02*
X68119047Y-96080771D01*
X68119047Y-96080771D02*
X68214285Y-96128390D01*
X68214285Y-96128390D02*
X68261904Y-96176009D01*
X68261904Y-96176009D02*
X68309523Y-96271247D01*
X68309523Y-96271247D02*
X68309523Y-96509342D01*
X68309523Y-96509342D02*
X68261904Y-96604580D01*
X68261904Y-96604580D02*
X68214285Y-96652200D01*
X68214285Y-96652200D02*
X68119047Y-96699819D01*
X68119047Y-96699819D02*
X67880952Y-96699819D01*
X67880952Y-96699819D02*
X67785714Y-96652200D01*
X67785714Y-96652200D02*
X67738095Y-96604580D01*
X36190476Y-96652200D02*
X36333333Y-96699819D01*
X36333333Y-96699819D02*
X36571428Y-96699819D01*
X36571428Y-96699819D02*
X36666666Y-96652200D01*
X36666666Y-96652200D02*
X36714285Y-96604580D01*
X36714285Y-96604580D02*
X36761904Y-96509342D01*
X36761904Y-96509342D02*
X36761904Y-96414104D01*
X36761904Y-96414104D02*
X36714285Y-96318866D01*
X36714285Y-96318866D02*
X36666666Y-96271247D01*
X36666666Y-96271247D02*
X36571428Y-96223628D01*
X36571428Y-96223628D02*
X36380952Y-96176009D01*
X36380952Y-96176009D02*
X36285714Y-96128390D01*
X36285714Y-96128390D02*
X36238095Y-96080771D01*
X36238095Y-96080771D02*
X36190476Y-95985533D01*
X36190476Y-95985533D02*
X36190476Y-95890295D01*
X36190476Y-95890295D02*
X36238095Y-95795057D01*
X36238095Y-95795057D02*
X36285714Y-95747438D01*
X36285714Y-95747438D02*
X36380952Y-95699819D01*
X36380952Y-95699819D02*
X36619047Y-95699819D01*
X36619047Y-95699819D02*
X36761904Y-95747438D01*
X37095238Y-95699819D02*
X37333333Y-96699819D01*
X37333333Y-96699819D02*
X37523809Y-95985533D01*
X37523809Y-95985533D02*
X37714285Y-96699819D01*
X37714285Y-96699819D02*
X37952381Y-95699819D01*
X38238095Y-95699819D02*
X38857142Y-95699819D01*
X38857142Y-95699819D02*
X38523809Y-96080771D01*
X38523809Y-96080771D02*
X38666666Y-96080771D01*
X38666666Y-96080771D02*
X38761904Y-96128390D01*
X38761904Y-96128390D02*
X38809523Y-96176009D01*
X38809523Y-96176009D02*
X38857142Y-96271247D01*
X38857142Y-96271247D02*
X38857142Y-96509342D01*
X38857142Y-96509342D02*
X38809523Y-96604580D01*
X38809523Y-96604580D02*
X38761904Y-96652200D01*
X38761904Y-96652200D02*
X38666666Y-96699819D01*
X38666666Y-96699819D02*
X38380952Y-96699819D01*
X38380952Y-96699819D02*
X38285714Y-96652200D01*
X38285714Y-96652200D02*
X38238095Y-96604580D01*
X39190476Y-95699819D02*
X39809523Y-95699819D01*
X39809523Y-95699819D02*
X39476190Y-96080771D01*
X39476190Y-96080771D02*
X39619047Y-96080771D01*
X39619047Y-96080771D02*
X39714285Y-96128390D01*
X39714285Y-96128390D02*
X39761904Y-96176009D01*
X39761904Y-96176009D02*
X39809523Y-96271247D01*
X39809523Y-96271247D02*
X39809523Y-96509342D01*
X39809523Y-96509342D02*
X39761904Y-96604580D01*
X39761904Y-96604580D02*
X39714285Y-96652200D01*
X39714285Y-96652200D02*
X39619047Y-96699819D01*
X39619047Y-96699819D02*
X39333333Y-96699819D01*
X39333333Y-96699819D02*
X39238095Y-96652200D01*
X39238095Y-96652200D02*
X39190476Y-96604580D01*
X247565476Y-68152200D02*
X247708333Y-68199819D01*
X247708333Y-68199819D02*
X247946428Y-68199819D01*
X247946428Y-68199819D02*
X248041666Y-68152200D01*
X248041666Y-68152200D02*
X248089285Y-68104580D01*
X248089285Y-68104580D02*
X248136904Y-68009342D01*
X248136904Y-68009342D02*
X248136904Y-67914104D01*
X248136904Y-67914104D02*
X248089285Y-67818866D01*
X248089285Y-67818866D02*
X248041666Y-67771247D01*
X248041666Y-67771247D02*
X247946428Y-67723628D01*
X247946428Y-67723628D02*
X247755952Y-67676009D01*
X247755952Y-67676009D02*
X247660714Y-67628390D01*
X247660714Y-67628390D02*
X247613095Y-67580771D01*
X247613095Y-67580771D02*
X247565476Y-67485533D01*
X247565476Y-67485533D02*
X247565476Y-67390295D01*
X247565476Y-67390295D02*
X247613095Y-67295057D01*
X247613095Y-67295057D02*
X247660714Y-67247438D01*
X247660714Y-67247438D02*
X247755952Y-67199819D01*
X247755952Y-67199819D02*
X247994047Y-67199819D01*
X247994047Y-67199819D02*
X248136904Y-67247438D01*
X248470238Y-67199819D02*
X248708333Y-68199819D01*
X248708333Y-68199819D02*
X248898809Y-67485533D01*
X248898809Y-67485533D02*
X249089285Y-68199819D01*
X249089285Y-68199819D02*
X249327381Y-67199819D01*
X249613095Y-67199819D02*
X250232142Y-67199819D01*
X250232142Y-67199819D02*
X249898809Y-67580771D01*
X249898809Y-67580771D02*
X250041666Y-67580771D01*
X250041666Y-67580771D02*
X250136904Y-67628390D01*
X250136904Y-67628390D02*
X250184523Y-67676009D01*
X250184523Y-67676009D02*
X250232142Y-67771247D01*
X250232142Y-67771247D02*
X250232142Y-68009342D01*
X250232142Y-68009342D02*
X250184523Y-68104580D01*
X250184523Y-68104580D02*
X250136904Y-68152200D01*
X250136904Y-68152200D02*
X250041666Y-68199819D01*
X250041666Y-68199819D02*
X249755952Y-68199819D01*
X249755952Y-68199819D02*
X249660714Y-68152200D01*
X249660714Y-68152200D02*
X249613095Y-68104580D01*
X250613095Y-67295057D02*
X250660714Y-67247438D01*
X250660714Y-67247438D02*
X250755952Y-67199819D01*
X250755952Y-67199819D02*
X250994047Y-67199819D01*
X250994047Y-67199819D02*
X251089285Y-67247438D01*
X251089285Y-67247438D02*
X251136904Y-67295057D01*
X251136904Y-67295057D02*
X251184523Y-67390295D01*
X251184523Y-67390295D02*
X251184523Y-67485533D01*
X251184523Y-67485533D02*
X251136904Y-67628390D01*
X251136904Y-67628390D02*
X250565476Y-68199819D01*
X250565476Y-68199819D02*
X251184523Y-68199819D01*
X133565476Y-58652200D02*
X133708333Y-58699819D01*
X133708333Y-58699819D02*
X133946428Y-58699819D01*
X133946428Y-58699819D02*
X134041666Y-58652200D01*
X134041666Y-58652200D02*
X134089285Y-58604580D01*
X134089285Y-58604580D02*
X134136904Y-58509342D01*
X134136904Y-58509342D02*
X134136904Y-58414104D01*
X134136904Y-58414104D02*
X134089285Y-58318866D01*
X134089285Y-58318866D02*
X134041666Y-58271247D01*
X134041666Y-58271247D02*
X133946428Y-58223628D01*
X133946428Y-58223628D02*
X133755952Y-58176009D01*
X133755952Y-58176009D02*
X133660714Y-58128390D01*
X133660714Y-58128390D02*
X133613095Y-58080771D01*
X133613095Y-58080771D02*
X133565476Y-57985533D01*
X133565476Y-57985533D02*
X133565476Y-57890295D01*
X133565476Y-57890295D02*
X133613095Y-57795057D01*
X133613095Y-57795057D02*
X133660714Y-57747438D01*
X133660714Y-57747438D02*
X133755952Y-57699819D01*
X133755952Y-57699819D02*
X133994047Y-57699819D01*
X133994047Y-57699819D02*
X134136904Y-57747438D01*
X134470238Y-57699819D02*
X134708333Y-58699819D01*
X134708333Y-58699819D02*
X134898809Y-57985533D01*
X134898809Y-57985533D02*
X135089285Y-58699819D01*
X135089285Y-58699819D02*
X135327381Y-57699819D01*
X136232142Y-58699819D02*
X135660714Y-58699819D01*
X135946428Y-58699819D02*
X135946428Y-57699819D01*
X135946428Y-57699819D02*
X135851190Y-57842676D01*
X135851190Y-57842676D02*
X135755952Y-57937914D01*
X135755952Y-57937914D02*
X135660714Y-57985533D01*
X136613095Y-57795057D02*
X136660714Y-57747438D01*
X136660714Y-57747438D02*
X136755952Y-57699819D01*
X136755952Y-57699819D02*
X136994047Y-57699819D01*
X136994047Y-57699819D02*
X137089285Y-57747438D01*
X137089285Y-57747438D02*
X137136904Y-57795057D01*
X137136904Y-57795057D02*
X137184523Y-57890295D01*
X137184523Y-57890295D02*
X137184523Y-57985533D01*
X137184523Y-57985533D02*
X137136904Y-58128390D01*
X137136904Y-58128390D02*
X136565476Y-58699819D01*
X136565476Y-58699819D02*
X137184523Y-58699819D01*
X171565476Y-58652200D02*
X171708333Y-58699819D01*
X171708333Y-58699819D02*
X171946428Y-58699819D01*
X171946428Y-58699819D02*
X172041666Y-58652200D01*
X172041666Y-58652200D02*
X172089285Y-58604580D01*
X172089285Y-58604580D02*
X172136904Y-58509342D01*
X172136904Y-58509342D02*
X172136904Y-58414104D01*
X172136904Y-58414104D02*
X172089285Y-58318866D01*
X172089285Y-58318866D02*
X172041666Y-58271247D01*
X172041666Y-58271247D02*
X171946428Y-58223628D01*
X171946428Y-58223628D02*
X171755952Y-58176009D01*
X171755952Y-58176009D02*
X171660714Y-58128390D01*
X171660714Y-58128390D02*
X171613095Y-58080771D01*
X171613095Y-58080771D02*
X171565476Y-57985533D01*
X171565476Y-57985533D02*
X171565476Y-57890295D01*
X171565476Y-57890295D02*
X171613095Y-57795057D01*
X171613095Y-57795057D02*
X171660714Y-57747438D01*
X171660714Y-57747438D02*
X171755952Y-57699819D01*
X171755952Y-57699819D02*
X171994047Y-57699819D01*
X171994047Y-57699819D02*
X172136904Y-57747438D01*
X172470238Y-57699819D02*
X172708333Y-58699819D01*
X172708333Y-58699819D02*
X172898809Y-57985533D01*
X172898809Y-57985533D02*
X173089285Y-58699819D01*
X173089285Y-58699819D02*
X173327381Y-57699819D01*
X174232142Y-58699819D02*
X173660714Y-58699819D01*
X173946428Y-58699819D02*
X173946428Y-57699819D01*
X173946428Y-57699819D02*
X173851190Y-57842676D01*
X173851190Y-57842676D02*
X173755952Y-57937914D01*
X173755952Y-57937914D02*
X173660714Y-57985533D01*
X175089285Y-58033152D02*
X175089285Y-58699819D01*
X174851190Y-57652200D02*
X174613095Y-58366485D01*
X174613095Y-58366485D02*
X175232142Y-58366485D01*
X228565476Y-96652200D02*
X228708333Y-96699819D01*
X228708333Y-96699819D02*
X228946428Y-96699819D01*
X228946428Y-96699819D02*
X229041666Y-96652200D01*
X229041666Y-96652200D02*
X229089285Y-96604580D01*
X229089285Y-96604580D02*
X229136904Y-96509342D01*
X229136904Y-96509342D02*
X229136904Y-96414104D01*
X229136904Y-96414104D02*
X229089285Y-96318866D01*
X229089285Y-96318866D02*
X229041666Y-96271247D01*
X229041666Y-96271247D02*
X228946428Y-96223628D01*
X228946428Y-96223628D02*
X228755952Y-96176009D01*
X228755952Y-96176009D02*
X228660714Y-96128390D01*
X228660714Y-96128390D02*
X228613095Y-96080771D01*
X228613095Y-96080771D02*
X228565476Y-95985533D01*
X228565476Y-95985533D02*
X228565476Y-95890295D01*
X228565476Y-95890295D02*
X228613095Y-95795057D01*
X228613095Y-95795057D02*
X228660714Y-95747438D01*
X228660714Y-95747438D02*
X228755952Y-95699819D01*
X228755952Y-95699819D02*
X228994047Y-95699819D01*
X228994047Y-95699819D02*
X229136904Y-95747438D01*
X229470238Y-95699819D02*
X229708333Y-96699819D01*
X229708333Y-96699819D02*
X229898809Y-95985533D01*
X229898809Y-95985533D02*
X230089285Y-96699819D01*
X230089285Y-96699819D02*
X230327381Y-95699819D01*
X230613095Y-95699819D02*
X231232142Y-95699819D01*
X231232142Y-95699819D02*
X230898809Y-96080771D01*
X230898809Y-96080771D02*
X231041666Y-96080771D01*
X231041666Y-96080771D02*
X231136904Y-96128390D01*
X231136904Y-96128390D02*
X231184523Y-96176009D01*
X231184523Y-96176009D02*
X231232142Y-96271247D01*
X231232142Y-96271247D02*
X231232142Y-96509342D01*
X231232142Y-96509342D02*
X231184523Y-96604580D01*
X231184523Y-96604580D02*
X231136904Y-96652200D01*
X231136904Y-96652200D02*
X231041666Y-96699819D01*
X231041666Y-96699819D02*
X230755952Y-96699819D01*
X230755952Y-96699819D02*
X230660714Y-96652200D01*
X230660714Y-96652200D02*
X230613095Y-96604580D01*
X231708333Y-96699819D02*
X231898809Y-96699819D01*
X231898809Y-96699819D02*
X231994047Y-96652200D01*
X231994047Y-96652200D02*
X232041666Y-96604580D01*
X232041666Y-96604580D02*
X232136904Y-96461723D01*
X232136904Y-96461723D02*
X232184523Y-96271247D01*
X232184523Y-96271247D02*
X232184523Y-95890295D01*
X232184523Y-95890295D02*
X232136904Y-95795057D01*
X232136904Y-95795057D02*
X232089285Y-95747438D01*
X232089285Y-95747438D02*
X231994047Y-95699819D01*
X231994047Y-95699819D02*
X231803571Y-95699819D01*
X231803571Y-95699819D02*
X231708333Y-95747438D01*
X231708333Y-95747438D02*
X231660714Y-95795057D01*
X231660714Y-95795057D02*
X231613095Y-95890295D01*
X231613095Y-95890295D02*
X231613095Y-96128390D01*
X231613095Y-96128390D02*
X231660714Y-96223628D01*
X231660714Y-96223628D02*
X231708333Y-96271247D01*
X231708333Y-96271247D02*
X231803571Y-96318866D01*
X231803571Y-96318866D02*
X231994047Y-96318866D01*
X231994047Y-96318866D02*
X232089285Y-96271247D01*
X232089285Y-96271247D02*
X232136904Y-96223628D01*
X232136904Y-96223628D02*
X232184523Y-96128390D01*
X209565476Y-58652200D02*
X209708333Y-58699819D01*
X209708333Y-58699819D02*
X209946428Y-58699819D01*
X209946428Y-58699819D02*
X210041666Y-58652200D01*
X210041666Y-58652200D02*
X210089285Y-58604580D01*
X210089285Y-58604580D02*
X210136904Y-58509342D01*
X210136904Y-58509342D02*
X210136904Y-58414104D01*
X210136904Y-58414104D02*
X210089285Y-58318866D01*
X210089285Y-58318866D02*
X210041666Y-58271247D01*
X210041666Y-58271247D02*
X209946428Y-58223628D01*
X209946428Y-58223628D02*
X209755952Y-58176009D01*
X209755952Y-58176009D02*
X209660714Y-58128390D01*
X209660714Y-58128390D02*
X209613095Y-58080771D01*
X209613095Y-58080771D02*
X209565476Y-57985533D01*
X209565476Y-57985533D02*
X209565476Y-57890295D01*
X209565476Y-57890295D02*
X209613095Y-57795057D01*
X209613095Y-57795057D02*
X209660714Y-57747438D01*
X209660714Y-57747438D02*
X209755952Y-57699819D01*
X209755952Y-57699819D02*
X209994047Y-57699819D01*
X209994047Y-57699819D02*
X210136904Y-57747438D01*
X210470238Y-57699819D02*
X210708333Y-58699819D01*
X210708333Y-58699819D02*
X210898809Y-57985533D01*
X210898809Y-57985533D02*
X211089285Y-58699819D01*
X211089285Y-58699819D02*
X211327381Y-57699819D01*
X211660714Y-57795057D02*
X211708333Y-57747438D01*
X211708333Y-57747438D02*
X211803571Y-57699819D01*
X211803571Y-57699819D02*
X212041666Y-57699819D01*
X212041666Y-57699819D02*
X212136904Y-57747438D01*
X212136904Y-57747438D02*
X212184523Y-57795057D01*
X212184523Y-57795057D02*
X212232142Y-57890295D01*
X212232142Y-57890295D02*
X212232142Y-57985533D01*
X212232142Y-57985533D02*
X212184523Y-58128390D01*
X212184523Y-58128390D02*
X211613095Y-58699819D01*
X211613095Y-58699819D02*
X212232142Y-58699819D01*
X212565476Y-57699819D02*
X213184523Y-57699819D01*
X213184523Y-57699819D02*
X212851190Y-58080771D01*
X212851190Y-58080771D02*
X212994047Y-58080771D01*
X212994047Y-58080771D02*
X213089285Y-58128390D01*
X213089285Y-58128390D02*
X213136904Y-58176009D01*
X213136904Y-58176009D02*
X213184523Y-58271247D01*
X213184523Y-58271247D02*
X213184523Y-58509342D01*
X213184523Y-58509342D02*
X213136904Y-58604580D01*
X213136904Y-58604580D02*
X213089285Y-58652200D01*
X213089285Y-58652200D02*
X212994047Y-58699819D01*
X212994047Y-58699819D02*
X212708333Y-58699819D01*
X212708333Y-58699819D02*
X212613095Y-58652200D01*
X212613095Y-58652200D02*
X212565476Y-58604580D01*
X157315476Y-77652200D02*
X157458333Y-77699819D01*
X157458333Y-77699819D02*
X157696428Y-77699819D01*
X157696428Y-77699819D02*
X157791666Y-77652200D01*
X157791666Y-77652200D02*
X157839285Y-77604580D01*
X157839285Y-77604580D02*
X157886904Y-77509342D01*
X157886904Y-77509342D02*
X157886904Y-77414104D01*
X157886904Y-77414104D02*
X157839285Y-77318866D01*
X157839285Y-77318866D02*
X157791666Y-77271247D01*
X157791666Y-77271247D02*
X157696428Y-77223628D01*
X157696428Y-77223628D02*
X157505952Y-77176009D01*
X157505952Y-77176009D02*
X157410714Y-77128390D01*
X157410714Y-77128390D02*
X157363095Y-77080771D01*
X157363095Y-77080771D02*
X157315476Y-76985533D01*
X157315476Y-76985533D02*
X157315476Y-76890295D01*
X157315476Y-76890295D02*
X157363095Y-76795057D01*
X157363095Y-76795057D02*
X157410714Y-76747438D01*
X157410714Y-76747438D02*
X157505952Y-76699819D01*
X157505952Y-76699819D02*
X157744047Y-76699819D01*
X157744047Y-76699819D02*
X157886904Y-76747438D01*
X158220238Y-76699819D02*
X158458333Y-77699819D01*
X158458333Y-77699819D02*
X158648809Y-76985533D01*
X158648809Y-76985533D02*
X158839285Y-77699819D01*
X158839285Y-77699819D02*
X159077381Y-76699819D01*
X159410714Y-76795057D02*
X159458333Y-76747438D01*
X159458333Y-76747438D02*
X159553571Y-76699819D01*
X159553571Y-76699819D02*
X159791666Y-76699819D01*
X159791666Y-76699819D02*
X159886904Y-76747438D01*
X159886904Y-76747438D02*
X159934523Y-76795057D01*
X159934523Y-76795057D02*
X159982142Y-76890295D01*
X159982142Y-76890295D02*
X159982142Y-76985533D01*
X159982142Y-76985533D02*
X159934523Y-77128390D01*
X159934523Y-77128390D02*
X159363095Y-77699819D01*
X159363095Y-77699819D02*
X159982142Y-77699819D01*
X160458333Y-77699819D02*
X160648809Y-77699819D01*
X160648809Y-77699819D02*
X160744047Y-77652200D01*
X160744047Y-77652200D02*
X160791666Y-77604580D01*
X160791666Y-77604580D02*
X160886904Y-77461723D01*
X160886904Y-77461723D02*
X160934523Y-77271247D01*
X160934523Y-77271247D02*
X160934523Y-76890295D01*
X160934523Y-76890295D02*
X160886904Y-76795057D01*
X160886904Y-76795057D02*
X160839285Y-76747438D01*
X160839285Y-76747438D02*
X160744047Y-76699819D01*
X160744047Y-76699819D02*
X160553571Y-76699819D01*
X160553571Y-76699819D02*
X160458333Y-76747438D01*
X160458333Y-76747438D02*
X160410714Y-76795057D01*
X160410714Y-76795057D02*
X160363095Y-76890295D01*
X160363095Y-76890295D02*
X160363095Y-77128390D01*
X160363095Y-77128390D02*
X160410714Y-77223628D01*
X160410714Y-77223628D02*
X160458333Y-77271247D01*
X160458333Y-77271247D02*
X160553571Y-77318866D01*
X160553571Y-77318866D02*
X160744047Y-77318866D01*
X160744047Y-77318866D02*
X160839285Y-77271247D01*
X160839285Y-77271247D02*
X160886904Y-77223628D01*
X160886904Y-77223628D02*
X160934523Y-77128390D01*
X152565476Y-58652200D02*
X152708333Y-58699819D01*
X152708333Y-58699819D02*
X152946428Y-58699819D01*
X152946428Y-58699819D02*
X153041666Y-58652200D01*
X153041666Y-58652200D02*
X153089285Y-58604580D01*
X153089285Y-58604580D02*
X153136904Y-58509342D01*
X153136904Y-58509342D02*
X153136904Y-58414104D01*
X153136904Y-58414104D02*
X153089285Y-58318866D01*
X153089285Y-58318866D02*
X153041666Y-58271247D01*
X153041666Y-58271247D02*
X152946428Y-58223628D01*
X152946428Y-58223628D02*
X152755952Y-58176009D01*
X152755952Y-58176009D02*
X152660714Y-58128390D01*
X152660714Y-58128390D02*
X152613095Y-58080771D01*
X152613095Y-58080771D02*
X152565476Y-57985533D01*
X152565476Y-57985533D02*
X152565476Y-57890295D01*
X152565476Y-57890295D02*
X152613095Y-57795057D01*
X152613095Y-57795057D02*
X152660714Y-57747438D01*
X152660714Y-57747438D02*
X152755952Y-57699819D01*
X152755952Y-57699819D02*
X152994047Y-57699819D01*
X152994047Y-57699819D02*
X153136904Y-57747438D01*
X153470238Y-57699819D02*
X153708333Y-58699819D01*
X153708333Y-58699819D02*
X153898809Y-57985533D01*
X153898809Y-57985533D02*
X154089285Y-58699819D01*
X154089285Y-58699819D02*
X154327381Y-57699819D01*
X154660714Y-57795057D02*
X154708333Y-57747438D01*
X154708333Y-57747438D02*
X154803571Y-57699819D01*
X154803571Y-57699819D02*
X155041666Y-57699819D01*
X155041666Y-57699819D02*
X155136904Y-57747438D01*
X155136904Y-57747438D02*
X155184523Y-57795057D01*
X155184523Y-57795057D02*
X155232142Y-57890295D01*
X155232142Y-57890295D02*
X155232142Y-57985533D01*
X155232142Y-57985533D02*
X155184523Y-58128390D01*
X155184523Y-58128390D02*
X154613095Y-58699819D01*
X154613095Y-58699819D02*
X155232142Y-58699819D01*
X156184523Y-58699819D02*
X155613095Y-58699819D01*
X155898809Y-58699819D02*
X155898809Y-57699819D01*
X155898809Y-57699819D02*
X155803571Y-57842676D01*
X155803571Y-57842676D02*
X155708333Y-57937914D01*
X155708333Y-57937914D02*
X155613095Y-57985533D01*
X76565476Y-58652200D02*
X76708333Y-58699819D01*
X76708333Y-58699819D02*
X76946428Y-58699819D01*
X76946428Y-58699819D02*
X77041666Y-58652200D01*
X77041666Y-58652200D02*
X77089285Y-58604580D01*
X77089285Y-58604580D02*
X77136904Y-58509342D01*
X77136904Y-58509342D02*
X77136904Y-58414104D01*
X77136904Y-58414104D02*
X77089285Y-58318866D01*
X77089285Y-58318866D02*
X77041666Y-58271247D01*
X77041666Y-58271247D02*
X76946428Y-58223628D01*
X76946428Y-58223628D02*
X76755952Y-58176009D01*
X76755952Y-58176009D02*
X76660714Y-58128390D01*
X76660714Y-58128390D02*
X76613095Y-58080771D01*
X76613095Y-58080771D02*
X76565476Y-57985533D01*
X76565476Y-57985533D02*
X76565476Y-57890295D01*
X76565476Y-57890295D02*
X76613095Y-57795057D01*
X76613095Y-57795057D02*
X76660714Y-57747438D01*
X76660714Y-57747438D02*
X76755952Y-57699819D01*
X76755952Y-57699819D02*
X76994047Y-57699819D01*
X76994047Y-57699819D02*
X77136904Y-57747438D01*
X77470238Y-57699819D02*
X77708333Y-58699819D01*
X77708333Y-58699819D02*
X77898809Y-57985533D01*
X77898809Y-57985533D02*
X78089285Y-58699819D01*
X78089285Y-58699819D02*
X78327381Y-57699819D01*
X79232142Y-58699819D02*
X78660714Y-58699819D01*
X78946428Y-58699819D02*
X78946428Y-57699819D01*
X78946428Y-57699819D02*
X78851190Y-57842676D01*
X78851190Y-57842676D02*
X78755952Y-57937914D01*
X78755952Y-57937914D02*
X78660714Y-57985533D01*
X80184523Y-58699819D02*
X79613095Y-58699819D01*
X79898809Y-58699819D02*
X79898809Y-57699819D01*
X79898809Y-57699819D02*
X79803571Y-57842676D01*
X79803571Y-57842676D02*
X79708333Y-57937914D01*
X79708333Y-57937914D02*
X79613095Y-57985533D01*
X81315476Y-77652200D02*
X81458333Y-77699819D01*
X81458333Y-77699819D02*
X81696428Y-77699819D01*
X81696428Y-77699819D02*
X81791666Y-77652200D01*
X81791666Y-77652200D02*
X81839285Y-77604580D01*
X81839285Y-77604580D02*
X81886904Y-77509342D01*
X81886904Y-77509342D02*
X81886904Y-77414104D01*
X81886904Y-77414104D02*
X81839285Y-77318866D01*
X81839285Y-77318866D02*
X81791666Y-77271247D01*
X81791666Y-77271247D02*
X81696428Y-77223628D01*
X81696428Y-77223628D02*
X81505952Y-77176009D01*
X81505952Y-77176009D02*
X81410714Y-77128390D01*
X81410714Y-77128390D02*
X81363095Y-77080771D01*
X81363095Y-77080771D02*
X81315476Y-76985533D01*
X81315476Y-76985533D02*
X81315476Y-76890295D01*
X81315476Y-76890295D02*
X81363095Y-76795057D01*
X81363095Y-76795057D02*
X81410714Y-76747438D01*
X81410714Y-76747438D02*
X81505952Y-76699819D01*
X81505952Y-76699819D02*
X81744047Y-76699819D01*
X81744047Y-76699819D02*
X81886904Y-76747438D01*
X82220238Y-76699819D02*
X82458333Y-77699819D01*
X82458333Y-77699819D02*
X82648809Y-76985533D01*
X82648809Y-76985533D02*
X82839285Y-77699819D01*
X82839285Y-77699819D02*
X83077381Y-76699819D01*
X83363095Y-76699819D02*
X83982142Y-76699819D01*
X83982142Y-76699819D02*
X83648809Y-77080771D01*
X83648809Y-77080771D02*
X83791666Y-77080771D01*
X83791666Y-77080771D02*
X83886904Y-77128390D01*
X83886904Y-77128390D02*
X83934523Y-77176009D01*
X83934523Y-77176009D02*
X83982142Y-77271247D01*
X83982142Y-77271247D02*
X83982142Y-77509342D01*
X83982142Y-77509342D02*
X83934523Y-77604580D01*
X83934523Y-77604580D02*
X83886904Y-77652200D01*
X83886904Y-77652200D02*
X83791666Y-77699819D01*
X83791666Y-77699819D02*
X83505952Y-77699819D01*
X83505952Y-77699819D02*
X83410714Y-77652200D01*
X83410714Y-77652200D02*
X83363095Y-77604580D01*
X84839285Y-77033152D02*
X84839285Y-77699819D01*
X84601190Y-76652200D02*
X84363095Y-77366485D01*
X84363095Y-77366485D02*
X84982142Y-77366485D01*
X245190476Y-39652200D02*
X245333333Y-39699819D01*
X245333333Y-39699819D02*
X245571428Y-39699819D01*
X245571428Y-39699819D02*
X245666666Y-39652200D01*
X245666666Y-39652200D02*
X245714285Y-39604580D01*
X245714285Y-39604580D02*
X245761904Y-39509342D01*
X245761904Y-39509342D02*
X245761904Y-39414104D01*
X245761904Y-39414104D02*
X245714285Y-39318866D01*
X245714285Y-39318866D02*
X245666666Y-39271247D01*
X245666666Y-39271247D02*
X245571428Y-39223628D01*
X245571428Y-39223628D02*
X245380952Y-39176009D01*
X245380952Y-39176009D02*
X245285714Y-39128390D01*
X245285714Y-39128390D02*
X245238095Y-39080771D01*
X245238095Y-39080771D02*
X245190476Y-38985533D01*
X245190476Y-38985533D02*
X245190476Y-38890295D01*
X245190476Y-38890295D02*
X245238095Y-38795057D01*
X245238095Y-38795057D02*
X245285714Y-38747438D01*
X245285714Y-38747438D02*
X245380952Y-38699819D01*
X245380952Y-38699819D02*
X245619047Y-38699819D01*
X245619047Y-38699819D02*
X245761904Y-38747438D01*
X246095238Y-38699819D02*
X246333333Y-39699819D01*
X246333333Y-39699819D02*
X246523809Y-38985533D01*
X246523809Y-38985533D02*
X246714285Y-39699819D01*
X246714285Y-39699819D02*
X246952381Y-38699819D01*
X247285714Y-38795057D02*
X247333333Y-38747438D01*
X247333333Y-38747438D02*
X247428571Y-38699819D01*
X247428571Y-38699819D02*
X247666666Y-38699819D01*
X247666666Y-38699819D02*
X247761904Y-38747438D01*
X247761904Y-38747438D02*
X247809523Y-38795057D01*
X247809523Y-38795057D02*
X247857142Y-38890295D01*
X247857142Y-38890295D02*
X247857142Y-38985533D01*
X247857142Y-38985533D02*
X247809523Y-39128390D01*
X247809523Y-39128390D02*
X247238095Y-39699819D01*
X247238095Y-39699819D02*
X247857142Y-39699819D01*
X248714285Y-39033152D02*
X248714285Y-39699819D01*
X248476190Y-38652200D02*
X248238095Y-39366485D01*
X248238095Y-39366485D02*
X248857142Y-39366485D01*
X228060476Y-58827200D02*
X228203333Y-58874819D01*
X228203333Y-58874819D02*
X228441428Y-58874819D01*
X228441428Y-58874819D02*
X228536666Y-58827200D01*
X228536666Y-58827200D02*
X228584285Y-58779580D01*
X228584285Y-58779580D02*
X228631904Y-58684342D01*
X228631904Y-58684342D02*
X228631904Y-58589104D01*
X228631904Y-58589104D02*
X228584285Y-58493866D01*
X228584285Y-58493866D02*
X228536666Y-58446247D01*
X228536666Y-58446247D02*
X228441428Y-58398628D01*
X228441428Y-58398628D02*
X228250952Y-58351009D01*
X228250952Y-58351009D02*
X228155714Y-58303390D01*
X228155714Y-58303390D02*
X228108095Y-58255771D01*
X228108095Y-58255771D02*
X228060476Y-58160533D01*
X228060476Y-58160533D02*
X228060476Y-58065295D01*
X228060476Y-58065295D02*
X228108095Y-57970057D01*
X228108095Y-57970057D02*
X228155714Y-57922438D01*
X228155714Y-57922438D02*
X228250952Y-57874819D01*
X228250952Y-57874819D02*
X228489047Y-57874819D01*
X228489047Y-57874819D02*
X228631904Y-57922438D01*
X228965238Y-57874819D02*
X229203333Y-58874819D01*
X229203333Y-58874819D02*
X229393809Y-58160533D01*
X229393809Y-58160533D02*
X229584285Y-58874819D01*
X229584285Y-58874819D02*
X229822381Y-57874819D01*
X230108095Y-57874819D02*
X230727142Y-57874819D01*
X230727142Y-57874819D02*
X230393809Y-58255771D01*
X230393809Y-58255771D02*
X230536666Y-58255771D01*
X230536666Y-58255771D02*
X230631904Y-58303390D01*
X230631904Y-58303390D02*
X230679523Y-58351009D01*
X230679523Y-58351009D02*
X230727142Y-58446247D01*
X230727142Y-58446247D02*
X230727142Y-58684342D01*
X230727142Y-58684342D02*
X230679523Y-58779580D01*
X230679523Y-58779580D02*
X230631904Y-58827200D01*
X230631904Y-58827200D02*
X230536666Y-58874819D01*
X230536666Y-58874819D02*
X230250952Y-58874819D01*
X230250952Y-58874819D02*
X230155714Y-58827200D01*
X230155714Y-58827200D02*
X230108095Y-58779580D01*
X231679523Y-58874819D02*
X231108095Y-58874819D01*
X231393809Y-58874819D02*
X231393809Y-57874819D01*
X231393809Y-57874819D02*
X231298571Y-58017676D01*
X231298571Y-58017676D02*
X231203333Y-58112914D01*
X231203333Y-58112914D02*
X231108095Y-58160533D01*
X176315476Y-77652200D02*
X176458333Y-77699819D01*
X176458333Y-77699819D02*
X176696428Y-77699819D01*
X176696428Y-77699819D02*
X176791666Y-77652200D01*
X176791666Y-77652200D02*
X176839285Y-77604580D01*
X176839285Y-77604580D02*
X176886904Y-77509342D01*
X176886904Y-77509342D02*
X176886904Y-77414104D01*
X176886904Y-77414104D02*
X176839285Y-77318866D01*
X176839285Y-77318866D02*
X176791666Y-77271247D01*
X176791666Y-77271247D02*
X176696428Y-77223628D01*
X176696428Y-77223628D02*
X176505952Y-77176009D01*
X176505952Y-77176009D02*
X176410714Y-77128390D01*
X176410714Y-77128390D02*
X176363095Y-77080771D01*
X176363095Y-77080771D02*
X176315476Y-76985533D01*
X176315476Y-76985533D02*
X176315476Y-76890295D01*
X176315476Y-76890295D02*
X176363095Y-76795057D01*
X176363095Y-76795057D02*
X176410714Y-76747438D01*
X176410714Y-76747438D02*
X176505952Y-76699819D01*
X176505952Y-76699819D02*
X176744047Y-76699819D01*
X176744047Y-76699819D02*
X176886904Y-76747438D01*
X177220238Y-76699819D02*
X177458333Y-77699819D01*
X177458333Y-77699819D02*
X177648809Y-76985533D01*
X177648809Y-76985533D02*
X177839285Y-77699819D01*
X177839285Y-77699819D02*
X178077381Y-76699819D01*
X178410714Y-76795057D02*
X178458333Y-76747438D01*
X178458333Y-76747438D02*
X178553571Y-76699819D01*
X178553571Y-76699819D02*
X178791666Y-76699819D01*
X178791666Y-76699819D02*
X178886904Y-76747438D01*
X178886904Y-76747438D02*
X178934523Y-76795057D01*
X178934523Y-76795057D02*
X178982142Y-76890295D01*
X178982142Y-76890295D02*
X178982142Y-76985533D01*
X178982142Y-76985533D02*
X178934523Y-77128390D01*
X178934523Y-77128390D02*
X178363095Y-77699819D01*
X178363095Y-77699819D02*
X178982142Y-77699819D01*
X179363095Y-76795057D02*
X179410714Y-76747438D01*
X179410714Y-76747438D02*
X179505952Y-76699819D01*
X179505952Y-76699819D02*
X179744047Y-76699819D01*
X179744047Y-76699819D02*
X179839285Y-76747438D01*
X179839285Y-76747438D02*
X179886904Y-76795057D01*
X179886904Y-76795057D02*
X179934523Y-76890295D01*
X179934523Y-76890295D02*
X179934523Y-76985533D01*
X179934523Y-76985533D02*
X179886904Y-77128390D01*
X179886904Y-77128390D02*
X179315476Y-77699819D01*
X179315476Y-77699819D02*
X179934523Y-77699819D01*
X147815476Y-39652200D02*
X147958333Y-39699819D01*
X147958333Y-39699819D02*
X148196428Y-39699819D01*
X148196428Y-39699819D02*
X148291666Y-39652200D01*
X148291666Y-39652200D02*
X148339285Y-39604580D01*
X148339285Y-39604580D02*
X148386904Y-39509342D01*
X148386904Y-39509342D02*
X148386904Y-39414104D01*
X148386904Y-39414104D02*
X148339285Y-39318866D01*
X148339285Y-39318866D02*
X148291666Y-39271247D01*
X148291666Y-39271247D02*
X148196428Y-39223628D01*
X148196428Y-39223628D02*
X148005952Y-39176009D01*
X148005952Y-39176009D02*
X147910714Y-39128390D01*
X147910714Y-39128390D02*
X147863095Y-39080771D01*
X147863095Y-39080771D02*
X147815476Y-38985533D01*
X147815476Y-38985533D02*
X147815476Y-38890295D01*
X147815476Y-38890295D02*
X147863095Y-38795057D01*
X147863095Y-38795057D02*
X147910714Y-38747438D01*
X147910714Y-38747438D02*
X148005952Y-38699819D01*
X148005952Y-38699819D02*
X148244047Y-38699819D01*
X148244047Y-38699819D02*
X148386904Y-38747438D01*
X148720238Y-38699819D02*
X148958333Y-39699819D01*
X148958333Y-39699819D02*
X149148809Y-38985533D01*
X149148809Y-38985533D02*
X149339285Y-39699819D01*
X149339285Y-39699819D02*
X149577381Y-38699819D01*
X150482142Y-39699819D02*
X149910714Y-39699819D01*
X150196428Y-39699819D02*
X150196428Y-38699819D01*
X150196428Y-38699819D02*
X150101190Y-38842676D01*
X150101190Y-38842676D02*
X150005952Y-38937914D01*
X150005952Y-38937914D02*
X149910714Y-38985533D01*
X150815476Y-38699819D02*
X151434523Y-38699819D01*
X151434523Y-38699819D02*
X151101190Y-39080771D01*
X151101190Y-39080771D02*
X151244047Y-39080771D01*
X151244047Y-39080771D02*
X151339285Y-39128390D01*
X151339285Y-39128390D02*
X151386904Y-39176009D01*
X151386904Y-39176009D02*
X151434523Y-39271247D01*
X151434523Y-39271247D02*
X151434523Y-39509342D01*
X151434523Y-39509342D02*
X151386904Y-39604580D01*
X151386904Y-39604580D02*
X151339285Y-39652200D01*
X151339285Y-39652200D02*
X151244047Y-39699819D01*
X151244047Y-39699819D02*
X150958333Y-39699819D01*
X150958333Y-39699819D02*
X150863095Y-39652200D01*
X150863095Y-39652200D02*
X150815476Y-39604580D01*
X91291667Y-39652200D02*
X91434524Y-39699819D01*
X91434524Y-39699819D02*
X91672619Y-39699819D01*
X91672619Y-39699819D02*
X91767857Y-39652200D01*
X91767857Y-39652200D02*
X91815476Y-39604580D01*
X91815476Y-39604580D02*
X91863095Y-39509342D01*
X91863095Y-39509342D02*
X91863095Y-39414104D01*
X91863095Y-39414104D02*
X91815476Y-39318866D01*
X91815476Y-39318866D02*
X91767857Y-39271247D01*
X91767857Y-39271247D02*
X91672619Y-39223628D01*
X91672619Y-39223628D02*
X91482143Y-39176009D01*
X91482143Y-39176009D02*
X91386905Y-39128390D01*
X91386905Y-39128390D02*
X91339286Y-39080771D01*
X91339286Y-39080771D02*
X91291667Y-38985533D01*
X91291667Y-38985533D02*
X91291667Y-38890295D01*
X91291667Y-38890295D02*
X91339286Y-38795057D01*
X91339286Y-38795057D02*
X91386905Y-38747438D01*
X91386905Y-38747438D02*
X91482143Y-38699819D01*
X91482143Y-38699819D02*
X91720238Y-38699819D01*
X91720238Y-38699819D02*
X91863095Y-38747438D01*
X92196429Y-38699819D02*
X92434524Y-39699819D01*
X92434524Y-39699819D02*
X92625000Y-38985533D01*
X92625000Y-38985533D02*
X92815476Y-39699819D01*
X92815476Y-39699819D02*
X93053572Y-38699819D01*
X93339286Y-38699819D02*
X93958333Y-38699819D01*
X93958333Y-38699819D02*
X93625000Y-39080771D01*
X93625000Y-39080771D02*
X93767857Y-39080771D01*
X93767857Y-39080771D02*
X93863095Y-39128390D01*
X93863095Y-39128390D02*
X93910714Y-39176009D01*
X93910714Y-39176009D02*
X93958333Y-39271247D01*
X93958333Y-39271247D02*
X93958333Y-39509342D01*
X93958333Y-39509342D02*
X93910714Y-39604580D01*
X93910714Y-39604580D02*
X93863095Y-39652200D01*
X93863095Y-39652200D02*
X93767857Y-39699819D01*
X93767857Y-39699819D02*
X93482143Y-39699819D01*
X93482143Y-39699819D02*
X93386905Y-39652200D01*
X93386905Y-39652200D02*
X93339286Y-39604580D01*
X72291667Y-39652200D02*
X72434524Y-39699819D01*
X72434524Y-39699819D02*
X72672619Y-39699819D01*
X72672619Y-39699819D02*
X72767857Y-39652200D01*
X72767857Y-39652200D02*
X72815476Y-39604580D01*
X72815476Y-39604580D02*
X72863095Y-39509342D01*
X72863095Y-39509342D02*
X72863095Y-39414104D01*
X72863095Y-39414104D02*
X72815476Y-39318866D01*
X72815476Y-39318866D02*
X72767857Y-39271247D01*
X72767857Y-39271247D02*
X72672619Y-39223628D01*
X72672619Y-39223628D02*
X72482143Y-39176009D01*
X72482143Y-39176009D02*
X72386905Y-39128390D01*
X72386905Y-39128390D02*
X72339286Y-39080771D01*
X72339286Y-39080771D02*
X72291667Y-38985533D01*
X72291667Y-38985533D02*
X72291667Y-38890295D01*
X72291667Y-38890295D02*
X72339286Y-38795057D01*
X72339286Y-38795057D02*
X72386905Y-38747438D01*
X72386905Y-38747438D02*
X72482143Y-38699819D01*
X72482143Y-38699819D02*
X72720238Y-38699819D01*
X72720238Y-38699819D02*
X72863095Y-38747438D01*
X73196429Y-38699819D02*
X73434524Y-39699819D01*
X73434524Y-39699819D02*
X73625000Y-38985533D01*
X73625000Y-38985533D02*
X73815476Y-39699819D01*
X73815476Y-39699819D02*
X74053572Y-38699819D01*
X74386905Y-38795057D02*
X74434524Y-38747438D01*
X74434524Y-38747438D02*
X74529762Y-38699819D01*
X74529762Y-38699819D02*
X74767857Y-38699819D01*
X74767857Y-38699819D02*
X74863095Y-38747438D01*
X74863095Y-38747438D02*
X74910714Y-38795057D01*
X74910714Y-38795057D02*
X74958333Y-38890295D01*
X74958333Y-38890295D02*
X74958333Y-38985533D01*
X74958333Y-38985533D02*
X74910714Y-39128390D01*
X74910714Y-39128390D02*
X74339286Y-39699819D01*
X74339286Y-39699819D02*
X74958333Y-39699819D01*
X110291667Y-39652200D02*
X110434524Y-39699819D01*
X110434524Y-39699819D02*
X110672619Y-39699819D01*
X110672619Y-39699819D02*
X110767857Y-39652200D01*
X110767857Y-39652200D02*
X110815476Y-39604580D01*
X110815476Y-39604580D02*
X110863095Y-39509342D01*
X110863095Y-39509342D02*
X110863095Y-39414104D01*
X110863095Y-39414104D02*
X110815476Y-39318866D01*
X110815476Y-39318866D02*
X110767857Y-39271247D01*
X110767857Y-39271247D02*
X110672619Y-39223628D01*
X110672619Y-39223628D02*
X110482143Y-39176009D01*
X110482143Y-39176009D02*
X110386905Y-39128390D01*
X110386905Y-39128390D02*
X110339286Y-39080771D01*
X110339286Y-39080771D02*
X110291667Y-38985533D01*
X110291667Y-38985533D02*
X110291667Y-38890295D01*
X110291667Y-38890295D02*
X110339286Y-38795057D01*
X110339286Y-38795057D02*
X110386905Y-38747438D01*
X110386905Y-38747438D02*
X110482143Y-38699819D01*
X110482143Y-38699819D02*
X110720238Y-38699819D01*
X110720238Y-38699819D02*
X110863095Y-38747438D01*
X111196429Y-38699819D02*
X111434524Y-39699819D01*
X111434524Y-39699819D02*
X111625000Y-38985533D01*
X111625000Y-38985533D02*
X111815476Y-39699819D01*
X111815476Y-39699819D02*
X112053572Y-38699819D01*
X112863095Y-39033152D02*
X112863095Y-39699819D01*
X112625000Y-38652200D02*
X112386905Y-39366485D01*
X112386905Y-39366485D02*
X113005952Y-39366485D01*
X62315476Y-77652200D02*
X62458333Y-77699819D01*
X62458333Y-77699819D02*
X62696428Y-77699819D01*
X62696428Y-77699819D02*
X62791666Y-77652200D01*
X62791666Y-77652200D02*
X62839285Y-77604580D01*
X62839285Y-77604580D02*
X62886904Y-77509342D01*
X62886904Y-77509342D02*
X62886904Y-77414104D01*
X62886904Y-77414104D02*
X62839285Y-77318866D01*
X62839285Y-77318866D02*
X62791666Y-77271247D01*
X62791666Y-77271247D02*
X62696428Y-77223628D01*
X62696428Y-77223628D02*
X62505952Y-77176009D01*
X62505952Y-77176009D02*
X62410714Y-77128390D01*
X62410714Y-77128390D02*
X62363095Y-77080771D01*
X62363095Y-77080771D02*
X62315476Y-76985533D01*
X62315476Y-76985533D02*
X62315476Y-76890295D01*
X62315476Y-76890295D02*
X62363095Y-76795057D01*
X62363095Y-76795057D02*
X62410714Y-76747438D01*
X62410714Y-76747438D02*
X62505952Y-76699819D01*
X62505952Y-76699819D02*
X62744047Y-76699819D01*
X62744047Y-76699819D02*
X62886904Y-76747438D01*
X63220238Y-76699819D02*
X63458333Y-77699819D01*
X63458333Y-77699819D02*
X63648809Y-76985533D01*
X63648809Y-76985533D02*
X63839285Y-77699819D01*
X63839285Y-77699819D02*
X64077381Y-76699819D01*
X64410714Y-76795057D02*
X64458333Y-76747438D01*
X64458333Y-76747438D02*
X64553571Y-76699819D01*
X64553571Y-76699819D02*
X64791666Y-76699819D01*
X64791666Y-76699819D02*
X64886904Y-76747438D01*
X64886904Y-76747438D02*
X64934523Y-76795057D01*
X64934523Y-76795057D02*
X64982142Y-76890295D01*
X64982142Y-76890295D02*
X64982142Y-76985533D01*
X64982142Y-76985533D02*
X64934523Y-77128390D01*
X64934523Y-77128390D02*
X64363095Y-77699819D01*
X64363095Y-77699819D02*
X64982142Y-77699819D01*
X65839285Y-76699819D02*
X65648809Y-76699819D01*
X65648809Y-76699819D02*
X65553571Y-76747438D01*
X65553571Y-76747438D02*
X65505952Y-76795057D01*
X65505952Y-76795057D02*
X65410714Y-76937914D01*
X65410714Y-76937914D02*
X65363095Y-77128390D01*
X65363095Y-77128390D02*
X65363095Y-77509342D01*
X65363095Y-77509342D02*
X65410714Y-77604580D01*
X65410714Y-77604580D02*
X65458333Y-77652200D01*
X65458333Y-77652200D02*
X65553571Y-77699819D01*
X65553571Y-77699819D02*
X65744047Y-77699819D01*
X65744047Y-77699819D02*
X65839285Y-77652200D01*
X65839285Y-77652200D02*
X65886904Y-77604580D01*
X65886904Y-77604580D02*
X65934523Y-77509342D01*
X65934523Y-77509342D02*
X65934523Y-77271247D01*
X65934523Y-77271247D02*
X65886904Y-77176009D01*
X65886904Y-77176009D02*
X65839285Y-77128390D01*
X65839285Y-77128390D02*
X65744047Y-77080771D01*
X65744047Y-77080771D02*
X65553571Y-77080771D01*
X65553571Y-77080771D02*
X65458333Y-77128390D01*
X65458333Y-77128390D02*
X65410714Y-77176009D01*
X65410714Y-77176009D02*
X65363095Y-77271247D01*
X129291667Y-39652200D02*
X129434524Y-39699819D01*
X129434524Y-39699819D02*
X129672619Y-39699819D01*
X129672619Y-39699819D02*
X129767857Y-39652200D01*
X129767857Y-39652200D02*
X129815476Y-39604580D01*
X129815476Y-39604580D02*
X129863095Y-39509342D01*
X129863095Y-39509342D02*
X129863095Y-39414104D01*
X129863095Y-39414104D02*
X129815476Y-39318866D01*
X129815476Y-39318866D02*
X129767857Y-39271247D01*
X129767857Y-39271247D02*
X129672619Y-39223628D01*
X129672619Y-39223628D02*
X129482143Y-39176009D01*
X129482143Y-39176009D02*
X129386905Y-39128390D01*
X129386905Y-39128390D02*
X129339286Y-39080771D01*
X129339286Y-39080771D02*
X129291667Y-38985533D01*
X129291667Y-38985533D02*
X129291667Y-38890295D01*
X129291667Y-38890295D02*
X129339286Y-38795057D01*
X129339286Y-38795057D02*
X129386905Y-38747438D01*
X129386905Y-38747438D02*
X129482143Y-38699819D01*
X129482143Y-38699819D02*
X129720238Y-38699819D01*
X129720238Y-38699819D02*
X129863095Y-38747438D01*
X130196429Y-38699819D02*
X130434524Y-39699819D01*
X130434524Y-39699819D02*
X130625000Y-38985533D01*
X130625000Y-38985533D02*
X130815476Y-39699819D01*
X130815476Y-39699819D02*
X131053572Y-38699819D01*
X131910714Y-38699819D02*
X131434524Y-38699819D01*
X131434524Y-38699819D02*
X131386905Y-39176009D01*
X131386905Y-39176009D02*
X131434524Y-39128390D01*
X131434524Y-39128390D02*
X131529762Y-39080771D01*
X131529762Y-39080771D02*
X131767857Y-39080771D01*
X131767857Y-39080771D02*
X131863095Y-39128390D01*
X131863095Y-39128390D02*
X131910714Y-39176009D01*
X131910714Y-39176009D02*
X131958333Y-39271247D01*
X131958333Y-39271247D02*
X131958333Y-39509342D01*
X131958333Y-39509342D02*
X131910714Y-39604580D01*
X131910714Y-39604580D02*
X131863095Y-39652200D01*
X131863095Y-39652200D02*
X131767857Y-39699819D01*
X131767857Y-39699819D02*
X131529762Y-39699819D01*
X131529762Y-39699819D02*
X131434524Y-39652200D01*
X131434524Y-39652200D02*
X131386905Y-39604580D01*
X52815476Y-39652200D02*
X52958333Y-39699819D01*
X52958333Y-39699819D02*
X53196428Y-39699819D01*
X53196428Y-39699819D02*
X53291666Y-39652200D01*
X53291666Y-39652200D02*
X53339285Y-39604580D01*
X53339285Y-39604580D02*
X53386904Y-39509342D01*
X53386904Y-39509342D02*
X53386904Y-39414104D01*
X53386904Y-39414104D02*
X53339285Y-39318866D01*
X53339285Y-39318866D02*
X53291666Y-39271247D01*
X53291666Y-39271247D02*
X53196428Y-39223628D01*
X53196428Y-39223628D02*
X53005952Y-39176009D01*
X53005952Y-39176009D02*
X52910714Y-39128390D01*
X52910714Y-39128390D02*
X52863095Y-39080771D01*
X52863095Y-39080771D02*
X52815476Y-38985533D01*
X52815476Y-38985533D02*
X52815476Y-38890295D01*
X52815476Y-38890295D02*
X52863095Y-38795057D01*
X52863095Y-38795057D02*
X52910714Y-38747438D01*
X52910714Y-38747438D02*
X53005952Y-38699819D01*
X53005952Y-38699819D02*
X53244047Y-38699819D01*
X53244047Y-38699819D02*
X53386904Y-38747438D01*
X53720238Y-38699819D02*
X53958333Y-39699819D01*
X53958333Y-39699819D02*
X54148809Y-38985533D01*
X54148809Y-38985533D02*
X54339285Y-39699819D01*
X54339285Y-39699819D02*
X54577381Y-38699819D01*
X55482142Y-39699819D02*
X54910714Y-39699819D01*
X55196428Y-39699819D02*
X55196428Y-38699819D01*
X55196428Y-38699819D02*
X55101190Y-38842676D01*
X55101190Y-38842676D02*
X55005952Y-38937914D01*
X55005952Y-38937914D02*
X54910714Y-38985533D01*
X56101190Y-38699819D02*
X56196428Y-38699819D01*
X56196428Y-38699819D02*
X56291666Y-38747438D01*
X56291666Y-38747438D02*
X56339285Y-38795057D01*
X56339285Y-38795057D02*
X56386904Y-38890295D01*
X56386904Y-38890295D02*
X56434523Y-39080771D01*
X56434523Y-39080771D02*
X56434523Y-39318866D01*
X56434523Y-39318866D02*
X56386904Y-39509342D01*
X56386904Y-39509342D02*
X56339285Y-39604580D01*
X56339285Y-39604580D02*
X56291666Y-39652200D01*
X56291666Y-39652200D02*
X56196428Y-39699819D01*
X56196428Y-39699819D02*
X56101190Y-39699819D01*
X56101190Y-39699819D02*
X56005952Y-39652200D01*
X56005952Y-39652200D02*
X55958333Y-39604580D01*
X55958333Y-39604580D02*
X55910714Y-39509342D01*
X55910714Y-39509342D02*
X55863095Y-39318866D01*
X55863095Y-39318866D02*
X55863095Y-39080771D01*
X55863095Y-39080771D02*
X55910714Y-38890295D01*
X55910714Y-38890295D02*
X55958333Y-38795057D01*
X55958333Y-38795057D02*
X56005952Y-38747438D01*
X56005952Y-38747438D02*
X56101190Y-38699819D01*
X205291667Y-39652200D02*
X205434524Y-39699819D01*
X205434524Y-39699819D02*
X205672619Y-39699819D01*
X205672619Y-39699819D02*
X205767857Y-39652200D01*
X205767857Y-39652200D02*
X205815476Y-39604580D01*
X205815476Y-39604580D02*
X205863095Y-39509342D01*
X205863095Y-39509342D02*
X205863095Y-39414104D01*
X205863095Y-39414104D02*
X205815476Y-39318866D01*
X205815476Y-39318866D02*
X205767857Y-39271247D01*
X205767857Y-39271247D02*
X205672619Y-39223628D01*
X205672619Y-39223628D02*
X205482143Y-39176009D01*
X205482143Y-39176009D02*
X205386905Y-39128390D01*
X205386905Y-39128390D02*
X205339286Y-39080771D01*
X205339286Y-39080771D02*
X205291667Y-38985533D01*
X205291667Y-38985533D02*
X205291667Y-38890295D01*
X205291667Y-38890295D02*
X205339286Y-38795057D01*
X205339286Y-38795057D02*
X205386905Y-38747438D01*
X205386905Y-38747438D02*
X205482143Y-38699819D01*
X205482143Y-38699819D02*
X205720238Y-38699819D01*
X205720238Y-38699819D02*
X205863095Y-38747438D01*
X206196429Y-38699819D02*
X206434524Y-39699819D01*
X206434524Y-39699819D02*
X206625000Y-38985533D01*
X206625000Y-38985533D02*
X206815476Y-39699819D01*
X206815476Y-39699819D02*
X207053572Y-38699819D01*
X207577381Y-39128390D02*
X207482143Y-39080771D01*
X207482143Y-39080771D02*
X207434524Y-39033152D01*
X207434524Y-39033152D02*
X207386905Y-38937914D01*
X207386905Y-38937914D02*
X207386905Y-38890295D01*
X207386905Y-38890295D02*
X207434524Y-38795057D01*
X207434524Y-38795057D02*
X207482143Y-38747438D01*
X207482143Y-38747438D02*
X207577381Y-38699819D01*
X207577381Y-38699819D02*
X207767857Y-38699819D01*
X207767857Y-38699819D02*
X207863095Y-38747438D01*
X207863095Y-38747438D02*
X207910714Y-38795057D01*
X207910714Y-38795057D02*
X207958333Y-38890295D01*
X207958333Y-38890295D02*
X207958333Y-38937914D01*
X207958333Y-38937914D02*
X207910714Y-39033152D01*
X207910714Y-39033152D02*
X207863095Y-39080771D01*
X207863095Y-39080771D02*
X207767857Y-39128390D01*
X207767857Y-39128390D02*
X207577381Y-39128390D01*
X207577381Y-39128390D02*
X207482143Y-39176009D01*
X207482143Y-39176009D02*
X207434524Y-39223628D01*
X207434524Y-39223628D02*
X207386905Y-39318866D01*
X207386905Y-39318866D02*
X207386905Y-39509342D01*
X207386905Y-39509342D02*
X207434524Y-39604580D01*
X207434524Y-39604580D02*
X207482143Y-39652200D01*
X207482143Y-39652200D02*
X207577381Y-39699819D01*
X207577381Y-39699819D02*
X207767857Y-39699819D01*
X207767857Y-39699819D02*
X207863095Y-39652200D01*
X207863095Y-39652200D02*
X207910714Y-39604580D01*
X207910714Y-39604580D02*
X207958333Y-39509342D01*
X207958333Y-39509342D02*
X207958333Y-39318866D01*
X207958333Y-39318866D02*
X207910714Y-39223628D01*
X207910714Y-39223628D02*
X207863095Y-39176009D01*
X207863095Y-39176009D02*
X207767857Y-39128390D01*
X57565476Y-58652200D02*
X57708333Y-58699819D01*
X57708333Y-58699819D02*
X57946428Y-58699819D01*
X57946428Y-58699819D02*
X58041666Y-58652200D01*
X58041666Y-58652200D02*
X58089285Y-58604580D01*
X58089285Y-58604580D02*
X58136904Y-58509342D01*
X58136904Y-58509342D02*
X58136904Y-58414104D01*
X58136904Y-58414104D02*
X58089285Y-58318866D01*
X58089285Y-58318866D02*
X58041666Y-58271247D01*
X58041666Y-58271247D02*
X57946428Y-58223628D01*
X57946428Y-58223628D02*
X57755952Y-58176009D01*
X57755952Y-58176009D02*
X57660714Y-58128390D01*
X57660714Y-58128390D02*
X57613095Y-58080771D01*
X57613095Y-58080771D02*
X57565476Y-57985533D01*
X57565476Y-57985533D02*
X57565476Y-57890295D01*
X57565476Y-57890295D02*
X57613095Y-57795057D01*
X57613095Y-57795057D02*
X57660714Y-57747438D01*
X57660714Y-57747438D02*
X57755952Y-57699819D01*
X57755952Y-57699819D02*
X57994047Y-57699819D01*
X57994047Y-57699819D02*
X58136904Y-57747438D01*
X58470238Y-57699819D02*
X58708333Y-58699819D01*
X58708333Y-58699819D02*
X58898809Y-57985533D01*
X58898809Y-57985533D02*
X59089285Y-58699819D01*
X59089285Y-58699819D02*
X59327381Y-57699819D01*
X60232142Y-58699819D02*
X59660714Y-58699819D01*
X59946428Y-58699819D02*
X59946428Y-57699819D01*
X59946428Y-57699819D02*
X59851190Y-57842676D01*
X59851190Y-57842676D02*
X59755952Y-57937914D01*
X59755952Y-57937914D02*
X59660714Y-57985533D01*
X60803571Y-58128390D02*
X60708333Y-58080771D01*
X60708333Y-58080771D02*
X60660714Y-58033152D01*
X60660714Y-58033152D02*
X60613095Y-57937914D01*
X60613095Y-57937914D02*
X60613095Y-57890295D01*
X60613095Y-57890295D02*
X60660714Y-57795057D01*
X60660714Y-57795057D02*
X60708333Y-57747438D01*
X60708333Y-57747438D02*
X60803571Y-57699819D01*
X60803571Y-57699819D02*
X60994047Y-57699819D01*
X60994047Y-57699819D02*
X61089285Y-57747438D01*
X61089285Y-57747438D02*
X61136904Y-57795057D01*
X61136904Y-57795057D02*
X61184523Y-57890295D01*
X61184523Y-57890295D02*
X61184523Y-57937914D01*
X61184523Y-57937914D02*
X61136904Y-58033152D01*
X61136904Y-58033152D02*
X61089285Y-58080771D01*
X61089285Y-58080771D02*
X60994047Y-58128390D01*
X60994047Y-58128390D02*
X60803571Y-58128390D01*
X60803571Y-58128390D02*
X60708333Y-58176009D01*
X60708333Y-58176009D02*
X60660714Y-58223628D01*
X60660714Y-58223628D02*
X60613095Y-58318866D01*
X60613095Y-58318866D02*
X60613095Y-58509342D01*
X60613095Y-58509342D02*
X60660714Y-58604580D01*
X60660714Y-58604580D02*
X60708333Y-58652200D01*
X60708333Y-58652200D02*
X60803571Y-58699819D01*
X60803571Y-58699819D02*
X60994047Y-58699819D01*
X60994047Y-58699819D02*
X61089285Y-58652200D01*
X61089285Y-58652200D02*
X61136904Y-58604580D01*
X61136904Y-58604580D02*
X61184523Y-58509342D01*
X61184523Y-58509342D02*
X61184523Y-58318866D01*
X61184523Y-58318866D02*
X61136904Y-58223628D01*
X61136904Y-58223628D02*
X61089285Y-58176009D01*
X61089285Y-58176009D02*
X60994047Y-58128390D01*
X223815476Y-39652200D02*
X223958333Y-39699819D01*
X223958333Y-39699819D02*
X224196428Y-39699819D01*
X224196428Y-39699819D02*
X224291666Y-39652200D01*
X224291666Y-39652200D02*
X224339285Y-39604580D01*
X224339285Y-39604580D02*
X224386904Y-39509342D01*
X224386904Y-39509342D02*
X224386904Y-39414104D01*
X224386904Y-39414104D02*
X224339285Y-39318866D01*
X224339285Y-39318866D02*
X224291666Y-39271247D01*
X224291666Y-39271247D02*
X224196428Y-39223628D01*
X224196428Y-39223628D02*
X224005952Y-39176009D01*
X224005952Y-39176009D02*
X223910714Y-39128390D01*
X223910714Y-39128390D02*
X223863095Y-39080771D01*
X223863095Y-39080771D02*
X223815476Y-38985533D01*
X223815476Y-38985533D02*
X223815476Y-38890295D01*
X223815476Y-38890295D02*
X223863095Y-38795057D01*
X223863095Y-38795057D02*
X223910714Y-38747438D01*
X223910714Y-38747438D02*
X224005952Y-38699819D01*
X224005952Y-38699819D02*
X224244047Y-38699819D01*
X224244047Y-38699819D02*
X224386904Y-38747438D01*
X224720238Y-38699819D02*
X224958333Y-39699819D01*
X224958333Y-39699819D02*
X225148809Y-38985533D01*
X225148809Y-38985533D02*
X225339285Y-39699819D01*
X225339285Y-39699819D02*
X225577381Y-38699819D01*
X226482142Y-39699819D02*
X225910714Y-39699819D01*
X226196428Y-39699819D02*
X226196428Y-38699819D01*
X226196428Y-38699819D02*
X226101190Y-38842676D01*
X226101190Y-38842676D02*
X226005952Y-38937914D01*
X226005952Y-38937914D02*
X225910714Y-38985533D01*
X227339285Y-38699819D02*
X227148809Y-38699819D01*
X227148809Y-38699819D02*
X227053571Y-38747438D01*
X227053571Y-38747438D02*
X227005952Y-38795057D01*
X227005952Y-38795057D02*
X226910714Y-38937914D01*
X226910714Y-38937914D02*
X226863095Y-39128390D01*
X226863095Y-39128390D02*
X226863095Y-39509342D01*
X226863095Y-39509342D02*
X226910714Y-39604580D01*
X226910714Y-39604580D02*
X226958333Y-39652200D01*
X226958333Y-39652200D02*
X227053571Y-39699819D01*
X227053571Y-39699819D02*
X227244047Y-39699819D01*
X227244047Y-39699819D02*
X227339285Y-39652200D01*
X227339285Y-39652200D02*
X227386904Y-39604580D01*
X227386904Y-39604580D02*
X227434523Y-39509342D01*
X227434523Y-39509342D02*
X227434523Y-39271247D01*
X227434523Y-39271247D02*
X227386904Y-39176009D01*
X227386904Y-39176009D02*
X227339285Y-39128390D01*
X227339285Y-39128390D02*
X227244047Y-39080771D01*
X227244047Y-39080771D02*
X227053571Y-39080771D01*
X227053571Y-39080771D02*
X226958333Y-39128390D01*
X226958333Y-39128390D02*
X226910714Y-39176009D01*
X226910714Y-39176009D02*
X226863095Y-39271247D01*
X209565476Y-96652200D02*
X209708333Y-96699819D01*
X209708333Y-96699819D02*
X209946428Y-96699819D01*
X209946428Y-96699819D02*
X210041666Y-96652200D01*
X210041666Y-96652200D02*
X210089285Y-96604580D01*
X210089285Y-96604580D02*
X210136904Y-96509342D01*
X210136904Y-96509342D02*
X210136904Y-96414104D01*
X210136904Y-96414104D02*
X210089285Y-96318866D01*
X210089285Y-96318866D02*
X210041666Y-96271247D01*
X210041666Y-96271247D02*
X209946428Y-96223628D01*
X209946428Y-96223628D02*
X209755952Y-96176009D01*
X209755952Y-96176009D02*
X209660714Y-96128390D01*
X209660714Y-96128390D02*
X209613095Y-96080771D01*
X209613095Y-96080771D02*
X209565476Y-95985533D01*
X209565476Y-95985533D02*
X209565476Y-95890295D01*
X209565476Y-95890295D02*
X209613095Y-95795057D01*
X209613095Y-95795057D02*
X209660714Y-95747438D01*
X209660714Y-95747438D02*
X209755952Y-95699819D01*
X209755952Y-95699819D02*
X209994047Y-95699819D01*
X209994047Y-95699819D02*
X210136904Y-95747438D01*
X210470238Y-95699819D02*
X210708333Y-96699819D01*
X210708333Y-96699819D02*
X210898809Y-95985533D01*
X210898809Y-95985533D02*
X211089285Y-96699819D01*
X211089285Y-96699819D02*
X211327381Y-95699819D01*
X211613095Y-95699819D02*
X212232142Y-95699819D01*
X212232142Y-95699819D02*
X211898809Y-96080771D01*
X211898809Y-96080771D02*
X212041666Y-96080771D01*
X212041666Y-96080771D02*
X212136904Y-96128390D01*
X212136904Y-96128390D02*
X212184523Y-96176009D01*
X212184523Y-96176009D02*
X212232142Y-96271247D01*
X212232142Y-96271247D02*
X212232142Y-96509342D01*
X212232142Y-96509342D02*
X212184523Y-96604580D01*
X212184523Y-96604580D02*
X212136904Y-96652200D01*
X212136904Y-96652200D02*
X212041666Y-96699819D01*
X212041666Y-96699819D02*
X211755952Y-96699819D01*
X211755952Y-96699819D02*
X211660714Y-96652200D01*
X211660714Y-96652200D02*
X211613095Y-96604580D01*
X212803571Y-96128390D02*
X212708333Y-96080771D01*
X212708333Y-96080771D02*
X212660714Y-96033152D01*
X212660714Y-96033152D02*
X212613095Y-95937914D01*
X212613095Y-95937914D02*
X212613095Y-95890295D01*
X212613095Y-95890295D02*
X212660714Y-95795057D01*
X212660714Y-95795057D02*
X212708333Y-95747438D01*
X212708333Y-95747438D02*
X212803571Y-95699819D01*
X212803571Y-95699819D02*
X212994047Y-95699819D01*
X212994047Y-95699819D02*
X213089285Y-95747438D01*
X213089285Y-95747438D02*
X213136904Y-95795057D01*
X213136904Y-95795057D02*
X213184523Y-95890295D01*
X213184523Y-95890295D02*
X213184523Y-95937914D01*
X213184523Y-95937914D02*
X213136904Y-96033152D01*
X213136904Y-96033152D02*
X213089285Y-96080771D01*
X213089285Y-96080771D02*
X212994047Y-96128390D01*
X212994047Y-96128390D02*
X212803571Y-96128390D01*
X212803571Y-96128390D02*
X212708333Y-96176009D01*
X212708333Y-96176009D02*
X212660714Y-96223628D01*
X212660714Y-96223628D02*
X212613095Y-96318866D01*
X212613095Y-96318866D02*
X212613095Y-96509342D01*
X212613095Y-96509342D02*
X212660714Y-96604580D01*
X212660714Y-96604580D02*
X212708333Y-96652200D01*
X212708333Y-96652200D02*
X212803571Y-96699819D01*
X212803571Y-96699819D02*
X212994047Y-96699819D01*
X212994047Y-96699819D02*
X213089285Y-96652200D01*
X213089285Y-96652200D02*
X213136904Y-96604580D01*
X213136904Y-96604580D02*
X213184523Y-96509342D01*
X213184523Y-96509342D02*
X213184523Y-96318866D01*
X213184523Y-96318866D02*
X213136904Y-96223628D01*
X213136904Y-96223628D02*
X213089285Y-96176009D01*
X213089285Y-96176009D02*
X212994047Y-96128390D01*
X202440476Y-77652200D02*
X202583333Y-77699819D01*
X202583333Y-77699819D02*
X202821428Y-77699819D01*
X202821428Y-77699819D02*
X202916666Y-77652200D01*
X202916666Y-77652200D02*
X202964285Y-77604580D01*
X202964285Y-77604580D02*
X203011904Y-77509342D01*
X203011904Y-77509342D02*
X203011904Y-77414104D01*
X203011904Y-77414104D02*
X202964285Y-77318866D01*
X202964285Y-77318866D02*
X202916666Y-77271247D01*
X202916666Y-77271247D02*
X202821428Y-77223628D01*
X202821428Y-77223628D02*
X202630952Y-77176009D01*
X202630952Y-77176009D02*
X202535714Y-77128390D01*
X202535714Y-77128390D02*
X202488095Y-77080771D01*
X202488095Y-77080771D02*
X202440476Y-76985533D01*
X202440476Y-76985533D02*
X202440476Y-76890295D01*
X202440476Y-76890295D02*
X202488095Y-76795057D01*
X202488095Y-76795057D02*
X202535714Y-76747438D01*
X202535714Y-76747438D02*
X202630952Y-76699819D01*
X202630952Y-76699819D02*
X202869047Y-76699819D01*
X202869047Y-76699819D02*
X203011904Y-76747438D01*
X203345238Y-76699819D02*
X203583333Y-77699819D01*
X203583333Y-77699819D02*
X203773809Y-76985533D01*
X203773809Y-76985533D02*
X203964285Y-77699819D01*
X203964285Y-77699819D02*
X204202381Y-76699819D01*
X204488095Y-76699819D02*
X205107142Y-76699819D01*
X205107142Y-76699819D02*
X204773809Y-77080771D01*
X204773809Y-77080771D02*
X204916666Y-77080771D01*
X204916666Y-77080771D02*
X205011904Y-77128390D01*
X205011904Y-77128390D02*
X205059523Y-77176009D01*
X205059523Y-77176009D02*
X205107142Y-77271247D01*
X205107142Y-77271247D02*
X205107142Y-77509342D01*
X205107142Y-77509342D02*
X205059523Y-77604580D01*
X205059523Y-77604580D02*
X205011904Y-77652200D01*
X205011904Y-77652200D02*
X204916666Y-77699819D01*
X204916666Y-77699819D02*
X204630952Y-77699819D01*
X204630952Y-77699819D02*
X204535714Y-77652200D01*
X204535714Y-77652200D02*
X204488095Y-77604580D01*
X205726190Y-76699819D02*
X205821428Y-76699819D01*
X205821428Y-76699819D02*
X205916666Y-76747438D01*
X205916666Y-76747438D02*
X205964285Y-76795057D01*
X205964285Y-76795057D02*
X206011904Y-76890295D01*
X206011904Y-76890295D02*
X206059523Y-77080771D01*
X206059523Y-77080771D02*
X206059523Y-77318866D01*
X206059523Y-77318866D02*
X206011904Y-77509342D01*
X206011904Y-77509342D02*
X205964285Y-77604580D01*
X205964285Y-77604580D02*
X205916666Y-77652200D01*
X205916666Y-77652200D02*
X205821428Y-77699819D01*
X205821428Y-77699819D02*
X205726190Y-77699819D01*
X205726190Y-77699819D02*
X205630952Y-77652200D01*
X205630952Y-77652200D02*
X205583333Y-77604580D01*
X205583333Y-77604580D02*
X205535714Y-77509342D01*
X205535714Y-77509342D02*
X205488095Y-77318866D01*
X205488095Y-77318866D02*
X205488095Y-77080771D01*
X205488095Y-77080771D02*
X205535714Y-76890295D01*
X205535714Y-76890295D02*
X205583333Y-76795057D01*
X205583333Y-76795057D02*
X205630952Y-76747438D01*
X205630952Y-76747438D02*
X205726190Y-76699819D01*
X247745476Y-96927200D02*
X247888333Y-96974819D01*
X247888333Y-96974819D02*
X248126428Y-96974819D01*
X248126428Y-96974819D02*
X248221666Y-96927200D01*
X248221666Y-96927200D02*
X248269285Y-96879580D01*
X248269285Y-96879580D02*
X248316904Y-96784342D01*
X248316904Y-96784342D02*
X248316904Y-96689104D01*
X248316904Y-96689104D02*
X248269285Y-96593866D01*
X248269285Y-96593866D02*
X248221666Y-96546247D01*
X248221666Y-96546247D02*
X248126428Y-96498628D01*
X248126428Y-96498628D02*
X247935952Y-96451009D01*
X247935952Y-96451009D02*
X247840714Y-96403390D01*
X247840714Y-96403390D02*
X247793095Y-96355771D01*
X247793095Y-96355771D02*
X247745476Y-96260533D01*
X247745476Y-96260533D02*
X247745476Y-96165295D01*
X247745476Y-96165295D02*
X247793095Y-96070057D01*
X247793095Y-96070057D02*
X247840714Y-96022438D01*
X247840714Y-96022438D02*
X247935952Y-95974819D01*
X247935952Y-95974819D02*
X248174047Y-95974819D01*
X248174047Y-95974819D02*
X248316904Y-96022438D01*
X248650238Y-95974819D02*
X248888333Y-96974819D01*
X248888333Y-96974819D02*
X249078809Y-96260533D01*
X249078809Y-96260533D02*
X249269285Y-96974819D01*
X249269285Y-96974819D02*
X249507381Y-95974819D01*
X250316904Y-96308152D02*
X250316904Y-96974819D01*
X250078809Y-95927200D02*
X249840714Y-96641485D01*
X249840714Y-96641485D02*
X250459761Y-96641485D01*
X251031190Y-95974819D02*
X251126428Y-95974819D01*
X251126428Y-95974819D02*
X251221666Y-96022438D01*
X251221666Y-96022438D02*
X251269285Y-96070057D01*
X251269285Y-96070057D02*
X251316904Y-96165295D01*
X251316904Y-96165295D02*
X251364523Y-96355771D01*
X251364523Y-96355771D02*
X251364523Y-96593866D01*
X251364523Y-96593866D02*
X251316904Y-96784342D01*
X251316904Y-96784342D02*
X251269285Y-96879580D01*
X251269285Y-96879580D02*
X251221666Y-96927200D01*
X251221666Y-96927200D02*
X251126428Y-96974819D01*
X251126428Y-96974819D02*
X251031190Y-96974819D01*
X251031190Y-96974819D02*
X250935952Y-96927200D01*
X250935952Y-96927200D02*
X250888333Y-96879580D01*
X250888333Y-96879580D02*
X250840714Y-96784342D01*
X250840714Y-96784342D02*
X250793095Y-96593866D01*
X250793095Y-96593866D02*
X250793095Y-96355771D01*
X250793095Y-96355771D02*
X250840714Y-96165295D01*
X250840714Y-96165295D02*
X250888333Y-96070057D01*
X250888333Y-96070057D02*
X250935952Y-96022438D01*
X250935952Y-96022438D02*
X251031190Y-95974819D01*
X140690476Y-96652200D02*
X140833333Y-96699819D01*
X140833333Y-96699819D02*
X141071428Y-96699819D01*
X141071428Y-96699819D02*
X141166666Y-96652200D01*
X141166666Y-96652200D02*
X141214285Y-96604580D01*
X141214285Y-96604580D02*
X141261904Y-96509342D01*
X141261904Y-96509342D02*
X141261904Y-96414104D01*
X141261904Y-96414104D02*
X141214285Y-96318866D01*
X141214285Y-96318866D02*
X141166666Y-96271247D01*
X141166666Y-96271247D02*
X141071428Y-96223628D01*
X141071428Y-96223628D02*
X140880952Y-96176009D01*
X140880952Y-96176009D02*
X140785714Y-96128390D01*
X140785714Y-96128390D02*
X140738095Y-96080771D01*
X140738095Y-96080771D02*
X140690476Y-95985533D01*
X140690476Y-95985533D02*
X140690476Y-95890295D01*
X140690476Y-95890295D02*
X140738095Y-95795057D01*
X140738095Y-95795057D02*
X140785714Y-95747438D01*
X140785714Y-95747438D02*
X140880952Y-95699819D01*
X140880952Y-95699819D02*
X141119047Y-95699819D01*
X141119047Y-95699819D02*
X141261904Y-95747438D01*
X141595238Y-95699819D02*
X141833333Y-96699819D01*
X141833333Y-96699819D02*
X142023809Y-95985533D01*
X142023809Y-95985533D02*
X142214285Y-96699819D01*
X142214285Y-96699819D02*
X142452381Y-95699819D01*
X142738095Y-95699819D02*
X143357142Y-95699819D01*
X143357142Y-95699819D02*
X143023809Y-96080771D01*
X143023809Y-96080771D02*
X143166666Y-96080771D01*
X143166666Y-96080771D02*
X143261904Y-96128390D01*
X143261904Y-96128390D02*
X143309523Y-96176009D01*
X143309523Y-96176009D02*
X143357142Y-96271247D01*
X143357142Y-96271247D02*
X143357142Y-96509342D01*
X143357142Y-96509342D02*
X143309523Y-96604580D01*
X143309523Y-96604580D02*
X143261904Y-96652200D01*
X143261904Y-96652200D02*
X143166666Y-96699819D01*
X143166666Y-96699819D02*
X142880952Y-96699819D01*
X142880952Y-96699819D02*
X142785714Y-96652200D01*
X142785714Y-96652200D02*
X142738095Y-96604580D01*
X144214285Y-95699819D02*
X144023809Y-95699819D01*
X144023809Y-95699819D02*
X143928571Y-95747438D01*
X143928571Y-95747438D02*
X143880952Y-95795057D01*
X143880952Y-95795057D02*
X143785714Y-95937914D01*
X143785714Y-95937914D02*
X143738095Y-96128390D01*
X143738095Y-96128390D02*
X143738095Y-96509342D01*
X143738095Y-96509342D02*
X143785714Y-96604580D01*
X143785714Y-96604580D02*
X143833333Y-96652200D01*
X143833333Y-96652200D02*
X143928571Y-96699819D01*
X143928571Y-96699819D02*
X144119047Y-96699819D01*
X144119047Y-96699819D02*
X144214285Y-96652200D01*
X144214285Y-96652200D02*
X144261904Y-96604580D01*
X144261904Y-96604580D02*
X144309523Y-96509342D01*
X144309523Y-96509342D02*
X144309523Y-96271247D01*
X144309523Y-96271247D02*
X144261904Y-96176009D01*
X144261904Y-96176009D02*
X144214285Y-96128390D01*
X144214285Y-96128390D02*
X144119047Y-96080771D01*
X144119047Y-96080771D02*
X143928571Y-96080771D01*
X143928571Y-96080771D02*
X143833333Y-96128390D01*
X143833333Y-96128390D02*
X143785714Y-96176009D01*
X143785714Y-96176009D02*
X143738095Y-96271247D01*
X167291667Y-39652200D02*
X167434524Y-39699819D01*
X167434524Y-39699819D02*
X167672619Y-39699819D01*
X167672619Y-39699819D02*
X167767857Y-39652200D01*
X167767857Y-39652200D02*
X167815476Y-39604580D01*
X167815476Y-39604580D02*
X167863095Y-39509342D01*
X167863095Y-39509342D02*
X167863095Y-39414104D01*
X167863095Y-39414104D02*
X167815476Y-39318866D01*
X167815476Y-39318866D02*
X167767857Y-39271247D01*
X167767857Y-39271247D02*
X167672619Y-39223628D01*
X167672619Y-39223628D02*
X167482143Y-39176009D01*
X167482143Y-39176009D02*
X167386905Y-39128390D01*
X167386905Y-39128390D02*
X167339286Y-39080771D01*
X167339286Y-39080771D02*
X167291667Y-38985533D01*
X167291667Y-38985533D02*
X167291667Y-38890295D01*
X167291667Y-38890295D02*
X167339286Y-38795057D01*
X167339286Y-38795057D02*
X167386905Y-38747438D01*
X167386905Y-38747438D02*
X167482143Y-38699819D01*
X167482143Y-38699819D02*
X167720238Y-38699819D01*
X167720238Y-38699819D02*
X167863095Y-38747438D01*
X168196429Y-38699819D02*
X168434524Y-39699819D01*
X168434524Y-39699819D02*
X168625000Y-38985533D01*
X168625000Y-38985533D02*
X168815476Y-39699819D01*
X168815476Y-39699819D02*
X169053572Y-38699819D01*
X169863095Y-38699819D02*
X169672619Y-38699819D01*
X169672619Y-38699819D02*
X169577381Y-38747438D01*
X169577381Y-38747438D02*
X169529762Y-38795057D01*
X169529762Y-38795057D02*
X169434524Y-38937914D01*
X169434524Y-38937914D02*
X169386905Y-39128390D01*
X169386905Y-39128390D02*
X169386905Y-39509342D01*
X169386905Y-39509342D02*
X169434524Y-39604580D01*
X169434524Y-39604580D02*
X169482143Y-39652200D01*
X169482143Y-39652200D02*
X169577381Y-39699819D01*
X169577381Y-39699819D02*
X169767857Y-39699819D01*
X169767857Y-39699819D02*
X169863095Y-39652200D01*
X169863095Y-39652200D02*
X169910714Y-39604580D01*
X169910714Y-39604580D02*
X169958333Y-39509342D01*
X169958333Y-39509342D02*
X169958333Y-39271247D01*
X169958333Y-39271247D02*
X169910714Y-39176009D01*
X169910714Y-39176009D02*
X169863095Y-39128390D01*
X169863095Y-39128390D02*
X169767857Y-39080771D01*
X169767857Y-39080771D02*
X169577381Y-39080771D01*
X169577381Y-39080771D02*
X169482143Y-39128390D01*
X169482143Y-39128390D02*
X169434524Y-39176009D01*
X169434524Y-39176009D02*
X169386905Y-39271247D01*
X34291667Y-39652200D02*
X34434524Y-39699819D01*
X34434524Y-39699819D02*
X34672619Y-39699819D01*
X34672619Y-39699819D02*
X34767857Y-39652200D01*
X34767857Y-39652200D02*
X34815476Y-39604580D01*
X34815476Y-39604580D02*
X34863095Y-39509342D01*
X34863095Y-39509342D02*
X34863095Y-39414104D01*
X34863095Y-39414104D02*
X34815476Y-39318866D01*
X34815476Y-39318866D02*
X34767857Y-39271247D01*
X34767857Y-39271247D02*
X34672619Y-39223628D01*
X34672619Y-39223628D02*
X34482143Y-39176009D01*
X34482143Y-39176009D02*
X34386905Y-39128390D01*
X34386905Y-39128390D02*
X34339286Y-39080771D01*
X34339286Y-39080771D02*
X34291667Y-38985533D01*
X34291667Y-38985533D02*
X34291667Y-38890295D01*
X34291667Y-38890295D02*
X34339286Y-38795057D01*
X34339286Y-38795057D02*
X34386905Y-38747438D01*
X34386905Y-38747438D02*
X34482143Y-38699819D01*
X34482143Y-38699819D02*
X34720238Y-38699819D01*
X34720238Y-38699819D02*
X34863095Y-38747438D01*
X35196429Y-38699819D02*
X35434524Y-39699819D01*
X35434524Y-39699819D02*
X35625000Y-38985533D01*
X35625000Y-38985533D02*
X35815476Y-39699819D01*
X35815476Y-39699819D02*
X36053572Y-38699819D01*
X36958333Y-39699819D02*
X36386905Y-39699819D01*
X36672619Y-39699819D02*
X36672619Y-38699819D01*
X36672619Y-38699819D02*
X36577381Y-38842676D01*
X36577381Y-38842676D02*
X36482143Y-38937914D01*
X36482143Y-38937914D02*
X36386905Y-38985533D01*
X186291667Y-39652200D02*
X186434524Y-39699819D01*
X186434524Y-39699819D02*
X186672619Y-39699819D01*
X186672619Y-39699819D02*
X186767857Y-39652200D01*
X186767857Y-39652200D02*
X186815476Y-39604580D01*
X186815476Y-39604580D02*
X186863095Y-39509342D01*
X186863095Y-39509342D02*
X186863095Y-39414104D01*
X186863095Y-39414104D02*
X186815476Y-39318866D01*
X186815476Y-39318866D02*
X186767857Y-39271247D01*
X186767857Y-39271247D02*
X186672619Y-39223628D01*
X186672619Y-39223628D02*
X186482143Y-39176009D01*
X186482143Y-39176009D02*
X186386905Y-39128390D01*
X186386905Y-39128390D02*
X186339286Y-39080771D01*
X186339286Y-39080771D02*
X186291667Y-38985533D01*
X186291667Y-38985533D02*
X186291667Y-38890295D01*
X186291667Y-38890295D02*
X186339286Y-38795057D01*
X186339286Y-38795057D02*
X186386905Y-38747438D01*
X186386905Y-38747438D02*
X186482143Y-38699819D01*
X186482143Y-38699819D02*
X186720238Y-38699819D01*
X186720238Y-38699819D02*
X186863095Y-38747438D01*
X187196429Y-38699819D02*
X187434524Y-39699819D01*
X187434524Y-39699819D02*
X187625000Y-38985533D01*
X187625000Y-38985533D02*
X187815476Y-39699819D01*
X187815476Y-39699819D02*
X188053572Y-38699819D01*
X188339286Y-38699819D02*
X189005952Y-38699819D01*
X189005952Y-38699819D02*
X188577381Y-39699819D01*
X100315476Y-77652200D02*
X100458333Y-77699819D01*
X100458333Y-77699819D02*
X100696428Y-77699819D01*
X100696428Y-77699819D02*
X100791666Y-77652200D01*
X100791666Y-77652200D02*
X100839285Y-77604580D01*
X100839285Y-77604580D02*
X100886904Y-77509342D01*
X100886904Y-77509342D02*
X100886904Y-77414104D01*
X100886904Y-77414104D02*
X100839285Y-77318866D01*
X100839285Y-77318866D02*
X100791666Y-77271247D01*
X100791666Y-77271247D02*
X100696428Y-77223628D01*
X100696428Y-77223628D02*
X100505952Y-77176009D01*
X100505952Y-77176009D02*
X100410714Y-77128390D01*
X100410714Y-77128390D02*
X100363095Y-77080771D01*
X100363095Y-77080771D02*
X100315476Y-76985533D01*
X100315476Y-76985533D02*
X100315476Y-76890295D01*
X100315476Y-76890295D02*
X100363095Y-76795057D01*
X100363095Y-76795057D02*
X100410714Y-76747438D01*
X100410714Y-76747438D02*
X100505952Y-76699819D01*
X100505952Y-76699819D02*
X100744047Y-76699819D01*
X100744047Y-76699819D02*
X100886904Y-76747438D01*
X101220238Y-76699819D02*
X101458333Y-77699819D01*
X101458333Y-77699819D02*
X101648809Y-76985533D01*
X101648809Y-76985533D02*
X101839285Y-77699819D01*
X101839285Y-77699819D02*
X102077381Y-76699819D01*
X102363095Y-76699819D02*
X102982142Y-76699819D01*
X102982142Y-76699819D02*
X102648809Y-77080771D01*
X102648809Y-77080771D02*
X102791666Y-77080771D01*
X102791666Y-77080771D02*
X102886904Y-77128390D01*
X102886904Y-77128390D02*
X102934523Y-77176009D01*
X102934523Y-77176009D02*
X102982142Y-77271247D01*
X102982142Y-77271247D02*
X102982142Y-77509342D01*
X102982142Y-77509342D02*
X102934523Y-77604580D01*
X102934523Y-77604580D02*
X102886904Y-77652200D01*
X102886904Y-77652200D02*
X102791666Y-77699819D01*
X102791666Y-77699819D02*
X102505952Y-77699819D01*
X102505952Y-77699819D02*
X102410714Y-77652200D01*
X102410714Y-77652200D02*
X102363095Y-77604580D01*
X103886904Y-76699819D02*
X103410714Y-76699819D01*
X103410714Y-76699819D02*
X103363095Y-77176009D01*
X103363095Y-77176009D02*
X103410714Y-77128390D01*
X103410714Y-77128390D02*
X103505952Y-77080771D01*
X103505952Y-77080771D02*
X103744047Y-77080771D01*
X103744047Y-77080771D02*
X103839285Y-77128390D01*
X103839285Y-77128390D02*
X103886904Y-77176009D01*
X103886904Y-77176009D02*
X103934523Y-77271247D01*
X103934523Y-77271247D02*
X103934523Y-77509342D01*
X103934523Y-77509342D02*
X103886904Y-77604580D01*
X103886904Y-77604580D02*
X103839285Y-77652200D01*
X103839285Y-77652200D02*
X103744047Y-77699819D01*
X103744047Y-77699819D02*
X103505952Y-77699819D01*
X103505952Y-77699819D02*
X103410714Y-77652200D01*
X103410714Y-77652200D02*
X103363095Y-77604580D01*
%TO.C,SW19*%
X90375000Y-60500000D02*
X90375000Y-59500000D01*
X90375000Y-73500000D02*
X90375000Y-72500000D01*
X90375000Y-73500000D02*
X91375000Y-73500000D01*
X91375000Y-59500000D02*
X90375000Y-59500000D01*
X103375000Y-73500000D02*
X104375000Y-73500000D01*
X104375000Y-59500000D02*
X103375000Y-59500000D01*
X104375000Y-59500000D02*
X104375000Y-60500000D01*
X104375000Y-72500000D02*
X104375000Y-73500000D01*
%TO.C,SW28*%
X133125000Y-79500000D02*
X133125000Y-78500000D01*
X133125000Y-92500000D02*
X133125000Y-91500000D01*
X133125000Y-92500000D02*
X134125000Y-92500000D01*
X134125000Y-78500000D02*
X133125000Y-78500000D01*
X146125000Y-92500000D02*
X147125000Y-92500000D01*
X147125000Y-78500000D02*
X146125000Y-78500000D01*
X147125000Y-78500000D02*
X147125000Y-79500000D01*
X147125000Y-91500000D02*
X147125000Y-92500000D01*
%TO.C,SW17*%
X35750000Y-79500000D02*
X35750000Y-78500000D01*
X35750000Y-92500000D02*
X35750000Y-91500000D01*
X35750000Y-92500000D02*
X36750000Y-92500000D01*
X36750000Y-78500000D02*
X35750000Y-78500000D01*
X48750000Y-92500000D02*
X49750000Y-92500000D01*
X49750000Y-78500000D02*
X48750000Y-78500000D01*
X49750000Y-78500000D02*
X49750000Y-79500000D01*
X49750000Y-91500000D02*
X49750000Y-92500000D01*
%TO.C,SW9*%
X31000000Y-60500000D02*
X31000000Y-59500000D01*
X31000000Y-73500000D02*
X31000000Y-72500000D01*
X31000000Y-73500000D02*
X32000000Y-73500000D01*
X32000000Y-59500000D02*
X31000000Y-59500000D01*
X44000000Y-73500000D02*
X45000000Y-73500000D01*
X45000000Y-59500000D02*
X44000000Y-59500000D01*
X45000000Y-59500000D02*
X45000000Y-60500000D01*
X45000000Y-72500000D02*
X45000000Y-73500000D01*
%TO.C,SW15*%
X185375000Y-60500000D02*
X185375000Y-59500000D01*
X185375000Y-73500000D02*
X185375000Y-72500000D01*
X185375000Y-73500000D02*
X186375000Y-73500000D01*
X186375000Y-59500000D02*
X185375000Y-59500000D01*
X198375000Y-73500000D02*
X199375000Y-73500000D01*
X199375000Y-59500000D02*
X198375000Y-59500000D01*
X199375000Y-59500000D02*
X199375000Y-60500000D01*
X199375000Y-72500000D02*
X199375000Y-73500000D01*
%TO.C,SW37*%
X223375000Y-79500000D02*
X223375000Y-78500000D01*
X223375000Y-92500000D02*
X223375000Y-91500000D01*
X223375000Y-92500000D02*
X224375000Y-92500000D01*
X224375000Y-78500000D02*
X223375000Y-78500000D01*
X236375000Y-92500000D02*
X237375000Y-92500000D01*
X237375000Y-78500000D02*
X236375000Y-78500000D01*
X237375000Y-78500000D02*
X237375000Y-79500000D01*
X237375000Y-91500000D02*
X237375000Y-92500000D01*
%TO.C,SW20*%
X114125000Y-79500000D02*
X114125000Y-78500000D01*
X114125000Y-92500000D02*
X114125000Y-91500000D01*
X114125000Y-92500000D02*
X115125000Y-92500000D01*
X115125000Y-78500000D02*
X114125000Y-78500000D01*
X127125000Y-92500000D02*
X128125000Y-92500000D01*
X128125000Y-78500000D02*
X127125000Y-78500000D01*
X128125000Y-78500000D02*
X128125000Y-79500000D01*
X128125000Y-91500000D02*
X128125000Y-92500000D01*
%TO.C,SW27*%
X109375000Y-60500000D02*
X109375000Y-59500000D01*
X109375000Y-73500000D02*
X109375000Y-72500000D01*
X109375000Y-73500000D02*
X110375000Y-73500000D01*
X110375000Y-59500000D02*
X109375000Y-59500000D01*
X122375000Y-73500000D02*
X123375000Y-73500000D01*
X123375000Y-59500000D02*
X122375000Y-59500000D01*
X123375000Y-59500000D02*
X123375000Y-60500000D01*
X123375000Y-72500000D02*
X123375000Y-73500000D01*
%TO.C,SW25*%
X59500000Y-98500000D02*
X59500000Y-97500000D01*
X59500000Y-111500000D02*
X59500000Y-110500000D01*
X59500000Y-111500000D02*
X60500000Y-111500000D01*
X60500000Y-97500000D02*
X59500000Y-97500000D01*
X72500000Y-111500000D02*
X73500000Y-111500000D01*
X73500000Y-97500000D02*
X72500000Y-97500000D01*
X73500000Y-97500000D02*
X73500000Y-98500000D01*
X73500000Y-110500000D02*
X73500000Y-111500000D01*
%TO.C,SW33*%
X31000000Y-98500000D02*
X31000000Y-97500000D01*
X31000000Y-111500000D02*
X31000000Y-110500000D01*
X31000000Y-111500000D02*
X32000000Y-111500000D01*
X32000000Y-97500000D02*
X31000000Y-97500000D01*
X44000000Y-111500000D02*
X45000000Y-111500000D01*
X45000000Y-97500000D02*
X44000000Y-97500000D01*
X45000000Y-97500000D02*
X45000000Y-98500000D01*
X45000000Y-110500000D02*
X45000000Y-111500000D01*
%TO.C,SW32*%
X242375000Y-70000000D02*
X242375000Y-69000000D01*
X242375000Y-83000000D02*
X242375000Y-82000000D01*
X242375000Y-83000000D02*
X243375000Y-83000000D01*
X243375000Y-69000000D02*
X242375000Y-69000000D01*
X255375000Y-83000000D02*
X256375000Y-83000000D01*
X256375000Y-69000000D02*
X255375000Y-69000000D01*
X256375000Y-69000000D02*
X256375000Y-70000000D01*
X256375000Y-82000000D02*
X256375000Y-83000000D01*
%TO.C,SW12*%
X128375000Y-60500000D02*
X128375000Y-59500000D01*
X128375000Y-73500000D02*
X128375000Y-72500000D01*
X128375000Y-73500000D02*
X129375000Y-73500000D01*
X129375000Y-59500000D02*
X128375000Y-59500000D01*
X141375000Y-73500000D02*
X142375000Y-73500000D01*
X142375000Y-59500000D02*
X141375000Y-59500000D01*
X142375000Y-59500000D02*
X142375000Y-60500000D01*
X142375000Y-72500000D02*
X142375000Y-73500000D01*
%TO.C,SW14*%
X166375000Y-60500000D02*
X166375000Y-59500000D01*
X166375000Y-73500000D02*
X166375000Y-72500000D01*
X166375000Y-73500000D02*
X167375000Y-73500000D01*
X167375000Y-59500000D02*
X166375000Y-59500000D01*
X179375000Y-73500000D02*
X180375000Y-73500000D01*
X180375000Y-59500000D02*
X179375000Y-59500000D01*
X180375000Y-59500000D02*
X180375000Y-60500000D01*
X180375000Y-72500000D02*
X180375000Y-73500000D01*
%TO.C,SW39*%
X223375000Y-98500000D02*
X223375000Y-97500000D01*
X223375000Y-111500000D02*
X223375000Y-110500000D01*
X223375000Y-111500000D02*
X224375000Y-111500000D01*
X224375000Y-97500000D02*
X223375000Y-97500000D01*
X236375000Y-111500000D02*
X237375000Y-111500000D01*
X237375000Y-97500000D02*
X236375000Y-97500000D01*
X237375000Y-97500000D02*
X237375000Y-98500000D01*
X237375000Y-110500000D02*
X237375000Y-111500000D01*
%TO.C,SW23*%
X204375000Y-60500000D02*
X204375000Y-59500000D01*
X204375000Y-73500000D02*
X204375000Y-72500000D01*
X204375000Y-73500000D02*
X205375000Y-73500000D01*
X205375000Y-59500000D02*
X204375000Y-59500000D01*
X217375000Y-73500000D02*
X218375000Y-73500000D01*
X218375000Y-59500000D02*
X217375000Y-59500000D01*
X218375000Y-59500000D02*
X218375000Y-60500000D01*
X218375000Y-72500000D02*
X218375000Y-73500000D01*
%TO.C,SW29*%
X152125000Y-79500000D02*
X152125000Y-78500000D01*
X152125000Y-92500000D02*
X152125000Y-91500000D01*
X152125000Y-92500000D02*
X153125000Y-92500000D01*
X153125000Y-78500000D02*
X152125000Y-78500000D01*
X165125000Y-92500000D02*
X166125000Y-92500000D01*
X166125000Y-78500000D02*
X165125000Y-78500000D01*
X166125000Y-78500000D02*
X166125000Y-79500000D01*
X166125000Y-91500000D02*
X166125000Y-92500000D01*
%TO.C,SW21*%
X147375000Y-60500000D02*
X147375000Y-59500000D01*
X147375000Y-73500000D02*
X147375000Y-72500000D01*
X147375000Y-73500000D02*
X148375000Y-73500000D01*
X148375000Y-59500000D02*
X147375000Y-59500000D01*
X160375000Y-73500000D02*
X161375000Y-73500000D01*
X161375000Y-59500000D02*
X160375000Y-59500000D01*
X161375000Y-59500000D02*
X161375000Y-60500000D01*
X161375000Y-72500000D02*
X161375000Y-73500000D01*
%TO.C,SW11*%
X71375000Y-60500000D02*
X71375000Y-59500000D01*
X71375000Y-73500000D02*
X71375000Y-72500000D01*
X71375000Y-73500000D02*
X72375000Y-73500000D01*
X72375000Y-59500000D02*
X71375000Y-59500000D01*
X84375000Y-73500000D02*
X85375000Y-73500000D01*
X85375000Y-59500000D02*
X84375000Y-59500000D01*
X85375000Y-59500000D02*
X85375000Y-60500000D01*
X85375000Y-72500000D02*
X85375000Y-73500000D01*
%TO.C,SW34*%
X76125000Y-79500000D02*
X76125000Y-78500000D01*
X76125000Y-92500000D02*
X76125000Y-91500000D01*
X76125000Y-92500000D02*
X77125000Y-92500000D01*
X77125000Y-78500000D02*
X76125000Y-78500000D01*
X89125000Y-92500000D02*
X90125000Y-92500000D01*
X90125000Y-78500000D02*
X89125000Y-78500000D01*
X90125000Y-78500000D02*
X90125000Y-79500000D01*
X90125000Y-91500000D02*
X90125000Y-92500000D01*
%TO.C,SW24*%
X240000000Y-41500000D02*
X240000000Y-40500000D01*
X240000000Y-54500000D02*
X240000000Y-53500000D01*
X240000000Y-54500000D02*
X241000000Y-54500000D01*
X241000000Y-40500000D02*
X240000000Y-40500000D01*
X253000000Y-54500000D02*
X254000000Y-54500000D01*
X254000000Y-40500000D02*
X253000000Y-40500000D01*
X254000000Y-40500000D02*
X254000000Y-41500000D01*
X254000000Y-53500000D02*
X254000000Y-54500000D01*
%TO.C,SW31*%
X223375000Y-60500000D02*
X223375000Y-59500000D01*
X223375000Y-73500000D02*
X223375000Y-72500000D01*
X223375000Y-73500000D02*
X224375000Y-73500000D01*
X224375000Y-59500000D02*
X223375000Y-59500000D01*
X236375000Y-73500000D02*
X237375000Y-73500000D01*
X237375000Y-59500000D02*
X236375000Y-59500000D01*
X237375000Y-59500000D02*
X237375000Y-60500000D01*
X237375000Y-72500000D02*
X237375000Y-73500000D01*
%TO.C,SW22*%
X171125000Y-79500000D02*
X171125000Y-78500000D01*
X171125000Y-92500000D02*
X171125000Y-91500000D01*
X171125000Y-92500000D02*
X172125000Y-92500000D01*
X172125000Y-78500000D02*
X171125000Y-78500000D01*
X184125000Y-92500000D02*
X185125000Y-92500000D01*
X185125000Y-78500000D02*
X184125000Y-78500000D01*
X185125000Y-78500000D02*
X185125000Y-79500000D01*
X185125000Y-91500000D02*
X185125000Y-92500000D01*
%TO.C,SW13*%
X142625000Y-41500000D02*
X142625000Y-40500000D01*
X142625000Y-54500000D02*
X142625000Y-53500000D01*
X142625000Y-54500000D02*
X143625000Y-54500000D01*
X143625000Y-40500000D02*
X142625000Y-40500000D01*
X155625000Y-54500000D02*
X156625000Y-54500000D01*
X156625000Y-40500000D02*
X155625000Y-40500000D01*
X156625000Y-40500000D02*
X156625000Y-41500000D01*
X156625000Y-53500000D02*
X156625000Y-54500000D01*
%TO.C,SW3*%
X85625000Y-41500000D02*
X85625000Y-40500000D01*
X85625000Y-54500000D02*
X85625000Y-53500000D01*
X85625000Y-54500000D02*
X86625000Y-54500000D01*
X86625000Y-40500000D02*
X85625000Y-40500000D01*
X98625000Y-54500000D02*
X99625000Y-54500000D01*
X99625000Y-40500000D02*
X98625000Y-40500000D01*
X99625000Y-40500000D02*
X99625000Y-41500000D01*
X99625000Y-53500000D02*
X99625000Y-54500000D01*
%TO.C,SW2*%
X66625000Y-41500000D02*
X66625000Y-40500000D01*
X66625000Y-54500000D02*
X66625000Y-53500000D01*
X66625000Y-54500000D02*
X67625000Y-54500000D01*
X67625000Y-40500000D02*
X66625000Y-40500000D01*
X79625000Y-54500000D02*
X80625000Y-54500000D01*
X80625000Y-40500000D02*
X79625000Y-40500000D01*
X80625000Y-40500000D02*
X80625000Y-41500000D01*
X80625000Y-53500000D02*
X80625000Y-54500000D01*
%TO.C,SW4*%
X104625000Y-41500000D02*
X104625000Y-40500000D01*
X104625000Y-54500000D02*
X104625000Y-53500000D01*
X104625000Y-54500000D02*
X105625000Y-54500000D01*
X105625000Y-40500000D02*
X104625000Y-40500000D01*
X117625000Y-54500000D02*
X118625000Y-54500000D01*
X118625000Y-40500000D02*
X117625000Y-40500000D01*
X118625000Y-40500000D02*
X118625000Y-41500000D01*
X118625000Y-53500000D02*
X118625000Y-54500000D01*
%TO.C,SW26*%
X57125000Y-79500000D02*
X57125000Y-78500000D01*
X57125000Y-92500000D02*
X57125000Y-91500000D01*
X57125000Y-92500000D02*
X58125000Y-92500000D01*
X58125000Y-78500000D02*
X57125000Y-78500000D01*
X70125000Y-92500000D02*
X71125000Y-92500000D01*
X71125000Y-78500000D02*
X70125000Y-78500000D01*
X71125000Y-78500000D02*
X71125000Y-79500000D01*
X71125000Y-91500000D02*
X71125000Y-92500000D01*
%TO.C,SW5*%
X123625000Y-41500000D02*
X123625000Y-40500000D01*
X123625000Y-54500000D02*
X123625000Y-53500000D01*
X123625000Y-54500000D02*
X124625000Y-54500000D01*
X124625000Y-40500000D02*
X123625000Y-40500000D01*
X136625000Y-54500000D02*
X137625000Y-54500000D01*
X137625000Y-40500000D02*
X136625000Y-40500000D01*
X137625000Y-40500000D02*
X137625000Y-41500000D01*
X137625000Y-53500000D02*
X137625000Y-54500000D01*
%TO.C,SW10*%
X47625000Y-41500000D02*
X47625000Y-40500000D01*
X47625000Y-54500000D02*
X47625000Y-53500000D01*
X47625000Y-54500000D02*
X48625000Y-54500000D01*
X48625000Y-40500000D02*
X47625000Y-40500000D01*
X60625000Y-54500000D02*
X61625000Y-54500000D01*
X61625000Y-40500000D02*
X60625000Y-40500000D01*
X61625000Y-40500000D02*
X61625000Y-41500000D01*
X61625000Y-53500000D02*
X61625000Y-54500000D01*
%TO.C,SW8*%
X199625000Y-41500000D02*
X199625000Y-40500000D01*
X199625000Y-54500000D02*
X199625000Y-53500000D01*
X199625000Y-54500000D02*
X200625000Y-54500000D01*
X200625000Y-40500000D02*
X199625000Y-40500000D01*
X212625000Y-54500000D02*
X213625000Y-54500000D01*
X213625000Y-40500000D02*
X212625000Y-40500000D01*
X213625000Y-40500000D02*
X213625000Y-41500000D01*
X213625000Y-53500000D02*
X213625000Y-54500000D01*
%TO.C,SW18*%
X52375000Y-60500000D02*
X52375000Y-59500000D01*
X52375000Y-73500000D02*
X52375000Y-72500000D01*
X52375000Y-73500000D02*
X53375000Y-73500000D01*
X53375000Y-59500000D02*
X52375000Y-59500000D01*
X65375000Y-73500000D02*
X66375000Y-73500000D01*
X66375000Y-59500000D02*
X65375000Y-59500000D01*
X66375000Y-59500000D02*
X66375000Y-60500000D01*
X66375000Y-72500000D02*
X66375000Y-73500000D01*
%TO.C,SW16*%
X218625000Y-41500000D02*
X218625000Y-40500000D01*
X218625000Y-54500000D02*
X218625000Y-53500000D01*
X218625000Y-54500000D02*
X219625000Y-54500000D01*
X219625000Y-40500000D02*
X218625000Y-40500000D01*
X231625000Y-54500000D02*
X232625000Y-54500000D01*
X232625000Y-40500000D02*
X231625000Y-40500000D01*
X232625000Y-40500000D02*
X232625000Y-41500000D01*
X232625000Y-53500000D02*
X232625000Y-54500000D01*
%TO.C,SW38*%
X204375000Y-98500000D02*
X204375000Y-97500000D01*
X204375000Y-111500000D02*
X204375000Y-110500000D01*
X204375000Y-111500000D02*
X205375000Y-111500000D01*
X205375000Y-97500000D02*
X204375000Y-97500000D01*
X217375000Y-111500000D02*
X218375000Y-111500000D01*
X218375000Y-97500000D02*
X217375000Y-97500000D01*
X218375000Y-97500000D02*
X218375000Y-98500000D01*
X218375000Y-110500000D02*
X218375000Y-111500000D01*
%TO.C,SW30*%
X197250000Y-79500000D02*
X197250000Y-78500000D01*
X197250000Y-92500000D02*
X197250000Y-91500000D01*
X197250000Y-92500000D02*
X198250000Y-92500000D01*
X198250000Y-78500000D02*
X197250000Y-78500000D01*
X210250000Y-92500000D02*
X211250000Y-92500000D01*
X211250000Y-78500000D02*
X210250000Y-78500000D01*
X211250000Y-78500000D02*
X211250000Y-79500000D01*
X211250000Y-91500000D02*
X211250000Y-92500000D01*
%TO.C,SW40*%
X242375000Y-98500000D02*
X242375000Y-97500000D01*
X242375000Y-111500000D02*
X242375000Y-110500000D01*
X242375000Y-111500000D02*
X243375000Y-111500000D01*
X243375000Y-97500000D02*
X242375000Y-97500000D01*
X255375000Y-111500000D02*
X256375000Y-111500000D01*
X256375000Y-97500000D02*
X255375000Y-97500000D01*
X256375000Y-97500000D02*
X256375000Y-98500000D01*
X256375000Y-110500000D02*
X256375000Y-111500000D01*
%TO.C,SW36*%
X135500000Y-98500000D02*
X135500000Y-97500000D01*
X135500000Y-111500000D02*
X135500000Y-110500000D01*
X135500000Y-111500000D02*
X136500000Y-111500000D01*
X136500000Y-97500000D02*
X135500000Y-97500000D01*
X148500000Y-111500000D02*
X149500000Y-111500000D01*
X149500000Y-97500000D02*
X148500000Y-97500000D01*
X149500000Y-97500000D02*
X149500000Y-98500000D01*
X149500000Y-110500000D02*
X149500000Y-111500000D01*
%TO.C,SW6*%
X161625000Y-41500000D02*
X161625000Y-40500000D01*
X161625000Y-54500000D02*
X161625000Y-53500000D01*
X161625000Y-54500000D02*
X162625000Y-54500000D01*
X162625000Y-40500000D02*
X161625000Y-40500000D01*
X174625000Y-54500000D02*
X175625000Y-54500000D01*
X175625000Y-40500000D02*
X174625000Y-40500000D01*
X175625000Y-40500000D02*
X175625000Y-41500000D01*
X175625000Y-53500000D02*
X175625000Y-54500000D01*
%TO.C,SW1*%
X28625000Y-41500000D02*
X28625000Y-40500000D01*
X28625000Y-54500000D02*
X28625000Y-53500000D01*
X28625000Y-54500000D02*
X29625000Y-54500000D01*
X29625000Y-40500000D02*
X28625000Y-40500000D01*
X41625000Y-54500000D02*
X42625000Y-54500000D01*
X42625000Y-40500000D02*
X41625000Y-40500000D01*
X42625000Y-40500000D02*
X42625000Y-41500000D01*
X42625000Y-53500000D02*
X42625000Y-54500000D01*
%TO.C,SW7*%
X180625000Y-41500000D02*
X180625000Y-40500000D01*
X180625000Y-54500000D02*
X180625000Y-53500000D01*
X180625000Y-54500000D02*
X181625000Y-54500000D01*
X181625000Y-40500000D02*
X180625000Y-40500000D01*
X193625000Y-54500000D02*
X194625000Y-54500000D01*
X194625000Y-40500000D02*
X193625000Y-40500000D01*
X194625000Y-40500000D02*
X194625000Y-41500000D01*
X194625000Y-53500000D02*
X194625000Y-54500000D01*
%TO.C,SW35*%
X95125000Y-79500000D02*
X95125000Y-78500000D01*
X95125000Y-92500000D02*
X95125000Y-91500000D01*
X95125000Y-92500000D02*
X96125000Y-92500000D01*
X96125000Y-78500000D02*
X95125000Y-78500000D01*
X108125000Y-92500000D02*
X109125000Y-92500000D01*
X109125000Y-78500000D02*
X108125000Y-78500000D01*
X109125000Y-78500000D02*
X109125000Y-79500000D01*
X109125000Y-91500000D02*
X109125000Y-92500000D01*
%TD*%
M02*
