M48
; DRILL file {KiCad 7.0.10} date qui 25 abr 2024 18:18:43
; FORMAT={-:-/ absolute / inch / decimal}
; #@! TF.CreationDate,2024-04-25T18:18:43+01:00
; #@! TF.GenerationSoftware,Kicad,Pcbnew,7.0.10
; #@! TF.FileFunction,NonPlated,1,2,NPTH
FMAT,2
INCH
; #@! TA.AperFunction,NonPlated,NPTH,ComponentDrill
T1C0.0390
; #@! TA.AperFunction,NonPlated,NPTH,ComponentDrill
T2C0.0689
; #@! TA.AperFunction,NonPlated,NPTH,ComponentDrill
T3C0.1570
; #@! TA.AperFunction,NonPlated,NPTH,ComponentDrill
T4C0.1575
%
G90
G05
T1
X1.6081Y-1.7047
X1.7016Y-2.4528
X1.7016Y-3.9488
X1.8886Y-3.2008
X2.3561Y-1.7047
X2.5431Y-2.4528
X2.7301Y-3.2008
X2.8236Y-3.9488
X3.1041Y-1.7047
X3.2911Y-2.4528
X3.4781Y-3.2008
X3.8522Y-1.7047
X4.0392Y-2.4528
X4.2262Y-3.2008
X4.6002Y-1.7047
X4.7872Y-2.4528
X4.9742Y-3.2008
X5.3482Y-1.7047
X5.5352Y-2.4528
X5.7222Y-3.2008
X5.8157Y-3.9488
X6.0963Y-1.7047
X6.2833Y-2.4528
X6.4703Y-3.2008
X6.8443Y-1.7047
X7.0313Y-2.4528
X7.2183Y-3.2008
X7.5923Y-1.7047
X7.7793Y-2.4528
X8.2469Y-3.2008
X8.3404Y-1.7047
X8.5274Y-2.4528
X8.5274Y-3.9488
X9.0884Y-1.7047
X9.2754Y-2.4528
X9.2754Y-3.2008
X9.2754Y-3.9488
X9.9299Y-1.7047
X10.0234Y-2.8268
X10.0234Y-3.9488
T3
X3.6363Y-3.7892
X7.5738Y-3.7892
X9.4929Y-2.5234
X9.4929Y-3.4609
T4
X1.4026Y-1.8701
X1.4961Y-2.6181
X1.4961Y-4.1142
X1.6831Y-3.3661
X2.1506Y-1.8701
X2.3376Y-2.6181
X2.5246Y-3.3661
X2.6181Y-4.1142
X2.8986Y-1.8701
X3.0856Y-2.6181
X3.2726Y-3.3661
X3.6467Y-1.8701
X3.8337Y-2.6181
X4.0207Y-3.3661
X4.3947Y-1.8701
X4.5817Y-2.6181
X4.7687Y-3.3661
X5.1427Y-1.8701
X5.3297Y-2.6181
X5.5167Y-3.3661
X5.6102Y-4.1142
X5.8907Y-1.8701
X6.0778Y-2.6181
X6.2648Y-3.3661
X6.6388Y-1.8701
X6.8258Y-2.6181
X7.0128Y-3.3661
X7.3868Y-1.8701
X7.5738Y-2.6181
X8.0413Y-3.3661
X8.1348Y-1.8701
X8.3219Y-2.6181
X8.3219Y-4.1142
X8.8829Y-1.8701
X9.0699Y-2.6181
X9.0699Y-3.3661
X9.0699Y-4.1142
X9.7244Y-1.8701
X9.8179Y-2.9921
X9.8179Y-4.1142
T2
G00X1.187Y-1.8701
M15
G01X1.2028Y-1.8701
M16
G05
G00X1.2805Y-2.6181
M15
G01X1.2963Y-2.6181
M16
G05
G00X1.2805Y-4.1142
M15
G01X1.2963Y-4.1142
M16
G05
G00X1.4675Y-3.3661
M15
G01X1.4833Y-3.3661
M16
G05
G00X1.6024Y-1.8701
M15
G01X1.6181Y-1.8701
M16
G05
G00X1.6959Y-2.6181
M15
G01X1.7116Y-2.6181
M16
G05
G00X1.6959Y-4.1142
M15
G01X1.7116Y-4.1142
M16
G05
G00X1.8829Y-3.3661
M15
G01X1.8986Y-3.3661
M16
G05
G00X1.935Y-1.8701
M15
G01X1.9508Y-1.8701
M16
G05
G00X2.122Y-2.6181
M15
G01X2.1378Y-2.6181
M16
G05
G00X2.3091Y-3.3661
M15
G01X2.3248Y-3.3661
M16
G05
G00X2.3504Y-1.8701
M15
G01X2.3661Y-1.8701
M16
G05
G00X2.4026Y-4.1142
M15
G01X2.4183Y-4.1142
M16
G05
G00X2.5374Y-2.6181
M15
G01X2.5531Y-2.6181
M16
G05
G00X2.6831Y-1.8701
M15
G01X2.6988Y-1.8701
M16
G05
G00X2.7244Y-3.3661
M15
G01X2.7402Y-3.3661
M16
G05
G00X2.8179Y-4.1142
M15
G01X2.8337Y-4.1142
M16
G05
G00X2.8701Y-2.6181
M15
G01X2.8858Y-2.6181
M16
G05
G00X3.0571Y-3.3661
M15
G01X3.0728Y-3.3661
M16
G05
G00X3.0984Y-1.8701
M15
G01X3.1142Y-1.8701
M16
G05
G00X3.2854Y-2.6181
M15
G01X3.3012Y-2.6181
M16
G05
G00X3.4311Y-1.8701
M15
G01X3.4469Y-1.8701
M16
G05
G00X3.4724Y-3.3661
M15
G01X3.4882Y-3.3661
M16
G05
G00X3.6181Y-2.6181
M15
G01X3.6339Y-2.6181
M16
G05
G00X3.8051Y-3.3661
M15
G01X3.8209Y-3.3661
M16
G05
G00X3.8465Y-1.8701
M15
G01X3.8622Y-1.8701
M16
G05
G00X4.0335Y-2.6181
M15
G01X4.0492Y-2.6181
M16
G05
G00X4.1791Y-1.8701
M15
G01X4.1949Y-1.8701
M16
G05
G00X4.2205Y-3.3661
M15
G01X4.2362Y-3.3661
M16
G05
G00X4.3661Y-2.6181
M15
G01X4.3819Y-2.6181
M16
G05
G00X4.5531Y-3.3661
M15
G01X4.5689Y-3.3661
M16
G05
G00X4.5945Y-1.8701
M15
G01X4.6102Y-1.8701
M16
G05
G00X4.7815Y-2.6181
M15
G01X4.7972Y-2.6181
M16
G05
G00X4.9272Y-1.8701
M15
G01X4.9429Y-1.8701
M16
G05
G00X4.9685Y-3.3661
M15
G01X4.9843Y-3.3661
M16
G05
G00X5.1142Y-2.6181
M15
G01X5.1299Y-2.6181
M16
G05
G00X5.3012Y-3.3661
M15
G01X5.3169Y-3.3661
M16
G05
G00X5.3425Y-1.8701
M15
G01X5.3583Y-1.8701
M16
G05
G00X5.3947Y-4.1142
M15
G01X5.4104Y-4.1142
M16
G05
G00X5.5295Y-2.6181
M15
G01X5.5453Y-2.6181
M16
G05
G00X5.6752Y-1.8701
M15
G01X5.6909Y-1.8701
M16
G05
G00X5.7165Y-3.3661
M15
G01X5.7323Y-3.3661
M16
G05
G00X5.81Y-4.1142
M15
G01X5.8258Y-4.1142
M16
G05
G00X5.8622Y-2.6181
M15
G01X5.878Y-2.6181
M16
G05
G00X6.0492Y-3.3661
M15
G01X6.065Y-3.3661
M16
G05
G00X6.0906Y-1.8701
M15
G01X6.1063Y-1.8701
M16
G05
G00X6.2776Y-2.6181
M15
G01X6.2933Y-2.6181
M16
G05
G00X6.4232Y-1.8701
M15
G01X6.439Y-1.8701
M16
G05
G00X6.4646Y-3.3661
M15
G01X6.4803Y-3.3661
M16
G05
G00X6.6102Y-2.6181
M15
G01X6.626Y-2.6181
M16
G05
G00X6.7972Y-3.3661
M15
G01X6.813Y-3.3661
M16
G05
G00X6.8386Y-1.8701
M15
G01X6.8543Y-1.8701
M16
G05
G00X7.0256Y-2.6181
M15
G01X7.0413Y-2.6181
M16
G05
G00X7.1713Y-1.8701
M15
G01X7.187Y-1.8701
M16
G05
G00X7.2126Y-3.3661
M15
G01X7.2283Y-3.3661
M16
G05
G00X7.3583Y-2.6181
M15
G01X7.374Y-2.6181
M16
G05
G00X7.5866Y-1.8701
M15
G01X7.6024Y-1.8701
M16
G05
G00X7.7736Y-2.6181
M15
G01X7.7894Y-2.6181
M16
G05
G00X7.8258Y-3.3661
M15
G01X7.8415Y-3.3661
M16
G05
G00X7.9193Y-1.8701
M15
G01X7.935Y-1.8701
M16
G05
G00X8.1063Y-2.6181
M15
G01X8.122Y-2.6181
M16
G05
G00X8.1063Y-4.1142
M15
G01X8.122Y-4.1142
M16
G05
G00X8.2411Y-3.3661
M15
G01X8.2569Y-3.3661
M16
G05
G00X8.3346Y-1.8701
M15
G01X8.3504Y-1.8701
M16
G05
G00X8.5217Y-2.6181
M15
G01X8.5374Y-2.6181
M16
G05
G00X8.5217Y-4.1142
M15
G01X8.5374Y-4.1142
M16
G05
G00X8.6673Y-1.8701
M15
G01X8.6831Y-1.8701
M16
G05
G00X8.8543Y-2.6181
M15
G01X8.8701Y-2.6181
M16
G05
G00X8.8543Y-3.3661
M15
G01X8.8701Y-3.3661
M16
G05
G00X8.8543Y-4.1142
M15
G01X8.8701Y-4.1142
M16
G05
G00X9.0827Y-1.8701
M15
G01X9.0984Y-1.8701
M16
G05
G00X9.2697Y-2.6181
M15
G01X9.2854Y-2.6181
M16
G05
G00X9.2697Y-3.3661
M15
G01X9.2854Y-3.3661
M16
G05
G00X9.2697Y-4.1142
M15
G01X9.2854Y-4.1142
M16
G05
G00X9.5089Y-1.8701
M15
G01X9.5246Y-1.8701
M16
G05
G00X9.6024Y-2.9921
M15
G01X9.6181Y-2.9921
M16
G05
G00X9.6024Y-4.1142
M15
G01X9.6181Y-4.1142
M16
G05
G00X9.9242Y-1.8701
M15
G01X9.94Y-1.8701
M16
G05
G00X10.0177Y-2.9921
M15
G01X10.0335Y-2.9921
M16
G05
G00X10.0177Y-4.1142
M15
G01X10.0335Y-4.1142
M16
G05
M30
