%TF.GenerationSoftware,KiCad,Pcbnew,7.0.10*%
%TF.CreationDate,2024-04-25T18:19:19+01:00*%
%TF.ProjectId,keyboard,6b657962-6f61-4726-942e-6b696361645f,rev?*%
%TF.SameCoordinates,Original*%
%TF.FileFunction,Profile,NP*%
%FSLAX46Y46*%
G04 Gerber Fmt 4.6, Leading zero omitted, Abs format (unit mm)*
G04 Created by KiCad (PCBNEW 7.0.10) date 2024-04-25 18:19:19*
%MOMM*%
%LPD*%
G01*
G04 APERTURE LIST*
%TA.AperFunction,Profile*%
%ADD10C,0.100000*%
%TD*%
G04 APERTURE END LIST*
D10*
X259575000Y-104250000D02*
X259575000Y-114000000D01*
X262250000Y-85900000D02*
G75*
G03*
X261850000Y-85500000I-400000J0D01*
G01*
X259575000Y-66250000D02*
X259575000Y-85500000D01*
X261847157Y-66247157D02*
G75*
G03*
X262247157Y-65847157I43J399957D01*
G01*
X25575000Y-38000000D02*
X259575000Y-38000000D01*
X261847157Y-104247157D02*
X259575000Y-104250000D01*
X262247157Y-103847157D02*
X262250000Y-85900000D01*
X23302843Y-85752843D02*
G75*
G03*
X22902843Y-86152843I-43J-399957D01*
G01*
X259575000Y-38000000D02*
X259575000Y-47500000D01*
X261850000Y-47500000D02*
X259575000Y-47500000D01*
X23302843Y-85752843D02*
X25575000Y-85750000D01*
X262247157Y-65847157D02*
X262250000Y-47900000D01*
X22900000Y-104100000D02*
G75*
G03*
X23300000Y-104500000I400000J0D01*
G01*
X25575000Y-114000000D02*
X25575000Y-104500000D01*
X23312843Y-47500000D02*
X25585000Y-47500000D01*
X23300000Y-104500000D02*
X25575000Y-104500000D01*
X25585000Y-47500000D02*
X25575000Y-38000000D01*
X261847157Y-104247157D02*
G75*
G03*
X262247157Y-103847157I43J399957D01*
G01*
X23312843Y-47500043D02*
G75*
G03*
X22912843Y-47900000I-43J-399957D01*
G01*
X22902843Y-86152843D02*
X22900000Y-104100000D01*
X25575000Y-85750000D02*
X25585000Y-66247157D01*
X261847157Y-66247157D02*
X259575000Y-66250000D01*
X22910043Y-65847157D02*
G75*
G03*
X23310000Y-66247157I399957J-43D01*
G01*
X259575000Y-114000000D02*
X25575000Y-114000000D01*
X23310000Y-66247157D02*
X25585000Y-66247157D01*
X261850000Y-85500000D02*
X259575000Y-85500000D01*
X22912843Y-47900000D02*
X22910000Y-65847157D01*
X262250000Y-47900000D02*
G75*
G03*
X261850000Y-47500000I-400000J0D01*
G01*
M02*
