%TF.GenerationSoftware,KiCad,Pcbnew,8.0.2*%
%TF.CreationDate,2024-05-31T09:53:19+01:00*%
%TF.ProjectId,keyboard,6b657962-6f61-4726-942e-6b696361645f,rev?*%
%TF.SameCoordinates,Original*%
%TF.FileFunction,Drillmap*%
%TF.FilePolarity,Positive*%
%FSLAX45Y45*%
G04 Gerber Fmt 4.5, Leading zero omitted, Abs format (unit mm)*
G04 Created by KiCad (PCBNEW 8.0.2) date 2024-05-31 09:53:19*
%MOMM*%
%LPD*%
G01*
G04 APERTURE LIST*
%ADD10C,0.100000*%
%ADD11C,0.050000*%
%ADD12C,0.200000*%
%ADD13C,0.440000*%
G04 APERTURE END LIST*
D10*
X25957500Y-10425000D02*
X25957500Y-11400000D01*
X26185000Y-8550000D02*
G75*
G02*
X26225000Y-8590000I0J-40000D01*
G01*
X25957500Y-6625000D02*
X25957500Y-8550000D01*
X26224716Y-6584716D02*
G75*
G02*
X26184716Y-6624716I-39996J-4D01*
G01*
X2557500Y-3800000D02*
X25957500Y-3800000D01*
X26184716Y-10424716D02*
X25957500Y-10425000D01*
X26224716Y-10384716D02*
X26225000Y-8590000D01*
X2290284Y-8615284D02*
G75*
G02*
X2330284Y-8575284I39996J4D01*
G01*
X25957500Y-3800000D02*
X25957500Y-4750000D01*
X26185000Y-4750000D02*
X25957500Y-4750000D01*
X2330284Y-8575284D02*
X2557500Y-8575000D01*
X26224716Y-6584716D02*
X26225000Y-4790000D01*
X2330000Y-10450000D02*
G75*
G02*
X2290000Y-10410000I0J40000D01*
G01*
X2557500Y-11400000D02*
X2557500Y-10450000D01*
X2331284Y-4750000D02*
X2558500Y-4750000D01*
X2330000Y-10450000D02*
X2557500Y-10450000D01*
X2558500Y-4750000D02*
X2557500Y-3800000D01*
X26224716Y-10384716D02*
G75*
G02*
X26184716Y-10424716I-39996J-4D01*
G01*
X2291284Y-4790000D02*
G75*
G02*
X2331284Y-4750004I39996J0D01*
G01*
X2290284Y-8615284D02*
X2290000Y-10410000D01*
X2557500Y-8575000D02*
X2558500Y-6624716D01*
X26184716Y-6624716D02*
X25957500Y-6625000D01*
X2331000Y-6624716D02*
G75*
G02*
X2291004Y-6584716I0J39996D01*
G01*
X25957500Y-11400000D02*
X2557500Y-11400000D01*
X2331000Y-6624716D02*
X2558500Y-6624716D01*
X26185000Y-8550000D02*
X25957500Y-8550000D01*
X2291284Y-4790000D02*
X2291000Y-6584716D01*
X26185000Y-4750000D02*
G75*
G02*
X26225000Y-4790000I0J-40000D01*
G01*
D11*
X8816843Y-10220070D02*
X8899390Y-10220070D01*
X8816843Y-10499950D02*
X8816843Y-10220070D01*
X8899390Y-9897050D02*
X9574350Y-9897050D01*
X8899390Y-10220070D02*
X8899390Y-9897050D01*
X8899390Y-10499950D02*
X8816843Y-10499950D01*
X8899390Y-11126950D02*
X8899390Y-10499950D01*
X9071919Y-11126950D02*
X8899390Y-11126950D01*
X9071919Y-11246980D02*
X9071919Y-11126950D01*
X9401820Y-11126950D02*
X9401820Y-11246980D01*
X9401820Y-11246980D02*
X9071919Y-11246980D01*
X9574350Y-9897050D02*
X9574350Y-10220070D01*
X9574350Y-10220070D02*
X9726950Y-10220070D01*
X9574350Y-10680060D02*
X9574350Y-11126950D01*
X9574350Y-11126950D02*
X9401820Y-11126950D01*
X9726950Y-10220070D02*
X9726950Y-10680060D01*
X9726950Y-10680060D02*
X9574350Y-10680060D01*
X18746810Y-10220070D02*
X18899410Y-10220070D01*
X18746810Y-10680060D02*
X18746810Y-10220070D01*
X18899410Y-9897050D02*
X19574310Y-9897050D01*
X18899410Y-10220070D02*
X18899410Y-9897050D01*
X18899410Y-10680060D02*
X18746810Y-10680060D01*
X18899410Y-11126950D02*
X18899410Y-10680060D01*
X19071810Y-11126950D02*
X18899410Y-11126950D01*
X19071810Y-11246980D02*
X19071810Y-11126950D01*
X19401810Y-11126950D02*
X19401810Y-11246980D01*
X19401810Y-11246980D02*
X19071810Y-11246980D01*
X19574310Y-9897050D02*
X19574310Y-10220070D01*
X19574310Y-10220070D02*
X19656910Y-10220070D01*
X19574310Y-10499950D02*
X19574310Y-11126950D01*
X19574310Y-11126950D02*
X19401810Y-11126950D01*
X19656910Y-10220070D02*
X19656910Y-10499950D01*
X19656910Y-10499950D02*
X19574310Y-10499950D01*
X24376230Y-6083070D02*
X24699240Y-6083070D01*
X24376230Y-6758040D02*
X24376230Y-6083070D01*
X24376230Y-8463080D02*
X24699240Y-8463080D01*
X24376230Y-9138045D02*
X24376230Y-8463080D01*
X24699240Y-6000530D02*
X24979130Y-6000530D01*
X24699240Y-6083070D02*
X24699240Y-6000530D01*
X24699240Y-6758040D02*
X24376230Y-6758040D01*
X24699240Y-6910590D02*
X24699240Y-6758040D01*
X24699240Y-8310530D02*
X25159220Y-8310530D01*
X24699240Y-8463080D02*
X24699240Y-8310530D01*
X24699240Y-9138045D02*
X24376230Y-9138045D01*
X24699240Y-9220591D02*
X24699240Y-9138045D01*
X24979130Y-6000530D02*
X24979130Y-6083070D01*
X24979130Y-6083070D02*
X25606120Y-6083070D01*
X24979130Y-9138045D02*
X24979130Y-9220591D01*
X24979130Y-9220591D02*
X24699240Y-9220591D01*
X25159220Y-6758040D02*
X25159220Y-6910590D01*
X25159220Y-6910590D02*
X24699240Y-6910590D01*
X25159220Y-8310530D02*
X25159220Y-8463080D01*
X25159220Y-8463080D02*
X25606120Y-8463080D01*
X25606120Y-6083070D02*
X25606120Y-6255600D01*
X25606120Y-6255600D02*
X25726140Y-6255600D01*
X25606120Y-8463080D02*
X25606120Y-8635615D01*
X25606120Y-8635615D02*
X25726140Y-8635615D01*
X25606120Y-8965516D02*
X25606120Y-9138045D01*
X25606120Y-9138045D02*
X24979130Y-9138045D01*
X25629120Y-6758040D02*
X25159220Y-6758040D01*
X25630311Y-6585510D02*
X25629120Y-6758040D01*
X25726140Y-6255600D02*
X25726140Y-6585510D01*
X25726140Y-6585510D02*
X25630311Y-6585510D01*
X25726140Y-8635615D02*
X25726140Y-8965516D01*
X25726140Y-8965516D02*
X25606120Y-8965516D01*
D12*
D13*
X3342500Y-4530000D02*
X3782500Y-4970000D01*
X3782500Y-4530000D02*
X3342500Y-4970000D01*
X3580000Y-6430000D02*
X4020000Y-6870000D01*
X4020000Y-6430000D02*
X3580000Y-6870000D01*
X3580000Y-10230000D02*
X4020000Y-10670000D01*
X4020000Y-10230000D02*
X3580000Y-10670000D01*
X4055000Y-8330000D02*
X4495000Y-8770000D01*
X4495000Y-8330000D02*
X4055000Y-8770000D01*
X5242500Y-4530000D02*
X5682500Y-4970000D01*
X5682500Y-4530000D02*
X5242500Y-4970000D01*
X5717500Y-6430000D02*
X6157500Y-6870000D01*
X6157500Y-6430000D02*
X5717500Y-6870000D01*
X6430000Y-10230000D02*
X6870000Y-10670000D01*
X6870000Y-10230000D02*
X6430000Y-10670000D01*
X6667500Y-8330000D02*
X7107500Y-8770000D01*
X7107500Y-8330000D02*
X6667500Y-8770000D01*
X7142500Y-4530000D02*
X7582500Y-4970000D01*
X7582500Y-4530000D02*
X7142500Y-4970000D01*
X7617500Y-6430000D02*
X8057500Y-6870000D01*
X8057500Y-6430000D02*
X7617500Y-6870000D01*
X8567500Y-8330000D02*
X9007500Y-8770000D01*
X9007500Y-8330000D02*
X8567500Y-8770000D01*
X9042500Y-4530000D02*
X9482500Y-4970000D01*
X9482500Y-4530000D02*
X9042500Y-4970000D01*
X9517500Y-6430000D02*
X9957500Y-6870000D01*
X9957500Y-6430000D02*
X9517500Y-6870000D01*
X10467500Y-8330000D02*
X10907500Y-8770000D01*
X10907500Y-8330000D02*
X10467500Y-8770000D01*
X10942500Y-4530000D02*
X11382500Y-4970000D01*
X11382500Y-4530000D02*
X10942500Y-4970000D01*
X11417500Y-6430000D02*
X11857500Y-6870000D01*
X11857500Y-6430000D02*
X11417500Y-6870000D01*
X12367500Y-8330000D02*
X12807500Y-8770000D01*
X12807500Y-8330000D02*
X12367500Y-8770000D01*
X12842500Y-4530000D02*
X13282500Y-4970000D01*
X13282500Y-4530000D02*
X12842500Y-4970000D01*
X13317500Y-6430000D02*
X13757500Y-6870000D01*
X13757500Y-6430000D02*
X13317500Y-6870000D01*
X14016875Y-10230000D02*
X14456875Y-10670000D01*
X14456875Y-10230000D02*
X14016875Y-10670000D01*
X14267500Y-8330000D02*
X14707500Y-8770000D01*
X14707500Y-8330000D02*
X14267500Y-8770000D01*
X14742500Y-4530000D02*
X15182500Y-4970000D01*
X15182500Y-4530000D02*
X14742500Y-4970000D01*
X15217500Y-6430000D02*
X15657500Y-6870000D01*
X15657500Y-6430000D02*
X15217500Y-6870000D01*
X16167500Y-8330000D02*
X16607500Y-8770000D01*
X16607500Y-8330000D02*
X16167500Y-8770000D01*
X16642500Y-4530000D02*
X17082500Y-4970000D01*
X17082500Y-4530000D02*
X16642500Y-4970000D01*
X17117500Y-6430000D02*
X17557500Y-6870000D01*
X17557500Y-6430000D02*
X17117500Y-6870000D01*
X18067500Y-8330000D02*
X18507500Y-8770000D01*
X18507500Y-8330000D02*
X18067500Y-8770000D01*
X18542500Y-4530000D02*
X18982500Y-4970000D01*
X18982500Y-4530000D02*
X18542500Y-4970000D01*
X19017500Y-6430000D02*
X19457500Y-6870000D01*
X19457500Y-6430000D02*
X19017500Y-6870000D01*
X20442500Y-4530000D02*
X20882500Y-4970000D01*
X20882500Y-4530000D02*
X20442500Y-4970000D01*
X20442500Y-8330000D02*
X20882500Y-8770000D01*
X20882500Y-8330000D02*
X20442500Y-8770000D01*
X20917500Y-6430000D02*
X21357500Y-6870000D01*
X21357500Y-6430000D02*
X20917500Y-6870000D01*
X20917500Y-10230000D02*
X21357500Y-10670000D01*
X21357500Y-10230000D02*
X20917500Y-10670000D01*
X22342500Y-4530000D02*
X22782500Y-4970000D01*
X22782500Y-4530000D02*
X22342500Y-4970000D01*
X22817500Y-6430000D02*
X23257500Y-6870000D01*
X23257500Y-6430000D02*
X22817500Y-6870000D01*
X22817500Y-8330000D02*
X23257500Y-8770000D01*
X23257500Y-8330000D02*
X22817500Y-8770000D01*
X22817500Y-10230000D02*
X23257500Y-10670000D01*
X23257500Y-10230000D02*
X22817500Y-10670000D01*
X24480000Y-4530000D02*
X24920000Y-4970000D01*
X24920000Y-4530000D02*
X24480000Y-4970000D01*
X24717500Y-7380000D02*
X25157500Y-7820000D01*
X25157500Y-7380000D02*
X24717500Y-7820000D01*
X24717500Y-10230000D02*
X25157500Y-10670000D01*
X25157500Y-10230000D02*
X24717500Y-10670000D01*
D12*
X2545777Y-11716484D02*
X2545777Y-11516484D01*
X2545777Y-11516484D02*
X2593396Y-11516484D01*
X2593396Y-11516484D02*
X2621967Y-11526008D01*
X2621967Y-11526008D02*
X2641015Y-11545055D01*
X2641015Y-11545055D02*
X2650539Y-11564103D01*
X2650539Y-11564103D02*
X2660063Y-11602198D01*
X2660063Y-11602198D02*
X2660063Y-11630769D01*
X2660063Y-11630769D02*
X2650539Y-11668865D01*
X2650539Y-11668865D02*
X2641015Y-11687912D01*
X2641015Y-11687912D02*
X2621967Y-11706960D01*
X2621967Y-11706960D02*
X2593396Y-11716484D01*
X2593396Y-11716484D02*
X2545777Y-11716484D01*
X2745777Y-11716484D02*
X2745777Y-11583150D01*
X2745777Y-11621246D02*
X2755301Y-11602198D01*
X2755301Y-11602198D02*
X2764824Y-11592674D01*
X2764824Y-11592674D02*
X2783872Y-11583150D01*
X2783872Y-11583150D02*
X2802920Y-11583150D01*
X2869586Y-11716484D02*
X2869586Y-11583150D01*
X2869586Y-11516484D02*
X2860062Y-11526008D01*
X2860062Y-11526008D02*
X2869586Y-11535531D01*
X2869586Y-11535531D02*
X2879110Y-11526008D01*
X2879110Y-11526008D02*
X2869586Y-11516484D01*
X2869586Y-11516484D02*
X2869586Y-11535531D01*
X2993396Y-11716484D02*
X2974348Y-11706960D01*
X2974348Y-11706960D02*
X2964824Y-11687912D01*
X2964824Y-11687912D02*
X2964824Y-11516484D01*
X3098158Y-11716484D02*
X3079110Y-11706960D01*
X3079110Y-11706960D02*
X3069586Y-11687912D01*
X3069586Y-11687912D02*
X3069586Y-11516484D01*
X3326729Y-11716484D02*
X3326729Y-11516484D01*
X3326729Y-11516484D02*
X3393396Y-11659341D01*
X3393396Y-11659341D02*
X3460062Y-11516484D01*
X3460062Y-11516484D02*
X3460062Y-11716484D01*
X3641015Y-11716484D02*
X3641015Y-11611722D01*
X3641015Y-11611722D02*
X3631491Y-11592674D01*
X3631491Y-11592674D02*
X3612443Y-11583150D01*
X3612443Y-11583150D02*
X3574348Y-11583150D01*
X3574348Y-11583150D02*
X3555301Y-11592674D01*
X3641015Y-11706960D02*
X3621967Y-11716484D01*
X3621967Y-11716484D02*
X3574348Y-11716484D01*
X3574348Y-11716484D02*
X3555301Y-11706960D01*
X3555301Y-11706960D02*
X3545777Y-11687912D01*
X3545777Y-11687912D02*
X3545777Y-11668865D01*
X3545777Y-11668865D02*
X3555301Y-11649817D01*
X3555301Y-11649817D02*
X3574348Y-11640293D01*
X3574348Y-11640293D02*
X3621967Y-11640293D01*
X3621967Y-11640293D02*
X3641015Y-11630769D01*
X3736253Y-11583150D02*
X3736253Y-11783150D01*
X3736253Y-11592674D02*
X3755301Y-11583150D01*
X3755301Y-11583150D02*
X3793396Y-11583150D01*
X3793396Y-11583150D02*
X3812443Y-11592674D01*
X3812443Y-11592674D02*
X3821967Y-11602198D01*
X3821967Y-11602198D02*
X3831491Y-11621246D01*
X3831491Y-11621246D02*
X3831491Y-11678388D01*
X3831491Y-11678388D02*
X3821967Y-11697436D01*
X3821967Y-11697436D02*
X3812443Y-11706960D01*
X3812443Y-11706960D02*
X3793396Y-11716484D01*
X3793396Y-11716484D02*
X3755301Y-11716484D01*
X3755301Y-11716484D02*
X3736253Y-11706960D01*
X3917205Y-11697436D02*
X3926729Y-11706960D01*
X3926729Y-11706960D02*
X3917205Y-11716484D01*
X3917205Y-11716484D02*
X3907682Y-11706960D01*
X3907682Y-11706960D02*
X3917205Y-11697436D01*
X3917205Y-11697436D02*
X3917205Y-11716484D01*
X3917205Y-11592674D02*
X3926729Y-11602198D01*
X3926729Y-11602198D02*
X3917205Y-11611722D01*
X3917205Y-11611722D02*
X3907682Y-11602198D01*
X3907682Y-11602198D02*
X3917205Y-11592674D01*
X3917205Y-11592674D02*
X3917205Y-11611722D01*
X2085000Y-11945000D02*
X2285000Y-12145000D01*
X2285000Y-11945000D02*
X2085000Y-12145000D01*
X2631491Y-12003150D02*
X2631491Y-12136484D01*
X2583872Y-11926960D02*
X2536253Y-12069817D01*
X2536253Y-12069817D02*
X2660063Y-12069817D01*
X2736253Y-12117436D02*
X2745777Y-12126960D01*
X2745777Y-12126960D02*
X2736253Y-12136484D01*
X2736253Y-12136484D02*
X2726729Y-12126960D01*
X2726729Y-12126960D02*
X2736253Y-12117436D01*
X2736253Y-12117436D02*
X2736253Y-12136484D01*
X2917205Y-12003150D02*
X2917205Y-12136484D01*
X2869586Y-11926960D02*
X2821967Y-12069817D01*
X2821967Y-12069817D02*
X2945777Y-12069817D01*
X3060062Y-11936484D02*
X3079110Y-11936484D01*
X3079110Y-11936484D02*
X3098158Y-11946008D01*
X3098158Y-11946008D02*
X3107682Y-11955531D01*
X3107682Y-11955531D02*
X3117205Y-11974579D01*
X3117205Y-11974579D02*
X3126729Y-12012674D01*
X3126729Y-12012674D02*
X3126729Y-12060293D01*
X3126729Y-12060293D02*
X3117205Y-12098388D01*
X3117205Y-12098388D02*
X3107682Y-12117436D01*
X3107682Y-12117436D02*
X3098158Y-12126960D01*
X3098158Y-12126960D02*
X3079110Y-12136484D01*
X3079110Y-12136484D02*
X3060062Y-12136484D01*
X3060062Y-12136484D02*
X3041015Y-12126960D01*
X3041015Y-12126960D02*
X3031491Y-12117436D01*
X3031491Y-12117436D02*
X3021967Y-12098388D01*
X3021967Y-12098388D02*
X3012443Y-12060293D01*
X3012443Y-12060293D02*
X3012443Y-12012674D01*
X3012443Y-12012674D02*
X3021967Y-11974579D01*
X3021967Y-11974579D02*
X3031491Y-11955531D01*
X3031491Y-11955531D02*
X3041015Y-11946008D01*
X3041015Y-11946008D02*
X3060062Y-11936484D01*
X3250539Y-11936484D02*
X3269586Y-11936484D01*
X3269586Y-11936484D02*
X3288634Y-11946008D01*
X3288634Y-11946008D02*
X3298158Y-11955531D01*
X3298158Y-11955531D02*
X3307682Y-11974579D01*
X3307682Y-11974579D02*
X3317205Y-12012674D01*
X3317205Y-12012674D02*
X3317205Y-12060293D01*
X3317205Y-12060293D02*
X3307682Y-12098388D01*
X3307682Y-12098388D02*
X3298158Y-12117436D01*
X3298158Y-12117436D02*
X3288634Y-12126960D01*
X3288634Y-12126960D02*
X3269586Y-12136484D01*
X3269586Y-12136484D02*
X3250539Y-12136484D01*
X3250539Y-12136484D02*
X3231491Y-12126960D01*
X3231491Y-12126960D02*
X3221967Y-12117436D01*
X3221967Y-12117436D02*
X3212443Y-12098388D01*
X3212443Y-12098388D02*
X3202920Y-12060293D01*
X3202920Y-12060293D02*
X3202920Y-12012674D01*
X3202920Y-12012674D02*
X3212443Y-11974579D01*
X3212443Y-11974579D02*
X3221967Y-11955531D01*
X3221967Y-11955531D02*
X3231491Y-11946008D01*
X3231491Y-11946008D02*
X3250539Y-11936484D01*
X3402920Y-12136484D02*
X3402920Y-12003150D01*
X3402920Y-12022198D02*
X3412443Y-12012674D01*
X3412443Y-12012674D02*
X3431491Y-12003150D01*
X3431491Y-12003150D02*
X3460063Y-12003150D01*
X3460063Y-12003150D02*
X3479110Y-12012674D01*
X3479110Y-12012674D02*
X3488634Y-12031722D01*
X3488634Y-12031722D02*
X3488634Y-12136484D01*
X3488634Y-12031722D02*
X3498158Y-12012674D01*
X3498158Y-12012674D02*
X3517205Y-12003150D01*
X3517205Y-12003150D02*
X3545777Y-12003150D01*
X3545777Y-12003150D02*
X3564824Y-12012674D01*
X3564824Y-12012674D02*
X3574348Y-12031722D01*
X3574348Y-12031722D02*
X3574348Y-12136484D01*
X3669586Y-12136484D02*
X3669586Y-12003150D01*
X3669586Y-12022198D02*
X3679110Y-12012674D01*
X3679110Y-12012674D02*
X3698158Y-12003150D01*
X3698158Y-12003150D02*
X3726729Y-12003150D01*
X3726729Y-12003150D02*
X3745777Y-12012674D01*
X3745777Y-12012674D02*
X3755301Y-12031722D01*
X3755301Y-12031722D02*
X3755301Y-12136484D01*
X3755301Y-12031722D02*
X3764824Y-12012674D01*
X3764824Y-12012674D02*
X3783872Y-12003150D01*
X3783872Y-12003150D02*
X3812443Y-12003150D01*
X3812443Y-12003150D02*
X3831491Y-12012674D01*
X3831491Y-12012674D02*
X3841015Y-12031722D01*
X3841015Y-12031722D02*
X3841015Y-12136484D01*
X4231491Y-11926960D02*
X4060063Y-12184103D01*
X4488634Y-11936484D02*
X4507682Y-11936484D01*
X4507682Y-11936484D02*
X4526729Y-11946008D01*
X4526729Y-11946008D02*
X4536253Y-11955531D01*
X4536253Y-11955531D02*
X4545777Y-11974579D01*
X4545777Y-11974579D02*
X4555301Y-12012674D01*
X4555301Y-12012674D02*
X4555301Y-12060293D01*
X4555301Y-12060293D02*
X4545777Y-12098388D01*
X4545777Y-12098388D02*
X4536253Y-12117436D01*
X4536253Y-12117436D02*
X4526729Y-12126960D01*
X4526729Y-12126960D02*
X4507682Y-12136484D01*
X4507682Y-12136484D02*
X4488634Y-12136484D01*
X4488634Y-12136484D02*
X4469587Y-12126960D01*
X4469587Y-12126960D02*
X4460063Y-12117436D01*
X4460063Y-12117436D02*
X4450539Y-12098388D01*
X4450539Y-12098388D02*
X4441015Y-12060293D01*
X4441015Y-12060293D02*
X4441015Y-12012674D01*
X4441015Y-12012674D02*
X4450539Y-11974579D01*
X4450539Y-11974579D02*
X4460063Y-11955531D01*
X4460063Y-11955531D02*
X4469587Y-11946008D01*
X4469587Y-11946008D02*
X4488634Y-11936484D01*
X4641015Y-12117436D02*
X4650539Y-12126960D01*
X4650539Y-12126960D02*
X4641015Y-12136484D01*
X4641015Y-12136484D02*
X4631491Y-12126960D01*
X4631491Y-12126960D02*
X4641015Y-12117436D01*
X4641015Y-12117436D02*
X4641015Y-12136484D01*
X4841015Y-12136484D02*
X4726729Y-12136484D01*
X4783872Y-12136484D02*
X4783872Y-11936484D01*
X4783872Y-11936484D02*
X4764825Y-11965055D01*
X4764825Y-11965055D02*
X4745777Y-11984103D01*
X4745777Y-11984103D02*
X4726729Y-11993627D01*
X4907682Y-11936484D02*
X5041015Y-11936484D01*
X5041015Y-11936484D02*
X4955301Y-12136484D01*
X5098158Y-11936484D02*
X5221968Y-11936484D01*
X5221968Y-11936484D02*
X5155301Y-12012674D01*
X5155301Y-12012674D02*
X5183872Y-12012674D01*
X5183872Y-12012674D02*
X5202920Y-12022198D01*
X5202920Y-12022198D02*
X5212444Y-12031722D01*
X5212444Y-12031722D02*
X5221968Y-12050769D01*
X5221968Y-12050769D02*
X5221968Y-12098388D01*
X5221968Y-12098388D02*
X5212444Y-12117436D01*
X5212444Y-12117436D02*
X5202920Y-12126960D01*
X5202920Y-12126960D02*
X5183872Y-12136484D01*
X5183872Y-12136484D02*
X5126729Y-12136484D01*
X5126729Y-12136484D02*
X5107682Y-12126960D01*
X5107682Y-12126960D02*
X5098158Y-12117436D01*
X5298158Y-11955531D02*
X5307682Y-11946008D01*
X5307682Y-11946008D02*
X5326729Y-11936484D01*
X5326729Y-11936484D02*
X5374349Y-11936484D01*
X5374349Y-11936484D02*
X5393396Y-11946008D01*
X5393396Y-11946008D02*
X5402920Y-11955531D01*
X5402920Y-11955531D02*
X5412444Y-11974579D01*
X5412444Y-11974579D02*
X5412444Y-11993627D01*
X5412444Y-11993627D02*
X5402920Y-12022198D01*
X5402920Y-12022198D02*
X5288634Y-12136484D01*
X5288634Y-12136484D02*
X5412444Y-12136484D01*
X5488634Y-11936484D02*
X5488634Y-11974579D01*
X5564825Y-11936484D02*
X5564825Y-11974579D01*
X5860063Y-12212674D02*
X5850539Y-12203150D01*
X5850539Y-12203150D02*
X5831491Y-12174579D01*
X5831491Y-12174579D02*
X5821968Y-12155531D01*
X5821968Y-12155531D02*
X5812444Y-12126960D01*
X5812444Y-12126960D02*
X5802920Y-12079341D01*
X5802920Y-12079341D02*
X5802920Y-12041246D01*
X5802920Y-12041246D02*
X5812444Y-11993627D01*
X5812444Y-11993627D02*
X5821968Y-11965055D01*
X5821968Y-11965055D02*
X5831491Y-11946008D01*
X5831491Y-11946008D02*
X5850539Y-11917436D01*
X5850539Y-11917436D02*
X5860063Y-11907912D01*
X6021968Y-12003150D02*
X6021968Y-12136484D01*
X5974348Y-11926960D02*
X5926729Y-12069817D01*
X5926729Y-12069817D02*
X6050539Y-12069817D01*
X6164825Y-11936484D02*
X6183872Y-11936484D01*
X6183872Y-11936484D02*
X6202920Y-11946008D01*
X6202920Y-11946008D02*
X6212444Y-11955531D01*
X6212444Y-11955531D02*
X6221968Y-11974579D01*
X6221968Y-11974579D02*
X6231491Y-12012674D01*
X6231491Y-12012674D02*
X6231491Y-12060293D01*
X6231491Y-12060293D02*
X6221968Y-12098388D01*
X6221968Y-12098388D02*
X6212444Y-12117436D01*
X6212444Y-12117436D02*
X6202920Y-12126960D01*
X6202920Y-12126960D02*
X6183872Y-12136484D01*
X6183872Y-12136484D02*
X6164825Y-12136484D01*
X6164825Y-12136484D02*
X6145777Y-12126960D01*
X6145777Y-12126960D02*
X6136253Y-12117436D01*
X6136253Y-12117436D02*
X6126729Y-12098388D01*
X6126729Y-12098388D02*
X6117206Y-12060293D01*
X6117206Y-12060293D02*
X6117206Y-12012674D01*
X6117206Y-12012674D02*
X6126729Y-11974579D01*
X6126729Y-11974579D02*
X6136253Y-11955531D01*
X6136253Y-11955531D02*
X6145777Y-11946008D01*
X6145777Y-11946008D02*
X6164825Y-11936484D01*
X6469587Y-12136484D02*
X6469587Y-11936484D01*
X6555301Y-12136484D02*
X6555301Y-12031722D01*
X6555301Y-12031722D02*
X6545777Y-12012674D01*
X6545777Y-12012674D02*
X6526730Y-12003150D01*
X6526730Y-12003150D02*
X6498158Y-12003150D01*
X6498158Y-12003150D02*
X6479110Y-12012674D01*
X6479110Y-12012674D02*
X6469587Y-12022198D01*
X6679110Y-12136484D02*
X6660063Y-12126960D01*
X6660063Y-12126960D02*
X6650539Y-12117436D01*
X6650539Y-12117436D02*
X6641015Y-12098388D01*
X6641015Y-12098388D02*
X6641015Y-12041246D01*
X6641015Y-12041246D02*
X6650539Y-12022198D01*
X6650539Y-12022198D02*
X6660063Y-12012674D01*
X6660063Y-12012674D02*
X6679110Y-12003150D01*
X6679110Y-12003150D02*
X6707682Y-12003150D01*
X6707682Y-12003150D02*
X6726730Y-12012674D01*
X6726730Y-12012674D02*
X6736253Y-12022198D01*
X6736253Y-12022198D02*
X6745777Y-12041246D01*
X6745777Y-12041246D02*
X6745777Y-12098388D01*
X6745777Y-12098388D02*
X6736253Y-12117436D01*
X6736253Y-12117436D02*
X6726730Y-12126960D01*
X6726730Y-12126960D02*
X6707682Y-12136484D01*
X6707682Y-12136484D02*
X6679110Y-12136484D01*
X6860063Y-12136484D02*
X6841015Y-12126960D01*
X6841015Y-12126960D02*
X6831491Y-12107912D01*
X6831491Y-12107912D02*
X6831491Y-11936484D01*
X7012444Y-12126960D02*
X6993396Y-12136484D01*
X6993396Y-12136484D02*
X6955301Y-12136484D01*
X6955301Y-12136484D02*
X6936253Y-12126960D01*
X6936253Y-12126960D02*
X6926730Y-12107912D01*
X6926730Y-12107912D02*
X6926730Y-12031722D01*
X6926730Y-12031722D02*
X6936253Y-12012674D01*
X6936253Y-12012674D02*
X6955301Y-12003150D01*
X6955301Y-12003150D02*
X6993396Y-12003150D01*
X6993396Y-12003150D02*
X7012444Y-12012674D01*
X7012444Y-12012674D02*
X7021968Y-12031722D01*
X7021968Y-12031722D02*
X7021968Y-12050769D01*
X7021968Y-12050769D02*
X6926730Y-12069817D01*
X7098158Y-12126960D02*
X7117206Y-12136484D01*
X7117206Y-12136484D02*
X7155301Y-12136484D01*
X7155301Y-12136484D02*
X7174349Y-12126960D01*
X7174349Y-12126960D02*
X7183872Y-12107912D01*
X7183872Y-12107912D02*
X7183872Y-12098388D01*
X7183872Y-12098388D02*
X7174349Y-12079341D01*
X7174349Y-12079341D02*
X7155301Y-12069817D01*
X7155301Y-12069817D02*
X7126730Y-12069817D01*
X7126730Y-12069817D02*
X7107682Y-12060293D01*
X7107682Y-12060293D02*
X7098158Y-12041246D01*
X7098158Y-12041246D02*
X7098158Y-12031722D01*
X7098158Y-12031722D02*
X7107682Y-12012674D01*
X7107682Y-12012674D02*
X7126730Y-12003150D01*
X7126730Y-12003150D02*
X7155301Y-12003150D01*
X7155301Y-12003150D02*
X7174349Y-12012674D01*
X7250539Y-12212674D02*
X7260063Y-12203150D01*
X7260063Y-12203150D02*
X7279111Y-12174579D01*
X7279111Y-12174579D02*
X7288634Y-12155531D01*
X7288634Y-12155531D02*
X7298158Y-12126960D01*
X7298158Y-12126960D02*
X7307682Y-12079341D01*
X7307682Y-12079341D02*
X7307682Y-12041246D01*
X7307682Y-12041246D02*
X7298158Y-11993627D01*
X7298158Y-11993627D02*
X7288634Y-11965055D01*
X7288634Y-11965055D02*
X7279111Y-11946008D01*
X7279111Y-11946008D02*
X7260063Y-11917436D01*
X7260063Y-11917436D02*
X7250539Y-11907912D01*
X7612444Y-12212674D02*
X7602920Y-12203150D01*
X7602920Y-12203150D02*
X7583872Y-12174579D01*
X7583872Y-12174579D02*
X7574349Y-12155531D01*
X7574349Y-12155531D02*
X7564825Y-12126960D01*
X7564825Y-12126960D02*
X7555301Y-12079341D01*
X7555301Y-12079341D02*
X7555301Y-12041246D01*
X7555301Y-12041246D02*
X7564825Y-11993627D01*
X7564825Y-11993627D02*
X7574349Y-11965055D01*
X7574349Y-11965055D02*
X7583872Y-11946008D01*
X7583872Y-11946008D02*
X7602920Y-11917436D01*
X7602920Y-11917436D02*
X7612444Y-11907912D01*
X7688634Y-12003150D02*
X7688634Y-12136484D01*
X7688634Y-12022198D02*
X7698158Y-12012674D01*
X7698158Y-12012674D02*
X7717206Y-12003150D01*
X7717206Y-12003150D02*
X7745777Y-12003150D01*
X7745777Y-12003150D02*
X7764825Y-12012674D01*
X7764825Y-12012674D02*
X7774349Y-12031722D01*
X7774349Y-12031722D02*
X7774349Y-12136484D01*
X7898158Y-12136484D02*
X7879111Y-12126960D01*
X7879111Y-12126960D02*
X7869587Y-12117436D01*
X7869587Y-12117436D02*
X7860063Y-12098388D01*
X7860063Y-12098388D02*
X7860063Y-12041246D01*
X7860063Y-12041246D02*
X7869587Y-12022198D01*
X7869587Y-12022198D02*
X7879111Y-12012674D01*
X7879111Y-12012674D02*
X7898158Y-12003150D01*
X7898158Y-12003150D02*
X7926730Y-12003150D01*
X7926730Y-12003150D02*
X7945777Y-12012674D01*
X7945777Y-12012674D02*
X7955301Y-12022198D01*
X7955301Y-12022198D02*
X7964825Y-12041246D01*
X7964825Y-12041246D02*
X7964825Y-12098388D01*
X7964825Y-12098388D02*
X7955301Y-12117436D01*
X7955301Y-12117436D02*
X7945777Y-12126960D01*
X7945777Y-12126960D02*
X7926730Y-12136484D01*
X7926730Y-12136484D02*
X7898158Y-12136484D01*
X8021968Y-12003150D02*
X8098158Y-12003150D01*
X8050539Y-11936484D02*
X8050539Y-12107912D01*
X8050539Y-12107912D02*
X8060063Y-12126960D01*
X8060063Y-12126960D02*
X8079111Y-12136484D01*
X8079111Y-12136484D02*
X8098158Y-12136484D01*
X8317206Y-12003150D02*
X8317206Y-12203150D01*
X8317206Y-12012674D02*
X8336253Y-12003150D01*
X8336253Y-12003150D02*
X8374349Y-12003150D01*
X8374349Y-12003150D02*
X8393396Y-12012674D01*
X8393396Y-12012674D02*
X8402920Y-12022198D01*
X8402920Y-12022198D02*
X8412444Y-12041246D01*
X8412444Y-12041246D02*
X8412444Y-12098388D01*
X8412444Y-12098388D02*
X8402920Y-12117436D01*
X8402920Y-12117436D02*
X8393396Y-12126960D01*
X8393396Y-12126960D02*
X8374349Y-12136484D01*
X8374349Y-12136484D02*
X8336253Y-12136484D01*
X8336253Y-12136484D02*
X8317206Y-12126960D01*
X8526730Y-12136484D02*
X8507682Y-12126960D01*
X8507682Y-12126960D02*
X8498158Y-12107912D01*
X8498158Y-12107912D02*
X8498158Y-11936484D01*
X8688635Y-12136484D02*
X8688635Y-12031722D01*
X8688635Y-12031722D02*
X8679111Y-12012674D01*
X8679111Y-12012674D02*
X8660063Y-12003150D01*
X8660063Y-12003150D02*
X8621968Y-12003150D01*
X8621968Y-12003150D02*
X8602920Y-12012674D01*
X8688635Y-12126960D02*
X8669587Y-12136484D01*
X8669587Y-12136484D02*
X8621968Y-12136484D01*
X8621968Y-12136484D02*
X8602920Y-12126960D01*
X8602920Y-12126960D02*
X8593396Y-12107912D01*
X8593396Y-12107912D02*
X8593396Y-12088865D01*
X8593396Y-12088865D02*
X8602920Y-12069817D01*
X8602920Y-12069817D02*
X8621968Y-12060293D01*
X8621968Y-12060293D02*
X8669587Y-12060293D01*
X8669587Y-12060293D02*
X8688635Y-12050769D01*
X8755301Y-12003150D02*
X8831492Y-12003150D01*
X8783873Y-11936484D02*
X8783873Y-12107912D01*
X8783873Y-12107912D02*
X8793396Y-12126960D01*
X8793396Y-12126960D02*
X8812444Y-12136484D01*
X8812444Y-12136484D02*
X8831492Y-12136484D01*
X8974349Y-12126960D02*
X8955301Y-12136484D01*
X8955301Y-12136484D02*
X8917206Y-12136484D01*
X8917206Y-12136484D02*
X8898158Y-12126960D01*
X8898158Y-12126960D02*
X8888635Y-12107912D01*
X8888635Y-12107912D02*
X8888635Y-12031722D01*
X8888635Y-12031722D02*
X8898158Y-12012674D01*
X8898158Y-12012674D02*
X8917206Y-12003150D01*
X8917206Y-12003150D02*
X8955301Y-12003150D01*
X8955301Y-12003150D02*
X8974349Y-12012674D01*
X8974349Y-12012674D02*
X8983873Y-12031722D01*
X8983873Y-12031722D02*
X8983873Y-12050769D01*
X8983873Y-12050769D02*
X8888635Y-12069817D01*
X9155301Y-12136484D02*
X9155301Y-11936484D01*
X9155301Y-12126960D02*
X9136254Y-12136484D01*
X9136254Y-12136484D02*
X9098158Y-12136484D01*
X9098158Y-12136484D02*
X9079111Y-12126960D01*
X9079111Y-12126960D02*
X9069587Y-12117436D01*
X9069587Y-12117436D02*
X9060063Y-12098388D01*
X9060063Y-12098388D02*
X9060063Y-12041246D01*
X9060063Y-12041246D02*
X9069587Y-12022198D01*
X9069587Y-12022198D02*
X9079111Y-12012674D01*
X9079111Y-12012674D02*
X9098158Y-12003150D01*
X9098158Y-12003150D02*
X9136254Y-12003150D01*
X9136254Y-12003150D02*
X9155301Y-12012674D01*
X9231492Y-12212674D02*
X9241016Y-12203150D01*
X9241016Y-12203150D02*
X9260063Y-12174579D01*
X9260063Y-12174579D02*
X9269587Y-12155531D01*
X9269587Y-12155531D02*
X9279111Y-12126960D01*
X9279111Y-12126960D02*
X9288635Y-12079341D01*
X9288635Y-12079341D02*
X9288635Y-12041246D01*
X9288635Y-12041246D02*
X9279111Y-11993627D01*
X9279111Y-11993627D02*
X9269587Y-11965055D01*
X9269587Y-11965055D02*
X9260063Y-11946008D01*
X9260063Y-11946008D02*
X9241016Y-11917436D01*
X9241016Y-11917436D02*
X9231492Y-11907912D01*
M02*
