%TF.GenerationSoftware,KiCad,Pcbnew,8.0.2*%
%TF.CreationDate,2024-05-31T09:53:13+01:00*%
%TF.ProjectId,keyboard,6b657962-6f61-4726-942e-6b696361645f,rev?*%
%TF.SameCoordinates,Original*%
%TF.FileFunction,Legend,Top*%
%TF.FilePolarity,Positive*%
%FSLAX46Y46*%
G04 Gerber Fmt 4.6, Leading zero omitted, Abs format (unit mm)*
G04 Created by KiCad (PCBNEW 8.0.2) date 2024-05-31 09:53:13*
%MOMM*%
%LPD*%
G01*
G04 APERTURE LIST*
%ADD10C,0.200000*%
%ADD11C,0.120000*%
%ADD12C,0.400000*%
%ADD13C,4.400000*%
%ADD14R,1.600000X1.600000*%
%ADD15O,1.600000X1.600000*%
%ADD16R,1.700000X1.700000*%
%ADD17O,1.700000X1.700000*%
G04 APERTURE END LIST*
D10*
X89530387Y-58585559D02*
X88958959Y-58585559D01*
X89244673Y-58585559D02*
X89244673Y-57585559D01*
X89244673Y-57585559D02*
X89149435Y-57728416D01*
X89149435Y-57728416D02*
X89054197Y-57823654D01*
X89054197Y-57823654D02*
X88958959Y-57871273D01*
X89958959Y-57585559D02*
X89958959Y-58395082D01*
X89958959Y-58395082D02*
X90006578Y-58490320D01*
X90006578Y-58490320D02*
X90054197Y-58537940D01*
X90054197Y-58537940D02*
X90149435Y-58585559D01*
X90149435Y-58585559D02*
X90339911Y-58585559D01*
X90339911Y-58585559D02*
X90435149Y-58537940D01*
X90435149Y-58537940D02*
X90482768Y-58490320D01*
X90482768Y-58490320D02*
X90530387Y-58395082D01*
X90530387Y-58395082D02*
X90530387Y-57585559D01*
X137030387Y-77585559D02*
X136458959Y-77585559D01*
X136744673Y-77585559D02*
X136744673Y-76585559D01*
X136744673Y-76585559D02*
X136649435Y-76728416D01*
X136649435Y-76728416D02*
X136554197Y-76823654D01*
X136554197Y-76823654D02*
X136458959Y-76871273D01*
X137458959Y-76585559D02*
X137458959Y-77395082D01*
X137458959Y-77395082D02*
X137506578Y-77490320D01*
X137506578Y-77490320D02*
X137554197Y-77537940D01*
X137554197Y-77537940D02*
X137649435Y-77585559D01*
X137649435Y-77585559D02*
X137839911Y-77585559D01*
X137839911Y-77585559D02*
X137935149Y-77537940D01*
X137935149Y-77537940D02*
X137982768Y-77490320D01*
X137982768Y-77490320D02*
X138030387Y-77395082D01*
X138030387Y-77395082D02*
X138030387Y-76585559D01*
X27780387Y-77585559D02*
X27208959Y-77585559D01*
X27494673Y-77585559D02*
X27494673Y-76585559D01*
X27494673Y-76585559D02*
X27399435Y-76728416D01*
X27399435Y-76728416D02*
X27304197Y-76823654D01*
X27304197Y-76823654D02*
X27208959Y-76871273D01*
X28208959Y-77490320D02*
X28256578Y-77537940D01*
X28256578Y-77537940D02*
X28208959Y-77585559D01*
X28208959Y-77585559D02*
X28161340Y-77537940D01*
X28161340Y-77537940D02*
X28208959Y-77490320D01*
X28208959Y-77490320D02*
X28208959Y-77585559D01*
X28589911Y-76585559D02*
X29256577Y-76585559D01*
X29256577Y-76585559D02*
X28828006Y-77585559D01*
X30113720Y-76585559D02*
X29637530Y-76585559D01*
X29637530Y-76585559D02*
X29589911Y-77061749D01*
X29589911Y-77061749D02*
X29637530Y-77014130D01*
X29637530Y-77014130D02*
X29732768Y-76966511D01*
X29732768Y-76966511D02*
X29970863Y-76966511D01*
X29970863Y-76966511D02*
X30066101Y-77014130D01*
X30066101Y-77014130D02*
X30113720Y-77061749D01*
X30113720Y-77061749D02*
X30161339Y-77156987D01*
X30161339Y-77156987D02*
X30161339Y-77395082D01*
X30161339Y-77395082D02*
X30113720Y-77490320D01*
X30113720Y-77490320D02*
X30066101Y-77537940D01*
X30066101Y-77537940D02*
X29970863Y-77585559D01*
X29970863Y-77585559D02*
X29732768Y-77585559D01*
X29732768Y-77585559D02*
X29637530Y-77537940D01*
X29637530Y-77537940D02*
X29589911Y-77490320D01*
X30589911Y-76585559D02*
X30589911Y-77395082D01*
X30589911Y-77395082D02*
X30637530Y-77490320D01*
X30637530Y-77490320D02*
X30685149Y-77537940D01*
X30685149Y-77537940D02*
X30780387Y-77585559D01*
X30780387Y-77585559D02*
X30970863Y-77585559D01*
X30970863Y-77585559D02*
X31066101Y-77537940D01*
X31066101Y-77537940D02*
X31113720Y-77490320D01*
X31113720Y-77490320D02*
X31161339Y-77395082D01*
X31161339Y-77395082D02*
X31161339Y-76585559D01*
X27780387Y-58585559D02*
X27208959Y-58585559D01*
X27494673Y-58585559D02*
X27494673Y-57585559D01*
X27494673Y-57585559D02*
X27399435Y-57728416D01*
X27399435Y-57728416D02*
X27304197Y-57823654D01*
X27304197Y-57823654D02*
X27208959Y-57871273D01*
X28208959Y-58490320D02*
X28256578Y-58537940D01*
X28256578Y-58537940D02*
X28208959Y-58585559D01*
X28208959Y-58585559D02*
X28161340Y-58537940D01*
X28161340Y-58537940D02*
X28208959Y-58490320D01*
X28208959Y-58490320D02*
X28208959Y-58585559D01*
X28637530Y-57680797D02*
X28685149Y-57633178D01*
X28685149Y-57633178D02*
X28780387Y-57585559D01*
X28780387Y-57585559D02*
X29018482Y-57585559D01*
X29018482Y-57585559D02*
X29113720Y-57633178D01*
X29113720Y-57633178D02*
X29161339Y-57680797D01*
X29161339Y-57680797D02*
X29208958Y-57776035D01*
X29208958Y-57776035D02*
X29208958Y-57871273D01*
X29208958Y-57871273D02*
X29161339Y-58014130D01*
X29161339Y-58014130D02*
X28589911Y-58585559D01*
X28589911Y-58585559D02*
X29208958Y-58585559D01*
X30113720Y-57585559D02*
X29637530Y-57585559D01*
X29637530Y-57585559D02*
X29589911Y-58061749D01*
X29589911Y-58061749D02*
X29637530Y-58014130D01*
X29637530Y-58014130D02*
X29732768Y-57966511D01*
X29732768Y-57966511D02*
X29970863Y-57966511D01*
X29970863Y-57966511D02*
X30066101Y-58014130D01*
X30066101Y-58014130D02*
X30113720Y-58061749D01*
X30113720Y-58061749D02*
X30161339Y-58156987D01*
X30161339Y-58156987D02*
X30161339Y-58395082D01*
X30161339Y-58395082D02*
X30113720Y-58490320D01*
X30113720Y-58490320D02*
X30066101Y-58537940D01*
X30066101Y-58537940D02*
X29970863Y-58585559D01*
X29970863Y-58585559D02*
X29732768Y-58585559D01*
X29732768Y-58585559D02*
X29637530Y-58537940D01*
X29637530Y-58537940D02*
X29589911Y-58490320D01*
X30589911Y-57585559D02*
X30589911Y-58395082D01*
X30589911Y-58395082D02*
X30637530Y-58490320D01*
X30637530Y-58490320D02*
X30685149Y-58537940D01*
X30685149Y-58537940D02*
X30780387Y-58585559D01*
X30780387Y-58585559D02*
X30970863Y-58585559D01*
X30970863Y-58585559D02*
X31066101Y-58537940D01*
X31066101Y-58537940D02*
X31113720Y-58490320D01*
X31113720Y-58490320D02*
X31161339Y-58395082D01*
X31161339Y-58395082D02*
X31161339Y-57585559D01*
X184530387Y-58585559D02*
X183958959Y-58585559D01*
X184244673Y-58585559D02*
X184244673Y-57585559D01*
X184244673Y-57585559D02*
X184149435Y-57728416D01*
X184149435Y-57728416D02*
X184054197Y-57823654D01*
X184054197Y-57823654D02*
X183958959Y-57871273D01*
X184958959Y-57585559D02*
X184958959Y-58395082D01*
X184958959Y-58395082D02*
X185006578Y-58490320D01*
X185006578Y-58490320D02*
X185054197Y-58537940D01*
X185054197Y-58537940D02*
X185149435Y-58585559D01*
X185149435Y-58585559D02*
X185339911Y-58585559D01*
X185339911Y-58585559D02*
X185435149Y-58537940D01*
X185435149Y-58537940D02*
X185482768Y-58490320D01*
X185482768Y-58490320D02*
X185530387Y-58395082D01*
X185530387Y-58395082D02*
X185530387Y-57585559D01*
X222530387Y-77585559D02*
X221958959Y-77585559D01*
X222244673Y-77585559D02*
X222244673Y-76585559D01*
X222244673Y-76585559D02*
X222149435Y-76728416D01*
X222149435Y-76728416D02*
X222054197Y-76823654D01*
X222054197Y-76823654D02*
X221958959Y-76871273D01*
X222958959Y-76585559D02*
X222958959Y-77395082D01*
X222958959Y-77395082D02*
X223006578Y-77490320D01*
X223006578Y-77490320D02*
X223054197Y-77537940D01*
X223054197Y-77537940D02*
X223149435Y-77585559D01*
X223149435Y-77585559D02*
X223339911Y-77585559D01*
X223339911Y-77585559D02*
X223435149Y-77537940D01*
X223435149Y-77537940D02*
X223482768Y-77490320D01*
X223482768Y-77490320D02*
X223530387Y-77395082D01*
X223530387Y-77395082D02*
X223530387Y-76585559D01*
X118030387Y-77585559D02*
X117458959Y-77585559D01*
X117744673Y-77585559D02*
X117744673Y-76585559D01*
X117744673Y-76585559D02*
X117649435Y-76728416D01*
X117649435Y-76728416D02*
X117554197Y-76823654D01*
X117554197Y-76823654D02*
X117458959Y-76871273D01*
X118458959Y-76585559D02*
X118458959Y-77395082D01*
X118458959Y-77395082D02*
X118506578Y-77490320D01*
X118506578Y-77490320D02*
X118554197Y-77537940D01*
X118554197Y-77537940D02*
X118649435Y-77585559D01*
X118649435Y-77585559D02*
X118839911Y-77585559D01*
X118839911Y-77585559D02*
X118935149Y-77537940D01*
X118935149Y-77537940D02*
X118982768Y-77490320D01*
X118982768Y-77490320D02*
X119030387Y-77395082D01*
X119030387Y-77395082D02*
X119030387Y-76585559D01*
X108530387Y-58585559D02*
X107958959Y-58585559D01*
X108244673Y-58585559D02*
X108244673Y-57585559D01*
X108244673Y-57585559D02*
X108149435Y-57728416D01*
X108149435Y-57728416D02*
X108054197Y-57823654D01*
X108054197Y-57823654D02*
X107958959Y-57871273D01*
X108958959Y-57585559D02*
X108958959Y-58395082D01*
X108958959Y-58395082D02*
X109006578Y-58490320D01*
X109006578Y-58490320D02*
X109054197Y-58537940D01*
X109054197Y-58537940D02*
X109149435Y-58585559D01*
X109149435Y-58585559D02*
X109339911Y-58585559D01*
X109339911Y-58585559D02*
X109435149Y-58537940D01*
X109435149Y-58537940D02*
X109482768Y-58490320D01*
X109482768Y-58490320D02*
X109530387Y-58395082D01*
X109530387Y-58395082D02*
X109530387Y-57585559D01*
X51530387Y-96585559D02*
X50958959Y-96585559D01*
X51244673Y-96585559D02*
X51244673Y-95585559D01*
X51244673Y-95585559D02*
X51149435Y-95728416D01*
X51149435Y-95728416D02*
X51054197Y-95823654D01*
X51054197Y-95823654D02*
X50958959Y-95871273D01*
X51958959Y-96490320D02*
X52006578Y-96537940D01*
X52006578Y-96537940D02*
X51958959Y-96585559D01*
X51958959Y-96585559D02*
X51911340Y-96537940D01*
X51911340Y-96537940D02*
X51958959Y-96490320D01*
X51958959Y-96490320D02*
X51958959Y-96585559D01*
X52339911Y-95585559D02*
X53006577Y-95585559D01*
X53006577Y-95585559D02*
X52578006Y-96585559D01*
X53863720Y-95585559D02*
X53387530Y-95585559D01*
X53387530Y-95585559D02*
X53339911Y-96061749D01*
X53339911Y-96061749D02*
X53387530Y-96014130D01*
X53387530Y-96014130D02*
X53482768Y-95966511D01*
X53482768Y-95966511D02*
X53720863Y-95966511D01*
X53720863Y-95966511D02*
X53816101Y-96014130D01*
X53816101Y-96014130D02*
X53863720Y-96061749D01*
X53863720Y-96061749D02*
X53911339Y-96156987D01*
X53911339Y-96156987D02*
X53911339Y-96395082D01*
X53911339Y-96395082D02*
X53863720Y-96490320D01*
X53863720Y-96490320D02*
X53816101Y-96537940D01*
X53816101Y-96537940D02*
X53720863Y-96585559D01*
X53720863Y-96585559D02*
X53482768Y-96585559D01*
X53482768Y-96585559D02*
X53387530Y-96537940D01*
X53387530Y-96537940D02*
X53339911Y-96490320D01*
X54339911Y-95585559D02*
X54339911Y-96395082D01*
X54339911Y-96395082D02*
X54387530Y-96490320D01*
X54387530Y-96490320D02*
X54435149Y-96537940D01*
X54435149Y-96537940D02*
X54530387Y-96585559D01*
X54530387Y-96585559D02*
X54720863Y-96585559D01*
X54720863Y-96585559D02*
X54816101Y-96537940D01*
X54816101Y-96537940D02*
X54863720Y-96490320D01*
X54863720Y-96490320D02*
X54911339Y-96395082D01*
X54911339Y-96395082D02*
X54911339Y-95585559D01*
X27780387Y-96585559D02*
X27208959Y-96585559D01*
X27494673Y-96585559D02*
X27494673Y-95585559D01*
X27494673Y-95585559D02*
X27399435Y-95728416D01*
X27399435Y-95728416D02*
X27304197Y-95823654D01*
X27304197Y-95823654D02*
X27208959Y-95871273D01*
X28208959Y-96490320D02*
X28256578Y-96537940D01*
X28256578Y-96537940D02*
X28208959Y-96585559D01*
X28208959Y-96585559D02*
X28161340Y-96537940D01*
X28161340Y-96537940D02*
X28208959Y-96490320D01*
X28208959Y-96490320D02*
X28208959Y-96585559D01*
X28637530Y-95680797D02*
X28685149Y-95633178D01*
X28685149Y-95633178D02*
X28780387Y-95585559D01*
X28780387Y-95585559D02*
X29018482Y-95585559D01*
X29018482Y-95585559D02*
X29113720Y-95633178D01*
X29113720Y-95633178D02*
X29161339Y-95680797D01*
X29161339Y-95680797D02*
X29208958Y-95776035D01*
X29208958Y-95776035D02*
X29208958Y-95871273D01*
X29208958Y-95871273D02*
X29161339Y-96014130D01*
X29161339Y-96014130D02*
X28589911Y-96585559D01*
X28589911Y-96585559D02*
X29208958Y-96585559D01*
X30113720Y-95585559D02*
X29637530Y-95585559D01*
X29637530Y-95585559D02*
X29589911Y-96061749D01*
X29589911Y-96061749D02*
X29637530Y-96014130D01*
X29637530Y-96014130D02*
X29732768Y-95966511D01*
X29732768Y-95966511D02*
X29970863Y-95966511D01*
X29970863Y-95966511D02*
X30066101Y-96014130D01*
X30066101Y-96014130D02*
X30113720Y-96061749D01*
X30113720Y-96061749D02*
X30161339Y-96156987D01*
X30161339Y-96156987D02*
X30161339Y-96395082D01*
X30161339Y-96395082D02*
X30113720Y-96490320D01*
X30113720Y-96490320D02*
X30066101Y-96537940D01*
X30066101Y-96537940D02*
X29970863Y-96585559D01*
X29970863Y-96585559D02*
X29732768Y-96585559D01*
X29732768Y-96585559D02*
X29637530Y-96537940D01*
X29637530Y-96537940D02*
X29589911Y-96490320D01*
X30589911Y-95585559D02*
X30589911Y-96395082D01*
X30589911Y-96395082D02*
X30637530Y-96490320D01*
X30637530Y-96490320D02*
X30685149Y-96537940D01*
X30685149Y-96537940D02*
X30780387Y-96585559D01*
X30780387Y-96585559D02*
X30970863Y-96585559D01*
X30970863Y-96585559D02*
X31066101Y-96537940D01*
X31066101Y-96537940D02*
X31113720Y-96490320D01*
X31113720Y-96490320D02*
X31161339Y-96395082D01*
X31161339Y-96395082D02*
X31161339Y-95585559D01*
X240555797Y-93916040D02*
X240508178Y-93868421D01*
X240508178Y-93868421D02*
X240460559Y-93773183D01*
X240460559Y-93773183D02*
X240460559Y-93535088D01*
X240460559Y-93535088D02*
X240508178Y-93439850D01*
X240508178Y-93439850D02*
X240555797Y-93392231D01*
X240555797Y-93392231D02*
X240651035Y-93344612D01*
X240651035Y-93344612D02*
X240746273Y-93344612D01*
X240746273Y-93344612D02*
X240889130Y-93392231D01*
X240889130Y-93392231D02*
X241460559Y-93963659D01*
X241460559Y-93963659D02*
X241460559Y-93344612D01*
X240460559Y-92916040D02*
X241270082Y-92916040D01*
X241270082Y-92916040D02*
X241365320Y-92868421D01*
X241365320Y-92868421D02*
X241412940Y-92820802D01*
X241412940Y-92820802D02*
X241460559Y-92725564D01*
X241460559Y-92725564D02*
X241460559Y-92535088D01*
X241460559Y-92535088D02*
X241412940Y-92439850D01*
X241412940Y-92439850D02*
X241365320Y-92392231D01*
X241365320Y-92392231D02*
X241270082Y-92344612D01*
X241270082Y-92344612D02*
X240460559Y-92344612D01*
X127530387Y-58585559D02*
X126958959Y-58585559D01*
X127244673Y-58585559D02*
X127244673Y-57585559D01*
X127244673Y-57585559D02*
X127149435Y-57728416D01*
X127149435Y-57728416D02*
X127054197Y-57823654D01*
X127054197Y-57823654D02*
X126958959Y-57871273D01*
X127958959Y-57585559D02*
X127958959Y-58395082D01*
X127958959Y-58395082D02*
X128006578Y-58490320D01*
X128006578Y-58490320D02*
X128054197Y-58537940D01*
X128054197Y-58537940D02*
X128149435Y-58585559D01*
X128149435Y-58585559D02*
X128339911Y-58585559D01*
X128339911Y-58585559D02*
X128435149Y-58537940D01*
X128435149Y-58537940D02*
X128482768Y-58490320D01*
X128482768Y-58490320D02*
X128530387Y-58395082D01*
X128530387Y-58395082D02*
X128530387Y-57585559D01*
X165530387Y-58585559D02*
X164958959Y-58585559D01*
X165244673Y-58585559D02*
X165244673Y-57585559D01*
X165244673Y-57585559D02*
X165149435Y-57728416D01*
X165149435Y-57728416D02*
X165054197Y-57823654D01*
X165054197Y-57823654D02*
X164958959Y-57871273D01*
X165958959Y-57585559D02*
X165958959Y-58395082D01*
X165958959Y-58395082D02*
X166006578Y-58490320D01*
X166006578Y-58490320D02*
X166054197Y-58537940D01*
X166054197Y-58537940D02*
X166149435Y-58585559D01*
X166149435Y-58585559D02*
X166339911Y-58585559D01*
X166339911Y-58585559D02*
X166435149Y-58537940D01*
X166435149Y-58537940D02*
X166482768Y-58490320D01*
X166482768Y-58490320D02*
X166530387Y-58395082D01*
X166530387Y-58395082D02*
X166530387Y-57585559D01*
X222530387Y-96585559D02*
X221958959Y-96585559D01*
X222244673Y-96585559D02*
X222244673Y-95585559D01*
X222244673Y-95585559D02*
X222149435Y-95728416D01*
X222149435Y-95728416D02*
X222054197Y-95823654D01*
X222054197Y-95823654D02*
X221958959Y-95871273D01*
X222958959Y-95585559D02*
X222958959Y-96395082D01*
X222958959Y-96395082D02*
X223006578Y-96490320D01*
X223006578Y-96490320D02*
X223054197Y-96537940D01*
X223054197Y-96537940D02*
X223149435Y-96585559D01*
X223149435Y-96585559D02*
X223339911Y-96585559D01*
X223339911Y-96585559D02*
X223435149Y-96537940D01*
X223435149Y-96537940D02*
X223482768Y-96490320D01*
X223482768Y-96490320D02*
X223530387Y-96395082D01*
X223530387Y-96395082D02*
X223530387Y-95585559D01*
X203530387Y-58585559D02*
X202958959Y-58585559D01*
X203244673Y-58585559D02*
X203244673Y-57585559D01*
X203244673Y-57585559D02*
X203149435Y-57728416D01*
X203149435Y-57728416D02*
X203054197Y-57823654D01*
X203054197Y-57823654D02*
X202958959Y-57871273D01*
X203958959Y-57585559D02*
X203958959Y-58395082D01*
X203958959Y-58395082D02*
X204006578Y-58490320D01*
X204006578Y-58490320D02*
X204054197Y-58537940D01*
X204054197Y-58537940D02*
X204149435Y-58585559D01*
X204149435Y-58585559D02*
X204339911Y-58585559D01*
X204339911Y-58585559D02*
X204435149Y-58537940D01*
X204435149Y-58537940D02*
X204482768Y-58490320D01*
X204482768Y-58490320D02*
X204530387Y-58395082D01*
X204530387Y-58395082D02*
X204530387Y-57585559D01*
X156030387Y-77585559D02*
X155458959Y-77585559D01*
X155744673Y-77585559D02*
X155744673Y-76585559D01*
X155744673Y-76585559D02*
X155649435Y-76728416D01*
X155649435Y-76728416D02*
X155554197Y-76823654D01*
X155554197Y-76823654D02*
X155458959Y-76871273D01*
X156458959Y-76585559D02*
X156458959Y-77395082D01*
X156458959Y-77395082D02*
X156506578Y-77490320D01*
X156506578Y-77490320D02*
X156554197Y-77537940D01*
X156554197Y-77537940D02*
X156649435Y-77585559D01*
X156649435Y-77585559D02*
X156839911Y-77585559D01*
X156839911Y-77585559D02*
X156935149Y-77537940D01*
X156935149Y-77537940D02*
X156982768Y-77490320D01*
X156982768Y-77490320D02*
X157030387Y-77395082D01*
X157030387Y-77395082D02*
X157030387Y-76585559D01*
X146530387Y-58585559D02*
X145958959Y-58585559D01*
X146244673Y-58585559D02*
X146244673Y-57585559D01*
X146244673Y-57585559D02*
X146149435Y-57728416D01*
X146149435Y-57728416D02*
X146054197Y-57823654D01*
X146054197Y-57823654D02*
X145958959Y-57871273D01*
X146958959Y-57585559D02*
X146958959Y-58395082D01*
X146958959Y-58395082D02*
X147006578Y-58490320D01*
X147006578Y-58490320D02*
X147054197Y-58537940D01*
X147054197Y-58537940D02*
X147149435Y-58585559D01*
X147149435Y-58585559D02*
X147339911Y-58585559D01*
X147339911Y-58585559D02*
X147435149Y-58537940D01*
X147435149Y-58537940D02*
X147482768Y-58490320D01*
X147482768Y-58490320D02*
X147530387Y-58395082D01*
X147530387Y-58395082D02*
X147530387Y-57585559D01*
X70530387Y-58585559D02*
X69958959Y-58585559D01*
X70244673Y-58585559D02*
X70244673Y-57585559D01*
X70244673Y-57585559D02*
X70149435Y-57728416D01*
X70149435Y-57728416D02*
X70054197Y-57823654D01*
X70054197Y-57823654D02*
X69958959Y-57871273D01*
X70958959Y-57585559D02*
X70958959Y-58395082D01*
X70958959Y-58395082D02*
X71006578Y-58490320D01*
X71006578Y-58490320D02*
X71054197Y-58537940D01*
X71054197Y-58537940D02*
X71149435Y-58585559D01*
X71149435Y-58585559D02*
X71339911Y-58585559D01*
X71339911Y-58585559D02*
X71435149Y-58537940D01*
X71435149Y-58537940D02*
X71482768Y-58490320D01*
X71482768Y-58490320D02*
X71530387Y-58395082D01*
X71530387Y-58395082D02*
X71530387Y-57585559D01*
X80030387Y-77585559D02*
X79458959Y-77585559D01*
X79744673Y-77585559D02*
X79744673Y-76585559D01*
X79744673Y-76585559D02*
X79649435Y-76728416D01*
X79649435Y-76728416D02*
X79554197Y-76823654D01*
X79554197Y-76823654D02*
X79458959Y-76871273D01*
X80458959Y-76585559D02*
X80458959Y-77395082D01*
X80458959Y-77395082D02*
X80506578Y-77490320D01*
X80506578Y-77490320D02*
X80554197Y-77537940D01*
X80554197Y-77537940D02*
X80649435Y-77585559D01*
X80649435Y-77585559D02*
X80839911Y-77585559D01*
X80839911Y-77585559D02*
X80935149Y-77537940D01*
X80935149Y-77537940D02*
X80982768Y-77490320D01*
X80982768Y-77490320D02*
X81030387Y-77395082D01*
X81030387Y-77395082D02*
X81030387Y-76585559D01*
X236780387Y-39585559D02*
X236208959Y-39585559D01*
X236494673Y-39585559D02*
X236494673Y-38585559D01*
X236494673Y-38585559D02*
X236399435Y-38728416D01*
X236399435Y-38728416D02*
X236304197Y-38823654D01*
X236304197Y-38823654D02*
X236208959Y-38871273D01*
X237208959Y-39490320D02*
X237256578Y-39537940D01*
X237256578Y-39537940D02*
X237208959Y-39585559D01*
X237208959Y-39585559D02*
X237161340Y-39537940D01*
X237161340Y-39537940D02*
X237208959Y-39490320D01*
X237208959Y-39490320D02*
X237208959Y-39585559D01*
X237637530Y-38680797D02*
X237685149Y-38633178D01*
X237685149Y-38633178D02*
X237780387Y-38585559D01*
X237780387Y-38585559D02*
X238018482Y-38585559D01*
X238018482Y-38585559D02*
X238113720Y-38633178D01*
X238113720Y-38633178D02*
X238161339Y-38680797D01*
X238161339Y-38680797D02*
X238208958Y-38776035D01*
X238208958Y-38776035D02*
X238208958Y-38871273D01*
X238208958Y-38871273D02*
X238161339Y-39014130D01*
X238161339Y-39014130D02*
X237589911Y-39585559D01*
X237589911Y-39585559D02*
X238208958Y-39585559D01*
X239113720Y-38585559D02*
X238637530Y-38585559D01*
X238637530Y-38585559D02*
X238589911Y-39061749D01*
X238589911Y-39061749D02*
X238637530Y-39014130D01*
X238637530Y-39014130D02*
X238732768Y-38966511D01*
X238732768Y-38966511D02*
X238970863Y-38966511D01*
X238970863Y-38966511D02*
X239066101Y-39014130D01*
X239066101Y-39014130D02*
X239113720Y-39061749D01*
X239113720Y-39061749D02*
X239161339Y-39156987D01*
X239161339Y-39156987D02*
X239161339Y-39395082D01*
X239161339Y-39395082D02*
X239113720Y-39490320D01*
X239113720Y-39490320D02*
X239066101Y-39537940D01*
X239066101Y-39537940D02*
X238970863Y-39585559D01*
X238970863Y-39585559D02*
X238732768Y-39585559D01*
X238732768Y-39585559D02*
X238637530Y-39537940D01*
X238637530Y-39537940D02*
X238589911Y-39490320D01*
X239589911Y-38585559D02*
X239589911Y-39395082D01*
X239589911Y-39395082D02*
X239637530Y-39490320D01*
X239637530Y-39490320D02*
X239685149Y-39537940D01*
X239685149Y-39537940D02*
X239780387Y-39585559D01*
X239780387Y-39585559D02*
X239970863Y-39585559D01*
X239970863Y-39585559D02*
X240066101Y-39537940D01*
X240066101Y-39537940D02*
X240113720Y-39490320D01*
X240113720Y-39490320D02*
X240161339Y-39395082D01*
X240161339Y-39395082D02*
X240161339Y-38585559D01*
X222530387Y-58585559D02*
X221958959Y-58585559D01*
X222244673Y-58585559D02*
X222244673Y-57585559D01*
X222244673Y-57585559D02*
X222149435Y-57728416D01*
X222149435Y-57728416D02*
X222054197Y-57823654D01*
X222054197Y-57823654D02*
X221958959Y-57871273D01*
X222958959Y-57585559D02*
X222958959Y-58395082D01*
X222958959Y-58395082D02*
X223006578Y-58490320D01*
X223006578Y-58490320D02*
X223054197Y-58537940D01*
X223054197Y-58537940D02*
X223149435Y-58585559D01*
X223149435Y-58585559D02*
X223339911Y-58585559D01*
X223339911Y-58585559D02*
X223435149Y-58537940D01*
X223435149Y-58537940D02*
X223482768Y-58490320D01*
X223482768Y-58490320D02*
X223530387Y-58395082D01*
X223530387Y-58395082D02*
X223530387Y-57585559D01*
X175030387Y-77585559D02*
X174458959Y-77585559D01*
X174744673Y-77585559D02*
X174744673Y-76585559D01*
X174744673Y-76585559D02*
X174649435Y-76728416D01*
X174649435Y-76728416D02*
X174554197Y-76823654D01*
X174554197Y-76823654D02*
X174458959Y-76871273D01*
X175458959Y-76585559D02*
X175458959Y-77395082D01*
X175458959Y-77395082D02*
X175506578Y-77490320D01*
X175506578Y-77490320D02*
X175554197Y-77537940D01*
X175554197Y-77537940D02*
X175649435Y-77585559D01*
X175649435Y-77585559D02*
X175839911Y-77585559D01*
X175839911Y-77585559D02*
X175935149Y-77537940D01*
X175935149Y-77537940D02*
X175982768Y-77490320D01*
X175982768Y-77490320D02*
X176030387Y-77395082D01*
X176030387Y-77395082D02*
X176030387Y-76585559D01*
X141780387Y-39585559D02*
X141208959Y-39585559D01*
X141494673Y-39585559D02*
X141494673Y-38585559D01*
X141494673Y-38585559D02*
X141399435Y-38728416D01*
X141399435Y-38728416D02*
X141304197Y-38823654D01*
X141304197Y-38823654D02*
X141208959Y-38871273D01*
X142208959Y-38585559D02*
X142208959Y-39395082D01*
X142208959Y-39395082D02*
X142256578Y-39490320D01*
X142256578Y-39490320D02*
X142304197Y-39537940D01*
X142304197Y-39537940D02*
X142399435Y-39585559D01*
X142399435Y-39585559D02*
X142589911Y-39585559D01*
X142589911Y-39585559D02*
X142685149Y-39537940D01*
X142685149Y-39537940D02*
X142732768Y-39490320D01*
X142732768Y-39490320D02*
X142780387Y-39395082D01*
X142780387Y-39395082D02*
X142780387Y-38585559D01*
X84780387Y-39585559D02*
X84208959Y-39585559D01*
X84494673Y-39585559D02*
X84494673Y-38585559D01*
X84494673Y-38585559D02*
X84399435Y-38728416D01*
X84399435Y-38728416D02*
X84304197Y-38823654D01*
X84304197Y-38823654D02*
X84208959Y-38871273D01*
X85208959Y-38585559D02*
X85208959Y-39395082D01*
X85208959Y-39395082D02*
X85256578Y-39490320D01*
X85256578Y-39490320D02*
X85304197Y-39537940D01*
X85304197Y-39537940D02*
X85399435Y-39585559D01*
X85399435Y-39585559D02*
X85589911Y-39585559D01*
X85589911Y-39585559D02*
X85685149Y-39537940D01*
X85685149Y-39537940D02*
X85732768Y-39490320D01*
X85732768Y-39490320D02*
X85780387Y-39395082D01*
X85780387Y-39395082D02*
X85780387Y-38585559D01*
X65780387Y-39585559D02*
X65208959Y-39585559D01*
X65494673Y-39585559D02*
X65494673Y-38585559D01*
X65494673Y-38585559D02*
X65399435Y-38728416D01*
X65399435Y-38728416D02*
X65304197Y-38823654D01*
X65304197Y-38823654D02*
X65208959Y-38871273D01*
X66208959Y-38585559D02*
X66208959Y-39395082D01*
X66208959Y-39395082D02*
X66256578Y-39490320D01*
X66256578Y-39490320D02*
X66304197Y-39537940D01*
X66304197Y-39537940D02*
X66399435Y-39585559D01*
X66399435Y-39585559D02*
X66589911Y-39585559D01*
X66589911Y-39585559D02*
X66685149Y-39537940D01*
X66685149Y-39537940D02*
X66732768Y-39490320D01*
X66732768Y-39490320D02*
X66780387Y-39395082D01*
X66780387Y-39395082D02*
X66780387Y-38585559D01*
X103780387Y-39585559D02*
X103208959Y-39585559D01*
X103494673Y-39585559D02*
X103494673Y-38585559D01*
X103494673Y-38585559D02*
X103399435Y-38728416D01*
X103399435Y-38728416D02*
X103304197Y-38823654D01*
X103304197Y-38823654D02*
X103208959Y-38871273D01*
X104208959Y-38585559D02*
X104208959Y-39395082D01*
X104208959Y-39395082D02*
X104256578Y-39490320D01*
X104256578Y-39490320D02*
X104304197Y-39537940D01*
X104304197Y-39537940D02*
X104399435Y-39585559D01*
X104399435Y-39585559D02*
X104589911Y-39585559D01*
X104589911Y-39585559D02*
X104685149Y-39537940D01*
X104685149Y-39537940D02*
X104732768Y-39490320D01*
X104732768Y-39490320D02*
X104780387Y-39395082D01*
X104780387Y-39395082D02*
X104780387Y-38585559D01*
X61030387Y-77585559D02*
X60458959Y-77585559D01*
X60744673Y-77585559D02*
X60744673Y-76585559D01*
X60744673Y-76585559D02*
X60649435Y-76728416D01*
X60649435Y-76728416D02*
X60554197Y-76823654D01*
X60554197Y-76823654D02*
X60458959Y-76871273D01*
X61458959Y-76585559D02*
X61458959Y-77395082D01*
X61458959Y-77395082D02*
X61506578Y-77490320D01*
X61506578Y-77490320D02*
X61554197Y-77537940D01*
X61554197Y-77537940D02*
X61649435Y-77585559D01*
X61649435Y-77585559D02*
X61839911Y-77585559D01*
X61839911Y-77585559D02*
X61935149Y-77537940D01*
X61935149Y-77537940D02*
X61982768Y-77490320D01*
X61982768Y-77490320D02*
X62030387Y-77395082D01*
X62030387Y-77395082D02*
X62030387Y-76585559D01*
X122780387Y-39585559D02*
X122208959Y-39585559D01*
X122494673Y-39585559D02*
X122494673Y-38585559D01*
X122494673Y-38585559D02*
X122399435Y-38728416D01*
X122399435Y-38728416D02*
X122304197Y-38823654D01*
X122304197Y-38823654D02*
X122208959Y-38871273D01*
X123208959Y-38585559D02*
X123208959Y-39395082D01*
X123208959Y-39395082D02*
X123256578Y-39490320D01*
X123256578Y-39490320D02*
X123304197Y-39537940D01*
X123304197Y-39537940D02*
X123399435Y-39585559D01*
X123399435Y-39585559D02*
X123589911Y-39585559D01*
X123589911Y-39585559D02*
X123685149Y-39537940D01*
X123685149Y-39537940D02*
X123732768Y-39490320D01*
X123732768Y-39490320D02*
X123780387Y-39395082D01*
X123780387Y-39395082D02*
X123780387Y-38585559D01*
X46780387Y-39585559D02*
X46208959Y-39585559D01*
X46494673Y-39585559D02*
X46494673Y-38585559D01*
X46494673Y-38585559D02*
X46399435Y-38728416D01*
X46399435Y-38728416D02*
X46304197Y-38823654D01*
X46304197Y-38823654D02*
X46208959Y-38871273D01*
X47208959Y-38585559D02*
X47208959Y-39395082D01*
X47208959Y-39395082D02*
X47256578Y-39490320D01*
X47256578Y-39490320D02*
X47304197Y-39537940D01*
X47304197Y-39537940D02*
X47399435Y-39585559D01*
X47399435Y-39585559D02*
X47589911Y-39585559D01*
X47589911Y-39585559D02*
X47685149Y-39537940D01*
X47685149Y-39537940D02*
X47732768Y-39490320D01*
X47732768Y-39490320D02*
X47780387Y-39395082D01*
X47780387Y-39395082D02*
X47780387Y-38585559D01*
X198780387Y-39585559D02*
X198208959Y-39585559D01*
X198494673Y-39585559D02*
X198494673Y-38585559D01*
X198494673Y-38585559D02*
X198399435Y-38728416D01*
X198399435Y-38728416D02*
X198304197Y-38823654D01*
X198304197Y-38823654D02*
X198208959Y-38871273D01*
X199208959Y-38585559D02*
X199208959Y-39395082D01*
X199208959Y-39395082D02*
X199256578Y-39490320D01*
X199256578Y-39490320D02*
X199304197Y-39537940D01*
X199304197Y-39537940D02*
X199399435Y-39585559D01*
X199399435Y-39585559D02*
X199589911Y-39585559D01*
X199589911Y-39585559D02*
X199685149Y-39537940D01*
X199685149Y-39537940D02*
X199732768Y-39490320D01*
X199732768Y-39490320D02*
X199780387Y-39395082D01*
X199780387Y-39395082D02*
X199780387Y-38585559D01*
X51530387Y-58585559D02*
X50958959Y-58585559D01*
X51244673Y-58585559D02*
X51244673Y-57585559D01*
X51244673Y-57585559D02*
X51149435Y-57728416D01*
X51149435Y-57728416D02*
X51054197Y-57823654D01*
X51054197Y-57823654D02*
X50958959Y-57871273D01*
X51958959Y-57585559D02*
X51958959Y-58395082D01*
X51958959Y-58395082D02*
X52006578Y-58490320D01*
X52006578Y-58490320D02*
X52054197Y-58537940D01*
X52054197Y-58537940D02*
X52149435Y-58585559D01*
X52149435Y-58585559D02*
X52339911Y-58585559D01*
X52339911Y-58585559D02*
X52435149Y-58537940D01*
X52435149Y-58537940D02*
X52482768Y-58490320D01*
X52482768Y-58490320D02*
X52530387Y-58395082D01*
X52530387Y-58395082D02*
X52530387Y-57585559D01*
X217780387Y-39585559D02*
X217208959Y-39585559D01*
X217494673Y-39585559D02*
X217494673Y-38585559D01*
X217494673Y-38585559D02*
X217399435Y-38728416D01*
X217399435Y-38728416D02*
X217304197Y-38823654D01*
X217304197Y-38823654D02*
X217208959Y-38871273D01*
X218208959Y-38585559D02*
X218208959Y-39395082D01*
X218208959Y-39395082D02*
X218256578Y-39490320D01*
X218256578Y-39490320D02*
X218304197Y-39537940D01*
X218304197Y-39537940D02*
X218399435Y-39585559D01*
X218399435Y-39585559D02*
X218589911Y-39585559D01*
X218589911Y-39585559D02*
X218685149Y-39537940D01*
X218685149Y-39537940D02*
X218732768Y-39490320D01*
X218732768Y-39490320D02*
X218780387Y-39395082D01*
X218780387Y-39395082D02*
X218780387Y-38585559D01*
X99030387Y-77585559D02*
X98458959Y-77585559D01*
X98744673Y-77585559D02*
X98744673Y-76585559D01*
X98744673Y-76585559D02*
X98649435Y-76728416D01*
X98649435Y-76728416D02*
X98554197Y-76823654D01*
X98554197Y-76823654D02*
X98458959Y-76871273D01*
X99458959Y-76585559D02*
X99458959Y-77395082D01*
X99458959Y-77395082D02*
X99506578Y-77490320D01*
X99506578Y-77490320D02*
X99554197Y-77537940D01*
X99554197Y-77537940D02*
X99649435Y-77585559D01*
X99649435Y-77585559D02*
X99839911Y-77585559D01*
X99839911Y-77585559D02*
X99935149Y-77537940D01*
X99935149Y-77537940D02*
X99982768Y-77490320D01*
X99982768Y-77490320D02*
X100030387Y-77395082D01*
X100030387Y-77395082D02*
X100030387Y-76585559D01*
X203530387Y-96585559D02*
X202958959Y-96585559D01*
X203244673Y-96585559D02*
X203244673Y-95585559D01*
X203244673Y-95585559D02*
X203149435Y-95728416D01*
X203149435Y-95728416D02*
X203054197Y-95823654D01*
X203054197Y-95823654D02*
X202958959Y-95871273D01*
X203958959Y-95585559D02*
X203958959Y-96395082D01*
X203958959Y-96395082D02*
X204006578Y-96490320D01*
X204006578Y-96490320D02*
X204054197Y-96537940D01*
X204054197Y-96537940D02*
X204149435Y-96585559D01*
X204149435Y-96585559D02*
X204339911Y-96585559D01*
X204339911Y-96585559D02*
X204435149Y-96537940D01*
X204435149Y-96537940D02*
X204482768Y-96490320D01*
X204482768Y-96490320D02*
X204530387Y-96395082D01*
X204530387Y-96395082D02*
X204530387Y-95585559D01*
X194030387Y-77585559D02*
X193458959Y-77585559D01*
X193744673Y-77585559D02*
X193744673Y-76585559D01*
X193744673Y-76585559D02*
X193649435Y-76728416D01*
X193649435Y-76728416D02*
X193554197Y-76823654D01*
X193554197Y-76823654D02*
X193458959Y-76871273D01*
X194458959Y-77490320D02*
X194506578Y-77537940D01*
X194506578Y-77537940D02*
X194458959Y-77585559D01*
X194458959Y-77585559D02*
X194411340Y-77537940D01*
X194411340Y-77537940D02*
X194458959Y-77490320D01*
X194458959Y-77490320D02*
X194458959Y-77585559D01*
X195411339Y-76585559D02*
X194935149Y-76585559D01*
X194935149Y-76585559D02*
X194887530Y-77061749D01*
X194887530Y-77061749D02*
X194935149Y-77014130D01*
X194935149Y-77014130D02*
X195030387Y-76966511D01*
X195030387Y-76966511D02*
X195268482Y-76966511D01*
X195268482Y-76966511D02*
X195363720Y-77014130D01*
X195363720Y-77014130D02*
X195411339Y-77061749D01*
X195411339Y-77061749D02*
X195458958Y-77156987D01*
X195458958Y-77156987D02*
X195458958Y-77395082D01*
X195458958Y-77395082D02*
X195411339Y-77490320D01*
X195411339Y-77490320D02*
X195363720Y-77537940D01*
X195363720Y-77537940D02*
X195268482Y-77585559D01*
X195268482Y-77585559D02*
X195030387Y-77585559D01*
X195030387Y-77585559D02*
X194935149Y-77537940D01*
X194935149Y-77537940D02*
X194887530Y-77490320D01*
X195887530Y-76585559D02*
X195887530Y-77395082D01*
X195887530Y-77395082D02*
X195935149Y-77490320D01*
X195935149Y-77490320D02*
X195982768Y-77537940D01*
X195982768Y-77537940D02*
X196078006Y-77585559D01*
X196078006Y-77585559D02*
X196268482Y-77585559D01*
X196268482Y-77585559D02*
X196363720Y-77537940D01*
X196363720Y-77537940D02*
X196411339Y-77490320D01*
X196411339Y-77490320D02*
X196458958Y-77395082D01*
X196458958Y-77395082D02*
X196458958Y-76585559D01*
X241530387Y-96585559D02*
X240958959Y-96585559D01*
X241244673Y-96585559D02*
X241244673Y-95585559D01*
X241244673Y-95585559D02*
X241149435Y-95728416D01*
X241149435Y-95728416D02*
X241054197Y-95823654D01*
X241054197Y-95823654D02*
X240958959Y-95871273D01*
X241958959Y-95585559D02*
X241958959Y-96395082D01*
X241958959Y-96395082D02*
X242006578Y-96490320D01*
X242006578Y-96490320D02*
X242054197Y-96537940D01*
X242054197Y-96537940D02*
X242149435Y-96585559D01*
X242149435Y-96585559D02*
X242339911Y-96585559D01*
X242339911Y-96585559D02*
X242435149Y-96537940D01*
X242435149Y-96537940D02*
X242482768Y-96490320D01*
X242482768Y-96490320D02*
X242530387Y-96395082D01*
X242530387Y-96395082D02*
X242530387Y-95585559D01*
X84553899Y-95585559D02*
X84363423Y-95585559D01*
X84363423Y-95585559D02*
X84268185Y-95633178D01*
X84268185Y-95633178D02*
X84220566Y-95680797D01*
X84220566Y-95680797D02*
X84125328Y-95823654D01*
X84125328Y-95823654D02*
X84077709Y-96014130D01*
X84077709Y-96014130D02*
X84077709Y-96395082D01*
X84077709Y-96395082D02*
X84125328Y-96490320D01*
X84125328Y-96490320D02*
X84172947Y-96537940D01*
X84172947Y-96537940D02*
X84268185Y-96585559D01*
X84268185Y-96585559D02*
X84458661Y-96585559D01*
X84458661Y-96585559D02*
X84553899Y-96537940D01*
X84553899Y-96537940D02*
X84601518Y-96490320D01*
X84601518Y-96490320D02*
X84649137Y-96395082D01*
X84649137Y-96395082D02*
X84649137Y-96156987D01*
X84649137Y-96156987D02*
X84601518Y-96061749D01*
X84601518Y-96061749D02*
X84553899Y-96014130D01*
X84553899Y-96014130D02*
X84458661Y-95966511D01*
X84458661Y-95966511D02*
X84268185Y-95966511D01*
X84268185Y-95966511D02*
X84172947Y-96014130D01*
X84172947Y-96014130D02*
X84125328Y-96061749D01*
X84125328Y-96061749D02*
X84077709Y-96156987D01*
X85077709Y-96490320D02*
X85125328Y-96537940D01*
X85125328Y-96537940D02*
X85077709Y-96585559D01*
X85077709Y-96585559D02*
X85030090Y-96537940D01*
X85030090Y-96537940D02*
X85077709Y-96490320D01*
X85077709Y-96490320D02*
X85077709Y-96585559D01*
X85506280Y-95680797D02*
X85553899Y-95633178D01*
X85553899Y-95633178D02*
X85649137Y-95585559D01*
X85649137Y-95585559D02*
X85887232Y-95585559D01*
X85887232Y-95585559D02*
X85982470Y-95633178D01*
X85982470Y-95633178D02*
X86030089Y-95680797D01*
X86030089Y-95680797D02*
X86077708Y-95776035D01*
X86077708Y-95776035D02*
X86077708Y-95871273D01*
X86077708Y-95871273D02*
X86030089Y-96014130D01*
X86030089Y-96014130D02*
X85458661Y-96585559D01*
X85458661Y-96585559D02*
X86077708Y-96585559D01*
X86982470Y-95585559D02*
X86506280Y-95585559D01*
X86506280Y-95585559D02*
X86458661Y-96061749D01*
X86458661Y-96061749D02*
X86506280Y-96014130D01*
X86506280Y-96014130D02*
X86601518Y-95966511D01*
X86601518Y-95966511D02*
X86839613Y-95966511D01*
X86839613Y-95966511D02*
X86934851Y-96014130D01*
X86934851Y-96014130D02*
X86982470Y-96061749D01*
X86982470Y-96061749D02*
X87030089Y-96156987D01*
X87030089Y-96156987D02*
X87030089Y-96395082D01*
X87030089Y-96395082D02*
X86982470Y-96490320D01*
X86982470Y-96490320D02*
X86934851Y-96537940D01*
X86934851Y-96537940D02*
X86839613Y-96585559D01*
X86839613Y-96585559D02*
X86601518Y-96585559D01*
X86601518Y-96585559D02*
X86506280Y-96537940D01*
X86506280Y-96537940D02*
X86458661Y-96490320D01*
X87458661Y-95585559D02*
X87458661Y-96395082D01*
X87458661Y-96395082D02*
X87506280Y-96490320D01*
X87506280Y-96490320D02*
X87553899Y-96537940D01*
X87553899Y-96537940D02*
X87649137Y-96585559D01*
X87649137Y-96585559D02*
X87839613Y-96585559D01*
X87839613Y-96585559D02*
X87934851Y-96537940D01*
X87934851Y-96537940D02*
X87982470Y-96490320D01*
X87982470Y-96490320D02*
X88030089Y-96395082D01*
X88030089Y-96395082D02*
X88030089Y-95585559D01*
X160780387Y-39585559D02*
X160208959Y-39585559D01*
X160494673Y-39585559D02*
X160494673Y-38585559D01*
X160494673Y-38585559D02*
X160399435Y-38728416D01*
X160399435Y-38728416D02*
X160304197Y-38823654D01*
X160304197Y-38823654D02*
X160208959Y-38871273D01*
X161208959Y-38585559D02*
X161208959Y-39395082D01*
X161208959Y-39395082D02*
X161256578Y-39490320D01*
X161256578Y-39490320D02*
X161304197Y-39537940D01*
X161304197Y-39537940D02*
X161399435Y-39585559D01*
X161399435Y-39585559D02*
X161589911Y-39585559D01*
X161589911Y-39585559D02*
X161685149Y-39537940D01*
X161685149Y-39537940D02*
X161732768Y-39490320D01*
X161732768Y-39490320D02*
X161780387Y-39395082D01*
X161780387Y-39395082D02*
X161780387Y-38585559D01*
X27780387Y-39585559D02*
X27208959Y-39585559D01*
X27494673Y-39585559D02*
X27494673Y-38585559D01*
X27494673Y-38585559D02*
X27399435Y-38728416D01*
X27399435Y-38728416D02*
X27304197Y-38823654D01*
X27304197Y-38823654D02*
X27208959Y-38871273D01*
X28208959Y-38585559D02*
X28208959Y-39395082D01*
X28208959Y-39395082D02*
X28256578Y-39490320D01*
X28256578Y-39490320D02*
X28304197Y-39537940D01*
X28304197Y-39537940D02*
X28399435Y-39585559D01*
X28399435Y-39585559D02*
X28589911Y-39585559D01*
X28589911Y-39585559D02*
X28685149Y-39537940D01*
X28685149Y-39537940D02*
X28732768Y-39490320D01*
X28732768Y-39490320D02*
X28780387Y-39395082D01*
X28780387Y-39395082D02*
X28780387Y-38585559D01*
X179780387Y-39585559D02*
X179208959Y-39585559D01*
X179494673Y-39585559D02*
X179494673Y-38585559D01*
X179494673Y-38585559D02*
X179399435Y-38728416D01*
X179399435Y-38728416D02*
X179304197Y-38823654D01*
X179304197Y-38823654D02*
X179208959Y-38871273D01*
X180208959Y-38585559D02*
X180208959Y-39395082D01*
X180208959Y-39395082D02*
X180256578Y-39490320D01*
X180256578Y-39490320D02*
X180304197Y-39537940D01*
X180304197Y-39537940D02*
X180399435Y-39585559D01*
X180399435Y-39585559D02*
X180589911Y-39585559D01*
X180589911Y-39585559D02*
X180685149Y-39537940D01*
X180685149Y-39537940D02*
X180732768Y-39490320D01*
X180732768Y-39490320D02*
X180780387Y-39395082D01*
X180780387Y-39395082D02*
X180780387Y-38585559D01*
D11*
%TO.C,SW19*%
X90275000Y-59400000D02*
X90275000Y-73600000D01*
X90275000Y-73600000D02*
X104475000Y-73600000D01*
X104475000Y-59400000D02*
X90275000Y-59400000D01*
X104475000Y-73600000D02*
X104475000Y-59400000D01*
D12*
X87875000Y-57000000D02*
X106875000Y-57000000D01*
X106875000Y-76000000D01*
X87875000Y-76000000D01*
X87875000Y-57000000D01*
D11*
%TO.C,SW28*%
X137775000Y-78400000D02*
X137775000Y-92600000D01*
X137775000Y-92600000D02*
X151975000Y-92600000D01*
X151975000Y-78400000D02*
X137775000Y-78400000D01*
X151975000Y-92600000D02*
X151975000Y-78400000D01*
D12*
X135375000Y-76000000D02*
X154375000Y-76000000D01*
X154375000Y-95000000D01*
X135375000Y-95000000D01*
X135375000Y-76000000D01*
D11*
%TO.C,SW17*%
X35650000Y-78400000D02*
X35650000Y-92600000D01*
X35650000Y-92600000D02*
X49850000Y-92600000D01*
X49850000Y-78400000D02*
X35650000Y-78400000D01*
X49850000Y-92600000D02*
X49850000Y-78400000D01*
D12*
X26125000Y-76000000D02*
X59375000Y-76000000D01*
X59375000Y-95000000D01*
X26125000Y-95000000D01*
X26125000Y-76000000D01*
D11*
%TO.C,SW9*%
X30900000Y-59400000D02*
X30900000Y-73600000D01*
X30900000Y-73600000D02*
X45100000Y-73600000D01*
X45100000Y-59400000D02*
X30900000Y-59400000D01*
X45100000Y-73600000D02*
X45100000Y-59400000D01*
D12*
X26125000Y-57000000D02*
X49875000Y-57000000D01*
X49875000Y-76000000D01*
X26125000Y-76000000D01*
X26125000Y-57000000D01*
D11*
%TO.C,SW15*%
X185275000Y-59400000D02*
X185275000Y-73600000D01*
X185275000Y-73600000D02*
X199475000Y-73600000D01*
X199475000Y-59400000D02*
X185275000Y-59400000D01*
X199475000Y-73600000D02*
X199475000Y-59400000D01*
D12*
X182875000Y-57000000D02*
X201875000Y-57000000D01*
X201875000Y-76000000D01*
X182875000Y-76000000D01*
X182875000Y-57000000D01*
D11*
%TO.C,SW37*%
X223275000Y-78400000D02*
X223275000Y-92600000D01*
X223275000Y-92600000D02*
X237475000Y-92600000D01*
X237475000Y-78400000D02*
X223275000Y-78400000D01*
X237475000Y-92600000D02*
X237475000Y-78400000D01*
D12*
X220875000Y-76000000D02*
X239875000Y-76000000D01*
X239875000Y-95000000D01*
X220875000Y-95000000D01*
X220875000Y-76000000D01*
D11*
%TO.C,SW20*%
X118775000Y-78400000D02*
X118775000Y-92600000D01*
X118775000Y-92600000D02*
X132975000Y-92600000D01*
X132975000Y-78400000D02*
X118775000Y-78400000D01*
X132975000Y-92600000D02*
X132975000Y-78400000D01*
D12*
X116375000Y-76000000D02*
X135375000Y-76000000D01*
X135375000Y-95000000D01*
X116375000Y-95000000D01*
X116375000Y-76000000D01*
D11*
%TO.C,SW27*%
X109275000Y-59400000D02*
X109275000Y-73600000D01*
X109275000Y-73600000D02*
X123475000Y-73600000D01*
X123475000Y-59400000D02*
X109275000Y-59400000D01*
X123475000Y-73600000D02*
X123475000Y-59400000D01*
D12*
X106875000Y-57000000D02*
X125875000Y-57000000D01*
X125875000Y-76000000D01*
X106875000Y-76000000D01*
X106875000Y-57000000D01*
D11*
%TO.C,SW25*%
X59400000Y-97400000D02*
X59400000Y-111600000D01*
X59400000Y-111600000D02*
X73600000Y-111600000D01*
X73600000Y-97400000D02*
X59400000Y-97400000D01*
X73600000Y-111600000D02*
X73600000Y-97400000D01*
D12*
X49875000Y-95000000D02*
X83125000Y-95000000D01*
X83125000Y-114000000D01*
X49875000Y-114000000D01*
X49875000Y-95000000D01*
D11*
%TO.C,SW33*%
X30900000Y-97400000D02*
X30900000Y-111600000D01*
X30900000Y-111600000D02*
X45100000Y-111600000D01*
X45100000Y-97400000D02*
X30900000Y-97400000D01*
X45100000Y-111600000D02*
X45100000Y-97400000D01*
D12*
X26125000Y-95000000D02*
X49875000Y-95000000D01*
X49875000Y-114000000D01*
X26125000Y-114000000D01*
X26125000Y-95000000D01*
D11*
%TO.C,SW32*%
X242275000Y-68900000D02*
X242275000Y-83100000D01*
X242275000Y-83100000D02*
X256475000Y-83100000D01*
X256475000Y-68900000D02*
X242275000Y-68900000D01*
X256475000Y-83100000D02*
X256475000Y-68900000D01*
D12*
X239875000Y-95000000D02*
X258875000Y-95000000D01*
X258875000Y-57000000D01*
X239875000Y-57000000D01*
X239875000Y-95000000D01*
D11*
%TO.C,SW12*%
X128275000Y-59400000D02*
X128275000Y-73600000D01*
X128275000Y-73600000D02*
X142475000Y-73600000D01*
X142475000Y-59400000D02*
X128275000Y-59400000D01*
X142475000Y-73600000D02*
X142475000Y-59400000D01*
D12*
X125875000Y-57000000D02*
X144875000Y-57000000D01*
X144875000Y-76000000D01*
X125875000Y-76000000D01*
X125875000Y-57000000D01*
D11*
%TO.C,SW14*%
X166275000Y-59400000D02*
X166275000Y-73600000D01*
X166275000Y-73600000D02*
X180475000Y-73600000D01*
X180475000Y-59400000D02*
X166275000Y-59400000D01*
X180475000Y-73600000D02*
X180475000Y-59400000D01*
D12*
X163875000Y-57000000D02*
X182875000Y-57000000D01*
X182875000Y-76000000D01*
X163875000Y-76000000D01*
X163875000Y-57000000D01*
D11*
%TO.C,SW39*%
X223275000Y-97400000D02*
X223275000Y-111600000D01*
X223275000Y-111600000D02*
X237475000Y-111600000D01*
X237475000Y-97400000D02*
X223275000Y-97400000D01*
X237475000Y-111600000D02*
X237475000Y-97400000D01*
D12*
X220875000Y-95000000D02*
X239875000Y-95000000D01*
X239875000Y-114000000D01*
X220875000Y-114000000D01*
X220875000Y-95000000D01*
D11*
%TO.C,SW23*%
X204275000Y-59400000D02*
X204275000Y-73600000D01*
X204275000Y-73600000D02*
X218475000Y-73600000D01*
X218475000Y-59400000D02*
X204275000Y-59400000D01*
X218475000Y-73600000D02*
X218475000Y-59400000D01*
D12*
X201875000Y-57000000D02*
X220875000Y-57000000D01*
X220875000Y-76000000D01*
X201875000Y-76000000D01*
X201875000Y-57000000D01*
D11*
%TO.C,SW29*%
X156775000Y-78400000D02*
X156775000Y-92600000D01*
X156775000Y-92600000D02*
X170975000Y-92600000D01*
X170975000Y-78400000D02*
X156775000Y-78400000D01*
X170975000Y-92600000D02*
X170975000Y-78400000D01*
D12*
X154375000Y-76000000D02*
X173375000Y-76000000D01*
X173375000Y-95000000D01*
X154375000Y-95000000D01*
X154375000Y-76000000D01*
D11*
%TO.C,SW21*%
X147275000Y-59400000D02*
X147275000Y-73600000D01*
X147275000Y-73600000D02*
X161475000Y-73600000D01*
X161475000Y-59400000D02*
X147275000Y-59400000D01*
X161475000Y-73600000D02*
X161475000Y-59400000D01*
D12*
X144875000Y-57000000D02*
X163875000Y-57000000D01*
X163875000Y-76000000D01*
X144875000Y-76000000D01*
X144875000Y-57000000D01*
D11*
%TO.C,SW11*%
X71275000Y-59400000D02*
X71275000Y-73600000D01*
X71275000Y-73600000D02*
X85475000Y-73600000D01*
X85475000Y-59400000D02*
X71275000Y-59400000D01*
X85475000Y-73600000D02*
X85475000Y-59400000D01*
D12*
X68875000Y-57000000D02*
X87875000Y-57000000D01*
X87875000Y-76000000D01*
X68875000Y-76000000D01*
X68875000Y-57000000D01*
D11*
%TO.C,SW34*%
X80775000Y-78400000D02*
X80775000Y-92600000D01*
X80775000Y-92600000D02*
X94975000Y-92600000D01*
X94975000Y-78400000D02*
X80775000Y-78400000D01*
X94975000Y-92600000D02*
X94975000Y-78400000D01*
D12*
X78375000Y-76000000D02*
X97375000Y-76000000D01*
X97375000Y-95000000D01*
X78375000Y-95000000D01*
X78375000Y-76000000D01*
D11*
%TO.C,SW24*%
X239900000Y-40400000D02*
X239900000Y-54600000D01*
X239900000Y-54600000D02*
X254100000Y-54600000D01*
X254100000Y-40400000D02*
X239900000Y-40400000D01*
X254100000Y-54600000D02*
X254100000Y-40400000D01*
D12*
X235125000Y-38000000D02*
X258875000Y-38000000D01*
X258875000Y-57000000D01*
X235125000Y-57000000D01*
X235125000Y-38000000D01*
D11*
%TO.C,SW31*%
X223275000Y-59400000D02*
X223275000Y-73600000D01*
X223275000Y-73600000D02*
X237475000Y-73600000D01*
X237475000Y-59400000D02*
X223275000Y-59400000D01*
X237475000Y-73600000D02*
X237475000Y-59400000D01*
D12*
X220875000Y-57000000D02*
X239875000Y-57000000D01*
X239875000Y-76000000D01*
X220875000Y-76000000D01*
X220875000Y-57000000D01*
D11*
%TO.C,SW22*%
X175775000Y-78400000D02*
X175775000Y-92600000D01*
X175775000Y-92600000D02*
X189975000Y-92600000D01*
X189975000Y-78400000D02*
X175775000Y-78400000D01*
X189975000Y-92600000D02*
X189975000Y-78400000D01*
D12*
X173375000Y-76000000D02*
X192375000Y-76000000D01*
X192375000Y-95000000D01*
X173375000Y-95000000D01*
X173375000Y-76000000D01*
D11*
%TO.C,SW13*%
X142525000Y-40400000D02*
X142525000Y-54600000D01*
X142525000Y-54600000D02*
X156725000Y-54600000D01*
X156725000Y-40400000D02*
X142525000Y-40400000D01*
X156725000Y-54600000D02*
X156725000Y-40400000D01*
D12*
X140125000Y-38000000D02*
X159125000Y-38000000D01*
X159125000Y-57000000D01*
X140125000Y-57000000D01*
X140125000Y-38000000D01*
D11*
%TO.C,SW3*%
X85525000Y-40400000D02*
X85525000Y-54600000D01*
X85525000Y-54600000D02*
X99725000Y-54600000D01*
X99725000Y-40400000D02*
X85525000Y-40400000D01*
X99725000Y-54600000D02*
X99725000Y-40400000D01*
D12*
X83125000Y-38000000D02*
X102125000Y-38000000D01*
X102125000Y-57000000D01*
X83125000Y-57000000D01*
X83125000Y-38000000D01*
D11*
%TO.C,SW2*%
X66525000Y-40400000D02*
X66525000Y-54600000D01*
X66525000Y-54600000D02*
X80725000Y-54600000D01*
X80725000Y-40400000D02*
X66525000Y-40400000D01*
X80725000Y-54600000D02*
X80725000Y-40400000D01*
D12*
X64125000Y-38000000D02*
X83125000Y-38000000D01*
X83125000Y-57000000D01*
X64125000Y-57000000D01*
X64125000Y-38000000D01*
D11*
%TO.C,SW4*%
X104525000Y-40400000D02*
X104525000Y-54600000D01*
X104525000Y-54600000D02*
X118725000Y-54600000D01*
X118725000Y-40400000D02*
X104525000Y-40400000D01*
X118725000Y-54600000D02*
X118725000Y-40400000D01*
D12*
X102125000Y-38000000D02*
X121125000Y-38000000D01*
X121125000Y-57000000D01*
X102125000Y-57000000D01*
X102125000Y-38000000D01*
D11*
%TO.C,SW26*%
X61775000Y-78400000D02*
X61775000Y-92600000D01*
X61775000Y-92600000D02*
X75975000Y-92600000D01*
X75975000Y-78400000D02*
X61775000Y-78400000D01*
X75975000Y-92600000D02*
X75975000Y-78400000D01*
D12*
X59375000Y-76000000D02*
X78375000Y-76000000D01*
X78375000Y-95000000D01*
X59375000Y-95000000D01*
X59375000Y-76000000D01*
D11*
%TO.C,SW5*%
X123525000Y-40400000D02*
X123525000Y-54600000D01*
X123525000Y-54600000D02*
X137725000Y-54600000D01*
X137725000Y-40400000D02*
X123525000Y-40400000D01*
X137725000Y-54600000D02*
X137725000Y-40400000D01*
D12*
X121125000Y-38000000D02*
X140125000Y-38000000D01*
X140125000Y-57000000D01*
X121125000Y-57000000D01*
X121125000Y-38000000D01*
D11*
%TO.C,SW10*%
X47525000Y-40400000D02*
X47525000Y-54600000D01*
X47525000Y-54600000D02*
X61725000Y-54600000D01*
X61725000Y-40400000D02*
X47525000Y-40400000D01*
X61725000Y-54600000D02*
X61725000Y-40400000D01*
D12*
X45125000Y-38000000D02*
X64125000Y-38000000D01*
X64125000Y-57000000D01*
X45125000Y-57000000D01*
X45125000Y-38000000D01*
D11*
%TO.C,SW8*%
X199525000Y-40400000D02*
X199525000Y-54600000D01*
X199525000Y-54600000D02*
X213725000Y-54600000D01*
X213725000Y-40400000D02*
X199525000Y-40400000D01*
X213725000Y-54600000D02*
X213725000Y-40400000D01*
D12*
X197125000Y-38000000D02*
X216125000Y-38000000D01*
X216125000Y-57000000D01*
X197125000Y-57000000D01*
X197125000Y-38000000D01*
D11*
%TO.C,SW18*%
X52275000Y-59400000D02*
X52275000Y-73600000D01*
X52275000Y-73600000D02*
X66475000Y-73600000D01*
X66475000Y-59400000D02*
X52275000Y-59400000D01*
X66475000Y-73600000D02*
X66475000Y-59400000D01*
D12*
X49875000Y-57000000D02*
X68875000Y-57000000D01*
X68875000Y-76000000D01*
X49875000Y-76000000D01*
X49875000Y-57000000D01*
D11*
%TO.C,SW16*%
X218525000Y-40400000D02*
X218525000Y-54600000D01*
X218525000Y-54600000D02*
X232725000Y-54600000D01*
X232725000Y-40400000D02*
X218525000Y-40400000D01*
X232725000Y-54600000D02*
X232725000Y-40400000D01*
D12*
X216125000Y-38000000D02*
X235125000Y-38000000D01*
X235125000Y-57000000D01*
X216125000Y-57000000D01*
X216125000Y-38000000D01*
D11*
%TO.C,SW35*%
X99775000Y-78400000D02*
X99775000Y-92600000D01*
X99775000Y-92600000D02*
X113975000Y-92600000D01*
X113975000Y-78400000D02*
X99775000Y-78400000D01*
X113975000Y-92600000D02*
X113975000Y-78400000D01*
D12*
X97375000Y-76000000D02*
X116375000Y-76000000D01*
X116375000Y-95000000D01*
X97375000Y-95000000D01*
X97375000Y-76000000D01*
D11*
%TO.C,SW38*%
X204275000Y-97400000D02*
X204275000Y-111600000D01*
X204275000Y-111600000D02*
X218475000Y-111600000D01*
X218475000Y-97400000D02*
X204275000Y-97400000D01*
X218475000Y-111600000D02*
X218475000Y-97400000D01*
D12*
X201875000Y-95000000D02*
X220875000Y-95000000D01*
X220875000Y-114000000D01*
X201875000Y-114000000D01*
X201875000Y-95000000D01*
D11*
%TO.C,SW30*%
X199525000Y-78400000D02*
X199525000Y-92600000D01*
X199525000Y-92600000D02*
X213725000Y-92600000D01*
X213725000Y-78400000D02*
X199525000Y-78400000D01*
X213725000Y-92600000D02*
X213725000Y-78400000D01*
D12*
X192375000Y-76000000D02*
X220875000Y-76000000D01*
X220875000Y-95000000D01*
X192375000Y-95000000D01*
X192375000Y-76000000D01*
D11*
%TO.C,SW40*%
X242275000Y-97400000D02*
X242275000Y-111600000D01*
X242275000Y-111600000D02*
X256475000Y-111600000D01*
X256475000Y-97400000D02*
X242275000Y-97400000D01*
X256475000Y-111600000D02*
X256475000Y-97400000D01*
D12*
X239875000Y-95000000D02*
X258875000Y-95000000D01*
X258875000Y-114000000D01*
X239875000Y-114000000D01*
X239875000Y-95000000D01*
D11*
%TO.C,SW36*%
X135268750Y-97400000D02*
X135268750Y-111600000D01*
X135268750Y-111600000D02*
X149468750Y-111600000D01*
X149468750Y-97400000D02*
X135268750Y-97400000D01*
X149468750Y-111600000D02*
X149468750Y-97400000D01*
D12*
X82993750Y-95000000D02*
X201743750Y-95000000D01*
X201743750Y-114000000D01*
X82993750Y-114000000D01*
X82993750Y-95000000D01*
D11*
%TO.C,SW6*%
X161525000Y-40400000D02*
X161525000Y-54600000D01*
X161525000Y-54600000D02*
X175725000Y-54600000D01*
X175725000Y-40400000D02*
X161525000Y-40400000D01*
X175725000Y-54600000D02*
X175725000Y-40400000D01*
D12*
X159125000Y-38000000D02*
X178125000Y-38000000D01*
X178125000Y-57000000D01*
X159125000Y-57000000D01*
X159125000Y-38000000D01*
D11*
%TO.C,SW1*%
X28525000Y-40400000D02*
X28525000Y-54600000D01*
X28525000Y-54600000D02*
X42725000Y-54600000D01*
X42725000Y-40400000D02*
X28525000Y-40400000D01*
X42725000Y-54600000D02*
X42725000Y-40400000D01*
D12*
X26125000Y-38000000D02*
X45125000Y-38000000D01*
X45125000Y-57000000D01*
X26125000Y-57000000D01*
X26125000Y-38000000D01*
D11*
%TO.C,SW7*%
X180525000Y-40400000D02*
X180525000Y-54600000D01*
X180525000Y-54600000D02*
X194725000Y-54600000D01*
X194725000Y-40400000D02*
X180525000Y-40400000D01*
X194725000Y-54600000D02*
X194725000Y-40400000D01*
D12*
X178125000Y-38000000D02*
X197125000Y-38000000D01*
X197125000Y-57000000D01*
X178125000Y-57000000D01*
X178125000Y-38000000D01*
%TD*%
%LPC*%
D13*
%TO.C,SW19*%
X97375000Y-66500000D03*
%TD*%
%TO.C,SW28*%
X144875000Y-85500000D03*
%TD*%
%TO.C,SW17*%
X42750000Y-85500000D03*
%TD*%
%TO.C,SW9*%
X38000000Y-66500000D03*
%TD*%
%TO.C,SW15*%
X192375000Y-66500000D03*
%TD*%
%TO.C,SW37*%
X230375000Y-85500000D03*
%TD*%
%TO.C,SW20*%
X125875000Y-85500000D03*
%TD*%
%TO.C,SW27*%
X116375000Y-66500000D03*
%TD*%
%TO.C,SW25*%
X66500000Y-104500000D03*
%TD*%
%TO.C,SW33*%
X38000000Y-104500000D03*
%TD*%
%TO.C,SW32*%
X249375000Y-76000000D03*
%TD*%
%TO.C,SW12*%
X135375000Y-66500000D03*
%TD*%
%TO.C,SW14*%
X173375000Y-66500000D03*
%TD*%
%TO.C,SW39*%
X230375000Y-104500000D03*
%TD*%
%TO.C,SW23*%
X211375000Y-66500000D03*
%TD*%
%TO.C,SW29*%
X163875000Y-85500000D03*
%TD*%
%TO.C,SW21*%
X154375000Y-66500000D03*
%TD*%
%TO.C,SW11*%
X78375000Y-66500000D03*
%TD*%
%TO.C,SW34*%
X87875000Y-85500000D03*
%TD*%
%TO.C,SW24*%
X247000000Y-47500000D03*
%TD*%
%TO.C,SW31*%
X230375000Y-66500000D03*
%TD*%
%TO.C,SW22*%
X182875000Y-85500000D03*
%TD*%
%TO.C,SW13*%
X149625000Y-47500000D03*
%TD*%
%TO.C,SW3*%
X92625000Y-47500000D03*
%TD*%
%TO.C,SW2*%
X73625000Y-47500000D03*
%TD*%
%TO.C,SW4*%
X111625000Y-47500000D03*
%TD*%
%TO.C,SW26*%
X68875000Y-85500000D03*
%TD*%
%TO.C,SW5*%
X130625000Y-47500000D03*
%TD*%
%TO.C,SW10*%
X54625000Y-47500000D03*
%TD*%
%TO.C,SW8*%
X206625000Y-47500000D03*
%TD*%
%TO.C,SW18*%
X59375000Y-66500000D03*
%TD*%
%TO.C,SW16*%
X225625000Y-47500000D03*
%TD*%
%TO.C,SW35*%
X106875000Y-85500000D03*
%TD*%
%TO.C,SW38*%
X211375000Y-104500000D03*
%TD*%
%TO.C,SW30*%
X206625000Y-85500000D03*
%TD*%
%TO.C,SW40*%
X249375000Y-104500000D03*
%TD*%
%TO.C,SW36*%
X142368750Y-104500000D03*
%TD*%
%TO.C,SW6*%
X168625000Y-47500000D03*
%TD*%
%TO.C,SW1*%
X35625000Y-47500000D03*
%TD*%
%TO.C,SW7*%
X187625000Y-47500000D03*
%TD*%
D14*
%TO.C,D4*%
X121285000Y-43690000D03*
D15*
X121285000Y-51310000D03*
%TD*%
D14*
%TO.C,D20*%
X135375000Y-81690000D03*
D15*
X135375000Y-89310000D03*
%TD*%
D14*
%TO.C,D17*%
X52250000Y-81690000D03*
D15*
X52250000Y-89310000D03*
%TD*%
D14*
%TO.C,D29*%
X173375000Y-82630000D03*
D15*
X173375000Y-90250000D03*
%TD*%
D14*
%TO.C,D27*%
X125875000Y-62690000D03*
D15*
X125875000Y-70310000D03*
%TD*%
D14*
%TO.C,D31*%
X234185000Y-57000000D03*
D15*
X226565000Y-57000000D03*
%TD*%
D14*
%TO.C,D19*%
X106875000Y-62690000D03*
D15*
X106875000Y-70310000D03*
%TD*%
D14*
%TO.C,D40*%
X253185000Y-95000000D03*
D15*
X245565000Y-95000000D03*
%TD*%
D16*
%TO.C,J2*%
X157480000Y-107950000D03*
D17*
X160020000Y-107950000D03*
X162560000Y-107950000D03*
X165100000Y-107950000D03*
X167640000Y-107950000D03*
X170180000Y-107950000D03*
X172720000Y-107950000D03*
X175260000Y-107950000D03*
%TD*%
D14*
%TO.C,D2*%
X83125000Y-43690000D03*
D15*
X83125000Y-51310000D03*
%TD*%
D14*
%TO.C,D15*%
X201875000Y-62690000D03*
D15*
X201875000Y-70310000D03*
%TD*%
D14*
%TO.C,D24*%
X256500000Y-43690000D03*
D15*
X256500000Y-51310000D03*
%TD*%
D14*
%TO.C,D10*%
X64125000Y-43690000D03*
D15*
X64125000Y-51310000D03*
%TD*%
D14*
%TO.C,D23*%
X220875000Y-62690000D03*
D15*
X220875000Y-70310000D03*
%TD*%
D14*
%TO.C,D6*%
X178125000Y-43690000D03*
D15*
X178125000Y-51310000D03*
%TD*%
D14*
%TO.C,D34*%
X97375000Y-81690000D03*
D15*
X97375000Y-89310000D03*
%TD*%
D14*
%TO.C,D25*%
X76000000Y-100690000D03*
D15*
X76000000Y-108310000D03*
%TD*%
D14*
%TO.C,D7*%
X197125000Y-43690000D03*
D15*
X197125000Y-51310000D03*
%TD*%
D14*
%TO.C,D32*%
X239875000Y-72190000D03*
D15*
X239875000Y-79810000D03*
%TD*%
D14*
%TO.C,D26*%
X78375000Y-81690000D03*
D15*
X78375000Y-89310000D03*
%TD*%
D14*
%TO.C,D39*%
X239875000Y-100690000D03*
D15*
X239875000Y-108310000D03*
%TD*%
D14*
%TO.C,D11*%
X87875000Y-62690000D03*
D15*
X87875000Y-70310000D03*
%TD*%
D14*
%TO.C,D22*%
X192375000Y-81690000D03*
D15*
X192375000Y-89310000D03*
%TD*%
D14*
%TO.C,D37*%
X220875000Y-81690000D03*
D15*
X220875000Y-89310000D03*
%TD*%
D14*
%TO.C,D21*%
X163875000Y-62690000D03*
D15*
X163875000Y-70310000D03*
%TD*%
D16*
%TO.C,J1*%
X129540000Y-107950000D03*
D17*
X127000000Y-107950000D03*
X124460000Y-107950000D03*
X121920000Y-107950000D03*
X119380000Y-107950000D03*
%TD*%
D14*
%TO.C,D30*%
X216125000Y-81690000D03*
D15*
X216125000Y-89310000D03*
%TD*%
D14*
%TO.C,D28*%
X154375000Y-81690000D03*
D15*
X154375000Y-89310000D03*
%TD*%
D14*
%TO.C,D3*%
X102235000Y-43690000D03*
D15*
X102235000Y-51310000D03*
%TD*%
D14*
%TO.C,D38*%
X220875000Y-100690000D03*
D15*
X220875000Y-108310000D03*
%TD*%
D14*
%TO.C,D12*%
X144875000Y-62690000D03*
D15*
X144875000Y-70310000D03*
%TD*%
D14*
%TO.C,D9*%
X47500000Y-62690000D03*
D15*
X47500000Y-70310000D03*
%TD*%
D14*
%TO.C,D35*%
X116375000Y-81690000D03*
D15*
X116375000Y-89310000D03*
%TD*%
D14*
%TO.C,D18*%
X68875000Y-62690000D03*
D15*
X68875000Y-70310000D03*
%TD*%
D14*
%TO.C,D36*%
X152000000Y-100690000D03*
D15*
X152000000Y-108310000D03*
%TD*%
D14*
%TO.C,D33*%
X47500000Y-100690000D03*
D15*
X47500000Y-108310000D03*
%TD*%
D14*
%TO.C,D16*%
X235125000Y-43690000D03*
D15*
X235125000Y-51310000D03*
%TD*%
D14*
%TO.C,D5*%
X140335000Y-43690000D03*
D15*
X140335000Y-51310000D03*
%TD*%
D14*
%TO.C,D8*%
X216125000Y-43690000D03*
D15*
X216125000Y-51310000D03*
%TD*%
D14*
%TO.C,D13*%
X159125000Y-43690000D03*
D15*
X159125000Y-51310000D03*
%TD*%
D14*
%TO.C,D1*%
X45125000Y-43690000D03*
D15*
X45125000Y-51310000D03*
%TD*%
D14*
%TO.C,D14*%
X182875000Y-62690000D03*
D15*
X182875000Y-70310000D03*
%TD*%
%LPD*%
M02*
