%TF.GenerationSoftware,KiCad,Pcbnew,8.0.3*%
%TF.CreationDate,2024-07-17T12:37:23+01:00*%
%TF.ProjectId,keyboard,6b657962-6f61-4726-942e-6b696361645f,rev?*%
%TF.SameCoordinates,Original*%
%TF.FileFunction,Soldermask,Bot*%
%TF.FilePolarity,Negative*%
%FSLAX46Y46*%
G04 Gerber Fmt 4.6, Leading zero omitted, Abs format (unit mm)*
G04 Created by KiCad (PCBNEW 8.0.3) date 2024-07-17 12:37:23*
%MOMM*%
%LPD*%
G01*
G04 APERTURE LIST*
%ADD10C,4.400000*%
%ADD11C,2.200000*%
%ADD12R,1.600000X1.600000*%
%ADD13O,1.600000X1.600000*%
%ADD14R,1.700000X1.700000*%
%ADD15O,1.700000X1.700000*%
G04 APERTURE END LIST*
D10*
%TO.C,SW40*%
X249375000Y-104500000D03*
D11*
X253175000Y-108300000D03*
X249375000Y-111000000D03*
%TD*%
D10*
%TO.C,SW39*%
X230375000Y-104500000D03*
D11*
X234175000Y-108300000D03*
X230375000Y-111000000D03*
%TD*%
D10*
%TO.C,SW38*%
X211375000Y-104500000D03*
D11*
X215175000Y-108300000D03*
X211375000Y-111000000D03*
%TD*%
D10*
%TO.C,SW37*%
X230375000Y-85500000D03*
D11*
X234175000Y-89300000D03*
X230375000Y-92000000D03*
%TD*%
D10*
%TO.C,SW36*%
X142368750Y-104500000D03*
D11*
X146168750Y-108300000D03*
X142368750Y-111000000D03*
%TD*%
D10*
%TO.C,SW35*%
X106875000Y-85500000D03*
D11*
X110675000Y-89300000D03*
X106875000Y-92000000D03*
%TD*%
D10*
%TO.C,SW34*%
X87875000Y-85500000D03*
D11*
X91675000Y-89300000D03*
X87875000Y-92000000D03*
%TD*%
D10*
%TO.C,SW33*%
X40375000Y-104500000D03*
D11*
X44175000Y-108300000D03*
X40375000Y-111000000D03*
%TD*%
D10*
%TO.C,SW32*%
X249375000Y-76000000D03*
D11*
X253175000Y-72200000D03*
X255875000Y-76000000D03*
%TD*%
D10*
%TO.C,SW31*%
X230375000Y-66500000D03*
D11*
X234175000Y-70300000D03*
X230375000Y-73000000D03*
%TD*%
D10*
%TO.C,SW30*%
X206625000Y-85500000D03*
D11*
X210425000Y-89300000D03*
X206625000Y-92000000D03*
%TD*%
D10*
%TO.C,SW29*%
X163875000Y-85500000D03*
D11*
X167675000Y-89300000D03*
X163875000Y-92000000D03*
%TD*%
D10*
%TO.C,SW28*%
X144875000Y-85500000D03*
D11*
X148675000Y-89300000D03*
X144875000Y-92000000D03*
%TD*%
D10*
%TO.C,SW27*%
X116375000Y-66500000D03*
D11*
X120175000Y-70300000D03*
X116375000Y-73000000D03*
%TD*%
D10*
%TO.C,SW26*%
X68875000Y-85500000D03*
D11*
X72675000Y-89300000D03*
X68875000Y-92000000D03*
%TD*%
D10*
%TO.C,SW25*%
X68875000Y-104500000D03*
D11*
X72675000Y-108300000D03*
X68875000Y-111000000D03*
%TD*%
D10*
%TO.C,SW24*%
X247000000Y-47500000D03*
D11*
X250800000Y-51300000D03*
X247000000Y-54000000D03*
%TD*%
D10*
%TO.C,SW23*%
X211375000Y-66500000D03*
D11*
X215175000Y-70300000D03*
X211375000Y-73000000D03*
%TD*%
D10*
%TO.C,SW22*%
X182875000Y-85500000D03*
D11*
X186675000Y-89300000D03*
X182875000Y-92000000D03*
%TD*%
D10*
%TO.C,SW21*%
X154375000Y-66500000D03*
D11*
X158175000Y-70300000D03*
X154375000Y-73000000D03*
%TD*%
D10*
%TO.C,SW20*%
X125875000Y-85500000D03*
D11*
X129675000Y-89300000D03*
X125875000Y-92000000D03*
%TD*%
D10*
%TO.C,SW19*%
X97375000Y-66500000D03*
D11*
X101175000Y-70300000D03*
X97375000Y-73000000D03*
%TD*%
D10*
%TO.C,SW18*%
X59375000Y-66500000D03*
D11*
X63175000Y-70300000D03*
X59375000Y-73000000D03*
%TD*%
D10*
%TO.C,SW17*%
X42750000Y-85500000D03*
D11*
X46550000Y-89300000D03*
X42750000Y-92000000D03*
%TD*%
D10*
%TO.C,SW16*%
X225625000Y-47500000D03*
D11*
X229425000Y-51300000D03*
X225625000Y-54000000D03*
%TD*%
D10*
%TO.C,SW15*%
X192375000Y-66500000D03*
D11*
X196175000Y-70300000D03*
X192375000Y-73000000D03*
%TD*%
D10*
%TO.C,SW14*%
X173375000Y-66500000D03*
D11*
X177175000Y-70300000D03*
X173375000Y-73000000D03*
%TD*%
D10*
%TO.C,SW13*%
X149625000Y-47500000D03*
D11*
X153425000Y-51300000D03*
X149625000Y-54000000D03*
%TD*%
D10*
%TO.C,SW12*%
X135375000Y-66500000D03*
D11*
X139175000Y-70300000D03*
X135375000Y-73000000D03*
%TD*%
D10*
%TO.C,SW11*%
X78375000Y-66500000D03*
D11*
X82175000Y-70300000D03*
X78375000Y-73000000D03*
%TD*%
D10*
%TO.C,SW10*%
X54625000Y-47500000D03*
D11*
X58425000Y-51300000D03*
X54625000Y-54000000D03*
%TD*%
D10*
%TO.C,SW9*%
X38000000Y-66500000D03*
D11*
X41800000Y-70300000D03*
X38000000Y-73000000D03*
%TD*%
D10*
%TO.C,SW8*%
X206625000Y-47500000D03*
D11*
X210425000Y-51300000D03*
X206625000Y-54000000D03*
%TD*%
D10*
%TO.C,SW7*%
X187625000Y-47500000D03*
D11*
X191425000Y-51300000D03*
X187625000Y-54000000D03*
%TD*%
D10*
%TO.C,SW6*%
X168625000Y-47500000D03*
D11*
X172425000Y-51300000D03*
X168625000Y-54000000D03*
%TD*%
D10*
%TO.C,SW5*%
X130625000Y-47500000D03*
D11*
X134425000Y-51300000D03*
X130625000Y-54000000D03*
%TD*%
D10*
%TO.C,SW4*%
X111625000Y-47500000D03*
D11*
X115425000Y-51300000D03*
X111625000Y-54000000D03*
%TD*%
D10*
%TO.C,SW3*%
X92625000Y-47500000D03*
D11*
X96425000Y-51300000D03*
X92625000Y-54000000D03*
%TD*%
D10*
%TO.C,SW2*%
X73625000Y-47500000D03*
D11*
X77425000Y-51300000D03*
X73625000Y-54000000D03*
%TD*%
D10*
%TO.C,SW1*%
X35625000Y-47500000D03*
D11*
X39425000Y-51300000D03*
X35625000Y-54000000D03*
%TD*%
D12*
%TO.C,D4*%
X121285000Y-43690000D03*
D13*
X121285000Y-51310000D03*
%TD*%
D12*
%TO.C,D20*%
X135375000Y-81690000D03*
D13*
X135375000Y-89310000D03*
%TD*%
D12*
%TO.C,D17*%
X52250000Y-81690000D03*
D13*
X52250000Y-89310000D03*
%TD*%
D12*
%TO.C,D29*%
X173375000Y-82630000D03*
D13*
X173375000Y-90250000D03*
%TD*%
D12*
%TO.C,D27*%
X125875000Y-62690000D03*
D13*
X125875000Y-70310000D03*
%TD*%
D12*
%TO.C,D31*%
X234185000Y-57000000D03*
D13*
X226565000Y-57000000D03*
%TD*%
D12*
%TO.C,D19*%
X106875000Y-62690000D03*
D13*
X106875000Y-70310000D03*
%TD*%
D12*
%TO.C,D40*%
X253185000Y-95000000D03*
D13*
X245565000Y-95000000D03*
%TD*%
D14*
%TO.C,J2*%
X175250000Y-108000000D03*
D15*
X172710000Y-108000000D03*
X170170000Y-108000000D03*
X167630000Y-108000000D03*
X165090000Y-108000000D03*
X162550000Y-108000000D03*
X160010000Y-108000000D03*
X157470000Y-108000000D03*
%TD*%
D12*
%TO.C,D2*%
X83125000Y-43690000D03*
D13*
X83125000Y-51310000D03*
%TD*%
D12*
%TO.C,D15*%
X201875000Y-62690000D03*
D13*
X201875000Y-70310000D03*
%TD*%
D12*
%TO.C,D24*%
X256500000Y-43690000D03*
D13*
X256500000Y-51310000D03*
%TD*%
D12*
%TO.C,D10*%
X64125000Y-43690000D03*
D13*
X64125000Y-51310000D03*
%TD*%
D12*
%TO.C,D23*%
X220875000Y-62690000D03*
D13*
X220875000Y-70310000D03*
%TD*%
D12*
%TO.C,D6*%
X178125000Y-43690000D03*
D13*
X178125000Y-51310000D03*
%TD*%
D12*
%TO.C,D34*%
X97375000Y-81690000D03*
D13*
X97375000Y-89310000D03*
%TD*%
D12*
%TO.C,D25*%
X78375000Y-100690000D03*
D13*
X78375000Y-108310000D03*
%TD*%
D12*
%TO.C,D7*%
X197125000Y-43690000D03*
D13*
X197125000Y-51310000D03*
%TD*%
D12*
%TO.C,D32*%
X239875000Y-72190000D03*
D13*
X239875000Y-79810000D03*
%TD*%
D12*
%TO.C,D26*%
X78375000Y-81690000D03*
D13*
X78375000Y-89310000D03*
%TD*%
D12*
%TO.C,D39*%
X239875000Y-100690000D03*
D13*
X239875000Y-108310000D03*
%TD*%
D12*
%TO.C,D11*%
X87875000Y-62690000D03*
D13*
X87875000Y-70310000D03*
%TD*%
D12*
%TO.C,D22*%
X192375000Y-81690000D03*
D13*
X192375000Y-89310000D03*
%TD*%
D12*
%TO.C,D37*%
X220875000Y-81690000D03*
D13*
X220875000Y-89310000D03*
%TD*%
D12*
%TO.C,D21*%
X163875000Y-62690000D03*
D13*
X163875000Y-70310000D03*
%TD*%
D14*
%TO.C,J1*%
X129540000Y-107950000D03*
D15*
X127000000Y-107950000D03*
X124460000Y-107950000D03*
X121920000Y-107950000D03*
X119380000Y-107950000D03*
X116840000Y-107950000D03*
%TD*%
D12*
%TO.C,D30*%
X216125000Y-81690000D03*
D13*
X216125000Y-89310000D03*
%TD*%
D12*
%TO.C,D28*%
X154375000Y-81690000D03*
D13*
X154375000Y-89310000D03*
%TD*%
D12*
%TO.C,D3*%
X102235000Y-43690000D03*
D13*
X102235000Y-51310000D03*
%TD*%
D12*
%TO.C,D38*%
X220875000Y-100690000D03*
D13*
X220875000Y-108310000D03*
%TD*%
D12*
%TO.C,D12*%
X144875000Y-62690000D03*
D13*
X144875000Y-70310000D03*
%TD*%
D12*
%TO.C,D9*%
X47500000Y-62690000D03*
D13*
X47500000Y-70310000D03*
%TD*%
D12*
%TO.C,D35*%
X116375000Y-81690000D03*
D13*
X116375000Y-89310000D03*
%TD*%
D12*
%TO.C,D18*%
X68875000Y-62690000D03*
D13*
X68875000Y-70310000D03*
%TD*%
D12*
%TO.C,D36*%
X152000000Y-102870000D03*
D13*
X152000000Y-110490000D03*
%TD*%
D12*
%TO.C,D33*%
X49875000Y-100690000D03*
D13*
X49875000Y-108310000D03*
%TD*%
D12*
%TO.C,D16*%
X235125000Y-43690000D03*
D13*
X235125000Y-51310000D03*
%TD*%
D12*
%TO.C,D5*%
X140335000Y-43690000D03*
D13*
X140335000Y-51310000D03*
%TD*%
D12*
%TO.C,D8*%
X216125000Y-43690000D03*
D13*
X216125000Y-51310000D03*
%TD*%
D12*
%TO.C,D13*%
X159125000Y-43690000D03*
D13*
X159125000Y-51310000D03*
%TD*%
D12*
%TO.C,D1*%
X45125000Y-43690000D03*
D13*
X45125000Y-51310000D03*
%TD*%
D12*
%TO.C,D14*%
X182875000Y-62690000D03*
D13*
X182875000Y-70310000D03*
%TD*%
G36*
X262001751Y-47500049D02*
G01*
X262072024Y-47502016D01*
X262096147Y-47505076D01*
X262234872Y-47536739D01*
X262261081Y-47545910D01*
X262387699Y-47606886D01*
X262411210Y-47621659D01*
X262521084Y-47709281D01*
X262540718Y-47728915D01*
X262628340Y-47838789D01*
X262643113Y-47862300D01*
X262704089Y-47988918D01*
X262713260Y-48015127D01*
X262744923Y-48153852D01*
X262747983Y-48177974D01*
X262749951Y-48248248D01*
X262750000Y-48251719D01*
X262750000Y-65498280D01*
X262749951Y-65501751D01*
X262747983Y-65572025D01*
X262744923Y-65596147D01*
X262713260Y-65734872D01*
X262704089Y-65761081D01*
X262643113Y-65887699D01*
X262628340Y-65911210D01*
X262540718Y-66021084D01*
X262521084Y-66040718D01*
X262411210Y-66128340D01*
X262387699Y-66143113D01*
X262261081Y-66204089D01*
X262234872Y-66213260D01*
X262096147Y-66244923D01*
X262072025Y-66247983D01*
X262001752Y-66249951D01*
X261998281Y-66250000D01*
X259874000Y-66250000D01*
X259806961Y-66230315D01*
X259761206Y-66177511D01*
X259750000Y-66126000D01*
X259750000Y-47624000D01*
X259769685Y-47556961D01*
X259822489Y-47511206D01*
X259874000Y-47500000D01*
X261998281Y-47500000D01*
X262001751Y-47500049D01*
G37*
G36*
X262001751Y-85500049D02*
G01*
X262072024Y-85502016D01*
X262096147Y-85505076D01*
X262234872Y-85536739D01*
X262261081Y-85545910D01*
X262387699Y-85606886D01*
X262411210Y-85621659D01*
X262521084Y-85709281D01*
X262540718Y-85728915D01*
X262628340Y-85838789D01*
X262643113Y-85862300D01*
X262704089Y-85988918D01*
X262713260Y-86015127D01*
X262744923Y-86153852D01*
X262747983Y-86177974D01*
X262749951Y-86248248D01*
X262750000Y-86251719D01*
X262750000Y-103498280D01*
X262749951Y-103501751D01*
X262747983Y-103572025D01*
X262744923Y-103596147D01*
X262713260Y-103734872D01*
X262704089Y-103761081D01*
X262643113Y-103887699D01*
X262628340Y-103911210D01*
X262540718Y-104021084D01*
X262521084Y-104040718D01*
X262411210Y-104128340D01*
X262387699Y-104143113D01*
X262261081Y-104204089D01*
X262234872Y-104213260D01*
X262096147Y-104244923D01*
X262072025Y-104247983D01*
X262001752Y-104249951D01*
X261998281Y-104250000D01*
X259874000Y-104250000D01*
X259806961Y-104230315D01*
X259761206Y-104177511D01*
X259750000Y-104126000D01*
X259750000Y-85624000D01*
X259769685Y-85556961D01*
X259822489Y-85511206D01*
X259874000Y-85500000D01*
X261998281Y-85500000D01*
X262001751Y-85500049D01*
G37*
G36*
X25443039Y-47519685D02*
G01*
X25488794Y-47572489D01*
X25500000Y-47624000D01*
X25500000Y-66123410D01*
X25480315Y-66190449D01*
X25427511Y-66236204D01*
X25376151Y-66247410D01*
X23251792Y-66249997D01*
X23248171Y-66249948D01*
X23177975Y-66247983D01*
X23153852Y-66244923D01*
X23015127Y-66213260D01*
X22988918Y-66204089D01*
X22862300Y-66143113D01*
X22838789Y-66128340D01*
X22728915Y-66040718D01*
X22709281Y-66021084D01*
X22621659Y-65911210D01*
X22606886Y-65887699D01*
X22545910Y-65761081D01*
X22536739Y-65734872D01*
X22505076Y-65596147D01*
X22502016Y-65572023D01*
X22500049Y-65501749D01*
X22500000Y-65498280D01*
X22500000Y-48251719D01*
X22500049Y-48248250D01*
X22502016Y-48177976D01*
X22505076Y-48153852D01*
X22536739Y-48015127D01*
X22545910Y-47988918D01*
X22606886Y-47862300D01*
X22621659Y-47838789D01*
X22709281Y-47728915D01*
X22728915Y-47709281D01*
X22838789Y-47621659D01*
X22862300Y-47606886D01*
X22988918Y-47545910D01*
X23015127Y-47536739D01*
X23153852Y-47505076D01*
X23177976Y-47502016D01*
X23248250Y-47500049D01*
X23251719Y-47500000D01*
X25376000Y-47500000D01*
X25443039Y-47519685D01*
G37*
G36*
X25443039Y-85769685D02*
G01*
X25488794Y-85822489D01*
X25500000Y-85874000D01*
X25500000Y-104376000D01*
X25480315Y-104443039D01*
X25427511Y-104488794D01*
X25376000Y-104500000D01*
X23251719Y-104500000D01*
X23248248Y-104499951D01*
X23177974Y-104497983D01*
X23153852Y-104494923D01*
X23015127Y-104463260D01*
X22988918Y-104454089D01*
X22862300Y-104393113D01*
X22838789Y-104378340D01*
X22728915Y-104290718D01*
X22709281Y-104271084D01*
X22621659Y-104161210D01*
X22606886Y-104137699D01*
X22545910Y-104011081D01*
X22536739Y-103984872D01*
X22505076Y-103846147D01*
X22502016Y-103822023D01*
X22500049Y-103751749D01*
X22500000Y-103748280D01*
X22500000Y-86501719D01*
X22500049Y-86498250D01*
X22502016Y-86427976D01*
X22505076Y-86403852D01*
X22536739Y-86265127D01*
X22545910Y-86238918D01*
X22606886Y-86112300D01*
X22621659Y-86088789D01*
X22709281Y-85978915D01*
X22728915Y-85959281D01*
X22838789Y-85871659D01*
X22862300Y-85856886D01*
X22988918Y-85795910D01*
X23015127Y-85786739D01*
X23153852Y-85755076D01*
X23177976Y-85752016D01*
X23248250Y-85750049D01*
X23251719Y-85750000D01*
X25376000Y-85750000D01*
X25443039Y-85769685D01*
G37*
M02*
