M48
; DRILL file {KiCad 8.0.3} date 2024-07-17T12:37:19+0100
; FORMAT={-:-/ absolute / inch / decimal}
; #@! TF.CreationDate,2024-07-17T12:37:19+01:00
; #@! TF.GenerationSoftware,Kicad,Pcbnew,8.0.3
; #@! TF.FileFunction,Plated,1,2,PTH
FMAT,2
INCH
; #@! TA.AperFunction,Plated,PTH,ViaDrill
T1C0.0157
; #@! TA.AperFunction,Plated,PTH,ComponentDrill
T2C0.0315
; #@! TA.AperFunction,Plated,PTH,ComponentDrill
T3C0.0394
; #@! TA.AperFunction,Plated,PTH,ComponentDrill
T4C0.0472
%
G90
G05
T1
X2.8051Y-4.3307
X4.311Y-3.6024
X4.3898Y-3.6024
X4.4685Y-3.6024
X4.5472Y-3.3071
X4.5768Y-3.6024
X4.5866Y-2.2933
X4.5965Y-3.1299
X4.7539Y-4.311
X4.8524Y-4.311
X4.9213Y-2.3917
X4.9508Y-4.311
X5.0Y-2.5492
X7.7756Y-3.6811
X7.7756Y-3.7894
X7.7756Y-3.9075
X9.3701Y-4.3898
T2
X1.7766Y-1.7201
X1.7766Y-2.0201
X1.8701Y-2.4681
X1.8701Y-2.7681
X1.9636Y-3.9642
X1.9636Y-4.2642
X2.0571Y-3.2161
X2.0571Y-3.5161
X2.5246Y-1.7201
X2.5246Y-2.0201
X2.7116Y-2.4681
X2.7116Y-2.7681
X3.0856Y-3.2161
X3.0856Y-3.5161
X3.0856Y-3.9642
X3.0856Y-4.2642
X3.2726Y-1.7201
X3.2726Y-2.0201
X3.4596Y-2.4681
X3.4596Y-2.7681
X3.8337Y-3.2161
X3.8337Y-3.5161
X4.025Y-1.7201
X4.025Y-2.0201
X4.2077Y-2.4681
X4.2077Y-2.7681
X4.5817Y-3.2161
X4.5817Y-3.5161
X4.775Y-1.7201
X4.775Y-2.0201
X4.9557Y-2.4681
X4.9557Y-2.7681
X5.3297Y-3.2161
X5.3297Y-3.5161
X5.525Y-1.7201
X5.525Y-2.0201
X5.7037Y-2.4681
X5.7037Y-2.7681
X5.9843Y-4.05
X5.9843Y-4.35
X6.0778Y-3.2161
X6.0778Y-3.5161
X6.2648Y-1.7201
X6.2648Y-2.0201
X6.4518Y-2.4681
X6.4518Y-2.7681
X6.8258Y-3.2531
X6.8258Y-3.5531
X7.0128Y-1.7201
X7.0128Y-2.0201
X7.1998Y-2.4681
X7.1998Y-2.7681
X7.5738Y-3.2161
X7.5738Y-3.5161
X7.7608Y-1.7201
X7.7608Y-2.0201
X7.9478Y-2.4681
X7.9478Y-2.7681
X8.5089Y-1.7201
X8.5089Y-2.0201
X8.5089Y-3.2161
X8.5089Y-3.5161
X8.6959Y-2.4681
X8.6959Y-2.7681
X8.6959Y-3.2161
X8.6959Y-3.5161
X8.6959Y-3.9642
X8.6959Y-4.2642
X8.9199Y-2.2441
X9.2199Y-2.2441
X9.2569Y-1.7201
X9.2569Y-2.0201
X9.4439Y-2.8421
X9.4439Y-3.1421
X9.4439Y-3.9642
X9.4439Y-4.2642
X9.6679Y-3.7402
X9.9679Y-3.7402
X10.0984Y-1.7201
X10.0984Y-2.0201
T3
X4.6Y-4.25
X4.7Y-4.25
X4.8Y-4.25
X4.9Y-4.25
X5.0Y-4.25
X5.1Y-4.25
X6.1996Y-4.252
X6.2996Y-4.252
X6.3996Y-4.252
X6.4996Y-4.252
X6.5996Y-4.252
X6.6996Y-4.252
X6.7996Y-4.252
X6.8996Y-4.252
T4
X1.4026Y-2.126
X1.4961Y-2.874
X1.5522Y-2.0197
X1.5896Y-4.3701
X1.6457Y-2.7677
X1.6831Y-3.622
X1.7392Y-4.2638
X1.8327Y-3.5157
X2.1506Y-2.126
X2.3002Y-2.0197
X2.3376Y-2.874
X2.4872Y-2.7677
X2.7116Y-3.622
X2.7116Y-4.3701
X2.8612Y-3.5157
X2.8612Y-4.2638
X2.8986Y-2.126
X3.0482Y-2.0197
X3.0856Y-2.874
X3.2352Y-2.7677
X3.4596Y-3.622
X3.6093Y-3.5157
X3.6467Y-2.126
X3.7963Y-2.0197
X3.8337Y-2.874
X3.9833Y-2.7677
X4.2077Y-3.622
X4.3573Y-3.5157
X4.3947Y-2.126
X4.5443Y-2.0197
X4.5817Y-2.874
X4.7313Y-2.7677
X4.9557Y-3.622
X5.1053Y-3.5157
X5.1427Y-2.126
X5.2923Y-2.0197
X5.3297Y-2.874
X5.4793Y-2.7677
X5.6051Y-4.3701
X5.7037Y-3.622
X5.7547Y-4.2638
X5.8533Y-3.5157
X5.8907Y-2.126
X6.0404Y-2.0197
X6.0778Y-2.874
X6.2274Y-2.7677
X6.4518Y-3.622
X6.6014Y-3.5157
X6.6388Y-2.126
X6.7884Y-2.0197
X6.8258Y-2.874
X6.9754Y-2.7677
X7.1998Y-3.622
X7.3494Y-3.5157
X7.3868Y-2.126
X7.5364Y-2.0197
X7.5738Y-2.874
X7.7234Y-2.7677
X8.1348Y-2.126
X8.1348Y-3.622
X8.2844Y-2.0197
X8.2844Y-3.5157
X8.3219Y-2.874
X8.3219Y-4.3701
X8.4715Y-2.7677
X8.4715Y-4.2638
X8.8829Y-2.126
X9.0325Y-2.0197
X9.0699Y-2.874
X9.0699Y-3.622
X9.0699Y-4.3701
X9.2195Y-2.7677
X9.2195Y-3.5157
X9.2195Y-4.2638
X9.7244Y-2.126
X9.8179Y-4.3701
X9.874Y-2.0197
X9.9675Y-2.8425
X9.9675Y-4.2638
X10.0738Y-2.9921
M30
