M48
; DRILL file {KiCad 7.0.10} date qui 25 abr 2024 18:18:43
; FORMAT={-:-/ absolute / inch / decimal}
; #@! TF.CreationDate,2024-04-25T18:18:43+01:00
; #@! TF.GenerationSoftware,Kicad,Pcbnew,7.0.10
; #@! TF.FileFunction,Plated,1,2,PTH
FMAT,2
INCH
; #@! TA.AperFunction,Plated,PTH,ComponentDrill
T1C0.0315
; #@! TA.AperFunction,Plated,PTH,ComponentDrill
T2C0.0394
; #@! TA.AperFunction,Plated,PTH,ComponentDrill
T3C0.0500
; #@! TA.AperFunction,Plated,PTH,ComponentDrill
T4C0.0591
; #@! TA.AperFunction,Plated,PTH,ComponentDrill
T5C0.1200
%
G90
G05
T1
X1.775Y-1.775
X1.775Y-2.075
X1.9Y-2.425
X1.9Y-2.725
X2.075Y-3.2
X2.075Y-3.5
X2.1Y-4.0
X2.1Y-4.3
X2.525Y-1.75
X2.525Y-2.05
X2.7Y-2.45
X2.7Y-2.75
X2.9Y-3.225
X2.9Y-3.525
X3.05Y-3.95
X3.05Y-4.25
X3.275Y-1.75
X3.275Y-2.05
X3.45Y-2.45
X3.45Y-2.75
X3.65Y-3.225
X3.65Y-3.525
X4.025Y-1.725
X4.025Y-2.025
X4.05Y-3.96
X4.05Y-4.26
X4.15Y-3.96
X4.15Y-4.26
X4.225Y-2.45
X4.225Y-2.75
X4.25Y-3.96
X4.25Y-4.26
X4.35Y-3.96
X4.35Y-4.26
X4.4Y-3.2
X4.4Y-3.5
X4.45Y-3.96
X4.45Y-4.26
X4.775Y-1.725
X4.775Y-2.025
X4.95Y-2.45
X4.95Y-2.75
X5.15Y-3.225
X5.15Y-3.525
X5.525Y-1.725
X5.525Y-2.025
X5.7Y-2.45
X5.7Y-2.75
X5.9Y-3.2
X5.9Y-3.5
X6.0Y-3.95
X6.0Y-4.25
X6.25Y-1.7
X6.25Y-2.0
X6.45Y-2.475
X6.45Y-2.775
X6.65Y-3.2
X6.65Y-3.5
X7.0Y-1.725
X7.0Y-2.025
X7.2Y-2.475
X7.2Y-2.775
X7.5Y-3.225
X7.5Y-3.525
X7.775Y-1.75
X7.775Y-2.05
X7.95Y-2.45
X7.95Y-2.75
X8.45Y-3.2
X8.45Y-3.5
X8.5Y-1.725
X8.5Y-2.025
X8.675Y-3.2
X8.675Y-3.5
X8.7Y-2.475
X8.7Y-2.775
X8.7Y-3.975
X8.7Y-4.275
X8.9Y-2.25
X9.2Y-2.25
X9.3Y-1.75
X9.3Y-2.05
X9.45Y-2.875
X9.45Y-3.175
X9.45Y-3.95
X9.45Y-4.25
X9.625Y-3.725
X9.925Y-3.725
X10.1Y-1.7
X10.1Y-2.0
T2
X4.7Y-4.25
X4.8Y-4.25
X4.9Y-4.25
X5.0Y-4.25
X5.1Y-4.25
X6.2Y-4.25
X6.3Y-4.25
X6.4Y-4.25
X6.5Y-4.25
X6.6Y-4.25
X6.7Y-4.25
X6.8Y-4.25
X6.9Y-4.25
T3
X1.2057Y-2.0197
X1.2992Y-2.7677
X1.2992Y-4.2638
X1.4026Y-2.1024
X1.4862Y-3.5157
X1.4961Y-2.8504
X1.4961Y-4.3465
X1.6831Y-3.5984
X1.9537Y-2.0197
X2.1407Y-2.7677
X2.1506Y-2.1024
X2.3278Y-3.5157
X2.3376Y-2.8504
X2.4213Y-4.2638
X2.5246Y-3.5984
X2.6181Y-4.3465
X2.7018Y-2.0197
X2.8888Y-2.7677
X2.8986Y-2.1024
X3.0758Y-3.5157
X3.0856Y-2.8504
X3.2726Y-3.5984
X3.4498Y-2.0197
X3.6368Y-2.7677
X3.6467Y-2.1024
X3.8238Y-3.5157
X3.8337Y-2.8504
X4.0207Y-3.5984
X4.1978Y-2.0197
X4.3848Y-2.7677
X4.3947Y-2.1024
X4.5719Y-3.5157
X4.5817Y-2.8504
X4.7687Y-3.5984
X4.9459Y-2.0197
X5.1329Y-2.7677
X5.1427Y-2.1024
X5.3199Y-3.5157
X5.3297Y-2.8504
X5.4134Y-4.2638
X5.5167Y-3.5984
X5.6102Y-4.3465
X5.6939Y-2.0197
X5.8809Y-2.7677
X5.8907Y-2.1024
X6.0679Y-3.5157
X6.0778Y-2.8504
X6.2648Y-3.5984
X6.4419Y-2.0197
X6.6289Y-2.7677
X6.6388Y-2.1024
X6.8159Y-3.5157
X6.8258Y-2.8504
X7.0128Y-3.5984
X7.19Y-2.0197
X7.377Y-2.7677
X7.3868Y-2.1024
X7.5738Y-2.8504
X7.8445Y-3.5157
X7.938Y-2.0197
X8.0413Y-3.5984
X8.125Y-2.7677
X8.125Y-4.2638
X8.1348Y-2.1024
X8.3219Y-2.8504
X8.3219Y-4.3465
X8.686Y-2.0197
X8.873Y-2.7677
X8.873Y-3.5157
X8.873Y-4.2638
X8.8829Y-2.1024
X9.0699Y-2.8504
X9.0699Y-3.5984
X9.0699Y-4.3465
X9.5276Y-2.0197
X9.6211Y-3.1417
X9.6211Y-4.2638
X9.7244Y-2.1024
X9.8179Y-3.2244
X9.8179Y-4.3465
T4
X1.2526Y-1.7701
X1.3461Y-2.5181
X1.3461Y-4.0142
X1.5026Y-1.6701
X1.5331Y-3.2661
X1.5961Y-2.4181
X1.5961Y-3.9142
X1.7831Y-3.1661
X2.0006Y-1.7701
X2.1876Y-2.5181
X2.2506Y-1.6701
X2.3746Y-3.2661
X2.4376Y-2.4181
X2.4681Y-4.0142
X2.6246Y-3.1661
X2.7181Y-3.9142
X2.7486Y-1.7701
X2.9356Y-2.5181
X2.9986Y-1.6701
X3.1226Y-3.2661
X3.1856Y-2.4181
X3.3726Y-3.1661
X3.4967Y-1.7701
X3.6837Y-2.5181
X3.7467Y-1.6701
X3.8707Y-3.2661
X3.9337Y-2.4181
X4.1207Y-3.1661
X4.2447Y-1.7701
X4.4317Y-2.5181
X4.4947Y-1.6701
X4.6187Y-3.2661
X4.6817Y-2.4181
X4.8687Y-3.1661
X4.9927Y-1.7701
X5.1797Y-2.5181
X5.2427Y-1.6701
X5.3667Y-3.2661
X5.4297Y-2.4181
X5.4602Y-4.0142
X5.6167Y-3.1661
X5.7102Y-3.9142
X5.7407Y-1.7701
X5.9278Y-2.5181
X5.9907Y-1.6701
X6.1148Y-3.2661
X6.1778Y-2.4181
X6.3648Y-3.1661
X6.4888Y-1.7701
X6.6758Y-2.5181
X6.7388Y-1.6701
X6.8628Y-3.2661
X6.9258Y-2.4181
X7.1128Y-3.1661
X7.2368Y-1.7701
X7.4238Y-2.5181
X7.4868Y-1.6701
X7.6738Y-2.4181
X7.8913Y-3.2661
X7.9848Y-1.7701
X8.1413Y-3.1661
X8.1719Y-2.5181
X8.1719Y-4.0142
X8.2348Y-1.6701
X8.4219Y-2.4181
X8.4219Y-3.9142
X8.7329Y-1.7701
X8.9199Y-2.5181
X8.9199Y-3.2661
X8.9199Y-4.0142
X8.9829Y-1.6701
X9.1699Y-2.4181
X9.1699Y-3.1661
X9.1699Y-3.9142
X9.5744Y-1.7701
X9.6679Y-2.8921
X9.6679Y-4.0142
X9.8244Y-1.6701
X9.9179Y-2.7921
X9.9179Y-3.9142
T5
X3.6363Y-4.3892
X7.5738Y-4.3892
X10.0929Y-2.5234
X10.0929Y-3.4609
M30
