%TF.GenerationSoftware,KiCad,Pcbnew,8.0.2*%
%TF.CreationDate,2024-05-31T09:53:13+01:00*%
%TF.ProjectId,keyboard,6b657962-6f61-4726-942e-6b696361645f,rev?*%
%TF.SameCoordinates,Original*%
%TF.FileFunction,Profile,NP*%
%FSLAX46Y46*%
G04 Gerber Fmt 4.6, Leading zero omitted, Abs format (unit mm)*
G04 Created by KiCad (PCBNEW 8.0.2) date 2024-05-31 09:53:13*
%MOMM*%
%LPD*%
G01*
G04 APERTURE LIST*
%TA.AperFunction,Profile*%
%ADD10C,0.100000*%
%TD*%
%TA.AperFunction,Profile*%
%ADD11C,0.050000*%
%TD*%
G04 APERTURE END LIST*
D10*
X259575000Y-104250000D02*
X259575000Y-114000000D01*
X261850000Y-85500000D02*
G75*
G02*
X262250000Y-85900000I0J-400000D01*
G01*
X259575000Y-66250000D02*
X259575000Y-85500000D01*
X262247157Y-65847157D02*
G75*
G02*
X261847157Y-66247157I-399957J-43D01*
G01*
X25575000Y-38000000D02*
X259575000Y-38000000D01*
X261847157Y-104247157D02*
X259575000Y-104250000D01*
X262247157Y-103847157D02*
X262250000Y-85900000D01*
X22902843Y-86152843D02*
G75*
G02*
X23302843Y-85752843I399957J43D01*
G01*
X259575000Y-38000000D02*
X259575000Y-47500000D01*
X261850000Y-47500000D02*
X259575000Y-47500000D01*
X23302843Y-85752843D02*
X25575000Y-85750000D01*
X262247157Y-65847157D02*
X262250000Y-47900000D01*
X23300000Y-104500000D02*
G75*
G02*
X22900000Y-104100000I0J400000D01*
G01*
X25575000Y-114000000D02*
X25575000Y-104500000D01*
X23312843Y-47500000D02*
X25585000Y-47500000D01*
X23300000Y-104500000D02*
X25575000Y-104500000D01*
X25585000Y-47500000D02*
X25575000Y-38000000D01*
X262247157Y-103847157D02*
G75*
G02*
X261847157Y-104247157I-399957J-43D01*
G01*
X22912843Y-47900000D02*
G75*
G02*
X23312843Y-47500043I399957J0D01*
G01*
X22902843Y-86152843D02*
X22900000Y-104100000D01*
X25575000Y-85750000D02*
X25585000Y-66247157D01*
X261847157Y-66247157D02*
X259575000Y-66250000D01*
X23310000Y-66247157D02*
G75*
G02*
X22910043Y-65847157I0J399957D01*
G01*
X259575000Y-114000000D02*
X25575000Y-114000000D01*
X23310000Y-66247157D02*
X25585000Y-66247157D01*
X261850000Y-85500000D02*
X259575000Y-85500000D01*
X22912843Y-47900000D02*
X22910000Y-65847157D01*
X261850000Y-47500000D02*
G75*
G02*
X262250000Y-47900000I0J-400000D01*
G01*
D11*
%TO.C,S2*%
X88168430Y-102200700D02*
X88993900Y-102200700D01*
X88168430Y-104999500D02*
X88168430Y-102200700D01*
X88993900Y-98970501D02*
X95743500Y-98970501D01*
X88993900Y-102200700D02*
X88993900Y-98970501D01*
X88993900Y-104999500D02*
X88168430Y-104999500D01*
X88993900Y-111269500D02*
X88993900Y-104999500D01*
X90719190Y-111269500D02*
X88993900Y-111269500D01*
X90719190Y-112469800D02*
X90719190Y-111269500D01*
X94018200Y-111269500D02*
X94018200Y-112469800D01*
X94018200Y-112469800D02*
X90719190Y-112469800D01*
X95743500Y-98970501D02*
X95743500Y-102200700D01*
X95743500Y-102200700D02*
X97269500Y-102200700D01*
X95743500Y-106800600D02*
X95743500Y-111269500D01*
X95743500Y-111269500D02*
X94018200Y-111269500D01*
X97269500Y-102200700D02*
X97269500Y-106800600D01*
X97269500Y-106800600D02*
X95743500Y-106800600D01*
X187468099Y-102200700D02*
X188994100Y-102200700D01*
X187468099Y-106800600D02*
X187468099Y-102200700D01*
X188994100Y-98970501D02*
X195743100Y-98970501D01*
X188994100Y-102200700D02*
X188994100Y-98970501D01*
X188994100Y-106800600D02*
X187468099Y-106800600D01*
X188994100Y-111269500D02*
X188994100Y-106800600D01*
X190718099Y-111269500D02*
X188994100Y-111269500D01*
X190718099Y-112469800D02*
X190718099Y-111269500D01*
X194018100Y-111269500D02*
X194018100Y-112469800D01*
X194018100Y-112469800D02*
X190718099Y-112469800D01*
X195743100Y-98970501D02*
X195743100Y-102200700D01*
X195743100Y-102200700D02*
X196569099Y-102200700D01*
X195743100Y-104999500D02*
X195743100Y-111269500D01*
X195743100Y-111269500D02*
X194018100Y-111269500D01*
X196569099Y-102200700D02*
X196569099Y-104999500D01*
X196569099Y-104999500D02*
X195743100Y-104999500D01*
%TO.C,S1*%
X243762301Y-60830700D02*
X246992401Y-60830700D01*
X243762301Y-67580400D02*
X243762301Y-60830700D01*
X243762301Y-84630800D02*
X246992401Y-84630800D01*
X243762301Y-91380450D02*
X243762301Y-84630800D01*
X246992401Y-60005300D02*
X249791301Y-60005300D01*
X246992401Y-60830700D02*
X246992401Y-60005300D01*
X246992401Y-67580400D02*
X243762301Y-67580400D01*
X246992401Y-69105900D02*
X246992401Y-67580400D01*
X246992401Y-83105300D02*
X251592201Y-83105300D01*
X246992401Y-84630800D02*
X246992401Y-83105300D01*
X246992401Y-91380450D02*
X243762301Y-91380450D01*
X246992401Y-92205910D02*
X246992401Y-91380450D01*
X249791301Y-60005300D02*
X249791301Y-60830700D01*
X249791301Y-60830700D02*
X256061201Y-60830700D01*
X249791301Y-91380450D02*
X249791301Y-92205910D01*
X249791301Y-92205910D02*
X246992401Y-92205910D01*
X251592201Y-67580400D02*
X251592201Y-69105900D01*
X251592201Y-69105900D02*
X246992401Y-69105900D01*
X251592201Y-83105300D02*
X251592201Y-84630800D01*
X251592201Y-84630800D02*
X256061201Y-84630800D01*
X256061201Y-60830700D02*
X256061201Y-62556000D01*
X256061201Y-62556000D02*
X257261401Y-62556000D01*
X256061201Y-84630800D02*
X256061201Y-86356150D01*
X256061201Y-86356150D02*
X257261401Y-86356150D01*
X256061201Y-89655160D02*
X256061201Y-91380450D01*
X256061201Y-91380450D02*
X249791301Y-91380450D01*
X256291201Y-67580400D02*
X251592201Y-67580400D01*
X256303107Y-65855100D02*
X256291201Y-67580400D01*
X257261401Y-62556000D02*
X257261401Y-65855100D01*
X257261401Y-65855100D02*
X256303107Y-65855100D01*
X257261401Y-86356150D02*
X257261401Y-89655160D01*
X257261401Y-89655160D02*
X256061201Y-89655160D01*
%TD*%
M02*
