%TF.GenerationSoftware,KiCad,Pcbnew,7.0.10*%
%TF.CreationDate,2024-04-25T18:18:34+01:00*%
%TF.ProjectId,keyboard,6b657962-6f61-4726-942e-6b696361645f,rev?*%
%TF.SameCoordinates,Original*%
%TF.FileFunction,Drillmap*%
%TF.FilePolarity,Positive*%
%FSLAX45Y45*%
G04 Gerber Fmt 4.5, Leading zero omitted, Abs format (unit mm)*
G04 Created by KiCad (PCBNEW 7.0.10) date 2024-04-25 18:18:34*
%MOMM*%
%LPD*%
G01*
G04 APERTURE LIST*
%ADD10C,0.100000*%
%ADD11C,0.200000*%
%ADD12C,0.175000*%
%ADD13C,0.398780*%
%ADD14C,0.400000*%
G04 APERTURE END LIST*
D10*
X25957500Y-10425000D02*
X25957500Y-11400000D01*
X26225000Y-8590000D02*
G75*
G03*
X26185000Y-8550000I-40000J0D01*
G01*
X25957500Y-6625000D02*
X25957500Y-8550000D01*
X26184716Y-6624716D02*
G75*
G03*
X26224716Y-6584716I4J39996D01*
G01*
X2557500Y-3800000D02*
X25957500Y-3800000D01*
X26184716Y-10424716D02*
X25957500Y-10425000D01*
X26224716Y-10384716D02*
X26225000Y-8590000D01*
X2330284Y-8575284D02*
G75*
G03*
X2290284Y-8615284I-4J-39996D01*
G01*
X25957500Y-3800000D02*
X25957500Y-4750000D01*
X26185000Y-4750000D02*
X25957500Y-4750000D01*
X2330284Y-8575284D02*
X2557500Y-8575000D01*
X26224716Y-6584716D02*
X26225000Y-4790000D01*
X2290000Y-10410000D02*
G75*
G03*
X2330000Y-10450000I40000J0D01*
G01*
X2557500Y-11400000D02*
X2557500Y-10450000D01*
X2331284Y-4750000D02*
X2558500Y-4750000D01*
X2330000Y-10450000D02*
X2557500Y-10450000D01*
X2558500Y-4750000D02*
X2557500Y-3800000D01*
X26184716Y-10424716D02*
G75*
G03*
X26224716Y-10384716I4J39996D01*
G01*
X2331284Y-4750004D02*
G75*
G03*
X2291284Y-4790000I-4J-39996D01*
G01*
X2290284Y-8615284D02*
X2290000Y-10410000D01*
X2557500Y-8575000D02*
X2558500Y-6624716D01*
X26184716Y-6624716D02*
X25957500Y-6625000D01*
X2291004Y-6584716D02*
G75*
G03*
X2331000Y-6624716I39996J-4D01*
G01*
X25957500Y-11400000D02*
X2557500Y-11400000D01*
X2331000Y-6624716D02*
X2558500Y-6624716D01*
X26185000Y-8550000D02*
X25957500Y-8550000D01*
X2291284Y-4790000D02*
X2291000Y-6584716D01*
X26225000Y-4790000D02*
G75*
G03*
X26185000Y-4750000I-40000J0D01*
G01*
D11*
D10*
X4034970Y-4280470D02*
X4134030Y-4379530D01*
X4134030Y-4280470D02*
X4034970Y-4379530D01*
X4272470Y-6180470D02*
X4371530Y-6279530D01*
X4371530Y-6180470D02*
X4272470Y-6279530D01*
X4272470Y-9980470D02*
X4371530Y-10079530D01*
X4371530Y-9980470D02*
X4272470Y-10079530D01*
X4747470Y-8080470D02*
X4846530Y-8179530D01*
X4846530Y-8080470D02*
X4747470Y-8179530D01*
X5934970Y-4280470D02*
X6034030Y-4379530D01*
X6034030Y-4280470D02*
X5934970Y-4379530D01*
X6409970Y-6180470D02*
X6509030Y-6279530D01*
X6509030Y-6180470D02*
X6409970Y-6279530D01*
X6884970Y-8080470D02*
X6984030Y-8179530D01*
X6984030Y-8080470D02*
X6884970Y-8179530D01*
X7122470Y-9980470D02*
X7221530Y-10079530D01*
X7221530Y-9980470D02*
X7122470Y-10079530D01*
X7834970Y-4280470D02*
X7934030Y-4379530D01*
X7934030Y-4280470D02*
X7834970Y-4379530D01*
X8309970Y-6180470D02*
X8409030Y-6279530D01*
X8409030Y-6180470D02*
X8309970Y-6279530D01*
X8784970Y-8080470D02*
X8884030Y-8179530D01*
X8884030Y-8080470D02*
X8784970Y-8179530D01*
X9734970Y-4280470D02*
X9834030Y-4379530D01*
X9834030Y-4280470D02*
X9734970Y-4379530D01*
X10209970Y-6180470D02*
X10309030Y-6279530D01*
X10309030Y-6180470D02*
X10209970Y-6279530D01*
X10684970Y-8080470D02*
X10784030Y-8179530D01*
X10784030Y-8080470D02*
X10684970Y-8179530D01*
X11634970Y-4280470D02*
X11734030Y-4379530D01*
X11734030Y-4280470D02*
X11634970Y-4379530D01*
X12109970Y-6180470D02*
X12209030Y-6279530D01*
X12209030Y-6180470D02*
X12109970Y-6279530D01*
X12584970Y-8080470D02*
X12684030Y-8179530D01*
X12684030Y-8080470D02*
X12584970Y-8179530D01*
X13534970Y-4280470D02*
X13634030Y-4379530D01*
X13634030Y-4280470D02*
X13534970Y-4379530D01*
X14009970Y-6180470D02*
X14109030Y-6279530D01*
X14109030Y-6180470D02*
X14009970Y-6279530D01*
X14484970Y-8080470D02*
X14584030Y-8179530D01*
X14584030Y-8080470D02*
X14484970Y-8179530D01*
X14722470Y-9980470D02*
X14821530Y-10079530D01*
X14821530Y-9980470D02*
X14722470Y-10079530D01*
X15434970Y-4280470D02*
X15534030Y-4379530D01*
X15534030Y-4280470D02*
X15434970Y-4379530D01*
X15909970Y-6180470D02*
X16009030Y-6279530D01*
X16009030Y-6180470D02*
X15909970Y-6279530D01*
X16384970Y-8080470D02*
X16484030Y-8179530D01*
X16484030Y-8080470D02*
X16384970Y-8179530D01*
X17334970Y-4280470D02*
X17434030Y-4379530D01*
X17434030Y-4280470D02*
X17334970Y-4379530D01*
X17809970Y-6180470D02*
X17909030Y-6279530D01*
X17909030Y-6180470D02*
X17809970Y-6279530D01*
X18284970Y-8080470D02*
X18384030Y-8179530D01*
X18384030Y-8080470D02*
X18284970Y-8179530D01*
X19234970Y-4280470D02*
X19334030Y-4379530D01*
X19334030Y-4280470D02*
X19234970Y-4379530D01*
X19709970Y-6180470D02*
X19809030Y-6279530D01*
X19809030Y-6180470D02*
X19709970Y-6279530D01*
X20897470Y-8080470D02*
X20996530Y-8179530D01*
X20996530Y-8080470D02*
X20897470Y-8179530D01*
X21134970Y-4280470D02*
X21234030Y-4379530D01*
X21234030Y-4280470D02*
X21134970Y-4379530D01*
X21609970Y-6180470D02*
X21709030Y-6279530D01*
X21709030Y-6180470D02*
X21609970Y-6279530D01*
X21609970Y-9980470D02*
X21709030Y-10079530D01*
X21709030Y-9980470D02*
X21609970Y-10079530D01*
X23034970Y-4280470D02*
X23134030Y-4379530D01*
X23134030Y-4280470D02*
X23034970Y-4379530D01*
X23509970Y-6180470D02*
X23609030Y-6279530D01*
X23609030Y-6180470D02*
X23509970Y-6279530D01*
X23509970Y-8080470D02*
X23609030Y-8179530D01*
X23609030Y-8080470D02*
X23509970Y-8179530D01*
X23509970Y-9980470D02*
X23609030Y-10079530D01*
X23609030Y-9980470D02*
X23509970Y-10079530D01*
X25172470Y-4280470D02*
X25271530Y-4379530D01*
X25271530Y-4280470D02*
X25172470Y-4379530D01*
X25409970Y-7130470D02*
X25509030Y-7229530D01*
X25509030Y-7130470D02*
X25409970Y-7229530D01*
X25409970Y-9980470D02*
X25509030Y-10079530D01*
X25509030Y-9980470D02*
X25409970Y-10079530D01*
D12*
X3122500Y-4750000D02*
G75*
G03*
X2947500Y-4750000I-87500J0D01*
G01*
X2947500Y-4750000D02*
G75*
G03*
X3122500Y-4750000I87500J0D01*
G01*
D10*
X3015000Y-4837500D02*
X3055000Y-4837500D01*
X3055000Y-4837500D02*
G75*
G03*
X3055000Y-4662500I0J87500D01*
G01*
X3055000Y-4662500D02*
X3015000Y-4662500D01*
X3015000Y-4662500D02*
G75*
G03*
X3015000Y-4837500I0J-87500D01*
G01*
D12*
X3360000Y-6650000D02*
G75*
G03*
X3185000Y-6650000I-87500J0D01*
G01*
X3185000Y-6650000D02*
G75*
G03*
X3360000Y-6650000I87500J0D01*
G01*
D10*
X3252500Y-6737500D02*
X3292500Y-6737500D01*
X3292500Y-6737500D02*
G75*
G03*
X3292500Y-6562500I0J87500D01*
G01*
X3292500Y-6562500D02*
X3252500Y-6562500D01*
X3252500Y-6562500D02*
G75*
G03*
X3252500Y-6737500I0J-87500D01*
G01*
D12*
X3360000Y-10450000D02*
G75*
G03*
X3185000Y-10450000I-87500J0D01*
G01*
X3185000Y-10450000D02*
G75*
G03*
X3360000Y-10450000I87500J0D01*
G01*
D10*
X3252500Y-10537500D02*
X3292500Y-10537500D01*
X3292500Y-10537500D02*
G75*
G03*
X3292500Y-10362500I0J87500D01*
G01*
X3292500Y-10362500D02*
X3252500Y-10362500D01*
X3252500Y-10362500D02*
G75*
G03*
X3252500Y-10537500I0J-87500D01*
G01*
D12*
X3835000Y-8550000D02*
G75*
G03*
X3660000Y-8550000I-87500J0D01*
G01*
X3660000Y-8550000D02*
G75*
G03*
X3835000Y-8550000I87500J0D01*
G01*
D10*
X3727500Y-8637500D02*
X3767500Y-8637500D01*
X3767500Y-8637500D02*
G75*
G03*
X3767500Y-8462500I0J87500D01*
G01*
X3767500Y-8462500D02*
X3727500Y-8462500D01*
X3727500Y-8462500D02*
G75*
G03*
X3727500Y-8637500I0J-87500D01*
G01*
D12*
X4177500Y-4750000D02*
G75*
G03*
X4002500Y-4750000I-87500J0D01*
G01*
X4002500Y-4750000D02*
G75*
G03*
X4177500Y-4750000I87500J0D01*
G01*
D10*
X4070000Y-4837500D02*
X4110000Y-4837500D01*
X4110000Y-4837500D02*
G75*
G03*
X4110000Y-4662500I0J87500D01*
G01*
X4110000Y-4662500D02*
X4070000Y-4662500D01*
X4070000Y-4662500D02*
G75*
G03*
X4070000Y-4837500I0J-87500D01*
G01*
D12*
X4415000Y-6650000D02*
G75*
G03*
X4240000Y-6650000I-87500J0D01*
G01*
X4240000Y-6650000D02*
G75*
G03*
X4415000Y-6650000I87500J0D01*
G01*
D10*
X4307500Y-6737500D02*
X4347500Y-6737500D01*
X4347500Y-6737500D02*
G75*
G03*
X4347500Y-6562500I0J87500D01*
G01*
X4347500Y-6562500D02*
X4307500Y-6562500D01*
X4307500Y-6562500D02*
G75*
G03*
X4307500Y-6737500I0J-87500D01*
G01*
D12*
X4415000Y-10450000D02*
G75*
G03*
X4240000Y-10450000I-87500J0D01*
G01*
X4240000Y-10450000D02*
G75*
G03*
X4415000Y-10450000I87500J0D01*
G01*
D10*
X4307500Y-10537500D02*
X4347500Y-10537500D01*
X4347500Y-10537500D02*
G75*
G03*
X4347500Y-10362500I0J87500D01*
G01*
X4347500Y-10362500D02*
X4307500Y-10362500D01*
X4307500Y-10362500D02*
G75*
G03*
X4307500Y-10537500I0J-87500D01*
G01*
D12*
X4890000Y-8550000D02*
G75*
G03*
X4715000Y-8550000I-87500J0D01*
G01*
X4715000Y-8550000D02*
G75*
G03*
X4890000Y-8550000I87500J0D01*
G01*
D10*
X4782500Y-8637500D02*
X4822500Y-8637500D01*
X4822500Y-8637500D02*
G75*
G03*
X4822500Y-8462500I0J87500D01*
G01*
X4822500Y-8462500D02*
X4782500Y-8462500D01*
X4782500Y-8462500D02*
G75*
G03*
X4782500Y-8637500I0J-87500D01*
G01*
D12*
X5022500Y-4750000D02*
G75*
G03*
X4847500Y-4750000I-87500J0D01*
G01*
X4847500Y-4750000D02*
G75*
G03*
X5022500Y-4750000I87500J0D01*
G01*
D10*
X4915000Y-4837500D02*
X4955000Y-4837500D01*
X4955000Y-4837500D02*
G75*
G03*
X4955000Y-4662500I0J87500D01*
G01*
X4955000Y-4662500D02*
X4915000Y-4662500D01*
X4915000Y-4662500D02*
G75*
G03*
X4915000Y-4837500I0J-87500D01*
G01*
D12*
X5497500Y-6650000D02*
G75*
G03*
X5322500Y-6650000I-87500J0D01*
G01*
X5322500Y-6650000D02*
G75*
G03*
X5497500Y-6650000I87500J0D01*
G01*
D10*
X5390000Y-6737500D02*
X5430000Y-6737500D01*
X5430000Y-6737500D02*
G75*
G03*
X5430000Y-6562500I0J87500D01*
G01*
X5430000Y-6562500D02*
X5390000Y-6562500D01*
X5390000Y-6562500D02*
G75*
G03*
X5390000Y-6737500I0J-87500D01*
G01*
D12*
X5972500Y-8550000D02*
G75*
G03*
X5797500Y-8550000I-87500J0D01*
G01*
X5797500Y-8550000D02*
G75*
G03*
X5972500Y-8550000I87500J0D01*
G01*
D10*
X5865000Y-8637500D02*
X5905000Y-8637500D01*
X5905000Y-8637500D02*
G75*
G03*
X5905000Y-8462500I0J87500D01*
G01*
X5905000Y-8462500D02*
X5865000Y-8462500D01*
X5865000Y-8462500D02*
G75*
G03*
X5865000Y-8637500I0J-87500D01*
G01*
D12*
X6077500Y-4750000D02*
G75*
G03*
X5902500Y-4750000I-87500J0D01*
G01*
X5902500Y-4750000D02*
G75*
G03*
X6077500Y-4750000I87500J0D01*
G01*
D10*
X5970000Y-4837500D02*
X6010000Y-4837500D01*
X6010000Y-4837500D02*
G75*
G03*
X6010000Y-4662500I0J87500D01*
G01*
X6010000Y-4662500D02*
X5970000Y-4662500D01*
X5970000Y-4662500D02*
G75*
G03*
X5970000Y-4837500I0J-87500D01*
G01*
D12*
X6210000Y-10450000D02*
G75*
G03*
X6035000Y-10450000I-87500J0D01*
G01*
X6035000Y-10450000D02*
G75*
G03*
X6210000Y-10450000I87500J0D01*
G01*
D10*
X6102500Y-10537500D02*
X6142500Y-10537500D01*
X6142500Y-10537500D02*
G75*
G03*
X6142500Y-10362500I0J87500D01*
G01*
X6142500Y-10362500D02*
X6102500Y-10362500D01*
X6102500Y-10362500D02*
G75*
G03*
X6102500Y-10537500I0J-87500D01*
G01*
D12*
X6552500Y-6650000D02*
G75*
G03*
X6377500Y-6650000I-87500J0D01*
G01*
X6377500Y-6650000D02*
G75*
G03*
X6552500Y-6650000I87500J0D01*
G01*
D10*
X6445000Y-6737500D02*
X6485000Y-6737500D01*
X6485000Y-6737500D02*
G75*
G03*
X6485000Y-6562500I0J87500D01*
G01*
X6485000Y-6562500D02*
X6445000Y-6562500D01*
X6445000Y-6562500D02*
G75*
G03*
X6445000Y-6737500I0J-87500D01*
G01*
D12*
X6922500Y-4750000D02*
G75*
G03*
X6747500Y-4750000I-87500J0D01*
G01*
X6747500Y-4750000D02*
G75*
G03*
X6922500Y-4750000I87500J0D01*
G01*
D10*
X6815000Y-4837500D02*
X6855000Y-4837500D01*
X6855000Y-4837500D02*
G75*
G03*
X6855000Y-4662500I0J87500D01*
G01*
X6855000Y-4662500D02*
X6815000Y-4662500D01*
X6815000Y-4662500D02*
G75*
G03*
X6815000Y-4837500I0J-87500D01*
G01*
D12*
X7027500Y-8550000D02*
G75*
G03*
X6852500Y-8550000I-87500J0D01*
G01*
X6852500Y-8550000D02*
G75*
G03*
X7027500Y-8550000I87500J0D01*
G01*
D10*
X6920000Y-8637500D02*
X6960000Y-8637500D01*
X6960000Y-8637500D02*
G75*
G03*
X6960000Y-8462500I0J87500D01*
G01*
X6960000Y-8462500D02*
X6920000Y-8462500D01*
X6920000Y-8462500D02*
G75*
G03*
X6920000Y-8637500I0J-87500D01*
G01*
D12*
X7265000Y-10450000D02*
G75*
G03*
X7090000Y-10450000I-87500J0D01*
G01*
X7090000Y-10450000D02*
G75*
G03*
X7265000Y-10450000I87500J0D01*
G01*
D10*
X7157500Y-10537500D02*
X7197500Y-10537500D01*
X7197500Y-10537500D02*
G75*
G03*
X7197500Y-10362500I0J87500D01*
G01*
X7197500Y-10362500D02*
X7157500Y-10362500D01*
X7157500Y-10362500D02*
G75*
G03*
X7157500Y-10537500I0J-87500D01*
G01*
D12*
X7397500Y-6650000D02*
G75*
G03*
X7222500Y-6650000I-87500J0D01*
G01*
X7222500Y-6650000D02*
G75*
G03*
X7397500Y-6650000I87500J0D01*
G01*
D10*
X7290000Y-6737500D02*
X7330000Y-6737500D01*
X7330000Y-6737500D02*
G75*
G03*
X7330000Y-6562500I0J87500D01*
G01*
X7330000Y-6562500D02*
X7290000Y-6562500D01*
X7290000Y-6562500D02*
G75*
G03*
X7290000Y-6737500I0J-87500D01*
G01*
D12*
X7872500Y-8550000D02*
G75*
G03*
X7697500Y-8550000I-87500J0D01*
G01*
X7697500Y-8550000D02*
G75*
G03*
X7872500Y-8550000I87500J0D01*
G01*
D10*
X7765000Y-8637500D02*
X7805000Y-8637500D01*
X7805000Y-8637500D02*
G75*
G03*
X7805000Y-8462500I0J87500D01*
G01*
X7805000Y-8462500D02*
X7765000Y-8462500D01*
X7765000Y-8462500D02*
G75*
G03*
X7765000Y-8637500I0J-87500D01*
G01*
D12*
X7977500Y-4750000D02*
G75*
G03*
X7802500Y-4750000I-87500J0D01*
G01*
X7802500Y-4750000D02*
G75*
G03*
X7977500Y-4750000I87500J0D01*
G01*
D10*
X7870000Y-4837500D02*
X7910000Y-4837500D01*
X7910000Y-4837500D02*
G75*
G03*
X7910000Y-4662500I0J87500D01*
G01*
X7910000Y-4662500D02*
X7870000Y-4662500D01*
X7870000Y-4662500D02*
G75*
G03*
X7870000Y-4837500I0J-87500D01*
G01*
D12*
X8452500Y-6650000D02*
G75*
G03*
X8277500Y-6650000I-87500J0D01*
G01*
X8277500Y-6650000D02*
G75*
G03*
X8452500Y-6650000I87500J0D01*
G01*
D10*
X8345000Y-6737500D02*
X8385000Y-6737500D01*
X8385000Y-6737500D02*
G75*
G03*
X8385000Y-6562500I0J87500D01*
G01*
X8385000Y-6562500D02*
X8345000Y-6562500D01*
X8345000Y-6562500D02*
G75*
G03*
X8345000Y-6737500I0J-87500D01*
G01*
D12*
X8822500Y-4750000D02*
G75*
G03*
X8647500Y-4750000I-87500J0D01*
G01*
X8647500Y-4750000D02*
G75*
G03*
X8822500Y-4750000I87500J0D01*
G01*
D10*
X8715000Y-4837500D02*
X8755000Y-4837500D01*
X8755000Y-4837500D02*
G75*
G03*
X8755000Y-4662500I0J87500D01*
G01*
X8755000Y-4662500D02*
X8715000Y-4662500D01*
X8715000Y-4662500D02*
G75*
G03*
X8715000Y-4837500I0J-87500D01*
G01*
D12*
X8927500Y-8550000D02*
G75*
G03*
X8752500Y-8550000I-87500J0D01*
G01*
X8752500Y-8550000D02*
G75*
G03*
X8927500Y-8550000I87500J0D01*
G01*
D10*
X8820000Y-8637500D02*
X8860000Y-8637500D01*
X8860000Y-8637500D02*
G75*
G03*
X8860000Y-8462500I0J87500D01*
G01*
X8860000Y-8462500D02*
X8820000Y-8462500D01*
X8820000Y-8462500D02*
G75*
G03*
X8820000Y-8637500I0J-87500D01*
G01*
D12*
X9297500Y-6650000D02*
G75*
G03*
X9122500Y-6650000I-87500J0D01*
G01*
X9122500Y-6650000D02*
G75*
G03*
X9297500Y-6650000I87500J0D01*
G01*
D10*
X9190000Y-6737500D02*
X9230000Y-6737500D01*
X9230000Y-6737500D02*
G75*
G03*
X9230000Y-6562500I0J87500D01*
G01*
X9230000Y-6562500D02*
X9190000Y-6562500D01*
X9190000Y-6562500D02*
G75*
G03*
X9190000Y-6737500I0J-87500D01*
G01*
D12*
X9772500Y-8550000D02*
G75*
G03*
X9597500Y-8550000I-87500J0D01*
G01*
X9597500Y-8550000D02*
G75*
G03*
X9772500Y-8550000I87500J0D01*
G01*
D10*
X9665000Y-8637500D02*
X9705000Y-8637500D01*
X9705000Y-8637500D02*
G75*
G03*
X9705000Y-8462500I0J87500D01*
G01*
X9705000Y-8462500D02*
X9665000Y-8462500D01*
X9665000Y-8462500D02*
G75*
G03*
X9665000Y-8637500I0J-87500D01*
G01*
D12*
X9877500Y-4750000D02*
G75*
G03*
X9702500Y-4750000I-87500J0D01*
G01*
X9702500Y-4750000D02*
G75*
G03*
X9877500Y-4750000I87500J0D01*
G01*
D10*
X9770000Y-4837500D02*
X9810000Y-4837500D01*
X9810000Y-4837500D02*
G75*
G03*
X9810000Y-4662500I0J87500D01*
G01*
X9810000Y-4662500D02*
X9770000Y-4662500D01*
X9770000Y-4662500D02*
G75*
G03*
X9770000Y-4837500I0J-87500D01*
G01*
D12*
X10352500Y-6650000D02*
G75*
G03*
X10177500Y-6650000I-87500J0D01*
G01*
X10177500Y-6650000D02*
G75*
G03*
X10352500Y-6650000I87500J0D01*
G01*
D10*
X10245000Y-6737500D02*
X10285000Y-6737500D01*
X10285000Y-6737500D02*
G75*
G03*
X10285000Y-6562500I0J87500D01*
G01*
X10285000Y-6562500D02*
X10245000Y-6562500D01*
X10245000Y-6562500D02*
G75*
G03*
X10245000Y-6737500I0J-87500D01*
G01*
D12*
X10722500Y-4750000D02*
G75*
G03*
X10547500Y-4750000I-87500J0D01*
G01*
X10547500Y-4750000D02*
G75*
G03*
X10722500Y-4750000I87500J0D01*
G01*
D10*
X10615000Y-4837500D02*
X10655000Y-4837500D01*
X10655000Y-4837500D02*
G75*
G03*
X10655000Y-4662500I0J87500D01*
G01*
X10655000Y-4662500D02*
X10615000Y-4662500D01*
X10615000Y-4662500D02*
G75*
G03*
X10615000Y-4837500I0J-87500D01*
G01*
D12*
X10827500Y-8550000D02*
G75*
G03*
X10652500Y-8550000I-87500J0D01*
G01*
X10652500Y-8550000D02*
G75*
G03*
X10827500Y-8550000I87500J0D01*
G01*
D10*
X10720000Y-8637500D02*
X10760000Y-8637500D01*
X10760000Y-8637500D02*
G75*
G03*
X10760000Y-8462500I0J87500D01*
G01*
X10760000Y-8462500D02*
X10720000Y-8462500D01*
X10720000Y-8462500D02*
G75*
G03*
X10720000Y-8637500I0J-87500D01*
G01*
D12*
X11197500Y-6650000D02*
G75*
G03*
X11022500Y-6650000I-87500J0D01*
G01*
X11022500Y-6650000D02*
G75*
G03*
X11197500Y-6650000I87500J0D01*
G01*
D10*
X11090000Y-6737500D02*
X11130000Y-6737500D01*
X11130000Y-6737500D02*
G75*
G03*
X11130000Y-6562500I0J87500D01*
G01*
X11130000Y-6562500D02*
X11090000Y-6562500D01*
X11090000Y-6562500D02*
G75*
G03*
X11090000Y-6737500I0J-87500D01*
G01*
D12*
X11672500Y-8550000D02*
G75*
G03*
X11497500Y-8550000I-87500J0D01*
G01*
X11497500Y-8550000D02*
G75*
G03*
X11672500Y-8550000I87500J0D01*
G01*
D10*
X11565000Y-8637500D02*
X11605000Y-8637500D01*
X11605000Y-8637500D02*
G75*
G03*
X11605000Y-8462500I0J87500D01*
G01*
X11605000Y-8462500D02*
X11565000Y-8462500D01*
X11565000Y-8462500D02*
G75*
G03*
X11565000Y-8637500I0J-87500D01*
G01*
D12*
X11777500Y-4750000D02*
G75*
G03*
X11602500Y-4750000I-87500J0D01*
G01*
X11602500Y-4750000D02*
G75*
G03*
X11777500Y-4750000I87500J0D01*
G01*
D10*
X11670000Y-4837500D02*
X11710000Y-4837500D01*
X11710000Y-4837500D02*
G75*
G03*
X11710000Y-4662500I0J87500D01*
G01*
X11710000Y-4662500D02*
X11670000Y-4662500D01*
X11670000Y-4662500D02*
G75*
G03*
X11670000Y-4837500I0J-87500D01*
G01*
D12*
X12252500Y-6650000D02*
G75*
G03*
X12077500Y-6650000I-87500J0D01*
G01*
X12077500Y-6650000D02*
G75*
G03*
X12252500Y-6650000I87500J0D01*
G01*
D10*
X12145000Y-6737500D02*
X12185000Y-6737500D01*
X12185000Y-6737500D02*
G75*
G03*
X12185000Y-6562500I0J87500D01*
G01*
X12185000Y-6562500D02*
X12145000Y-6562500D01*
X12145000Y-6562500D02*
G75*
G03*
X12145000Y-6737500I0J-87500D01*
G01*
D12*
X12622500Y-4750000D02*
G75*
G03*
X12447500Y-4750000I-87500J0D01*
G01*
X12447500Y-4750000D02*
G75*
G03*
X12622500Y-4750000I87500J0D01*
G01*
D10*
X12515000Y-4837500D02*
X12555000Y-4837500D01*
X12555000Y-4837500D02*
G75*
G03*
X12555000Y-4662500I0J87500D01*
G01*
X12555000Y-4662500D02*
X12515000Y-4662500D01*
X12515000Y-4662500D02*
G75*
G03*
X12515000Y-4837500I0J-87500D01*
G01*
D12*
X12727500Y-8550000D02*
G75*
G03*
X12552500Y-8550000I-87500J0D01*
G01*
X12552500Y-8550000D02*
G75*
G03*
X12727500Y-8550000I87500J0D01*
G01*
D10*
X12620000Y-8637500D02*
X12660000Y-8637500D01*
X12660000Y-8637500D02*
G75*
G03*
X12660000Y-8462500I0J87500D01*
G01*
X12660000Y-8462500D02*
X12620000Y-8462500D01*
X12620000Y-8462500D02*
G75*
G03*
X12620000Y-8637500I0J-87500D01*
G01*
D12*
X13097500Y-6650000D02*
G75*
G03*
X12922500Y-6650000I-87500J0D01*
G01*
X12922500Y-6650000D02*
G75*
G03*
X13097500Y-6650000I87500J0D01*
G01*
D10*
X12990000Y-6737500D02*
X13030000Y-6737500D01*
X13030000Y-6737500D02*
G75*
G03*
X13030000Y-6562500I0J87500D01*
G01*
X13030000Y-6562500D02*
X12990000Y-6562500D01*
X12990000Y-6562500D02*
G75*
G03*
X12990000Y-6737500I0J-87500D01*
G01*
D12*
X13572500Y-8550000D02*
G75*
G03*
X13397500Y-8550000I-87500J0D01*
G01*
X13397500Y-8550000D02*
G75*
G03*
X13572500Y-8550000I87500J0D01*
G01*
D10*
X13465000Y-8637500D02*
X13505000Y-8637500D01*
X13505000Y-8637500D02*
G75*
G03*
X13505000Y-8462500I0J87500D01*
G01*
X13505000Y-8462500D02*
X13465000Y-8462500D01*
X13465000Y-8462500D02*
G75*
G03*
X13465000Y-8637500I0J-87500D01*
G01*
D12*
X13677500Y-4750000D02*
G75*
G03*
X13502500Y-4750000I-87500J0D01*
G01*
X13502500Y-4750000D02*
G75*
G03*
X13677500Y-4750000I87500J0D01*
G01*
D10*
X13570000Y-4837500D02*
X13610000Y-4837500D01*
X13610000Y-4837500D02*
G75*
G03*
X13610000Y-4662500I0J87500D01*
G01*
X13610000Y-4662500D02*
X13570000Y-4662500D01*
X13570000Y-4662500D02*
G75*
G03*
X13570000Y-4837500I0J-87500D01*
G01*
D12*
X13810000Y-10450000D02*
G75*
G03*
X13635000Y-10450000I-87500J0D01*
G01*
X13635000Y-10450000D02*
G75*
G03*
X13810000Y-10450000I87500J0D01*
G01*
D10*
X13702500Y-10537500D02*
X13742500Y-10537500D01*
X13742500Y-10537500D02*
G75*
G03*
X13742500Y-10362500I0J87500D01*
G01*
X13742500Y-10362500D02*
X13702500Y-10362500D01*
X13702500Y-10362500D02*
G75*
G03*
X13702500Y-10537500I0J-87500D01*
G01*
D12*
X14152500Y-6650000D02*
G75*
G03*
X13977500Y-6650000I-87500J0D01*
G01*
X13977500Y-6650000D02*
G75*
G03*
X14152500Y-6650000I87500J0D01*
G01*
D10*
X14045000Y-6737500D02*
X14085000Y-6737500D01*
X14085000Y-6737500D02*
G75*
G03*
X14085000Y-6562500I0J87500D01*
G01*
X14085000Y-6562500D02*
X14045000Y-6562500D01*
X14045000Y-6562500D02*
G75*
G03*
X14045000Y-6737500I0J-87500D01*
G01*
D12*
X14522500Y-4750000D02*
G75*
G03*
X14347500Y-4750000I-87500J0D01*
G01*
X14347500Y-4750000D02*
G75*
G03*
X14522500Y-4750000I87500J0D01*
G01*
D10*
X14415000Y-4837500D02*
X14455000Y-4837500D01*
X14455000Y-4837500D02*
G75*
G03*
X14455000Y-4662500I0J87500D01*
G01*
X14455000Y-4662500D02*
X14415000Y-4662500D01*
X14415000Y-4662500D02*
G75*
G03*
X14415000Y-4837500I0J-87500D01*
G01*
D12*
X14627500Y-8550000D02*
G75*
G03*
X14452500Y-8550000I-87500J0D01*
G01*
X14452500Y-8550000D02*
G75*
G03*
X14627500Y-8550000I87500J0D01*
G01*
D10*
X14520000Y-8637500D02*
X14560000Y-8637500D01*
X14560000Y-8637500D02*
G75*
G03*
X14560000Y-8462500I0J87500D01*
G01*
X14560000Y-8462500D02*
X14520000Y-8462500D01*
X14520000Y-8462500D02*
G75*
G03*
X14520000Y-8637500I0J-87500D01*
G01*
D12*
X14865000Y-10450000D02*
G75*
G03*
X14690000Y-10450000I-87500J0D01*
G01*
X14690000Y-10450000D02*
G75*
G03*
X14865000Y-10450000I87500J0D01*
G01*
D10*
X14757500Y-10537500D02*
X14797500Y-10537500D01*
X14797500Y-10537500D02*
G75*
G03*
X14797500Y-10362500I0J87500D01*
G01*
X14797500Y-10362500D02*
X14757500Y-10362500D01*
X14757500Y-10362500D02*
G75*
G03*
X14757500Y-10537500I0J-87500D01*
G01*
D12*
X14997500Y-6650000D02*
G75*
G03*
X14822500Y-6650000I-87500J0D01*
G01*
X14822500Y-6650000D02*
G75*
G03*
X14997500Y-6650000I87500J0D01*
G01*
D10*
X14890000Y-6737500D02*
X14930000Y-6737500D01*
X14930000Y-6737500D02*
G75*
G03*
X14930000Y-6562500I0J87500D01*
G01*
X14930000Y-6562500D02*
X14890000Y-6562500D01*
X14890000Y-6562500D02*
G75*
G03*
X14890000Y-6737500I0J-87500D01*
G01*
D12*
X15472500Y-8550000D02*
G75*
G03*
X15297500Y-8550000I-87500J0D01*
G01*
X15297500Y-8550000D02*
G75*
G03*
X15472500Y-8550000I87500J0D01*
G01*
D10*
X15365000Y-8637500D02*
X15405000Y-8637500D01*
X15405000Y-8637500D02*
G75*
G03*
X15405000Y-8462500I0J87500D01*
G01*
X15405000Y-8462500D02*
X15365000Y-8462500D01*
X15365000Y-8462500D02*
G75*
G03*
X15365000Y-8637500I0J-87500D01*
G01*
D12*
X15577500Y-4750000D02*
G75*
G03*
X15402500Y-4750000I-87500J0D01*
G01*
X15402500Y-4750000D02*
G75*
G03*
X15577500Y-4750000I87500J0D01*
G01*
D10*
X15470000Y-4837500D02*
X15510000Y-4837500D01*
X15510000Y-4837500D02*
G75*
G03*
X15510000Y-4662500I0J87500D01*
G01*
X15510000Y-4662500D02*
X15470000Y-4662500D01*
X15470000Y-4662500D02*
G75*
G03*
X15470000Y-4837500I0J-87500D01*
G01*
D12*
X16052500Y-6650000D02*
G75*
G03*
X15877500Y-6650000I-87500J0D01*
G01*
X15877500Y-6650000D02*
G75*
G03*
X16052500Y-6650000I87500J0D01*
G01*
D10*
X15945000Y-6737500D02*
X15985000Y-6737500D01*
X15985000Y-6737500D02*
G75*
G03*
X15985000Y-6562500I0J87500D01*
G01*
X15985000Y-6562500D02*
X15945000Y-6562500D01*
X15945000Y-6562500D02*
G75*
G03*
X15945000Y-6737500I0J-87500D01*
G01*
D12*
X16422500Y-4750000D02*
G75*
G03*
X16247500Y-4750000I-87500J0D01*
G01*
X16247500Y-4750000D02*
G75*
G03*
X16422500Y-4750000I87500J0D01*
G01*
D10*
X16315000Y-4837500D02*
X16355000Y-4837500D01*
X16355000Y-4837500D02*
G75*
G03*
X16355000Y-4662500I0J87500D01*
G01*
X16355000Y-4662500D02*
X16315000Y-4662500D01*
X16315000Y-4662500D02*
G75*
G03*
X16315000Y-4837500I0J-87500D01*
G01*
D12*
X16527500Y-8550000D02*
G75*
G03*
X16352500Y-8550000I-87500J0D01*
G01*
X16352500Y-8550000D02*
G75*
G03*
X16527500Y-8550000I87500J0D01*
G01*
D10*
X16420000Y-8637500D02*
X16460000Y-8637500D01*
X16460000Y-8637500D02*
G75*
G03*
X16460000Y-8462500I0J87500D01*
G01*
X16460000Y-8462500D02*
X16420000Y-8462500D01*
X16420000Y-8462500D02*
G75*
G03*
X16420000Y-8637500I0J-87500D01*
G01*
D12*
X16897500Y-6650000D02*
G75*
G03*
X16722500Y-6650000I-87500J0D01*
G01*
X16722500Y-6650000D02*
G75*
G03*
X16897500Y-6650000I87500J0D01*
G01*
D10*
X16790000Y-6737500D02*
X16830000Y-6737500D01*
X16830000Y-6737500D02*
G75*
G03*
X16830000Y-6562500I0J87500D01*
G01*
X16830000Y-6562500D02*
X16790000Y-6562500D01*
X16790000Y-6562500D02*
G75*
G03*
X16790000Y-6737500I0J-87500D01*
G01*
D12*
X17372500Y-8550000D02*
G75*
G03*
X17197500Y-8550000I-87500J0D01*
G01*
X17197500Y-8550000D02*
G75*
G03*
X17372500Y-8550000I87500J0D01*
G01*
D10*
X17265000Y-8637500D02*
X17305000Y-8637500D01*
X17305000Y-8637500D02*
G75*
G03*
X17305000Y-8462500I0J87500D01*
G01*
X17305000Y-8462500D02*
X17265000Y-8462500D01*
X17265000Y-8462500D02*
G75*
G03*
X17265000Y-8637500I0J-87500D01*
G01*
D12*
X17477500Y-4750000D02*
G75*
G03*
X17302500Y-4750000I-87500J0D01*
G01*
X17302500Y-4750000D02*
G75*
G03*
X17477500Y-4750000I87500J0D01*
G01*
D10*
X17370000Y-4837500D02*
X17410000Y-4837500D01*
X17410000Y-4837500D02*
G75*
G03*
X17410000Y-4662500I0J87500D01*
G01*
X17410000Y-4662500D02*
X17370000Y-4662500D01*
X17370000Y-4662500D02*
G75*
G03*
X17370000Y-4837500I0J-87500D01*
G01*
D12*
X17952500Y-6650000D02*
G75*
G03*
X17777500Y-6650000I-87500J0D01*
G01*
X17777500Y-6650000D02*
G75*
G03*
X17952500Y-6650000I87500J0D01*
G01*
D10*
X17845000Y-6737500D02*
X17885000Y-6737500D01*
X17885000Y-6737500D02*
G75*
G03*
X17885000Y-6562500I0J87500D01*
G01*
X17885000Y-6562500D02*
X17845000Y-6562500D01*
X17845000Y-6562500D02*
G75*
G03*
X17845000Y-6737500I0J-87500D01*
G01*
D12*
X18322500Y-4750000D02*
G75*
G03*
X18147500Y-4750000I-87500J0D01*
G01*
X18147500Y-4750000D02*
G75*
G03*
X18322500Y-4750000I87500J0D01*
G01*
D10*
X18215000Y-4837500D02*
X18255000Y-4837500D01*
X18255000Y-4837500D02*
G75*
G03*
X18255000Y-4662500I0J87500D01*
G01*
X18255000Y-4662500D02*
X18215000Y-4662500D01*
X18215000Y-4662500D02*
G75*
G03*
X18215000Y-4837500I0J-87500D01*
G01*
D12*
X18427500Y-8550000D02*
G75*
G03*
X18252500Y-8550000I-87500J0D01*
G01*
X18252500Y-8550000D02*
G75*
G03*
X18427500Y-8550000I87500J0D01*
G01*
D10*
X18320000Y-8637500D02*
X18360000Y-8637500D01*
X18360000Y-8637500D02*
G75*
G03*
X18360000Y-8462500I0J87500D01*
G01*
X18360000Y-8462500D02*
X18320000Y-8462500D01*
X18320000Y-8462500D02*
G75*
G03*
X18320000Y-8637500I0J-87500D01*
G01*
D12*
X18797500Y-6650000D02*
G75*
G03*
X18622500Y-6650000I-87500J0D01*
G01*
X18622500Y-6650000D02*
G75*
G03*
X18797500Y-6650000I87500J0D01*
G01*
D10*
X18690000Y-6737500D02*
X18730000Y-6737500D01*
X18730000Y-6737500D02*
G75*
G03*
X18730000Y-6562500I0J87500D01*
G01*
X18730000Y-6562500D02*
X18690000Y-6562500D01*
X18690000Y-6562500D02*
G75*
G03*
X18690000Y-6737500I0J-87500D01*
G01*
D12*
X19377500Y-4750000D02*
G75*
G03*
X19202500Y-4750000I-87500J0D01*
G01*
X19202500Y-4750000D02*
G75*
G03*
X19377500Y-4750000I87500J0D01*
G01*
D10*
X19270000Y-4837500D02*
X19310000Y-4837500D01*
X19310000Y-4837500D02*
G75*
G03*
X19310000Y-4662500I0J87500D01*
G01*
X19310000Y-4662500D02*
X19270000Y-4662500D01*
X19270000Y-4662500D02*
G75*
G03*
X19270000Y-4837500I0J-87500D01*
G01*
D12*
X19852500Y-6650000D02*
G75*
G03*
X19677500Y-6650000I-87500J0D01*
G01*
X19677500Y-6650000D02*
G75*
G03*
X19852500Y-6650000I87500J0D01*
G01*
D10*
X19745000Y-6737500D02*
X19785000Y-6737500D01*
X19785000Y-6737500D02*
G75*
G03*
X19785000Y-6562500I0J87500D01*
G01*
X19785000Y-6562500D02*
X19745000Y-6562500D01*
X19745000Y-6562500D02*
G75*
G03*
X19745000Y-6737500I0J-87500D01*
G01*
D12*
X19985000Y-8550000D02*
G75*
G03*
X19810000Y-8550000I-87500J0D01*
G01*
X19810000Y-8550000D02*
G75*
G03*
X19985000Y-8550000I87500J0D01*
G01*
D10*
X19877500Y-8637500D02*
X19917500Y-8637500D01*
X19917500Y-8637500D02*
G75*
G03*
X19917500Y-8462500I0J87500D01*
G01*
X19917500Y-8462500D02*
X19877500Y-8462500D01*
X19877500Y-8462500D02*
G75*
G03*
X19877500Y-8637500I0J-87500D01*
G01*
D12*
X20222500Y-4750000D02*
G75*
G03*
X20047500Y-4750000I-87500J0D01*
G01*
X20047500Y-4750000D02*
G75*
G03*
X20222500Y-4750000I87500J0D01*
G01*
D10*
X20115000Y-4837500D02*
X20155000Y-4837500D01*
X20155000Y-4837500D02*
G75*
G03*
X20155000Y-4662500I0J87500D01*
G01*
X20155000Y-4662500D02*
X20115000Y-4662500D01*
X20115000Y-4662500D02*
G75*
G03*
X20115000Y-4837500I0J-87500D01*
G01*
D12*
X20697500Y-6650000D02*
G75*
G03*
X20522500Y-6650000I-87500J0D01*
G01*
X20522500Y-6650000D02*
G75*
G03*
X20697500Y-6650000I87500J0D01*
G01*
D10*
X20590000Y-6737500D02*
X20630000Y-6737500D01*
X20630000Y-6737500D02*
G75*
G03*
X20630000Y-6562500I0J87500D01*
G01*
X20630000Y-6562500D02*
X20590000Y-6562500D01*
X20590000Y-6562500D02*
G75*
G03*
X20590000Y-6737500I0J-87500D01*
G01*
D12*
X20697500Y-10450000D02*
G75*
G03*
X20522500Y-10450000I-87500J0D01*
G01*
X20522500Y-10450000D02*
G75*
G03*
X20697500Y-10450000I87500J0D01*
G01*
D10*
X20590000Y-10537500D02*
X20630000Y-10537500D01*
X20630000Y-10537500D02*
G75*
G03*
X20630000Y-10362500I0J87500D01*
G01*
X20630000Y-10362500D02*
X20590000Y-10362500D01*
X20590000Y-10362500D02*
G75*
G03*
X20590000Y-10537500I0J-87500D01*
G01*
D12*
X21040000Y-8550000D02*
G75*
G03*
X20865000Y-8550000I-87500J0D01*
G01*
X20865000Y-8550000D02*
G75*
G03*
X21040000Y-8550000I87500J0D01*
G01*
D10*
X20932500Y-8637500D02*
X20972500Y-8637500D01*
X20972500Y-8637500D02*
G75*
G03*
X20972500Y-8462500I0J87500D01*
G01*
X20972500Y-8462500D02*
X20932500Y-8462500D01*
X20932500Y-8462500D02*
G75*
G03*
X20932500Y-8637500I0J-87500D01*
G01*
D12*
X21277500Y-4750000D02*
G75*
G03*
X21102500Y-4750000I-87500J0D01*
G01*
X21102500Y-4750000D02*
G75*
G03*
X21277500Y-4750000I87500J0D01*
G01*
D10*
X21170000Y-4837500D02*
X21210000Y-4837500D01*
X21210000Y-4837500D02*
G75*
G03*
X21210000Y-4662500I0J87500D01*
G01*
X21210000Y-4662500D02*
X21170000Y-4662500D01*
X21170000Y-4662500D02*
G75*
G03*
X21170000Y-4837500I0J-87500D01*
G01*
D12*
X21752500Y-6650000D02*
G75*
G03*
X21577500Y-6650000I-87500J0D01*
G01*
X21577500Y-6650000D02*
G75*
G03*
X21752500Y-6650000I87500J0D01*
G01*
D10*
X21645000Y-6737500D02*
X21685000Y-6737500D01*
X21685000Y-6737500D02*
G75*
G03*
X21685000Y-6562500I0J87500D01*
G01*
X21685000Y-6562500D02*
X21645000Y-6562500D01*
X21645000Y-6562500D02*
G75*
G03*
X21645000Y-6737500I0J-87500D01*
G01*
D12*
X21752500Y-10450000D02*
G75*
G03*
X21577500Y-10450000I-87500J0D01*
G01*
X21577500Y-10450000D02*
G75*
G03*
X21752500Y-10450000I87500J0D01*
G01*
D10*
X21645000Y-10537500D02*
X21685000Y-10537500D01*
X21685000Y-10537500D02*
G75*
G03*
X21685000Y-10362500I0J87500D01*
G01*
X21685000Y-10362500D02*
X21645000Y-10362500D01*
X21645000Y-10362500D02*
G75*
G03*
X21645000Y-10537500I0J-87500D01*
G01*
D12*
X22122500Y-4750000D02*
G75*
G03*
X21947500Y-4750000I-87500J0D01*
G01*
X21947500Y-4750000D02*
G75*
G03*
X22122500Y-4750000I87500J0D01*
G01*
D10*
X22015000Y-4837500D02*
X22055000Y-4837500D01*
X22055000Y-4837500D02*
G75*
G03*
X22055000Y-4662500I0J87500D01*
G01*
X22055000Y-4662500D02*
X22015000Y-4662500D01*
X22015000Y-4662500D02*
G75*
G03*
X22015000Y-4837500I0J-87500D01*
G01*
D12*
X22597500Y-6650000D02*
G75*
G03*
X22422500Y-6650000I-87500J0D01*
G01*
X22422500Y-6650000D02*
G75*
G03*
X22597500Y-6650000I87500J0D01*
G01*
D10*
X22490000Y-6737500D02*
X22530000Y-6737500D01*
X22530000Y-6737500D02*
G75*
G03*
X22530000Y-6562500I0J87500D01*
G01*
X22530000Y-6562500D02*
X22490000Y-6562500D01*
X22490000Y-6562500D02*
G75*
G03*
X22490000Y-6737500I0J-87500D01*
G01*
D12*
X22597500Y-8550000D02*
G75*
G03*
X22422500Y-8550000I-87500J0D01*
G01*
X22422500Y-8550000D02*
G75*
G03*
X22597500Y-8550000I87500J0D01*
G01*
D10*
X22490000Y-8637500D02*
X22530000Y-8637500D01*
X22530000Y-8637500D02*
G75*
G03*
X22530000Y-8462500I0J87500D01*
G01*
X22530000Y-8462500D02*
X22490000Y-8462500D01*
X22490000Y-8462500D02*
G75*
G03*
X22490000Y-8637500I0J-87500D01*
G01*
D12*
X22597500Y-10450000D02*
G75*
G03*
X22422500Y-10450000I-87500J0D01*
G01*
X22422500Y-10450000D02*
G75*
G03*
X22597500Y-10450000I87500J0D01*
G01*
D10*
X22490000Y-10537500D02*
X22530000Y-10537500D01*
X22530000Y-10537500D02*
G75*
G03*
X22530000Y-10362500I0J87500D01*
G01*
X22530000Y-10362500D02*
X22490000Y-10362500D01*
X22490000Y-10362500D02*
G75*
G03*
X22490000Y-10537500I0J-87500D01*
G01*
D12*
X23177500Y-4750000D02*
G75*
G03*
X23002500Y-4750000I-87500J0D01*
G01*
X23002500Y-4750000D02*
G75*
G03*
X23177500Y-4750000I87500J0D01*
G01*
D10*
X23070000Y-4837500D02*
X23110000Y-4837500D01*
X23110000Y-4837500D02*
G75*
G03*
X23110000Y-4662500I0J87500D01*
G01*
X23110000Y-4662500D02*
X23070000Y-4662500D01*
X23070000Y-4662500D02*
G75*
G03*
X23070000Y-4837500I0J-87500D01*
G01*
D12*
X23652500Y-6650000D02*
G75*
G03*
X23477500Y-6650000I-87500J0D01*
G01*
X23477500Y-6650000D02*
G75*
G03*
X23652500Y-6650000I87500J0D01*
G01*
D10*
X23545000Y-6737500D02*
X23585000Y-6737500D01*
X23585000Y-6737500D02*
G75*
G03*
X23585000Y-6562500I0J87500D01*
G01*
X23585000Y-6562500D02*
X23545000Y-6562500D01*
X23545000Y-6562500D02*
G75*
G03*
X23545000Y-6737500I0J-87500D01*
G01*
D12*
X23652500Y-8550000D02*
G75*
G03*
X23477500Y-8550000I-87500J0D01*
G01*
X23477500Y-8550000D02*
G75*
G03*
X23652500Y-8550000I87500J0D01*
G01*
D10*
X23545000Y-8637500D02*
X23585000Y-8637500D01*
X23585000Y-8637500D02*
G75*
G03*
X23585000Y-8462500I0J87500D01*
G01*
X23585000Y-8462500D02*
X23545000Y-8462500D01*
X23545000Y-8462500D02*
G75*
G03*
X23545000Y-8637500I0J-87500D01*
G01*
D12*
X23652500Y-10450000D02*
G75*
G03*
X23477500Y-10450000I-87500J0D01*
G01*
X23477500Y-10450000D02*
G75*
G03*
X23652500Y-10450000I87500J0D01*
G01*
D10*
X23545000Y-10537500D02*
X23585000Y-10537500D01*
X23585000Y-10537500D02*
G75*
G03*
X23585000Y-10362500I0J87500D01*
G01*
X23585000Y-10362500D02*
X23545000Y-10362500D01*
X23545000Y-10362500D02*
G75*
G03*
X23545000Y-10537500I0J-87500D01*
G01*
D12*
X24260000Y-4750000D02*
G75*
G03*
X24085000Y-4750000I-87500J0D01*
G01*
X24085000Y-4750000D02*
G75*
G03*
X24260000Y-4750000I87500J0D01*
G01*
D10*
X24152500Y-4837500D02*
X24192500Y-4837500D01*
X24192500Y-4837500D02*
G75*
G03*
X24192500Y-4662500I0J87500D01*
G01*
X24192500Y-4662500D02*
X24152500Y-4662500D01*
X24152500Y-4662500D02*
G75*
G03*
X24152500Y-4837500I0J-87500D01*
G01*
D12*
X24497500Y-7600000D02*
G75*
G03*
X24322500Y-7600000I-87500J0D01*
G01*
X24322500Y-7600000D02*
G75*
G03*
X24497500Y-7600000I87500J0D01*
G01*
D10*
X24390000Y-7687500D02*
X24430000Y-7687500D01*
X24430000Y-7687500D02*
G75*
G03*
X24430000Y-7512500I0J87500D01*
G01*
X24430000Y-7512500D02*
X24390000Y-7512500D01*
X24390000Y-7512500D02*
G75*
G03*
X24390000Y-7687500I0J-87500D01*
G01*
D12*
X24497500Y-10450000D02*
G75*
G03*
X24322500Y-10450000I-87500J0D01*
G01*
X24322500Y-10450000D02*
G75*
G03*
X24497500Y-10450000I87500J0D01*
G01*
D10*
X24390000Y-10537500D02*
X24430000Y-10537500D01*
X24430000Y-10537500D02*
G75*
G03*
X24430000Y-10362500I0J87500D01*
G01*
X24430000Y-10362500D02*
X24390000Y-10362500D01*
X24390000Y-10362500D02*
G75*
G03*
X24390000Y-10537500I0J-87500D01*
G01*
D12*
X25315000Y-4750000D02*
G75*
G03*
X25140000Y-4750000I-87500J0D01*
G01*
X25140000Y-4750000D02*
G75*
G03*
X25315000Y-4750000I87500J0D01*
G01*
D10*
X25207500Y-4837500D02*
X25247500Y-4837500D01*
X25247500Y-4837500D02*
G75*
G03*
X25247500Y-4662500I0J87500D01*
G01*
X25247500Y-4662500D02*
X25207500Y-4662500D01*
X25207500Y-4662500D02*
G75*
G03*
X25207500Y-4837500I0J-87500D01*
G01*
D12*
X25552500Y-7600000D02*
G75*
G03*
X25377500Y-7600000I-87500J0D01*
G01*
X25377500Y-7600000D02*
G75*
G03*
X25552500Y-7600000I87500J0D01*
G01*
D10*
X25445000Y-7687500D02*
X25485000Y-7687500D01*
X25485000Y-7687500D02*
G75*
G03*
X25485000Y-7512500I0J87500D01*
G01*
X25485000Y-7512500D02*
X25445000Y-7512500D01*
X25445000Y-7512500D02*
G75*
G03*
X25445000Y-7687500I0J-87500D01*
G01*
D12*
X25552500Y-10450000D02*
G75*
G03*
X25377500Y-10450000I-87500J0D01*
G01*
X25377500Y-10450000D02*
G75*
G03*
X25552500Y-10450000I87500J0D01*
G01*
D10*
X25445000Y-10537500D02*
X25485000Y-10537500D01*
X25485000Y-10537500D02*
G75*
G03*
X25485000Y-10362500I0J87500D01*
G01*
X25485000Y-10362500D02*
X25445000Y-10362500D01*
X25445000Y-10362500D02*
G75*
G03*
X25445000Y-10537500I0J-87500D01*
G01*
D13*
X9236250Y-9425110D02*
X9236250Y-9823890D01*
X9036860Y-9624500D02*
X9435640Y-9624500D01*
X19237500Y-9425110D02*
X19237500Y-9823890D01*
X19038110Y-9624500D02*
X19436890Y-9624500D01*
X24112000Y-6209985D02*
X24112000Y-6608765D01*
X23912610Y-6409375D02*
X24311390Y-6409375D01*
X24112000Y-8591235D02*
X24112000Y-8990015D01*
X23912610Y-8790625D02*
X24311390Y-8790625D01*
D14*
X3703923Y-4891423D02*
X3703923Y-4608577D01*
X3421077Y-4608577D01*
X3421077Y-4891423D01*
X3703923Y-4891423D01*
X3941423Y-6791423D02*
X3941423Y-6508577D01*
X3658577Y-6508577D01*
X3658577Y-6791423D01*
X3941423Y-6791423D01*
X3941423Y-10591423D02*
X3941423Y-10308577D01*
X3658577Y-10308577D01*
X3658577Y-10591423D01*
X3941423Y-10591423D01*
X4416423Y-8691423D02*
X4416423Y-8408577D01*
X4133577Y-8408577D01*
X4133577Y-8691423D01*
X4416423Y-8691423D01*
X5603923Y-4891423D02*
X5603923Y-4608577D01*
X5321077Y-4608577D01*
X5321077Y-4891423D01*
X5603923Y-4891423D01*
X6078923Y-6791423D02*
X6078923Y-6508577D01*
X5796077Y-6508577D01*
X5796077Y-6791423D01*
X6078923Y-6791423D01*
X6553923Y-8691423D02*
X6553923Y-8408577D01*
X6271077Y-8408577D01*
X6271077Y-8691423D01*
X6553923Y-8691423D01*
X6791423Y-10591423D02*
X6791423Y-10308577D01*
X6508577Y-10308577D01*
X6508577Y-10591423D01*
X6791423Y-10591423D01*
X7503923Y-4891423D02*
X7503923Y-4608577D01*
X7221077Y-4608577D01*
X7221077Y-4891423D01*
X7503923Y-4891423D01*
X7978923Y-6791423D02*
X7978923Y-6508577D01*
X7696077Y-6508577D01*
X7696077Y-6791423D01*
X7978923Y-6791423D01*
X8453923Y-8691423D02*
X8453923Y-8408577D01*
X8171077Y-8408577D01*
X8171077Y-8691423D01*
X8453923Y-8691423D01*
X9403923Y-4891423D02*
X9403923Y-4608577D01*
X9121077Y-4608577D01*
X9121077Y-4891423D01*
X9403923Y-4891423D01*
X9878923Y-6791423D02*
X9878923Y-6508577D01*
X9596077Y-6508577D01*
X9596077Y-6791423D01*
X9878923Y-6791423D01*
X10353923Y-8691423D02*
X10353923Y-8408577D01*
X10071077Y-8408577D01*
X10071077Y-8691423D01*
X10353923Y-8691423D01*
X11303923Y-4891423D02*
X11303923Y-4608577D01*
X11021077Y-4608577D01*
X11021077Y-4891423D01*
X11303923Y-4891423D01*
X11778923Y-6791423D02*
X11778923Y-6508577D01*
X11496077Y-6508577D01*
X11496077Y-6791423D01*
X11778923Y-6791423D01*
X12253923Y-8691423D02*
X12253923Y-8408577D01*
X11971077Y-8408577D01*
X11971077Y-8691423D01*
X12253923Y-8691423D01*
X13203923Y-4891423D02*
X13203923Y-4608577D01*
X12921077Y-4608577D01*
X12921077Y-4891423D01*
X13203923Y-4891423D01*
X13678923Y-6791423D02*
X13678923Y-6508577D01*
X13396077Y-6508577D01*
X13396077Y-6791423D01*
X13678923Y-6791423D01*
X14153923Y-8691423D02*
X14153923Y-8408577D01*
X13871077Y-8408577D01*
X13871077Y-8691423D01*
X14153923Y-8691423D01*
X14391423Y-10591423D02*
X14391423Y-10308577D01*
X14108577Y-10308577D01*
X14108577Y-10591423D01*
X14391423Y-10591423D01*
X15103923Y-4891423D02*
X15103923Y-4608577D01*
X14821077Y-4608577D01*
X14821077Y-4891423D01*
X15103923Y-4891423D01*
X15578923Y-6791423D02*
X15578923Y-6508577D01*
X15296077Y-6508577D01*
X15296077Y-6791423D01*
X15578923Y-6791423D01*
X16053923Y-8691423D02*
X16053923Y-8408577D01*
X15771077Y-8408577D01*
X15771077Y-8691423D01*
X16053923Y-8691423D01*
X17003923Y-4891423D02*
X17003923Y-4608577D01*
X16721077Y-4608577D01*
X16721077Y-4891423D01*
X17003923Y-4891423D01*
X17478923Y-6791423D02*
X17478923Y-6508577D01*
X17196077Y-6508577D01*
X17196077Y-6791423D01*
X17478923Y-6791423D01*
X17953923Y-8691423D02*
X17953923Y-8408577D01*
X17671077Y-8408577D01*
X17671077Y-8691423D01*
X17953923Y-8691423D01*
X18903923Y-4891423D02*
X18903923Y-4608577D01*
X18621077Y-4608577D01*
X18621077Y-4891423D01*
X18903923Y-4891423D01*
X19378923Y-6791423D02*
X19378923Y-6508577D01*
X19096077Y-6508577D01*
X19096077Y-6791423D01*
X19378923Y-6791423D01*
X20566423Y-8691423D02*
X20566423Y-8408577D01*
X20283577Y-8408577D01*
X20283577Y-8691423D01*
X20566423Y-8691423D01*
X20803923Y-4891423D02*
X20803923Y-4608577D01*
X20521077Y-4608577D01*
X20521077Y-4891423D01*
X20803923Y-4891423D01*
X21278923Y-6791423D02*
X21278923Y-6508577D01*
X20996077Y-6508577D01*
X20996077Y-6791423D01*
X21278923Y-6791423D01*
X21278923Y-10591423D02*
X21278923Y-10308577D01*
X20996077Y-10308577D01*
X20996077Y-10591423D01*
X21278923Y-10591423D01*
X22703923Y-4891423D02*
X22703923Y-4608577D01*
X22421077Y-4608577D01*
X22421077Y-4891423D01*
X22703923Y-4891423D01*
X23178923Y-6791423D02*
X23178923Y-6508577D01*
X22896077Y-6508577D01*
X22896077Y-6791423D01*
X23178923Y-6791423D01*
X23178923Y-8691423D02*
X23178923Y-8408577D01*
X22896077Y-8408577D01*
X22896077Y-8691423D01*
X23178923Y-8691423D01*
X23178923Y-10591423D02*
X23178923Y-10308577D01*
X22896077Y-10308577D01*
X22896077Y-10591423D01*
X23178923Y-10591423D01*
X24841423Y-4891423D02*
X24841423Y-4608577D01*
X24558577Y-4608577D01*
X24558577Y-4891423D01*
X24841423Y-4891423D01*
X25078923Y-7741423D02*
X25078923Y-7458577D01*
X24796077Y-7458577D01*
X24796077Y-7741423D01*
X25078923Y-7741423D01*
X25078923Y-10591423D02*
X25078923Y-10308577D01*
X24796077Y-10308577D01*
X24796077Y-10591423D01*
X25078923Y-10591423D01*
D11*
X2545777Y-11716484D02*
X2545777Y-11516484D01*
X2545777Y-11516484D02*
X2593396Y-11516484D01*
X2593396Y-11516484D02*
X2621967Y-11526008D01*
X2621967Y-11526008D02*
X2641015Y-11545055D01*
X2641015Y-11545055D02*
X2650539Y-11564103D01*
X2650539Y-11564103D02*
X2660063Y-11602198D01*
X2660063Y-11602198D02*
X2660063Y-11630769D01*
X2660063Y-11630769D02*
X2650539Y-11668865D01*
X2650539Y-11668865D02*
X2641015Y-11687912D01*
X2641015Y-11687912D02*
X2621967Y-11706960D01*
X2621967Y-11706960D02*
X2593396Y-11716484D01*
X2593396Y-11716484D02*
X2545777Y-11716484D01*
X2745777Y-11716484D02*
X2745777Y-11583150D01*
X2745777Y-11621246D02*
X2755301Y-11602198D01*
X2755301Y-11602198D02*
X2764824Y-11592674D01*
X2764824Y-11592674D02*
X2783872Y-11583150D01*
X2783872Y-11583150D02*
X2802920Y-11583150D01*
X2869586Y-11716484D02*
X2869586Y-11583150D01*
X2869586Y-11516484D02*
X2860062Y-11526008D01*
X2860062Y-11526008D02*
X2869586Y-11535531D01*
X2869586Y-11535531D02*
X2879110Y-11526008D01*
X2879110Y-11526008D02*
X2869586Y-11516484D01*
X2869586Y-11516484D02*
X2869586Y-11535531D01*
X2993396Y-11716484D02*
X2974348Y-11706960D01*
X2974348Y-11706960D02*
X2964824Y-11687912D01*
X2964824Y-11687912D02*
X2964824Y-11516484D01*
X3098158Y-11716484D02*
X3079110Y-11706960D01*
X3079110Y-11706960D02*
X3069586Y-11687912D01*
X3069586Y-11687912D02*
X3069586Y-11516484D01*
X3326729Y-11716484D02*
X3326729Y-11516484D01*
X3326729Y-11516484D02*
X3393396Y-11659341D01*
X3393396Y-11659341D02*
X3460062Y-11516484D01*
X3460062Y-11516484D02*
X3460062Y-11716484D01*
X3641015Y-11716484D02*
X3641015Y-11611722D01*
X3641015Y-11611722D02*
X3631491Y-11592674D01*
X3631491Y-11592674D02*
X3612443Y-11583150D01*
X3612443Y-11583150D02*
X3574348Y-11583150D01*
X3574348Y-11583150D02*
X3555301Y-11592674D01*
X3641015Y-11706960D02*
X3621967Y-11716484D01*
X3621967Y-11716484D02*
X3574348Y-11716484D01*
X3574348Y-11716484D02*
X3555301Y-11706960D01*
X3555301Y-11706960D02*
X3545777Y-11687912D01*
X3545777Y-11687912D02*
X3545777Y-11668865D01*
X3545777Y-11668865D02*
X3555301Y-11649817D01*
X3555301Y-11649817D02*
X3574348Y-11640293D01*
X3574348Y-11640293D02*
X3621967Y-11640293D01*
X3621967Y-11640293D02*
X3641015Y-11630769D01*
X3736253Y-11583150D02*
X3736253Y-11783150D01*
X3736253Y-11592674D02*
X3755301Y-11583150D01*
X3755301Y-11583150D02*
X3793396Y-11583150D01*
X3793396Y-11583150D02*
X3812443Y-11592674D01*
X3812443Y-11592674D02*
X3821967Y-11602198D01*
X3821967Y-11602198D02*
X3831491Y-11621246D01*
X3831491Y-11621246D02*
X3831491Y-11678388D01*
X3831491Y-11678388D02*
X3821967Y-11697436D01*
X3821967Y-11697436D02*
X3812443Y-11706960D01*
X3812443Y-11706960D02*
X3793396Y-11716484D01*
X3793396Y-11716484D02*
X3755301Y-11716484D01*
X3755301Y-11716484D02*
X3736253Y-11706960D01*
X3917205Y-11697436D02*
X3926729Y-11706960D01*
X3926729Y-11706960D02*
X3917205Y-11716484D01*
X3917205Y-11716484D02*
X3907682Y-11706960D01*
X3907682Y-11706960D02*
X3917205Y-11697436D01*
X3917205Y-11697436D02*
X3917205Y-11716484D01*
X3917205Y-11592674D02*
X3926729Y-11602198D01*
X3926729Y-11602198D02*
X3917205Y-11611722D01*
X3917205Y-11611722D02*
X3907682Y-11602198D01*
X3907682Y-11602198D02*
X3917205Y-11592674D01*
X3917205Y-11592674D02*
X3917205Y-11611722D01*
D10*
X2185940Y-11995470D02*
X2285000Y-12094530D01*
X2285000Y-11995470D02*
X2185940Y-12094530D01*
D11*
X2583872Y-11936484D02*
X2602920Y-11936484D01*
X2602920Y-11936484D02*
X2621967Y-11946008D01*
X2621967Y-11946008D02*
X2631491Y-11955531D01*
X2631491Y-11955531D02*
X2641015Y-11974579D01*
X2641015Y-11974579D02*
X2650539Y-12012674D01*
X2650539Y-12012674D02*
X2650539Y-12060293D01*
X2650539Y-12060293D02*
X2641015Y-12098388D01*
X2641015Y-12098388D02*
X2631491Y-12117436D01*
X2631491Y-12117436D02*
X2621967Y-12126960D01*
X2621967Y-12126960D02*
X2602920Y-12136484D01*
X2602920Y-12136484D02*
X2583872Y-12136484D01*
X2583872Y-12136484D02*
X2564824Y-12126960D01*
X2564824Y-12126960D02*
X2555301Y-12117436D01*
X2555301Y-12117436D02*
X2545777Y-12098388D01*
X2545777Y-12098388D02*
X2536253Y-12060293D01*
X2536253Y-12060293D02*
X2536253Y-12012674D01*
X2536253Y-12012674D02*
X2545777Y-11974579D01*
X2545777Y-11974579D02*
X2555301Y-11955531D01*
X2555301Y-11955531D02*
X2564824Y-11946008D01*
X2564824Y-11946008D02*
X2583872Y-11936484D01*
X2736253Y-12117436D02*
X2745777Y-12126960D01*
X2745777Y-12126960D02*
X2736253Y-12136484D01*
X2736253Y-12136484D02*
X2726729Y-12126960D01*
X2726729Y-12126960D02*
X2736253Y-12117436D01*
X2736253Y-12117436D02*
X2736253Y-12136484D01*
X2841015Y-12136484D02*
X2879110Y-12136484D01*
X2879110Y-12136484D02*
X2898158Y-12126960D01*
X2898158Y-12126960D02*
X2907682Y-12117436D01*
X2907682Y-12117436D02*
X2926729Y-12088865D01*
X2926729Y-12088865D02*
X2936253Y-12050769D01*
X2936253Y-12050769D02*
X2936253Y-11974579D01*
X2936253Y-11974579D02*
X2926729Y-11955531D01*
X2926729Y-11955531D02*
X2917205Y-11946008D01*
X2917205Y-11946008D02*
X2898158Y-11936484D01*
X2898158Y-11936484D02*
X2860062Y-11936484D01*
X2860062Y-11936484D02*
X2841015Y-11946008D01*
X2841015Y-11946008D02*
X2831491Y-11955531D01*
X2831491Y-11955531D02*
X2821967Y-11974579D01*
X2821967Y-11974579D02*
X2821967Y-12022198D01*
X2821967Y-12022198D02*
X2831491Y-12041246D01*
X2831491Y-12041246D02*
X2841015Y-12050769D01*
X2841015Y-12050769D02*
X2860062Y-12060293D01*
X2860062Y-12060293D02*
X2898158Y-12060293D01*
X2898158Y-12060293D02*
X2917205Y-12050769D01*
X2917205Y-12050769D02*
X2926729Y-12041246D01*
X2926729Y-12041246D02*
X2936253Y-12022198D01*
X3031491Y-12136484D02*
X3069586Y-12136484D01*
X3069586Y-12136484D02*
X3088634Y-12126960D01*
X3088634Y-12126960D02*
X3098158Y-12117436D01*
X3098158Y-12117436D02*
X3117205Y-12088865D01*
X3117205Y-12088865D02*
X3126729Y-12050769D01*
X3126729Y-12050769D02*
X3126729Y-11974579D01*
X3126729Y-11974579D02*
X3117205Y-11955531D01*
X3117205Y-11955531D02*
X3107682Y-11946008D01*
X3107682Y-11946008D02*
X3088634Y-11936484D01*
X3088634Y-11936484D02*
X3050539Y-11936484D01*
X3050539Y-11936484D02*
X3031491Y-11946008D01*
X3031491Y-11946008D02*
X3021967Y-11955531D01*
X3021967Y-11955531D02*
X3012443Y-11974579D01*
X3012443Y-11974579D02*
X3012443Y-12022198D01*
X3012443Y-12022198D02*
X3021967Y-12041246D01*
X3021967Y-12041246D02*
X3031491Y-12050769D01*
X3031491Y-12050769D02*
X3050539Y-12060293D01*
X3050539Y-12060293D02*
X3088634Y-12060293D01*
X3088634Y-12060293D02*
X3107682Y-12050769D01*
X3107682Y-12050769D02*
X3117205Y-12041246D01*
X3117205Y-12041246D02*
X3126729Y-12022198D01*
X3317205Y-12136484D02*
X3202920Y-12136484D01*
X3260062Y-12136484D02*
X3260062Y-11936484D01*
X3260062Y-11936484D02*
X3241015Y-11965055D01*
X3241015Y-11965055D02*
X3221967Y-11984103D01*
X3221967Y-11984103D02*
X3202920Y-11993627D01*
X3402920Y-12136484D02*
X3402920Y-12003150D01*
X3402920Y-12022198D02*
X3412443Y-12012674D01*
X3412443Y-12012674D02*
X3431491Y-12003150D01*
X3431491Y-12003150D02*
X3460063Y-12003150D01*
X3460063Y-12003150D02*
X3479110Y-12012674D01*
X3479110Y-12012674D02*
X3488634Y-12031722D01*
X3488634Y-12031722D02*
X3488634Y-12136484D01*
X3488634Y-12031722D02*
X3498158Y-12012674D01*
X3498158Y-12012674D02*
X3517205Y-12003150D01*
X3517205Y-12003150D02*
X3545777Y-12003150D01*
X3545777Y-12003150D02*
X3564824Y-12012674D01*
X3564824Y-12012674D02*
X3574348Y-12031722D01*
X3574348Y-12031722D02*
X3574348Y-12136484D01*
X3669586Y-12136484D02*
X3669586Y-12003150D01*
X3669586Y-12022198D02*
X3679110Y-12012674D01*
X3679110Y-12012674D02*
X3698158Y-12003150D01*
X3698158Y-12003150D02*
X3726729Y-12003150D01*
X3726729Y-12003150D02*
X3745777Y-12012674D01*
X3745777Y-12012674D02*
X3755301Y-12031722D01*
X3755301Y-12031722D02*
X3755301Y-12136484D01*
X3755301Y-12031722D02*
X3764824Y-12012674D01*
X3764824Y-12012674D02*
X3783872Y-12003150D01*
X3783872Y-12003150D02*
X3812443Y-12003150D01*
X3812443Y-12003150D02*
X3831491Y-12012674D01*
X3831491Y-12012674D02*
X3841015Y-12031722D01*
X3841015Y-12031722D02*
X3841015Y-12136484D01*
X4231491Y-11926960D02*
X4060063Y-12184103D01*
X4488634Y-11936484D02*
X4507682Y-11936484D01*
X4507682Y-11936484D02*
X4526729Y-11946008D01*
X4526729Y-11946008D02*
X4536253Y-11955531D01*
X4536253Y-11955531D02*
X4545777Y-11974579D01*
X4545777Y-11974579D02*
X4555301Y-12012674D01*
X4555301Y-12012674D02*
X4555301Y-12060293D01*
X4555301Y-12060293D02*
X4545777Y-12098388D01*
X4545777Y-12098388D02*
X4536253Y-12117436D01*
X4536253Y-12117436D02*
X4526729Y-12126960D01*
X4526729Y-12126960D02*
X4507682Y-12136484D01*
X4507682Y-12136484D02*
X4488634Y-12136484D01*
X4488634Y-12136484D02*
X4469587Y-12126960D01*
X4469587Y-12126960D02*
X4460063Y-12117436D01*
X4460063Y-12117436D02*
X4450539Y-12098388D01*
X4450539Y-12098388D02*
X4441015Y-12060293D01*
X4441015Y-12060293D02*
X4441015Y-12012674D01*
X4441015Y-12012674D02*
X4450539Y-11974579D01*
X4450539Y-11974579D02*
X4460063Y-11955531D01*
X4460063Y-11955531D02*
X4469587Y-11946008D01*
X4469587Y-11946008D02*
X4488634Y-11936484D01*
X4641015Y-12117436D02*
X4650539Y-12126960D01*
X4650539Y-12126960D02*
X4641015Y-12136484D01*
X4641015Y-12136484D02*
X4631491Y-12126960D01*
X4631491Y-12126960D02*
X4641015Y-12117436D01*
X4641015Y-12117436D02*
X4641015Y-12136484D01*
X4774348Y-11936484D02*
X4793396Y-11936484D01*
X4793396Y-11936484D02*
X4812444Y-11946008D01*
X4812444Y-11946008D02*
X4821968Y-11955531D01*
X4821968Y-11955531D02*
X4831491Y-11974579D01*
X4831491Y-11974579D02*
X4841015Y-12012674D01*
X4841015Y-12012674D02*
X4841015Y-12060293D01*
X4841015Y-12060293D02*
X4831491Y-12098388D01*
X4831491Y-12098388D02*
X4821968Y-12117436D01*
X4821968Y-12117436D02*
X4812444Y-12126960D01*
X4812444Y-12126960D02*
X4793396Y-12136484D01*
X4793396Y-12136484D02*
X4774348Y-12136484D01*
X4774348Y-12136484D02*
X4755301Y-12126960D01*
X4755301Y-12126960D02*
X4745777Y-12117436D01*
X4745777Y-12117436D02*
X4736253Y-12098388D01*
X4736253Y-12098388D02*
X4726729Y-12060293D01*
X4726729Y-12060293D02*
X4726729Y-12012674D01*
X4726729Y-12012674D02*
X4736253Y-11974579D01*
X4736253Y-11974579D02*
X4745777Y-11955531D01*
X4745777Y-11955531D02*
X4755301Y-11946008D01*
X4755301Y-11946008D02*
X4774348Y-11936484D01*
X4907682Y-11936484D02*
X5031491Y-11936484D01*
X5031491Y-11936484D02*
X4964825Y-12012674D01*
X4964825Y-12012674D02*
X4993396Y-12012674D01*
X4993396Y-12012674D02*
X5012444Y-12022198D01*
X5012444Y-12022198D02*
X5021968Y-12031722D01*
X5021968Y-12031722D02*
X5031491Y-12050769D01*
X5031491Y-12050769D02*
X5031491Y-12098388D01*
X5031491Y-12098388D02*
X5021968Y-12117436D01*
X5021968Y-12117436D02*
X5012444Y-12126960D01*
X5012444Y-12126960D02*
X4993396Y-12136484D01*
X4993396Y-12136484D02*
X4936253Y-12136484D01*
X4936253Y-12136484D02*
X4917206Y-12126960D01*
X4917206Y-12126960D02*
X4907682Y-12117436D01*
X5126729Y-12136484D02*
X5164825Y-12136484D01*
X5164825Y-12136484D02*
X5183872Y-12126960D01*
X5183872Y-12126960D02*
X5193396Y-12117436D01*
X5193396Y-12117436D02*
X5212444Y-12088865D01*
X5212444Y-12088865D02*
X5221968Y-12050769D01*
X5221968Y-12050769D02*
X5221968Y-11974579D01*
X5221968Y-11974579D02*
X5212444Y-11955531D01*
X5212444Y-11955531D02*
X5202920Y-11946008D01*
X5202920Y-11946008D02*
X5183872Y-11936484D01*
X5183872Y-11936484D02*
X5145777Y-11936484D01*
X5145777Y-11936484D02*
X5126729Y-11946008D01*
X5126729Y-11946008D02*
X5117206Y-11955531D01*
X5117206Y-11955531D02*
X5107682Y-11974579D01*
X5107682Y-11974579D02*
X5107682Y-12022198D01*
X5107682Y-12022198D02*
X5117206Y-12041246D01*
X5117206Y-12041246D02*
X5126729Y-12050769D01*
X5126729Y-12050769D02*
X5145777Y-12060293D01*
X5145777Y-12060293D02*
X5183872Y-12060293D01*
X5183872Y-12060293D02*
X5202920Y-12050769D01*
X5202920Y-12050769D02*
X5212444Y-12041246D01*
X5212444Y-12041246D02*
X5221968Y-12022198D01*
X5345777Y-11936484D02*
X5364825Y-11936484D01*
X5364825Y-11936484D02*
X5383872Y-11946008D01*
X5383872Y-11946008D02*
X5393396Y-11955531D01*
X5393396Y-11955531D02*
X5402920Y-11974579D01*
X5402920Y-11974579D02*
X5412444Y-12012674D01*
X5412444Y-12012674D02*
X5412444Y-12060293D01*
X5412444Y-12060293D02*
X5402920Y-12098388D01*
X5402920Y-12098388D02*
X5393396Y-12117436D01*
X5393396Y-12117436D02*
X5383872Y-12126960D01*
X5383872Y-12126960D02*
X5364825Y-12136484D01*
X5364825Y-12136484D02*
X5345777Y-12136484D01*
X5345777Y-12136484D02*
X5326729Y-12126960D01*
X5326729Y-12126960D02*
X5317206Y-12117436D01*
X5317206Y-12117436D02*
X5307682Y-12098388D01*
X5307682Y-12098388D02*
X5298158Y-12060293D01*
X5298158Y-12060293D02*
X5298158Y-12012674D01*
X5298158Y-12012674D02*
X5307682Y-11974579D01*
X5307682Y-11974579D02*
X5317206Y-11955531D01*
X5317206Y-11955531D02*
X5326729Y-11946008D01*
X5326729Y-11946008D02*
X5345777Y-11936484D01*
X5488634Y-11936484D02*
X5488634Y-11974579D01*
X5564825Y-11936484D02*
X5564825Y-11974579D01*
X5860063Y-12212674D02*
X5850539Y-12203150D01*
X5850539Y-12203150D02*
X5831491Y-12174579D01*
X5831491Y-12174579D02*
X5821968Y-12155531D01*
X5821968Y-12155531D02*
X5812444Y-12126960D01*
X5812444Y-12126960D02*
X5802920Y-12079341D01*
X5802920Y-12079341D02*
X5802920Y-12041246D01*
X5802920Y-12041246D02*
X5812444Y-11993627D01*
X5812444Y-11993627D02*
X5821968Y-11965055D01*
X5821968Y-11965055D02*
X5831491Y-11946008D01*
X5831491Y-11946008D02*
X5850539Y-11917436D01*
X5850539Y-11917436D02*
X5860063Y-11907912D01*
X6021968Y-12003150D02*
X6021968Y-12136484D01*
X5974348Y-11926960D02*
X5926729Y-12069817D01*
X5926729Y-12069817D02*
X6050539Y-12069817D01*
X6164825Y-11936484D02*
X6183872Y-11936484D01*
X6183872Y-11936484D02*
X6202920Y-11946008D01*
X6202920Y-11946008D02*
X6212444Y-11955531D01*
X6212444Y-11955531D02*
X6221968Y-11974579D01*
X6221968Y-11974579D02*
X6231491Y-12012674D01*
X6231491Y-12012674D02*
X6231491Y-12060293D01*
X6231491Y-12060293D02*
X6221968Y-12098388D01*
X6221968Y-12098388D02*
X6212444Y-12117436D01*
X6212444Y-12117436D02*
X6202920Y-12126960D01*
X6202920Y-12126960D02*
X6183872Y-12136484D01*
X6183872Y-12136484D02*
X6164825Y-12136484D01*
X6164825Y-12136484D02*
X6145777Y-12126960D01*
X6145777Y-12126960D02*
X6136253Y-12117436D01*
X6136253Y-12117436D02*
X6126729Y-12098388D01*
X6126729Y-12098388D02*
X6117206Y-12060293D01*
X6117206Y-12060293D02*
X6117206Y-12012674D01*
X6117206Y-12012674D02*
X6126729Y-11974579D01*
X6126729Y-11974579D02*
X6136253Y-11955531D01*
X6136253Y-11955531D02*
X6145777Y-11946008D01*
X6145777Y-11946008D02*
X6164825Y-11936484D01*
X6469587Y-12136484D02*
X6469587Y-11936484D01*
X6555301Y-12136484D02*
X6555301Y-12031722D01*
X6555301Y-12031722D02*
X6545777Y-12012674D01*
X6545777Y-12012674D02*
X6526730Y-12003150D01*
X6526730Y-12003150D02*
X6498158Y-12003150D01*
X6498158Y-12003150D02*
X6479110Y-12012674D01*
X6479110Y-12012674D02*
X6469587Y-12022198D01*
X6679110Y-12136484D02*
X6660063Y-12126960D01*
X6660063Y-12126960D02*
X6650539Y-12117436D01*
X6650539Y-12117436D02*
X6641015Y-12098388D01*
X6641015Y-12098388D02*
X6641015Y-12041246D01*
X6641015Y-12041246D02*
X6650539Y-12022198D01*
X6650539Y-12022198D02*
X6660063Y-12012674D01*
X6660063Y-12012674D02*
X6679110Y-12003150D01*
X6679110Y-12003150D02*
X6707682Y-12003150D01*
X6707682Y-12003150D02*
X6726730Y-12012674D01*
X6726730Y-12012674D02*
X6736253Y-12022198D01*
X6736253Y-12022198D02*
X6745777Y-12041246D01*
X6745777Y-12041246D02*
X6745777Y-12098388D01*
X6745777Y-12098388D02*
X6736253Y-12117436D01*
X6736253Y-12117436D02*
X6726730Y-12126960D01*
X6726730Y-12126960D02*
X6707682Y-12136484D01*
X6707682Y-12136484D02*
X6679110Y-12136484D01*
X6860063Y-12136484D02*
X6841015Y-12126960D01*
X6841015Y-12126960D02*
X6831491Y-12107912D01*
X6831491Y-12107912D02*
X6831491Y-11936484D01*
X7012444Y-12126960D02*
X6993396Y-12136484D01*
X6993396Y-12136484D02*
X6955301Y-12136484D01*
X6955301Y-12136484D02*
X6936253Y-12126960D01*
X6936253Y-12126960D02*
X6926730Y-12107912D01*
X6926730Y-12107912D02*
X6926730Y-12031722D01*
X6926730Y-12031722D02*
X6936253Y-12012674D01*
X6936253Y-12012674D02*
X6955301Y-12003150D01*
X6955301Y-12003150D02*
X6993396Y-12003150D01*
X6993396Y-12003150D02*
X7012444Y-12012674D01*
X7012444Y-12012674D02*
X7021968Y-12031722D01*
X7021968Y-12031722D02*
X7021968Y-12050769D01*
X7021968Y-12050769D02*
X6926730Y-12069817D01*
X7098158Y-12126960D02*
X7117206Y-12136484D01*
X7117206Y-12136484D02*
X7155301Y-12136484D01*
X7155301Y-12136484D02*
X7174349Y-12126960D01*
X7174349Y-12126960D02*
X7183872Y-12107912D01*
X7183872Y-12107912D02*
X7183872Y-12098388D01*
X7183872Y-12098388D02*
X7174349Y-12079341D01*
X7174349Y-12079341D02*
X7155301Y-12069817D01*
X7155301Y-12069817D02*
X7126730Y-12069817D01*
X7126730Y-12069817D02*
X7107682Y-12060293D01*
X7107682Y-12060293D02*
X7098158Y-12041246D01*
X7098158Y-12041246D02*
X7098158Y-12031722D01*
X7098158Y-12031722D02*
X7107682Y-12012674D01*
X7107682Y-12012674D02*
X7126730Y-12003150D01*
X7126730Y-12003150D02*
X7155301Y-12003150D01*
X7155301Y-12003150D02*
X7174349Y-12012674D01*
X7250539Y-12212674D02*
X7260063Y-12203150D01*
X7260063Y-12203150D02*
X7279111Y-12174579D01*
X7279111Y-12174579D02*
X7288634Y-12155531D01*
X7288634Y-12155531D02*
X7298158Y-12126960D01*
X7298158Y-12126960D02*
X7307682Y-12079341D01*
X7307682Y-12079341D02*
X7307682Y-12041246D01*
X7307682Y-12041246D02*
X7298158Y-11993627D01*
X7298158Y-11993627D02*
X7288634Y-11965055D01*
X7288634Y-11965055D02*
X7279111Y-11946008D01*
X7279111Y-11946008D02*
X7260063Y-11917436D01*
X7260063Y-11917436D02*
X7250539Y-11907912D01*
X7612444Y-12212674D02*
X7602920Y-12203150D01*
X7602920Y-12203150D02*
X7583872Y-12174579D01*
X7583872Y-12174579D02*
X7574349Y-12155531D01*
X7574349Y-12155531D02*
X7564825Y-12126960D01*
X7564825Y-12126960D02*
X7555301Y-12079341D01*
X7555301Y-12079341D02*
X7555301Y-12041246D01*
X7555301Y-12041246D02*
X7564825Y-11993627D01*
X7564825Y-11993627D02*
X7574349Y-11965055D01*
X7574349Y-11965055D02*
X7583872Y-11946008D01*
X7583872Y-11946008D02*
X7602920Y-11917436D01*
X7602920Y-11917436D02*
X7612444Y-11907912D01*
X7688634Y-12003150D02*
X7688634Y-12136484D01*
X7688634Y-12022198D02*
X7698158Y-12012674D01*
X7698158Y-12012674D02*
X7717206Y-12003150D01*
X7717206Y-12003150D02*
X7745777Y-12003150D01*
X7745777Y-12003150D02*
X7764825Y-12012674D01*
X7764825Y-12012674D02*
X7774349Y-12031722D01*
X7774349Y-12031722D02*
X7774349Y-12136484D01*
X7898158Y-12136484D02*
X7879111Y-12126960D01*
X7879111Y-12126960D02*
X7869587Y-12117436D01*
X7869587Y-12117436D02*
X7860063Y-12098388D01*
X7860063Y-12098388D02*
X7860063Y-12041246D01*
X7860063Y-12041246D02*
X7869587Y-12022198D01*
X7869587Y-12022198D02*
X7879111Y-12012674D01*
X7879111Y-12012674D02*
X7898158Y-12003150D01*
X7898158Y-12003150D02*
X7926730Y-12003150D01*
X7926730Y-12003150D02*
X7945777Y-12012674D01*
X7945777Y-12012674D02*
X7955301Y-12022198D01*
X7955301Y-12022198D02*
X7964825Y-12041246D01*
X7964825Y-12041246D02*
X7964825Y-12098388D01*
X7964825Y-12098388D02*
X7955301Y-12117436D01*
X7955301Y-12117436D02*
X7945777Y-12126960D01*
X7945777Y-12126960D02*
X7926730Y-12136484D01*
X7926730Y-12136484D02*
X7898158Y-12136484D01*
X8021968Y-12003150D02*
X8098158Y-12003150D01*
X8050539Y-11936484D02*
X8050539Y-12107912D01*
X8050539Y-12107912D02*
X8060063Y-12126960D01*
X8060063Y-12126960D02*
X8079111Y-12136484D01*
X8079111Y-12136484D02*
X8098158Y-12136484D01*
X8317206Y-12003150D02*
X8317206Y-12203150D01*
X8317206Y-12012674D02*
X8336253Y-12003150D01*
X8336253Y-12003150D02*
X8374349Y-12003150D01*
X8374349Y-12003150D02*
X8393396Y-12012674D01*
X8393396Y-12012674D02*
X8402920Y-12022198D01*
X8402920Y-12022198D02*
X8412444Y-12041246D01*
X8412444Y-12041246D02*
X8412444Y-12098388D01*
X8412444Y-12098388D02*
X8402920Y-12117436D01*
X8402920Y-12117436D02*
X8393396Y-12126960D01*
X8393396Y-12126960D02*
X8374349Y-12136484D01*
X8374349Y-12136484D02*
X8336253Y-12136484D01*
X8336253Y-12136484D02*
X8317206Y-12126960D01*
X8526730Y-12136484D02*
X8507682Y-12126960D01*
X8507682Y-12126960D02*
X8498158Y-12107912D01*
X8498158Y-12107912D02*
X8498158Y-11936484D01*
X8688635Y-12136484D02*
X8688635Y-12031722D01*
X8688635Y-12031722D02*
X8679111Y-12012674D01*
X8679111Y-12012674D02*
X8660063Y-12003150D01*
X8660063Y-12003150D02*
X8621968Y-12003150D01*
X8621968Y-12003150D02*
X8602920Y-12012674D01*
X8688635Y-12126960D02*
X8669587Y-12136484D01*
X8669587Y-12136484D02*
X8621968Y-12136484D01*
X8621968Y-12136484D02*
X8602920Y-12126960D01*
X8602920Y-12126960D02*
X8593396Y-12107912D01*
X8593396Y-12107912D02*
X8593396Y-12088865D01*
X8593396Y-12088865D02*
X8602920Y-12069817D01*
X8602920Y-12069817D02*
X8621968Y-12060293D01*
X8621968Y-12060293D02*
X8669587Y-12060293D01*
X8669587Y-12060293D02*
X8688635Y-12050769D01*
X8755301Y-12003150D02*
X8831492Y-12003150D01*
X8783873Y-11936484D02*
X8783873Y-12107912D01*
X8783873Y-12107912D02*
X8793396Y-12126960D01*
X8793396Y-12126960D02*
X8812444Y-12136484D01*
X8812444Y-12136484D02*
X8831492Y-12136484D01*
X8974349Y-12126960D02*
X8955301Y-12136484D01*
X8955301Y-12136484D02*
X8917206Y-12136484D01*
X8917206Y-12136484D02*
X8898158Y-12126960D01*
X8898158Y-12126960D02*
X8888635Y-12107912D01*
X8888635Y-12107912D02*
X8888635Y-12031722D01*
X8888635Y-12031722D02*
X8898158Y-12012674D01*
X8898158Y-12012674D02*
X8917206Y-12003150D01*
X8917206Y-12003150D02*
X8955301Y-12003150D01*
X8955301Y-12003150D02*
X8974349Y-12012674D01*
X8974349Y-12012674D02*
X8983873Y-12031722D01*
X8983873Y-12031722D02*
X8983873Y-12050769D01*
X8983873Y-12050769D02*
X8888635Y-12069817D01*
X9155301Y-12136484D02*
X9155301Y-11936484D01*
X9155301Y-12126960D02*
X9136254Y-12136484D01*
X9136254Y-12136484D02*
X9098158Y-12136484D01*
X9098158Y-12136484D02*
X9079111Y-12126960D01*
X9079111Y-12126960D02*
X9069587Y-12117436D01*
X9069587Y-12117436D02*
X9060063Y-12098388D01*
X9060063Y-12098388D02*
X9060063Y-12041246D01*
X9060063Y-12041246D02*
X9069587Y-12022198D01*
X9069587Y-12022198D02*
X9079111Y-12012674D01*
X9079111Y-12012674D02*
X9098158Y-12003150D01*
X9098158Y-12003150D02*
X9136254Y-12003150D01*
X9136254Y-12003150D02*
X9155301Y-12012674D01*
X9231492Y-12212674D02*
X9241016Y-12203150D01*
X9241016Y-12203150D02*
X9260063Y-12174579D01*
X9260063Y-12174579D02*
X9269587Y-12155531D01*
X9269587Y-12155531D02*
X9279111Y-12126960D01*
X9279111Y-12126960D02*
X9288635Y-12079341D01*
X9288635Y-12079341D02*
X9288635Y-12041246D01*
X9288635Y-12041246D02*
X9279111Y-11993627D01*
X9279111Y-11993627D02*
X9269587Y-11965055D01*
X9269587Y-11965055D02*
X9260063Y-11946008D01*
X9260063Y-11946008D02*
X9241016Y-11917436D01*
X9241016Y-11917436D02*
X9231492Y-11907912D01*
D12*
X2285000Y-12309000D02*
G75*
G03*
X2110000Y-12309000I-87500J0D01*
G01*
X2110000Y-12309000D02*
G75*
G03*
X2285000Y-12309000I87500J0D01*
G01*
D11*
X2650539Y-12400484D02*
X2536253Y-12400484D01*
X2593396Y-12400484D02*
X2593396Y-12200484D01*
X2593396Y-12200484D02*
X2574348Y-12229055D01*
X2574348Y-12229055D02*
X2555301Y-12248103D01*
X2555301Y-12248103D02*
X2536253Y-12257627D01*
X2736253Y-12381436D02*
X2745777Y-12390960D01*
X2745777Y-12390960D02*
X2736253Y-12400484D01*
X2736253Y-12400484D02*
X2726729Y-12390960D01*
X2726729Y-12390960D02*
X2736253Y-12381436D01*
X2736253Y-12381436D02*
X2736253Y-12400484D01*
X2812443Y-12200484D02*
X2945777Y-12200484D01*
X2945777Y-12200484D02*
X2860062Y-12400484D01*
X3117205Y-12200484D02*
X3021967Y-12200484D01*
X3021967Y-12200484D02*
X3012443Y-12295722D01*
X3012443Y-12295722D02*
X3021967Y-12286198D01*
X3021967Y-12286198D02*
X3041015Y-12276674D01*
X3041015Y-12276674D02*
X3088634Y-12276674D01*
X3088634Y-12276674D02*
X3107682Y-12286198D01*
X3107682Y-12286198D02*
X3117205Y-12295722D01*
X3117205Y-12295722D02*
X3126729Y-12314769D01*
X3126729Y-12314769D02*
X3126729Y-12362388D01*
X3126729Y-12362388D02*
X3117205Y-12381436D01*
X3117205Y-12381436D02*
X3107682Y-12390960D01*
X3107682Y-12390960D02*
X3088634Y-12400484D01*
X3088634Y-12400484D02*
X3041015Y-12400484D01*
X3041015Y-12400484D02*
X3021967Y-12390960D01*
X3021967Y-12390960D02*
X3012443Y-12381436D01*
X3250539Y-12200484D02*
X3269586Y-12200484D01*
X3269586Y-12200484D02*
X3288634Y-12210008D01*
X3288634Y-12210008D02*
X3298158Y-12219531D01*
X3298158Y-12219531D02*
X3307682Y-12238579D01*
X3307682Y-12238579D02*
X3317205Y-12276674D01*
X3317205Y-12276674D02*
X3317205Y-12324293D01*
X3317205Y-12324293D02*
X3307682Y-12362388D01*
X3307682Y-12362388D02*
X3298158Y-12381436D01*
X3298158Y-12381436D02*
X3288634Y-12390960D01*
X3288634Y-12390960D02*
X3269586Y-12400484D01*
X3269586Y-12400484D02*
X3250539Y-12400484D01*
X3250539Y-12400484D02*
X3231491Y-12390960D01*
X3231491Y-12390960D02*
X3221967Y-12381436D01*
X3221967Y-12381436D02*
X3212443Y-12362388D01*
X3212443Y-12362388D02*
X3202920Y-12324293D01*
X3202920Y-12324293D02*
X3202920Y-12276674D01*
X3202920Y-12276674D02*
X3212443Y-12238579D01*
X3212443Y-12238579D02*
X3221967Y-12219531D01*
X3221967Y-12219531D02*
X3231491Y-12210008D01*
X3231491Y-12210008D02*
X3250539Y-12200484D01*
X3402920Y-12400484D02*
X3402920Y-12267150D01*
X3402920Y-12286198D02*
X3412443Y-12276674D01*
X3412443Y-12276674D02*
X3431491Y-12267150D01*
X3431491Y-12267150D02*
X3460063Y-12267150D01*
X3460063Y-12267150D02*
X3479110Y-12276674D01*
X3479110Y-12276674D02*
X3488634Y-12295722D01*
X3488634Y-12295722D02*
X3488634Y-12400484D01*
X3488634Y-12295722D02*
X3498158Y-12276674D01*
X3498158Y-12276674D02*
X3517205Y-12267150D01*
X3517205Y-12267150D02*
X3545777Y-12267150D01*
X3545777Y-12267150D02*
X3564824Y-12276674D01*
X3564824Y-12276674D02*
X3574348Y-12295722D01*
X3574348Y-12295722D02*
X3574348Y-12400484D01*
X3669586Y-12400484D02*
X3669586Y-12267150D01*
X3669586Y-12286198D02*
X3679110Y-12276674D01*
X3679110Y-12276674D02*
X3698158Y-12267150D01*
X3698158Y-12267150D02*
X3726729Y-12267150D01*
X3726729Y-12267150D02*
X3745777Y-12276674D01*
X3745777Y-12276674D02*
X3755301Y-12295722D01*
X3755301Y-12295722D02*
X3755301Y-12400484D01*
X3755301Y-12295722D02*
X3764824Y-12276674D01*
X3764824Y-12276674D02*
X3783872Y-12267150D01*
X3783872Y-12267150D02*
X3812443Y-12267150D01*
X3812443Y-12267150D02*
X3831491Y-12276674D01*
X3831491Y-12276674D02*
X3841015Y-12295722D01*
X3841015Y-12295722D02*
X3841015Y-12400484D01*
X4231491Y-12190960D02*
X4060063Y-12448103D01*
X4488634Y-12200484D02*
X4507682Y-12200484D01*
X4507682Y-12200484D02*
X4526729Y-12210008D01*
X4526729Y-12210008D02*
X4536253Y-12219531D01*
X4536253Y-12219531D02*
X4545777Y-12238579D01*
X4545777Y-12238579D02*
X4555301Y-12276674D01*
X4555301Y-12276674D02*
X4555301Y-12324293D01*
X4555301Y-12324293D02*
X4545777Y-12362388D01*
X4545777Y-12362388D02*
X4536253Y-12381436D01*
X4536253Y-12381436D02*
X4526729Y-12390960D01*
X4526729Y-12390960D02*
X4507682Y-12400484D01*
X4507682Y-12400484D02*
X4488634Y-12400484D01*
X4488634Y-12400484D02*
X4469587Y-12390960D01*
X4469587Y-12390960D02*
X4460063Y-12381436D01*
X4460063Y-12381436D02*
X4450539Y-12362388D01*
X4450539Y-12362388D02*
X4441015Y-12324293D01*
X4441015Y-12324293D02*
X4441015Y-12276674D01*
X4441015Y-12276674D02*
X4450539Y-12238579D01*
X4450539Y-12238579D02*
X4460063Y-12219531D01*
X4460063Y-12219531D02*
X4469587Y-12210008D01*
X4469587Y-12210008D02*
X4488634Y-12200484D01*
X4641015Y-12381436D02*
X4650539Y-12390960D01*
X4650539Y-12390960D02*
X4641015Y-12400484D01*
X4641015Y-12400484D02*
X4631491Y-12390960D01*
X4631491Y-12390960D02*
X4641015Y-12381436D01*
X4641015Y-12381436D02*
X4641015Y-12400484D01*
X4774348Y-12200484D02*
X4793396Y-12200484D01*
X4793396Y-12200484D02*
X4812444Y-12210008D01*
X4812444Y-12210008D02*
X4821968Y-12219531D01*
X4821968Y-12219531D02*
X4831491Y-12238579D01*
X4831491Y-12238579D02*
X4841015Y-12276674D01*
X4841015Y-12276674D02*
X4841015Y-12324293D01*
X4841015Y-12324293D02*
X4831491Y-12362388D01*
X4831491Y-12362388D02*
X4821968Y-12381436D01*
X4821968Y-12381436D02*
X4812444Y-12390960D01*
X4812444Y-12390960D02*
X4793396Y-12400484D01*
X4793396Y-12400484D02*
X4774348Y-12400484D01*
X4774348Y-12400484D02*
X4755301Y-12390960D01*
X4755301Y-12390960D02*
X4745777Y-12381436D01*
X4745777Y-12381436D02*
X4736253Y-12362388D01*
X4736253Y-12362388D02*
X4726729Y-12324293D01*
X4726729Y-12324293D02*
X4726729Y-12276674D01*
X4726729Y-12276674D02*
X4736253Y-12238579D01*
X4736253Y-12238579D02*
X4745777Y-12219531D01*
X4745777Y-12219531D02*
X4755301Y-12210008D01*
X4755301Y-12210008D02*
X4774348Y-12200484D01*
X5012444Y-12200484D02*
X4974348Y-12200484D01*
X4974348Y-12200484D02*
X4955301Y-12210008D01*
X4955301Y-12210008D02*
X4945777Y-12219531D01*
X4945777Y-12219531D02*
X4926729Y-12248103D01*
X4926729Y-12248103D02*
X4917206Y-12286198D01*
X4917206Y-12286198D02*
X4917206Y-12362388D01*
X4917206Y-12362388D02*
X4926729Y-12381436D01*
X4926729Y-12381436D02*
X4936253Y-12390960D01*
X4936253Y-12390960D02*
X4955301Y-12400484D01*
X4955301Y-12400484D02*
X4993396Y-12400484D01*
X4993396Y-12400484D02*
X5012444Y-12390960D01*
X5012444Y-12390960D02*
X5021968Y-12381436D01*
X5021968Y-12381436D02*
X5031491Y-12362388D01*
X5031491Y-12362388D02*
X5031491Y-12314769D01*
X5031491Y-12314769D02*
X5021968Y-12295722D01*
X5021968Y-12295722D02*
X5012444Y-12286198D01*
X5012444Y-12286198D02*
X4993396Y-12276674D01*
X4993396Y-12276674D02*
X4955301Y-12276674D01*
X4955301Y-12276674D02*
X4936253Y-12286198D01*
X4936253Y-12286198D02*
X4926729Y-12295722D01*
X4926729Y-12295722D02*
X4917206Y-12314769D01*
X5145777Y-12286198D02*
X5126729Y-12276674D01*
X5126729Y-12276674D02*
X5117206Y-12267150D01*
X5117206Y-12267150D02*
X5107682Y-12248103D01*
X5107682Y-12248103D02*
X5107682Y-12238579D01*
X5107682Y-12238579D02*
X5117206Y-12219531D01*
X5117206Y-12219531D02*
X5126729Y-12210008D01*
X5126729Y-12210008D02*
X5145777Y-12200484D01*
X5145777Y-12200484D02*
X5183872Y-12200484D01*
X5183872Y-12200484D02*
X5202920Y-12210008D01*
X5202920Y-12210008D02*
X5212444Y-12219531D01*
X5212444Y-12219531D02*
X5221968Y-12238579D01*
X5221968Y-12238579D02*
X5221968Y-12248103D01*
X5221968Y-12248103D02*
X5212444Y-12267150D01*
X5212444Y-12267150D02*
X5202920Y-12276674D01*
X5202920Y-12276674D02*
X5183872Y-12286198D01*
X5183872Y-12286198D02*
X5145777Y-12286198D01*
X5145777Y-12286198D02*
X5126729Y-12295722D01*
X5126729Y-12295722D02*
X5117206Y-12305246D01*
X5117206Y-12305246D02*
X5107682Y-12324293D01*
X5107682Y-12324293D02*
X5107682Y-12362388D01*
X5107682Y-12362388D02*
X5117206Y-12381436D01*
X5117206Y-12381436D02*
X5126729Y-12390960D01*
X5126729Y-12390960D02*
X5145777Y-12400484D01*
X5145777Y-12400484D02*
X5183872Y-12400484D01*
X5183872Y-12400484D02*
X5202920Y-12390960D01*
X5202920Y-12390960D02*
X5212444Y-12381436D01*
X5212444Y-12381436D02*
X5221968Y-12362388D01*
X5221968Y-12362388D02*
X5221968Y-12324293D01*
X5221968Y-12324293D02*
X5212444Y-12305246D01*
X5212444Y-12305246D02*
X5202920Y-12295722D01*
X5202920Y-12295722D02*
X5183872Y-12286198D01*
X5317206Y-12400484D02*
X5355301Y-12400484D01*
X5355301Y-12400484D02*
X5374349Y-12390960D01*
X5374349Y-12390960D02*
X5383872Y-12381436D01*
X5383872Y-12381436D02*
X5402920Y-12352865D01*
X5402920Y-12352865D02*
X5412444Y-12314769D01*
X5412444Y-12314769D02*
X5412444Y-12238579D01*
X5412444Y-12238579D02*
X5402920Y-12219531D01*
X5402920Y-12219531D02*
X5393396Y-12210008D01*
X5393396Y-12210008D02*
X5374349Y-12200484D01*
X5374349Y-12200484D02*
X5336253Y-12200484D01*
X5336253Y-12200484D02*
X5317206Y-12210008D01*
X5317206Y-12210008D02*
X5307682Y-12219531D01*
X5307682Y-12219531D02*
X5298158Y-12238579D01*
X5298158Y-12238579D02*
X5298158Y-12286198D01*
X5298158Y-12286198D02*
X5307682Y-12305246D01*
X5307682Y-12305246D02*
X5317206Y-12314769D01*
X5317206Y-12314769D02*
X5336253Y-12324293D01*
X5336253Y-12324293D02*
X5374349Y-12324293D01*
X5374349Y-12324293D02*
X5393396Y-12314769D01*
X5393396Y-12314769D02*
X5402920Y-12305246D01*
X5402920Y-12305246D02*
X5412444Y-12286198D01*
X5488634Y-12200484D02*
X5488634Y-12238579D01*
X5564825Y-12200484D02*
X5564825Y-12238579D01*
X5860063Y-12476674D02*
X5850539Y-12467150D01*
X5850539Y-12467150D02*
X5831491Y-12438579D01*
X5831491Y-12438579D02*
X5821968Y-12419531D01*
X5821968Y-12419531D02*
X5812444Y-12390960D01*
X5812444Y-12390960D02*
X5802920Y-12343341D01*
X5802920Y-12343341D02*
X5802920Y-12305246D01*
X5802920Y-12305246D02*
X5812444Y-12257627D01*
X5812444Y-12257627D02*
X5821968Y-12229055D01*
X5821968Y-12229055D02*
X5831491Y-12210008D01*
X5831491Y-12210008D02*
X5850539Y-12181436D01*
X5850539Y-12181436D02*
X5860063Y-12171912D01*
X5974348Y-12200484D02*
X5993396Y-12200484D01*
X5993396Y-12200484D02*
X6012444Y-12210008D01*
X6012444Y-12210008D02*
X6021968Y-12219531D01*
X6021968Y-12219531D02*
X6031491Y-12238579D01*
X6031491Y-12238579D02*
X6041015Y-12276674D01*
X6041015Y-12276674D02*
X6041015Y-12324293D01*
X6041015Y-12324293D02*
X6031491Y-12362388D01*
X6031491Y-12362388D02*
X6021968Y-12381436D01*
X6021968Y-12381436D02*
X6012444Y-12390960D01*
X6012444Y-12390960D02*
X5993396Y-12400484D01*
X5993396Y-12400484D02*
X5974348Y-12400484D01*
X5974348Y-12400484D02*
X5955301Y-12390960D01*
X5955301Y-12390960D02*
X5945777Y-12381436D01*
X5945777Y-12381436D02*
X5936253Y-12362388D01*
X5936253Y-12362388D02*
X5926729Y-12324293D01*
X5926729Y-12324293D02*
X5926729Y-12276674D01*
X5926729Y-12276674D02*
X5936253Y-12238579D01*
X5936253Y-12238579D02*
X5945777Y-12219531D01*
X5945777Y-12219531D02*
X5955301Y-12210008D01*
X5955301Y-12210008D02*
X5974348Y-12200484D01*
X6279110Y-12400484D02*
X6279110Y-12200484D01*
X6364825Y-12400484D02*
X6364825Y-12295722D01*
X6364825Y-12295722D02*
X6355301Y-12276674D01*
X6355301Y-12276674D02*
X6336253Y-12267150D01*
X6336253Y-12267150D02*
X6307682Y-12267150D01*
X6307682Y-12267150D02*
X6288634Y-12276674D01*
X6288634Y-12276674D02*
X6279110Y-12286198D01*
X6488634Y-12400484D02*
X6469587Y-12390960D01*
X6469587Y-12390960D02*
X6460063Y-12381436D01*
X6460063Y-12381436D02*
X6450539Y-12362388D01*
X6450539Y-12362388D02*
X6450539Y-12305246D01*
X6450539Y-12305246D02*
X6460063Y-12286198D01*
X6460063Y-12286198D02*
X6469587Y-12276674D01*
X6469587Y-12276674D02*
X6488634Y-12267150D01*
X6488634Y-12267150D02*
X6517206Y-12267150D01*
X6517206Y-12267150D02*
X6536253Y-12276674D01*
X6536253Y-12276674D02*
X6545777Y-12286198D01*
X6545777Y-12286198D02*
X6555301Y-12305246D01*
X6555301Y-12305246D02*
X6555301Y-12362388D01*
X6555301Y-12362388D02*
X6545777Y-12381436D01*
X6545777Y-12381436D02*
X6536253Y-12390960D01*
X6536253Y-12390960D02*
X6517206Y-12400484D01*
X6517206Y-12400484D02*
X6488634Y-12400484D01*
X6669587Y-12400484D02*
X6650539Y-12390960D01*
X6650539Y-12390960D02*
X6641015Y-12371912D01*
X6641015Y-12371912D02*
X6641015Y-12200484D01*
X6821968Y-12390960D02*
X6802920Y-12400484D01*
X6802920Y-12400484D02*
X6764825Y-12400484D01*
X6764825Y-12400484D02*
X6745777Y-12390960D01*
X6745777Y-12390960D02*
X6736253Y-12371912D01*
X6736253Y-12371912D02*
X6736253Y-12295722D01*
X6736253Y-12295722D02*
X6745777Y-12276674D01*
X6745777Y-12276674D02*
X6764825Y-12267150D01*
X6764825Y-12267150D02*
X6802920Y-12267150D01*
X6802920Y-12267150D02*
X6821968Y-12276674D01*
X6821968Y-12276674D02*
X6831491Y-12295722D01*
X6831491Y-12295722D02*
X6831491Y-12314769D01*
X6831491Y-12314769D02*
X6736253Y-12333817D01*
X6907682Y-12390960D02*
X6926730Y-12400484D01*
X6926730Y-12400484D02*
X6964825Y-12400484D01*
X6964825Y-12400484D02*
X6983872Y-12390960D01*
X6983872Y-12390960D02*
X6993396Y-12371912D01*
X6993396Y-12371912D02*
X6993396Y-12362388D01*
X6993396Y-12362388D02*
X6983872Y-12343341D01*
X6983872Y-12343341D02*
X6964825Y-12333817D01*
X6964825Y-12333817D02*
X6936253Y-12333817D01*
X6936253Y-12333817D02*
X6917206Y-12324293D01*
X6917206Y-12324293D02*
X6907682Y-12305246D01*
X6907682Y-12305246D02*
X6907682Y-12295722D01*
X6907682Y-12295722D02*
X6917206Y-12276674D01*
X6917206Y-12276674D02*
X6936253Y-12267150D01*
X6936253Y-12267150D02*
X6964825Y-12267150D01*
X6964825Y-12267150D02*
X6983872Y-12276674D01*
X7231492Y-12324293D02*
X7383873Y-12324293D01*
X7307682Y-12400484D02*
X7307682Y-12248103D01*
X7660063Y-12286198D02*
X7641015Y-12276674D01*
X7641015Y-12276674D02*
X7631492Y-12267150D01*
X7631492Y-12267150D02*
X7621968Y-12248103D01*
X7621968Y-12248103D02*
X7621968Y-12238579D01*
X7621968Y-12238579D02*
X7631492Y-12219531D01*
X7631492Y-12219531D02*
X7641015Y-12210008D01*
X7641015Y-12210008D02*
X7660063Y-12200484D01*
X7660063Y-12200484D02*
X7698158Y-12200484D01*
X7698158Y-12200484D02*
X7717206Y-12210008D01*
X7717206Y-12210008D02*
X7726730Y-12219531D01*
X7726730Y-12219531D02*
X7736253Y-12238579D01*
X7736253Y-12238579D02*
X7736253Y-12248103D01*
X7736253Y-12248103D02*
X7726730Y-12267150D01*
X7726730Y-12267150D02*
X7717206Y-12276674D01*
X7717206Y-12276674D02*
X7698158Y-12286198D01*
X7698158Y-12286198D02*
X7660063Y-12286198D01*
X7660063Y-12286198D02*
X7641015Y-12295722D01*
X7641015Y-12295722D02*
X7631492Y-12305246D01*
X7631492Y-12305246D02*
X7621968Y-12324293D01*
X7621968Y-12324293D02*
X7621968Y-12362388D01*
X7621968Y-12362388D02*
X7631492Y-12381436D01*
X7631492Y-12381436D02*
X7641015Y-12390960D01*
X7641015Y-12390960D02*
X7660063Y-12400484D01*
X7660063Y-12400484D02*
X7698158Y-12400484D01*
X7698158Y-12400484D02*
X7717206Y-12390960D01*
X7717206Y-12390960D02*
X7726730Y-12381436D01*
X7726730Y-12381436D02*
X7736253Y-12362388D01*
X7736253Y-12362388D02*
X7736253Y-12324293D01*
X7736253Y-12324293D02*
X7726730Y-12305246D01*
X7726730Y-12305246D02*
X7717206Y-12295722D01*
X7717206Y-12295722D02*
X7698158Y-12286198D01*
X7860063Y-12200484D02*
X7879111Y-12200484D01*
X7879111Y-12200484D02*
X7898158Y-12210008D01*
X7898158Y-12210008D02*
X7907682Y-12219531D01*
X7907682Y-12219531D02*
X7917206Y-12238579D01*
X7917206Y-12238579D02*
X7926730Y-12276674D01*
X7926730Y-12276674D02*
X7926730Y-12324293D01*
X7926730Y-12324293D02*
X7917206Y-12362388D01*
X7917206Y-12362388D02*
X7907682Y-12381436D01*
X7907682Y-12381436D02*
X7898158Y-12390960D01*
X7898158Y-12390960D02*
X7879111Y-12400484D01*
X7879111Y-12400484D02*
X7860063Y-12400484D01*
X7860063Y-12400484D02*
X7841015Y-12390960D01*
X7841015Y-12390960D02*
X7831492Y-12381436D01*
X7831492Y-12381436D02*
X7821968Y-12362388D01*
X7821968Y-12362388D02*
X7812444Y-12324293D01*
X7812444Y-12324293D02*
X7812444Y-12276674D01*
X7812444Y-12276674D02*
X7821968Y-12238579D01*
X7821968Y-12238579D02*
X7831492Y-12219531D01*
X7831492Y-12219531D02*
X7841015Y-12210008D01*
X7841015Y-12210008D02*
X7860063Y-12200484D01*
X8155301Y-12390960D02*
X8174349Y-12400484D01*
X8174349Y-12400484D02*
X8212444Y-12400484D01*
X8212444Y-12400484D02*
X8231492Y-12390960D01*
X8231492Y-12390960D02*
X8241015Y-12371912D01*
X8241015Y-12371912D02*
X8241015Y-12362388D01*
X8241015Y-12362388D02*
X8231492Y-12343341D01*
X8231492Y-12343341D02*
X8212444Y-12333817D01*
X8212444Y-12333817D02*
X8183873Y-12333817D01*
X8183873Y-12333817D02*
X8164825Y-12324293D01*
X8164825Y-12324293D02*
X8155301Y-12305246D01*
X8155301Y-12305246D02*
X8155301Y-12295722D01*
X8155301Y-12295722D02*
X8164825Y-12276674D01*
X8164825Y-12276674D02*
X8183873Y-12267150D01*
X8183873Y-12267150D02*
X8212444Y-12267150D01*
X8212444Y-12267150D02*
X8231492Y-12276674D01*
X8355301Y-12400484D02*
X8336254Y-12390960D01*
X8336254Y-12390960D02*
X8326730Y-12371912D01*
X8326730Y-12371912D02*
X8326730Y-12200484D01*
X8460063Y-12400484D02*
X8441016Y-12390960D01*
X8441016Y-12390960D02*
X8431492Y-12381436D01*
X8431492Y-12381436D02*
X8421968Y-12362388D01*
X8421968Y-12362388D02*
X8421968Y-12305246D01*
X8421968Y-12305246D02*
X8431492Y-12286198D01*
X8431492Y-12286198D02*
X8441016Y-12276674D01*
X8441016Y-12276674D02*
X8460063Y-12267150D01*
X8460063Y-12267150D02*
X8488635Y-12267150D01*
X8488635Y-12267150D02*
X8507682Y-12276674D01*
X8507682Y-12276674D02*
X8517206Y-12286198D01*
X8517206Y-12286198D02*
X8526730Y-12305246D01*
X8526730Y-12305246D02*
X8526730Y-12362388D01*
X8526730Y-12362388D02*
X8517206Y-12381436D01*
X8517206Y-12381436D02*
X8507682Y-12390960D01*
X8507682Y-12390960D02*
X8488635Y-12400484D01*
X8488635Y-12400484D02*
X8460063Y-12400484D01*
X8583873Y-12267150D02*
X8660063Y-12267150D01*
X8612444Y-12200484D02*
X8612444Y-12371912D01*
X8612444Y-12371912D02*
X8621968Y-12390960D01*
X8621968Y-12390960D02*
X8641016Y-12400484D01*
X8641016Y-12400484D02*
X8660063Y-12400484D01*
X8717206Y-12390960D02*
X8736254Y-12400484D01*
X8736254Y-12400484D02*
X8774349Y-12400484D01*
X8774349Y-12400484D02*
X8793397Y-12390960D01*
X8793397Y-12390960D02*
X8802920Y-12371912D01*
X8802920Y-12371912D02*
X8802920Y-12362388D01*
X8802920Y-12362388D02*
X8793397Y-12343341D01*
X8793397Y-12343341D02*
X8774349Y-12333817D01*
X8774349Y-12333817D02*
X8745777Y-12333817D01*
X8745777Y-12333817D02*
X8726730Y-12324293D01*
X8726730Y-12324293D02*
X8717206Y-12305246D01*
X8717206Y-12305246D02*
X8717206Y-12295722D01*
X8717206Y-12295722D02*
X8726730Y-12276674D01*
X8726730Y-12276674D02*
X8745777Y-12267150D01*
X8745777Y-12267150D02*
X8774349Y-12267150D01*
X8774349Y-12267150D02*
X8793397Y-12276674D01*
X8869587Y-12476674D02*
X8879111Y-12467150D01*
X8879111Y-12467150D02*
X8898158Y-12438579D01*
X8898158Y-12438579D02*
X8907682Y-12419531D01*
X8907682Y-12419531D02*
X8917206Y-12390960D01*
X8917206Y-12390960D02*
X8926730Y-12343341D01*
X8926730Y-12343341D02*
X8926730Y-12305246D01*
X8926730Y-12305246D02*
X8917206Y-12257627D01*
X8917206Y-12257627D02*
X8907682Y-12229055D01*
X8907682Y-12229055D02*
X8898158Y-12210008D01*
X8898158Y-12210008D02*
X8879111Y-12181436D01*
X8879111Y-12181436D02*
X8869587Y-12171912D01*
X9231492Y-12476674D02*
X9221968Y-12467150D01*
X9221968Y-12467150D02*
X9202920Y-12438579D01*
X9202920Y-12438579D02*
X9193397Y-12419531D01*
X9193397Y-12419531D02*
X9183873Y-12390960D01*
X9183873Y-12390960D02*
X9174349Y-12343341D01*
X9174349Y-12343341D02*
X9174349Y-12305246D01*
X9174349Y-12305246D02*
X9183873Y-12257627D01*
X9183873Y-12257627D02*
X9193397Y-12229055D01*
X9193397Y-12229055D02*
X9202920Y-12210008D01*
X9202920Y-12210008D02*
X9221968Y-12181436D01*
X9221968Y-12181436D02*
X9231492Y-12171912D01*
X9307682Y-12267150D02*
X9307682Y-12400484D01*
X9307682Y-12286198D02*
X9317206Y-12276674D01*
X9317206Y-12276674D02*
X9336254Y-12267150D01*
X9336254Y-12267150D02*
X9364825Y-12267150D01*
X9364825Y-12267150D02*
X9383873Y-12276674D01*
X9383873Y-12276674D02*
X9393397Y-12295722D01*
X9393397Y-12295722D02*
X9393397Y-12400484D01*
X9517206Y-12400484D02*
X9498158Y-12390960D01*
X9498158Y-12390960D02*
X9488635Y-12381436D01*
X9488635Y-12381436D02*
X9479111Y-12362388D01*
X9479111Y-12362388D02*
X9479111Y-12305246D01*
X9479111Y-12305246D02*
X9488635Y-12286198D01*
X9488635Y-12286198D02*
X9498158Y-12276674D01*
X9498158Y-12276674D02*
X9517206Y-12267150D01*
X9517206Y-12267150D02*
X9545778Y-12267150D01*
X9545778Y-12267150D02*
X9564825Y-12276674D01*
X9564825Y-12276674D02*
X9574349Y-12286198D01*
X9574349Y-12286198D02*
X9583873Y-12305246D01*
X9583873Y-12305246D02*
X9583873Y-12362388D01*
X9583873Y-12362388D02*
X9574349Y-12381436D01*
X9574349Y-12381436D02*
X9564825Y-12390960D01*
X9564825Y-12390960D02*
X9545778Y-12400484D01*
X9545778Y-12400484D02*
X9517206Y-12400484D01*
X9641016Y-12267150D02*
X9717206Y-12267150D01*
X9669587Y-12200484D02*
X9669587Y-12371912D01*
X9669587Y-12371912D02*
X9679111Y-12390960D01*
X9679111Y-12390960D02*
X9698158Y-12400484D01*
X9698158Y-12400484D02*
X9717206Y-12400484D01*
X9936254Y-12267150D02*
X9936254Y-12467150D01*
X9936254Y-12276674D02*
X9955301Y-12267150D01*
X9955301Y-12267150D02*
X9993397Y-12267150D01*
X9993397Y-12267150D02*
X10012444Y-12276674D01*
X10012444Y-12276674D02*
X10021968Y-12286198D01*
X10021968Y-12286198D02*
X10031492Y-12305246D01*
X10031492Y-12305246D02*
X10031492Y-12362388D01*
X10031492Y-12362388D02*
X10021968Y-12381436D01*
X10021968Y-12381436D02*
X10012444Y-12390960D01*
X10012444Y-12390960D02*
X9993397Y-12400484D01*
X9993397Y-12400484D02*
X9955301Y-12400484D01*
X9955301Y-12400484D02*
X9936254Y-12390960D01*
X10145778Y-12400484D02*
X10126730Y-12390960D01*
X10126730Y-12390960D02*
X10117206Y-12371912D01*
X10117206Y-12371912D02*
X10117206Y-12200484D01*
X10307682Y-12400484D02*
X10307682Y-12295722D01*
X10307682Y-12295722D02*
X10298159Y-12276674D01*
X10298159Y-12276674D02*
X10279111Y-12267150D01*
X10279111Y-12267150D02*
X10241016Y-12267150D01*
X10241016Y-12267150D02*
X10221968Y-12276674D01*
X10307682Y-12390960D02*
X10288635Y-12400484D01*
X10288635Y-12400484D02*
X10241016Y-12400484D01*
X10241016Y-12400484D02*
X10221968Y-12390960D01*
X10221968Y-12390960D02*
X10212444Y-12371912D01*
X10212444Y-12371912D02*
X10212444Y-12352865D01*
X10212444Y-12352865D02*
X10221968Y-12333817D01*
X10221968Y-12333817D02*
X10241016Y-12324293D01*
X10241016Y-12324293D02*
X10288635Y-12324293D01*
X10288635Y-12324293D02*
X10307682Y-12314769D01*
X10374349Y-12267150D02*
X10450539Y-12267150D01*
X10402920Y-12200484D02*
X10402920Y-12371912D01*
X10402920Y-12371912D02*
X10412444Y-12390960D01*
X10412444Y-12390960D02*
X10431492Y-12400484D01*
X10431492Y-12400484D02*
X10450539Y-12400484D01*
X10593397Y-12390960D02*
X10574349Y-12400484D01*
X10574349Y-12400484D02*
X10536254Y-12400484D01*
X10536254Y-12400484D02*
X10517206Y-12390960D01*
X10517206Y-12390960D02*
X10507682Y-12371912D01*
X10507682Y-12371912D02*
X10507682Y-12295722D01*
X10507682Y-12295722D02*
X10517206Y-12276674D01*
X10517206Y-12276674D02*
X10536254Y-12267150D01*
X10536254Y-12267150D02*
X10574349Y-12267150D01*
X10574349Y-12267150D02*
X10593397Y-12276674D01*
X10593397Y-12276674D02*
X10602920Y-12295722D01*
X10602920Y-12295722D02*
X10602920Y-12314769D01*
X10602920Y-12314769D02*
X10507682Y-12333817D01*
X10774349Y-12400484D02*
X10774349Y-12200484D01*
X10774349Y-12390960D02*
X10755301Y-12400484D01*
X10755301Y-12400484D02*
X10717206Y-12400484D01*
X10717206Y-12400484D02*
X10698159Y-12390960D01*
X10698159Y-12390960D02*
X10688635Y-12381436D01*
X10688635Y-12381436D02*
X10679111Y-12362388D01*
X10679111Y-12362388D02*
X10679111Y-12305246D01*
X10679111Y-12305246D02*
X10688635Y-12286198D01*
X10688635Y-12286198D02*
X10698159Y-12276674D01*
X10698159Y-12276674D02*
X10717206Y-12267150D01*
X10717206Y-12267150D02*
X10755301Y-12267150D01*
X10755301Y-12267150D02*
X10774349Y-12276674D01*
X10850540Y-12476674D02*
X10860063Y-12467150D01*
X10860063Y-12467150D02*
X10879111Y-12438579D01*
X10879111Y-12438579D02*
X10888635Y-12419531D01*
X10888635Y-12419531D02*
X10898159Y-12390960D01*
X10898159Y-12390960D02*
X10907682Y-12343341D01*
X10907682Y-12343341D02*
X10907682Y-12305246D01*
X10907682Y-12305246D02*
X10898159Y-12257627D01*
X10898159Y-12257627D02*
X10888635Y-12229055D01*
X10888635Y-12229055D02*
X10879111Y-12210008D01*
X10879111Y-12210008D02*
X10860063Y-12181436D01*
X10860063Y-12181436D02*
X10850540Y-12171912D01*
X2185000Y-12504000D02*
X2185000Y-12704000D01*
X2085000Y-12604000D02*
X2285000Y-12604000D01*
X2526729Y-12495484D02*
X2650539Y-12495484D01*
X2650539Y-12495484D02*
X2583872Y-12571674D01*
X2583872Y-12571674D02*
X2612444Y-12571674D01*
X2612444Y-12571674D02*
X2631491Y-12581198D01*
X2631491Y-12581198D02*
X2641015Y-12590722D01*
X2641015Y-12590722D02*
X2650539Y-12609769D01*
X2650539Y-12609769D02*
X2650539Y-12657388D01*
X2650539Y-12657388D02*
X2641015Y-12676436D01*
X2641015Y-12676436D02*
X2631491Y-12685960D01*
X2631491Y-12685960D02*
X2612444Y-12695484D01*
X2612444Y-12695484D02*
X2555301Y-12695484D01*
X2555301Y-12695484D02*
X2536253Y-12685960D01*
X2536253Y-12685960D02*
X2526729Y-12676436D01*
X2736253Y-12676436D02*
X2745777Y-12685960D01*
X2745777Y-12685960D02*
X2736253Y-12695484D01*
X2736253Y-12695484D02*
X2726729Y-12685960D01*
X2726729Y-12685960D02*
X2736253Y-12676436D01*
X2736253Y-12676436D02*
X2736253Y-12695484D01*
X2841015Y-12695484D02*
X2879110Y-12695484D01*
X2879110Y-12695484D02*
X2898158Y-12685960D01*
X2898158Y-12685960D02*
X2907682Y-12676436D01*
X2907682Y-12676436D02*
X2926729Y-12647865D01*
X2926729Y-12647865D02*
X2936253Y-12609769D01*
X2936253Y-12609769D02*
X2936253Y-12533579D01*
X2936253Y-12533579D02*
X2926729Y-12514531D01*
X2926729Y-12514531D02*
X2917205Y-12505008D01*
X2917205Y-12505008D02*
X2898158Y-12495484D01*
X2898158Y-12495484D02*
X2860062Y-12495484D01*
X2860062Y-12495484D02*
X2841015Y-12505008D01*
X2841015Y-12505008D02*
X2831491Y-12514531D01*
X2831491Y-12514531D02*
X2821967Y-12533579D01*
X2821967Y-12533579D02*
X2821967Y-12581198D01*
X2821967Y-12581198D02*
X2831491Y-12600246D01*
X2831491Y-12600246D02*
X2841015Y-12609769D01*
X2841015Y-12609769D02*
X2860062Y-12619293D01*
X2860062Y-12619293D02*
X2898158Y-12619293D01*
X2898158Y-12619293D02*
X2917205Y-12609769D01*
X2917205Y-12609769D02*
X2926729Y-12600246D01*
X2926729Y-12600246D02*
X2936253Y-12581198D01*
X3050539Y-12581198D02*
X3031491Y-12571674D01*
X3031491Y-12571674D02*
X3021967Y-12562150D01*
X3021967Y-12562150D02*
X3012443Y-12543103D01*
X3012443Y-12543103D02*
X3012443Y-12533579D01*
X3012443Y-12533579D02*
X3021967Y-12514531D01*
X3021967Y-12514531D02*
X3031491Y-12505008D01*
X3031491Y-12505008D02*
X3050539Y-12495484D01*
X3050539Y-12495484D02*
X3088634Y-12495484D01*
X3088634Y-12495484D02*
X3107682Y-12505008D01*
X3107682Y-12505008D02*
X3117205Y-12514531D01*
X3117205Y-12514531D02*
X3126729Y-12533579D01*
X3126729Y-12533579D02*
X3126729Y-12543103D01*
X3126729Y-12543103D02*
X3117205Y-12562150D01*
X3117205Y-12562150D02*
X3107682Y-12571674D01*
X3107682Y-12571674D02*
X3088634Y-12581198D01*
X3088634Y-12581198D02*
X3050539Y-12581198D01*
X3050539Y-12581198D02*
X3031491Y-12590722D01*
X3031491Y-12590722D02*
X3021967Y-12600246D01*
X3021967Y-12600246D02*
X3012443Y-12619293D01*
X3012443Y-12619293D02*
X3012443Y-12657388D01*
X3012443Y-12657388D02*
X3021967Y-12676436D01*
X3021967Y-12676436D02*
X3031491Y-12685960D01*
X3031491Y-12685960D02*
X3050539Y-12695484D01*
X3050539Y-12695484D02*
X3088634Y-12695484D01*
X3088634Y-12695484D02*
X3107682Y-12685960D01*
X3107682Y-12685960D02*
X3117205Y-12676436D01*
X3117205Y-12676436D02*
X3126729Y-12657388D01*
X3126729Y-12657388D02*
X3126729Y-12619293D01*
X3126729Y-12619293D02*
X3117205Y-12600246D01*
X3117205Y-12600246D02*
X3107682Y-12590722D01*
X3107682Y-12590722D02*
X3088634Y-12581198D01*
X3241015Y-12581198D02*
X3221967Y-12571674D01*
X3221967Y-12571674D02*
X3212443Y-12562150D01*
X3212443Y-12562150D02*
X3202920Y-12543103D01*
X3202920Y-12543103D02*
X3202920Y-12533579D01*
X3202920Y-12533579D02*
X3212443Y-12514531D01*
X3212443Y-12514531D02*
X3221967Y-12505008D01*
X3221967Y-12505008D02*
X3241015Y-12495484D01*
X3241015Y-12495484D02*
X3279110Y-12495484D01*
X3279110Y-12495484D02*
X3298158Y-12505008D01*
X3298158Y-12505008D02*
X3307682Y-12514531D01*
X3307682Y-12514531D02*
X3317205Y-12533579D01*
X3317205Y-12533579D02*
X3317205Y-12543103D01*
X3317205Y-12543103D02*
X3307682Y-12562150D01*
X3307682Y-12562150D02*
X3298158Y-12571674D01*
X3298158Y-12571674D02*
X3279110Y-12581198D01*
X3279110Y-12581198D02*
X3241015Y-12581198D01*
X3241015Y-12581198D02*
X3221967Y-12590722D01*
X3221967Y-12590722D02*
X3212443Y-12600246D01*
X3212443Y-12600246D02*
X3202920Y-12619293D01*
X3202920Y-12619293D02*
X3202920Y-12657388D01*
X3202920Y-12657388D02*
X3212443Y-12676436D01*
X3212443Y-12676436D02*
X3221967Y-12685960D01*
X3221967Y-12685960D02*
X3241015Y-12695484D01*
X3241015Y-12695484D02*
X3279110Y-12695484D01*
X3279110Y-12695484D02*
X3298158Y-12685960D01*
X3298158Y-12685960D02*
X3307682Y-12676436D01*
X3307682Y-12676436D02*
X3317205Y-12657388D01*
X3317205Y-12657388D02*
X3317205Y-12619293D01*
X3317205Y-12619293D02*
X3307682Y-12600246D01*
X3307682Y-12600246D02*
X3298158Y-12590722D01*
X3298158Y-12590722D02*
X3279110Y-12581198D01*
X3402920Y-12695484D02*
X3402920Y-12562150D01*
X3402920Y-12581198D02*
X3412443Y-12571674D01*
X3412443Y-12571674D02*
X3431491Y-12562150D01*
X3431491Y-12562150D02*
X3460063Y-12562150D01*
X3460063Y-12562150D02*
X3479110Y-12571674D01*
X3479110Y-12571674D02*
X3488634Y-12590722D01*
X3488634Y-12590722D02*
X3488634Y-12695484D01*
X3488634Y-12590722D02*
X3498158Y-12571674D01*
X3498158Y-12571674D02*
X3517205Y-12562150D01*
X3517205Y-12562150D02*
X3545777Y-12562150D01*
X3545777Y-12562150D02*
X3564824Y-12571674D01*
X3564824Y-12571674D02*
X3574348Y-12590722D01*
X3574348Y-12590722D02*
X3574348Y-12695484D01*
X3669586Y-12695484D02*
X3669586Y-12562150D01*
X3669586Y-12581198D02*
X3679110Y-12571674D01*
X3679110Y-12571674D02*
X3698158Y-12562150D01*
X3698158Y-12562150D02*
X3726729Y-12562150D01*
X3726729Y-12562150D02*
X3745777Y-12571674D01*
X3745777Y-12571674D02*
X3755301Y-12590722D01*
X3755301Y-12590722D02*
X3755301Y-12695484D01*
X3755301Y-12590722D02*
X3764824Y-12571674D01*
X3764824Y-12571674D02*
X3783872Y-12562150D01*
X3783872Y-12562150D02*
X3812443Y-12562150D01*
X3812443Y-12562150D02*
X3831491Y-12571674D01*
X3831491Y-12571674D02*
X3841015Y-12590722D01*
X3841015Y-12590722D02*
X3841015Y-12695484D01*
X4231491Y-12485960D02*
X4060063Y-12743103D01*
X4488634Y-12495484D02*
X4507682Y-12495484D01*
X4507682Y-12495484D02*
X4526729Y-12505008D01*
X4526729Y-12505008D02*
X4536253Y-12514531D01*
X4536253Y-12514531D02*
X4545777Y-12533579D01*
X4545777Y-12533579D02*
X4555301Y-12571674D01*
X4555301Y-12571674D02*
X4555301Y-12619293D01*
X4555301Y-12619293D02*
X4545777Y-12657388D01*
X4545777Y-12657388D02*
X4536253Y-12676436D01*
X4536253Y-12676436D02*
X4526729Y-12685960D01*
X4526729Y-12685960D02*
X4507682Y-12695484D01*
X4507682Y-12695484D02*
X4488634Y-12695484D01*
X4488634Y-12695484D02*
X4469587Y-12685960D01*
X4469587Y-12685960D02*
X4460063Y-12676436D01*
X4460063Y-12676436D02*
X4450539Y-12657388D01*
X4450539Y-12657388D02*
X4441015Y-12619293D01*
X4441015Y-12619293D02*
X4441015Y-12571674D01*
X4441015Y-12571674D02*
X4450539Y-12533579D01*
X4450539Y-12533579D02*
X4460063Y-12514531D01*
X4460063Y-12514531D02*
X4469587Y-12505008D01*
X4469587Y-12505008D02*
X4488634Y-12495484D01*
X4641015Y-12676436D02*
X4650539Y-12685960D01*
X4650539Y-12685960D02*
X4641015Y-12695484D01*
X4641015Y-12695484D02*
X4631491Y-12685960D01*
X4631491Y-12685960D02*
X4641015Y-12676436D01*
X4641015Y-12676436D02*
X4641015Y-12695484D01*
X4841015Y-12695484D02*
X4726729Y-12695484D01*
X4783872Y-12695484D02*
X4783872Y-12495484D01*
X4783872Y-12495484D02*
X4764825Y-12524055D01*
X4764825Y-12524055D02*
X4745777Y-12543103D01*
X4745777Y-12543103D02*
X4726729Y-12552627D01*
X5021968Y-12495484D02*
X4926729Y-12495484D01*
X4926729Y-12495484D02*
X4917206Y-12590722D01*
X4917206Y-12590722D02*
X4926729Y-12581198D01*
X4926729Y-12581198D02*
X4945777Y-12571674D01*
X4945777Y-12571674D02*
X4993396Y-12571674D01*
X4993396Y-12571674D02*
X5012444Y-12581198D01*
X5012444Y-12581198D02*
X5021968Y-12590722D01*
X5021968Y-12590722D02*
X5031491Y-12609769D01*
X5031491Y-12609769D02*
X5031491Y-12657388D01*
X5031491Y-12657388D02*
X5021968Y-12676436D01*
X5021968Y-12676436D02*
X5012444Y-12685960D01*
X5012444Y-12685960D02*
X4993396Y-12695484D01*
X4993396Y-12695484D02*
X4945777Y-12695484D01*
X4945777Y-12695484D02*
X4926729Y-12685960D01*
X4926729Y-12685960D02*
X4917206Y-12676436D01*
X5098158Y-12495484D02*
X5231491Y-12495484D01*
X5231491Y-12495484D02*
X5145777Y-12695484D01*
X5345777Y-12495484D02*
X5364825Y-12495484D01*
X5364825Y-12495484D02*
X5383872Y-12505008D01*
X5383872Y-12505008D02*
X5393396Y-12514531D01*
X5393396Y-12514531D02*
X5402920Y-12533579D01*
X5402920Y-12533579D02*
X5412444Y-12571674D01*
X5412444Y-12571674D02*
X5412444Y-12619293D01*
X5412444Y-12619293D02*
X5402920Y-12657388D01*
X5402920Y-12657388D02*
X5393396Y-12676436D01*
X5393396Y-12676436D02*
X5383872Y-12685960D01*
X5383872Y-12685960D02*
X5364825Y-12695484D01*
X5364825Y-12695484D02*
X5345777Y-12695484D01*
X5345777Y-12695484D02*
X5326729Y-12685960D01*
X5326729Y-12685960D02*
X5317206Y-12676436D01*
X5317206Y-12676436D02*
X5307682Y-12657388D01*
X5307682Y-12657388D02*
X5298158Y-12619293D01*
X5298158Y-12619293D02*
X5298158Y-12571674D01*
X5298158Y-12571674D02*
X5307682Y-12533579D01*
X5307682Y-12533579D02*
X5317206Y-12514531D01*
X5317206Y-12514531D02*
X5326729Y-12505008D01*
X5326729Y-12505008D02*
X5345777Y-12495484D01*
X5488634Y-12495484D02*
X5488634Y-12533579D01*
X5564825Y-12495484D02*
X5564825Y-12533579D01*
X5860063Y-12771674D02*
X5850539Y-12762150D01*
X5850539Y-12762150D02*
X5831491Y-12733579D01*
X5831491Y-12733579D02*
X5821968Y-12714531D01*
X5821968Y-12714531D02*
X5812444Y-12685960D01*
X5812444Y-12685960D02*
X5802920Y-12638341D01*
X5802920Y-12638341D02*
X5802920Y-12600246D01*
X5802920Y-12600246D02*
X5812444Y-12552627D01*
X5812444Y-12552627D02*
X5821968Y-12524055D01*
X5821968Y-12524055D02*
X5831491Y-12505008D01*
X5831491Y-12505008D02*
X5850539Y-12476436D01*
X5850539Y-12476436D02*
X5860063Y-12466912D01*
X6021968Y-12562150D02*
X6021968Y-12695484D01*
X5974348Y-12485960D02*
X5926729Y-12628817D01*
X5926729Y-12628817D02*
X6050539Y-12628817D01*
X6279110Y-12695484D02*
X6279110Y-12495484D01*
X6364825Y-12695484D02*
X6364825Y-12590722D01*
X6364825Y-12590722D02*
X6355301Y-12571674D01*
X6355301Y-12571674D02*
X6336253Y-12562150D01*
X6336253Y-12562150D02*
X6307682Y-12562150D01*
X6307682Y-12562150D02*
X6288634Y-12571674D01*
X6288634Y-12571674D02*
X6279110Y-12581198D01*
X6488634Y-12695484D02*
X6469587Y-12685960D01*
X6469587Y-12685960D02*
X6460063Y-12676436D01*
X6460063Y-12676436D02*
X6450539Y-12657388D01*
X6450539Y-12657388D02*
X6450539Y-12600246D01*
X6450539Y-12600246D02*
X6460063Y-12581198D01*
X6460063Y-12581198D02*
X6469587Y-12571674D01*
X6469587Y-12571674D02*
X6488634Y-12562150D01*
X6488634Y-12562150D02*
X6517206Y-12562150D01*
X6517206Y-12562150D02*
X6536253Y-12571674D01*
X6536253Y-12571674D02*
X6545777Y-12581198D01*
X6545777Y-12581198D02*
X6555301Y-12600246D01*
X6555301Y-12600246D02*
X6555301Y-12657388D01*
X6555301Y-12657388D02*
X6545777Y-12676436D01*
X6545777Y-12676436D02*
X6536253Y-12685960D01*
X6536253Y-12685960D02*
X6517206Y-12695484D01*
X6517206Y-12695484D02*
X6488634Y-12695484D01*
X6669587Y-12695484D02*
X6650539Y-12685960D01*
X6650539Y-12685960D02*
X6641015Y-12666912D01*
X6641015Y-12666912D02*
X6641015Y-12495484D01*
X6821968Y-12685960D02*
X6802920Y-12695484D01*
X6802920Y-12695484D02*
X6764825Y-12695484D01*
X6764825Y-12695484D02*
X6745777Y-12685960D01*
X6745777Y-12685960D02*
X6736253Y-12666912D01*
X6736253Y-12666912D02*
X6736253Y-12590722D01*
X6736253Y-12590722D02*
X6745777Y-12571674D01*
X6745777Y-12571674D02*
X6764825Y-12562150D01*
X6764825Y-12562150D02*
X6802920Y-12562150D01*
X6802920Y-12562150D02*
X6821968Y-12571674D01*
X6821968Y-12571674D02*
X6831491Y-12590722D01*
X6831491Y-12590722D02*
X6831491Y-12609769D01*
X6831491Y-12609769D02*
X6736253Y-12628817D01*
X6907682Y-12685960D02*
X6926730Y-12695484D01*
X6926730Y-12695484D02*
X6964825Y-12695484D01*
X6964825Y-12695484D02*
X6983872Y-12685960D01*
X6983872Y-12685960D02*
X6993396Y-12666912D01*
X6993396Y-12666912D02*
X6993396Y-12657388D01*
X6993396Y-12657388D02*
X6983872Y-12638341D01*
X6983872Y-12638341D02*
X6964825Y-12628817D01*
X6964825Y-12628817D02*
X6936253Y-12628817D01*
X6936253Y-12628817D02*
X6917206Y-12619293D01*
X6917206Y-12619293D02*
X6907682Y-12600246D01*
X6907682Y-12600246D02*
X6907682Y-12590722D01*
X6907682Y-12590722D02*
X6917206Y-12571674D01*
X6917206Y-12571674D02*
X6936253Y-12562150D01*
X6936253Y-12562150D02*
X6964825Y-12562150D01*
X6964825Y-12562150D02*
X6983872Y-12571674D01*
X7060063Y-12771674D02*
X7069587Y-12762150D01*
X7069587Y-12762150D02*
X7088634Y-12733579D01*
X7088634Y-12733579D02*
X7098158Y-12714531D01*
X7098158Y-12714531D02*
X7107682Y-12685960D01*
X7107682Y-12685960D02*
X7117206Y-12638341D01*
X7117206Y-12638341D02*
X7117206Y-12600246D01*
X7117206Y-12600246D02*
X7107682Y-12552627D01*
X7107682Y-12552627D02*
X7098158Y-12524055D01*
X7098158Y-12524055D02*
X7088634Y-12505008D01*
X7088634Y-12505008D02*
X7069587Y-12476436D01*
X7069587Y-12476436D02*
X7060063Y-12466912D01*
X7421968Y-12771674D02*
X7412444Y-12762150D01*
X7412444Y-12762150D02*
X7393396Y-12733579D01*
X7393396Y-12733579D02*
X7383872Y-12714531D01*
X7383872Y-12714531D02*
X7374349Y-12685960D01*
X7374349Y-12685960D02*
X7364825Y-12638341D01*
X7364825Y-12638341D02*
X7364825Y-12600246D01*
X7364825Y-12600246D02*
X7374349Y-12552627D01*
X7374349Y-12552627D02*
X7383872Y-12524055D01*
X7383872Y-12524055D02*
X7393396Y-12505008D01*
X7393396Y-12505008D02*
X7412444Y-12476436D01*
X7412444Y-12476436D02*
X7421968Y-12466912D01*
X7498158Y-12562150D02*
X7498158Y-12695484D01*
X7498158Y-12581198D02*
X7507682Y-12571674D01*
X7507682Y-12571674D02*
X7526730Y-12562150D01*
X7526730Y-12562150D02*
X7555301Y-12562150D01*
X7555301Y-12562150D02*
X7574349Y-12571674D01*
X7574349Y-12571674D02*
X7583872Y-12590722D01*
X7583872Y-12590722D02*
X7583872Y-12695484D01*
X7707682Y-12695484D02*
X7688634Y-12685960D01*
X7688634Y-12685960D02*
X7679111Y-12676436D01*
X7679111Y-12676436D02*
X7669587Y-12657388D01*
X7669587Y-12657388D02*
X7669587Y-12600246D01*
X7669587Y-12600246D02*
X7679111Y-12581198D01*
X7679111Y-12581198D02*
X7688634Y-12571674D01*
X7688634Y-12571674D02*
X7707682Y-12562150D01*
X7707682Y-12562150D02*
X7736253Y-12562150D01*
X7736253Y-12562150D02*
X7755301Y-12571674D01*
X7755301Y-12571674D02*
X7764825Y-12581198D01*
X7764825Y-12581198D02*
X7774349Y-12600246D01*
X7774349Y-12600246D02*
X7774349Y-12657388D01*
X7774349Y-12657388D02*
X7764825Y-12676436D01*
X7764825Y-12676436D02*
X7755301Y-12685960D01*
X7755301Y-12685960D02*
X7736253Y-12695484D01*
X7736253Y-12695484D02*
X7707682Y-12695484D01*
X7831492Y-12562150D02*
X7907682Y-12562150D01*
X7860063Y-12495484D02*
X7860063Y-12666912D01*
X7860063Y-12666912D02*
X7869587Y-12685960D01*
X7869587Y-12685960D02*
X7888634Y-12695484D01*
X7888634Y-12695484D02*
X7907682Y-12695484D01*
X8126730Y-12562150D02*
X8126730Y-12762150D01*
X8126730Y-12571674D02*
X8145777Y-12562150D01*
X8145777Y-12562150D02*
X8183873Y-12562150D01*
X8183873Y-12562150D02*
X8202920Y-12571674D01*
X8202920Y-12571674D02*
X8212444Y-12581198D01*
X8212444Y-12581198D02*
X8221968Y-12600246D01*
X8221968Y-12600246D02*
X8221968Y-12657388D01*
X8221968Y-12657388D02*
X8212444Y-12676436D01*
X8212444Y-12676436D02*
X8202920Y-12685960D01*
X8202920Y-12685960D02*
X8183873Y-12695484D01*
X8183873Y-12695484D02*
X8145777Y-12695484D01*
X8145777Y-12695484D02*
X8126730Y-12685960D01*
X8336253Y-12695484D02*
X8317206Y-12685960D01*
X8317206Y-12685960D02*
X8307682Y-12666912D01*
X8307682Y-12666912D02*
X8307682Y-12495484D01*
X8498158Y-12695484D02*
X8498158Y-12590722D01*
X8498158Y-12590722D02*
X8488635Y-12571674D01*
X8488635Y-12571674D02*
X8469587Y-12562150D01*
X8469587Y-12562150D02*
X8431492Y-12562150D01*
X8431492Y-12562150D02*
X8412444Y-12571674D01*
X8498158Y-12685960D02*
X8479111Y-12695484D01*
X8479111Y-12695484D02*
X8431492Y-12695484D01*
X8431492Y-12695484D02*
X8412444Y-12685960D01*
X8412444Y-12685960D02*
X8402920Y-12666912D01*
X8402920Y-12666912D02*
X8402920Y-12647865D01*
X8402920Y-12647865D02*
X8412444Y-12628817D01*
X8412444Y-12628817D02*
X8431492Y-12619293D01*
X8431492Y-12619293D02*
X8479111Y-12619293D01*
X8479111Y-12619293D02*
X8498158Y-12609769D01*
X8564825Y-12562150D02*
X8641015Y-12562150D01*
X8593396Y-12495484D02*
X8593396Y-12666912D01*
X8593396Y-12666912D02*
X8602920Y-12685960D01*
X8602920Y-12685960D02*
X8621968Y-12695484D01*
X8621968Y-12695484D02*
X8641015Y-12695484D01*
X8783873Y-12685960D02*
X8764825Y-12695484D01*
X8764825Y-12695484D02*
X8726730Y-12695484D01*
X8726730Y-12695484D02*
X8707682Y-12685960D01*
X8707682Y-12685960D02*
X8698158Y-12666912D01*
X8698158Y-12666912D02*
X8698158Y-12590722D01*
X8698158Y-12590722D02*
X8707682Y-12571674D01*
X8707682Y-12571674D02*
X8726730Y-12562150D01*
X8726730Y-12562150D02*
X8764825Y-12562150D01*
X8764825Y-12562150D02*
X8783873Y-12571674D01*
X8783873Y-12571674D02*
X8793396Y-12590722D01*
X8793396Y-12590722D02*
X8793396Y-12609769D01*
X8793396Y-12609769D02*
X8698158Y-12628817D01*
X8964825Y-12695484D02*
X8964825Y-12495484D01*
X8964825Y-12685960D02*
X8945777Y-12695484D01*
X8945777Y-12695484D02*
X8907682Y-12695484D01*
X8907682Y-12695484D02*
X8888635Y-12685960D01*
X8888635Y-12685960D02*
X8879111Y-12676436D01*
X8879111Y-12676436D02*
X8869587Y-12657388D01*
X8869587Y-12657388D02*
X8869587Y-12600246D01*
X8869587Y-12600246D02*
X8879111Y-12581198D01*
X8879111Y-12581198D02*
X8888635Y-12571674D01*
X8888635Y-12571674D02*
X8907682Y-12562150D01*
X8907682Y-12562150D02*
X8945777Y-12562150D01*
X8945777Y-12562150D02*
X8964825Y-12571674D01*
X9041016Y-12771674D02*
X9050539Y-12762150D01*
X9050539Y-12762150D02*
X9069587Y-12733579D01*
X9069587Y-12733579D02*
X9079111Y-12714531D01*
X9079111Y-12714531D02*
X9088635Y-12685960D01*
X9088635Y-12685960D02*
X9098158Y-12638341D01*
X9098158Y-12638341D02*
X9098158Y-12600246D01*
X9098158Y-12600246D02*
X9088635Y-12552627D01*
X9088635Y-12552627D02*
X9079111Y-12524055D01*
X9079111Y-12524055D02*
X9069587Y-12505008D01*
X9069587Y-12505008D02*
X9050539Y-12476436D01*
X9050539Y-12476436D02*
X9041016Y-12466912D01*
X2255711Y-12994711D02*
X2255711Y-12853289D01*
X2114289Y-12853289D01*
X2114289Y-12994711D01*
X2255711Y-12994711D01*
X2631491Y-12882150D02*
X2631491Y-13015484D01*
X2583872Y-12805960D02*
X2536253Y-12948817D01*
X2536253Y-12948817D02*
X2660063Y-12948817D01*
X2736253Y-12996436D02*
X2745777Y-13005960D01*
X2745777Y-13005960D02*
X2736253Y-13015484D01*
X2736253Y-13015484D02*
X2726729Y-13005960D01*
X2726729Y-13005960D02*
X2736253Y-12996436D01*
X2736253Y-12996436D02*
X2736253Y-13015484D01*
X2869586Y-12815484D02*
X2888634Y-12815484D01*
X2888634Y-12815484D02*
X2907682Y-12825008D01*
X2907682Y-12825008D02*
X2917205Y-12834531D01*
X2917205Y-12834531D02*
X2926729Y-12853579D01*
X2926729Y-12853579D02*
X2936253Y-12891674D01*
X2936253Y-12891674D02*
X2936253Y-12939293D01*
X2936253Y-12939293D02*
X2926729Y-12977388D01*
X2926729Y-12977388D02*
X2917205Y-12996436D01*
X2917205Y-12996436D02*
X2907682Y-13005960D01*
X2907682Y-13005960D02*
X2888634Y-13015484D01*
X2888634Y-13015484D02*
X2869586Y-13015484D01*
X2869586Y-13015484D02*
X2850539Y-13005960D01*
X2850539Y-13005960D02*
X2841015Y-12996436D01*
X2841015Y-12996436D02*
X2831491Y-12977388D01*
X2831491Y-12977388D02*
X2821967Y-12939293D01*
X2821967Y-12939293D02*
X2821967Y-12891674D01*
X2821967Y-12891674D02*
X2831491Y-12853579D01*
X2831491Y-12853579D02*
X2841015Y-12834531D01*
X2841015Y-12834531D02*
X2850539Y-12825008D01*
X2850539Y-12825008D02*
X2869586Y-12815484D01*
X3060062Y-12815484D02*
X3079110Y-12815484D01*
X3079110Y-12815484D02*
X3098158Y-12825008D01*
X3098158Y-12825008D02*
X3107682Y-12834531D01*
X3107682Y-12834531D02*
X3117205Y-12853579D01*
X3117205Y-12853579D02*
X3126729Y-12891674D01*
X3126729Y-12891674D02*
X3126729Y-12939293D01*
X3126729Y-12939293D02*
X3117205Y-12977388D01*
X3117205Y-12977388D02*
X3107682Y-12996436D01*
X3107682Y-12996436D02*
X3098158Y-13005960D01*
X3098158Y-13005960D02*
X3079110Y-13015484D01*
X3079110Y-13015484D02*
X3060062Y-13015484D01*
X3060062Y-13015484D02*
X3041015Y-13005960D01*
X3041015Y-13005960D02*
X3031491Y-12996436D01*
X3031491Y-12996436D02*
X3021967Y-12977388D01*
X3021967Y-12977388D02*
X3012443Y-12939293D01*
X3012443Y-12939293D02*
X3012443Y-12891674D01*
X3012443Y-12891674D02*
X3021967Y-12853579D01*
X3021967Y-12853579D02*
X3031491Y-12834531D01*
X3031491Y-12834531D02*
X3041015Y-12825008D01*
X3041015Y-12825008D02*
X3060062Y-12815484D01*
X3250539Y-12815484D02*
X3269586Y-12815484D01*
X3269586Y-12815484D02*
X3288634Y-12825008D01*
X3288634Y-12825008D02*
X3298158Y-12834531D01*
X3298158Y-12834531D02*
X3307682Y-12853579D01*
X3307682Y-12853579D02*
X3317205Y-12891674D01*
X3317205Y-12891674D02*
X3317205Y-12939293D01*
X3317205Y-12939293D02*
X3307682Y-12977388D01*
X3307682Y-12977388D02*
X3298158Y-12996436D01*
X3298158Y-12996436D02*
X3288634Y-13005960D01*
X3288634Y-13005960D02*
X3269586Y-13015484D01*
X3269586Y-13015484D02*
X3250539Y-13015484D01*
X3250539Y-13015484D02*
X3231491Y-13005960D01*
X3231491Y-13005960D02*
X3221967Y-12996436D01*
X3221967Y-12996436D02*
X3212443Y-12977388D01*
X3212443Y-12977388D02*
X3202920Y-12939293D01*
X3202920Y-12939293D02*
X3202920Y-12891674D01*
X3202920Y-12891674D02*
X3212443Y-12853579D01*
X3212443Y-12853579D02*
X3221967Y-12834531D01*
X3221967Y-12834531D02*
X3231491Y-12825008D01*
X3231491Y-12825008D02*
X3250539Y-12815484D01*
X3402920Y-13015484D02*
X3402920Y-12882150D01*
X3402920Y-12901198D02*
X3412443Y-12891674D01*
X3412443Y-12891674D02*
X3431491Y-12882150D01*
X3431491Y-12882150D02*
X3460063Y-12882150D01*
X3460063Y-12882150D02*
X3479110Y-12891674D01*
X3479110Y-12891674D02*
X3488634Y-12910722D01*
X3488634Y-12910722D02*
X3488634Y-13015484D01*
X3488634Y-12910722D02*
X3498158Y-12891674D01*
X3498158Y-12891674D02*
X3517205Y-12882150D01*
X3517205Y-12882150D02*
X3545777Y-12882150D01*
X3545777Y-12882150D02*
X3564824Y-12891674D01*
X3564824Y-12891674D02*
X3574348Y-12910722D01*
X3574348Y-12910722D02*
X3574348Y-13015484D01*
X3669586Y-13015484D02*
X3669586Y-12882150D01*
X3669586Y-12901198D02*
X3679110Y-12891674D01*
X3679110Y-12891674D02*
X3698158Y-12882150D01*
X3698158Y-12882150D02*
X3726729Y-12882150D01*
X3726729Y-12882150D02*
X3745777Y-12891674D01*
X3745777Y-12891674D02*
X3755301Y-12910722D01*
X3755301Y-12910722D02*
X3755301Y-13015484D01*
X3755301Y-12910722D02*
X3764824Y-12891674D01*
X3764824Y-12891674D02*
X3783872Y-12882150D01*
X3783872Y-12882150D02*
X3812443Y-12882150D01*
X3812443Y-12882150D02*
X3831491Y-12891674D01*
X3831491Y-12891674D02*
X3841015Y-12910722D01*
X3841015Y-12910722D02*
X3841015Y-13015484D01*
X4231491Y-12805960D02*
X4060063Y-13063103D01*
X4488634Y-12815484D02*
X4507682Y-12815484D01*
X4507682Y-12815484D02*
X4526729Y-12825008D01*
X4526729Y-12825008D02*
X4536253Y-12834531D01*
X4536253Y-12834531D02*
X4545777Y-12853579D01*
X4545777Y-12853579D02*
X4555301Y-12891674D01*
X4555301Y-12891674D02*
X4555301Y-12939293D01*
X4555301Y-12939293D02*
X4545777Y-12977388D01*
X4545777Y-12977388D02*
X4536253Y-12996436D01*
X4536253Y-12996436D02*
X4526729Y-13005960D01*
X4526729Y-13005960D02*
X4507682Y-13015484D01*
X4507682Y-13015484D02*
X4488634Y-13015484D01*
X4488634Y-13015484D02*
X4469587Y-13005960D01*
X4469587Y-13005960D02*
X4460063Y-12996436D01*
X4460063Y-12996436D02*
X4450539Y-12977388D01*
X4450539Y-12977388D02*
X4441015Y-12939293D01*
X4441015Y-12939293D02*
X4441015Y-12891674D01*
X4441015Y-12891674D02*
X4450539Y-12853579D01*
X4450539Y-12853579D02*
X4460063Y-12834531D01*
X4460063Y-12834531D02*
X4469587Y-12825008D01*
X4469587Y-12825008D02*
X4488634Y-12815484D01*
X4641015Y-12996436D02*
X4650539Y-13005960D01*
X4650539Y-13005960D02*
X4641015Y-13015484D01*
X4641015Y-13015484D02*
X4631491Y-13005960D01*
X4631491Y-13005960D02*
X4641015Y-12996436D01*
X4641015Y-12996436D02*
X4641015Y-13015484D01*
X4841015Y-13015484D02*
X4726729Y-13015484D01*
X4783872Y-13015484D02*
X4783872Y-12815484D01*
X4783872Y-12815484D02*
X4764825Y-12844055D01*
X4764825Y-12844055D02*
X4745777Y-12863103D01*
X4745777Y-12863103D02*
X4726729Y-12872627D01*
X5021968Y-12815484D02*
X4926729Y-12815484D01*
X4926729Y-12815484D02*
X4917206Y-12910722D01*
X4917206Y-12910722D02*
X4926729Y-12901198D01*
X4926729Y-12901198D02*
X4945777Y-12891674D01*
X4945777Y-12891674D02*
X4993396Y-12891674D01*
X4993396Y-12891674D02*
X5012444Y-12901198D01*
X5012444Y-12901198D02*
X5021968Y-12910722D01*
X5021968Y-12910722D02*
X5031491Y-12929769D01*
X5031491Y-12929769D02*
X5031491Y-12977388D01*
X5031491Y-12977388D02*
X5021968Y-12996436D01*
X5021968Y-12996436D02*
X5012444Y-13005960D01*
X5012444Y-13005960D02*
X4993396Y-13015484D01*
X4993396Y-13015484D02*
X4945777Y-13015484D01*
X4945777Y-13015484D02*
X4926729Y-13005960D01*
X4926729Y-13005960D02*
X4917206Y-12996436D01*
X5098158Y-12815484D02*
X5231491Y-12815484D01*
X5231491Y-12815484D02*
X5145777Y-13015484D01*
X5402920Y-12815484D02*
X5307682Y-12815484D01*
X5307682Y-12815484D02*
X5298158Y-12910722D01*
X5298158Y-12910722D02*
X5307682Y-12901198D01*
X5307682Y-12901198D02*
X5326729Y-12891674D01*
X5326729Y-12891674D02*
X5374349Y-12891674D01*
X5374349Y-12891674D02*
X5393396Y-12901198D01*
X5393396Y-12901198D02*
X5402920Y-12910722D01*
X5402920Y-12910722D02*
X5412444Y-12929769D01*
X5412444Y-12929769D02*
X5412444Y-12977388D01*
X5412444Y-12977388D02*
X5402920Y-12996436D01*
X5402920Y-12996436D02*
X5393396Y-13005960D01*
X5393396Y-13005960D02*
X5374349Y-13015484D01*
X5374349Y-13015484D02*
X5326729Y-13015484D01*
X5326729Y-13015484D02*
X5307682Y-13005960D01*
X5307682Y-13005960D02*
X5298158Y-12996436D01*
X5488634Y-12815484D02*
X5488634Y-12853579D01*
X5564825Y-12815484D02*
X5564825Y-12853579D01*
X5860063Y-13091674D02*
X5850539Y-13082150D01*
X5850539Y-13082150D02*
X5831491Y-13053579D01*
X5831491Y-13053579D02*
X5821968Y-13034531D01*
X5821968Y-13034531D02*
X5812444Y-13005960D01*
X5812444Y-13005960D02*
X5802920Y-12958341D01*
X5802920Y-12958341D02*
X5802920Y-12920246D01*
X5802920Y-12920246D02*
X5812444Y-12872627D01*
X5812444Y-12872627D02*
X5821968Y-12844055D01*
X5821968Y-12844055D02*
X5831491Y-12825008D01*
X5831491Y-12825008D02*
X5850539Y-12796436D01*
X5850539Y-12796436D02*
X5860063Y-12786912D01*
X6021968Y-12882150D02*
X6021968Y-13015484D01*
X5974348Y-12805960D02*
X5926729Y-12948817D01*
X5926729Y-12948817D02*
X6050539Y-12948817D01*
X6164825Y-12815484D02*
X6183872Y-12815484D01*
X6183872Y-12815484D02*
X6202920Y-12825008D01*
X6202920Y-12825008D02*
X6212444Y-12834531D01*
X6212444Y-12834531D02*
X6221968Y-12853579D01*
X6221968Y-12853579D02*
X6231491Y-12891674D01*
X6231491Y-12891674D02*
X6231491Y-12939293D01*
X6231491Y-12939293D02*
X6221968Y-12977388D01*
X6221968Y-12977388D02*
X6212444Y-12996436D01*
X6212444Y-12996436D02*
X6202920Y-13005960D01*
X6202920Y-13005960D02*
X6183872Y-13015484D01*
X6183872Y-13015484D02*
X6164825Y-13015484D01*
X6164825Y-13015484D02*
X6145777Y-13005960D01*
X6145777Y-13005960D02*
X6136253Y-12996436D01*
X6136253Y-12996436D02*
X6126729Y-12977388D01*
X6126729Y-12977388D02*
X6117206Y-12939293D01*
X6117206Y-12939293D02*
X6117206Y-12891674D01*
X6117206Y-12891674D02*
X6126729Y-12853579D01*
X6126729Y-12853579D02*
X6136253Y-12834531D01*
X6136253Y-12834531D02*
X6145777Y-12825008D01*
X6145777Y-12825008D02*
X6164825Y-12815484D01*
X6469587Y-13015484D02*
X6469587Y-12815484D01*
X6555301Y-13015484D02*
X6555301Y-12910722D01*
X6555301Y-12910722D02*
X6545777Y-12891674D01*
X6545777Y-12891674D02*
X6526730Y-12882150D01*
X6526730Y-12882150D02*
X6498158Y-12882150D01*
X6498158Y-12882150D02*
X6479110Y-12891674D01*
X6479110Y-12891674D02*
X6469587Y-12901198D01*
X6679110Y-13015484D02*
X6660063Y-13005960D01*
X6660063Y-13005960D02*
X6650539Y-12996436D01*
X6650539Y-12996436D02*
X6641015Y-12977388D01*
X6641015Y-12977388D02*
X6641015Y-12920246D01*
X6641015Y-12920246D02*
X6650539Y-12901198D01*
X6650539Y-12901198D02*
X6660063Y-12891674D01*
X6660063Y-12891674D02*
X6679110Y-12882150D01*
X6679110Y-12882150D02*
X6707682Y-12882150D01*
X6707682Y-12882150D02*
X6726730Y-12891674D01*
X6726730Y-12891674D02*
X6736253Y-12901198D01*
X6736253Y-12901198D02*
X6745777Y-12920246D01*
X6745777Y-12920246D02*
X6745777Y-12977388D01*
X6745777Y-12977388D02*
X6736253Y-12996436D01*
X6736253Y-12996436D02*
X6726730Y-13005960D01*
X6726730Y-13005960D02*
X6707682Y-13015484D01*
X6707682Y-13015484D02*
X6679110Y-13015484D01*
X6860063Y-13015484D02*
X6841015Y-13005960D01*
X6841015Y-13005960D02*
X6831491Y-12986912D01*
X6831491Y-12986912D02*
X6831491Y-12815484D01*
X7012444Y-13005960D02*
X6993396Y-13015484D01*
X6993396Y-13015484D02*
X6955301Y-13015484D01*
X6955301Y-13015484D02*
X6936253Y-13005960D01*
X6936253Y-13005960D02*
X6926730Y-12986912D01*
X6926730Y-12986912D02*
X6926730Y-12910722D01*
X6926730Y-12910722D02*
X6936253Y-12891674D01*
X6936253Y-12891674D02*
X6955301Y-12882150D01*
X6955301Y-12882150D02*
X6993396Y-12882150D01*
X6993396Y-12882150D02*
X7012444Y-12891674D01*
X7012444Y-12891674D02*
X7021968Y-12910722D01*
X7021968Y-12910722D02*
X7021968Y-12929769D01*
X7021968Y-12929769D02*
X6926730Y-12948817D01*
X7098158Y-13005960D02*
X7117206Y-13015484D01*
X7117206Y-13015484D02*
X7155301Y-13015484D01*
X7155301Y-13015484D02*
X7174349Y-13005960D01*
X7174349Y-13005960D02*
X7183872Y-12986912D01*
X7183872Y-12986912D02*
X7183872Y-12977388D01*
X7183872Y-12977388D02*
X7174349Y-12958341D01*
X7174349Y-12958341D02*
X7155301Y-12948817D01*
X7155301Y-12948817D02*
X7126730Y-12948817D01*
X7126730Y-12948817D02*
X7107682Y-12939293D01*
X7107682Y-12939293D02*
X7098158Y-12920246D01*
X7098158Y-12920246D02*
X7098158Y-12910722D01*
X7098158Y-12910722D02*
X7107682Y-12891674D01*
X7107682Y-12891674D02*
X7126730Y-12882150D01*
X7126730Y-12882150D02*
X7155301Y-12882150D01*
X7155301Y-12882150D02*
X7174349Y-12891674D01*
X7250539Y-13091674D02*
X7260063Y-13082150D01*
X7260063Y-13082150D02*
X7279111Y-13053579D01*
X7279111Y-13053579D02*
X7288634Y-13034531D01*
X7288634Y-13034531D02*
X7298158Y-13005960D01*
X7298158Y-13005960D02*
X7307682Y-12958341D01*
X7307682Y-12958341D02*
X7307682Y-12920246D01*
X7307682Y-12920246D02*
X7298158Y-12872627D01*
X7298158Y-12872627D02*
X7288634Y-12844055D01*
X7288634Y-12844055D02*
X7279111Y-12825008D01*
X7279111Y-12825008D02*
X7260063Y-12796436D01*
X7260063Y-12796436D02*
X7250539Y-12786912D01*
X7612444Y-13091674D02*
X7602920Y-13082150D01*
X7602920Y-13082150D02*
X7583872Y-13053579D01*
X7583872Y-13053579D02*
X7574349Y-13034531D01*
X7574349Y-13034531D02*
X7564825Y-13005960D01*
X7564825Y-13005960D02*
X7555301Y-12958341D01*
X7555301Y-12958341D02*
X7555301Y-12920246D01*
X7555301Y-12920246D02*
X7564825Y-12872627D01*
X7564825Y-12872627D02*
X7574349Y-12844055D01*
X7574349Y-12844055D02*
X7583872Y-12825008D01*
X7583872Y-12825008D02*
X7602920Y-12796436D01*
X7602920Y-12796436D02*
X7612444Y-12786912D01*
X7688634Y-12882150D02*
X7688634Y-13015484D01*
X7688634Y-12901198D02*
X7698158Y-12891674D01*
X7698158Y-12891674D02*
X7717206Y-12882150D01*
X7717206Y-12882150D02*
X7745777Y-12882150D01*
X7745777Y-12882150D02*
X7764825Y-12891674D01*
X7764825Y-12891674D02*
X7774349Y-12910722D01*
X7774349Y-12910722D02*
X7774349Y-13015484D01*
X7898158Y-13015484D02*
X7879111Y-13005960D01*
X7879111Y-13005960D02*
X7869587Y-12996436D01*
X7869587Y-12996436D02*
X7860063Y-12977388D01*
X7860063Y-12977388D02*
X7860063Y-12920246D01*
X7860063Y-12920246D02*
X7869587Y-12901198D01*
X7869587Y-12901198D02*
X7879111Y-12891674D01*
X7879111Y-12891674D02*
X7898158Y-12882150D01*
X7898158Y-12882150D02*
X7926730Y-12882150D01*
X7926730Y-12882150D02*
X7945777Y-12891674D01*
X7945777Y-12891674D02*
X7955301Y-12901198D01*
X7955301Y-12901198D02*
X7964825Y-12920246D01*
X7964825Y-12920246D02*
X7964825Y-12977388D01*
X7964825Y-12977388D02*
X7955301Y-12996436D01*
X7955301Y-12996436D02*
X7945777Y-13005960D01*
X7945777Y-13005960D02*
X7926730Y-13015484D01*
X7926730Y-13015484D02*
X7898158Y-13015484D01*
X8021968Y-12882150D02*
X8098158Y-12882150D01*
X8050539Y-12815484D02*
X8050539Y-12986912D01*
X8050539Y-12986912D02*
X8060063Y-13005960D01*
X8060063Y-13005960D02*
X8079111Y-13015484D01*
X8079111Y-13015484D02*
X8098158Y-13015484D01*
X8317206Y-12882150D02*
X8317206Y-13082150D01*
X8317206Y-12891674D02*
X8336253Y-12882150D01*
X8336253Y-12882150D02*
X8374349Y-12882150D01*
X8374349Y-12882150D02*
X8393396Y-12891674D01*
X8393396Y-12891674D02*
X8402920Y-12901198D01*
X8402920Y-12901198D02*
X8412444Y-12920246D01*
X8412444Y-12920246D02*
X8412444Y-12977388D01*
X8412444Y-12977388D02*
X8402920Y-12996436D01*
X8402920Y-12996436D02*
X8393396Y-13005960D01*
X8393396Y-13005960D02*
X8374349Y-13015484D01*
X8374349Y-13015484D02*
X8336253Y-13015484D01*
X8336253Y-13015484D02*
X8317206Y-13005960D01*
X8526730Y-13015484D02*
X8507682Y-13005960D01*
X8507682Y-13005960D02*
X8498158Y-12986912D01*
X8498158Y-12986912D02*
X8498158Y-12815484D01*
X8688635Y-13015484D02*
X8688635Y-12910722D01*
X8688635Y-12910722D02*
X8679111Y-12891674D01*
X8679111Y-12891674D02*
X8660063Y-12882150D01*
X8660063Y-12882150D02*
X8621968Y-12882150D01*
X8621968Y-12882150D02*
X8602920Y-12891674D01*
X8688635Y-13005960D02*
X8669587Y-13015484D01*
X8669587Y-13015484D02*
X8621968Y-13015484D01*
X8621968Y-13015484D02*
X8602920Y-13005960D01*
X8602920Y-13005960D02*
X8593396Y-12986912D01*
X8593396Y-12986912D02*
X8593396Y-12967865D01*
X8593396Y-12967865D02*
X8602920Y-12948817D01*
X8602920Y-12948817D02*
X8621968Y-12939293D01*
X8621968Y-12939293D02*
X8669587Y-12939293D01*
X8669587Y-12939293D02*
X8688635Y-12929769D01*
X8755301Y-12882150D02*
X8831492Y-12882150D01*
X8783873Y-12815484D02*
X8783873Y-12986912D01*
X8783873Y-12986912D02*
X8793396Y-13005960D01*
X8793396Y-13005960D02*
X8812444Y-13015484D01*
X8812444Y-13015484D02*
X8831492Y-13015484D01*
X8974349Y-13005960D02*
X8955301Y-13015484D01*
X8955301Y-13015484D02*
X8917206Y-13015484D01*
X8917206Y-13015484D02*
X8898158Y-13005960D01*
X8898158Y-13005960D02*
X8888635Y-12986912D01*
X8888635Y-12986912D02*
X8888635Y-12910722D01*
X8888635Y-12910722D02*
X8898158Y-12891674D01*
X8898158Y-12891674D02*
X8917206Y-12882150D01*
X8917206Y-12882150D02*
X8955301Y-12882150D01*
X8955301Y-12882150D02*
X8974349Y-12891674D01*
X8974349Y-12891674D02*
X8983873Y-12910722D01*
X8983873Y-12910722D02*
X8983873Y-12929769D01*
X8983873Y-12929769D02*
X8888635Y-12948817D01*
X9155301Y-13015484D02*
X9155301Y-12815484D01*
X9155301Y-13005960D02*
X9136254Y-13015484D01*
X9136254Y-13015484D02*
X9098158Y-13015484D01*
X9098158Y-13015484D02*
X9079111Y-13005960D01*
X9079111Y-13005960D02*
X9069587Y-12996436D01*
X9069587Y-12996436D02*
X9060063Y-12977388D01*
X9060063Y-12977388D02*
X9060063Y-12920246D01*
X9060063Y-12920246D02*
X9069587Y-12901198D01*
X9069587Y-12901198D02*
X9079111Y-12891674D01*
X9079111Y-12891674D02*
X9098158Y-12882150D01*
X9098158Y-12882150D02*
X9136254Y-12882150D01*
X9136254Y-12882150D02*
X9155301Y-12891674D01*
X9231492Y-13091674D02*
X9241016Y-13082150D01*
X9241016Y-13082150D02*
X9260063Y-13053579D01*
X9260063Y-13053579D02*
X9269587Y-13034531D01*
X9269587Y-13034531D02*
X9279111Y-13005960D01*
X9279111Y-13005960D02*
X9288635Y-12958341D01*
X9288635Y-12958341D02*
X9288635Y-12920246D01*
X9288635Y-12920246D02*
X9279111Y-12872627D01*
X9279111Y-12872627D02*
X9269587Y-12844055D01*
X9269587Y-12844055D02*
X9260063Y-12825008D01*
X9260063Y-12825008D02*
X9241016Y-12796436D01*
X9241016Y-12796436D02*
X9231492Y-12786912D01*
M02*
