M48
; DRILL file {KiCad 8.0.3} date 2024-07-17T12:37:19+0100
; FORMAT={-:-/ absolute / inch / decimal}
; #@! TF.CreationDate,2024-07-17T12:37:19+01:00
; #@! TF.GenerationSoftware,Kicad,Pcbnew,8.0.3
; #@! TF.FileFunction,NonPlated,1,2,NPTH
FMAT,2
INCH
; #@! TA.AperFunction,NonPlated,NPTH,ComponentDrill
T1C0.1732
%
G90
G05
T1
X1.4026Y-1.8701
X1.4961Y-2.6181
X1.5896Y-4.1142
X1.6831Y-3.3661
X2.1506Y-1.8701
X2.3376Y-2.6181
X2.7116Y-3.3661
X2.7116Y-4.1142
X2.8986Y-1.8701
X3.0856Y-2.6181
X3.4596Y-3.3661
X3.6467Y-1.8701
X3.8337Y-2.6181
X4.2077Y-3.3661
X4.3947Y-1.8701
X4.5817Y-2.6181
X4.9557Y-3.3661
X5.1427Y-1.8701
X5.3297Y-2.6181
X5.6051Y-4.1142
X5.7037Y-3.3661
X5.8907Y-1.8701
X6.0778Y-2.6181
X6.4518Y-3.3661
X6.6388Y-1.8701
X6.8258Y-2.6181
X7.1998Y-3.3661
X7.3868Y-1.8701
X7.5738Y-2.6181
X8.1348Y-1.8701
X8.1348Y-3.3661
X8.3219Y-2.6181
X8.3219Y-4.1142
X8.8829Y-1.8701
X9.0699Y-2.6181
X9.0699Y-3.3661
X9.0699Y-4.1142
X9.7244Y-1.8701
X9.8179Y-2.9921
X9.8179Y-4.1142
M30
