%TF.GenerationSoftware,KiCad,Pcbnew,8.0.2*%
%TF.CreationDate,2024-05-31T09:53:13+01:00*%
%TF.ProjectId,keyboard,6b657962-6f61-4726-942e-6b696361645f,rev?*%
%TF.SameCoordinates,Original*%
%TF.FileFunction,Legend,Bot*%
%TF.FilePolarity,Positive*%
%FSLAX46Y46*%
G04 Gerber Fmt 4.6, Leading zero omitted, Abs format (unit mm)*
G04 Created by KiCad (PCBNEW 8.0.2) date 2024-05-31 09:53:13*
%MOMM*%
%LPD*%
G01*
G04 APERTURE LIST*
%ADD10C,0.150000*%
%ADD11C,0.120000*%
%ADD12C,4.400000*%
%ADD13C,2.200000*%
%ADD14R,1.600000X1.600000*%
%ADD15O,1.600000X1.600000*%
%ADD16R,1.700000X1.700000*%
%ADD17O,1.700000X1.700000*%
G04 APERTURE END LIST*
D10*
X257349048Y-38824819D02*
X257349048Y-39539104D01*
X257349048Y-39539104D02*
X257396667Y-39681961D01*
X257396667Y-39681961D02*
X257491905Y-39777200D01*
X257491905Y-39777200D02*
X257634762Y-39824819D01*
X257634762Y-39824819D02*
X257730000Y-39824819D01*
X256396667Y-39824819D02*
X256872857Y-39824819D01*
X256872857Y-39824819D02*
X256872857Y-38824819D01*
X255491905Y-39729580D02*
X255539524Y-39777200D01*
X255539524Y-39777200D02*
X255682381Y-39824819D01*
X255682381Y-39824819D02*
X255777619Y-39824819D01*
X255777619Y-39824819D02*
X255920476Y-39777200D01*
X255920476Y-39777200D02*
X256015714Y-39681961D01*
X256015714Y-39681961D02*
X256063333Y-39586723D01*
X256063333Y-39586723D02*
X256110952Y-39396247D01*
X256110952Y-39396247D02*
X256110952Y-39253390D01*
X256110952Y-39253390D02*
X256063333Y-39062914D01*
X256063333Y-39062914D02*
X256015714Y-38967676D01*
X256015714Y-38967676D02*
X255920476Y-38872438D01*
X255920476Y-38872438D02*
X255777619Y-38824819D01*
X255777619Y-38824819D02*
X255682381Y-38824819D01*
X255682381Y-38824819D02*
X255539524Y-38872438D01*
X255539524Y-38872438D02*
X255491905Y-38920057D01*
X254777619Y-38824819D02*
X254777619Y-39539104D01*
X254777619Y-39539104D02*
X254825238Y-39681961D01*
X254825238Y-39681961D02*
X254920476Y-39777200D01*
X254920476Y-39777200D02*
X255063333Y-39824819D01*
X255063333Y-39824819D02*
X255158571Y-39824819D01*
X253825238Y-39824819D02*
X254301428Y-39824819D01*
X254301428Y-39824819D02*
X254301428Y-38824819D01*
X252920476Y-39729580D02*
X252968095Y-39777200D01*
X252968095Y-39777200D02*
X253110952Y-39824819D01*
X253110952Y-39824819D02*
X253206190Y-39824819D01*
X253206190Y-39824819D02*
X253349047Y-39777200D01*
X253349047Y-39777200D02*
X253444285Y-39681961D01*
X253444285Y-39681961D02*
X253491904Y-39586723D01*
X253491904Y-39586723D02*
X253539523Y-39396247D01*
X253539523Y-39396247D02*
X253539523Y-39253390D01*
X253539523Y-39253390D02*
X253491904Y-39062914D01*
X253491904Y-39062914D02*
X253444285Y-38967676D01*
X253444285Y-38967676D02*
X253349047Y-38872438D01*
X253349047Y-38872438D02*
X253206190Y-38824819D01*
X253206190Y-38824819D02*
X253110952Y-38824819D01*
X253110952Y-38824819D02*
X252968095Y-38872438D01*
X252968095Y-38872438D02*
X252920476Y-38920057D01*
X252206190Y-38824819D02*
X252206190Y-39539104D01*
X252206190Y-39539104D02*
X252253809Y-39681961D01*
X252253809Y-39681961D02*
X252349047Y-39777200D01*
X252349047Y-39777200D02*
X252491904Y-39824819D01*
X252491904Y-39824819D02*
X252587142Y-39824819D01*
X251253809Y-39824819D02*
X251729999Y-39824819D01*
X251729999Y-39824819D02*
X251729999Y-38824819D01*
X250349047Y-39729580D02*
X250396666Y-39777200D01*
X250396666Y-39777200D02*
X250539523Y-39824819D01*
X250539523Y-39824819D02*
X250634761Y-39824819D01*
X250634761Y-39824819D02*
X250777618Y-39777200D01*
X250777618Y-39777200D02*
X250872856Y-39681961D01*
X250872856Y-39681961D02*
X250920475Y-39586723D01*
X250920475Y-39586723D02*
X250968094Y-39396247D01*
X250968094Y-39396247D02*
X250968094Y-39253390D01*
X250968094Y-39253390D02*
X250920475Y-39062914D01*
X250920475Y-39062914D02*
X250872856Y-38967676D01*
X250872856Y-38967676D02*
X250777618Y-38872438D01*
X250777618Y-38872438D02*
X250634761Y-38824819D01*
X250634761Y-38824819D02*
X250539523Y-38824819D01*
X250539523Y-38824819D02*
X250396666Y-38872438D01*
X250396666Y-38872438D02*
X250349047Y-38920057D01*
X249634761Y-38824819D02*
X249634761Y-39539104D01*
X249634761Y-39539104D02*
X249682380Y-39681961D01*
X249682380Y-39681961D02*
X249777618Y-39777200D01*
X249777618Y-39777200D02*
X249920475Y-39824819D01*
X249920475Y-39824819D02*
X250015713Y-39824819D01*
X248682380Y-39824819D02*
X249158570Y-39824819D01*
X249158570Y-39824819D02*
X249158570Y-38824819D01*
X247777618Y-39729580D02*
X247825237Y-39777200D01*
X247825237Y-39777200D02*
X247968094Y-39824819D01*
X247968094Y-39824819D02*
X248063332Y-39824819D01*
X248063332Y-39824819D02*
X248206189Y-39777200D01*
X248206189Y-39777200D02*
X248301427Y-39681961D01*
X248301427Y-39681961D02*
X248349046Y-39586723D01*
X248349046Y-39586723D02*
X248396665Y-39396247D01*
X248396665Y-39396247D02*
X248396665Y-39253390D01*
X248396665Y-39253390D02*
X248349046Y-39062914D01*
X248349046Y-39062914D02*
X248301427Y-38967676D01*
X248301427Y-38967676D02*
X248206189Y-38872438D01*
X248206189Y-38872438D02*
X248063332Y-38824819D01*
X248063332Y-38824819D02*
X247968094Y-38824819D01*
X247968094Y-38824819D02*
X247825237Y-38872438D01*
X247825237Y-38872438D02*
X247777618Y-38920057D01*
X155650000Y-109900000D02*
X179400000Y-109900000D01*
X179200000Y-108850000D02*
X177200000Y-108850000D01*
X178200000Y-107350000D01*
X179200000Y-108850000D01*
G36*
X179200000Y-108850000D02*
G01*
X177200000Y-108850000D01*
X178200000Y-107350000D01*
X179200000Y-108850000D01*
G37*
X133607692Y-108611538D02*
X131607692Y-108611538D01*
X132607692Y-107111538D01*
X133607692Y-108611538D01*
G36*
X133607692Y-108611538D02*
G01*
X131607692Y-108611538D01*
X132607692Y-107111538D01*
X133607692Y-108611538D01*
G37*
X133700000Y-109900000D02*
X118050000Y-109900000D01*
X98822619Y-70824200D02*
X98708333Y-70862295D01*
X98708333Y-70862295D02*
X98517857Y-70862295D01*
X98517857Y-70862295D02*
X98441666Y-70824200D01*
X98441666Y-70824200D02*
X98403571Y-70786104D01*
X98403571Y-70786104D02*
X98365476Y-70709914D01*
X98365476Y-70709914D02*
X98365476Y-70633723D01*
X98365476Y-70633723D02*
X98403571Y-70557533D01*
X98403571Y-70557533D02*
X98441666Y-70519438D01*
X98441666Y-70519438D02*
X98517857Y-70481342D01*
X98517857Y-70481342D02*
X98670238Y-70443247D01*
X98670238Y-70443247D02*
X98746428Y-70405152D01*
X98746428Y-70405152D02*
X98784523Y-70367057D01*
X98784523Y-70367057D02*
X98822619Y-70290866D01*
X98822619Y-70290866D02*
X98822619Y-70214676D01*
X98822619Y-70214676D02*
X98784523Y-70138485D01*
X98784523Y-70138485D02*
X98746428Y-70100390D01*
X98746428Y-70100390D02*
X98670238Y-70062295D01*
X98670238Y-70062295D02*
X98479761Y-70062295D01*
X98479761Y-70062295D02*
X98365476Y-70100390D01*
X98098809Y-70062295D02*
X97908333Y-70862295D01*
X97908333Y-70862295D02*
X97755952Y-70290866D01*
X97755952Y-70290866D02*
X97603571Y-70862295D01*
X97603571Y-70862295D02*
X97413095Y-70062295D01*
X96689285Y-70862295D02*
X97146428Y-70862295D01*
X96917856Y-70862295D02*
X96917856Y-70062295D01*
X96917856Y-70062295D02*
X96994047Y-70176580D01*
X96994047Y-70176580D02*
X97070237Y-70252771D01*
X97070237Y-70252771D02*
X97146428Y-70290866D01*
X96308332Y-70862295D02*
X96155951Y-70862295D01*
X96155951Y-70862295D02*
X96079761Y-70824200D01*
X96079761Y-70824200D02*
X96041665Y-70786104D01*
X96041665Y-70786104D02*
X95965475Y-70671819D01*
X95965475Y-70671819D02*
X95927380Y-70519438D01*
X95927380Y-70519438D02*
X95927380Y-70214676D01*
X95927380Y-70214676D02*
X95965475Y-70138485D01*
X95965475Y-70138485D02*
X96003570Y-70100390D01*
X96003570Y-70100390D02*
X96079761Y-70062295D01*
X96079761Y-70062295D02*
X96232142Y-70062295D01*
X96232142Y-70062295D02*
X96308332Y-70100390D01*
X96308332Y-70100390D02*
X96346427Y-70138485D01*
X96346427Y-70138485D02*
X96384523Y-70214676D01*
X96384523Y-70214676D02*
X96384523Y-70405152D01*
X96384523Y-70405152D02*
X96346427Y-70481342D01*
X96346427Y-70481342D02*
X96308332Y-70519438D01*
X96308332Y-70519438D02*
X96232142Y-70557533D01*
X96232142Y-70557533D02*
X96079761Y-70557533D01*
X96079761Y-70557533D02*
X96003570Y-70519438D01*
X96003570Y-70519438D02*
X95965475Y-70481342D01*
X95965475Y-70481342D02*
X95927380Y-70405152D01*
X146322619Y-89824200D02*
X146208333Y-89862295D01*
X146208333Y-89862295D02*
X146017857Y-89862295D01*
X146017857Y-89862295D02*
X145941666Y-89824200D01*
X145941666Y-89824200D02*
X145903571Y-89786104D01*
X145903571Y-89786104D02*
X145865476Y-89709914D01*
X145865476Y-89709914D02*
X145865476Y-89633723D01*
X145865476Y-89633723D02*
X145903571Y-89557533D01*
X145903571Y-89557533D02*
X145941666Y-89519438D01*
X145941666Y-89519438D02*
X146017857Y-89481342D01*
X146017857Y-89481342D02*
X146170238Y-89443247D01*
X146170238Y-89443247D02*
X146246428Y-89405152D01*
X146246428Y-89405152D02*
X146284523Y-89367057D01*
X146284523Y-89367057D02*
X146322619Y-89290866D01*
X146322619Y-89290866D02*
X146322619Y-89214676D01*
X146322619Y-89214676D02*
X146284523Y-89138485D01*
X146284523Y-89138485D02*
X146246428Y-89100390D01*
X146246428Y-89100390D02*
X146170238Y-89062295D01*
X146170238Y-89062295D02*
X145979761Y-89062295D01*
X145979761Y-89062295D02*
X145865476Y-89100390D01*
X145598809Y-89062295D02*
X145408333Y-89862295D01*
X145408333Y-89862295D02*
X145255952Y-89290866D01*
X145255952Y-89290866D02*
X145103571Y-89862295D01*
X145103571Y-89862295D02*
X144913095Y-89062295D01*
X144646428Y-89138485D02*
X144608332Y-89100390D01*
X144608332Y-89100390D02*
X144532142Y-89062295D01*
X144532142Y-89062295D02*
X144341666Y-89062295D01*
X144341666Y-89062295D02*
X144265475Y-89100390D01*
X144265475Y-89100390D02*
X144227380Y-89138485D01*
X144227380Y-89138485D02*
X144189285Y-89214676D01*
X144189285Y-89214676D02*
X144189285Y-89290866D01*
X144189285Y-89290866D02*
X144227380Y-89405152D01*
X144227380Y-89405152D02*
X144684523Y-89862295D01*
X144684523Y-89862295D02*
X144189285Y-89862295D01*
X143732142Y-89405152D02*
X143808332Y-89367057D01*
X143808332Y-89367057D02*
X143846427Y-89328961D01*
X143846427Y-89328961D02*
X143884523Y-89252771D01*
X143884523Y-89252771D02*
X143884523Y-89214676D01*
X143884523Y-89214676D02*
X143846427Y-89138485D01*
X143846427Y-89138485D02*
X143808332Y-89100390D01*
X143808332Y-89100390D02*
X143732142Y-89062295D01*
X143732142Y-89062295D02*
X143579761Y-89062295D01*
X143579761Y-89062295D02*
X143503570Y-89100390D01*
X143503570Y-89100390D02*
X143465475Y-89138485D01*
X143465475Y-89138485D02*
X143427380Y-89214676D01*
X143427380Y-89214676D02*
X143427380Y-89252771D01*
X143427380Y-89252771D02*
X143465475Y-89328961D01*
X143465475Y-89328961D02*
X143503570Y-89367057D01*
X143503570Y-89367057D02*
X143579761Y-89405152D01*
X143579761Y-89405152D02*
X143732142Y-89405152D01*
X143732142Y-89405152D02*
X143808332Y-89443247D01*
X143808332Y-89443247D02*
X143846427Y-89481342D01*
X143846427Y-89481342D02*
X143884523Y-89557533D01*
X143884523Y-89557533D02*
X143884523Y-89709914D01*
X143884523Y-89709914D02*
X143846427Y-89786104D01*
X143846427Y-89786104D02*
X143808332Y-89824200D01*
X143808332Y-89824200D02*
X143732142Y-89862295D01*
X143732142Y-89862295D02*
X143579761Y-89862295D01*
X143579761Y-89862295D02*
X143503570Y-89824200D01*
X143503570Y-89824200D02*
X143465475Y-89786104D01*
X143465475Y-89786104D02*
X143427380Y-89709914D01*
X143427380Y-89709914D02*
X143427380Y-89557533D01*
X143427380Y-89557533D02*
X143465475Y-89481342D01*
X143465475Y-89481342D02*
X143503570Y-89443247D01*
X143503570Y-89443247D02*
X143579761Y-89405152D01*
X44197619Y-89824200D02*
X44083333Y-89862295D01*
X44083333Y-89862295D02*
X43892857Y-89862295D01*
X43892857Y-89862295D02*
X43816666Y-89824200D01*
X43816666Y-89824200D02*
X43778571Y-89786104D01*
X43778571Y-89786104D02*
X43740476Y-89709914D01*
X43740476Y-89709914D02*
X43740476Y-89633723D01*
X43740476Y-89633723D02*
X43778571Y-89557533D01*
X43778571Y-89557533D02*
X43816666Y-89519438D01*
X43816666Y-89519438D02*
X43892857Y-89481342D01*
X43892857Y-89481342D02*
X44045238Y-89443247D01*
X44045238Y-89443247D02*
X44121428Y-89405152D01*
X44121428Y-89405152D02*
X44159523Y-89367057D01*
X44159523Y-89367057D02*
X44197619Y-89290866D01*
X44197619Y-89290866D02*
X44197619Y-89214676D01*
X44197619Y-89214676D02*
X44159523Y-89138485D01*
X44159523Y-89138485D02*
X44121428Y-89100390D01*
X44121428Y-89100390D02*
X44045238Y-89062295D01*
X44045238Y-89062295D02*
X43854761Y-89062295D01*
X43854761Y-89062295D02*
X43740476Y-89100390D01*
X43473809Y-89062295D02*
X43283333Y-89862295D01*
X43283333Y-89862295D02*
X43130952Y-89290866D01*
X43130952Y-89290866D02*
X42978571Y-89862295D01*
X42978571Y-89862295D02*
X42788095Y-89062295D01*
X42064285Y-89862295D02*
X42521428Y-89862295D01*
X42292856Y-89862295D02*
X42292856Y-89062295D01*
X42292856Y-89062295D02*
X42369047Y-89176580D01*
X42369047Y-89176580D02*
X42445237Y-89252771D01*
X42445237Y-89252771D02*
X42521428Y-89290866D01*
X41797618Y-89062295D02*
X41264284Y-89062295D01*
X41264284Y-89062295D02*
X41607142Y-89862295D01*
X39066667Y-70824200D02*
X38952381Y-70862295D01*
X38952381Y-70862295D02*
X38761905Y-70862295D01*
X38761905Y-70862295D02*
X38685714Y-70824200D01*
X38685714Y-70824200D02*
X38647619Y-70786104D01*
X38647619Y-70786104D02*
X38609524Y-70709914D01*
X38609524Y-70709914D02*
X38609524Y-70633723D01*
X38609524Y-70633723D02*
X38647619Y-70557533D01*
X38647619Y-70557533D02*
X38685714Y-70519438D01*
X38685714Y-70519438D02*
X38761905Y-70481342D01*
X38761905Y-70481342D02*
X38914286Y-70443247D01*
X38914286Y-70443247D02*
X38990476Y-70405152D01*
X38990476Y-70405152D02*
X39028571Y-70367057D01*
X39028571Y-70367057D02*
X39066667Y-70290866D01*
X39066667Y-70290866D02*
X39066667Y-70214676D01*
X39066667Y-70214676D02*
X39028571Y-70138485D01*
X39028571Y-70138485D02*
X38990476Y-70100390D01*
X38990476Y-70100390D02*
X38914286Y-70062295D01*
X38914286Y-70062295D02*
X38723809Y-70062295D01*
X38723809Y-70062295D02*
X38609524Y-70100390D01*
X38342857Y-70062295D02*
X38152381Y-70862295D01*
X38152381Y-70862295D02*
X38000000Y-70290866D01*
X38000000Y-70290866D02*
X37847619Y-70862295D01*
X37847619Y-70862295D02*
X37657143Y-70062295D01*
X37314285Y-70862295D02*
X37161904Y-70862295D01*
X37161904Y-70862295D02*
X37085714Y-70824200D01*
X37085714Y-70824200D02*
X37047618Y-70786104D01*
X37047618Y-70786104D02*
X36971428Y-70671819D01*
X36971428Y-70671819D02*
X36933333Y-70519438D01*
X36933333Y-70519438D02*
X36933333Y-70214676D01*
X36933333Y-70214676D02*
X36971428Y-70138485D01*
X36971428Y-70138485D02*
X37009523Y-70100390D01*
X37009523Y-70100390D02*
X37085714Y-70062295D01*
X37085714Y-70062295D02*
X37238095Y-70062295D01*
X37238095Y-70062295D02*
X37314285Y-70100390D01*
X37314285Y-70100390D02*
X37352380Y-70138485D01*
X37352380Y-70138485D02*
X37390476Y-70214676D01*
X37390476Y-70214676D02*
X37390476Y-70405152D01*
X37390476Y-70405152D02*
X37352380Y-70481342D01*
X37352380Y-70481342D02*
X37314285Y-70519438D01*
X37314285Y-70519438D02*
X37238095Y-70557533D01*
X37238095Y-70557533D02*
X37085714Y-70557533D01*
X37085714Y-70557533D02*
X37009523Y-70519438D01*
X37009523Y-70519438D02*
X36971428Y-70481342D01*
X36971428Y-70481342D02*
X36933333Y-70405152D01*
X193822619Y-70824200D02*
X193708333Y-70862295D01*
X193708333Y-70862295D02*
X193517857Y-70862295D01*
X193517857Y-70862295D02*
X193441666Y-70824200D01*
X193441666Y-70824200D02*
X193403571Y-70786104D01*
X193403571Y-70786104D02*
X193365476Y-70709914D01*
X193365476Y-70709914D02*
X193365476Y-70633723D01*
X193365476Y-70633723D02*
X193403571Y-70557533D01*
X193403571Y-70557533D02*
X193441666Y-70519438D01*
X193441666Y-70519438D02*
X193517857Y-70481342D01*
X193517857Y-70481342D02*
X193670238Y-70443247D01*
X193670238Y-70443247D02*
X193746428Y-70405152D01*
X193746428Y-70405152D02*
X193784523Y-70367057D01*
X193784523Y-70367057D02*
X193822619Y-70290866D01*
X193822619Y-70290866D02*
X193822619Y-70214676D01*
X193822619Y-70214676D02*
X193784523Y-70138485D01*
X193784523Y-70138485D02*
X193746428Y-70100390D01*
X193746428Y-70100390D02*
X193670238Y-70062295D01*
X193670238Y-70062295D02*
X193479761Y-70062295D01*
X193479761Y-70062295D02*
X193365476Y-70100390D01*
X193098809Y-70062295D02*
X192908333Y-70862295D01*
X192908333Y-70862295D02*
X192755952Y-70290866D01*
X192755952Y-70290866D02*
X192603571Y-70862295D01*
X192603571Y-70862295D02*
X192413095Y-70062295D01*
X191689285Y-70862295D02*
X192146428Y-70862295D01*
X191917856Y-70862295D02*
X191917856Y-70062295D01*
X191917856Y-70062295D02*
X191994047Y-70176580D01*
X191994047Y-70176580D02*
X192070237Y-70252771D01*
X192070237Y-70252771D02*
X192146428Y-70290866D01*
X190965475Y-70062295D02*
X191346427Y-70062295D01*
X191346427Y-70062295D02*
X191384523Y-70443247D01*
X191384523Y-70443247D02*
X191346427Y-70405152D01*
X191346427Y-70405152D02*
X191270237Y-70367057D01*
X191270237Y-70367057D02*
X191079761Y-70367057D01*
X191079761Y-70367057D02*
X191003570Y-70405152D01*
X191003570Y-70405152D02*
X190965475Y-70443247D01*
X190965475Y-70443247D02*
X190927380Y-70519438D01*
X190927380Y-70519438D02*
X190927380Y-70709914D01*
X190927380Y-70709914D02*
X190965475Y-70786104D01*
X190965475Y-70786104D02*
X191003570Y-70824200D01*
X191003570Y-70824200D02*
X191079761Y-70862295D01*
X191079761Y-70862295D02*
X191270237Y-70862295D01*
X191270237Y-70862295D02*
X191346427Y-70824200D01*
X191346427Y-70824200D02*
X191384523Y-70786104D01*
X231822619Y-89824200D02*
X231708333Y-89862295D01*
X231708333Y-89862295D02*
X231517857Y-89862295D01*
X231517857Y-89862295D02*
X231441666Y-89824200D01*
X231441666Y-89824200D02*
X231403571Y-89786104D01*
X231403571Y-89786104D02*
X231365476Y-89709914D01*
X231365476Y-89709914D02*
X231365476Y-89633723D01*
X231365476Y-89633723D02*
X231403571Y-89557533D01*
X231403571Y-89557533D02*
X231441666Y-89519438D01*
X231441666Y-89519438D02*
X231517857Y-89481342D01*
X231517857Y-89481342D02*
X231670238Y-89443247D01*
X231670238Y-89443247D02*
X231746428Y-89405152D01*
X231746428Y-89405152D02*
X231784523Y-89367057D01*
X231784523Y-89367057D02*
X231822619Y-89290866D01*
X231822619Y-89290866D02*
X231822619Y-89214676D01*
X231822619Y-89214676D02*
X231784523Y-89138485D01*
X231784523Y-89138485D02*
X231746428Y-89100390D01*
X231746428Y-89100390D02*
X231670238Y-89062295D01*
X231670238Y-89062295D02*
X231479761Y-89062295D01*
X231479761Y-89062295D02*
X231365476Y-89100390D01*
X231098809Y-89062295D02*
X230908333Y-89862295D01*
X230908333Y-89862295D02*
X230755952Y-89290866D01*
X230755952Y-89290866D02*
X230603571Y-89862295D01*
X230603571Y-89862295D02*
X230413095Y-89062295D01*
X230184523Y-89062295D02*
X229689285Y-89062295D01*
X229689285Y-89062295D02*
X229955951Y-89367057D01*
X229955951Y-89367057D02*
X229841666Y-89367057D01*
X229841666Y-89367057D02*
X229765475Y-89405152D01*
X229765475Y-89405152D02*
X229727380Y-89443247D01*
X229727380Y-89443247D02*
X229689285Y-89519438D01*
X229689285Y-89519438D02*
X229689285Y-89709914D01*
X229689285Y-89709914D02*
X229727380Y-89786104D01*
X229727380Y-89786104D02*
X229765475Y-89824200D01*
X229765475Y-89824200D02*
X229841666Y-89862295D01*
X229841666Y-89862295D02*
X230070237Y-89862295D01*
X230070237Y-89862295D02*
X230146428Y-89824200D01*
X230146428Y-89824200D02*
X230184523Y-89786104D01*
X229422618Y-89062295D02*
X228889284Y-89062295D01*
X228889284Y-89062295D02*
X229232142Y-89862295D01*
X127322619Y-89824200D02*
X127208333Y-89862295D01*
X127208333Y-89862295D02*
X127017857Y-89862295D01*
X127017857Y-89862295D02*
X126941666Y-89824200D01*
X126941666Y-89824200D02*
X126903571Y-89786104D01*
X126903571Y-89786104D02*
X126865476Y-89709914D01*
X126865476Y-89709914D02*
X126865476Y-89633723D01*
X126865476Y-89633723D02*
X126903571Y-89557533D01*
X126903571Y-89557533D02*
X126941666Y-89519438D01*
X126941666Y-89519438D02*
X127017857Y-89481342D01*
X127017857Y-89481342D02*
X127170238Y-89443247D01*
X127170238Y-89443247D02*
X127246428Y-89405152D01*
X127246428Y-89405152D02*
X127284523Y-89367057D01*
X127284523Y-89367057D02*
X127322619Y-89290866D01*
X127322619Y-89290866D02*
X127322619Y-89214676D01*
X127322619Y-89214676D02*
X127284523Y-89138485D01*
X127284523Y-89138485D02*
X127246428Y-89100390D01*
X127246428Y-89100390D02*
X127170238Y-89062295D01*
X127170238Y-89062295D02*
X126979761Y-89062295D01*
X126979761Y-89062295D02*
X126865476Y-89100390D01*
X126598809Y-89062295D02*
X126408333Y-89862295D01*
X126408333Y-89862295D02*
X126255952Y-89290866D01*
X126255952Y-89290866D02*
X126103571Y-89862295D01*
X126103571Y-89862295D02*
X125913095Y-89062295D01*
X125646428Y-89138485D02*
X125608332Y-89100390D01*
X125608332Y-89100390D02*
X125532142Y-89062295D01*
X125532142Y-89062295D02*
X125341666Y-89062295D01*
X125341666Y-89062295D02*
X125265475Y-89100390D01*
X125265475Y-89100390D02*
X125227380Y-89138485D01*
X125227380Y-89138485D02*
X125189285Y-89214676D01*
X125189285Y-89214676D02*
X125189285Y-89290866D01*
X125189285Y-89290866D02*
X125227380Y-89405152D01*
X125227380Y-89405152D02*
X125684523Y-89862295D01*
X125684523Y-89862295D02*
X125189285Y-89862295D01*
X124694046Y-89062295D02*
X124617856Y-89062295D01*
X124617856Y-89062295D02*
X124541665Y-89100390D01*
X124541665Y-89100390D02*
X124503570Y-89138485D01*
X124503570Y-89138485D02*
X124465475Y-89214676D01*
X124465475Y-89214676D02*
X124427380Y-89367057D01*
X124427380Y-89367057D02*
X124427380Y-89557533D01*
X124427380Y-89557533D02*
X124465475Y-89709914D01*
X124465475Y-89709914D02*
X124503570Y-89786104D01*
X124503570Y-89786104D02*
X124541665Y-89824200D01*
X124541665Y-89824200D02*
X124617856Y-89862295D01*
X124617856Y-89862295D02*
X124694046Y-89862295D01*
X124694046Y-89862295D02*
X124770237Y-89824200D01*
X124770237Y-89824200D02*
X124808332Y-89786104D01*
X124808332Y-89786104D02*
X124846427Y-89709914D01*
X124846427Y-89709914D02*
X124884523Y-89557533D01*
X124884523Y-89557533D02*
X124884523Y-89367057D01*
X124884523Y-89367057D02*
X124846427Y-89214676D01*
X124846427Y-89214676D02*
X124808332Y-89138485D01*
X124808332Y-89138485D02*
X124770237Y-89100390D01*
X124770237Y-89100390D02*
X124694046Y-89062295D01*
X117822619Y-70824200D02*
X117708333Y-70862295D01*
X117708333Y-70862295D02*
X117517857Y-70862295D01*
X117517857Y-70862295D02*
X117441666Y-70824200D01*
X117441666Y-70824200D02*
X117403571Y-70786104D01*
X117403571Y-70786104D02*
X117365476Y-70709914D01*
X117365476Y-70709914D02*
X117365476Y-70633723D01*
X117365476Y-70633723D02*
X117403571Y-70557533D01*
X117403571Y-70557533D02*
X117441666Y-70519438D01*
X117441666Y-70519438D02*
X117517857Y-70481342D01*
X117517857Y-70481342D02*
X117670238Y-70443247D01*
X117670238Y-70443247D02*
X117746428Y-70405152D01*
X117746428Y-70405152D02*
X117784523Y-70367057D01*
X117784523Y-70367057D02*
X117822619Y-70290866D01*
X117822619Y-70290866D02*
X117822619Y-70214676D01*
X117822619Y-70214676D02*
X117784523Y-70138485D01*
X117784523Y-70138485D02*
X117746428Y-70100390D01*
X117746428Y-70100390D02*
X117670238Y-70062295D01*
X117670238Y-70062295D02*
X117479761Y-70062295D01*
X117479761Y-70062295D02*
X117365476Y-70100390D01*
X117098809Y-70062295D02*
X116908333Y-70862295D01*
X116908333Y-70862295D02*
X116755952Y-70290866D01*
X116755952Y-70290866D02*
X116603571Y-70862295D01*
X116603571Y-70862295D02*
X116413095Y-70062295D01*
X116146428Y-70138485D02*
X116108332Y-70100390D01*
X116108332Y-70100390D02*
X116032142Y-70062295D01*
X116032142Y-70062295D02*
X115841666Y-70062295D01*
X115841666Y-70062295D02*
X115765475Y-70100390D01*
X115765475Y-70100390D02*
X115727380Y-70138485D01*
X115727380Y-70138485D02*
X115689285Y-70214676D01*
X115689285Y-70214676D02*
X115689285Y-70290866D01*
X115689285Y-70290866D02*
X115727380Y-70405152D01*
X115727380Y-70405152D02*
X116184523Y-70862295D01*
X116184523Y-70862295D02*
X115689285Y-70862295D01*
X115422618Y-70062295D02*
X114889284Y-70062295D01*
X114889284Y-70062295D02*
X115232142Y-70862295D01*
X67947619Y-108824200D02*
X67833333Y-108862295D01*
X67833333Y-108862295D02*
X67642857Y-108862295D01*
X67642857Y-108862295D02*
X67566666Y-108824200D01*
X67566666Y-108824200D02*
X67528571Y-108786104D01*
X67528571Y-108786104D02*
X67490476Y-108709914D01*
X67490476Y-108709914D02*
X67490476Y-108633723D01*
X67490476Y-108633723D02*
X67528571Y-108557533D01*
X67528571Y-108557533D02*
X67566666Y-108519438D01*
X67566666Y-108519438D02*
X67642857Y-108481342D01*
X67642857Y-108481342D02*
X67795238Y-108443247D01*
X67795238Y-108443247D02*
X67871428Y-108405152D01*
X67871428Y-108405152D02*
X67909523Y-108367057D01*
X67909523Y-108367057D02*
X67947619Y-108290866D01*
X67947619Y-108290866D02*
X67947619Y-108214676D01*
X67947619Y-108214676D02*
X67909523Y-108138485D01*
X67909523Y-108138485D02*
X67871428Y-108100390D01*
X67871428Y-108100390D02*
X67795238Y-108062295D01*
X67795238Y-108062295D02*
X67604761Y-108062295D01*
X67604761Y-108062295D02*
X67490476Y-108100390D01*
X67223809Y-108062295D02*
X67033333Y-108862295D01*
X67033333Y-108862295D02*
X66880952Y-108290866D01*
X66880952Y-108290866D02*
X66728571Y-108862295D01*
X66728571Y-108862295D02*
X66538095Y-108062295D01*
X66271428Y-108138485D02*
X66233332Y-108100390D01*
X66233332Y-108100390D02*
X66157142Y-108062295D01*
X66157142Y-108062295D02*
X65966666Y-108062295D01*
X65966666Y-108062295D02*
X65890475Y-108100390D01*
X65890475Y-108100390D02*
X65852380Y-108138485D01*
X65852380Y-108138485D02*
X65814285Y-108214676D01*
X65814285Y-108214676D02*
X65814285Y-108290866D01*
X65814285Y-108290866D02*
X65852380Y-108405152D01*
X65852380Y-108405152D02*
X66309523Y-108862295D01*
X66309523Y-108862295D02*
X65814285Y-108862295D01*
X65090475Y-108062295D02*
X65471427Y-108062295D01*
X65471427Y-108062295D02*
X65509523Y-108443247D01*
X65509523Y-108443247D02*
X65471427Y-108405152D01*
X65471427Y-108405152D02*
X65395237Y-108367057D01*
X65395237Y-108367057D02*
X65204761Y-108367057D01*
X65204761Y-108367057D02*
X65128570Y-108405152D01*
X65128570Y-108405152D02*
X65090475Y-108443247D01*
X65090475Y-108443247D02*
X65052380Y-108519438D01*
X65052380Y-108519438D02*
X65052380Y-108709914D01*
X65052380Y-108709914D02*
X65090475Y-108786104D01*
X65090475Y-108786104D02*
X65128570Y-108824200D01*
X65128570Y-108824200D02*
X65204761Y-108862295D01*
X65204761Y-108862295D02*
X65395237Y-108862295D01*
X65395237Y-108862295D02*
X65471427Y-108824200D01*
X65471427Y-108824200D02*
X65509523Y-108786104D01*
X39447619Y-108824200D02*
X39333333Y-108862295D01*
X39333333Y-108862295D02*
X39142857Y-108862295D01*
X39142857Y-108862295D02*
X39066666Y-108824200D01*
X39066666Y-108824200D02*
X39028571Y-108786104D01*
X39028571Y-108786104D02*
X38990476Y-108709914D01*
X38990476Y-108709914D02*
X38990476Y-108633723D01*
X38990476Y-108633723D02*
X39028571Y-108557533D01*
X39028571Y-108557533D02*
X39066666Y-108519438D01*
X39066666Y-108519438D02*
X39142857Y-108481342D01*
X39142857Y-108481342D02*
X39295238Y-108443247D01*
X39295238Y-108443247D02*
X39371428Y-108405152D01*
X39371428Y-108405152D02*
X39409523Y-108367057D01*
X39409523Y-108367057D02*
X39447619Y-108290866D01*
X39447619Y-108290866D02*
X39447619Y-108214676D01*
X39447619Y-108214676D02*
X39409523Y-108138485D01*
X39409523Y-108138485D02*
X39371428Y-108100390D01*
X39371428Y-108100390D02*
X39295238Y-108062295D01*
X39295238Y-108062295D02*
X39104761Y-108062295D01*
X39104761Y-108062295D02*
X38990476Y-108100390D01*
X38723809Y-108062295D02*
X38533333Y-108862295D01*
X38533333Y-108862295D02*
X38380952Y-108290866D01*
X38380952Y-108290866D02*
X38228571Y-108862295D01*
X38228571Y-108862295D02*
X38038095Y-108062295D01*
X37809523Y-108062295D02*
X37314285Y-108062295D01*
X37314285Y-108062295D02*
X37580951Y-108367057D01*
X37580951Y-108367057D02*
X37466666Y-108367057D01*
X37466666Y-108367057D02*
X37390475Y-108405152D01*
X37390475Y-108405152D02*
X37352380Y-108443247D01*
X37352380Y-108443247D02*
X37314285Y-108519438D01*
X37314285Y-108519438D02*
X37314285Y-108709914D01*
X37314285Y-108709914D02*
X37352380Y-108786104D01*
X37352380Y-108786104D02*
X37390475Y-108824200D01*
X37390475Y-108824200D02*
X37466666Y-108862295D01*
X37466666Y-108862295D02*
X37695237Y-108862295D01*
X37695237Y-108862295D02*
X37771428Y-108824200D01*
X37771428Y-108824200D02*
X37809523Y-108786104D01*
X37047618Y-108062295D02*
X36552380Y-108062295D01*
X36552380Y-108062295D02*
X36819046Y-108367057D01*
X36819046Y-108367057D02*
X36704761Y-108367057D01*
X36704761Y-108367057D02*
X36628570Y-108405152D01*
X36628570Y-108405152D02*
X36590475Y-108443247D01*
X36590475Y-108443247D02*
X36552380Y-108519438D01*
X36552380Y-108519438D02*
X36552380Y-108709914D01*
X36552380Y-108709914D02*
X36590475Y-108786104D01*
X36590475Y-108786104D02*
X36628570Y-108824200D01*
X36628570Y-108824200D02*
X36704761Y-108862295D01*
X36704761Y-108862295D02*
X36933332Y-108862295D01*
X36933332Y-108862295D02*
X37009523Y-108824200D01*
X37009523Y-108824200D02*
X37047618Y-108786104D01*
X253699200Y-74552380D02*
X253737295Y-74666666D01*
X253737295Y-74666666D02*
X253737295Y-74857142D01*
X253737295Y-74857142D02*
X253699200Y-74933333D01*
X253699200Y-74933333D02*
X253661104Y-74971428D01*
X253661104Y-74971428D02*
X253584914Y-75009523D01*
X253584914Y-75009523D02*
X253508723Y-75009523D01*
X253508723Y-75009523D02*
X253432533Y-74971428D01*
X253432533Y-74971428D02*
X253394438Y-74933333D01*
X253394438Y-74933333D02*
X253356342Y-74857142D01*
X253356342Y-74857142D02*
X253318247Y-74704761D01*
X253318247Y-74704761D02*
X253280152Y-74628571D01*
X253280152Y-74628571D02*
X253242057Y-74590476D01*
X253242057Y-74590476D02*
X253165866Y-74552380D01*
X253165866Y-74552380D02*
X253089676Y-74552380D01*
X253089676Y-74552380D02*
X253013485Y-74590476D01*
X253013485Y-74590476D02*
X252975390Y-74628571D01*
X252975390Y-74628571D02*
X252937295Y-74704761D01*
X252937295Y-74704761D02*
X252937295Y-74895238D01*
X252937295Y-74895238D02*
X252975390Y-75009523D01*
X252937295Y-75276190D02*
X253737295Y-75466666D01*
X253737295Y-75466666D02*
X253165866Y-75619047D01*
X253165866Y-75619047D02*
X253737295Y-75771428D01*
X253737295Y-75771428D02*
X252937295Y-75961905D01*
X252937295Y-76190476D02*
X252937295Y-76685714D01*
X252937295Y-76685714D02*
X253242057Y-76419048D01*
X253242057Y-76419048D02*
X253242057Y-76533333D01*
X253242057Y-76533333D02*
X253280152Y-76609524D01*
X253280152Y-76609524D02*
X253318247Y-76647619D01*
X253318247Y-76647619D02*
X253394438Y-76685714D01*
X253394438Y-76685714D02*
X253584914Y-76685714D01*
X253584914Y-76685714D02*
X253661104Y-76647619D01*
X253661104Y-76647619D02*
X253699200Y-76609524D01*
X253699200Y-76609524D02*
X253737295Y-76533333D01*
X253737295Y-76533333D02*
X253737295Y-76304762D01*
X253737295Y-76304762D02*
X253699200Y-76228571D01*
X253699200Y-76228571D02*
X253661104Y-76190476D01*
X253013485Y-76990476D02*
X252975390Y-77028572D01*
X252975390Y-77028572D02*
X252937295Y-77104762D01*
X252937295Y-77104762D02*
X252937295Y-77295238D01*
X252937295Y-77295238D02*
X252975390Y-77371429D01*
X252975390Y-77371429D02*
X253013485Y-77409524D01*
X253013485Y-77409524D02*
X253089676Y-77447619D01*
X253089676Y-77447619D02*
X253165866Y-77447619D01*
X253165866Y-77447619D02*
X253280152Y-77409524D01*
X253280152Y-77409524D02*
X253737295Y-76952381D01*
X253737295Y-76952381D02*
X253737295Y-77447619D01*
X136822619Y-70824200D02*
X136708333Y-70862295D01*
X136708333Y-70862295D02*
X136517857Y-70862295D01*
X136517857Y-70862295D02*
X136441666Y-70824200D01*
X136441666Y-70824200D02*
X136403571Y-70786104D01*
X136403571Y-70786104D02*
X136365476Y-70709914D01*
X136365476Y-70709914D02*
X136365476Y-70633723D01*
X136365476Y-70633723D02*
X136403571Y-70557533D01*
X136403571Y-70557533D02*
X136441666Y-70519438D01*
X136441666Y-70519438D02*
X136517857Y-70481342D01*
X136517857Y-70481342D02*
X136670238Y-70443247D01*
X136670238Y-70443247D02*
X136746428Y-70405152D01*
X136746428Y-70405152D02*
X136784523Y-70367057D01*
X136784523Y-70367057D02*
X136822619Y-70290866D01*
X136822619Y-70290866D02*
X136822619Y-70214676D01*
X136822619Y-70214676D02*
X136784523Y-70138485D01*
X136784523Y-70138485D02*
X136746428Y-70100390D01*
X136746428Y-70100390D02*
X136670238Y-70062295D01*
X136670238Y-70062295D02*
X136479761Y-70062295D01*
X136479761Y-70062295D02*
X136365476Y-70100390D01*
X136098809Y-70062295D02*
X135908333Y-70862295D01*
X135908333Y-70862295D02*
X135755952Y-70290866D01*
X135755952Y-70290866D02*
X135603571Y-70862295D01*
X135603571Y-70862295D02*
X135413095Y-70062295D01*
X134689285Y-70862295D02*
X135146428Y-70862295D01*
X134917856Y-70862295D02*
X134917856Y-70062295D01*
X134917856Y-70062295D02*
X134994047Y-70176580D01*
X134994047Y-70176580D02*
X135070237Y-70252771D01*
X135070237Y-70252771D02*
X135146428Y-70290866D01*
X134384523Y-70138485D02*
X134346427Y-70100390D01*
X134346427Y-70100390D02*
X134270237Y-70062295D01*
X134270237Y-70062295D02*
X134079761Y-70062295D01*
X134079761Y-70062295D02*
X134003570Y-70100390D01*
X134003570Y-70100390D02*
X133965475Y-70138485D01*
X133965475Y-70138485D02*
X133927380Y-70214676D01*
X133927380Y-70214676D02*
X133927380Y-70290866D01*
X133927380Y-70290866D02*
X133965475Y-70405152D01*
X133965475Y-70405152D02*
X134422618Y-70862295D01*
X134422618Y-70862295D02*
X133927380Y-70862295D01*
X174822619Y-70824200D02*
X174708333Y-70862295D01*
X174708333Y-70862295D02*
X174517857Y-70862295D01*
X174517857Y-70862295D02*
X174441666Y-70824200D01*
X174441666Y-70824200D02*
X174403571Y-70786104D01*
X174403571Y-70786104D02*
X174365476Y-70709914D01*
X174365476Y-70709914D02*
X174365476Y-70633723D01*
X174365476Y-70633723D02*
X174403571Y-70557533D01*
X174403571Y-70557533D02*
X174441666Y-70519438D01*
X174441666Y-70519438D02*
X174517857Y-70481342D01*
X174517857Y-70481342D02*
X174670238Y-70443247D01*
X174670238Y-70443247D02*
X174746428Y-70405152D01*
X174746428Y-70405152D02*
X174784523Y-70367057D01*
X174784523Y-70367057D02*
X174822619Y-70290866D01*
X174822619Y-70290866D02*
X174822619Y-70214676D01*
X174822619Y-70214676D02*
X174784523Y-70138485D01*
X174784523Y-70138485D02*
X174746428Y-70100390D01*
X174746428Y-70100390D02*
X174670238Y-70062295D01*
X174670238Y-70062295D02*
X174479761Y-70062295D01*
X174479761Y-70062295D02*
X174365476Y-70100390D01*
X174098809Y-70062295D02*
X173908333Y-70862295D01*
X173908333Y-70862295D02*
X173755952Y-70290866D01*
X173755952Y-70290866D02*
X173603571Y-70862295D01*
X173603571Y-70862295D02*
X173413095Y-70062295D01*
X172689285Y-70862295D02*
X173146428Y-70862295D01*
X172917856Y-70862295D02*
X172917856Y-70062295D01*
X172917856Y-70062295D02*
X172994047Y-70176580D01*
X172994047Y-70176580D02*
X173070237Y-70252771D01*
X173070237Y-70252771D02*
X173146428Y-70290866D01*
X172003570Y-70328961D02*
X172003570Y-70862295D01*
X172194046Y-70024200D02*
X172384523Y-70595628D01*
X172384523Y-70595628D02*
X171889284Y-70595628D01*
X231822619Y-108824200D02*
X231708333Y-108862295D01*
X231708333Y-108862295D02*
X231517857Y-108862295D01*
X231517857Y-108862295D02*
X231441666Y-108824200D01*
X231441666Y-108824200D02*
X231403571Y-108786104D01*
X231403571Y-108786104D02*
X231365476Y-108709914D01*
X231365476Y-108709914D02*
X231365476Y-108633723D01*
X231365476Y-108633723D02*
X231403571Y-108557533D01*
X231403571Y-108557533D02*
X231441666Y-108519438D01*
X231441666Y-108519438D02*
X231517857Y-108481342D01*
X231517857Y-108481342D02*
X231670238Y-108443247D01*
X231670238Y-108443247D02*
X231746428Y-108405152D01*
X231746428Y-108405152D02*
X231784523Y-108367057D01*
X231784523Y-108367057D02*
X231822619Y-108290866D01*
X231822619Y-108290866D02*
X231822619Y-108214676D01*
X231822619Y-108214676D02*
X231784523Y-108138485D01*
X231784523Y-108138485D02*
X231746428Y-108100390D01*
X231746428Y-108100390D02*
X231670238Y-108062295D01*
X231670238Y-108062295D02*
X231479761Y-108062295D01*
X231479761Y-108062295D02*
X231365476Y-108100390D01*
X231098809Y-108062295D02*
X230908333Y-108862295D01*
X230908333Y-108862295D02*
X230755952Y-108290866D01*
X230755952Y-108290866D02*
X230603571Y-108862295D01*
X230603571Y-108862295D02*
X230413095Y-108062295D01*
X230184523Y-108062295D02*
X229689285Y-108062295D01*
X229689285Y-108062295D02*
X229955951Y-108367057D01*
X229955951Y-108367057D02*
X229841666Y-108367057D01*
X229841666Y-108367057D02*
X229765475Y-108405152D01*
X229765475Y-108405152D02*
X229727380Y-108443247D01*
X229727380Y-108443247D02*
X229689285Y-108519438D01*
X229689285Y-108519438D02*
X229689285Y-108709914D01*
X229689285Y-108709914D02*
X229727380Y-108786104D01*
X229727380Y-108786104D02*
X229765475Y-108824200D01*
X229765475Y-108824200D02*
X229841666Y-108862295D01*
X229841666Y-108862295D02*
X230070237Y-108862295D01*
X230070237Y-108862295D02*
X230146428Y-108824200D01*
X230146428Y-108824200D02*
X230184523Y-108786104D01*
X229308332Y-108862295D02*
X229155951Y-108862295D01*
X229155951Y-108862295D02*
X229079761Y-108824200D01*
X229079761Y-108824200D02*
X229041665Y-108786104D01*
X229041665Y-108786104D02*
X228965475Y-108671819D01*
X228965475Y-108671819D02*
X228927380Y-108519438D01*
X228927380Y-108519438D02*
X228927380Y-108214676D01*
X228927380Y-108214676D02*
X228965475Y-108138485D01*
X228965475Y-108138485D02*
X229003570Y-108100390D01*
X229003570Y-108100390D02*
X229079761Y-108062295D01*
X229079761Y-108062295D02*
X229232142Y-108062295D01*
X229232142Y-108062295D02*
X229308332Y-108100390D01*
X229308332Y-108100390D02*
X229346427Y-108138485D01*
X229346427Y-108138485D02*
X229384523Y-108214676D01*
X229384523Y-108214676D02*
X229384523Y-108405152D01*
X229384523Y-108405152D02*
X229346427Y-108481342D01*
X229346427Y-108481342D02*
X229308332Y-108519438D01*
X229308332Y-108519438D02*
X229232142Y-108557533D01*
X229232142Y-108557533D02*
X229079761Y-108557533D01*
X229079761Y-108557533D02*
X229003570Y-108519438D01*
X229003570Y-108519438D02*
X228965475Y-108481342D01*
X228965475Y-108481342D02*
X228927380Y-108405152D01*
X212822619Y-70824200D02*
X212708333Y-70862295D01*
X212708333Y-70862295D02*
X212517857Y-70862295D01*
X212517857Y-70862295D02*
X212441666Y-70824200D01*
X212441666Y-70824200D02*
X212403571Y-70786104D01*
X212403571Y-70786104D02*
X212365476Y-70709914D01*
X212365476Y-70709914D02*
X212365476Y-70633723D01*
X212365476Y-70633723D02*
X212403571Y-70557533D01*
X212403571Y-70557533D02*
X212441666Y-70519438D01*
X212441666Y-70519438D02*
X212517857Y-70481342D01*
X212517857Y-70481342D02*
X212670238Y-70443247D01*
X212670238Y-70443247D02*
X212746428Y-70405152D01*
X212746428Y-70405152D02*
X212784523Y-70367057D01*
X212784523Y-70367057D02*
X212822619Y-70290866D01*
X212822619Y-70290866D02*
X212822619Y-70214676D01*
X212822619Y-70214676D02*
X212784523Y-70138485D01*
X212784523Y-70138485D02*
X212746428Y-70100390D01*
X212746428Y-70100390D02*
X212670238Y-70062295D01*
X212670238Y-70062295D02*
X212479761Y-70062295D01*
X212479761Y-70062295D02*
X212365476Y-70100390D01*
X212098809Y-70062295D02*
X211908333Y-70862295D01*
X211908333Y-70862295D02*
X211755952Y-70290866D01*
X211755952Y-70290866D02*
X211603571Y-70862295D01*
X211603571Y-70862295D02*
X211413095Y-70062295D01*
X211146428Y-70138485D02*
X211108332Y-70100390D01*
X211108332Y-70100390D02*
X211032142Y-70062295D01*
X211032142Y-70062295D02*
X210841666Y-70062295D01*
X210841666Y-70062295D02*
X210765475Y-70100390D01*
X210765475Y-70100390D02*
X210727380Y-70138485D01*
X210727380Y-70138485D02*
X210689285Y-70214676D01*
X210689285Y-70214676D02*
X210689285Y-70290866D01*
X210689285Y-70290866D02*
X210727380Y-70405152D01*
X210727380Y-70405152D02*
X211184523Y-70862295D01*
X211184523Y-70862295D02*
X210689285Y-70862295D01*
X210422618Y-70062295D02*
X209927380Y-70062295D01*
X209927380Y-70062295D02*
X210194046Y-70367057D01*
X210194046Y-70367057D02*
X210079761Y-70367057D01*
X210079761Y-70367057D02*
X210003570Y-70405152D01*
X210003570Y-70405152D02*
X209965475Y-70443247D01*
X209965475Y-70443247D02*
X209927380Y-70519438D01*
X209927380Y-70519438D02*
X209927380Y-70709914D01*
X209927380Y-70709914D02*
X209965475Y-70786104D01*
X209965475Y-70786104D02*
X210003570Y-70824200D01*
X210003570Y-70824200D02*
X210079761Y-70862295D01*
X210079761Y-70862295D02*
X210308332Y-70862295D01*
X210308332Y-70862295D02*
X210384523Y-70824200D01*
X210384523Y-70824200D02*
X210422618Y-70786104D01*
X165322619Y-89824200D02*
X165208333Y-89862295D01*
X165208333Y-89862295D02*
X165017857Y-89862295D01*
X165017857Y-89862295D02*
X164941666Y-89824200D01*
X164941666Y-89824200D02*
X164903571Y-89786104D01*
X164903571Y-89786104D02*
X164865476Y-89709914D01*
X164865476Y-89709914D02*
X164865476Y-89633723D01*
X164865476Y-89633723D02*
X164903571Y-89557533D01*
X164903571Y-89557533D02*
X164941666Y-89519438D01*
X164941666Y-89519438D02*
X165017857Y-89481342D01*
X165017857Y-89481342D02*
X165170238Y-89443247D01*
X165170238Y-89443247D02*
X165246428Y-89405152D01*
X165246428Y-89405152D02*
X165284523Y-89367057D01*
X165284523Y-89367057D02*
X165322619Y-89290866D01*
X165322619Y-89290866D02*
X165322619Y-89214676D01*
X165322619Y-89214676D02*
X165284523Y-89138485D01*
X165284523Y-89138485D02*
X165246428Y-89100390D01*
X165246428Y-89100390D02*
X165170238Y-89062295D01*
X165170238Y-89062295D02*
X164979761Y-89062295D01*
X164979761Y-89062295D02*
X164865476Y-89100390D01*
X164598809Y-89062295D02*
X164408333Y-89862295D01*
X164408333Y-89862295D02*
X164255952Y-89290866D01*
X164255952Y-89290866D02*
X164103571Y-89862295D01*
X164103571Y-89862295D02*
X163913095Y-89062295D01*
X163646428Y-89138485D02*
X163608332Y-89100390D01*
X163608332Y-89100390D02*
X163532142Y-89062295D01*
X163532142Y-89062295D02*
X163341666Y-89062295D01*
X163341666Y-89062295D02*
X163265475Y-89100390D01*
X163265475Y-89100390D02*
X163227380Y-89138485D01*
X163227380Y-89138485D02*
X163189285Y-89214676D01*
X163189285Y-89214676D02*
X163189285Y-89290866D01*
X163189285Y-89290866D02*
X163227380Y-89405152D01*
X163227380Y-89405152D02*
X163684523Y-89862295D01*
X163684523Y-89862295D02*
X163189285Y-89862295D01*
X162808332Y-89862295D02*
X162655951Y-89862295D01*
X162655951Y-89862295D02*
X162579761Y-89824200D01*
X162579761Y-89824200D02*
X162541665Y-89786104D01*
X162541665Y-89786104D02*
X162465475Y-89671819D01*
X162465475Y-89671819D02*
X162427380Y-89519438D01*
X162427380Y-89519438D02*
X162427380Y-89214676D01*
X162427380Y-89214676D02*
X162465475Y-89138485D01*
X162465475Y-89138485D02*
X162503570Y-89100390D01*
X162503570Y-89100390D02*
X162579761Y-89062295D01*
X162579761Y-89062295D02*
X162732142Y-89062295D01*
X162732142Y-89062295D02*
X162808332Y-89100390D01*
X162808332Y-89100390D02*
X162846427Y-89138485D01*
X162846427Y-89138485D02*
X162884523Y-89214676D01*
X162884523Y-89214676D02*
X162884523Y-89405152D01*
X162884523Y-89405152D02*
X162846427Y-89481342D01*
X162846427Y-89481342D02*
X162808332Y-89519438D01*
X162808332Y-89519438D02*
X162732142Y-89557533D01*
X162732142Y-89557533D02*
X162579761Y-89557533D01*
X162579761Y-89557533D02*
X162503570Y-89519438D01*
X162503570Y-89519438D02*
X162465475Y-89481342D01*
X162465475Y-89481342D02*
X162427380Y-89405152D01*
X155822619Y-70824200D02*
X155708333Y-70862295D01*
X155708333Y-70862295D02*
X155517857Y-70862295D01*
X155517857Y-70862295D02*
X155441666Y-70824200D01*
X155441666Y-70824200D02*
X155403571Y-70786104D01*
X155403571Y-70786104D02*
X155365476Y-70709914D01*
X155365476Y-70709914D02*
X155365476Y-70633723D01*
X155365476Y-70633723D02*
X155403571Y-70557533D01*
X155403571Y-70557533D02*
X155441666Y-70519438D01*
X155441666Y-70519438D02*
X155517857Y-70481342D01*
X155517857Y-70481342D02*
X155670238Y-70443247D01*
X155670238Y-70443247D02*
X155746428Y-70405152D01*
X155746428Y-70405152D02*
X155784523Y-70367057D01*
X155784523Y-70367057D02*
X155822619Y-70290866D01*
X155822619Y-70290866D02*
X155822619Y-70214676D01*
X155822619Y-70214676D02*
X155784523Y-70138485D01*
X155784523Y-70138485D02*
X155746428Y-70100390D01*
X155746428Y-70100390D02*
X155670238Y-70062295D01*
X155670238Y-70062295D02*
X155479761Y-70062295D01*
X155479761Y-70062295D02*
X155365476Y-70100390D01*
X155098809Y-70062295D02*
X154908333Y-70862295D01*
X154908333Y-70862295D02*
X154755952Y-70290866D01*
X154755952Y-70290866D02*
X154603571Y-70862295D01*
X154603571Y-70862295D02*
X154413095Y-70062295D01*
X154146428Y-70138485D02*
X154108332Y-70100390D01*
X154108332Y-70100390D02*
X154032142Y-70062295D01*
X154032142Y-70062295D02*
X153841666Y-70062295D01*
X153841666Y-70062295D02*
X153765475Y-70100390D01*
X153765475Y-70100390D02*
X153727380Y-70138485D01*
X153727380Y-70138485D02*
X153689285Y-70214676D01*
X153689285Y-70214676D02*
X153689285Y-70290866D01*
X153689285Y-70290866D02*
X153727380Y-70405152D01*
X153727380Y-70405152D02*
X154184523Y-70862295D01*
X154184523Y-70862295D02*
X153689285Y-70862295D01*
X152927380Y-70862295D02*
X153384523Y-70862295D01*
X153155951Y-70862295D02*
X153155951Y-70062295D01*
X153155951Y-70062295D02*
X153232142Y-70176580D01*
X153232142Y-70176580D02*
X153308332Y-70252771D01*
X153308332Y-70252771D02*
X153384523Y-70290866D01*
X79822619Y-70824200D02*
X79708333Y-70862295D01*
X79708333Y-70862295D02*
X79517857Y-70862295D01*
X79517857Y-70862295D02*
X79441666Y-70824200D01*
X79441666Y-70824200D02*
X79403571Y-70786104D01*
X79403571Y-70786104D02*
X79365476Y-70709914D01*
X79365476Y-70709914D02*
X79365476Y-70633723D01*
X79365476Y-70633723D02*
X79403571Y-70557533D01*
X79403571Y-70557533D02*
X79441666Y-70519438D01*
X79441666Y-70519438D02*
X79517857Y-70481342D01*
X79517857Y-70481342D02*
X79670238Y-70443247D01*
X79670238Y-70443247D02*
X79746428Y-70405152D01*
X79746428Y-70405152D02*
X79784523Y-70367057D01*
X79784523Y-70367057D02*
X79822619Y-70290866D01*
X79822619Y-70290866D02*
X79822619Y-70214676D01*
X79822619Y-70214676D02*
X79784523Y-70138485D01*
X79784523Y-70138485D02*
X79746428Y-70100390D01*
X79746428Y-70100390D02*
X79670238Y-70062295D01*
X79670238Y-70062295D02*
X79479761Y-70062295D01*
X79479761Y-70062295D02*
X79365476Y-70100390D01*
X79098809Y-70062295D02*
X78908333Y-70862295D01*
X78908333Y-70862295D02*
X78755952Y-70290866D01*
X78755952Y-70290866D02*
X78603571Y-70862295D01*
X78603571Y-70862295D02*
X78413095Y-70062295D01*
X77689285Y-70862295D02*
X78146428Y-70862295D01*
X77917856Y-70862295D02*
X77917856Y-70062295D01*
X77917856Y-70062295D02*
X77994047Y-70176580D01*
X77994047Y-70176580D02*
X78070237Y-70252771D01*
X78070237Y-70252771D02*
X78146428Y-70290866D01*
X76927380Y-70862295D02*
X77384523Y-70862295D01*
X77155951Y-70862295D02*
X77155951Y-70062295D01*
X77155951Y-70062295D02*
X77232142Y-70176580D01*
X77232142Y-70176580D02*
X77308332Y-70252771D01*
X77308332Y-70252771D02*
X77384523Y-70290866D01*
X89322619Y-89824200D02*
X89208333Y-89862295D01*
X89208333Y-89862295D02*
X89017857Y-89862295D01*
X89017857Y-89862295D02*
X88941666Y-89824200D01*
X88941666Y-89824200D02*
X88903571Y-89786104D01*
X88903571Y-89786104D02*
X88865476Y-89709914D01*
X88865476Y-89709914D02*
X88865476Y-89633723D01*
X88865476Y-89633723D02*
X88903571Y-89557533D01*
X88903571Y-89557533D02*
X88941666Y-89519438D01*
X88941666Y-89519438D02*
X89017857Y-89481342D01*
X89017857Y-89481342D02*
X89170238Y-89443247D01*
X89170238Y-89443247D02*
X89246428Y-89405152D01*
X89246428Y-89405152D02*
X89284523Y-89367057D01*
X89284523Y-89367057D02*
X89322619Y-89290866D01*
X89322619Y-89290866D02*
X89322619Y-89214676D01*
X89322619Y-89214676D02*
X89284523Y-89138485D01*
X89284523Y-89138485D02*
X89246428Y-89100390D01*
X89246428Y-89100390D02*
X89170238Y-89062295D01*
X89170238Y-89062295D02*
X88979761Y-89062295D01*
X88979761Y-89062295D02*
X88865476Y-89100390D01*
X88598809Y-89062295D02*
X88408333Y-89862295D01*
X88408333Y-89862295D02*
X88255952Y-89290866D01*
X88255952Y-89290866D02*
X88103571Y-89862295D01*
X88103571Y-89862295D02*
X87913095Y-89062295D01*
X87684523Y-89062295D02*
X87189285Y-89062295D01*
X87189285Y-89062295D02*
X87455951Y-89367057D01*
X87455951Y-89367057D02*
X87341666Y-89367057D01*
X87341666Y-89367057D02*
X87265475Y-89405152D01*
X87265475Y-89405152D02*
X87227380Y-89443247D01*
X87227380Y-89443247D02*
X87189285Y-89519438D01*
X87189285Y-89519438D02*
X87189285Y-89709914D01*
X87189285Y-89709914D02*
X87227380Y-89786104D01*
X87227380Y-89786104D02*
X87265475Y-89824200D01*
X87265475Y-89824200D02*
X87341666Y-89862295D01*
X87341666Y-89862295D02*
X87570237Y-89862295D01*
X87570237Y-89862295D02*
X87646428Y-89824200D01*
X87646428Y-89824200D02*
X87684523Y-89786104D01*
X86503570Y-89328961D02*
X86503570Y-89862295D01*
X86694046Y-89024200D02*
X86884523Y-89595628D01*
X86884523Y-89595628D02*
X86389284Y-89595628D01*
X248447619Y-51824200D02*
X248333333Y-51862295D01*
X248333333Y-51862295D02*
X248142857Y-51862295D01*
X248142857Y-51862295D02*
X248066666Y-51824200D01*
X248066666Y-51824200D02*
X248028571Y-51786104D01*
X248028571Y-51786104D02*
X247990476Y-51709914D01*
X247990476Y-51709914D02*
X247990476Y-51633723D01*
X247990476Y-51633723D02*
X248028571Y-51557533D01*
X248028571Y-51557533D02*
X248066666Y-51519438D01*
X248066666Y-51519438D02*
X248142857Y-51481342D01*
X248142857Y-51481342D02*
X248295238Y-51443247D01*
X248295238Y-51443247D02*
X248371428Y-51405152D01*
X248371428Y-51405152D02*
X248409523Y-51367057D01*
X248409523Y-51367057D02*
X248447619Y-51290866D01*
X248447619Y-51290866D02*
X248447619Y-51214676D01*
X248447619Y-51214676D02*
X248409523Y-51138485D01*
X248409523Y-51138485D02*
X248371428Y-51100390D01*
X248371428Y-51100390D02*
X248295238Y-51062295D01*
X248295238Y-51062295D02*
X248104761Y-51062295D01*
X248104761Y-51062295D02*
X247990476Y-51100390D01*
X247723809Y-51062295D02*
X247533333Y-51862295D01*
X247533333Y-51862295D02*
X247380952Y-51290866D01*
X247380952Y-51290866D02*
X247228571Y-51862295D01*
X247228571Y-51862295D02*
X247038095Y-51062295D01*
X246771428Y-51138485D02*
X246733332Y-51100390D01*
X246733332Y-51100390D02*
X246657142Y-51062295D01*
X246657142Y-51062295D02*
X246466666Y-51062295D01*
X246466666Y-51062295D02*
X246390475Y-51100390D01*
X246390475Y-51100390D02*
X246352380Y-51138485D01*
X246352380Y-51138485D02*
X246314285Y-51214676D01*
X246314285Y-51214676D02*
X246314285Y-51290866D01*
X246314285Y-51290866D02*
X246352380Y-51405152D01*
X246352380Y-51405152D02*
X246809523Y-51862295D01*
X246809523Y-51862295D02*
X246314285Y-51862295D01*
X245628570Y-51328961D02*
X245628570Y-51862295D01*
X245819046Y-51024200D02*
X246009523Y-51595628D01*
X246009523Y-51595628D02*
X245514284Y-51595628D01*
X231822619Y-70824200D02*
X231708333Y-70862295D01*
X231708333Y-70862295D02*
X231517857Y-70862295D01*
X231517857Y-70862295D02*
X231441666Y-70824200D01*
X231441666Y-70824200D02*
X231403571Y-70786104D01*
X231403571Y-70786104D02*
X231365476Y-70709914D01*
X231365476Y-70709914D02*
X231365476Y-70633723D01*
X231365476Y-70633723D02*
X231403571Y-70557533D01*
X231403571Y-70557533D02*
X231441666Y-70519438D01*
X231441666Y-70519438D02*
X231517857Y-70481342D01*
X231517857Y-70481342D02*
X231670238Y-70443247D01*
X231670238Y-70443247D02*
X231746428Y-70405152D01*
X231746428Y-70405152D02*
X231784523Y-70367057D01*
X231784523Y-70367057D02*
X231822619Y-70290866D01*
X231822619Y-70290866D02*
X231822619Y-70214676D01*
X231822619Y-70214676D02*
X231784523Y-70138485D01*
X231784523Y-70138485D02*
X231746428Y-70100390D01*
X231746428Y-70100390D02*
X231670238Y-70062295D01*
X231670238Y-70062295D02*
X231479761Y-70062295D01*
X231479761Y-70062295D02*
X231365476Y-70100390D01*
X231098809Y-70062295D02*
X230908333Y-70862295D01*
X230908333Y-70862295D02*
X230755952Y-70290866D01*
X230755952Y-70290866D02*
X230603571Y-70862295D01*
X230603571Y-70862295D02*
X230413095Y-70062295D01*
X230184523Y-70062295D02*
X229689285Y-70062295D01*
X229689285Y-70062295D02*
X229955951Y-70367057D01*
X229955951Y-70367057D02*
X229841666Y-70367057D01*
X229841666Y-70367057D02*
X229765475Y-70405152D01*
X229765475Y-70405152D02*
X229727380Y-70443247D01*
X229727380Y-70443247D02*
X229689285Y-70519438D01*
X229689285Y-70519438D02*
X229689285Y-70709914D01*
X229689285Y-70709914D02*
X229727380Y-70786104D01*
X229727380Y-70786104D02*
X229765475Y-70824200D01*
X229765475Y-70824200D02*
X229841666Y-70862295D01*
X229841666Y-70862295D02*
X230070237Y-70862295D01*
X230070237Y-70862295D02*
X230146428Y-70824200D01*
X230146428Y-70824200D02*
X230184523Y-70786104D01*
X228927380Y-70862295D02*
X229384523Y-70862295D01*
X229155951Y-70862295D02*
X229155951Y-70062295D01*
X229155951Y-70062295D02*
X229232142Y-70176580D01*
X229232142Y-70176580D02*
X229308332Y-70252771D01*
X229308332Y-70252771D02*
X229384523Y-70290866D01*
X184322619Y-89824200D02*
X184208333Y-89862295D01*
X184208333Y-89862295D02*
X184017857Y-89862295D01*
X184017857Y-89862295D02*
X183941666Y-89824200D01*
X183941666Y-89824200D02*
X183903571Y-89786104D01*
X183903571Y-89786104D02*
X183865476Y-89709914D01*
X183865476Y-89709914D02*
X183865476Y-89633723D01*
X183865476Y-89633723D02*
X183903571Y-89557533D01*
X183903571Y-89557533D02*
X183941666Y-89519438D01*
X183941666Y-89519438D02*
X184017857Y-89481342D01*
X184017857Y-89481342D02*
X184170238Y-89443247D01*
X184170238Y-89443247D02*
X184246428Y-89405152D01*
X184246428Y-89405152D02*
X184284523Y-89367057D01*
X184284523Y-89367057D02*
X184322619Y-89290866D01*
X184322619Y-89290866D02*
X184322619Y-89214676D01*
X184322619Y-89214676D02*
X184284523Y-89138485D01*
X184284523Y-89138485D02*
X184246428Y-89100390D01*
X184246428Y-89100390D02*
X184170238Y-89062295D01*
X184170238Y-89062295D02*
X183979761Y-89062295D01*
X183979761Y-89062295D02*
X183865476Y-89100390D01*
X183598809Y-89062295D02*
X183408333Y-89862295D01*
X183408333Y-89862295D02*
X183255952Y-89290866D01*
X183255952Y-89290866D02*
X183103571Y-89862295D01*
X183103571Y-89862295D02*
X182913095Y-89062295D01*
X182646428Y-89138485D02*
X182608332Y-89100390D01*
X182608332Y-89100390D02*
X182532142Y-89062295D01*
X182532142Y-89062295D02*
X182341666Y-89062295D01*
X182341666Y-89062295D02*
X182265475Y-89100390D01*
X182265475Y-89100390D02*
X182227380Y-89138485D01*
X182227380Y-89138485D02*
X182189285Y-89214676D01*
X182189285Y-89214676D02*
X182189285Y-89290866D01*
X182189285Y-89290866D02*
X182227380Y-89405152D01*
X182227380Y-89405152D02*
X182684523Y-89862295D01*
X182684523Y-89862295D02*
X182189285Y-89862295D01*
X181884523Y-89138485D02*
X181846427Y-89100390D01*
X181846427Y-89100390D02*
X181770237Y-89062295D01*
X181770237Y-89062295D02*
X181579761Y-89062295D01*
X181579761Y-89062295D02*
X181503570Y-89100390D01*
X181503570Y-89100390D02*
X181465475Y-89138485D01*
X181465475Y-89138485D02*
X181427380Y-89214676D01*
X181427380Y-89214676D02*
X181427380Y-89290866D01*
X181427380Y-89290866D02*
X181465475Y-89405152D01*
X181465475Y-89405152D02*
X181922618Y-89862295D01*
X181922618Y-89862295D02*
X181427380Y-89862295D01*
X151072619Y-51824200D02*
X150958333Y-51862295D01*
X150958333Y-51862295D02*
X150767857Y-51862295D01*
X150767857Y-51862295D02*
X150691666Y-51824200D01*
X150691666Y-51824200D02*
X150653571Y-51786104D01*
X150653571Y-51786104D02*
X150615476Y-51709914D01*
X150615476Y-51709914D02*
X150615476Y-51633723D01*
X150615476Y-51633723D02*
X150653571Y-51557533D01*
X150653571Y-51557533D02*
X150691666Y-51519438D01*
X150691666Y-51519438D02*
X150767857Y-51481342D01*
X150767857Y-51481342D02*
X150920238Y-51443247D01*
X150920238Y-51443247D02*
X150996428Y-51405152D01*
X150996428Y-51405152D02*
X151034523Y-51367057D01*
X151034523Y-51367057D02*
X151072619Y-51290866D01*
X151072619Y-51290866D02*
X151072619Y-51214676D01*
X151072619Y-51214676D02*
X151034523Y-51138485D01*
X151034523Y-51138485D02*
X150996428Y-51100390D01*
X150996428Y-51100390D02*
X150920238Y-51062295D01*
X150920238Y-51062295D02*
X150729761Y-51062295D01*
X150729761Y-51062295D02*
X150615476Y-51100390D01*
X150348809Y-51062295D02*
X150158333Y-51862295D01*
X150158333Y-51862295D02*
X150005952Y-51290866D01*
X150005952Y-51290866D02*
X149853571Y-51862295D01*
X149853571Y-51862295D02*
X149663095Y-51062295D01*
X148939285Y-51862295D02*
X149396428Y-51862295D01*
X149167856Y-51862295D02*
X149167856Y-51062295D01*
X149167856Y-51062295D02*
X149244047Y-51176580D01*
X149244047Y-51176580D02*
X149320237Y-51252771D01*
X149320237Y-51252771D02*
X149396428Y-51290866D01*
X148672618Y-51062295D02*
X148177380Y-51062295D01*
X148177380Y-51062295D02*
X148444046Y-51367057D01*
X148444046Y-51367057D02*
X148329761Y-51367057D01*
X148329761Y-51367057D02*
X148253570Y-51405152D01*
X148253570Y-51405152D02*
X148215475Y-51443247D01*
X148215475Y-51443247D02*
X148177380Y-51519438D01*
X148177380Y-51519438D02*
X148177380Y-51709914D01*
X148177380Y-51709914D02*
X148215475Y-51786104D01*
X148215475Y-51786104D02*
X148253570Y-51824200D01*
X148253570Y-51824200D02*
X148329761Y-51862295D01*
X148329761Y-51862295D02*
X148558332Y-51862295D01*
X148558332Y-51862295D02*
X148634523Y-51824200D01*
X148634523Y-51824200D02*
X148672618Y-51786104D01*
X93691667Y-51824200D02*
X93577381Y-51862295D01*
X93577381Y-51862295D02*
X93386905Y-51862295D01*
X93386905Y-51862295D02*
X93310714Y-51824200D01*
X93310714Y-51824200D02*
X93272619Y-51786104D01*
X93272619Y-51786104D02*
X93234524Y-51709914D01*
X93234524Y-51709914D02*
X93234524Y-51633723D01*
X93234524Y-51633723D02*
X93272619Y-51557533D01*
X93272619Y-51557533D02*
X93310714Y-51519438D01*
X93310714Y-51519438D02*
X93386905Y-51481342D01*
X93386905Y-51481342D02*
X93539286Y-51443247D01*
X93539286Y-51443247D02*
X93615476Y-51405152D01*
X93615476Y-51405152D02*
X93653571Y-51367057D01*
X93653571Y-51367057D02*
X93691667Y-51290866D01*
X93691667Y-51290866D02*
X93691667Y-51214676D01*
X93691667Y-51214676D02*
X93653571Y-51138485D01*
X93653571Y-51138485D02*
X93615476Y-51100390D01*
X93615476Y-51100390D02*
X93539286Y-51062295D01*
X93539286Y-51062295D02*
X93348809Y-51062295D01*
X93348809Y-51062295D02*
X93234524Y-51100390D01*
X92967857Y-51062295D02*
X92777381Y-51862295D01*
X92777381Y-51862295D02*
X92625000Y-51290866D01*
X92625000Y-51290866D02*
X92472619Y-51862295D01*
X92472619Y-51862295D02*
X92282143Y-51062295D01*
X92053571Y-51062295D02*
X91558333Y-51062295D01*
X91558333Y-51062295D02*
X91824999Y-51367057D01*
X91824999Y-51367057D02*
X91710714Y-51367057D01*
X91710714Y-51367057D02*
X91634523Y-51405152D01*
X91634523Y-51405152D02*
X91596428Y-51443247D01*
X91596428Y-51443247D02*
X91558333Y-51519438D01*
X91558333Y-51519438D02*
X91558333Y-51709914D01*
X91558333Y-51709914D02*
X91596428Y-51786104D01*
X91596428Y-51786104D02*
X91634523Y-51824200D01*
X91634523Y-51824200D02*
X91710714Y-51862295D01*
X91710714Y-51862295D02*
X91939285Y-51862295D01*
X91939285Y-51862295D02*
X92015476Y-51824200D01*
X92015476Y-51824200D02*
X92053571Y-51786104D01*
X74691667Y-51824200D02*
X74577381Y-51862295D01*
X74577381Y-51862295D02*
X74386905Y-51862295D01*
X74386905Y-51862295D02*
X74310714Y-51824200D01*
X74310714Y-51824200D02*
X74272619Y-51786104D01*
X74272619Y-51786104D02*
X74234524Y-51709914D01*
X74234524Y-51709914D02*
X74234524Y-51633723D01*
X74234524Y-51633723D02*
X74272619Y-51557533D01*
X74272619Y-51557533D02*
X74310714Y-51519438D01*
X74310714Y-51519438D02*
X74386905Y-51481342D01*
X74386905Y-51481342D02*
X74539286Y-51443247D01*
X74539286Y-51443247D02*
X74615476Y-51405152D01*
X74615476Y-51405152D02*
X74653571Y-51367057D01*
X74653571Y-51367057D02*
X74691667Y-51290866D01*
X74691667Y-51290866D02*
X74691667Y-51214676D01*
X74691667Y-51214676D02*
X74653571Y-51138485D01*
X74653571Y-51138485D02*
X74615476Y-51100390D01*
X74615476Y-51100390D02*
X74539286Y-51062295D01*
X74539286Y-51062295D02*
X74348809Y-51062295D01*
X74348809Y-51062295D02*
X74234524Y-51100390D01*
X73967857Y-51062295D02*
X73777381Y-51862295D01*
X73777381Y-51862295D02*
X73625000Y-51290866D01*
X73625000Y-51290866D02*
X73472619Y-51862295D01*
X73472619Y-51862295D02*
X73282143Y-51062295D01*
X73015476Y-51138485D02*
X72977380Y-51100390D01*
X72977380Y-51100390D02*
X72901190Y-51062295D01*
X72901190Y-51062295D02*
X72710714Y-51062295D01*
X72710714Y-51062295D02*
X72634523Y-51100390D01*
X72634523Y-51100390D02*
X72596428Y-51138485D01*
X72596428Y-51138485D02*
X72558333Y-51214676D01*
X72558333Y-51214676D02*
X72558333Y-51290866D01*
X72558333Y-51290866D02*
X72596428Y-51405152D01*
X72596428Y-51405152D02*
X73053571Y-51862295D01*
X73053571Y-51862295D02*
X72558333Y-51862295D01*
X112691667Y-51824200D02*
X112577381Y-51862295D01*
X112577381Y-51862295D02*
X112386905Y-51862295D01*
X112386905Y-51862295D02*
X112310714Y-51824200D01*
X112310714Y-51824200D02*
X112272619Y-51786104D01*
X112272619Y-51786104D02*
X112234524Y-51709914D01*
X112234524Y-51709914D02*
X112234524Y-51633723D01*
X112234524Y-51633723D02*
X112272619Y-51557533D01*
X112272619Y-51557533D02*
X112310714Y-51519438D01*
X112310714Y-51519438D02*
X112386905Y-51481342D01*
X112386905Y-51481342D02*
X112539286Y-51443247D01*
X112539286Y-51443247D02*
X112615476Y-51405152D01*
X112615476Y-51405152D02*
X112653571Y-51367057D01*
X112653571Y-51367057D02*
X112691667Y-51290866D01*
X112691667Y-51290866D02*
X112691667Y-51214676D01*
X112691667Y-51214676D02*
X112653571Y-51138485D01*
X112653571Y-51138485D02*
X112615476Y-51100390D01*
X112615476Y-51100390D02*
X112539286Y-51062295D01*
X112539286Y-51062295D02*
X112348809Y-51062295D01*
X112348809Y-51062295D02*
X112234524Y-51100390D01*
X111967857Y-51062295D02*
X111777381Y-51862295D01*
X111777381Y-51862295D02*
X111625000Y-51290866D01*
X111625000Y-51290866D02*
X111472619Y-51862295D01*
X111472619Y-51862295D02*
X111282143Y-51062295D01*
X110634523Y-51328961D02*
X110634523Y-51862295D01*
X110824999Y-51024200D02*
X111015476Y-51595628D01*
X111015476Y-51595628D02*
X110520237Y-51595628D01*
X70322619Y-89824200D02*
X70208333Y-89862295D01*
X70208333Y-89862295D02*
X70017857Y-89862295D01*
X70017857Y-89862295D02*
X69941666Y-89824200D01*
X69941666Y-89824200D02*
X69903571Y-89786104D01*
X69903571Y-89786104D02*
X69865476Y-89709914D01*
X69865476Y-89709914D02*
X69865476Y-89633723D01*
X69865476Y-89633723D02*
X69903571Y-89557533D01*
X69903571Y-89557533D02*
X69941666Y-89519438D01*
X69941666Y-89519438D02*
X70017857Y-89481342D01*
X70017857Y-89481342D02*
X70170238Y-89443247D01*
X70170238Y-89443247D02*
X70246428Y-89405152D01*
X70246428Y-89405152D02*
X70284523Y-89367057D01*
X70284523Y-89367057D02*
X70322619Y-89290866D01*
X70322619Y-89290866D02*
X70322619Y-89214676D01*
X70322619Y-89214676D02*
X70284523Y-89138485D01*
X70284523Y-89138485D02*
X70246428Y-89100390D01*
X70246428Y-89100390D02*
X70170238Y-89062295D01*
X70170238Y-89062295D02*
X69979761Y-89062295D01*
X69979761Y-89062295D02*
X69865476Y-89100390D01*
X69598809Y-89062295D02*
X69408333Y-89862295D01*
X69408333Y-89862295D02*
X69255952Y-89290866D01*
X69255952Y-89290866D02*
X69103571Y-89862295D01*
X69103571Y-89862295D02*
X68913095Y-89062295D01*
X68646428Y-89138485D02*
X68608332Y-89100390D01*
X68608332Y-89100390D02*
X68532142Y-89062295D01*
X68532142Y-89062295D02*
X68341666Y-89062295D01*
X68341666Y-89062295D02*
X68265475Y-89100390D01*
X68265475Y-89100390D02*
X68227380Y-89138485D01*
X68227380Y-89138485D02*
X68189285Y-89214676D01*
X68189285Y-89214676D02*
X68189285Y-89290866D01*
X68189285Y-89290866D02*
X68227380Y-89405152D01*
X68227380Y-89405152D02*
X68684523Y-89862295D01*
X68684523Y-89862295D02*
X68189285Y-89862295D01*
X67503570Y-89062295D02*
X67655951Y-89062295D01*
X67655951Y-89062295D02*
X67732142Y-89100390D01*
X67732142Y-89100390D02*
X67770237Y-89138485D01*
X67770237Y-89138485D02*
X67846427Y-89252771D01*
X67846427Y-89252771D02*
X67884523Y-89405152D01*
X67884523Y-89405152D02*
X67884523Y-89709914D01*
X67884523Y-89709914D02*
X67846427Y-89786104D01*
X67846427Y-89786104D02*
X67808332Y-89824200D01*
X67808332Y-89824200D02*
X67732142Y-89862295D01*
X67732142Y-89862295D02*
X67579761Y-89862295D01*
X67579761Y-89862295D02*
X67503570Y-89824200D01*
X67503570Y-89824200D02*
X67465475Y-89786104D01*
X67465475Y-89786104D02*
X67427380Y-89709914D01*
X67427380Y-89709914D02*
X67427380Y-89519438D01*
X67427380Y-89519438D02*
X67465475Y-89443247D01*
X67465475Y-89443247D02*
X67503570Y-89405152D01*
X67503570Y-89405152D02*
X67579761Y-89367057D01*
X67579761Y-89367057D02*
X67732142Y-89367057D01*
X67732142Y-89367057D02*
X67808332Y-89405152D01*
X67808332Y-89405152D02*
X67846427Y-89443247D01*
X67846427Y-89443247D02*
X67884523Y-89519438D01*
X131691667Y-51824200D02*
X131577381Y-51862295D01*
X131577381Y-51862295D02*
X131386905Y-51862295D01*
X131386905Y-51862295D02*
X131310714Y-51824200D01*
X131310714Y-51824200D02*
X131272619Y-51786104D01*
X131272619Y-51786104D02*
X131234524Y-51709914D01*
X131234524Y-51709914D02*
X131234524Y-51633723D01*
X131234524Y-51633723D02*
X131272619Y-51557533D01*
X131272619Y-51557533D02*
X131310714Y-51519438D01*
X131310714Y-51519438D02*
X131386905Y-51481342D01*
X131386905Y-51481342D02*
X131539286Y-51443247D01*
X131539286Y-51443247D02*
X131615476Y-51405152D01*
X131615476Y-51405152D02*
X131653571Y-51367057D01*
X131653571Y-51367057D02*
X131691667Y-51290866D01*
X131691667Y-51290866D02*
X131691667Y-51214676D01*
X131691667Y-51214676D02*
X131653571Y-51138485D01*
X131653571Y-51138485D02*
X131615476Y-51100390D01*
X131615476Y-51100390D02*
X131539286Y-51062295D01*
X131539286Y-51062295D02*
X131348809Y-51062295D01*
X131348809Y-51062295D02*
X131234524Y-51100390D01*
X130967857Y-51062295D02*
X130777381Y-51862295D01*
X130777381Y-51862295D02*
X130625000Y-51290866D01*
X130625000Y-51290866D02*
X130472619Y-51862295D01*
X130472619Y-51862295D02*
X130282143Y-51062295D01*
X129596428Y-51062295D02*
X129977380Y-51062295D01*
X129977380Y-51062295D02*
X130015476Y-51443247D01*
X130015476Y-51443247D02*
X129977380Y-51405152D01*
X129977380Y-51405152D02*
X129901190Y-51367057D01*
X129901190Y-51367057D02*
X129710714Y-51367057D01*
X129710714Y-51367057D02*
X129634523Y-51405152D01*
X129634523Y-51405152D02*
X129596428Y-51443247D01*
X129596428Y-51443247D02*
X129558333Y-51519438D01*
X129558333Y-51519438D02*
X129558333Y-51709914D01*
X129558333Y-51709914D02*
X129596428Y-51786104D01*
X129596428Y-51786104D02*
X129634523Y-51824200D01*
X129634523Y-51824200D02*
X129710714Y-51862295D01*
X129710714Y-51862295D02*
X129901190Y-51862295D01*
X129901190Y-51862295D02*
X129977380Y-51824200D01*
X129977380Y-51824200D02*
X130015476Y-51786104D01*
X56072619Y-51824200D02*
X55958333Y-51862295D01*
X55958333Y-51862295D02*
X55767857Y-51862295D01*
X55767857Y-51862295D02*
X55691666Y-51824200D01*
X55691666Y-51824200D02*
X55653571Y-51786104D01*
X55653571Y-51786104D02*
X55615476Y-51709914D01*
X55615476Y-51709914D02*
X55615476Y-51633723D01*
X55615476Y-51633723D02*
X55653571Y-51557533D01*
X55653571Y-51557533D02*
X55691666Y-51519438D01*
X55691666Y-51519438D02*
X55767857Y-51481342D01*
X55767857Y-51481342D02*
X55920238Y-51443247D01*
X55920238Y-51443247D02*
X55996428Y-51405152D01*
X55996428Y-51405152D02*
X56034523Y-51367057D01*
X56034523Y-51367057D02*
X56072619Y-51290866D01*
X56072619Y-51290866D02*
X56072619Y-51214676D01*
X56072619Y-51214676D02*
X56034523Y-51138485D01*
X56034523Y-51138485D02*
X55996428Y-51100390D01*
X55996428Y-51100390D02*
X55920238Y-51062295D01*
X55920238Y-51062295D02*
X55729761Y-51062295D01*
X55729761Y-51062295D02*
X55615476Y-51100390D01*
X55348809Y-51062295D02*
X55158333Y-51862295D01*
X55158333Y-51862295D02*
X55005952Y-51290866D01*
X55005952Y-51290866D02*
X54853571Y-51862295D01*
X54853571Y-51862295D02*
X54663095Y-51062295D01*
X53939285Y-51862295D02*
X54396428Y-51862295D01*
X54167856Y-51862295D02*
X54167856Y-51062295D01*
X54167856Y-51062295D02*
X54244047Y-51176580D01*
X54244047Y-51176580D02*
X54320237Y-51252771D01*
X54320237Y-51252771D02*
X54396428Y-51290866D01*
X53444046Y-51062295D02*
X53367856Y-51062295D01*
X53367856Y-51062295D02*
X53291665Y-51100390D01*
X53291665Y-51100390D02*
X53253570Y-51138485D01*
X53253570Y-51138485D02*
X53215475Y-51214676D01*
X53215475Y-51214676D02*
X53177380Y-51367057D01*
X53177380Y-51367057D02*
X53177380Y-51557533D01*
X53177380Y-51557533D02*
X53215475Y-51709914D01*
X53215475Y-51709914D02*
X53253570Y-51786104D01*
X53253570Y-51786104D02*
X53291665Y-51824200D01*
X53291665Y-51824200D02*
X53367856Y-51862295D01*
X53367856Y-51862295D02*
X53444046Y-51862295D01*
X53444046Y-51862295D02*
X53520237Y-51824200D01*
X53520237Y-51824200D02*
X53558332Y-51786104D01*
X53558332Y-51786104D02*
X53596427Y-51709914D01*
X53596427Y-51709914D02*
X53634523Y-51557533D01*
X53634523Y-51557533D02*
X53634523Y-51367057D01*
X53634523Y-51367057D02*
X53596427Y-51214676D01*
X53596427Y-51214676D02*
X53558332Y-51138485D01*
X53558332Y-51138485D02*
X53520237Y-51100390D01*
X53520237Y-51100390D02*
X53444046Y-51062295D01*
X207691667Y-51824200D02*
X207577381Y-51862295D01*
X207577381Y-51862295D02*
X207386905Y-51862295D01*
X207386905Y-51862295D02*
X207310714Y-51824200D01*
X207310714Y-51824200D02*
X207272619Y-51786104D01*
X207272619Y-51786104D02*
X207234524Y-51709914D01*
X207234524Y-51709914D02*
X207234524Y-51633723D01*
X207234524Y-51633723D02*
X207272619Y-51557533D01*
X207272619Y-51557533D02*
X207310714Y-51519438D01*
X207310714Y-51519438D02*
X207386905Y-51481342D01*
X207386905Y-51481342D02*
X207539286Y-51443247D01*
X207539286Y-51443247D02*
X207615476Y-51405152D01*
X207615476Y-51405152D02*
X207653571Y-51367057D01*
X207653571Y-51367057D02*
X207691667Y-51290866D01*
X207691667Y-51290866D02*
X207691667Y-51214676D01*
X207691667Y-51214676D02*
X207653571Y-51138485D01*
X207653571Y-51138485D02*
X207615476Y-51100390D01*
X207615476Y-51100390D02*
X207539286Y-51062295D01*
X207539286Y-51062295D02*
X207348809Y-51062295D01*
X207348809Y-51062295D02*
X207234524Y-51100390D01*
X206967857Y-51062295D02*
X206777381Y-51862295D01*
X206777381Y-51862295D02*
X206625000Y-51290866D01*
X206625000Y-51290866D02*
X206472619Y-51862295D01*
X206472619Y-51862295D02*
X206282143Y-51062295D01*
X205863095Y-51405152D02*
X205939285Y-51367057D01*
X205939285Y-51367057D02*
X205977380Y-51328961D01*
X205977380Y-51328961D02*
X206015476Y-51252771D01*
X206015476Y-51252771D02*
X206015476Y-51214676D01*
X206015476Y-51214676D02*
X205977380Y-51138485D01*
X205977380Y-51138485D02*
X205939285Y-51100390D01*
X205939285Y-51100390D02*
X205863095Y-51062295D01*
X205863095Y-51062295D02*
X205710714Y-51062295D01*
X205710714Y-51062295D02*
X205634523Y-51100390D01*
X205634523Y-51100390D02*
X205596428Y-51138485D01*
X205596428Y-51138485D02*
X205558333Y-51214676D01*
X205558333Y-51214676D02*
X205558333Y-51252771D01*
X205558333Y-51252771D02*
X205596428Y-51328961D01*
X205596428Y-51328961D02*
X205634523Y-51367057D01*
X205634523Y-51367057D02*
X205710714Y-51405152D01*
X205710714Y-51405152D02*
X205863095Y-51405152D01*
X205863095Y-51405152D02*
X205939285Y-51443247D01*
X205939285Y-51443247D02*
X205977380Y-51481342D01*
X205977380Y-51481342D02*
X206015476Y-51557533D01*
X206015476Y-51557533D02*
X206015476Y-51709914D01*
X206015476Y-51709914D02*
X205977380Y-51786104D01*
X205977380Y-51786104D02*
X205939285Y-51824200D01*
X205939285Y-51824200D02*
X205863095Y-51862295D01*
X205863095Y-51862295D02*
X205710714Y-51862295D01*
X205710714Y-51862295D02*
X205634523Y-51824200D01*
X205634523Y-51824200D02*
X205596428Y-51786104D01*
X205596428Y-51786104D02*
X205558333Y-51709914D01*
X205558333Y-51709914D02*
X205558333Y-51557533D01*
X205558333Y-51557533D02*
X205596428Y-51481342D01*
X205596428Y-51481342D02*
X205634523Y-51443247D01*
X205634523Y-51443247D02*
X205710714Y-51405152D01*
X60822619Y-70824200D02*
X60708333Y-70862295D01*
X60708333Y-70862295D02*
X60517857Y-70862295D01*
X60517857Y-70862295D02*
X60441666Y-70824200D01*
X60441666Y-70824200D02*
X60403571Y-70786104D01*
X60403571Y-70786104D02*
X60365476Y-70709914D01*
X60365476Y-70709914D02*
X60365476Y-70633723D01*
X60365476Y-70633723D02*
X60403571Y-70557533D01*
X60403571Y-70557533D02*
X60441666Y-70519438D01*
X60441666Y-70519438D02*
X60517857Y-70481342D01*
X60517857Y-70481342D02*
X60670238Y-70443247D01*
X60670238Y-70443247D02*
X60746428Y-70405152D01*
X60746428Y-70405152D02*
X60784523Y-70367057D01*
X60784523Y-70367057D02*
X60822619Y-70290866D01*
X60822619Y-70290866D02*
X60822619Y-70214676D01*
X60822619Y-70214676D02*
X60784523Y-70138485D01*
X60784523Y-70138485D02*
X60746428Y-70100390D01*
X60746428Y-70100390D02*
X60670238Y-70062295D01*
X60670238Y-70062295D02*
X60479761Y-70062295D01*
X60479761Y-70062295D02*
X60365476Y-70100390D01*
X60098809Y-70062295D02*
X59908333Y-70862295D01*
X59908333Y-70862295D02*
X59755952Y-70290866D01*
X59755952Y-70290866D02*
X59603571Y-70862295D01*
X59603571Y-70862295D02*
X59413095Y-70062295D01*
X58689285Y-70862295D02*
X59146428Y-70862295D01*
X58917856Y-70862295D02*
X58917856Y-70062295D01*
X58917856Y-70062295D02*
X58994047Y-70176580D01*
X58994047Y-70176580D02*
X59070237Y-70252771D01*
X59070237Y-70252771D02*
X59146428Y-70290866D01*
X58232142Y-70405152D02*
X58308332Y-70367057D01*
X58308332Y-70367057D02*
X58346427Y-70328961D01*
X58346427Y-70328961D02*
X58384523Y-70252771D01*
X58384523Y-70252771D02*
X58384523Y-70214676D01*
X58384523Y-70214676D02*
X58346427Y-70138485D01*
X58346427Y-70138485D02*
X58308332Y-70100390D01*
X58308332Y-70100390D02*
X58232142Y-70062295D01*
X58232142Y-70062295D02*
X58079761Y-70062295D01*
X58079761Y-70062295D02*
X58003570Y-70100390D01*
X58003570Y-70100390D02*
X57965475Y-70138485D01*
X57965475Y-70138485D02*
X57927380Y-70214676D01*
X57927380Y-70214676D02*
X57927380Y-70252771D01*
X57927380Y-70252771D02*
X57965475Y-70328961D01*
X57965475Y-70328961D02*
X58003570Y-70367057D01*
X58003570Y-70367057D02*
X58079761Y-70405152D01*
X58079761Y-70405152D02*
X58232142Y-70405152D01*
X58232142Y-70405152D02*
X58308332Y-70443247D01*
X58308332Y-70443247D02*
X58346427Y-70481342D01*
X58346427Y-70481342D02*
X58384523Y-70557533D01*
X58384523Y-70557533D02*
X58384523Y-70709914D01*
X58384523Y-70709914D02*
X58346427Y-70786104D01*
X58346427Y-70786104D02*
X58308332Y-70824200D01*
X58308332Y-70824200D02*
X58232142Y-70862295D01*
X58232142Y-70862295D02*
X58079761Y-70862295D01*
X58079761Y-70862295D02*
X58003570Y-70824200D01*
X58003570Y-70824200D02*
X57965475Y-70786104D01*
X57965475Y-70786104D02*
X57927380Y-70709914D01*
X57927380Y-70709914D02*
X57927380Y-70557533D01*
X57927380Y-70557533D02*
X57965475Y-70481342D01*
X57965475Y-70481342D02*
X58003570Y-70443247D01*
X58003570Y-70443247D02*
X58079761Y-70405152D01*
X227072619Y-51824200D02*
X226958333Y-51862295D01*
X226958333Y-51862295D02*
X226767857Y-51862295D01*
X226767857Y-51862295D02*
X226691666Y-51824200D01*
X226691666Y-51824200D02*
X226653571Y-51786104D01*
X226653571Y-51786104D02*
X226615476Y-51709914D01*
X226615476Y-51709914D02*
X226615476Y-51633723D01*
X226615476Y-51633723D02*
X226653571Y-51557533D01*
X226653571Y-51557533D02*
X226691666Y-51519438D01*
X226691666Y-51519438D02*
X226767857Y-51481342D01*
X226767857Y-51481342D02*
X226920238Y-51443247D01*
X226920238Y-51443247D02*
X226996428Y-51405152D01*
X226996428Y-51405152D02*
X227034523Y-51367057D01*
X227034523Y-51367057D02*
X227072619Y-51290866D01*
X227072619Y-51290866D02*
X227072619Y-51214676D01*
X227072619Y-51214676D02*
X227034523Y-51138485D01*
X227034523Y-51138485D02*
X226996428Y-51100390D01*
X226996428Y-51100390D02*
X226920238Y-51062295D01*
X226920238Y-51062295D02*
X226729761Y-51062295D01*
X226729761Y-51062295D02*
X226615476Y-51100390D01*
X226348809Y-51062295D02*
X226158333Y-51862295D01*
X226158333Y-51862295D02*
X226005952Y-51290866D01*
X226005952Y-51290866D02*
X225853571Y-51862295D01*
X225853571Y-51862295D02*
X225663095Y-51062295D01*
X224939285Y-51862295D02*
X225396428Y-51862295D01*
X225167856Y-51862295D02*
X225167856Y-51062295D01*
X225167856Y-51062295D02*
X225244047Y-51176580D01*
X225244047Y-51176580D02*
X225320237Y-51252771D01*
X225320237Y-51252771D02*
X225396428Y-51290866D01*
X224253570Y-51062295D02*
X224405951Y-51062295D01*
X224405951Y-51062295D02*
X224482142Y-51100390D01*
X224482142Y-51100390D02*
X224520237Y-51138485D01*
X224520237Y-51138485D02*
X224596427Y-51252771D01*
X224596427Y-51252771D02*
X224634523Y-51405152D01*
X224634523Y-51405152D02*
X224634523Y-51709914D01*
X224634523Y-51709914D02*
X224596427Y-51786104D01*
X224596427Y-51786104D02*
X224558332Y-51824200D01*
X224558332Y-51824200D02*
X224482142Y-51862295D01*
X224482142Y-51862295D02*
X224329761Y-51862295D01*
X224329761Y-51862295D02*
X224253570Y-51824200D01*
X224253570Y-51824200D02*
X224215475Y-51786104D01*
X224215475Y-51786104D02*
X224177380Y-51709914D01*
X224177380Y-51709914D02*
X224177380Y-51519438D01*
X224177380Y-51519438D02*
X224215475Y-51443247D01*
X224215475Y-51443247D02*
X224253570Y-51405152D01*
X224253570Y-51405152D02*
X224329761Y-51367057D01*
X224329761Y-51367057D02*
X224482142Y-51367057D01*
X224482142Y-51367057D02*
X224558332Y-51405152D01*
X224558332Y-51405152D02*
X224596427Y-51443247D01*
X224596427Y-51443247D02*
X224634523Y-51519438D01*
X108322619Y-89824200D02*
X108208333Y-89862295D01*
X108208333Y-89862295D02*
X108017857Y-89862295D01*
X108017857Y-89862295D02*
X107941666Y-89824200D01*
X107941666Y-89824200D02*
X107903571Y-89786104D01*
X107903571Y-89786104D02*
X107865476Y-89709914D01*
X107865476Y-89709914D02*
X107865476Y-89633723D01*
X107865476Y-89633723D02*
X107903571Y-89557533D01*
X107903571Y-89557533D02*
X107941666Y-89519438D01*
X107941666Y-89519438D02*
X108017857Y-89481342D01*
X108017857Y-89481342D02*
X108170238Y-89443247D01*
X108170238Y-89443247D02*
X108246428Y-89405152D01*
X108246428Y-89405152D02*
X108284523Y-89367057D01*
X108284523Y-89367057D02*
X108322619Y-89290866D01*
X108322619Y-89290866D02*
X108322619Y-89214676D01*
X108322619Y-89214676D02*
X108284523Y-89138485D01*
X108284523Y-89138485D02*
X108246428Y-89100390D01*
X108246428Y-89100390D02*
X108170238Y-89062295D01*
X108170238Y-89062295D02*
X107979761Y-89062295D01*
X107979761Y-89062295D02*
X107865476Y-89100390D01*
X107598809Y-89062295D02*
X107408333Y-89862295D01*
X107408333Y-89862295D02*
X107255952Y-89290866D01*
X107255952Y-89290866D02*
X107103571Y-89862295D01*
X107103571Y-89862295D02*
X106913095Y-89062295D01*
X106684523Y-89062295D02*
X106189285Y-89062295D01*
X106189285Y-89062295D02*
X106455951Y-89367057D01*
X106455951Y-89367057D02*
X106341666Y-89367057D01*
X106341666Y-89367057D02*
X106265475Y-89405152D01*
X106265475Y-89405152D02*
X106227380Y-89443247D01*
X106227380Y-89443247D02*
X106189285Y-89519438D01*
X106189285Y-89519438D02*
X106189285Y-89709914D01*
X106189285Y-89709914D02*
X106227380Y-89786104D01*
X106227380Y-89786104D02*
X106265475Y-89824200D01*
X106265475Y-89824200D02*
X106341666Y-89862295D01*
X106341666Y-89862295D02*
X106570237Y-89862295D01*
X106570237Y-89862295D02*
X106646428Y-89824200D01*
X106646428Y-89824200D02*
X106684523Y-89786104D01*
X105465475Y-89062295D02*
X105846427Y-89062295D01*
X105846427Y-89062295D02*
X105884523Y-89443247D01*
X105884523Y-89443247D02*
X105846427Y-89405152D01*
X105846427Y-89405152D02*
X105770237Y-89367057D01*
X105770237Y-89367057D02*
X105579761Y-89367057D01*
X105579761Y-89367057D02*
X105503570Y-89405152D01*
X105503570Y-89405152D02*
X105465475Y-89443247D01*
X105465475Y-89443247D02*
X105427380Y-89519438D01*
X105427380Y-89519438D02*
X105427380Y-89709914D01*
X105427380Y-89709914D02*
X105465475Y-89786104D01*
X105465475Y-89786104D02*
X105503570Y-89824200D01*
X105503570Y-89824200D02*
X105579761Y-89862295D01*
X105579761Y-89862295D02*
X105770237Y-89862295D01*
X105770237Y-89862295D02*
X105846427Y-89824200D01*
X105846427Y-89824200D02*
X105884523Y-89786104D01*
X212822619Y-108824200D02*
X212708333Y-108862295D01*
X212708333Y-108862295D02*
X212517857Y-108862295D01*
X212517857Y-108862295D02*
X212441666Y-108824200D01*
X212441666Y-108824200D02*
X212403571Y-108786104D01*
X212403571Y-108786104D02*
X212365476Y-108709914D01*
X212365476Y-108709914D02*
X212365476Y-108633723D01*
X212365476Y-108633723D02*
X212403571Y-108557533D01*
X212403571Y-108557533D02*
X212441666Y-108519438D01*
X212441666Y-108519438D02*
X212517857Y-108481342D01*
X212517857Y-108481342D02*
X212670238Y-108443247D01*
X212670238Y-108443247D02*
X212746428Y-108405152D01*
X212746428Y-108405152D02*
X212784523Y-108367057D01*
X212784523Y-108367057D02*
X212822619Y-108290866D01*
X212822619Y-108290866D02*
X212822619Y-108214676D01*
X212822619Y-108214676D02*
X212784523Y-108138485D01*
X212784523Y-108138485D02*
X212746428Y-108100390D01*
X212746428Y-108100390D02*
X212670238Y-108062295D01*
X212670238Y-108062295D02*
X212479761Y-108062295D01*
X212479761Y-108062295D02*
X212365476Y-108100390D01*
X212098809Y-108062295D02*
X211908333Y-108862295D01*
X211908333Y-108862295D02*
X211755952Y-108290866D01*
X211755952Y-108290866D02*
X211603571Y-108862295D01*
X211603571Y-108862295D02*
X211413095Y-108062295D01*
X211184523Y-108062295D02*
X210689285Y-108062295D01*
X210689285Y-108062295D02*
X210955951Y-108367057D01*
X210955951Y-108367057D02*
X210841666Y-108367057D01*
X210841666Y-108367057D02*
X210765475Y-108405152D01*
X210765475Y-108405152D02*
X210727380Y-108443247D01*
X210727380Y-108443247D02*
X210689285Y-108519438D01*
X210689285Y-108519438D02*
X210689285Y-108709914D01*
X210689285Y-108709914D02*
X210727380Y-108786104D01*
X210727380Y-108786104D02*
X210765475Y-108824200D01*
X210765475Y-108824200D02*
X210841666Y-108862295D01*
X210841666Y-108862295D02*
X211070237Y-108862295D01*
X211070237Y-108862295D02*
X211146428Y-108824200D01*
X211146428Y-108824200D02*
X211184523Y-108786104D01*
X210232142Y-108405152D02*
X210308332Y-108367057D01*
X210308332Y-108367057D02*
X210346427Y-108328961D01*
X210346427Y-108328961D02*
X210384523Y-108252771D01*
X210384523Y-108252771D02*
X210384523Y-108214676D01*
X210384523Y-108214676D02*
X210346427Y-108138485D01*
X210346427Y-108138485D02*
X210308332Y-108100390D01*
X210308332Y-108100390D02*
X210232142Y-108062295D01*
X210232142Y-108062295D02*
X210079761Y-108062295D01*
X210079761Y-108062295D02*
X210003570Y-108100390D01*
X210003570Y-108100390D02*
X209965475Y-108138485D01*
X209965475Y-108138485D02*
X209927380Y-108214676D01*
X209927380Y-108214676D02*
X209927380Y-108252771D01*
X209927380Y-108252771D02*
X209965475Y-108328961D01*
X209965475Y-108328961D02*
X210003570Y-108367057D01*
X210003570Y-108367057D02*
X210079761Y-108405152D01*
X210079761Y-108405152D02*
X210232142Y-108405152D01*
X210232142Y-108405152D02*
X210308332Y-108443247D01*
X210308332Y-108443247D02*
X210346427Y-108481342D01*
X210346427Y-108481342D02*
X210384523Y-108557533D01*
X210384523Y-108557533D02*
X210384523Y-108709914D01*
X210384523Y-108709914D02*
X210346427Y-108786104D01*
X210346427Y-108786104D02*
X210308332Y-108824200D01*
X210308332Y-108824200D02*
X210232142Y-108862295D01*
X210232142Y-108862295D02*
X210079761Y-108862295D01*
X210079761Y-108862295D02*
X210003570Y-108824200D01*
X210003570Y-108824200D02*
X209965475Y-108786104D01*
X209965475Y-108786104D02*
X209927380Y-108709914D01*
X209927380Y-108709914D02*
X209927380Y-108557533D01*
X209927380Y-108557533D02*
X209965475Y-108481342D01*
X209965475Y-108481342D02*
X210003570Y-108443247D01*
X210003570Y-108443247D02*
X210079761Y-108405152D01*
X208072619Y-89824200D02*
X207958333Y-89862295D01*
X207958333Y-89862295D02*
X207767857Y-89862295D01*
X207767857Y-89862295D02*
X207691666Y-89824200D01*
X207691666Y-89824200D02*
X207653571Y-89786104D01*
X207653571Y-89786104D02*
X207615476Y-89709914D01*
X207615476Y-89709914D02*
X207615476Y-89633723D01*
X207615476Y-89633723D02*
X207653571Y-89557533D01*
X207653571Y-89557533D02*
X207691666Y-89519438D01*
X207691666Y-89519438D02*
X207767857Y-89481342D01*
X207767857Y-89481342D02*
X207920238Y-89443247D01*
X207920238Y-89443247D02*
X207996428Y-89405152D01*
X207996428Y-89405152D02*
X208034523Y-89367057D01*
X208034523Y-89367057D02*
X208072619Y-89290866D01*
X208072619Y-89290866D02*
X208072619Y-89214676D01*
X208072619Y-89214676D02*
X208034523Y-89138485D01*
X208034523Y-89138485D02*
X207996428Y-89100390D01*
X207996428Y-89100390D02*
X207920238Y-89062295D01*
X207920238Y-89062295D02*
X207729761Y-89062295D01*
X207729761Y-89062295D02*
X207615476Y-89100390D01*
X207348809Y-89062295D02*
X207158333Y-89862295D01*
X207158333Y-89862295D02*
X207005952Y-89290866D01*
X207005952Y-89290866D02*
X206853571Y-89862295D01*
X206853571Y-89862295D02*
X206663095Y-89062295D01*
X206434523Y-89062295D02*
X205939285Y-89062295D01*
X205939285Y-89062295D02*
X206205951Y-89367057D01*
X206205951Y-89367057D02*
X206091666Y-89367057D01*
X206091666Y-89367057D02*
X206015475Y-89405152D01*
X206015475Y-89405152D02*
X205977380Y-89443247D01*
X205977380Y-89443247D02*
X205939285Y-89519438D01*
X205939285Y-89519438D02*
X205939285Y-89709914D01*
X205939285Y-89709914D02*
X205977380Y-89786104D01*
X205977380Y-89786104D02*
X206015475Y-89824200D01*
X206015475Y-89824200D02*
X206091666Y-89862295D01*
X206091666Y-89862295D02*
X206320237Y-89862295D01*
X206320237Y-89862295D02*
X206396428Y-89824200D01*
X206396428Y-89824200D02*
X206434523Y-89786104D01*
X205444046Y-89062295D02*
X205367856Y-89062295D01*
X205367856Y-89062295D02*
X205291665Y-89100390D01*
X205291665Y-89100390D02*
X205253570Y-89138485D01*
X205253570Y-89138485D02*
X205215475Y-89214676D01*
X205215475Y-89214676D02*
X205177380Y-89367057D01*
X205177380Y-89367057D02*
X205177380Y-89557533D01*
X205177380Y-89557533D02*
X205215475Y-89709914D01*
X205215475Y-89709914D02*
X205253570Y-89786104D01*
X205253570Y-89786104D02*
X205291665Y-89824200D01*
X205291665Y-89824200D02*
X205367856Y-89862295D01*
X205367856Y-89862295D02*
X205444046Y-89862295D01*
X205444046Y-89862295D02*
X205520237Y-89824200D01*
X205520237Y-89824200D02*
X205558332Y-89786104D01*
X205558332Y-89786104D02*
X205596427Y-89709914D01*
X205596427Y-89709914D02*
X205634523Y-89557533D01*
X205634523Y-89557533D02*
X205634523Y-89367057D01*
X205634523Y-89367057D02*
X205596427Y-89214676D01*
X205596427Y-89214676D02*
X205558332Y-89138485D01*
X205558332Y-89138485D02*
X205520237Y-89100390D01*
X205520237Y-89100390D02*
X205444046Y-89062295D01*
X250822619Y-108824200D02*
X250708333Y-108862295D01*
X250708333Y-108862295D02*
X250517857Y-108862295D01*
X250517857Y-108862295D02*
X250441666Y-108824200D01*
X250441666Y-108824200D02*
X250403571Y-108786104D01*
X250403571Y-108786104D02*
X250365476Y-108709914D01*
X250365476Y-108709914D02*
X250365476Y-108633723D01*
X250365476Y-108633723D02*
X250403571Y-108557533D01*
X250403571Y-108557533D02*
X250441666Y-108519438D01*
X250441666Y-108519438D02*
X250517857Y-108481342D01*
X250517857Y-108481342D02*
X250670238Y-108443247D01*
X250670238Y-108443247D02*
X250746428Y-108405152D01*
X250746428Y-108405152D02*
X250784523Y-108367057D01*
X250784523Y-108367057D02*
X250822619Y-108290866D01*
X250822619Y-108290866D02*
X250822619Y-108214676D01*
X250822619Y-108214676D02*
X250784523Y-108138485D01*
X250784523Y-108138485D02*
X250746428Y-108100390D01*
X250746428Y-108100390D02*
X250670238Y-108062295D01*
X250670238Y-108062295D02*
X250479761Y-108062295D01*
X250479761Y-108062295D02*
X250365476Y-108100390D01*
X250098809Y-108062295D02*
X249908333Y-108862295D01*
X249908333Y-108862295D02*
X249755952Y-108290866D01*
X249755952Y-108290866D02*
X249603571Y-108862295D01*
X249603571Y-108862295D02*
X249413095Y-108062295D01*
X248765475Y-108328961D02*
X248765475Y-108862295D01*
X248955951Y-108024200D02*
X249146428Y-108595628D01*
X249146428Y-108595628D02*
X248651189Y-108595628D01*
X248194046Y-108062295D02*
X248117856Y-108062295D01*
X248117856Y-108062295D02*
X248041665Y-108100390D01*
X248041665Y-108100390D02*
X248003570Y-108138485D01*
X248003570Y-108138485D02*
X247965475Y-108214676D01*
X247965475Y-108214676D02*
X247927380Y-108367057D01*
X247927380Y-108367057D02*
X247927380Y-108557533D01*
X247927380Y-108557533D02*
X247965475Y-108709914D01*
X247965475Y-108709914D02*
X248003570Y-108786104D01*
X248003570Y-108786104D02*
X248041665Y-108824200D01*
X248041665Y-108824200D02*
X248117856Y-108862295D01*
X248117856Y-108862295D02*
X248194046Y-108862295D01*
X248194046Y-108862295D02*
X248270237Y-108824200D01*
X248270237Y-108824200D02*
X248308332Y-108786104D01*
X248308332Y-108786104D02*
X248346427Y-108709914D01*
X248346427Y-108709914D02*
X248384523Y-108557533D01*
X248384523Y-108557533D02*
X248384523Y-108367057D01*
X248384523Y-108367057D02*
X248346427Y-108214676D01*
X248346427Y-108214676D02*
X248308332Y-108138485D01*
X248308332Y-108138485D02*
X248270237Y-108100390D01*
X248270237Y-108100390D02*
X248194046Y-108062295D01*
X143816369Y-108824200D02*
X143702083Y-108862295D01*
X143702083Y-108862295D02*
X143511607Y-108862295D01*
X143511607Y-108862295D02*
X143435416Y-108824200D01*
X143435416Y-108824200D02*
X143397321Y-108786104D01*
X143397321Y-108786104D02*
X143359226Y-108709914D01*
X143359226Y-108709914D02*
X143359226Y-108633723D01*
X143359226Y-108633723D02*
X143397321Y-108557533D01*
X143397321Y-108557533D02*
X143435416Y-108519438D01*
X143435416Y-108519438D02*
X143511607Y-108481342D01*
X143511607Y-108481342D02*
X143663988Y-108443247D01*
X143663988Y-108443247D02*
X143740178Y-108405152D01*
X143740178Y-108405152D02*
X143778273Y-108367057D01*
X143778273Y-108367057D02*
X143816369Y-108290866D01*
X143816369Y-108290866D02*
X143816369Y-108214676D01*
X143816369Y-108214676D02*
X143778273Y-108138485D01*
X143778273Y-108138485D02*
X143740178Y-108100390D01*
X143740178Y-108100390D02*
X143663988Y-108062295D01*
X143663988Y-108062295D02*
X143473511Y-108062295D01*
X143473511Y-108062295D02*
X143359226Y-108100390D01*
X143092559Y-108062295D02*
X142902083Y-108862295D01*
X142902083Y-108862295D02*
X142749702Y-108290866D01*
X142749702Y-108290866D02*
X142597321Y-108862295D01*
X142597321Y-108862295D02*
X142406845Y-108062295D01*
X142178273Y-108062295D02*
X141683035Y-108062295D01*
X141683035Y-108062295D02*
X141949701Y-108367057D01*
X141949701Y-108367057D02*
X141835416Y-108367057D01*
X141835416Y-108367057D02*
X141759225Y-108405152D01*
X141759225Y-108405152D02*
X141721130Y-108443247D01*
X141721130Y-108443247D02*
X141683035Y-108519438D01*
X141683035Y-108519438D02*
X141683035Y-108709914D01*
X141683035Y-108709914D02*
X141721130Y-108786104D01*
X141721130Y-108786104D02*
X141759225Y-108824200D01*
X141759225Y-108824200D02*
X141835416Y-108862295D01*
X141835416Y-108862295D02*
X142063987Y-108862295D01*
X142063987Y-108862295D02*
X142140178Y-108824200D01*
X142140178Y-108824200D02*
X142178273Y-108786104D01*
X140997320Y-108062295D02*
X141149701Y-108062295D01*
X141149701Y-108062295D02*
X141225892Y-108100390D01*
X141225892Y-108100390D02*
X141263987Y-108138485D01*
X141263987Y-108138485D02*
X141340177Y-108252771D01*
X141340177Y-108252771D02*
X141378273Y-108405152D01*
X141378273Y-108405152D02*
X141378273Y-108709914D01*
X141378273Y-108709914D02*
X141340177Y-108786104D01*
X141340177Y-108786104D02*
X141302082Y-108824200D01*
X141302082Y-108824200D02*
X141225892Y-108862295D01*
X141225892Y-108862295D02*
X141073511Y-108862295D01*
X141073511Y-108862295D02*
X140997320Y-108824200D01*
X140997320Y-108824200D02*
X140959225Y-108786104D01*
X140959225Y-108786104D02*
X140921130Y-108709914D01*
X140921130Y-108709914D02*
X140921130Y-108519438D01*
X140921130Y-108519438D02*
X140959225Y-108443247D01*
X140959225Y-108443247D02*
X140997320Y-108405152D01*
X140997320Y-108405152D02*
X141073511Y-108367057D01*
X141073511Y-108367057D02*
X141225892Y-108367057D01*
X141225892Y-108367057D02*
X141302082Y-108405152D01*
X141302082Y-108405152D02*
X141340177Y-108443247D01*
X141340177Y-108443247D02*
X141378273Y-108519438D01*
X169691667Y-51824200D02*
X169577381Y-51862295D01*
X169577381Y-51862295D02*
X169386905Y-51862295D01*
X169386905Y-51862295D02*
X169310714Y-51824200D01*
X169310714Y-51824200D02*
X169272619Y-51786104D01*
X169272619Y-51786104D02*
X169234524Y-51709914D01*
X169234524Y-51709914D02*
X169234524Y-51633723D01*
X169234524Y-51633723D02*
X169272619Y-51557533D01*
X169272619Y-51557533D02*
X169310714Y-51519438D01*
X169310714Y-51519438D02*
X169386905Y-51481342D01*
X169386905Y-51481342D02*
X169539286Y-51443247D01*
X169539286Y-51443247D02*
X169615476Y-51405152D01*
X169615476Y-51405152D02*
X169653571Y-51367057D01*
X169653571Y-51367057D02*
X169691667Y-51290866D01*
X169691667Y-51290866D02*
X169691667Y-51214676D01*
X169691667Y-51214676D02*
X169653571Y-51138485D01*
X169653571Y-51138485D02*
X169615476Y-51100390D01*
X169615476Y-51100390D02*
X169539286Y-51062295D01*
X169539286Y-51062295D02*
X169348809Y-51062295D01*
X169348809Y-51062295D02*
X169234524Y-51100390D01*
X168967857Y-51062295D02*
X168777381Y-51862295D01*
X168777381Y-51862295D02*
X168625000Y-51290866D01*
X168625000Y-51290866D02*
X168472619Y-51862295D01*
X168472619Y-51862295D02*
X168282143Y-51062295D01*
X167634523Y-51062295D02*
X167786904Y-51062295D01*
X167786904Y-51062295D02*
X167863095Y-51100390D01*
X167863095Y-51100390D02*
X167901190Y-51138485D01*
X167901190Y-51138485D02*
X167977380Y-51252771D01*
X167977380Y-51252771D02*
X168015476Y-51405152D01*
X168015476Y-51405152D02*
X168015476Y-51709914D01*
X168015476Y-51709914D02*
X167977380Y-51786104D01*
X167977380Y-51786104D02*
X167939285Y-51824200D01*
X167939285Y-51824200D02*
X167863095Y-51862295D01*
X167863095Y-51862295D02*
X167710714Y-51862295D01*
X167710714Y-51862295D02*
X167634523Y-51824200D01*
X167634523Y-51824200D02*
X167596428Y-51786104D01*
X167596428Y-51786104D02*
X167558333Y-51709914D01*
X167558333Y-51709914D02*
X167558333Y-51519438D01*
X167558333Y-51519438D02*
X167596428Y-51443247D01*
X167596428Y-51443247D02*
X167634523Y-51405152D01*
X167634523Y-51405152D02*
X167710714Y-51367057D01*
X167710714Y-51367057D02*
X167863095Y-51367057D01*
X167863095Y-51367057D02*
X167939285Y-51405152D01*
X167939285Y-51405152D02*
X167977380Y-51443247D01*
X167977380Y-51443247D02*
X168015476Y-51519438D01*
X36691667Y-51824200D02*
X36577381Y-51862295D01*
X36577381Y-51862295D02*
X36386905Y-51862295D01*
X36386905Y-51862295D02*
X36310714Y-51824200D01*
X36310714Y-51824200D02*
X36272619Y-51786104D01*
X36272619Y-51786104D02*
X36234524Y-51709914D01*
X36234524Y-51709914D02*
X36234524Y-51633723D01*
X36234524Y-51633723D02*
X36272619Y-51557533D01*
X36272619Y-51557533D02*
X36310714Y-51519438D01*
X36310714Y-51519438D02*
X36386905Y-51481342D01*
X36386905Y-51481342D02*
X36539286Y-51443247D01*
X36539286Y-51443247D02*
X36615476Y-51405152D01*
X36615476Y-51405152D02*
X36653571Y-51367057D01*
X36653571Y-51367057D02*
X36691667Y-51290866D01*
X36691667Y-51290866D02*
X36691667Y-51214676D01*
X36691667Y-51214676D02*
X36653571Y-51138485D01*
X36653571Y-51138485D02*
X36615476Y-51100390D01*
X36615476Y-51100390D02*
X36539286Y-51062295D01*
X36539286Y-51062295D02*
X36348809Y-51062295D01*
X36348809Y-51062295D02*
X36234524Y-51100390D01*
X35967857Y-51062295D02*
X35777381Y-51862295D01*
X35777381Y-51862295D02*
X35625000Y-51290866D01*
X35625000Y-51290866D02*
X35472619Y-51862295D01*
X35472619Y-51862295D02*
X35282143Y-51062295D01*
X34558333Y-51862295D02*
X35015476Y-51862295D01*
X34786904Y-51862295D02*
X34786904Y-51062295D01*
X34786904Y-51062295D02*
X34863095Y-51176580D01*
X34863095Y-51176580D02*
X34939285Y-51252771D01*
X34939285Y-51252771D02*
X35015476Y-51290866D01*
X188691667Y-51824200D02*
X188577381Y-51862295D01*
X188577381Y-51862295D02*
X188386905Y-51862295D01*
X188386905Y-51862295D02*
X188310714Y-51824200D01*
X188310714Y-51824200D02*
X188272619Y-51786104D01*
X188272619Y-51786104D02*
X188234524Y-51709914D01*
X188234524Y-51709914D02*
X188234524Y-51633723D01*
X188234524Y-51633723D02*
X188272619Y-51557533D01*
X188272619Y-51557533D02*
X188310714Y-51519438D01*
X188310714Y-51519438D02*
X188386905Y-51481342D01*
X188386905Y-51481342D02*
X188539286Y-51443247D01*
X188539286Y-51443247D02*
X188615476Y-51405152D01*
X188615476Y-51405152D02*
X188653571Y-51367057D01*
X188653571Y-51367057D02*
X188691667Y-51290866D01*
X188691667Y-51290866D02*
X188691667Y-51214676D01*
X188691667Y-51214676D02*
X188653571Y-51138485D01*
X188653571Y-51138485D02*
X188615476Y-51100390D01*
X188615476Y-51100390D02*
X188539286Y-51062295D01*
X188539286Y-51062295D02*
X188348809Y-51062295D01*
X188348809Y-51062295D02*
X188234524Y-51100390D01*
X187967857Y-51062295D02*
X187777381Y-51862295D01*
X187777381Y-51862295D02*
X187625000Y-51290866D01*
X187625000Y-51290866D02*
X187472619Y-51862295D01*
X187472619Y-51862295D02*
X187282143Y-51062295D01*
X187053571Y-51062295D02*
X186520237Y-51062295D01*
X186520237Y-51062295D02*
X186863095Y-51862295D01*
X119619819Y-46761905D02*
X118619819Y-46761905D01*
X118619819Y-46761905D02*
X118619819Y-47000000D01*
X118619819Y-47000000D02*
X118667438Y-47142857D01*
X118667438Y-47142857D02*
X118762676Y-47238095D01*
X118762676Y-47238095D02*
X118857914Y-47285714D01*
X118857914Y-47285714D02*
X119048390Y-47333333D01*
X119048390Y-47333333D02*
X119191247Y-47333333D01*
X119191247Y-47333333D02*
X119381723Y-47285714D01*
X119381723Y-47285714D02*
X119476961Y-47238095D01*
X119476961Y-47238095D02*
X119572200Y-47142857D01*
X119572200Y-47142857D02*
X119619819Y-47000000D01*
X119619819Y-47000000D02*
X119619819Y-46761905D01*
X118953152Y-48190476D02*
X119619819Y-48190476D01*
X118572200Y-47952381D02*
X119286485Y-47714286D01*
X119286485Y-47714286D02*
X119286485Y-48333333D01*
X119939819Y-43428095D02*
X118939819Y-43428095D01*
X119939819Y-43999523D02*
X119368390Y-43570952D01*
X118939819Y-43999523D02*
X119511247Y-43428095D01*
X133709819Y-84285714D02*
X132709819Y-84285714D01*
X132709819Y-84285714D02*
X132709819Y-84523809D01*
X132709819Y-84523809D02*
X132757438Y-84666666D01*
X132757438Y-84666666D02*
X132852676Y-84761904D01*
X132852676Y-84761904D02*
X132947914Y-84809523D01*
X132947914Y-84809523D02*
X133138390Y-84857142D01*
X133138390Y-84857142D02*
X133281247Y-84857142D01*
X133281247Y-84857142D02*
X133471723Y-84809523D01*
X133471723Y-84809523D02*
X133566961Y-84761904D01*
X133566961Y-84761904D02*
X133662200Y-84666666D01*
X133662200Y-84666666D02*
X133709819Y-84523809D01*
X133709819Y-84523809D02*
X133709819Y-84285714D01*
X132805057Y-85238095D02*
X132757438Y-85285714D01*
X132757438Y-85285714D02*
X132709819Y-85380952D01*
X132709819Y-85380952D02*
X132709819Y-85619047D01*
X132709819Y-85619047D02*
X132757438Y-85714285D01*
X132757438Y-85714285D02*
X132805057Y-85761904D01*
X132805057Y-85761904D02*
X132900295Y-85809523D01*
X132900295Y-85809523D02*
X132995533Y-85809523D01*
X132995533Y-85809523D02*
X133138390Y-85761904D01*
X133138390Y-85761904D02*
X133709819Y-85190476D01*
X133709819Y-85190476D02*
X133709819Y-85809523D01*
X132709819Y-86428571D02*
X132709819Y-86523809D01*
X132709819Y-86523809D02*
X132757438Y-86619047D01*
X132757438Y-86619047D02*
X132805057Y-86666666D01*
X132805057Y-86666666D02*
X132900295Y-86714285D01*
X132900295Y-86714285D02*
X133090771Y-86761904D01*
X133090771Y-86761904D02*
X133328866Y-86761904D01*
X133328866Y-86761904D02*
X133519342Y-86714285D01*
X133519342Y-86714285D02*
X133614580Y-86666666D01*
X133614580Y-86666666D02*
X133662200Y-86619047D01*
X133662200Y-86619047D02*
X133709819Y-86523809D01*
X133709819Y-86523809D02*
X133709819Y-86428571D01*
X133709819Y-86428571D02*
X133662200Y-86333333D01*
X133662200Y-86333333D02*
X133614580Y-86285714D01*
X133614580Y-86285714D02*
X133519342Y-86238095D01*
X133519342Y-86238095D02*
X133328866Y-86190476D01*
X133328866Y-86190476D02*
X133090771Y-86190476D01*
X133090771Y-86190476D02*
X132900295Y-86238095D01*
X132900295Y-86238095D02*
X132805057Y-86285714D01*
X132805057Y-86285714D02*
X132757438Y-86333333D01*
X132757438Y-86333333D02*
X132709819Y-86428571D01*
X134029819Y-81428095D02*
X133029819Y-81428095D01*
X134029819Y-81999523D02*
X133458390Y-81570952D01*
X133029819Y-81999523D02*
X133601247Y-81428095D01*
X50584819Y-84285714D02*
X49584819Y-84285714D01*
X49584819Y-84285714D02*
X49584819Y-84523809D01*
X49584819Y-84523809D02*
X49632438Y-84666666D01*
X49632438Y-84666666D02*
X49727676Y-84761904D01*
X49727676Y-84761904D02*
X49822914Y-84809523D01*
X49822914Y-84809523D02*
X50013390Y-84857142D01*
X50013390Y-84857142D02*
X50156247Y-84857142D01*
X50156247Y-84857142D02*
X50346723Y-84809523D01*
X50346723Y-84809523D02*
X50441961Y-84761904D01*
X50441961Y-84761904D02*
X50537200Y-84666666D01*
X50537200Y-84666666D02*
X50584819Y-84523809D01*
X50584819Y-84523809D02*
X50584819Y-84285714D01*
X50584819Y-85809523D02*
X50584819Y-85238095D01*
X50584819Y-85523809D02*
X49584819Y-85523809D01*
X49584819Y-85523809D02*
X49727676Y-85428571D01*
X49727676Y-85428571D02*
X49822914Y-85333333D01*
X49822914Y-85333333D02*
X49870533Y-85238095D01*
X49584819Y-86142857D02*
X49584819Y-86809523D01*
X49584819Y-86809523D02*
X50584819Y-86380952D01*
X50904819Y-81428095D02*
X49904819Y-81428095D01*
X50904819Y-81999523D02*
X50333390Y-81570952D01*
X49904819Y-81999523D02*
X50476247Y-81428095D01*
X171709819Y-85225714D02*
X170709819Y-85225714D01*
X170709819Y-85225714D02*
X170709819Y-85463809D01*
X170709819Y-85463809D02*
X170757438Y-85606666D01*
X170757438Y-85606666D02*
X170852676Y-85701904D01*
X170852676Y-85701904D02*
X170947914Y-85749523D01*
X170947914Y-85749523D02*
X171138390Y-85797142D01*
X171138390Y-85797142D02*
X171281247Y-85797142D01*
X171281247Y-85797142D02*
X171471723Y-85749523D01*
X171471723Y-85749523D02*
X171566961Y-85701904D01*
X171566961Y-85701904D02*
X171662200Y-85606666D01*
X171662200Y-85606666D02*
X171709819Y-85463809D01*
X171709819Y-85463809D02*
X171709819Y-85225714D01*
X170805057Y-86178095D02*
X170757438Y-86225714D01*
X170757438Y-86225714D02*
X170709819Y-86320952D01*
X170709819Y-86320952D02*
X170709819Y-86559047D01*
X170709819Y-86559047D02*
X170757438Y-86654285D01*
X170757438Y-86654285D02*
X170805057Y-86701904D01*
X170805057Y-86701904D02*
X170900295Y-86749523D01*
X170900295Y-86749523D02*
X170995533Y-86749523D01*
X170995533Y-86749523D02*
X171138390Y-86701904D01*
X171138390Y-86701904D02*
X171709819Y-86130476D01*
X171709819Y-86130476D02*
X171709819Y-86749523D01*
X171709819Y-87225714D02*
X171709819Y-87416190D01*
X171709819Y-87416190D02*
X171662200Y-87511428D01*
X171662200Y-87511428D02*
X171614580Y-87559047D01*
X171614580Y-87559047D02*
X171471723Y-87654285D01*
X171471723Y-87654285D02*
X171281247Y-87701904D01*
X171281247Y-87701904D02*
X170900295Y-87701904D01*
X170900295Y-87701904D02*
X170805057Y-87654285D01*
X170805057Y-87654285D02*
X170757438Y-87606666D01*
X170757438Y-87606666D02*
X170709819Y-87511428D01*
X170709819Y-87511428D02*
X170709819Y-87320952D01*
X170709819Y-87320952D02*
X170757438Y-87225714D01*
X170757438Y-87225714D02*
X170805057Y-87178095D01*
X170805057Y-87178095D02*
X170900295Y-87130476D01*
X170900295Y-87130476D02*
X171138390Y-87130476D01*
X171138390Y-87130476D02*
X171233628Y-87178095D01*
X171233628Y-87178095D02*
X171281247Y-87225714D01*
X171281247Y-87225714D02*
X171328866Y-87320952D01*
X171328866Y-87320952D02*
X171328866Y-87511428D01*
X171328866Y-87511428D02*
X171281247Y-87606666D01*
X171281247Y-87606666D02*
X171233628Y-87654285D01*
X171233628Y-87654285D02*
X171138390Y-87701904D01*
X172029819Y-82368095D02*
X171029819Y-82368095D01*
X172029819Y-82939523D02*
X171458390Y-82510952D01*
X171029819Y-82939523D02*
X171601247Y-82368095D01*
X124209819Y-65285714D02*
X123209819Y-65285714D01*
X123209819Y-65285714D02*
X123209819Y-65523809D01*
X123209819Y-65523809D02*
X123257438Y-65666666D01*
X123257438Y-65666666D02*
X123352676Y-65761904D01*
X123352676Y-65761904D02*
X123447914Y-65809523D01*
X123447914Y-65809523D02*
X123638390Y-65857142D01*
X123638390Y-65857142D02*
X123781247Y-65857142D01*
X123781247Y-65857142D02*
X123971723Y-65809523D01*
X123971723Y-65809523D02*
X124066961Y-65761904D01*
X124066961Y-65761904D02*
X124162200Y-65666666D01*
X124162200Y-65666666D02*
X124209819Y-65523809D01*
X124209819Y-65523809D02*
X124209819Y-65285714D01*
X123305057Y-66238095D02*
X123257438Y-66285714D01*
X123257438Y-66285714D02*
X123209819Y-66380952D01*
X123209819Y-66380952D02*
X123209819Y-66619047D01*
X123209819Y-66619047D02*
X123257438Y-66714285D01*
X123257438Y-66714285D02*
X123305057Y-66761904D01*
X123305057Y-66761904D02*
X123400295Y-66809523D01*
X123400295Y-66809523D02*
X123495533Y-66809523D01*
X123495533Y-66809523D02*
X123638390Y-66761904D01*
X123638390Y-66761904D02*
X124209819Y-66190476D01*
X124209819Y-66190476D02*
X124209819Y-66809523D01*
X123209819Y-67142857D02*
X123209819Y-67809523D01*
X123209819Y-67809523D02*
X124209819Y-67380952D01*
X124529819Y-62428095D02*
X123529819Y-62428095D01*
X124529819Y-62999523D02*
X123958390Y-62570952D01*
X123529819Y-62999523D02*
X124101247Y-62428095D01*
X231589285Y-55334819D02*
X231589285Y-54334819D01*
X231589285Y-54334819D02*
X231351190Y-54334819D01*
X231351190Y-54334819D02*
X231208333Y-54382438D01*
X231208333Y-54382438D02*
X231113095Y-54477676D01*
X231113095Y-54477676D02*
X231065476Y-54572914D01*
X231065476Y-54572914D02*
X231017857Y-54763390D01*
X231017857Y-54763390D02*
X231017857Y-54906247D01*
X231017857Y-54906247D02*
X231065476Y-55096723D01*
X231065476Y-55096723D02*
X231113095Y-55191961D01*
X231113095Y-55191961D02*
X231208333Y-55287200D01*
X231208333Y-55287200D02*
X231351190Y-55334819D01*
X231351190Y-55334819D02*
X231589285Y-55334819D01*
X230684523Y-54334819D02*
X230065476Y-54334819D01*
X230065476Y-54334819D02*
X230398809Y-54715771D01*
X230398809Y-54715771D02*
X230255952Y-54715771D01*
X230255952Y-54715771D02*
X230160714Y-54763390D01*
X230160714Y-54763390D02*
X230113095Y-54811009D01*
X230113095Y-54811009D02*
X230065476Y-54906247D01*
X230065476Y-54906247D02*
X230065476Y-55144342D01*
X230065476Y-55144342D02*
X230113095Y-55239580D01*
X230113095Y-55239580D02*
X230160714Y-55287200D01*
X230160714Y-55287200D02*
X230255952Y-55334819D01*
X230255952Y-55334819D02*
X230541666Y-55334819D01*
X230541666Y-55334819D02*
X230636904Y-55287200D01*
X230636904Y-55287200D02*
X230684523Y-55239580D01*
X229113095Y-55334819D02*
X229684523Y-55334819D01*
X229398809Y-55334819D02*
X229398809Y-54334819D01*
X229398809Y-54334819D02*
X229494047Y-54477676D01*
X229494047Y-54477676D02*
X229589285Y-54572914D01*
X229589285Y-54572914D02*
X229684523Y-54620533D01*
X234446904Y-55654819D02*
X234446904Y-54654819D01*
X233875476Y-55654819D02*
X234304047Y-55083390D01*
X233875476Y-54654819D02*
X234446904Y-55226247D01*
X107329819Y-71635714D02*
X106329819Y-71635714D01*
X106329819Y-71635714D02*
X106329819Y-71873809D01*
X106329819Y-71873809D02*
X106377438Y-72016666D01*
X106377438Y-72016666D02*
X106472676Y-72111904D01*
X106472676Y-72111904D02*
X106567914Y-72159523D01*
X106567914Y-72159523D02*
X106758390Y-72207142D01*
X106758390Y-72207142D02*
X106901247Y-72207142D01*
X106901247Y-72207142D02*
X107091723Y-72159523D01*
X107091723Y-72159523D02*
X107186961Y-72111904D01*
X107186961Y-72111904D02*
X107282200Y-72016666D01*
X107282200Y-72016666D02*
X107329819Y-71873809D01*
X107329819Y-71873809D02*
X107329819Y-71635714D01*
X107329819Y-73159523D02*
X107329819Y-72588095D01*
X107329819Y-72873809D02*
X106329819Y-72873809D01*
X106329819Y-72873809D02*
X106472676Y-72778571D01*
X106472676Y-72778571D02*
X106567914Y-72683333D01*
X106567914Y-72683333D02*
X106615533Y-72588095D01*
X107329819Y-73635714D02*
X107329819Y-73826190D01*
X107329819Y-73826190D02*
X107282200Y-73921428D01*
X107282200Y-73921428D02*
X107234580Y-73969047D01*
X107234580Y-73969047D02*
X107091723Y-74064285D01*
X107091723Y-74064285D02*
X106901247Y-74111904D01*
X106901247Y-74111904D02*
X106520295Y-74111904D01*
X106520295Y-74111904D02*
X106425057Y-74064285D01*
X106425057Y-74064285D02*
X106377438Y-74016666D01*
X106377438Y-74016666D02*
X106329819Y-73921428D01*
X106329819Y-73921428D02*
X106329819Y-73730952D01*
X106329819Y-73730952D02*
X106377438Y-73635714D01*
X106377438Y-73635714D02*
X106425057Y-73588095D01*
X106425057Y-73588095D02*
X106520295Y-73540476D01*
X106520295Y-73540476D02*
X106758390Y-73540476D01*
X106758390Y-73540476D02*
X106853628Y-73588095D01*
X106853628Y-73588095D02*
X106901247Y-73635714D01*
X106901247Y-73635714D02*
X106948866Y-73730952D01*
X106948866Y-73730952D02*
X106948866Y-73921428D01*
X106948866Y-73921428D02*
X106901247Y-74016666D01*
X106901247Y-74016666D02*
X106853628Y-74064285D01*
X106853628Y-74064285D02*
X106758390Y-74111904D01*
X250589285Y-93334819D02*
X250589285Y-92334819D01*
X250589285Y-92334819D02*
X250351190Y-92334819D01*
X250351190Y-92334819D02*
X250208333Y-92382438D01*
X250208333Y-92382438D02*
X250113095Y-92477676D01*
X250113095Y-92477676D02*
X250065476Y-92572914D01*
X250065476Y-92572914D02*
X250017857Y-92763390D01*
X250017857Y-92763390D02*
X250017857Y-92906247D01*
X250017857Y-92906247D02*
X250065476Y-93096723D01*
X250065476Y-93096723D02*
X250113095Y-93191961D01*
X250113095Y-93191961D02*
X250208333Y-93287200D01*
X250208333Y-93287200D02*
X250351190Y-93334819D01*
X250351190Y-93334819D02*
X250589285Y-93334819D01*
X249160714Y-92668152D02*
X249160714Y-93334819D01*
X249398809Y-92287200D02*
X249636904Y-93001485D01*
X249636904Y-93001485D02*
X249017857Y-93001485D01*
X248446428Y-92334819D02*
X248351190Y-92334819D01*
X248351190Y-92334819D02*
X248255952Y-92382438D01*
X248255952Y-92382438D02*
X248208333Y-92430057D01*
X248208333Y-92430057D02*
X248160714Y-92525295D01*
X248160714Y-92525295D02*
X248113095Y-92715771D01*
X248113095Y-92715771D02*
X248113095Y-92953866D01*
X248113095Y-92953866D02*
X248160714Y-93144342D01*
X248160714Y-93144342D02*
X248208333Y-93239580D01*
X248208333Y-93239580D02*
X248255952Y-93287200D01*
X248255952Y-93287200D02*
X248351190Y-93334819D01*
X248351190Y-93334819D02*
X248446428Y-93334819D01*
X248446428Y-93334819D02*
X248541666Y-93287200D01*
X248541666Y-93287200D02*
X248589285Y-93239580D01*
X248589285Y-93239580D02*
X248636904Y-93144342D01*
X248636904Y-93144342D02*
X248684523Y-92953866D01*
X248684523Y-92953866D02*
X248684523Y-92715771D01*
X248684523Y-92715771D02*
X248636904Y-92525295D01*
X248636904Y-92525295D02*
X248589285Y-92430057D01*
X248589285Y-92430057D02*
X248541666Y-92382438D01*
X248541666Y-92382438D02*
X248446428Y-92334819D01*
X253446904Y-93654819D02*
X253446904Y-92654819D01*
X252875476Y-93654819D02*
X253304047Y-93083390D01*
X252875476Y-92654819D02*
X253446904Y-93226247D01*
X81459819Y-46761905D02*
X80459819Y-46761905D01*
X80459819Y-46761905D02*
X80459819Y-47000000D01*
X80459819Y-47000000D02*
X80507438Y-47142857D01*
X80507438Y-47142857D02*
X80602676Y-47238095D01*
X80602676Y-47238095D02*
X80697914Y-47285714D01*
X80697914Y-47285714D02*
X80888390Y-47333333D01*
X80888390Y-47333333D02*
X81031247Y-47333333D01*
X81031247Y-47333333D02*
X81221723Y-47285714D01*
X81221723Y-47285714D02*
X81316961Y-47238095D01*
X81316961Y-47238095D02*
X81412200Y-47142857D01*
X81412200Y-47142857D02*
X81459819Y-47000000D01*
X81459819Y-47000000D02*
X81459819Y-46761905D01*
X80555057Y-47714286D02*
X80507438Y-47761905D01*
X80507438Y-47761905D02*
X80459819Y-47857143D01*
X80459819Y-47857143D02*
X80459819Y-48095238D01*
X80459819Y-48095238D02*
X80507438Y-48190476D01*
X80507438Y-48190476D02*
X80555057Y-48238095D01*
X80555057Y-48238095D02*
X80650295Y-48285714D01*
X80650295Y-48285714D02*
X80745533Y-48285714D01*
X80745533Y-48285714D02*
X80888390Y-48238095D01*
X80888390Y-48238095D02*
X81459819Y-47666667D01*
X81459819Y-47666667D02*
X81459819Y-48285714D01*
X81779819Y-43428095D02*
X80779819Y-43428095D01*
X81779819Y-43999523D02*
X81208390Y-43570952D01*
X80779819Y-43999523D02*
X81351247Y-43428095D01*
X200209819Y-65285714D02*
X199209819Y-65285714D01*
X199209819Y-65285714D02*
X199209819Y-65523809D01*
X199209819Y-65523809D02*
X199257438Y-65666666D01*
X199257438Y-65666666D02*
X199352676Y-65761904D01*
X199352676Y-65761904D02*
X199447914Y-65809523D01*
X199447914Y-65809523D02*
X199638390Y-65857142D01*
X199638390Y-65857142D02*
X199781247Y-65857142D01*
X199781247Y-65857142D02*
X199971723Y-65809523D01*
X199971723Y-65809523D02*
X200066961Y-65761904D01*
X200066961Y-65761904D02*
X200162200Y-65666666D01*
X200162200Y-65666666D02*
X200209819Y-65523809D01*
X200209819Y-65523809D02*
X200209819Y-65285714D01*
X200209819Y-66809523D02*
X200209819Y-66238095D01*
X200209819Y-66523809D02*
X199209819Y-66523809D01*
X199209819Y-66523809D02*
X199352676Y-66428571D01*
X199352676Y-66428571D02*
X199447914Y-66333333D01*
X199447914Y-66333333D02*
X199495533Y-66238095D01*
X199209819Y-67714285D02*
X199209819Y-67238095D01*
X199209819Y-67238095D02*
X199686009Y-67190476D01*
X199686009Y-67190476D02*
X199638390Y-67238095D01*
X199638390Y-67238095D02*
X199590771Y-67333333D01*
X199590771Y-67333333D02*
X199590771Y-67571428D01*
X199590771Y-67571428D02*
X199638390Y-67666666D01*
X199638390Y-67666666D02*
X199686009Y-67714285D01*
X199686009Y-67714285D02*
X199781247Y-67761904D01*
X199781247Y-67761904D02*
X200019342Y-67761904D01*
X200019342Y-67761904D02*
X200114580Y-67714285D01*
X200114580Y-67714285D02*
X200162200Y-67666666D01*
X200162200Y-67666666D02*
X200209819Y-67571428D01*
X200209819Y-67571428D02*
X200209819Y-67333333D01*
X200209819Y-67333333D02*
X200162200Y-67238095D01*
X200162200Y-67238095D02*
X200114580Y-67190476D01*
X200529819Y-62428095D02*
X199529819Y-62428095D01*
X200529819Y-62999523D02*
X199958390Y-62570952D01*
X199529819Y-62999523D02*
X200101247Y-62428095D01*
X254834819Y-46285714D02*
X253834819Y-46285714D01*
X253834819Y-46285714D02*
X253834819Y-46523809D01*
X253834819Y-46523809D02*
X253882438Y-46666666D01*
X253882438Y-46666666D02*
X253977676Y-46761904D01*
X253977676Y-46761904D02*
X254072914Y-46809523D01*
X254072914Y-46809523D02*
X254263390Y-46857142D01*
X254263390Y-46857142D02*
X254406247Y-46857142D01*
X254406247Y-46857142D02*
X254596723Y-46809523D01*
X254596723Y-46809523D02*
X254691961Y-46761904D01*
X254691961Y-46761904D02*
X254787200Y-46666666D01*
X254787200Y-46666666D02*
X254834819Y-46523809D01*
X254834819Y-46523809D02*
X254834819Y-46285714D01*
X253930057Y-47238095D02*
X253882438Y-47285714D01*
X253882438Y-47285714D02*
X253834819Y-47380952D01*
X253834819Y-47380952D02*
X253834819Y-47619047D01*
X253834819Y-47619047D02*
X253882438Y-47714285D01*
X253882438Y-47714285D02*
X253930057Y-47761904D01*
X253930057Y-47761904D02*
X254025295Y-47809523D01*
X254025295Y-47809523D02*
X254120533Y-47809523D01*
X254120533Y-47809523D02*
X254263390Y-47761904D01*
X254263390Y-47761904D02*
X254834819Y-47190476D01*
X254834819Y-47190476D02*
X254834819Y-47809523D01*
X254168152Y-48666666D02*
X254834819Y-48666666D01*
X253787200Y-48428571D02*
X254501485Y-48190476D01*
X254501485Y-48190476D02*
X254501485Y-48809523D01*
X255154819Y-43428095D02*
X254154819Y-43428095D01*
X255154819Y-43999523D02*
X254583390Y-43570952D01*
X254154819Y-43999523D02*
X254726247Y-43428095D01*
X64579819Y-52635714D02*
X63579819Y-52635714D01*
X63579819Y-52635714D02*
X63579819Y-52873809D01*
X63579819Y-52873809D02*
X63627438Y-53016666D01*
X63627438Y-53016666D02*
X63722676Y-53111904D01*
X63722676Y-53111904D02*
X63817914Y-53159523D01*
X63817914Y-53159523D02*
X64008390Y-53207142D01*
X64008390Y-53207142D02*
X64151247Y-53207142D01*
X64151247Y-53207142D02*
X64341723Y-53159523D01*
X64341723Y-53159523D02*
X64436961Y-53111904D01*
X64436961Y-53111904D02*
X64532200Y-53016666D01*
X64532200Y-53016666D02*
X64579819Y-52873809D01*
X64579819Y-52873809D02*
X64579819Y-52635714D01*
X64579819Y-54159523D02*
X64579819Y-53588095D01*
X64579819Y-53873809D02*
X63579819Y-53873809D01*
X63579819Y-53873809D02*
X63722676Y-53778571D01*
X63722676Y-53778571D02*
X63817914Y-53683333D01*
X63817914Y-53683333D02*
X63865533Y-53588095D01*
X63579819Y-54778571D02*
X63579819Y-54873809D01*
X63579819Y-54873809D02*
X63627438Y-54969047D01*
X63627438Y-54969047D02*
X63675057Y-55016666D01*
X63675057Y-55016666D02*
X63770295Y-55064285D01*
X63770295Y-55064285D02*
X63960771Y-55111904D01*
X63960771Y-55111904D02*
X64198866Y-55111904D01*
X64198866Y-55111904D02*
X64389342Y-55064285D01*
X64389342Y-55064285D02*
X64484580Y-55016666D01*
X64484580Y-55016666D02*
X64532200Y-54969047D01*
X64532200Y-54969047D02*
X64579819Y-54873809D01*
X64579819Y-54873809D02*
X64579819Y-54778571D01*
X64579819Y-54778571D02*
X64532200Y-54683333D01*
X64532200Y-54683333D02*
X64484580Y-54635714D01*
X64484580Y-54635714D02*
X64389342Y-54588095D01*
X64389342Y-54588095D02*
X64198866Y-54540476D01*
X64198866Y-54540476D02*
X63960771Y-54540476D01*
X63960771Y-54540476D02*
X63770295Y-54588095D01*
X63770295Y-54588095D02*
X63675057Y-54635714D01*
X63675057Y-54635714D02*
X63627438Y-54683333D01*
X63627438Y-54683333D02*
X63579819Y-54778571D01*
X219209819Y-65285714D02*
X218209819Y-65285714D01*
X218209819Y-65285714D02*
X218209819Y-65523809D01*
X218209819Y-65523809D02*
X218257438Y-65666666D01*
X218257438Y-65666666D02*
X218352676Y-65761904D01*
X218352676Y-65761904D02*
X218447914Y-65809523D01*
X218447914Y-65809523D02*
X218638390Y-65857142D01*
X218638390Y-65857142D02*
X218781247Y-65857142D01*
X218781247Y-65857142D02*
X218971723Y-65809523D01*
X218971723Y-65809523D02*
X219066961Y-65761904D01*
X219066961Y-65761904D02*
X219162200Y-65666666D01*
X219162200Y-65666666D02*
X219209819Y-65523809D01*
X219209819Y-65523809D02*
X219209819Y-65285714D01*
X218305057Y-66238095D02*
X218257438Y-66285714D01*
X218257438Y-66285714D02*
X218209819Y-66380952D01*
X218209819Y-66380952D02*
X218209819Y-66619047D01*
X218209819Y-66619047D02*
X218257438Y-66714285D01*
X218257438Y-66714285D02*
X218305057Y-66761904D01*
X218305057Y-66761904D02*
X218400295Y-66809523D01*
X218400295Y-66809523D02*
X218495533Y-66809523D01*
X218495533Y-66809523D02*
X218638390Y-66761904D01*
X218638390Y-66761904D02*
X219209819Y-66190476D01*
X219209819Y-66190476D02*
X219209819Y-66809523D01*
X218209819Y-67142857D02*
X218209819Y-67761904D01*
X218209819Y-67761904D02*
X218590771Y-67428571D01*
X218590771Y-67428571D02*
X218590771Y-67571428D01*
X218590771Y-67571428D02*
X218638390Y-67666666D01*
X218638390Y-67666666D02*
X218686009Y-67714285D01*
X218686009Y-67714285D02*
X218781247Y-67761904D01*
X218781247Y-67761904D02*
X219019342Y-67761904D01*
X219019342Y-67761904D02*
X219114580Y-67714285D01*
X219114580Y-67714285D02*
X219162200Y-67666666D01*
X219162200Y-67666666D02*
X219209819Y-67571428D01*
X219209819Y-67571428D02*
X219209819Y-67285714D01*
X219209819Y-67285714D02*
X219162200Y-67190476D01*
X219162200Y-67190476D02*
X219114580Y-67142857D01*
X219529819Y-62428095D02*
X218529819Y-62428095D01*
X219529819Y-62999523D02*
X218958390Y-62570952D01*
X218529819Y-62999523D02*
X219101247Y-62428095D01*
X176459819Y-46761905D02*
X175459819Y-46761905D01*
X175459819Y-46761905D02*
X175459819Y-47000000D01*
X175459819Y-47000000D02*
X175507438Y-47142857D01*
X175507438Y-47142857D02*
X175602676Y-47238095D01*
X175602676Y-47238095D02*
X175697914Y-47285714D01*
X175697914Y-47285714D02*
X175888390Y-47333333D01*
X175888390Y-47333333D02*
X176031247Y-47333333D01*
X176031247Y-47333333D02*
X176221723Y-47285714D01*
X176221723Y-47285714D02*
X176316961Y-47238095D01*
X176316961Y-47238095D02*
X176412200Y-47142857D01*
X176412200Y-47142857D02*
X176459819Y-47000000D01*
X176459819Y-47000000D02*
X176459819Y-46761905D01*
X175459819Y-48190476D02*
X175459819Y-48000000D01*
X175459819Y-48000000D02*
X175507438Y-47904762D01*
X175507438Y-47904762D02*
X175555057Y-47857143D01*
X175555057Y-47857143D02*
X175697914Y-47761905D01*
X175697914Y-47761905D02*
X175888390Y-47714286D01*
X175888390Y-47714286D02*
X176269342Y-47714286D01*
X176269342Y-47714286D02*
X176364580Y-47761905D01*
X176364580Y-47761905D02*
X176412200Y-47809524D01*
X176412200Y-47809524D02*
X176459819Y-47904762D01*
X176459819Y-47904762D02*
X176459819Y-48095238D01*
X176459819Y-48095238D02*
X176412200Y-48190476D01*
X176412200Y-48190476D02*
X176364580Y-48238095D01*
X176364580Y-48238095D02*
X176269342Y-48285714D01*
X176269342Y-48285714D02*
X176031247Y-48285714D01*
X176031247Y-48285714D02*
X175936009Y-48238095D01*
X175936009Y-48238095D02*
X175888390Y-48190476D01*
X175888390Y-48190476D02*
X175840771Y-48095238D01*
X175840771Y-48095238D02*
X175840771Y-47904762D01*
X175840771Y-47904762D02*
X175888390Y-47809524D01*
X175888390Y-47809524D02*
X175936009Y-47761905D01*
X175936009Y-47761905D02*
X176031247Y-47714286D01*
X176779819Y-43428095D02*
X175779819Y-43428095D01*
X176779819Y-43999523D02*
X176208390Y-43570952D01*
X175779819Y-43999523D02*
X176351247Y-43428095D01*
X95709819Y-84285714D02*
X94709819Y-84285714D01*
X94709819Y-84285714D02*
X94709819Y-84523809D01*
X94709819Y-84523809D02*
X94757438Y-84666666D01*
X94757438Y-84666666D02*
X94852676Y-84761904D01*
X94852676Y-84761904D02*
X94947914Y-84809523D01*
X94947914Y-84809523D02*
X95138390Y-84857142D01*
X95138390Y-84857142D02*
X95281247Y-84857142D01*
X95281247Y-84857142D02*
X95471723Y-84809523D01*
X95471723Y-84809523D02*
X95566961Y-84761904D01*
X95566961Y-84761904D02*
X95662200Y-84666666D01*
X95662200Y-84666666D02*
X95709819Y-84523809D01*
X95709819Y-84523809D02*
X95709819Y-84285714D01*
X94709819Y-85190476D02*
X94709819Y-85809523D01*
X94709819Y-85809523D02*
X95090771Y-85476190D01*
X95090771Y-85476190D02*
X95090771Y-85619047D01*
X95090771Y-85619047D02*
X95138390Y-85714285D01*
X95138390Y-85714285D02*
X95186009Y-85761904D01*
X95186009Y-85761904D02*
X95281247Y-85809523D01*
X95281247Y-85809523D02*
X95519342Y-85809523D01*
X95519342Y-85809523D02*
X95614580Y-85761904D01*
X95614580Y-85761904D02*
X95662200Y-85714285D01*
X95662200Y-85714285D02*
X95709819Y-85619047D01*
X95709819Y-85619047D02*
X95709819Y-85333333D01*
X95709819Y-85333333D02*
X95662200Y-85238095D01*
X95662200Y-85238095D02*
X95614580Y-85190476D01*
X95043152Y-86666666D02*
X95709819Y-86666666D01*
X94662200Y-86428571D02*
X95376485Y-86190476D01*
X95376485Y-86190476D02*
X95376485Y-86809523D01*
X96029819Y-81428095D02*
X95029819Y-81428095D01*
X96029819Y-81999523D02*
X95458390Y-81570952D01*
X95029819Y-81999523D02*
X95601247Y-81428095D01*
X74334819Y-103285714D02*
X73334819Y-103285714D01*
X73334819Y-103285714D02*
X73334819Y-103523809D01*
X73334819Y-103523809D02*
X73382438Y-103666666D01*
X73382438Y-103666666D02*
X73477676Y-103761904D01*
X73477676Y-103761904D02*
X73572914Y-103809523D01*
X73572914Y-103809523D02*
X73763390Y-103857142D01*
X73763390Y-103857142D02*
X73906247Y-103857142D01*
X73906247Y-103857142D02*
X74096723Y-103809523D01*
X74096723Y-103809523D02*
X74191961Y-103761904D01*
X74191961Y-103761904D02*
X74287200Y-103666666D01*
X74287200Y-103666666D02*
X74334819Y-103523809D01*
X74334819Y-103523809D02*
X74334819Y-103285714D01*
X73430057Y-104238095D02*
X73382438Y-104285714D01*
X73382438Y-104285714D02*
X73334819Y-104380952D01*
X73334819Y-104380952D02*
X73334819Y-104619047D01*
X73334819Y-104619047D02*
X73382438Y-104714285D01*
X73382438Y-104714285D02*
X73430057Y-104761904D01*
X73430057Y-104761904D02*
X73525295Y-104809523D01*
X73525295Y-104809523D02*
X73620533Y-104809523D01*
X73620533Y-104809523D02*
X73763390Y-104761904D01*
X73763390Y-104761904D02*
X74334819Y-104190476D01*
X74334819Y-104190476D02*
X74334819Y-104809523D01*
X73334819Y-105714285D02*
X73334819Y-105238095D01*
X73334819Y-105238095D02*
X73811009Y-105190476D01*
X73811009Y-105190476D02*
X73763390Y-105238095D01*
X73763390Y-105238095D02*
X73715771Y-105333333D01*
X73715771Y-105333333D02*
X73715771Y-105571428D01*
X73715771Y-105571428D02*
X73763390Y-105666666D01*
X73763390Y-105666666D02*
X73811009Y-105714285D01*
X73811009Y-105714285D02*
X73906247Y-105761904D01*
X73906247Y-105761904D02*
X74144342Y-105761904D01*
X74144342Y-105761904D02*
X74239580Y-105714285D01*
X74239580Y-105714285D02*
X74287200Y-105666666D01*
X74287200Y-105666666D02*
X74334819Y-105571428D01*
X74334819Y-105571428D02*
X74334819Y-105333333D01*
X74334819Y-105333333D02*
X74287200Y-105238095D01*
X74287200Y-105238095D02*
X74239580Y-105190476D01*
X74654819Y-100428095D02*
X73654819Y-100428095D01*
X74654819Y-100999523D02*
X74083390Y-100570952D01*
X73654819Y-100999523D02*
X74226247Y-100428095D01*
X195459819Y-46761905D02*
X194459819Y-46761905D01*
X194459819Y-46761905D02*
X194459819Y-47000000D01*
X194459819Y-47000000D02*
X194507438Y-47142857D01*
X194507438Y-47142857D02*
X194602676Y-47238095D01*
X194602676Y-47238095D02*
X194697914Y-47285714D01*
X194697914Y-47285714D02*
X194888390Y-47333333D01*
X194888390Y-47333333D02*
X195031247Y-47333333D01*
X195031247Y-47333333D02*
X195221723Y-47285714D01*
X195221723Y-47285714D02*
X195316961Y-47238095D01*
X195316961Y-47238095D02*
X195412200Y-47142857D01*
X195412200Y-47142857D02*
X195459819Y-47000000D01*
X195459819Y-47000000D02*
X195459819Y-46761905D01*
X194459819Y-47666667D02*
X194459819Y-48333333D01*
X194459819Y-48333333D02*
X195459819Y-47904762D01*
X195779819Y-43428095D02*
X194779819Y-43428095D01*
X195779819Y-43999523D02*
X195208390Y-43570952D01*
X194779819Y-43999523D02*
X195351247Y-43428095D01*
X238209819Y-74785714D02*
X237209819Y-74785714D01*
X237209819Y-74785714D02*
X237209819Y-75023809D01*
X237209819Y-75023809D02*
X237257438Y-75166666D01*
X237257438Y-75166666D02*
X237352676Y-75261904D01*
X237352676Y-75261904D02*
X237447914Y-75309523D01*
X237447914Y-75309523D02*
X237638390Y-75357142D01*
X237638390Y-75357142D02*
X237781247Y-75357142D01*
X237781247Y-75357142D02*
X237971723Y-75309523D01*
X237971723Y-75309523D02*
X238066961Y-75261904D01*
X238066961Y-75261904D02*
X238162200Y-75166666D01*
X238162200Y-75166666D02*
X238209819Y-75023809D01*
X238209819Y-75023809D02*
X238209819Y-74785714D01*
X237209819Y-75690476D02*
X237209819Y-76309523D01*
X237209819Y-76309523D02*
X237590771Y-75976190D01*
X237590771Y-75976190D02*
X237590771Y-76119047D01*
X237590771Y-76119047D02*
X237638390Y-76214285D01*
X237638390Y-76214285D02*
X237686009Y-76261904D01*
X237686009Y-76261904D02*
X237781247Y-76309523D01*
X237781247Y-76309523D02*
X238019342Y-76309523D01*
X238019342Y-76309523D02*
X238114580Y-76261904D01*
X238114580Y-76261904D02*
X238162200Y-76214285D01*
X238162200Y-76214285D02*
X238209819Y-76119047D01*
X238209819Y-76119047D02*
X238209819Y-75833333D01*
X238209819Y-75833333D02*
X238162200Y-75738095D01*
X238162200Y-75738095D02*
X238114580Y-75690476D01*
X237305057Y-76690476D02*
X237257438Y-76738095D01*
X237257438Y-76738095D02*
X237209819Y-76833333D01*
X237209819Y-76833333D02*
X237209819Y-77071428D01*
X237209819Y-77071428D02*
X237257438Y-77166666D01*
X237257438Y-77166666D02*
X237305057Y-77214285D01*
X237305057Y-77214285D02*
X237400295Y-77261904D01*
X237400295Y-77261904D02*
X237495533Y-77261904D01*
X237495533Y-77261904D02*
X237638390Y-77214285D01*
X237638390Y-77214285D02*
X238209819Y-76642857D01*
X238209819Y-76642857D02*
X238209819Y-77261904D01*
X238529819Y-71928095D02*
X237529819Y-71928095D01*
X238529819Y-72499523D02*
X237958390Y-72070952D01*
X237529819Y-72499523D02*
X238101247Y-71928095D01*
X76709819Y-84285714D02*
X75709819Y-84285714D01*
X75709819Y-84285714D02*
X75709819Y-84523809D01*
X75709819Y-84523809D02*
X75757438Y-84666666D01*
X75757438Y-84666666D02*
X75852676Y-84761904D01*
X75852676Y-84761904D02*
X75947914Y-84809523D01*
X75947914Y-84809523D02*
X76138390Y-84857142D01*
X76138390Y-84857142D02*
X76281247Y-84857142D01*
X76281247Y-84857142D02*
X76471723Y-84809523D01*
X76471723Y-84809523D02*
X76566961Y-84761904D01*
X76566961Y-84761904D02*
X76662200Y-84666666D01*
X76662200Y-84666666D02*
X76709819Y-84523809D01*
X76709819Y-84523809D02*
X76709819Y-84285714D01*
X75805057Y-85238095D02*
X75757438Y-85285714D01*
X75757438Y-85285714D02*
X75709819Y-85380952D01*
X75709819Y-85380952D02*
X75709819Y-85619047D01*
X75709819Y-85619047D02*
X75757438Y-85714285D01*
X75757438Y-85714285D02*
X75805057Y-85761904D01*
X75805057Y-85761904D02*
X75900295Y-85809523D01*
X75900295Y-85809523D02*
X75995533Y-85809523D01*
X75995533Y-85809523D02*
X76138390Y-85761904D01*
X76138390Y-85761904D02*
X76709819Y-85190476D01*
X76709819Y-85190476D02*
X76709819Y-85809523D01*
X75709819Y-86666666D02*
X75709819Y-86476190D01*
X75709819Y-86476190D02*
X75757438Y-86380952D01*
X75757438Y-86380952D02*
X75805057Y-86333333D01*
X75805057Y-86333333D02*
X75947914Y-86238095D01*
X75947914Y-86238095D02*
X76138390Y-86190476D01*
X76138390Y-86190476D02*
X76519342Y-86190476D01*
X76519342Y-86190476D02*
X76614580Y-86238095D01*
X76614580Y-86238095D02*
X76662200Y-86285714D01*
X76662200Y-86285714D02*
X76709819Y-86380952D01*
X76709819Y-86380952D02*
X76709819Y-86571428D01*
X76709819Y-86571428D02*
X76662200Y-86666666D01*
X76662200Y-86666666D02*
X76614580Y-86714285D01*
X76614580Y-86714285D02*
X76519342Y-86761904D01*
X76519342Y-86761904D02*
X76281247Y-86761904D01*
X76281247Y-86761904D02*
X76186009Y-86714285D01*
X76186009Y-86714285D02*
X76138390Y-86666666D01*
X76138390Y-86666666D02*
X76090771Y-86571428D01*
X76090771Y-86571428D02*
X76090771Y-86380952D01*
X76090771Y-86380952D02*
X76138390Y-86285714D01*
X76138390Y-86285714D02*
X76186009Y-86238095D01*
X76186009Y-86238095D02*
X76281247Y-86190476D01*
X77029819Y-81428095D02*
X76029819Y-81428095D01*
X77029819Y-81999523D02*
X76458390Y-81570952D01*
X76029819Y-81999523D02*
X76601247Y-81428095D01*
X238209819Y-103285714D02*
X237209819Y-103285714D01*
X237209819Y-103285714D02*
X237209819Y-103523809D01*
X237209819Y-103523809D02*
X237257438Y-103666666D01*
X237257438Y-103666666D02*
X237352676Y-103761904D01*
X237352676Y-103761904D02*
X237447914Y-103809523D01*
X237447914Y-103809523D02*
X237638390Y-103857142D01*
X237638390Y-103857142D02*
X237781247Y-103857142D01*
X237781247Y-103857142D02*
X237971723Y-103809523D01*
X237971723Y-103809523D02*
X238066961Y-103761904D01*
X238066961Y-103761904D02*
X238162200Y-103666666D01*
X238162200Y-103666666D02*
X238209819Y-103523809D01*
X238209819Y-103523809D02*
X238209819Y-103285714D01*
X237209819Y-104190476D02*
X237209819Y-104809523D01*
X237209819Y-104809523D02*
X237590771Y-104476190D01*
X237590771Y-104476190D02*
X237590771Y-104619047D01*
X237590771Y-104619047D02*
X237638390Y-104714285D01*
X237638390Y-104714285D02*
X237686009Y-104761904D01*
X237686009Y-104761904D02*
X237781247Y-104809523D01*
X237781247Y-104809523D02*
X238019342Y-104809523D01*
X238019342Y-104809523D02*
X238114580Y-104761904D01*
X238114580Y-104761904D02*
X238162200Y-104714285D01*
X238162200Y-104714285D02*
X238209819Y-104619047D01*
X238209819Y-104619047D02*
X238209819Y-104333333D01*
X238209819Y-104333333D02*
X238162200Y-104238095D01*
X238162200Y-104238095D02*
X238114580Y-104190476D01*
X238209819Y-105285714D02*
X238209819Y-105476190D01*
X238209819Y-105476190D02*
X238162200Y-105571428D01*
X238162200Y-105571428D02*
X238114580Y-105619047D01*
X238114580Y-105619047D02*
X237971723Y-105714285D01*
X237971723Y-105714285D02*
X237781247Y-105761904D01*
X237781247Y-105761904D02*
X237400295Y-105761904D01*
X237400295Y-105761904D02*
X237305057Y-105714285D01*
X237305057Y-105714285D02*
X237257438Y-105666666D01*
X237257438Y-105666666D02*
X237209819Y-105571428D01*
X237209819Y-105571428D02*
X237209819Y-105380952D01*
X237209819Y-105380952D02*
X237257438Y-105285714D01*
X237257438Y-105285714D02*
X237305057Y-105238095D01*
X237305057Y-105238095D02*
X237400295Y-105190476D01*
X237400295Y-105190476D02*
X237638390Y-105190476D01*
X237638390Y-105190476D02*
X237733628Y-105238095D01*
X237733628Y-105238095D02*
X237781247Y-105285714D01*
X237781247Y-105285714D02*
X237828866Y-105380952D01*
X237828866Y-105380952D02*
X237828866Y-105571428D01*
X237828866Y-105571428D02*
X237781247Y-105666666D01*
X237781247Y-105666666D02*
X237733628Y-105714285D01*
X237733628Y-105714285D02*
X237638390Y-105761904D01*
X238529819Y-100428095D02*
X237529819Y-100428095D01*
X238529819Y-100999523D02*
X237958390Y-100570952D01*
X237529819Y-100999523D02*
X238101247Y-100428095D01*
X86209819Y-65285714D02*
X85209819Y-65285714D01*
X85209819Y-65285714D02*
X85209819Y-65523809D01*
X85209819Y-65523809D02*
X85257438Y-65666666D01*
X85257438Y-65666666D02*
X85352676Y-65761904D01*
X85352676Y-65761904D02*
X85447914Y-65809523D01*
X85447914Y-65809523D02*
X85638390Y-65857142D01*
X85638390Y-65857142D02*
X85781247Y-65857142D01*
X85781247Y-65857142D02*
X85971723Y-65809523D01*
X85971723Y-65809523D02*
X86066961Y-65761904D01*
X86066961Y-65761904D02*
X86162200Y-65666666D01*
X86162200Y-65666666D02*
X86209819Y-65523809D01*
X86209819Y-65523809D02*
X86209819Y-65285714D01*
X86209819Y-66809523D02*
X86209819Y-66238095D01*
X86209819Y-66523809D02*
X85209819Y-66523809D01*
X85209819Y-66523809D02*
X85352676Y-66428571D01*
X85352676Y-66428571D02*
X85447914Y-66333333D01*
X85447914Y-66333333D02*
X85495533Y-66238095D01*
X86209819Y-67761904D02*
X86209819Y-67190476D01*
X86209819Y-67476190D02*
X85209819Y-67476190D01*
X85209819Y-67476190D02*
X85352676Y-67380952D01*
X85352676Y-67380952D02*
X85447914Y-67285714D01*
X85447914Y-67285714D02*
X85495533Y-67190476D01*
X86529819Y-62428095D02*
X85529819Y-62428095D01*
X86529819Y-62999523D02*
X85958390Y-62570952D01*
X85529819Y-62999523D02*
X86101247Y-62428095D01*
X190709819Y-84285714D02*
X189709819Y-84285714D01*
X189709819Y-84285714D02*
X189709819Y-84523809D01*
X189709819Y-84523809D02*
X189757438Y-84666666D01*
X189757438Y-84666666D02*
X189852676Y-84761904D01*
X189852676Y-84761904D02*
X189947914Y-84809523D01*
X189947914Y-84809523D02*
X190138390Y-84857142D01*
X190138390Y-84857142D02*
X190281247Y-84857142D01*
X190281247Y-84857142D02*
X190471723Y-84809523D01*
X190471723Y-84809523D02*
X190566961Y-84761904D01*
X190566961Y-84761904D02*
X190662200Y-84666666D01*
X190662200Y-84666666D02*
X190709819Y-84523809D01*
X190709819Y-84523809D02*
X190709819Y-84285714D01*
X189805057Y-85238095D02*
X189757438Y-85285714D01*
X189757438Y-85285714D02*
X189709819Y-85380952D01*
X189709819Y-85380952D02*
X189709819Y-85619047D01*
X189709819Y-85619047D02*
X189757438Y-85714285D01*
X189757438Y-85714285D02*
X189805057Y-85761904D01*
X189805057Y-85761904D02*
X189900295Y-85809523D01*
X189900295Y-85809523D02*
X189995533Y-85809523D01*
X189995533Y-85809523D02*
X190138390Y-85761904D01*
X190138390Y-85761904D02*
X190709819Y-85190476D01*
X190709819Y-85190476D02*
X190709819Y-85809523D01*
X189805057Y-86190476D02*
X189757438Y-86238095D01*
X189757438Y-86238095D02*
X189709819Y-86333333D01*
X189709819Y-86333333D02*
X189709819Y-86571428D01*
X189709819Y-86571428D02*
X189757438Y-86666666D01*
X189757438Y-86666666D02*
X189805057Y-86714285D01*
X189805057Y-86714285D02*
X189900295Y-86761904D01*
X189900295Y-86761904D02*
X189995533Y-86761904D01*
X189995533Y-86761904D02*
X190138390Y-86714285D01*
X190138390Y-86714285D02*
X190709819Y-86142857D01*
X190709819Y-86142857D02*
X190709819Y-86761904D01*
X191029819Y-81428095D02*
X190029819Y-81428095D01*
X191029819Y-81999523D02*
X190458390Y-81570952D01*
X190029819Y-81999523D02*
X190601247Y-81428095D01*
X221329819Y-90635714D02*
X220329819Y-90635714D01*
X220329819Y-90635714D02*
X220329819Y-90873809D01*
X220329819Y-90873809D02*
X220377438Y-91016666D01*
X220377438Y-91016666D02*
X220472676Y-91111904D01*
X220472676Y-91111904D02*
X220567914Y-91159523D01*
X220567914Y-91159523D02*
X220758390Y-91207142D01*
X220758390Y-91207142D02*
X220901247Y-91207142D01*
X220901247Y-91207142D02*
X221091723Y-91159523D01*
X221091723Y-91159523D02*
X221186961Y-91111904D01*
X221186961Y-91111904D02*
X221282200Y-91016666D01*
X221282200Y-91016666D02*
X221329819Y-90873809D01*
X221329819Y-90873809D02*
X221329819Y-90635714D01*
X220329819Y-91540476D02*
X220329819Y-92159523D01*
X220329819Y-92159523D02*
X220710771Y-91826190D01*
X220710771Y-91826190D02*
X220710771Y-91969047D01*
X220710771Y-91969047D02*
X220758390Y-92064285D01*
X220758390Y-92064285D02*
X220806009Y-92111904D01*
X220806009Y-92111904D02*
X220901247Y-92159523D01*
X220901247Y-92159523D02*
X221139342Y-92159523D01*
X221139342Y-92159523D02*
X221234580Y-92111904D01*
X221234580Y-92111904D02*
X221282200Y-92064285D01*
X221282200Y-92064285D02*
X221329819Y-91969047D01*
X221329819Y-91969047D02*
X221329819Y-91683333D01*
X221329819Y-91683333D02*
X221282200Y-91588095D01*
X221282200Y-91588095D02*
X221234580Y-91540476D01*
X220329819Y-92492857D02*
X220329819Y-93159523D01*
X220329819Y-93159523D02*
X221329819Y-92730952D01*
X223615819Y-81555095D02*
X222615819Y-81555095D01*
X223615819Y-82126523D02*
X223044390Y-81697952D01*
X222615819Y-82126523D02*
X223187247Y-81555095D01*
X162209819Y-65285714D02*
X161209819Y-65285714D01*
X161209819Y-65285714D02*
X161209819Y-65523809D01*
X161209819Y-65523809D02*
X161257438Y-65666666D01*
X161257438Y-65666666D02*
X161352676Y-65761904D01*
X161352676Y-65761904D02*
X161447914Y-65809523D01*
X161447914Y-65809523D02*
X161638390Y-65857142D01*
X161638390Y-65857142D02*
X161781247Y-65857142D01*
X161781247Y-65857142D02*
X161971723Y-65809523D01*
X161971723Y-65809523D02*
X162066961Y-65761904D01*
X162066961Y-65761904D02*
X162162200Y-65666666D01*
X162162200Y-65666666D02*
X162209819Y-65523809D01*
X162209819Y-65523809D02*
X162209819Y-65285714D01*
X161305057Y-66238095D02*
X161257438Y-66285714D01*
X161257438Y-66285714D02*
X161209819Y-66380952D01*
X161209819Y-66380952D02*
X161209819Y-66619047D01*
X161209819Y-66619047D02*
X161257438Y-66714285D01*
X161257438Y-66714285D02*
X161305057Y-66761904D01*
X161305057Y-66761904D02*
X161400295Y-66809523D01*
X161400295Y-66809523D02*
X161495533Y-66809523D01*
X161495533Y-66809523D02*
X161638390Y-66761904D01*
X161638390Y-66761904D02*
X162209819Y-66190476D01*
X162209819Y-66190476D02*
X162209819Y-66809523D01*
X162209819Y-67761904D02*
X162209819Y-67190476D01*
X162209819Y-67476190D02*
X161209819Y-67476190D01*
X161209819Y-67476190D02*
X161352676Y-67380952D01*
X161352676Y-67380952D02*
X161447914Y-67285714D01*
X161447914Y-67285714D02*
X161495533Y-67190476D01*
X162529819Y-62428095D02*
X161529819Y-62428095D01*
X162529819Y-62999523D02*
X161958390Y-62570952D01*
X161529819Y-62999523D02*
X162101247Y-62428095D01*
X214459819Y-84285714D02*
X213459819Y-84285714D01*
X213459819Y-84285714D02*
X213459819Y-84523809D01*
X213459819Y-84523809D02*
X213507438Y-84666666D01*
X213507438Y-84666666D02*
X213602676Y-84761904D01*
X213602676Y-84761904D02*
X213697914Y-84809523D01*
X213697914Y-84809523D02*
X213888390Y-84857142D01*
X213888390Y-84857142D02*
X214031247Y-84857142D01*
X214031247Y-84857142D02*
X214221723Y-84809523D01*
X214221723Y-84809523D02*
X214316961Y-84761904D01*
X214316961Y-84761904D02*
X214412200Y-84666666D01*
X214412200Y-84666666D02*
X214459819Y-84523809D01*
X214459819Y-84523809D02*
X214459819Y-84285714D01*
X213459819Y-85190476D02*
X213459819Y-85809523D01*
X213459819Y-85809523D02*
X213840771Y-85476190D01*
X213840771Y-85476190D02*
X213840771Y-85619047D01*
X213840771Y-85619047D02*
X213888390Y-85714285D01*
X213888390Y-85714285D02*
X213936009Y-85761904D01*
X213936009Y-85761904D02*
X214031247Y-85809523D01*
X214031247Y-85809523D02*
X214269342Y-85809523D01*
X214269342Y-85809523D02*
X214364580Y-85761904D01*
X214364580Y-85761904D02*
X214412200Y-85714285D01*
X214412200Y-85714285D02*
X214459819Y-85619047D01*
X214459819Y-85619047D02*
X214459819Y-85333333D01*
X214459819Y-85333333D02*
X214412200Y-85238095D01*
X214412200Y-85238095D02*
X214364580Y-85190476D01*
X213459819Y-86428571D02*
X213459819Y-86523809D01*
X213459819Y-86523809D02*
X213507438Y-86619047D01*
X213507438Y-86619047D02*
X213555057Y-86666666D01*
X213555057Y-86666666D02*
X213650295Y-86714285D01*
X213650295Y-86714285D02*
X213840771Y-86761904D01*
X213840771Y-86761904D02*
X214078866Y-86761904D01*
X214078866Y-86761904D02*
X214269342Y-86714285D01*
X214269342Y-86714285D02*
X214364580Y-86666666D01*
X214364580Y-86666666D02*
X214412200Y-86619047D01*
X214412200Y-86619047D02*
X214459819Y-86523809D01*
X214459819Y-86523809D02*
X214459819Y-86428571D01*
X214459819Y-86428571D02*
X214412200Y-86333333D01*
X214412200Y-86333333D02*
X214364580Y-86285714D01*
X214364580Y-86285714D02*
X214269342Y-86238095D01*
X214269342Y-86238095D02*
X214078866Y-86190476D01*
X214078866Y-86190476D02*
X213840771Y-86190476D01*
X213840771Y-86190476D02*
X213650295Y-86238095D01*
X213650295Y-86238095D02*
X213555057Y-86285714D01*
X213555057Y-86285714D02*
X213507438Y-86333333D01*
X213507438Y-86333333D02*
X213459819Y-86428571D01*
X214779819Y-81428095D02*
X213779819Y-81428095D01*
X214779819Y-81999523D02*
X214208390Y-81570952D01*
X213779819Y-81999523D02*
X214351247Y-81428095D01*
X154829819Y-90635714D02*
X153829819Y-90635714D01*
X153829819Y-90635714D02*
X153829819Y-90873809D01*
X153829819Y-90873809D02*
X153877438Y-91016666D01*
X153877438Y-91016666D02*
X153972676Y-91111904D01*
X153972676Y-91111904D02*
X154067914Y-91159523D01*
X154067914Y-91159523D02*
X154258390Y-91207142D01*
X154258390Y-91207142D02*
X154401247Y-91207142D01*
X154401247Y-91207142D02*
X154591723Y-91159523D01*
X154591723Y-91159523D02*
X154686961Y-91111904D01*
X154686961Y-91111904D02*
X154782200Y-91016666D01*
X154782200Y-91016666D02*
X154829819Y-90873809D01*
X154829819Y-90873809D02*
X154829819Y-90635714D01*
X153925057Y-91588095D02*
X153877438Y-91635714D01*
X153877438Y-91635714D02*
X153829819Y-91730952D01*
X153829819Y-91730952D02*
X153829819Y-91969047D01*
X153829819Y-91969047D02*
X153877438Y-92064285D01*
X153877438Y-92064285D02*
X153925057Y-92111904D01*
X153925057Y-92111904D02*
X154020295Y-92159523D01*
X154020295Y-92159523D02*
X154115533Y-92159523D01*
X154115533Y-92159523D02*
X154258390Y-92111904D01*
X154258390Y-92111904D02*
X154829819Y-91540476D01*
X154829819Y-91540476D02*
X154829819Y-92159523D01*
X154258390Y-92730952D02*
X154210771Y-92635714D01*
X154210771Y-92635714D02*
X154163152Y-92588095D01*
X154163152Y-92588095D02*
X154067914Y-92540476D01*
X154067914Y-92540476D02*
X154020295Y-92540476D01*
X154020295Y-92540476D02*
X153925057Y-92588095D01*
X153925057Y-92588095D02*
X153877438Y-92635714D01*
X153877438Y-92635714D02*
X153829819Y-92730952D01*
X153829819Y-92730952D02*
X153829819Y-92921428D01*
X153829819Y-92921428D02*
X153877438Y-93016666D01*
X153877438Y-93016666D02*
X153925057Y-93064285D01*
X153925057Y-93064285D02*
X154020295Y-93111904D01*
X154020295Y-93111904D02*
X154067914Y-93111904D01*
X154067914Y-93111904D02*
X154163152Y-93064285D01*
X154163152Y-93064285D02*
X154210771Y-93016666D01*
X154210771Y-93016666D02*
X154258390Y-92921428D01*
X154258390Y-92921428D02*
X154258390Y-92730952D01*
X154258390Y-92730952D02*
X154306009Y-92635714D01*
X154306009Y-92635714D02*
X154353628Y-92588095D01*
X154353628Y-92588095D02*
X154448866Y-92540476D01*
X154448866Y-92540476D02*
X154639342Y-92540476D01*
X154639342Y-92540476D02*
X154734580Y-92588095D01*
X154734580Y-92588095D02*
X154782200Y-92635714D01*
X154782200Y-92635714D02*
X154829819Y-92730952D01*
X154829819Y-92730952D02*
X154829819Y-92921428D01*
X154829819Y-92921428D02*
X154782200Y-93016666D01*
X154782200Y-93016666D02*
X154734580Y-93064285D01*
X154734580Y-93064285D02*
X154639342Y-93111904D01*
X154639342Y-93111904D02*
X154448866Y-93111904D01*
X154448866Y-93111904D02*
X154353628Y-93064285D01*
X154353628Y-93064285D02*
X154306009Y-93016666D01*
X154306009Y-93016666D02*
X154258390Y-92921428D01*
X100569819Y-46761905D02*
X99569819Y-46761905D01*
X99569819Y-46761905D02*
X99569819Y-47000000D01*
X99569819Y-47000000D02*
X99617438Y-47142857D01*
X99617438Y-47142857D02*
X99712676Y-47238095D01*
X99712676Y-47238095D02*
X99807914Y-47285714D01*
X99807914Y-47285714D02*
X99998390Y-47333333D01*
X99998390Y-47333333D02*
X100141247Y-47333333D01*
X100141247Y-47333333D02*
X100331723Y-47285714D01*
X100331723Y-47285714D02*
X100426961Y-47238095D01*
X100426961Y-47238095D02*
X100522200Y-47142857D01*
X100522200Y-47142857D02*
X100569819Y-47000000D01*
X100569819Y-47000000D02*
X100569819Y-46761905D01*
X99569819Y-47666667D02*
X99569819Y-48285714D01*
X99569819Y-48285714D02*
X99950771Y-47952381D01*
X99950771Y-47952381D02*
X99950771Y-48095238D01*
X99950771Y-48095238D02*
X99998390Y-48190476D01*
X99998390Y-48190476D02*
X100046009Y-48238095D01*
X100046009Y-48238095D02*
X100141247Y-48285714D01*
X100141247Y-48285714D02*
X100379342Y-48285714D01*
X100379342Y-48285714D02*
X100474580Y-48238095D01*
X100474580Y-48238095D02*
X100522200Y-48190476D01*
X100522200Y-48190476D02*
X100569819Y-48095238D01*
X100569819Y-48095238D02*
X100569819Y-47809524D01*
X100569819Y-47809524D02*
X100522200Y-47714286D01*
X100522200Y-47714286D02*
X100474580Y-47666667D01*
X100889819Y-43428095D02*
X99889819Y-43428095D01*
X100889819Y-43999523D02*
X100318390Y-43570952D01*
X99889819Y-43999523D02*
X100461247Y-43428095D01*
X219209819Y-103285714D02*
X218209819Y-103285714D01*
X218209819Y-103285714D02*
X218209819Y-103523809D01*
X218209819Y-103523809D02*
X218257438Y-103666666D01*
X218257438Y-103666666D02*
X218352676Y-103761904D01*
X218352676Y-103761904D02*
X218447914Y-103809523D01*
X218447914Y-103809523D02*
X218638390Y-103857142D01*
X218638390Y-103857142D02*
X218781247Y-103857142D01*
X218781247Y-103857142D02*
X218971723Y-103809523D01*
X218971723Y-103809523D02*
X219066961Y-103761904D01*
X219066961Y-103761904D02*
X219162200Y-103666666D01*
X219162200Y-103666666D02*
X219209819Y-103523809D01*
X219209819Y-103523809D02*
X219209819Y-103285714D01*
X218209819Y-104190476D02*
X218209819Y-104809523D01*
X218209819Y-104809523D02*
X218590771Y-104476190D01*
X218590771Y-104476190D02*
X218590771Y-104619047D01*
X218590771Y-104619047D02*
X218638390Y-104714285D01*
X218638390Y-104714285D02*
X218686009Y-104761904D01*
X218686009Y-104761904D02*
X218781247Y-104809523D01*
X218781247Y-104809523D02*
X219019342Y-104809523D01*
X219019342Y-104809523D02*
X219114580Y-104761904D01*
X219114580Y-104761904D02*
X219162200Y-104714285D01*
X219162200Y-104714285D02*
X219209819Y-104619047D01*
X219209819Y-104619047D02*
X219209819Y-104333333D01*
X219209819Y-104333333D02*
X219162200Y-104238095D01*
X219162200Y-104238095D02*
X219114580Y-104190476D01*
X218638390Y-105380952D02*
X218590771Y-105285714D01*
X218590771Y-105285714D02*
X218543152Y-105238095D01*
X218543152Y-105238095D02*
X218447914Y-105190476D01*
X218447914Y-105190476D02*
X218400295Y-105190476D01*
X218400295Y-105190476D02*
X218305057Y-105238095D01*
X218305057Y-105238095D02*
X218257438Y-105285714D01*
X218257438Y-105285714D02*
X218209819Y-105380952D01*
X218209819Y-105380952D02*
X218209819Y-105571428D01*
X218209819Y-105571428D02*
X218257438Y-105666666D01*
X218257438Y-105666666D02*
X218305057Y-105714285D01*
X218305057Y-105714285D02*
X218400295Y-105761904D01*
X218400295Y-105761904D02*
X218447914Y-105761904D01*
X218447914Y-105761904D02*
X218543152Y-105714285D01*
X218543152Y-105714285D02*
X218590771Y-105666666D01*
X218590771Y-105666666D02*
X218638390Y-105571428D01*
X218638390Y-105571428D02*
X218638390Y-105380952D01*
X218638390Y-105380952D02*
X218686009Y-105285714D01*
X218686009Y-105285714D02*
X218733628Y-105238095D01*
X218733628Y-105238095D02*
X218828866Y-105190476D01*
X218828866Y-105190476D02*
X219019342Y-105190476D01*
X219019342Y-105190476D02*
X219114580Y-105238095D01*
X219114580Y-105238095D02*
X219162200Y-105285714D01*
X219162200Y-105285714D02*
X219209819Y-105380952D01*
X219209819Y-105380952D02*
X219209819Y-105571428D01*
X219209819Y-105571428D02*
X219162200Y-105666666D01*
X219162200Y-105666666D02*
X219114580Y-105714285D01*
X219114580Y-105714285D02*
X219019342Y-105761904D01*
X219019342Y-105761904D02*
X218828866Y-105761904D01*
X218828866Y-105761904D02*
X218733628Y-105714285D01*
X218733628Y-105714285D02*
X218686009Y-105666666D01*
X218686009Y-105666666D02*
X218638390Y-105571428D01*
X219529819Y-100428095D02*
X218529819Y-100428095D01*
X219529819Y-100999523D02*
X218958390Y-100570952D01*
X218529819Y-100999523D02*
X219101247Y-100428095D01*
X143209819Y-65285714D02*
X142209819Y-65285714D01*
X142209819Y-65285714D02*
X142209819Y-65523809D01*
X142209819Y-65523809D02*
X142257438Y-65666666D01*
X142257438Y-65666666D02*
X142352676Y-65761904D01*
X142352676Y-65761904D02*
X142447914Y-65809523D01*
X142447914Y-65809523D02*
X142638390Y-65857142D01*
X142638390Y-65857142D02*
X142781247Y-65857142D01*
X142781247Y-65857142D02*
X142971723Y-65809523D01*
X142971723Y-65809523D02*
X143066961Y-65761904D01*
X143066961Y-65761904D02*
X143162200Y-65666666D01*
X143162200Y-65666666D02*
X143209819Y-65523809D01*
X143209819Y-65523809D02*
X143209819Y-65285714D01*
X143209819Y-66809523D02*
X143209819Y-66238095D01*
X143209819Y-66523809D02*
X142209819Y-66523809D01*
X142209819Y-66523809D02*
X142352676Y-66428571D01*
X142352676Y-66428571D02*
X142447914Y-66333333D01*
X142447914Y-66333333D02*
X142495533Y-66238095D01*
X142305057Y-67190476D02*
X142257438Y-67238095D01*
X142257438Y-67238095D02*
X142209819Y-67333333D01*
X142209819Y-67333333D02*
X142209819Y-67571428D01*
X142209819Y-67571428D02*
X142257438Y-67666666D01*
X142257438Y-67666666D02*
X142305057Y-67714285D01*
X142305057Y-67714285D02*
X142400295Y-67761904D01*
X142400295Y-67761904D02*
X142495533Y-67761904D01*
X142495533Y-67761904D02*
X142638390Y-67714285D01*
X142638390Y-67714285D02*
X143209819Y-67142857D01*
X143209819Y-67142857D02*
X143209819Y-67761904D01*
X143529819Y-62428095D02*
X142529819Y-62428095D01*
X143529819Y-62999523D02*
X142958390Y-62570952D01*
X142529819Y-62999523D02*
X143101247Y-62428095D01*
X45834819Y-65761905D02*
X44834819Y-65761905D01*
X44834819Y-65761905D02*
X44834819Y-66000000D01*
X44834819Y-66000000D02*
X44882438Y-66142857D01*
X44882438Y-66142857D02*
X44977676Y-66238095D01*
X44977676Y-66238095D02*
X45072914Y-66285714D01*
X45072914Y-66285714D02*
X45263390Y-66333333D01*
X45263390Y-66333333D02*
X45406247Y-66333333D01*
X45406247Y-66333333D02*
X45596723Y-66285714D01*
X45596723Y-66285714D02*
X45691961Y-66238095D01*
X45691961Y-66238095D02*
X45787200Y-66142857D01*
X45787200Y-66142857D02*
X45834819Y-66000000D01*
X45834819Y-66000000D02*
X45834819Y-65761905D01*
X45834819Y-66809524D02*
X45834819Y-67000000D01*
X45834819Y-67000000D02*
X45787200Y-67095238D01*
X45787200Y-67095238D02*
X45739580Y-67142857D01*
X45739580Y-67142857D02*
X45596723Y-67238095D01*
X45596723Y-67238095D02*
X45406247Y-67285714D01*
X45406247Y-67285714D02*
X45025295Y-67285714D01*
X45025295Y-67285714D02*
X44930057Y-67238095D01*
X44930057Y-67238095D02*
X44882438Y-67190476D01*
X44882438Y-67190476D02*
X44834819Y-67095238D01*
X44834819Y-67095238D02*
X44834819Y-66904762D01*
X44834819Y-66904762D02*
X44882438Y-66809524D01*
X44882438Y-66809524D02*
X44930057Y-66761905D01*
X44930057Y-66761905D02*
X45025295Y-66714286D01*
X45025295Y-66714286D02*
X45263390Y-66714286D01*
X45263390Y-66714286D02*
X45358628Y-66761905D01*
X45358628Y-66761905D02*
X45406247Y-66809524D01*
X45406247Y-66809524D02*
X45453866Y-66904762D01*
X45453866Y-66904762D02*
X45453866Y-67095238D01*
X45453866Y-67095238D02*
X45406247Y-67190476D01*
X45406247Y-67190476D02*
X45358628Y-67238095D01*
X45358628Y-67238095D02*
X45263390Y-67285714D01*
X46154819Y-62428095D02*
X45154819Y-62428095D01*
X46154819Y-62999523D02*
X45583390Y-62570952D01*
X45154819Y-62999523D02*
X45726247Y-62428095D01*
X116829819Y-90635714D02*
X115829819Y-90635714D01*
X115829819Y-90635714D02*
X115829819Y-90873809D01*
X115829819Y-90873809D02*
X115877438Y-91016666D01*
X115877438Y-91016666D02*
X115972676Y-91111904D01*
X115972676Y-91111904D02*
X116067914Y-91159523D01*
X116067914Y-91159523D02*
X116258390Y-91207142D01*
X116258390Y-91207142D02*
X116401247Y-91207142D01*
X116401247Y-91207142D02*
X116591723Y-91159523D01*
X116591723Y-91159523D02*
X116686961Y-91111904D01*
X116686961Y-91111904D02*
X116782200Y-91016666D01*
X116782200Y-91016666D02*
X116829819Y-90873809D01*
X116829819Y-90873809D02*
X116829819Y-90635714D01*
X115829819Y-91540476D02*
X115829819Y-92159523D01*
X115829819Y-92159523D02*
X116210771Y-91826190D01*
X116210771Y-91826190D02*
X116210771Y-91969047D01*
X116210771Y-91969047D02*
X116258390Y-92064285D01*
X116258390Y-92064285D02*
X116306009Y-92111904D01*
X116306009Y-92111904D02*
X116401247Y-92159523D01*
X116401247Y-92159523D02*
X116639342Y-92159523D01*
X116639342Y-92159523D02*
X116734580Y-92111904D01*
X116734580Y-92111904D02*
X116782200Y-92064285D01*
X116782200Y-92064285D02*
X116829819Y-91969047D01*
X116829819Y-91969047D02*
X116829819Y-91683333D01*
X116829819Y-91683333D02*
X116782200Y-91588095D01*
X116782200Y-91588095D02*
X116734580Y-91540476D01*
X115829819Y-93064285D02*
X115829819Y-92588095D01*
X115829819Y-92588095D02*
X116306009Y-92540476D01*
X116306009Y-92540476D02*
X116258390Y-92588095D01*
X116258390Y-92588095D02*
X116210771Y-92683333D01*
X116210771Y-92683333D02*
X116210771Y-92921428D01*
X116210771Y-92921428D02*
X116258390Y-93016666D01*
X116258390Y-93016666D02*
X116306009Y-93064285D01*
X116306009Y-93064285D02*
X116401247Y-93111904D01*
X116401247Y-93111904D02*
X116639342Y-93111904D01*
X116639342Y-93111904D02*
X116734580Y-93064285D01*
X116734580Y-93064285D02*
X116782200Y-93016666D01*
X116782200Y-93016666D02*
X116829819Y-92921428D01*
X116829819Y-92921428D02*
X116829819Y-92683333D01*
X116829819Y-92683333D02*
X116782200Y-92588095D01*
X116782200Y-92588095D02*
X116734580Y-92540476D01*
X117464819Y-79523095D02*
X116464819Y-79523095D01*
X117464819Y-80094523D02*
X116893390Y-79665952D01*
X116464819Y-80094523D02*
X117036247Y-79523095D01*
X67209819Y-65285714D02*
X66209819Y-65285714D01*
X66209819Y-65285714D02*
X66209819Y-65523809D01*
X66209819Y-65523809D02*
X66257438Y-65666666D01*
X66257438Y-65666666D02*
X66352676Y-65761904D01*
X66352676Y-65761904D02*
X66447914Y-65809523D01*
X66447914Y-65809523D02*
X66638390Y-65857142D01*
X66638390Y-65857142D02*
X66781247Y-65857142D01*
X66781247Y-65857142D02*
X66971723Y-65809523D01*
X66971723Y-65809523D02*
X67066961Y-65761904D01*
X67066961Y-65761904D02*
X67162200Y-65666666D01*
X67162200Y-65666666D02*
X67209819Y-65523809D01*
X67209819Y-65523809D02*
X67209819Y-65285714D01*
X67209819Y-66809523D02*
X67209819Y-66238095D01*
X67209819Y-66523809D02*
X66209819Y-66523809D01*
X66209819Y-66523809D02*
X66352676Y-66428571D01*
X66352676Y-66428571D02*
X66447914Y-66333333D01*
X66447914Y-66333333D02*
X66495533Y-66238095D01*
X66638390Y-67380952D02*
X66590771Y-67285714D01*
X66590771Y-67285714D02*
X66543152Y-67238095D01*
X66543152Y-67238095D02*
X66447914Y-67190476D01*
X66447914Y-67190476D02*
X66400295Y-67190476D01*
X66400295Y-67190476D02*
X66305057Y-67238095D01*
X66305057Y-67238095D02*
X66257438Y-67285714D01*
X66257438Y-67285714D02*
X66209819Y-67380952D01*
X66209819Y-67380952D02*
X66209819Y-67571428D01*
X66209819Y-67571428D02*
X66257438Y-67666666D01*
X66257438Y-67666666D02*
X66305057Y-67714285D01*
X66305057Y-67714285D02*
X66400295Y-67761904D01*
X66400295Y-67761904D02*
X66447914Y-67761904D01*
X66447914Y-67761904D02*
X66543152Y-67714285D01*
X66543152Y-67714285D02*
X66590771Y-67666666D01*
X66590771Y-67666666D02*
X66638390Y-67571428D01*
X66638390Y-67571428D02*
X66638390Y-67380952D01*
X66638390Y-67380952D02*
X66686009Y-67285714D01*
X66686009Y-67285714D02*
X66733628Y-67238095D01*
X66733628Y-67238095D02*
X66828866Y-67190476D01*
X66828866Y-67190476D02*
X67019342Y-67190476D01*
X67019342Y-67190476D02*
X67114580Y-67238095D01*
X67114580Y-67238095D02*
X67162200Y-67285714D01*
X67162200Y-67285714D02*
X67209819Y-67380952D01*
X67209819Y-67380952D02*
X67209819Y-67571428D01*
X67209819Y-67571428D02*
X67162200Y-67666666D01*
X67162200Y-67666666D02*
X67114580Y-67714285D01*
X67114580Y-67714285D02*
X67019342Y-67761904D01*
X67019342Y-67761904D02*
X66828866Y-67761904D01*
X66828866Y-67761904D02*
X66733628Y-67714285D01*
X66733628Y-67714285D02*
X66686009Y-67666666D01*
X66686009Y-67666666D02*
X66638390Y-67571428D01*
X67529819Y-62428095D02*
X66529819Y-62428095D01*
X67529819Y-62999523D02*
X66958390Y-62570952D01*
X66529819Y-62999523D02*
X67101247Y-62428095D01*
X150334819Y-103285714D02*
X149334819Y-103285714D01*
X149334819Y-103285714D02*
X149334819Y-103523809D01*
X149334819Y-103523809D02*
X149382438Y-103666666D01*
X149382438Y-103666666D02*
X149477676Y-103761904D01*
X149477676Y-103761904D02*
X149572914Y-103809523D01*
X149572914Y-103809523D02*
X149763390Y-103857142D01*
X149763390Y-103857142D02*
X149906247Y-103857142D01*
X149906247Y-103857142D02*
X150096723Y-103809523D01*
X150096723Y-103809523D02*
X150191961Y-103761904D01*
X150191961Y-103761904D02*
X150287200Y-103666666D01*
X150287200Y-103666666D02*
X150334819Y-103523809D01*
X150334819Y-103523809D02*
X150334819Y-103285714D01*
X149334819Y-104190476D02*
X149334819Y-104809523D01*
X149334819Y-104809523D02*
X149715771Y-104476190D01*
X149715771Y-104476190D02*
X149715771Y-104619047D01*
X149715771Y-104619047D02*
X149763390Y-104714285D01*
X149763390Y-104714285D02*
X149811009Y-104761904D01*
X149811009Y-104761904D02*
X149906247Y-104809523D01*
X149906247Y-104809523D02*
X150144342Y-104809523D01*
X150144342Y-104809523D02*
X150239580Y-104761904D01*
X150239580Y-104761904D02*
X150287200Y-104714285D01*
X150287200Y-104714285D02*
X150334819Y-104619047D01*
X150334819Y-104619047D02*
X150334819Y-104333333D01*
X150334819Y-104333333D02*
X150287200Y-104238095D01*
X150287200Y-104238095D02*
X150239580Y-104190476D01*
X149334819Y-105666666D02*
X149334819Y-105476190D01*
X149334819Y-105476190D02*
X149382438Y-105380952D01*
X149382438Y-105380952D02*
X149430057Y-105333333D01*
X149430057Y-105333333D02*
X149572914Y-105238095D01*
X149572914Y-105238095D02*
X149763390Y-105190476D01*
X149763390Y-105190476D02*
X150144342Y-105190476D01*
X150144342Y-105190476D02*
X150239580Y-105238095D01*
X150239580Y-105238095D02*
X150287200Y-105285714D01*
X150287200Y-105285714D02*
X150334819Y-105380952D01*
X150334819Y-105380952D02*
X150334819Y-105571428D01*
X150334819Y-105571428D02*
X150287200Y-105666666D01*
X150287200Y-105666666D02*
X150239580Y-105714285D01*
X150239580Y-105714285D02*
X150144342Y-105761904D01*
X150144342Y-105761904D02*
X149906247Y-105761904D01*
X149906247Y-105761904D02*
X149811009Y-105714285D01*
X149811009Y-105714285D02*
X149763390Y-105666666D01*
X149763390Y-105666666D02*
X149715771Y-105571428D01*
X149715771Y-105571428D02*
X149715771Y-105380952D01*
X149715771Y-105380952D02*
X149763390Y-105285714D01*
X149763390Y-105285714D02*
X149811009Y-105238095D01*
X149811009Y-105238095D02*
X149906247Y-105190476D01*
X150654819Y-100428095D02*
X149654819Y-100428095D01*
X150654819Y-100999523D02*
X150083390Y-100570952D01*
X149654819Y-100999523D02*
X150226247Y-100428095D01*
X45834819Y-103285714D02*
X44834819Y-103285714D01*
X44834819Y-103285714D02*
X44834819Y-103523809D01*
X44834819Y-103523809D02*
X44882438Y-103666666D01*
X44882438Y-103666666D02*
X44977676Y-103761904D01*
X44977676Y-103761904D02*
X45072914Y-103809523D01*
X45072914Y-103809523D02*
X45263390Y-103857142D01*
X45263390Y-103857142D02*
X45406247Y-103857142D01*
X45406247Y-103857142D02*
X45596723Y-103809523D01*
X45596723Y-103809523D02*
X45691961Y-103761904D01*
X45691961Y-103761904D02*
X45787200Y-103666666D01*
X45787200Y-103666666D02*
X45834819Y-103523809D01*
X45834819Y-103523809D02*
X45834819Y-103285714D01*
X44834819Y-104190476D02*
X44834819Y-104809523D01*
X44834819Y-104809523D02*
X45215771Y-104476190D01*
X45215771Y-104476190D02*
X45215771Y-104619047D01*
X45215771Y-104619047D02*
X45263390Y-104714285D01*
X45263390Y-104714285D02*
X45311009Y-104761904D01*
X45311009Y-104761904D02*
X45406247Y-104809523D01*
X45406247Y-104809523D02*
X45644342Y-104809523D01*
X45644342Y-104809523D02*
X45739580Y-104761904D01*
X45739580Y-104761904D02*
X45787200Y-104714285D01*
X45787200Y-104714285D02*
X45834819Y-104619047D01*
X45834819Y-104619047D02*
X45834819Y-104333333D01*
X45834819Y-104333333D02*
X45787200Y-104238095D01*
X45787200Y-104238095D02*
X45739580Y-104190476D01*
X44834819Y-105142857D02*
X44834819Y-105761904D01*
X44834819Y-105761904D02*
X45215771Y-105428571D01*
X45215771Y-105428571D02*
X45215771Y-105571428D01*
X45215771Y-105571428D02*
X45263390Y-105666666D01*
X45263390Y-105666666D02*
X45311009Y-105714285D01*
X45311009Y-105714285D02*
X45406247Y-105761904D01*
X45406247Y-105761904D02*
X45644342Y-105761904D01*
X45644342Y-105761904D02*
X45739580Y-105714285D01*
X45739580Y-105714285D02*
X45787200Y-105666666D01*
X45787200Y-105666666D02*
X45834819Y-105571428D01*
X45834819Y-105571428D02*
X45834819Y-105285714D01*
X45834819Y-105285714D02*
X45787200Y-105190476D01*
X45787200Y-105190476D02*
X45739580Y-105142857D01*
X46154819Y-100428095D02*
X45154819Y-100428095D01*
X46154819Y-100999523D02*
X45583390Y-100570952D01*
X45154819Y-100999523D02*
X45726247Y-100428095D01*
X233459819Y-46285714D02*
X232459819Y-46285714D01*
X232459819Y-46285714D02*
X232459819Y-46523809D01*
X232459819Y-46523809D02*
X232507438Y-46666666D01*
X232507438Y-46666666D02*
X232602676Y-46761904D01*
X232602676Y-46761904D02*
X232697914Y-46809523D01*
X232697914Y-46809523D02*
X232888390Y-46857142D01*
X232888390Y-46857142D02*
X233031247Y-46857142D01*
X233031247Y-46857142D02*
X233221723Y-46809523D01*
X233221723Y-46809523D02*
X233316961Y-46761904D01*
X233316961Y-46761904D02*
X233412200Y-46666666D01*
X233412200Y-46666666D02*
X233459819Y-46523809D01*
X233459819Y-46523809D02*
X233459819Y-46285714D01*
X233459819Y-47809523D02*
X233459819Y-47238095D01*
X233459819Y-47523809D02*
X232459819Y-47523809D01*
X232459819Y-47523809D02*
X232602676Y-47428571D01*
X232602676Y-47428571D02*
X232697914Y-47333333D01*
X232697914Y-47333333D02*
X232745533Y-47238095D01*
X232459819Y-48666666D02*
X232459819Y-48476190D01*
X232459819Y-48476190D02*
X232507438Y-48380952D01*
X232507438Y-48380952D02*
X232555057Y-48333333D01*
X232555057Y-48333333D02*
X232697914Y-48238095D01*
X232697914Y-48238095D02*
X232888390Y-48190476D01*
X232888390Y-48190476D02*
X233269342Y-48190476D01*
X233269342Y-48190476D02*
X233364580Y-48238095D01*
X233364580Y-48238095D02*
X233412200Y-48285714D01*
X233412200Y-48285714D02*
X233459819Y-48380952D01*
X233459819Y-48380952D02*
X233459819Y-48571428D01*
X233459819Y-48571428D02*
X233412200Y-48666666D01*
X233412200Y-48666666D02*
X233364580Y-48714285D01*
X233364580Y-48714285D02*
X233269342Y-48761904D01*
X233269342Y-48761904D02*
X233031247Y-48761904D01*
X233031247Y-48761904D02*
X232936009Y-48714285D01*
X232936009Y-48714285D02*
X232888390Y-48666666D01*
X232888390Y-48666666D02*
X232840771Y-48571428D01*
X232840771Y-48571428D02*
X232840771Y-48380952D01*
X232840771Y-48380952D02*
X232888390Y-48285714D01*
X232888390Y-48285714D02*
X232936009Y-48238095D01*
X232936009Y-48238095D02*
X233031247Y-48190476D01*
X233779819Y-43428095D02*
X232779819Y-43428095D01*
X233779819Y-43999523D02*
X233208390Y-43570952D01*
X232779819Y-43999523D02*
X233351247Y-43428095D01*
X138669819Y-46761905D02*
X137669819Y-46761905D01*
X137669819Y-46761905D02*
X137669819Y-47000000D01*
X137669819Y-47000000D02*
X137717438Y-47142857D01*
X137717438Y-47142857D02*
X137812676Y-47238095D01*
X137812676Y-47238095D02*
X137907914Y-47285714D01*
X137907914Y-47285714D02*
X138098390Y-47333333D01*
X138098390Y-47333333D02*
X138241247Y-47333333D01*
X138241247Y-47333333D02*
X138431723Y-47285714D01*
X138431723Y-47285714D02*
X138526961Y-47238095D01*
X138526961Y-47238095D02*
X138622200Y-47142857D01*
X138622200Y-47142857D02*
X138669819Y-47000000D01*
X138669819Y-47000000D02*
X138669819Y-46761905D01*
X137669819Y-48238095D02*
X137669819Y-47761905D01*
X137669819Y-47761905D02*
X138146009Y-47714286D01*
X138146009Y-47714286D02*
X138098390Y-47761905D01*
X138098390Y-47761905D02*
X138050771Y-47857143D01*
X138050771Y-47857143D02*
X138050771Y-48095238D01*
X138050771Y-48095238D02*
X138098390Y-48190476D01*
X138098390Y-48190476D02*
X138146009Y-48238095D01*
X138146009Y-48238095D02*
X138241247Y-48285714D01*
X138241247Y-48285714D02*
X138479342Y-48285714D01*
X138479342Y-48285714D02*
X138574580Y-48238095D01*
X138574580Y-48238095D02*
X138622200Y-48190476D01*
X138622200Y-48190476D02*
X138669819Y-48095238D01*
X138669819Y-48095238D02*
X138669819Y-47857143D01*
X138669819Y-47857143D02*
X138622200Y-47761905D01*
X138622200Y-47761905D02*
X138574580Y-47714286D01*
X138989819Y-43428095D02*
X137989819Y-43428095D01*
X138989819Y-43999523D02*
X138418390Y-43570952D01*
X137989819Y-43999523D02*
X138561247Y-43428095D01*
X214459819Y-46761905D02*
X213459819Y-46761905D01*
X213459819Y-46761905D02*
X213459819Y-47000000D01*
X213459819Y-47000000D02*
X213507438Y-47142857D01*
X213507438Y-47142857D02*
X213602676Y-47238095D01*
X213602676Y-47238095D02*
X213697914Y-47285714D01*
X213697914Y-47285714D02*
X213888390Y-47333333D01*
X213888390Y-47333333D02*
X214031247Y-47333333D01*
X214031247Y-47333333D02*
X214221723Y-47285714D01*
X214221723Y-47285714D02*
X214316961Y-47238095D01*
X214316961Y-47238095D02*
X214412200Y-47142857D01*
X214412200Y-47142857D02*
X214459819Y-47000000D01*
X214459819Y-47000000D02*
X214459819Y-46761905D01*
X213888390Y-47904762D02*
X213840771Y-47809524D01*
X213840771Y-47809524D02*
X213793152Y-47761905D01*
X213793152Y-47761905D02*
X213697914Y-47714286D01*
X213697914Y-47714286D02*
X213650295Y-47714286D01*
X213650295Y-47714286D02*
X213555057Y-47761905D01*
X213555057Y-47761905D02*
X213507438Y-47809524D01*
X213507438Y-47809524D02*
X213459819Y-47904762D01*
X213459819Y-47904762D02*
X213459819Y-48095238D01*
X213459819Y-48095238D02*
X213507438Y-48190476D01*
X213507438Y-48190476D02*
X213555057Y-48238095D01*
X213555057Y-48238095D02*
X213650295Y-48285714D01*
X213650295Y-48285714D02*
X213697914Y-48285714D01*
X213697914Y-48285714D02*
X213793152Y-48238095D01*
X213793152Y-48238095D02*
X213840771Y-48190476D01*
X213840771Y-48190476D02*
X213888390Y-48095238D01*
X213888390Y-48095238D02*
X213888390Y-47904762D01*
X213888390Y-47904762D02*
X213936009Y-47809524D01*
X213936009Y-47809524D02*
X213983628Y-47761905D01*
X213983628Y-47761905D02*
X214078866Y-47714286D01*
X214078866Y-47714286D02*
X214269342Y-47714286D01*
X214269342Y-47714286D02*
X214364580Y-47761905D01*
X214364580Y-47761905D02*
X214412200Y-47809524D01*
X214412200Y-47809524D02*
X214459819Y-47904762D01*
X214459819Y-47904762D02*
X214459819Y-48095238D01*
X214459819Y-48095238D02*
X214412200Y-48190476D01*
X214412200Y-48190476D02*
X214364580Y-48238095D01*
X214364580Y-48238095D02*
X214269342Y-48285714D01*
X214269342Y-48285714D02*
X214078866Y-48285714D01*
X214078866Y-48285714D02*
X213983628Y-48238095D01*
X213983628Y-48238095D02*
X213936009Y-48190476D01*
X213936009Y-48190476D02*
X213888390Y-48095238D01*
X214779819Y-43428095D02*
X213779819Y-43428095D01*
X214779819Y-43999523D02*
X214208390Y-43570952D01*
X213779819Y-43999523D02*
X214351247Y-43428095D01*
X157459819Y-46285714D02*
X156459819Y-46285714D01*
X156459819Y-46285714D02*
X156459819Y-46523809D01*
X156459819Y-46523809D02*
X156507438Y-46666666D01*
X156507438Y-46666666D02*
X156602676Y-46761904D01*
X156602676Y-46761904D02*
X156697914Y-46809523D01*
X156697914Y-46809523D02*
X156888390Y-46857142D01*
X156888390Y-46857142D02*
X157031247Y-46857142D01*
X157031247Y-46857142D02*
X157221723Y-46809523D01*
X157221723Y-46809523D02*
X157316961Y-46761904D01*
X157316961Y-46761904D02*
X157412200Y-46666666D01*
X157412200Y-46666666D02*
X157459819Y-46523809D01*
X157459819Y-46523809D02*
X157459819Y-46285714D01*
X157459819Y-47809523D02*
X157459819Y-47238095D01*
X157459819Y-47523809D02*
X156459819Y-47523809D01*
X156459819Y-47523809D02*
X156602676Y-47428571D01*
X156602676Y-47428571D02*
X156697914Y-47333333D01*
X156697914Y-47333333D02*
X156745533Y-47238095D01*
X156459819Y-48142857D02*
X156459819Y-48761904D01*
X156459819Y-48761904D02*
X156840771Y-48428571D01*
X156840771Y-48428571D02*
X156840771Y-48571428D01*
X156840771Y-48571428D02*
X156888390Y-48666666D01*
X156888390Y-48666666D02*
X156936009Y-48714285D01*
X156936009Y-48714285D02*
X157031247Y-48761904D01*
X157031247Y-48761904D02*
X157269342Y-48761904D01*
X157269342Y-48761904D02*
X157364580Y-48714285D01*
X157364580Y-48714285D02*
X157412200Y-48666666D01*
X157412200Y-48666666D02*
X157459819Y-48571428D01*
X157459819Y-48571428D02*
X157459819Y-48285714D01*
X157459819Y-48285714D02*
X157412200Y-48190476D01*
X157412200Y-48190476D02*
X157364580Y-48142857D01*
X157779819Y-43428095D02*
X156779819Y-43428095D01*
X157779819Y-43999523D02*
X157208390Y-43570952D01*
X156779819Y-43999523D02*
X157351247Y-43428095D01*
X45579819Y-52730905D02*
X44579819Y-52730905D01*
X44579819Y-52730905D02*
X44579819Y-52969000D01*
X44579819Y-52969000D02*
X44627438Y-53111857D01*
X44627438Y-53111857D02*
X44722676Y-53207095D01*
X44722676Y-53207095D02*
X44817914Y-53254714D01*
X44817914Y-53254714D02*
X45008390Y-53302333D01*
X45008390Y-53302333D02*
X45151247Y-53302333D01*
X45151247Y-53302333D02*
X45341723Y-53254714D01*
X45341723Y-53254714D02*
X45436961Y-53207095D01*
X45436961Y-53207095D02*
X45532200Y-53111857D01*
X45532200Y-53111857D02*
X45579819Y-52969000D01*
X45579819Y-52969000D02*
X45579819Y-52730905D01*
X45579819Y-54254714D02*
X45579819Y-53683286D01*
X45579819Y-53969000D02*
X44579819Y-53969000D01*
X44579819Y-53969000D02*
X44722676Y-53873762D01*
X44722676Y-53873762D02*
X44817914Y-53778524D01*
X44817914Y-53778524D02*
X44865533Y-53683286D01*
X181209819Y-65285714D02*
X180209819Y-65285714D01*
X180209819Y-65285714D02*
X180209819Y-65523809D01*
X180209819Y-65523809D02*
X180257438Y-65666666D01*
X180257438Y-65666666D02*
X180352676Y-65761904D01*
X180352676Y-65761904D02*
X180447914Y-65809523D01*
X180447914Y-65809523D02*
X180638390Y-65857142D01*
X180638390Y-65857142D02*
X180781247Y-65857142D01*
X180781247Y-65857142D02*
X180971723Y-65809523D01*
X180971723Y-65809523D02*
X181066961Y-65761904D01*
X181066961Y-65761904D02*
X181162200Y-65666666D01*
X181162200Y-65666666D02*
X181209819Y-65523809D01*
X181209819Y-65523809D02*
X181209819Y-65285714D01*
X181209819Y-66809523D02*
X181209819Y-66238095D01*
X181209819Y-66523809D02*
X180209819Y-66523809D01*
X180209819Y-66523809D02*
X180352676Y-66428571D01*
X180352676Y-66428571D02*
X180447914Y-66333333D01*
X180447914Y-66333333D02*
X180495533Y-66238095D01*
X180543152Y-67666666D02*
X181209819Y-67666666D01*
X180162200Y-67428571D02*
X180876485Y-67190476D01*
X180876485Y-67190476D02*
X180876485Y-67809523D01*
X181529819Y-62428095D02*
X180529819Y-62428095D01*
X181529819Y-62999523D02*
X180958390Y-62570952D01*
X180529819Y-62999523D02*
X181101247Y-62428095D01*
D11*
%TO.C,D4*%
X120165000Y-45380000D02*
X122405000Y-45380000D01*
X120165000Y-45980000D02*
X122405000Y-45980000D01*
X120165000Y-46100000D02*
X122405000Y-46100000D01*
X120165000Y-46220000D02*
X122405000Y-46220000D01*
X120165000Y-49620000D02*
X120165000Y-45380000D01*
X121285000Y-44730000D02*
X121285000Y-45380000D01*
X121285000Y-50270000D02*
X121285000Y-49620000D01*
X122405000Y-45380000D02*
X122405000Y-49620000D01*
X122405000Y-49620000D02*
X120165000Y-49620000D01*
%TO.C,D20*%
X134255000Y-83380000D02*
X136495000Y-83380000D01*
X134255000Y-83980000D02*
X136495000Y-83980000D01*
X134255000Y-84100000D02*
X136495000Y-84100000D01*
X134255000Y-84220000D02*
X136495000Y-84220000D01*
X134255000Y-87620000D02*
X134255000Y-83380000D01*
X135375000Y-82730000D02*
X135375000Y-83380000D01*
X135375000Y-88270000D02*
X135375000Y-87620000D01*
X136495000Y-83380000D02*
X136495000Y-87620000D01*
X136495000Y-87620000D02*
X134255000Y-87620000D01*
%TO.C,D17*%
X51130000Y-83380000D02*
X53370000Y-83380000D01*
X51130000Y-83980000D02*
X53370000Y-83980000D01*
X51130000Y-84100000D02*
X53370000Y-84100000D01*
X51130000Y-84220000D02*
X53370000Y-84220000D01*
X51130000Y-87620000D02*
X51130000Y-83380000D01*
X52250000Y-82730000D02*
X52250000Y-83380000D01*
X52250000Y-88270000D02*
X52250000Y-87620000D01*
X53370000Y-83380000D02*
X53370000Y-87620000D01*
X53370000Y-87620000D02*
X51130000Y-87620000D01*
%TO.C,D29*%
X172255000Y-84320000D02*
X174495000Y-84320000D01*
X172255000Y-84920000D02*
X174495000Y-84920000D01*
X172255000Y-85040000D02*
X174495000Y-85040000D01*
X172255000Y-85160000D02*
X174495000Y-85160000D01*
X172255000Y-88560000D02*
X172255000Y-84320000D01*
X173375000Y-83670000D02*
X173375000Y-84320000D01*
X173375000Y-89210000D02*
X173375000Y-88560000D01*
X174495000Y-84320000D02*
X174495000Y-88560000D01*
X174495000Y-88560000D02*
X172255000Y-88560000D01*
%TO.C,D27*%
X124755000Y-64380000D02*
X126995000Y-64380000D01*
X124755000Y-64980000D02*
X126995000Y-64980000D01*
X124755000Y-65100000D02*
X126995000Y-65100000D01*
X124755000Y-65220000D02*
X126995000Y-65220000D01*
X124755000Y-68620000D02*
X124755000Y-64380000D01*
X125875000Y-63730000D02*
X125875000Y-64380000D01*
X125875000Y-69270000D02*
X125875000Y-68620000D01*
X126995000Y-64380000D02*
X126995000Y-68620000D01*
X126995000Y-68620000D02*
X124755000Y-68620000D01*
%TO.C,D31*%
X227605000Y-57000000D02*
X228255000Y-57000000D01*
X228255000Y-55880000D02*
X232495000Y-55880000D01*
X228255000Y-58120000D02*
X228255000Y-55880000D01*
X231655000Y-55880000D02*
X231655000Y-58120000D01*
X231775000Y-55880000D02*
X231775000Y-58120000D01*
X231895000Y-55880000D02*
X231895000Y-58120000D01*
X232495000Y-55880000D02*
X232495000Y-58120000D01*
X232495000Y-58120000D02*
X228255000Y-58120000D01*
X233145000Y-57000000D02*
X232495000Y-57000000D01*
%TO.C,D19*%
X105755000Y-64380000D02*
X107995000Y-64380000D01*
X105755000Y-64980000D02*
X107995000Y-64980000D01*
X105755000Y-65100000D02*
X107995000Y-65100000D01*
X105755000Y-65220000D02*
X107995000Y-65220000D01*
X105755000Y-68620000D02*
X105755000Y-64380000D01*
X106875000Y-63730000D02*
X106875000Y-64380000D01*
X106875000Y-69270000D02*
X106875000Y-68620000D01*
X107995000Y-64380000D02*
X107995000Y-68620000D01*
X107995000Y-68620000D02*
X105755000Y-68620000D01*
%TO.C,D40*%
X246605000Y-95000000D02*
X247255000Y-95000000D01*
X247255000Y-93880000D02*
X251495000Y-93880000D01*
X247255000Y-96120000D02*
X247255000Y-93880000D01*
X250655000Y-93880000D02*
X250655000Y-96120000D01*
X250775000Y-93880000D02*
X250775000Y-96120000D01*
X250895000Y-93880000D02*
X250895000Y-96120000D01*
X251495000Y-93880000D02*
X251495000Y-96120000D01*
X251495000Y-96120000D02*
X247255000Y-96120000D01*
X252145000Y-95000000D02*
X251495000Y-95000000D01*
%TO.C,J2*%
X156150000Y-106620000D02*
X156150000Y-107950000D01*
X157480000Y-106620000D02*
X156150000Y-106620000D01*
X158750000Y-106620000D02*
X158750000Y-109280000D01*
X158750000Y-106620000D02*
X176590000Y-106620000D01*
X158750000Y-109280000D02*
X176590000Y-109280000D01*
X176590000Y-106620000D02*
X176590000Y-109280000D01*
%TO.C,D2*%
X82005000Y-45380000D02*
X84245000Y-45380000D01*
X82005000Y-45980000D02*
X84245000Y-45980000D01*
X82005000Y-46100000D02*
X84245000Y-46100000D01*
X82005000Y-46220000D02*
X84245000Y-46220000D01*
X82005000Y-49620000D02*
X82005000Y-45380000D01*
X83125000Y-44730000D02*
X83125000Y-45380000D01*
X83125000Y-50270000D02*
X83125000Y-49620000D01*
X84245000Y-45380000D02*
X84245000Y-49620000D01*
X84245000Y-49620000D02*
X82005000Y-49620000D01*
%TO.C,D15*%
X200755000Y-64380000D02*
X202995000Y-64380000D01*
X200755000Y-64980000D02*
X202995000Y-64980000D01*
X200755000Y-65100000D02*
X202995000Y-65100000D01*
X200755000Y-65220000D02*
X202995000Y-65220000D01*
X200755000Y-68620000D02*
X200755000Y-64380000D01*
X201875000Y-63730000D02*
X201875000Y-64380000D01*
X201875000Y-69270000D02*
X201875000Y-68620000D01*
X202995000Y-64380000D02*
X202995000Y-68620000D01*
X202995000Y-68620000D02*
X200755000Y-68620000D01*
%TO.C,D24*%
X255380000Y-45380000D02*
X257620000Y-45380000D01*
X255380000Y-45980000D02*
X257620000Y-45980000D01*
X255380000Y-46100000D02*
X257620000Y-46100000D01*
X255380000Y-46220000D02*
X257620000Y-46220000D01*
X255380000Y-49620000D02*
X255380000Y-45380000D01*
X256500000Y-44730000D02*
X256500000Y-45380000D01*
X256500000Y-50270000D02*
X256500000Y-49620000D01*
X257620000Y-45380000D02*
X257620000Y-49620000D01*
X257620000Y-49620000D02*
X255380000Y-49620000D01*
%TO.C,D10*%
X63005000Y-45380000D02*
X65245000Y-45380000D01*
X63005000Y-45980000D02*
X65245000Y-45980000D01*
X63005000Y-46100000D02*
X65245000Y-46100000D01*
X63005000Y-46220000D02*
X65245000Y-46220000D01*
X63005000Y-49620000D02*
X63005000Y-45380000D01*
X64125000Y-44730000D02*
X64125000Y-45380000D01*
X64125000Y-50270000D02*
X64125000Y-49620000D01*
X65245000Y-45380000D02*
X65245000Y-49620000D01*
X65245000Y-49620000D02*
X63005000Y-49620000D01*
%TO.C,D23*%
X219755000Y-64380000D02*
X221995000Y-64380000D01*
X219755000Y-64980000D02*
X221995000Y-64980000D01*
X219755000Y-65100000D02*
X221995000Y-65100000D01*
X219755000Y-65220000D02*
X221995000Y-65220000D01*
X219755000Y-68620000D02*
X219755000Y-64380000D01*
X220875000Y-63730000D02*
X220875000Y-64380000D01*
X220875000Y-69270000D02*
X220875000Y-68620000D01*
X221995000Y-64380000D02*
X221995000Y-68620000D01*
X221995000Y-68620000D02*
X219755000Y-68620000D01*
%TO.C,D6*%
X177005000Y-45380000D02*
X179245000Y-45380000D01*
X177005000Y-45980000D02*
X179245000Y-45980000D01*
X177005000Y-46100000D02*
X179245000Y-46100000D01*
X177005000Y-46220000D02*
X179245000Y-46220000D01*
X177005000Y-49620000D02*
X177005000Y-45380000D01*
X178125000Y-44730000D02*
X178125000Y-45380000D01*
X178125000Y-50270000D02*
X178125000Y-49620000D01*
X179245000Y-45380000D02*
X179245000Y-49620000D01*
X179245000Y-49620000D02*
X177005000Y-49620000D01*
%TO.C,D34*%
X96255000Y-83380000D02*
X98495000Y-83380000D01*
X96255000Y-83980000D02*
X98495000Y-83980000D01*
X96255000Y-84100000D02*
X98495000Y-84100000D01*
X96255000Y-84220000D02*
X98495000Y-84220000D01*
X96255000Y-87620000D02*
X96255000Y-83380000D01*
X97375000Y-82730000D02*
X97375000Y-83380000D01*
X97375000Y-88270000D02*
X97375000Y-87620000D01*
X98495000Y-83380000D02*
X98495000Y-87620000D01*
X98495000Y-87620000D02*
X96255000Y-87620000D01*
%TO.C,D25*%
X74880000Y-102380000D02*
X77120000Y-102380000D01*
X74880000Y-102980000D02*
X77120000Y-102980000D01*
X74880000Y-103100000D02*
X77120000Y-103100000D01*
X74880000Y-103220000D02*
X77120000Y-103220000D01*
X74880000Y-106620000D02*
X74880000Y-102380000D01*
X76000000Y-101730000D02*
X76000000Y-102380000D01*
X76000000Y-107270000D02*
X76000000Y-106620000D01*
X77120000Y-102380000D02*
X77120000Y-106620000D01*
X77120000Y-106620000D02*
X74880000Y-106620000D01*
%TO.C,D7*%
X196005000Y-45380000D02*
X198245000Y-45380000D01*
X196005000Y-45980000D02*
X198245000Y-45980000D01*
X196005000Y-46100000D02*
X198245000Y-46100000D01*
X196005000Y-46220000D02*
X198245000Y-46220000D01*
X196005000Y-49620000D02*
X196005000Y-45380000D01*
X197125000Y-44730000D02*
X197125000Y-45380000D01*
X197125000Y-50270000D02*
X197125000Y-49620000D01*
X198245000Y-45380000D02*
X198245000Y-49620000D01*
X198245000Y-49620000D02*
X196005000Y-49620000D01*
%TO.C,D32*%
X238755000Y-73880000D02*
X240995000Y-73880000D01*
X238755000Y-74480000D02*
X240995000Y-74480000D01*
X238755000Y-74600000D02*
X240995000Y-74600000D01*
X238755000Y-74720000D02*
X240995000Y-74720000D01*
X238755000Y-78120000D02*
X238755000Y-73880000D01*
X239875000Y-73230000D02*
X239875000Y-73880000D01*
X239875000Y-78770000D02*
X239875000Y-78120000D01*
X240995000Y-73880000D02*
X240995000Y-78120000D01*
X240995000Y-78120000D02*
X238755000Y-78120000D01*
%TO.C,D26*%
X77255000Y-83380000D02*
X79495000Y-83380000D01*
X77255000Y-83980000D02*
X79495000Y-83980000D01*
X77255000Y-84100000D02*
X79495000Y-84100000D01*
X77255000Y-84220000D02*
X79495000Y-84220000D01*
X77255000Y-87620000D02*
X77255000Y-83380000D01*
X78375000Y-82730000D02*
X78375000Y-83380000D01*
X78375000Y-88270000D02*
X78375000Y-87620000D01*
X79495000Y-83380000D02*
X79495000Y-87620000D01*
X79495000Y-87620000D02*
X77255000Y-87620000D01*
%TO.C,D39*%
X238755000Y-102380000D02*
X240995000Y-102380000D01*
X238755000Y-102980000D02*
X240995000Y-102980000D01*
X238755000Y-103100000D02*
X240995000Y-103100000D01*
X238755000Y-103220000D02*
X240995000Y-103220000D01*
X238755000Y-106620000D02*
X238755000Y-102380000D01*
X239875000Y-101730000D02*
X239875000Y-102380000D01*
X239875000Y-107270000D02*
X239875000Y-106620000D01*
X240995000Y-102380000D02*
X240995000Y-106620000D01*
X240995000Y-106620000D02*
X238755000Y-106620000D01*
%TO.C,D11*%
X86755000Y-64380000D02*
X88995000Y-64380000D01*
X86755000Y-64980000D02*
X88995000Y-64980000D01*
X86755000Y-65100000D02*
X88995000Y-65100000D01*
X86755000Y-65220000D02*
X88995000Y-65220000D01*
X86755000Y-68620000D02*
X86755000Y-64380000D01*
X87875000Y-63730000D02*
X87875000Y-64380000D01*
X87875000Y-69270000D02*
X87875000Y-68620000D01*
X88995000Y-64380000D02*
X88995000Y-68620000D01*
X88995000Y-68620000D02*
X86755000Y-68620000D01*
%TO.C,D22*%
X191255000Y-83380000D02*
X193495000Y-83380000D01*
X191255000Y-83980000D02*
X193495000Y-83980000D01*
X191255000Y-84100000D02*
X193495000Y-84100000D01*
X191255000Y-84220000D02*
X193495000Y-84220000D01*
X191255000Y-87620000D02*
X191255000Y-83380000D01*
X192375000Y-82730000D02*
X192375000Y-83380000D01*
X192375000Y-88270000D02*
X192375000Y-87620000D01*
X193495000Y-83380000D02*
X193495000Y-87620000D01*
X193495000Y-87620000D02*
X191255000Y-87620000D01*
%TO.C,D37*%
X219755000Y-83380000D02*
X221995000Y-83380000D01*
X219755000Y-83980000D02*
X221995000Y-83980000D01*
X219755000Y-84100000D02*
X221995000Y-84100000D01*
X219755000Y-84220000D02*
X221995000Y-84220000D01*
X219755000Y-87620000D02*
X219755000Y-83380000D01*
X220875000Y-82730000D02*
X220875000Y-83380000D01*
X220875000Y-88270000D02*
X220875000Y-87620000D01*
X221995000Y-83380000D02*
X221995000Y-87620000D01*
X221995000Y-87620000D02*
X219755000Y-87620000D01*
%TO.C,D21*%
X162755000Y-64380000D02*
X164995000Y-64380000D01*
X162755000Y-64980000D02*
X164995000Y-64980000D01*
X162755000Y-65100000D02*
X164995000Y-65100000D01*
X162755000Y-65220000D02*
X164995000Y-65220000D01*
X162755000Y-68620000D02*
X162755000Y-64380000D01*
X163875000Y-63730000D02*
X163875000Y-64380000D01*
X163875000Y-69270000D02*
X163875000Y-68620000D01*
X164995000Y-64380000D02*
X164995000Y-68620000D01*
X164995000Y-68620000D02*
X162755000Y-68620000D01*
%TO.C,J1*%
X118050000Y-109280000D02*
X118050000Y-106620000D01*
X128270000Y-106620000D02*
X118050000Y-106620000D01*
X128270000Y-109280000D02*
X118050000Y-109280000D01*
X128270000Y-109280000D02*
X128270000Y-106620000D01*
X129540000Y-109280000D02*
X130870000Y-109280000D01*
X130870000Y-109280000D02*
X130870000Y-107950000D01*
%TO.C,D30*%
X215005000Y-83380000D02*
X217245000Y-83380000D01*
X215005000Y-83980000D02*
X217245000Y-83980000D01*
X215005000Y-84100000D02*
X217245000Y-84100000D01*
X215005000Y-84220000D02*
X217245000Y-84220000D01*
X215005000Y-87620000D02*
X215005000Y-83380000D01*
X216125000Y-82730000D02*
X216125000Y-83380000D01*
X216125000Y-88270000D02*
X216125000Y-87620000D01*
X217245000Y-83380000D02*
X217245000Y-87620000D01*
X217245000Y-87620000D02*
X215005000Y-87620000D01*
%TO.C,D28*%
X153255000Y-83380000D02*
X155495000Y-83380000D01*
X153255000Y-83980000D02*
X155495000Y-83980000D01*
X153255000Y-84100000D02*
X155495000Y-84100000D01*
X153255000Y-84220000D02*
X155495000Y-84220000D01*
X153255000Y-87620000D02*
X153255000Y-83380000D01*
X154375000Y-82730000D02*
X154375000Y-83380000D01*
X154375000Y-88270000D02*
X154375000Y-87620000D01*
X155495000Y-83380000D02*
X155495000Y-87620000D01*
X155495000Y-87620000D02*
X153255000Y-87620000D01*
%TO.C,D3*%
X101115000Y-45380000D02*
X103355000Y-45380000D01*
X101115000Y-45980000D02*
X103355000Y-45980000D01*
X101115000Y-46100000D02*
X103355000Y-46100000D01*
X101115000Y-46220000D02*
X103355000Y-46220000D01*
X101115000Y-49620000D02*
X101115000Y-45380000D01*
X102235000Y-44730000D02*
X102235000Y-45380000D01*
X102235000Y-50270000D02*
X102235000Y-49620000D01*
X103355000Y-45380000D02*
X103355000Y-49620000D01*
X103355000Y-49620000D02*
X101115000Y-49620000D01*
%TO.C,D38*%
X219755000Y-102380000D02*
X221995000Y-102380000D01*
X219755000Y-102980000D02*
X221995000Y-102980000D01*
X219755000Y-103100000D02*
X221995000Y-103100000D01*
X219755000Y-103220000D02*
X221995000Y-103220000D01*
X219755000Y-106620000D02*
X219755000Y-102380000D01*
X220875000Y-101730000D02*
X220875000Y-102380000D01*
X220875000Y-107270000D02*
X220875000Y-106620000D01*
X221995000Y-102380000D02*
X221995000Y-106620000D01*
X221995000Y-106620000D02*
X219755000Y-106620000D01*
%TO.C,D12*%
X143755000Y-64380000D02*
X145995000Y-64380000D01*
X143755000Y-64980000D02*
X145995000Y-64980000D01*
X143755000Y-65100000D02*
X145995000Y-65100000D01*
X143755000Y-65220000D02*
X145995000Y-65220000D01*
X143755000Y-68620000D02*
X143755000Y-64380000D01*
X144875000Y-63730000D02*
X144875000Y-64380000D01*
X144875000Y-69270000D02*
X144875000Y-68620000D01*
X145995000Y-64380000D02*
X145995000Y-68620000D01*
X145995000Y-68620000D02*
X143755000Y-68620000D01*
%TO.C,D9*%
X46380000Y-64380000D02*
X48620000Y-64380000D01*
X46380000Y-64980000D02*
X48620000Y-64980000D01*
X46380000Y-65100000D02*
X48620000Y-65100000D01*
X46380000Y-65220000D02*
X48620000Y-65220000D01*
X46380000Y-68620000D02*
X46380000Y-64380000D01*
X47500000Y-63730000D02*
X47500000Y-64380000D01*
X47500000Y-69270000D02*
X47500000Y-68620000D01*
X48620000Y-64380000D02*
X48620000Y-68620000D01*
X48620000Y-68620000D02*
X46380000Y-68620000D01*
%TO.C,D35*%
X115255000Y-83380000D02*
X117495000Y-83380000D01*
X115255000Y-83980000D02*
X117495000Y-83980000D01*
X115255000Y-84100000D02*
X117495000Y-84100000D01*
X115255000Y-84220000D02*
X117495000Y-84220000D01*
X115255000Y-87620000D02*
X115255000Y-83380000D01*
X116375000Y-82730000D02*
X116375000Y-83380000D01*
X116375000Y-88270000D02*
X116375000Y-87620000D01*
X117495000Y-83380000D02*
X117495000Y-87620000D01*
X117495000Y-87620000D02*
X115255000Y-87620000D01*
%TO.C,D18*%
X67755000Y-64380000D02*
X69995000Y-64380000D01*
X67755000Y-64980000D02*
X69995000Y-64980000D01*
X67755000Y-65100000D02*
X69995000Y-65100000D01*
X67755000Y-65220000D02*
X69995000Y-65220000D01*
X67755000Y-68620000D02*
X67755000Y-64380000D01*
X68875000Y-63730000D02*
X68875000Y-64380000D01*
X68875000Y-69270000D02*
X68875000Y-68620000D01*
X69995000Y-64380000D02*
X69995000Y-68620000D01*
X69995000Y-68620000D02*
X67755000Y-68620000D01*
%TO.C,D36*%
X150880000Y-102380000D02*
X153120000Y-102380000D01*
X150880000Y-102980000D02*
X153120000Y-102980000D01*
X150880000Y-103100000D02*
X153120000Y-103100000D01*
X150880000Y-103220000D02*
X153120000Y-103220000D01*
X150880000Y-106620000D02*
X150880000Y-102380000D01*
X152000000Y-101730000D02*
X152000000Y-102380000D01*
X152000000Y-107270000D02*
X152000000Y-106620000D01*
X153120000Y-102380000D02*
X153120000Y-106620000D01*
X153120000Y-106620000D02*
X150880000Y-106620000D01*
%TO.C,D33*%
X46380000Y-102380000D02*
X48620000Y-102380000D01*
X46380000Y-102980000D02*
X48620000Y-102980000D01*
X46380000Y-103100000D02*
X48620000Y-103100000D01*
X46380000Y-103220000D02*
X48620000Y-103220000D01*
X46380000Y-106620000D02*
X46380000Y-102380000D01*
X47500000Y-101730000D02*
X47500000Y-102380000D01*
X47500000Y-107270000D02*
X47500000Y-106620000D01*
X48620000Y-102380000D02*
X48620000Y-106620000D01*
X48620000Y-106620000D02*
X46380000Y-106620000D01*
%TO.C,D16*%
X234005000Y-45380000D02*
X236245000Y-45380000D01*
X234005000Y-45980000D02*
X236245000Y-45980000D01*
X234005000Y-46100000D02*
X236245000Y-46100000D01*
X234005000Y-46220000D02*
X236245000Y-46220000D01*
X234005000Y-49620000D02*
X234005000Y-45380000D01*
X235125000Y-44730000D02*
X235125000Y-45380000D01*
X235125000Y-50270000D02*
X235125000Y-49620000D01*
X236245000Y-45380000D02*
X236245000Y-49620000D01*
X236245000Y-49620000D02*
X234005000Y-49620000D01*
%TO.C,D5*%
X139215000Y-45380000D02*
X141455000Y-45380000D01*
X139215000Y-45980000D02*
X141455000Y-45980000D01*
X139215000Y-46100000D02*
X141455000Y-46100000D01*
X139215000Y-46220000D02*
X141455000Y-46220000D01*
X139215000Y-49620000D02*
X139215000Y-45380000D01*
X140335000Y-44730000D02*
X140335000Y-45380000D01*
X140335000Y-50270000D02*
X140335000Y-49620000D01*
X141455000Y-45380000D02*
X141455000Y-49620000D01*
X141455000Y-49620000D02*
X139215000Y-49620000D01*
%TO.C,D8*%
X215005000Y-45380000D02*
X217245000Y-45380000D01*
X215005000Y-45980000D02*
X217245000Y-45980000D01*
X215005000Y-46100000D02*
X217245000Y-46100000D01*
X215005000Y-46220000D02*
X217245000Y-46220000D01*
X215005000Y-49620000D02*
X215005000Y-45380000D01*
X216125000Y-44730000D02*
X216125000Y-45380000D01*
X216125000Y-50270000D02*
X216125000Y-49620000D01*
X217245000Y-45380000D02*
X217245000Y-49620000D01*
X217245000Y-49620000D02*
X215005000Y-49620000D01*
%TO.C,D13*%
X158005000Y-45380000D02*
X160245000Y-45380000D01*
X158005000Y-45980000D02*
X160245000Y-45980000D01*
X158005000Y-46100000D02*
X160245000Y-46100000D01*
X158005000Y-46220000D02*
X160245000Y-46220000D01*
X158005000Y-49620000D02*
X158005000Y-45380000D01*
X159125000Y-44730000D02*
X159125000Y-45380000D01*
X159125000Y-50270000D02*
X159125000Y-49620000D01*
X160245000Y-45380000D02*
X160245000Y-49620000D01*
X160245000Y-49620000D02*
X158005000Y-49620000D01*
%TO.C,D1*%
X44005000Y-45380000D02*
X46245000Y-45380000D01*
X44005000Y-45980000D02*
X46245000Y-45980000D01*
X44005000Y-46100000D02*
X46245000Y-46100000D01*
X44005000Y-46220000D02*
X46245000Y-46220000D01*
X44005000Y-49620000D02*
X44005000Y-45380000D01*
X45125000Y-44730000D02*
X45125000Y-45380000D01*
X45125000Y-50270000D02*
X45125000Y-49620000D01*
X46245000Y-45380000D02*
X46245000Y-49620000D01*
X46245000Y-49620000D02*
X44005000Y-49620000D01*
%TO.C,D14*%
X181755000Y-64380000D02*
X183995000Y-64380000D01*
X181755000Y-64980000D02*
X183995000Y-64980000D01*
X181755000Y-65100000D02*
X183995000Y-65100000D01*
X181755000Y-65220000D02*
X183995000Y-65220000D01*
X181755000Y-68620000D02*
X181755000Y-64380000D01*
X182875000Y-63730000D02*
X182875000Y-64380000D01*
X182875000Y-69270000D02*
X182875000Y-68620000D01*
X183995000Y-64380000D02*
X183995000Y-68620000D01*
X183995000Y-68620000D02*
X181755000Y-68620000D01*
%TD*%
%LPC*%
D12*
%TO.C,SW19*%
X97375000Y-66500000D03*
D13*
X101175000Y-70300000D03*
X97375000Y-73000000D03*
%TD*%
D12*
%TO.C,SW28*%
X144875000Y-85500000D03*
D13*
X148675000Y-89300000D03*
X144875000Y-92000000D03*
%TD*%
D12*
%TO.C,SW17*%
X42750000Y-85500000D03*
D13*
X46550000Y-89300000D03*
X42750000Y-92000000D03*
%TD*%
D12*
%TO.C,SW9*%
X38000000Y-66500000D03*
D13*
X41800000Y-70300000D03*
X38000000Y-73000000D03*
%TD*%
D12*
%TO.C,SW15*%
X192375000Y-66500000D03*
D13*
X196175000Y-70300000D03*
X192375000Y-73000000D03*
%TD*%
D12*
%TO.C,SW37*%
X230375000Y-85500000D03*
D13*
X234175000Y-89300000D03*
X230375000Y-92000000D03*
%TD*%
D12*
%TO.C,SW20*%
X125875000Y-85500000D03*
D13*
X129675000Y-89300000D03*
X125875000Y-92000000D03*
%TD*%
D12*
%TO.C,SW27*%
X116375000Y-66500000D03*
D13*
X120175000Y-70300000D03*
X116375000Y-73000000D03*
%TD*%
D12*
%TO.C,SW25*%
X66500000Y-104500000D03*
D13*
X70300000Y-108300000D03*
X66500000Y-111000000D03*
%TD*%
D12*
%TO.C,SW33*%
X38000000Y-104500000D03*
D13*
X41800000Y-108300000D03*
X38000000Y-111000000D03*
%TD*%
D12*
%TO.C,SW32*%
X249375000Y-76000000D03*
D13*
X253175000Y-72200000D03*
X255875000Y-76000000D03*
%TD*%
D12*
%TO.C,SW12*%
X135375000Y-66500000D03*
D13*
X139175000Y-70300000D03*
X135375000Y-73000000D03*
%TD*%
D12*
%TO.C,SW14*%
X173375000Y-66500000D03*
D13*
X177175000Y-70300000D03*
X173375000Y-73000000D03*
%TD*%
D12*
%TO.C,SW39*%
X230375000Y-104500000D03*
D13*
X234175000Y-108300000D03*
X230375000Y-111000000D03*
%TD*%
D12*
%TO.C,SW23*%
X211375000Y-66500000D03*
D13*
X215175000Y-70300000D03*
X211375000Y-73000000D03*
%TD*%
D12*
%TO.C,SW29*%
X163875000Y-85500000D03*
D13*
X167675000Y-89300000D03*
X163875000Y-92000000D03*
%TD*%
D12*
%TO.C,SW21*%
X154375000Y-66500000D03*
D13*
X158175000Y-70300000D03*
X154375000Y-73000000D03*
%TD*%
D12*
%TO.C,SW11*%
X78375000Y-66500000D03*
D13*
X82175000Y-70300000D03*
X78375000Y-73000000D03*
%TD*%
D12*
%TO.C,SW34*%
X87875000Y-85500000D03*
D13*
X91675000Y-89300000D03*
X87875000Y-92000000D03*
%TD*%
D12*
%TO.C,SW24*%
X247000000Y-47500000D03*
D13*
X250800000Y-51300000D03*
X247000000Y-54000000D03*
%TD*%
D12*
%TO.C,SW31*%
X230375000Y-66500000D03*
D13*
X234175000Y-70300000D03*
X230375000Y-73000000D03*
%TD*%
D12*
%TO.C,SW22*%
X182875000Y-85500000D03*
D13*
X186675000Y-89300000D03*
X182875000Y-92000000D03*
%TD*%
D12*
%TO.C,SW13*%
X149625000Y-47500000D03*
D13*
X153425000Y-51300000D03*
X149625000Y-54000000D03*
%TD*%
D12*
%TO.C,SW3*%
X92625000Y-47500000D03*
D13*
X96425000Y-51300000D03*
X92625000Y-54000000D03*
%TD*%
D12*
%TO.C,SW2*%
X73625000Y-47500000D03*
D13*
X77425000Y-51300000D03*
X73625000Y-54000000D03*
%TD*%
D12*
%TO.C,SW4*%
X111625000Y-47500000D03*
D13*
X115425000Y-51300000D03*
X111625000Y-54000000D03*
%TD*%
D12*
%TO.C,SW26*%
X68875000Y-85500000D03*
D13*
X72675000Y-89300000D03*
X68875000Y-92000000D03*
%TD*%
D12*
%TO.C,SW5*%
X130625000Y-47500000D03*
D13*
X134425000Y-51300000D03*
X130625000Y-54000000D03*
%TD*%
D12*
%TO.C,SW10*%
X54625000Y-47500000D03*
D13*
X58425000Y-51300000D03*
X54625000Y-54000000D03*
%TD*%
D12*
%TO.C,SW8*%
X206625000Y-47500000D03*
D13*
X210425000Y-51300000D03*
X206625000Y-54000000D03*
%TD*%
D12*
%TO.C,SW18*%
X59375000Y-66500000D03*
D13*
X63175000Y-70300000D03*
X59375000Y-73000000D03*
%TD*%
D12*
%TO.C,SW16*%
X225625000Y-47500000D03*
D13*
X229425000Y-51300000D03*
X225625000Y-54000000D03*
%TD*%
D12*
%TO.C,SW35*%
X106875000Y-85500000D03*
D13*
X110675000Y-89300000D03*
X106875000Y-92000000D03*
%TD*%
D12*
%TO.C,SW38*%
X211375000Y-104500000D03*
D13*
X215175000Y-108300000D03*
X211375000Y-111000000D03*
%TD*%
D12*
%TO.C,SW30*%
X206625000Y-85500000D03*
D13*
X210425000Y-89300000D03*
X206625000Y-92000000D03*
%TD*%
D12*
%TO.C,SW40*%
X249375000Y-104500000D03*
D13*
X253175000Y-108300000D03*
X249375000Y-111000000D03*
%TD*%
D12*
%TO.C,SW36*%
X142368750Y-104500000D03*
D13*
X146168750Y-108300000D03*
X142368750Y-111000000D03*
%TD*%
D12*
%TO.C,SW6*%
X168625000Y-47500000D03*
D13*
X172425000Y-51300000D03*
X168625000Y-54000000D03*
%TD*%
D12*
%TO.C,SW1*%
X35625000Y-47500000D03*
D13*
X39425000Y-51300000D03*
X35625000Y-54000000D03*
%TD*%
D12*
%TO.C,SW7*%
X187625000Y-47500000D03*
D13*
X191425000Y-51300000D03*
X187625000Y-54000000D03*
%TD*%
D14*
%TO.C,D4*%
X121285000Y-43690000D03*
D15*
X121285000Y-51310000D03*
%TD*%
D14*
%TO.C,D20*%
X135375000Y-81690000D03*
D15*
X135375000Y-89310000D03*
%TD*%
D14*
%TO.C,D17*%
X52250000Y-81690000D03*
D15*
X52250000Y-89310000D03*
%TD*%
D14*
%TO.C,D29*%
X173375000Y-82630000D03*
D15*
X173375000Y-90250000D03*
%TD*%
D14*
%TO.C,D27*%
X125875000Y-62690000D03*
D15*
X125875000Y-70310000D03*
%TD*%
D14*
%TO.C,D31*%
X234185000Y-57000000D03*
D15*
X226565000Y-57000000D03*
%TD*%
D14*
%TO.C,D19*%
X106875000Y-62690000D03*
D15*
X106875000Y-70310000D03*
%TD*%
D14*
%TO.C,D40*%
X253185000Y-95000000D03*
D15*
X245565000Y-95000000D03*
%TD*%
D16*
%TO.C,J2*%
X157480000Y-107950000D03*
D17*
X160020000Y-107950000D03*
X162560000Y-107950000D03*
X165100000Y-107950000D03*
X167640000Y-107950000D03*
X170180000Y-107950000D03*
X172720000Y-107950000D03*
X175260000Y-107950000D03*
%TD*%
D14*
%TO.C,D2*%
X83125000Y-43690000D03*
D15*
X83125000Y-51310000D03*
%TD*%
D14*
%TO.C,D15*%
X201875000Y-62690000D03*
D15*
X201875000Y-70310000D03*
%TD*%
D14*
%TO.C,D24*%
X256500000Y-43690000D03*
D15*
X256500000Y-51310000D03*
%TD*%
D14*
%TO.C,D10*%
X64125000Y-43690000D03*
D15*
X64125000Y-51310000D03*
%TD*%
D14*
%TO.C,D23*%
X220875000Y-62690000D03*
D15*
X220875000Y-70310000D03*
%TD*%
D14*
%TO.C,D6*%
X178125000Y-43690000D03*
D15*
X178125000Y-51310000D03*
%TD*%
D14*
%TO.C,D34*%
X97375000Y-81690000D03*
D15*
X97375000Y-89310000D03*
%TD*%
D14*
%TO.C,D25*%
X76000000Y-100690000D03*
D15*
X76000000Y-108310000D03*
%TD*%
D14*
%TO.C,D7*%
X197125000Y-43690000D03*
D15*
X197125000Y-51310000D03*
%TD*%
D14*
%TO.C,D32*%
X239875000Y-72190000D03*
D15*
X239875000Y-79810000D03*
%TD*%
D14*
%TO.C,D26*%
X78375000Y-81690000D03*
D15*
X78375000Y-89310000D03*
%TD*%
D14*
%TO.C,D39*%
X239875000Y-100690000D03*
D15*
X239875000Y-108310000D03*
%TD*%
D14*
%TO.C,D11*%
X87875000Y-62690000D03*
D15*
X87875000Y-70310000D03*
%TD*%
D14*
%TO.C,D22*%
X192375000Y-81690000D03*
D15*
X192375000Y-89310000D03*
%TD*%
D14*
%TO.C,D37*%
X220875000Y-81690000D03*
D15*
X220875000Y-89310000D03*
%TD*%
D14*
%TO.C,D21*%
X163875000Y-62690000D03*
D15*
X163875000Y-70310000D03*
%TD*%
D16*
%TO.C,J1*%
X129540000Y-107950000D03*
D17*
X127000000Y-107950000D03*
X124460000Y-107950000D03*
X121920000Y-107950000D03*
X119380000Y-107950000D03*
%TD*%
D14*
%TO.C,D30*%
X216125000Y-81690000D03*
D15*
X216125000Y-89310000D03*
%TD*%
D14*
%TO.C,D28*%
X154375000Y-81690000D03*
D15*
X154375000Y-89310000D03*
%TD*%
D14*
%TO.C,D3*%
X102235000Y-43690000D03*
D15*
X102235000Y-51310000D03*
%TD*%
D14*
%TO.C,D38*%
X220875000Y-100690000D03*
D15*
X220875000Y-108310000D03*
%TD*%
D14*
%TO.C,D12*%
X144875000Y-62690000D03*
D15*
X144875000Y-70310000D03*
%TD*%
D14*
%TO.C,D9*%
X47500000Y-62690000D03*
D15*
X47500000Y-70310000D03*
%TD*%
D14*
%TO.C,D35*%
X116375000Y-81690000D03*
D15*
X116375000Y-89310000D03*
%TD*%
D14*
%TO.C,D18*%
X68875000Y-62690000D03*
D15*
X68875000Y-70310000D03*
%TD*%
D14*
%TO.C,D36*%
X152000000Y-100690000D03*
D15*
X152000000Y-108310000D03*
%TD*%
D14*
%TO.C,D33*%
X47500000Y-100690000D03*
D15*
X47500000Y-108310000D03*
%TD*%
D14*
%TO.C,D16*%
X235125000Y-43690000D03*
D15*
X235125000Y-51310000D03*
%TD*%
D14*
%TO.C,D5*%
X140335000Y-43690000D03*
D15*
X140335000Y-51310000D03*
%TD*%
D14*
%TO.C,D8*%
X216125000Y-43690000D03*
D15*
X216125000Y-51310000D03*
%TD*%
D14*
%TO.C,D13*%
X159125000Y-43690000D03*
D15*
X159125000Y-51310000D03*
%TD*%
D14*
%TO.C,D1*%
X45125000Y-43690000D03*
D15*
X45125000Y-51310000D03*
%TD*%
D14*
%TO.C,D14*%
X182875000Y-62690000D03*
D15*
X182875000Y-70310000D03*
%TD*%
%LPD*%
M02*
