%TF.GenerationSoftware,KiCad,Pcbnew,7.0.10*%
%TF.CreationDate,2024-04-26T17:07:36+01:00*%
%TF.ProjectId,top,746f702e-6b69-4636-9164-5f7063625858,rev?*%
%TF.SameCoordinates,Original*%
%TF.FileFunction,Copper,L2,Bot*%
%TF.FilePolarity,Positive*%
%FSLAX46Y46*%
G04 Gerber Fmt 4.6, Leading zero omitted, Abs format (unit mm)*
G04 Created by KiCad (PCBNEW 7.0.10) date 2024-04-26 17:07:36*
%MOMM*%
%LPD*%
G01*
G04 APERTURE LIST*
%TA.AperFunction,ComponentPad*%
%ADD10C,6.400000*%
%TD*%
G04 APERTURE END LIST*
D10*
%TO.P,H1,1,1*%
%TO.N,GND*%
X38500000Y-53100000D03*
%TD*%
%TO.P,H2,1,1*%
%TO.N,GND*%
X262500000Y-53100000D03*
%TD*%
%TA.AperFunction,Conductor*%
%TO.N,GND*%
G36*
X268042539Y-47520185D02*
G01*
X268088294Y-47572989D01*
X268099500Y-47624500D01*
X268099500Y-69875500D01*
X268079815Y-69942539D01*
X268027011Y-69988294D01*
X267975500Y-69999500D01*
X33024500Y-69999500D01*
X32957461Y-69979815D01*
X32911706Y-69927011D01*
X32900500Y-69875500D01*
X32900500Y-66450936D01*
X252295631Y-66450936D01*
X252306719Y-66523325D01*
X252307513Y-66529553D01*
X252314925Y-66602437D01*
X252314926Y-66602440D01*
X252319749Y-66617814D01*
X252324003Y-66636147D01*
X252326442Y-66652064D01*
X252326443Y-66652068D01*
X252351882Y-66720760D01*
X252353911Y-66726696D01*
X252375841Y-66796588D01*
X252375842Y-66796589D01*
X252375843Y-66796592D01*
X252383657Y-66810670D01*
X252391517Y-66827777D01*
X252397111Y-66842881D01*
X252397113Y-66842884D01*
X252397114Y-66842887D01*
X252413198Y-66868692D01*
X252435864Y-66905057D01*
X252439050Y-66910469D01*
X252474592Y-66974503D01*
X252474593Y-66974504D01*
X252485078Y-66986718D01*
X252496222Y-67001894D01*
X252504745Y-67015567D01*
X252504746Y-67015568D01*
X252504748Y-67015571D01*
X252555246Y-67068695D01*
X252559421Y-67073317D01*
X252574279Y-67090625D01*
X252607132Y-67128894D01*
X252607133Y-67128895D01*
X252619869Y-67138753D01*
X252633844Y-67151379D01*
X252644940Y-67163052D01*
X252705051Y-67204891D01*
X252710115Y-67208609D01*
X252718270Y-67214921D01*
X252768042Y-67253448D01*
X252782515Y-67260547D01*
X252798726Y-67270090D01*
X252811951Y-67279295D01*
X252879264Y-67308181D01*
X252884954Y-67310795D01*
X252896267Y-67316345D01*
X252950724Y-67343058D01*
X252950726Y-67343058D01*
X252950729Y-67343060D01*
X252966316Y-67347095D01*
X252984128Y-67353182D01*
X252998942Y-67359540D01*
X253070700Y-67374285D01*
X253076779Y-67375695D01*
X253147711Y-67394062D01*
X253147715Y-67394063D01*
X253163807Y-67394879D01*
X253182480Y-67397257D01*
X253191413Y-67399093D01*
X253198258Y-67400500D01*
X253198259Y-67400500D01*
X253271500Y-67400500D01*
X253277778Y-67400658D01*
X253350936Y-67404369D01*
X253366857Y-67401930D01*
X253385633Y-67400500D01*
X255671500Y-67400500D01*
X255677778Y-67400658D01*
X255750936Y-67404369D01*
X255823339Y-67393276D01*
X255829557Y-67392484D01*
X255902438Y-67385074D01*
X255917811Y-67380250D01*
X255936149Y-67375995D01*
X255940473Y-67375332D01*
X255952071Y-67373556D01*
X256020789Y-67348105D01*
X256026672Y-67346094D01*
X256096588Y-67324159D01*
X256110670Y-67316341D01*
X256127782Y-67308479D01*
X256142887Y-67302886D01*
X256205073Y-67264123D01*
X256210421Y-67260975D01*
X256274502Y-67225409D01*
X256286724Y-67214915D01*
X256301898Y-67203773D01*
X256315571Y-67195252D01*
X256368690Y-67144757D01*
X256373294Y-67140597D01*
X256428895Y-67092866D01*
X256438750Y-67080133D01*
X256451374Y-67066161D01*
X256455810Y-67061942D01*
X256463053Y-67055059D01*
X256504926Y-66994895D01*
X256508577Y-66989923D01*
X256553448Y-66931958D01*
X256560549Y-66917479D01*
X256570092Y-66901269D01*
X256579295Y-66888049D01*
X256608186Y-66820722D01*
X256610791Y-66815054D01*
X256643060Y-66749271D01*
X256647098Y-66733672D01*
X256653191Y-66715851D01*
X256659538Y-66701062D01*
X256659540Y-66701058D01*
X256674288Y-66629287D01*
X256675692Y-66623231D01*
X256694063Y-66552285D01*
X256694879Y-66536193D01*
X256697258Y-66517516D01*
X256700500Y-66501742D01*
X256700500Y-66428499D01*
X256700659Y-66422219D01*
X256704369Y-66349064D01*
X256701930Y-66333142D01*
X256700500Y-66314366D01*
X256700500Y-61028499D01*
X256700659Y-61022219D01*
X256704369Y-60949064D01*
X256693277Y-60876664D01*
X256692484Y-60870436D01*
X256685074Y-60797563D01*
X256685072Y-60797556D01*
X256680251Y-60782189D01*
X256675994Y-60763849D01*
X256673556Y-60747929D01*
X256648100Y-60679197D01*
X256646098Y-60673338D01*
X256624159Y-60603412D01*
X256616339Y-60589324D01*
X256608482Y-60572225D01*
X256602886Y-60557113D01*
X256564129Y-60494934D01*
X256560951Y-60489534D01*
X256557054Y-60482513D01*
X256525409Y-60425498D01*
X256514921Y-60413281D01*
X256503773Y-60398100D01*
X256503489Y-60397645D01*
X256495252Y-60384429D01*
X256444787Y-60331340D01*
X256440577Y-60326680D01*
X256392873Y-60271112D01*
X256392868Y-60271108D01*
X256392866Y-60271105D01*
X256380126Y-60261243D01*
X256366155Y-60248620D01*
X256355063Y-60236951D01*
X256355062Y-60236950D01*
X256355059Y-60236947D01*
X256294936Y-60195100D01*
X256289874Y-60191382D01*
X256231960Y-60146553D01*
X256231957Y-60146551D01*
X256217496Y-60139458D01*
X256201270Y-60129906D01*
X256188051Y-60120706D01*
X256188049Y-60120705D01*
X256120720Y-60091811D01*
X256115061Y-60089211D01*
X256049271Y-60056940D01*
X256049269Y-60056939D01*
X256033680Y-60052903D01*
X256015864Y-60046813D01*
X256001061Y-60040461D01*
X256001059Y-60040460D01*
X256001058Y-60040460D01*
X255929306Y-60025714D01*
X255923195Y-60024297D01*
X255916544Y-60022575D01*
X255852285Y-60005937D01*
X255852284Y-60005936D01*
X255852281Y-60005936D01*
X255836189Y-60005119D01*
X255817523Y-60002742D01*
X255801743Y-59999500D01*
X255801741Y-59999500D01*
X255728500Y-59999500D01*
X255722221Y-59999341D01*
X255649064Y-59995631D01*
X255649060Y-59995631D01*
X255633143Y-59998070D01*
X255614367Y-59999500D01*
X253328500Y-59999500D01*
X253322221Y-59999341D01*
X253291787Y-59997797D01*
X253249065Y-59995631D01*
X253249058Y-59995631D01*
X253176676Y-60006719D01*
X253170448Y-60007513D01*
X253097566Y-60014925D01*
X253097557Y-60014927D01*
X253082187Y-60019749D01*
X253063858Y-60024003D01*
X253047929Y-60026444D01*
X253047926Y-60026445D01*
X252979245Y-60051880D01*
X252973305Y-60053911D01*
X252903412Y-60075840D01*
X252889322Y-60083661D01*
X252872220Y-60091518D01*
X252857118Y-60097111D01*
X252857108Y-60097116D01*
X252794959Y-60135854D01*
X252789546Y-60139040D01*
X252725506Y-60174585D01*
X252725499Y-60174590D01*
X252713278Y-60185081D01*
X252698114Y-60196216D01*
X252684430Y-60204746D01*
X252684427Y-60204749D01*
X252631338Y-60255213D01*
X252626679Y-60259422D01*
X252571109Y-60307129D01*
X252571102Y-60307136D01*
X252561243Y-60319872D01*
X252548631Y-60333832D01*
X252536949Y-60344938D01*
X252536948Y-60344939D01*
X252495111Y-60405046D01*
X252491396Y-60410106D01*
X252446550Y-60468043D01*
X252439452Y-60482513D01*
X252429907Y-60498728D01*
X252420706Y-60511948D01*
X252420705Y-60511949D01*
X252391818Y-60579262D01*
X252389197Y-60584965D01*
X252356939Y-60650729D01*
X252356938Y-60650733D01*
X252352901Y-60666324D01*
X252346815Y-60684129D01*
X252340461Y-60698937D01*
X252325716Y-60770687D01*
X252324296Y-60776805D01*
X252305936Y-60847716D01*
X252305119Y-60863811D01*
X252302743Y-60882474D01*
X252299500Y-60898260D01*
X252299500Y-60971499D01*
X252299341Y-60977779D01*
X252295631Y-61050935D01*
X252295631Y-61050936D01*
X252298070Y-61066857D01*
X252299500Y-61085633D01*
X252299500Y-66371499D01*
X252299341Y-66377779D01*
X252295631Y-66450935D01*
X252295631Y-66450936D01*
X32900500Y-66450936D01*
X32900500Y-53100000D01*
X34794922Y-53100000D01*
X34815219Y-53487287D01*
X34875886Y-53870323D01*
X34875887Y-53870330D01*
X34976262Y-54244936D01*
X35115244Y-54606994D01*
X35291310Y-54952543D01*
X35502531Y-55277793D01*
X35711095Y-55535350D01*
X35711096Y-55535350D01*
X37202266Y-54044180D01*
X37365130Y-54234870D01*
X37555819Y-54397733D01*
X36064648Y-55888903D01*
X36064649Y-55888904D01*
X36322206Y-56097468D01*
X36647456Y-56308689D01*
X36993005Y-56484755D01*
X37355063Y-56623737D01*
X37729669Y-56724112D01*
X37729676Y-56724113D01*
X38112712Y-56784780D01*
X38499999Y-56805078D01*
X38500001Y-56805078D01*
X38887287Y-56784780D01*
X39270323Y-56724113D01*
X39270330Y-56724112D01*
X39644936Y-56623737D01*
X40006994Y-56484755D01*
X40352543Y-56308689D01*
X40677783Y-56097476D01*
X40677785Y-56097475D01*
X40935349Y-55888902D01*
X39444180Y-54397733D01*
X39634870Y-54234870D01*
X39797733Y-54044180D01*
X41288902Y-55535349D01*
X41497475Y-55277785D01*
X41497476Y-55277783D01*
X41708689Y-54952543D01*
X41884755Y-54606994D01*
X42023737Y-54244936D01*
X42124112Y-53870330D01*
X42124113Y-53870323D01*
X42184780Y-53487287D01*
X42205078Y-53100000D01*
X258794922Y-53100000D01*
X258815219Y-53487287D01*
X258875886Y-53870323D01*
X258875887Y-53870330D01*
X258976262Y-54244936D01*
X259115244Y-54606994D01*
X259291310Y-54952543D01*
X259502531Y-55277793D01*
X259711095Y-55535350D01*
X259711096Y-55535350D01*
X261202266Y-54044180D01*
X261365130Y-54234870D01*
X261555819Y-54397733D01*
X260064648Y-55888903D01*
X260064649Y-55888904D01*
X260322206Y-56097468D01*
X260647456Y-56308689D01*
X260993005Y-56484755D01*
X261355063Y-56623737D01*
X261729669Y-56724112D01*
X261729676Y-56724113D01*
X262112712Y-56784780D01*
X262499999Y-56805078D01*
X262500001Y-56805078D01*
X262887287Y-56784780D01*
X263270323Y-56724113D01*
X263270330Y-56724112D01*
X263644936Y-56623737D01*
X264006994Y-56484755D01*
X264352543Y-56308689D01*
X264677783Y-56097476D01*
X264677785Y-56097475D01*
X264935349Y-55888902D01*
X263444180Y-54397733D01*
X263634870Y-54234870D01*
X263797733Y-54044180D01*
X265288902Y-55535349D01*
X265497475Y-55277785D01*
X265497476Y-55277783D01*
X265708689Y-54952543D01*
X265884755Y-54606994D01*
X266023737Y-54244936D01*
X266124112Y-53870330D01*
X266124113Y-53870323D01*
X266184780Y-53487287D01*
X266205078Y-53100000D01*
X266205078Y-53099999D01*
X266184780Y-52712712D01*
X266124113Y-52329676D01*
X266124112Y-52329669D01*
X266023737Y-51955063D01*
X265884755Y-51593005D01*
X265708689Y-51247456D01*
X265497468Y-50922206D01*
X265288904Y-50664649D01*
X265288903Y-50664648D01*
X263797732Y-52155818D01*
X263634870Y-51965130D01*
X263444180Y-51802266D01*
X264935350Y-50311096D01*
X264935350Y-50311095D01*
X264677793Y-50102531D01*
X264352543Y-49891310D01*
X264006994Y-49715244D01*
X263644936Y-49576262D01*
X263270330Y-49475887D01*
X263270323Y-49475886D01*
X262887287Y-49415219D01*
X262500001Y-49394922D01*
X262499999Y-49394922D01*
X262112712Y-49415219D01*
X261729676Y-49475886D01*
X261729669Y-49475887D01*
X261355063Y-49576262D01*
X260993005Y-49715244D01*
X260647456Y-49891310D01*
X260322206Y-50102531D01*
X260064648Y-50311095D01*
X260064648Y-50311096D01*
X261555819Y-51802266D01*
X261365130Y-51965130D01*
X261202266Y-52155818D01*
X259711096Y-50664648D01*
X259711095Y-50664648D01*
X259502531Y-50922206D01*
X259291310Y-51247456D01*
X259115244Y-51593005D01*
X258976262Y-51955063D01*
X258875887Y-52329669D01*
X258875886Y-52329676D01*
X258815219Y-52712712D01*
X258794922Y-53099999D01*
X258794922Y-53100000D01*
X42205078Y-53100000D01*
X42205078Y-53099999D01*
X42184780Y-52712712D01*
X42124113Y-52329676D01*
X42124112Y-52329669D01*
X42023737Y-51955063D01*
X41884755Y-51593005D01*
X41708689Y-51247456D01*
X41497468Y-50922206D01*
X41288904Y-50664649D01*
X41288903Y-50664648D01*
X39797732Y-52155818D01*
X39634870Y-51965130D01*
X39444180Y-51802266D01*
X40935350Y-50311096D01*
X40935350Y-50311095D01*
X40677793Y-50102531D01*
X40352543Y-49891310D01*
X40006994Y-49715244D01*
X39644936Y-49576262D01*
X39270330Y-49475887D01*
X39270323Y-49475886D01*
X38887287Y-49415219D01*
X38500001Y-49394922D01*
X38499999Y-49394922D01*
X38112712Y-49415219D01*
X37729676Y-49475886D01*
X37729669Y-49475887D01*
X37355063Y-49576262D01*
X36993005Y-49715244D01*
X36647456Y-49891310D01*
X36322206Y-50102531D01*
X36064648Y-50311095D01*
X36064648Y-50311096D01*
X37555819Y-51802266D01*
X37365130Y-51965130D01*
X37202266Y-52155818D01*
X35711096Y-50664648D01*
X35711095Y-50664648D01*
X35502531Y-50922206D01*
X35291310Y-51247456D01*
X35115244Y-51593005D01*
X34976262Y-51955063D01*
X34875887Y-52329669D01*
X34875886Y-52329676D01*
X34815219Y-52712712D01*
X34794922Y-53099999D01*
X34794922Y-53100000D01*
X32900500Y-53100000D01*
X32900500Y-47624500D01*
X32920185Y-47557461D01*
X32972989Y-47511706D01*
X33024500Y-47500500D01*
X267975500Y-47500500D01*
X268042539Y-47520185D01*
G37*
%TD.AperFunction*%
%TD*%
M02*
